$MeshFormat
2.2 0 8
$EndMeshFormat
$Nodes
343
1 0 0 0
2 0.001 0 0
3 0.001 0.001 0
4 0 0.001 0
5 0 0 0.0002
6 0.001 0 0.0002
7 0.001 0.001 0.0002
8 0 0.001 0.0002
9 0.0003333333333325707 0 0
10 0.0006666666666658605 0 0
11 0.0001666666666663905 0 0
12 0.0004999999999988565 0 0
13 0.0008333333333328447 0 0
14 0.001 0.0003333333333325707 0
15 0.001 0.0006666666666658605 0
16 0.001 0.0001666666666663905 0
17 0.001 0.0004999999999988565 0
18 0.001 0.0008333333333328447 0
19 0.0006666666666671468 0.001 0
20 0.0003333333333341031 0.001 0
21 0.0008333333333335449 0.001 0
22 0.0005000000000009341 0.001 0
23 0.0001666666666667973 0.001 0
24 0 0.0006666666666671468 0
25 0 0.0003333333333341031 0
26 0 0.0008333333333335449 0
27 0 0.0005000000000009341 0
28 0 0.0001666666666667973 0
29 0.0003333333333325707 0 0.0002
30 0.0006666666666658605 0 0.0002
31 0.0001666666666663905 0 0.0002
32 0.0004999999999988565 0 0.0002
33 0.0008333333333328447 0 0.0002
34 0.001 0.0003333333333325707 0.0002
35 0.001 0.0006666666666658605 0.0002
36 0.001 0.0001666666666663905 0.0002
37 0.001 0.0004999999999988565 0.0002
38 0.001 0.0008333333333328447 0.0002
39 0.0006666666666671468 0.001 0.0002
40 0.0003333333333341031 0.001 0.0002
41 0.0008333333333335449 0.001 0.0002
42 0.0005000000000009341 0.001 0.0002
43 0.0001666666666667973 0.001 0.0002
44 0 0.0006666666666671468 0.0002
45 0 0.0003333333333341031 0.0002
46 0 0.0008333333333335449 0.0002
47 0 0.0005000000000009341 0.0002
48 0 0.0001666666666667973 0.0002
49 0 0 6.666666666666667e-05
50 0 0 0.0001333333333333333
51 0 0 3.33333333333504e-05
52 0 0 9.999999999989539e-05
53 0 0 0.0001666666666666667
54 0.001 0 6.666666666666667e-05
55 0.001 0 0.0001333333333333333
56 0.001 0 3.33333333333504e-05
57 0.001 0 9.999999999989539e-05
58 0.001 0 0.0001666666666666667
59 0.001 0.001 6.666666666666667e-05
60 0.001 0.001 0.0001333333333333333
61 0.001 0.001 3.33333333333504e-05
62 0.001 0.001 9.999999999989539e-05
63 0.001 0.001 0.0001666666666666667
64 0 0.001 6.666666666666667e-05
65 0 0.001 0.0001333333333333333
66 0 0.001 3.33333333333504e-05
67 0 0.001 9.999999999989539e-05
68 0 0.001 0.0001666666666666667
69 0.0003333333333330816 0.0003333333333335922 0
70 0.0003333333333335924 0.0006666666666667181 0
71 0.0006666666666662892 0.0003333333333330816 0
72 0.0006666666666667179 0.0006666666666662892 0
73 0.0001666666666662854 0.0001666666666670515 0
74 0.0003333333333328262 0.0001666666666667961 0
75 0.0001666666666665408 0.0003333333333338476 0
76 0.0001666666666665408 0.0005000000000003695 0
77 0.000333333333333337 0.0005000000000001552 0
78 0.0001666666666667962 0.0006666666666669325 0
79 0.0001666666666667962 0.0008333333333333591 0
80 0.0003333333333338477 0.0008333333333333591 0
81 0.000499999999999471 0.0001666666666667961 0
82 0.0006666666666660749 0.0001666666666665408 0
83 0.0004999999999996854 0.000333333333333337 0
84 0.0004999999999999408 0.0004999999999998998 0
85 0.0006666666666665036 0.0004999999999996854 0
86 0.0005000000000001552 0.0006666666666665037 0
87 0.0005000000000004105 0.0008333333333331446 0
88 0.0006666666666669324 0.0008333333333331446 0
89 0.0008333333333331446 0.0001666666666665408 0
90 0.0008333333333331446 0.0003333333333328262 0
91 0.000833333333333359 0.0004999999999994299 0
92 0.000833333333333359 0.0006666666666660749 0
93 0.0008333333333335734 0.0008333333333329303 0
94 0.0003333333333325707 0 6.666666666666667e-05
95 0.0003333333333325707 0 0.0001333333333333333
96 0.0006666666666658605 0 6.666666666666667e-05
97 0.0006666666666658605 0 0.0001333333333333333
98 0.0003333333333325707 0 3.333333333333334e-05
99 0.0001666666666662854 0 6.666666666666667e-05
100 0.000166666666666338 0 3.333333333334187e-05
101 0.0003333333333325707 0 0.0001
102 0.0001666666666662854 0 0.0001333333333333333
103 0.0001666666666662854 0 9.999999999994771e-05
104 0.0003333333333325707 0 0.0001666666666666667
105 0.000166666666666338 0 0.0001666666666666667
106 0.0006666666666658605 0 3.333333333333334e-05
107 0.0004999999999992156 0 6.666666666666668e-05
108 0.0004999999999990359 0 3.333333333333335e-05
109 0.0006666666666658605 0 0.0001
110 0.0004999999999992156 0 0.0001333333333333333
111 0.0004999999999992155 0 0.0001
112 0.0006666666666658605 0 0.0001666666666666667
113 0.0004999999999990359 0 0.0001666666666666667
114 0.0008333333333329303 0 6.666666666666668e-05
115 0.0008333333333328876 0 3.333333333334187e-05
116 0.0008333333333329303 0 0.0001333333333333333
117 0.0008333333333329304 0 9.999999999994771e-05
118 0.0008333333333328876 0 0.0001666666666666667
119 0.001 0.0003333333333325707 6.666666666666667e-05
120 0.001 0.0003333333333325707 0.0001333333333333333
121 0.001 0.0006666666666658605 6.666666666666667e-05
122 0.001 0.0006666666666658605 0.0001333333333333333
123 0.001 0.0003333333333325707 3.333333333333334e-05
124 0.001 0.0001666666666662854 6.666666666666667e-05
125 0.001 0.000166666666666338 3.333333333334187e-05
126 0.001 0.0003333333333325707 0.0001
127 0.001 0.0001666666666662854 0.0001333333333333333
128 0.001 0.0001666666666662854 9.999999999994771e-05
129 0.001 0.0003333333333325707 0.0001666666666666667
130 0.001 0.000166666666666338 0.0001666666666666667
131 0.001 0.0006666666666658605 3.333333333333334e-05
132 0.001 0.0004999999999992156 6.666666666666668e-05
133 0.001 0.0004999999999990359 3.333333333333335e-05
134 0.001 0.0006666666666658605 0.0001
135 0.001 0.0004999999999992156 0.0001333333333333333
136 0.001 0.0004999999999992155 0.0001
137 0.001 0.0006666666666658605 0.0001666666666666667
138 0.001 0.0004999999999990359 0.0001666666666666667
139 0.001 0.0008333333333329303 6.666666666666668e-05
140 0.001 0.0008333333333328876 3.333333333334187e-05
141 0.001 0.0008333333333329303 0.0001333333333333333
142 0.001 0.0008333333333329304 9.999999999994771e-05
143 0.001 0.0008333333333328876 0.0001666666666666667
144 0.0006666666666671468 0.001 6.666666666666667e-05
145 0.0006666666666671468 0.001 0.0001333333333333333
146 0.0003333333333341031 0.001 6.666666666666667e-05
147 0.0003333333333341031 0.001 0.0001333333333333333
148 0.0006666666666671468 0.001 3.333333333333334e-05
149 0.0008333333333335734 0.001 6.666666666666667e-05
150 0.0008333333333335592 0.001 3.333333333334187e-05
151 0.0006666666666671468 0.001 0.0001
152 0.0008333333333335734 0.001 0.0001333333333333333
153 0.0008333333333335734 0.001 9.999999999994771e-05
154 0.0006666666666671468 0.001 0.0001666666666666667
155 0.0008333333333335592 0.001 0.0001666666666666667
156 0.0003333333333341031 0.001 3.333333333333334e-05
157 0.0005000000000006249 0.001 6.666666666666668e-05
158 0.0005000000000007796 0.001 3.333333333333335e-05
159 0.0003333333333341031 0.001 0.0001
160 0.0005000000000006249 0.001 0.0001333333333333333
161 0.0005000000000006249 0.001 0.0001
162 0.0003333333333341031 0.001 0.0001666666666666667
163 0.0005000000000007796 0.001 0.0001666666666666667
164 0.0001666666666670515 0.001 6.666666666666668e-05
165 0.0001666666666669244 0.001 3.333333333334187e-05
166 0.0001666666666670515 0.001 0.0001333333333333333
167 0.0001666666666670515 0.001 9.999999999994771e-05
168 0.0001666666666669244 0.001 0.0001666666666666667
169 0 0.0006666666666671468 6.666666666666667e-05
170 0 0.0006666666666671468 0.0001333333333333333
171 0 0.0003333333333341031 6.666666666666667e-05
172 0 0.0003333333333341031 0.0001333333333333333
173 0 0.0006666666666671468 3.333333333333334e-05
174 0 0.0008333333333335734 6.666666666666667e-05
175 0 0.0008333333333335592 3.333333333334187e-05
176 0 0.0006666666666671468 0.0001
177 0 0.0008333333333335734 0.0001333333333333333
178 0 0.0008333333333335734 9.999999999994771e-05
179 0 0.0006666666666671468 0.0001666666666666667
180 0 0.0008333333333335592 0.0001666666666666667
181 0 0.0003333333333341031 3.333333333333334e-05
182 0 0.0005000000000006249 6.666666666666668e-05
183 0 0.0005000000000007796 3.333333333333335e-05
184 0 0.0003333333333341031 0.0001
185 0 0.0005000000000006249 0.0001333333333333333
186 0 0.0005000000000006249 0.0001
187 0 0.0003333333333341031 0.0001666666666666667
188 0 0.0005000000000007796 0.0001666666666666667
189 0 0.0001666666666670515 6.666666666666668e-05
190 0 0.0001666666666669244 3.333333333334187e-05
191 0 0.0001666666666670515 0.0001333333333333333
192 0 0.0001666666666670515 9.999999999994771e-05
193 0 0.0001666666666669244 0.0001666666666666667
194 0.0003333333333330816 0.0003333333333335922 0.0002
195 0.0003333333333335924 0.0006666666666667181 0.0002
196 0.0006666666666662892 0.0003333333333330816 0.0002
197 0.0006666666666667179 0.0006666666666662892 0.0002
198 0.0001666666666662854 0.0001666666666670515 0.0002
199 0.0003333333333328262 0.0001666666666667961 0.0002
200 0.0001666666666665408 0.0003333333333338476 0.0002
201 0.0001666666666665408 0.0005000000000003695 0.0002
202 0.000333333333333337 0.0005000000000001552 0.0002
203 0.0001666666666667962 0.0006666666666669325 0.0002
204 0.0001666666666667962 0.0008333333333333591 0.0002
205 0.0003333333333338477 0.0008333333333333591 0.0002
206 0.000499999999999471 0.0001666666666667961 0.0002
207 0.0006666666666660749 0.0001666666666665408 0.0002
208 0.0004999999999996854 0.000333333333333337 0.0002
209 0.0004999999999999408 0.0004999999999998998 0.0002
210 0.0006666666666665036 0.0004999999999996854 0.0002
211 0.0005000000000001552 0.0006666666666665037 0.0002
212 0.0005000000000004105 0.0008333333333331446 0.0002
213 0.0006666666666669324 0.0008333333333331446 0.0002
214 0.0008333333333331446 0.0001666666666665408 0.0002
215 0.0008333333333331446 0.0003333333333328262 0.0002
216 0.000833333333333359 0.0004999999999994299 0.0002
217 0.000833333333333359 0.0006666666666660749 0.0002
218 0.0008333333333335734 0.0008333333333329303 0.0002
219 0.0003333333333330816 0.0003333333333335922 6.666666666666667e-05
220 0.0003333333333330816 0.0003333333333335922 0.0001333333333333333
221 0.0003333333333335924 0.0006666666666667181 6.666666666666667e-05
222 0.0003333333333335924 0.0006666666666667181 0.0001333333333333333
223 0.0006666666666662892 0.0003333333333330816 6.666666666666667e-05
224 0.0006666666666662892 0.0003333333333330816 0.0001333333333333333
225 0.0006666666666667179 0.0006666666666662892 6.666666666666667e-05
226 0.0006666666666667179 0.0006666666666662892 0.0001333333333333333
227 0.0001666666666662854 0.0001666666666670515 6.666666666666667e-05
228 0.0001666666666662854 0.0001666666666670515 3.333333333333334e-05
229 0.0001666666666662854 0.0001666666666670515 0.0001333333333333333
230 0.0001666666666662854 0.0001666666666670515 0.0001
231 0.0001666666666662854 0.0001666666666670515 0.0001666666666666667
232 0.0003333333333330816 0.0003333333333335922 3.333333333333333e-05
233 0.0001666666666665408 0.0003333333333338476 6.666666666666667e-05
234 0.0003333333333328262 0.0001666666666667961 6.666666666666667e-05
235 0.0001666666666665408 0.0003333333333338476 3.333333333333333e-05
236 0.0003333333333328262 0.0001666666666667961 3.333333333333333e-05
237 0.0003333333333330816 0.0003333333333335922 0.0001
238 0.0001666666666665408 0.0003333333333338476 0.0001333333333333333
239 0.0003333333333328262 0.0001666666666667961 0.0001333333333333333
240 0.0001666666666665408 0.0003333333333338476 9.999999999999999e-05
241 0.0003333333333328262 0.0001666666666667961 0.0001
242 0.0003333333333330816 0.0003333333333335922 0.0001666666666666667
243 0.0001666666666665408 0.0003333333333338476 0.0001666666666666666
244 0.0003333333333328262 0.0001666666666667961 0.0001666666666666667
245 0.0001666666666665408 0.0005000000000003695 6.666666666666667e-05
246 0.0001666666666665408 0.0005000000000003695 3.333333333333333e-05
247 0.0001666666666665408 0.0005000000000003695 0.0001333333333333333
248 0.0001666666666665408 0.0005000000000003695 0.0001
249 0.0001666666666665408 0.0005000000000003695 0.0001666666666666667
250 0.0003333333333335924 0.0006666666666667181 3.333333333333333e-05
251 0.0001666666666667962 0.0006666666666669325 6.666666666666667e-05
252 0.000333333333333337 0.0005000000000001552 6.666666666666667e-05
253 0.0001666666666667962 0.0006666666666669325 3.333333333333333e-05
254 0.000333333333333337 0.0005000000000001552 3.333333333333333e-05
255 0.0003333333333335924 0.0006666666666667181 0.0001
256 0.0001666666666667962 0.0006666666666669325 0.0001333333333333333
257 0.000333333333333337 0.0005000000000001552 0.0001333333333333333
258 0.0001666666666667962 0.0006666666666669325 9.999999999999999e-05
259 0.000333333333333337 0.0005000000000001552 0.0001
260 0.0003333333333335924 0.0006666666666667181 0.0001666666666666667
261 0.0001666666666667962 0.0006666666666669325 0.0001666666666666666
262 0.000333333333333337 0.0005000000000001552 0.0001666666666666667
263 0.0001666666666667962 0.0008333333333333591 6.666666666666667e-05
264 0.0001666666666667962 0.0008333333333333591 3.333333333334187e-05
265 0.0001666666666667962 0.0008333333333333591 0.0001333333333333333
266 0.0001666666666667962 0.0008333333333333591 9.999999999994771e-05
267 0.0001666666666667962 0.0008333333333333591 0.0001666666666666667
268 0.0003333333333338477 0.0008333333333333591 6.666666666666667e-05
269 0.0003333333333338477 0.0008333333333333591 3.333333333333333e-05
270 0.0003333333333338477 0.0008333333333333591 0.0001333333333333333
271 0.0003333333333338477 0.0008333333333333591 0.0001
272 0.0003333333333338477 0.0008333333333333591 0.0001666666666666667
273 0.000499999999999471 0.0001666666666667961 6.666666666666667e-05
274 0.000499999999999471 0.0001666666666667961 3.333333333333333e-05
275 0.000499999999999471 0.0001666666666667961 0.0001333333333333333
276 0.000499999999999471 0.0001666666666667961 0.0001
277 0.000499999999999471 0.0001666666666667961 0.0001666666666666667
278 0.0006666666666662892 0.0003333333333330816 3.333333333333333e-05
279 0.0004999999999996854 0.000333333333333337 6.666666666666667e-05
280 0.0006666666666660749 0.0001666666666665408 6.666666666666667e-05
281 0.0004999999999996854 0.000333333333333337 3.333333333333333e-05
282 0.000666666666666075 0.0001666666666665408 3.333333333333333e-05
283 0.0006666666666662892 0.0003333333333330816 0.0001
284 0.0004999999999996854 0.000333333333333337 0.0001333333333333333
285 0.0006666666666660749 0.0001666666666665408 0.0001333333333333333
286 0.0004999999999996854 0.000333333333333337 9.999999999999999e-05
287 0.000666666666666075 0.0001666666666665408 0.0001
288 0.0006666666666662892 0.0003333333333330816 0.0001666666666666667
289 0.0004999999999996854 0.000333333333333337 0.0001666666666666667
290 0.000666666666666075 0.0001666666666665408 0.0001666666666666667
291 0.0004999999999999408 0.0004999999999998998 6.666666666666667e-05
292 0.0004999999999999408 0.0004999999999998998 3.333333333333333e-05
293 0.0004999999999999408 0.0004999999999998998 0.0001333333333333333
294 0.0004999999999999408 0.0004999999999998998 0.0001
295 0.0004999999999999408 0.0004999999999998998 0.0001666666666666667
296 0.0006666666666667179 0.0006666666666662892 3.333333333333333e-05
297 0.0005000000000001552 0.0006666666666665037 6.666666666666667e-05
298 0.0006666666666665036 0.0004999999999996854 6.666666666666667e-05
299 0.0005000000000001552 0.0006666666666665037 3.333333333333333e-05
300 0.0006666666666665036 0.0004999999999996854 3.333333333333333e-05
301 0.0006666666666667179 0.0006666666666662892 0.0001
302 0.0005000000000001552 0.0006666666666665037 0.0001333333333333333
303 0.0006666666666665036 0.0004999999999996854 0.0001333333333333333
304 0.0005000000000001552 0.0006666666666665037 9.999999999999999e-05
305 0.0006666666666665036 0.0004999999999996854 0.0001
306 0.0006666666666667179 0.0006666666666662892 0.0001666666666666667
307 0.0005000000000001552 0.0006666666666665037 0.0001666666666666667
308 0.0006666666666665036 0.0004999999999996854 0.0001666666666666667
309 0.0005000000000004105 0.0008333333333331446 6.666666666666667e-05
310 0.0005000000000004105 0.0008333333333331446 3.333333333333333e-05
311 0.0005000000000004105 0.0008333333333331446 0.0001333333333333333
312 0.0005000000000004105 0.0008333333333331446 0.0001
313 0.0005000000000004105 0.0008333333333331446 0.0001666666666666667
314 0.0006666666666669324 0.0008333333333331446 6.666666666666667e-05
315 0.0006666666666669324 0.0008333333333331446 3.333333333333333e-05
316 0.0006666666666669324 0.0008333333333331446 0.0001333333333333333
317 0.0006666666666669324 0.0008333333333331446 0.0001
318 0.0006666666666669324 0.0008333333333331446 0.0001666666666666667
319 0.0008333333333331446 0.0001666666666665408 6.666666666666667e-05
320 0.0008333333333331446 0.0001666666666665408 3.333333333334187e-05
321 0.0008333333333331446 0.0001666666666665408 0.0001333333333333333
322 0.0008333333333331446 0.0001666666666665408 9.999999999994771e-05
323 0.0008333333333331446 0.0001666666666665408 0.0001666666666666667
324 0.0008333333333331446 0.0003333333333328262 6.666666666666667e-05
325 0.0008333333333331446 0.0003333333333328262 3.333333333333333e-05
326 0.0008333333333331446 0.0003333333333328262 0.0001333333333333333
327 0.0008333333333331446 0.0003333333333328262 9.999999999999999e-05
328 0.0008333333333331446 0.0003333333333328262 0.0001666666666666666
329 0.000833333333333359 0.0004999999999994299 6.666666666666667e-05
330 0.000833333333333359 0.0004999999999994299 3.333333333333333e-05
331 0.000833333333333359 0.0004999999999994299 0.0001333333333333333
332 0.000833333333333359 0.0004999999999994299 0.0001
333 0.000833333333333359 0.0004999999999994299 0.0001666666666666667
334 0.000833333333333359 0.0006666666666660749 6.666666666666667e-05
335 0.000833333333333359 0.000666666666666075 3.333333333333333e-05
336 0.000833333333333359 0.0006666666666660749 0.0001333333333333333
337 0.000833333333333359 0.000666666666666075 9.999999999999999e-05
338 0.000833333333333359 0.000666666666666075 0.0001666666666666666
339 0.0008333333333335734 0.0008333333333329303 6.666666666666667e-05
340 0.0008333333333335734 0.0008333333333329304 3.333333333333334e-05
341 0.0008333333333335734 0.0008333333333329303 0.0001333333333333333
342 0.0008333333333335734 0.0008333333333329304 0.0001
343 0.0008333333333335734 0.0008333333333329304 0.0001666666666666667
$EndNodes
$Elements
90
1 9 2 10 1 1 9 25 11 73 28
2 9 2 10 1 25 9 69 73 74 75
3 9 2 10 1 25 69 24 75 76 27
4 9 2 10 1 24 69 70 76 77 78
5 9 2 10 1 24 70 4 78 79 26
6 9 2 10 1 4 70 20 79 80 23
7 9 2 10 1 9 10 69 12 81 74
8 9 2 10 1 69 10 71 81 82 83
9 9 2 10 1 69 71 70 83 84 77
10 9 2 10 1 70 71 72 84 85 86
11 9 2 10 1 70 72 20 86 87 80
12 9 2 10 1 20 72 19 87 88 22
13 9 2 10 1 10 2 71 13 89 82
14 9 2 10 1 71 2 14 89 16 90
15 9 2 10 1 71 14 72 90 91 85
16 9 2 10 1 72 14 15 91 17 92
17 9 2 10 1 72 15 19 92 93 88
18 9 2 10 1 19 15 3 93 18 21
19 9 2 11 26 5 29 45 31 198 48
20 9 2 11 26 45 29 194 198 199 200
21 9 2 11 26 45 194 44 200 201 47
22 9 2 11 26 44 194 195 201 202 203
23 9 2 11 26 44 195 8 203 204 46
24 9 2 11 26 8 195 40 204 205 43
25 9 2 11 26 29 30 194 32 206 199
26 9 2 11 26 194 30 196 206 207 208
27 9 2 11 26 194 196 195 208 209 202
28 9 2 11 26 195 196 197 209 210 211
29 9 2 11 26 195 197 40 211 212 205
30 9 2 11 26 40 197 39 212 213 42
31 9 2 11 26 30 6 196 33 214 207
32 9 2 11 26 196 6 34 214 36 215
33 9 2 11 26 196 34 197 215 216 210
34 9 2 11 26 197 34 35 216 37 217
35 9 2 11 26 197 35 39 217 218 213
36 9 2 11 26 39 35 7 218 38 41
37 13 2 1 1 1 9 25 49 94 171 11 28 51 73 98 181 99 189 227 100 190 228
38 13 2 1 1 49 94 171 50 95 172 99 189 52 227 101 184 102 191 229 103 192 230
39 13 2 1 1 50 95 172 5 29 45 102 191 53 229 104 187 31 48 198 105 193 231
40 13 2 1 1 25 9 69 171 94 219 73 75 181 74 98 232 227 233 234 228 235 236
41 13 2 1 1 171 94 219 172 95 220 227 233 184 234 101 237 229 238 239 230 240 241
42 13 2 1 1 172 95 220 45 29 194 229 238 187 239 104 242 198 200 199 231 243 244
43 13 2 1 1 25 69 24 171 219 169 75 27 181 76 232 173 233 182 245 235 183 246
44 13 2 1 1 171 219 169 172 220 170 233 182 184 245 237 176 238 185 247 240 186 248
45 13 2 1 1 172 220 170 45 194 44 238 185 187 247 242 179 200 47 201 243 188 249
46 13 2 1 1 24 69 70 169 219 221 76 78 173 77 232 250 245 251 252 246 253 254
47 13 2 1 1 169 219 221 170 220 222 245 251 176 252 237 255 247 256 257 248 258 259
48 13 2 1 1 170 220 222 44 194 195 247 256 179 257 242 260 201 203 202 249 261 262
49 13 2 1 1 24 70 4 169 221 64 78 26 173 79 250 66 251 174 263 253 175 264
50 13 2 1 1 169 221 64 170 222 65 251 174 176 263 255 67 256 177 265 258 178 266
51 13 2 1 1 170 222 65 44 195 8 256 177 179 265 260 68 203 46 204 261 180 267
52 13 2 1 1 4 70 20 64 221 146 79 23 66 80 250 156 263 164 268 264 165 269
53 13 2 1 1 64 221 146 65 222 147 263 164 67 268 255 159 265 166 270 266 167 271
54 13 2 1 1 65 222 147 8 195 40 265 166 68 270 260 162 204 43 205 267 168 272
55 13 2 1 1 9 10 69 94 96 219 12 74 98 81 106 232 107 234 273 108 236 274
56 13 2 1 1 94 96 219 95 97 220 107 234 101 273 109 237 110 239 275 111 241 276
57 13 2 1 1 95 97 220 29 30 194 110 239 104 275 112 242 32 199 206 113 244 277
58 13 2 1 1 69 10 71 219 96 223 81 83 232 82 106 278 273 279 280 274 281 282
59 13 2 1 1 219 96 223 220 97 224 273 279 237 280 109 283 275 284 285 276 286 287
60 13 2 1 1 220 97 224 194 30 196 275 284 242 285 112 288 206 208 207 277 289 290
61 13 2 1 1 69 71 70 219 223 221 83 77 232 84 278 250 279 252 291 281 254 292
62 13 2 1 1 219 223 221 220 224 222 279 252 237 291 283 255 284 257 293 286 259 294
63 13 2 1 1 220 224 222 194 196 195 284 257 242 293 288 260 208 202 209 289 262 295
64 13 2 1 1 70 71 72 221 223 225 84 86 250 85 278 296 291 297 298 292 299 300
65 13 2 1 1 221 223 225 222 224 226 291 297 255 298 283 301 293 302 303 294 304 305
66 13 2 1 1 222 224 226 195 196 197 293 302 260 303 288 306 209 211 210 295 307 308
67 13 2 1 1 70 72 20 221 225 146 86 80 250 87 296 156 297 268 309 299 269 310
68 13 2 1 1 221 225 146 222 226 147 297 268 255 309 301 159 302 270 311 304 271 312
69 13 2 1 1 222 226 147 195 197 40 302 270 260 311 306 162 211 205 212 307 272 313
70 13 2 1 1 20 72 19 146 225 144 87 22 156 88 296 148 309 157 314 310 158 315
71 13 2 1 1 146 225 144 147 226 145 309 157 159 314 301 151 311 160 316 312 161 317
72 13 2 1 1 147 226 145 40 197 39 311 160 162 316 306 154 212 42 213 313 163 318
73 13 2 1 1 10 2 71 96 54 223 13 82 106 89 56 278 114 280 319 115 282 320
74 13 2 1 1 96 54 223 97 55 224 114 280 109 319 57 283 116 285 321 117 287 322
75 13 2 1 1 97 55 224 30 6 196 116 285 112 321 58 288 33 207 214 118 290 323
76 13 2 1 1 71 2 14 223 54 119 89 90 278 16 56 123 319 324 124 320 325 125
77 13 2 1 1 223 54 119 224 55 120 319 324 283 124 57 126 321 326 127 322 327 128
78 13 2 1 1 224 55 120 196 6 34 321 326 288 127 58 129 214 215 36 323 328 130
79 13 2 1 1 71 14 72 223 119 225 90 85 278 91 123 296 324 298 329 325 300 330
80 13 2 1 1 223 119 225 224 120 226 324 298 283 329 126 301 326 303 331 327 305 332
81 13 2 1 1 224 120 226 196 34 197 326 303 288 331 129 306 215 210 216 328 308 333
82 13 2 1 1 72 14 15 225 119 121 91 92 296 17 123 131 329 334 132 330 335 133
83 13 2 1 1 225 119 121 226 120 122 329 334 301 132 126 134 331 336 135 332 337 136
84 13 2 1 1 226 120 122 197 34 35 331 336 306 135 129 137 216 217 37 333 338 138
85 13 2 1 1 72 15 19 225 121 144 92 88 296 93 131 148 334 314 339 335 315 340
86 13 2 1 1 225 121 144 226 122 145 334 314 301 339 134 151 336 316 341 337 317 342
87 13 2 1 1 226 122 145 197 35 39 336 316 306 341 137 154 217 213 218 338 318 343
88 13 2 1 1 19 15 3 144 121 59 93 21 148 18 131 61 339 149 139 340 150 140
89 13 2 1 1 144 121 59 145 122 60 339 149 151 139 134 62 341 152 141 342 153 142
90 13 2 1 1 145 122 60 39 35 7 341 152 154 141 137 63 218 41 38 343 155 143
$EndElements
