$MeshFormat
2.2 0 8
$EndMeshFormat
$Nodes
64
1 0 0 0
2 0.0008660254037844387 0.00046984631039295412 0.00017101007166283434
3 0.00036602540378443879 0.0012836439917423277 0.00046720820438885815
4 -0.0004999999999999999 0.00081379768134937373 0.00029619813272602387
5 0 -6.8404028665133748e-05 0.0001879385241571817
6 0.0008660254037844387 0.00040144228172782039 0.00035894859582001604
7 0.00036602540378443879 0.0012152399630771939 0.0006551467285460398
8 -0.0004999999999999999 0.00074539365268424 0.00048413665688320557
9 0.00028867513459415246 0.00015661543679729305 5.700335722081436e-05
10 0.00057735026918892768 0.000313230873594924 0.0001140067144417517
11 0.00069935873711815338 0.00074111220417545816 0.00026974278257128306
12 0.00053269207045150853 0.0010123780979585473 0.00036847549347994479
13 7.7350269190041795e-05 0.0011270285549449021 0.00041020484716799548
14 -0.00021132486540452038 0.00097041311814738678 0.00035320148994710023
15 -0.00033333333333357336 0.00054253178756664001 0.00019746542181749147
16 -0.00016666666666705153 0.00027126589378375103 9.8732710908902617e-05
17 0.00028867513459415246 8.8211408132159307e-05 0.00024494188137799607
18 0.00057735026918892768 0.00024482684492979027 0.00030194523859893339
19 0.00069935873711815338 0.00067270817551032442 0.00045768130672846477
20 0.00053269207045150853 0.00094397406929341355 0.00055641401763712644
21 7.7350269190041795e-05 0.0010586245262797682 0.00059814337132517719
22 -0.00021132486540452038 0.00090200908948225304 0.00054114001410428194
23 -0.00033333333333357336 0.00047412775890150628 0.00038540394597467314
24 -0.00016666666666705153 0.0002028618651186173 0.00028667123506608433
25 0 -2.2801342888377916e-05 6.2646174719060559e-05
26 0 -4.5602685776755818e-05 0.00012529234943812109
27 0.0008660254037844387 0.00044704496750457619 0.00023365624638189489
28 0.0008660254037844387 0.00042424362461619832 0.00029630242110095545
29 0.00036602540378443879 0.0012608426488539498 0.00052985437910791874
30 0.00036602540378443879 0.0012380413059655719 0.00059250055382697921
31 -0.0004999999999999999 0.00079099633846099586 0.00035884430744508445
32 -0.0004999999999999999 0.00076819499557261787 0.00042149048216414493
33 0.00012200846792779886 0.00042788133058086836 0.00015573606812965303
34 -4.4658198738321744e-05 0.00069914722436406423 0.00025446877903835357
35 0.00041068360252275815 0.00058449676737804522 0.00021273942535042506
36 0.00024401693585652569 0.00085576266116126889 0.00031147213625913579
37 0.00028867513459415246 0.00013381409390891515 0.00011964953193987493
38 0.00028867513459415246 0.00011101275102053724 0.00018229570665893546
39 0.00057735026918892768 0.00029042953070654607 0.00017665288916081227
40 0.00057735026918892768 0.0002676281878181682 0.0002392990638798728
41 0.00069935873711815338 0.00071831086128708028 0.00033238895729034365
42 0.00069935873711815338 0.0006955095183987023 0.00039503513200940413
43 0.00053269207045150853 0.00098957675507016941 0.00043112166819900537
44 0.00053269207045150853 0.00096677541218179142 0.00049376784291806585
45 7.7350269190041795e-05 0.0011042272120565242 0.00047285102188705601
46 7.7350269190041795e-05 0.0010814258691681463 0.0005354971966061166
47 -0.00021132486540452038 0.0009476117752590089 0.00041584766466616077
48 -0.00021132486540452038 0.00092481043237063092 0.00047849383938522135
49 -0.00033333333333357336 0.00051973044467826213 0.00026011159653655203
50 -0.00033333333333357336 0.00049692910178988415 0.00032275777125561256
51 -0.00016666666666705153 0.0002484645508953731 0.00016137888562796316
52 -0.00016666666666705153 0.00022566320800699522 0.00022402506034702369
53 0.00012200846792779886 0.00035947730191573463 0.00034367459228683473
54 -4.4658198738321744e-05 0.00063074319569893049 0.00044240730319553527
55 0.00041068360252275815 0.00051609273871291148 0.00040067794950760676
56 0.00024401693585652569 0.00078735863249613516 0.00049941066041631749
57 0.00012200846792779886 0.00040507998769249043 0.00021838224284871359
58 0.00012200846792779886 0.00038227864480411256 0.00028102841756777409
59 -4.4658198738321744e-05 0.00067634588147568635 0.00031711495375741415
60 -4.4658198738321744e-05 0.00065354453858730837 0.00037976112847647463
61 0.00041068360252275815 0.00056169542448966734 0.00027538560006948559
62 0.00041068360252275815 0.00053889408160128936 0.00033803177478854618
63 0.00024401693585652569 0.00083296131827289102 0.00037411831097819632
64 0.00024401693585652569 0.00081015997538451303 0.0004367644856972569
$EndNodes
$Elements
90
1 2 2 10 1 1 9 16
2 2 2 10 1 16 9 33
3 2 2 10 1 16 33 15
4 2 2 10 1 15 33 34
5 2 2 10 1 15 34 4
6 2 2 10 1 4 34 14
7 2 2 10 1 9 10 33
8 2 2 10 1 33 10 35
9 2 2 10 1 33 35 34
10 2 2 10 1 34 35 36
11 2 2 10 1 34 36 14
12 2 2 10 1 14 36 13
13 2 2 10 1 10 2 35
14 2 2 10 1 35 2 11
15 2 2 10 1 35 11 36
16 2 2 10 1 36 11 12
17 2 2 10 1 36 12 13
18 2 2 10 1 13 12 3
19 2 2 11 26 5 17 24
20 2 2 11 26 24 17 53
21 2 2 11 26 24 53 23
22 2 2 11 26 23 53 54
23 2 2 11 26 23 54 8
24 2 2 11 26 8 54 22
25 2 2 11 26 17 18 53
26 2 2 11 26 53 18 55
27 2 2 11 26 53 55 54
28 2 2 11 26 54 55 56
29 2 2 11 26 54 56 22
30 2 2 11 26 22 56 21
31 2 2 11 26 18 6 55
32 2 2 11 26 55 6 19
33 2 2 11 26 55 19 56
34 2 2 11 26 56 19 20
35 2 2 11 26 56 20 21
36 2 2 11 26 21 20 7
37 6 2 1 1 1 9 16 25 37 51
38 6 2 1 1 25 37 51 26 38 52
39 6 2 1 1 26 38 52 5 17 24
40 6 2 1 1 16 9 33 51 37 57
41 6 2 1 1 51 37 57 52 38 58
42 6 2 1 1 52 38 58 24 17 53
43 6 2 1 1 16 33 15 51 57 49
44 6 2 1 1 51 57 49 52 58 50
45 6 2 1 1 52 58 50 24 53 23
46 6 2 1 1 15 33 34 49 57 59
47 6 2 1 1 49 57 59 50 58 60
48 6 2 1 1 50 58 60 23 53 54
49 6 2 1 1 15 34 4 49 59 31
50 6 2 1 1 49 59 31 50 60 32
51 6 2 1 1 50 60 32 23 54 8
52 6 2 1 1 4 34 14 31 59 47
53 6 2 1 1 31 59 47 32 60 48
54 6 2 1 1 32 60 48 8 54 22
55 6 2 1 1 9 10 33 37 39 57
56 6 2 1 1 37 39 57 38 40 58
57 6 2 1 1 38 40 58 17 18 53
58 6 2 1 1 33 10 35 57 39 61
59 6 2 1 1 57 39 61 58 40 62
60 6 2 1 1 58 40 62 53 18 55
61 6 2 1 1 33 35 34 57 61 59
62 6 2 1 1 57 61 59 58 62 60
63 6 2 1 1 58 62 60 53 55 54
64 6 2 1 1 34 35 36 59 61 63
65 6 2 1 1 59 61 63 60 62 64
66 6 2 1 1 60 62 64 54 55 56
67 6 2 1 1 34 36 14 59 63 47
68 6 2 1 1 59 63 47 60 64 48
69 6 2 1 1 60 64 48 54 56 22
70 6 2 1 1 14 36 13 47 63 45
71 6 2 1 1 47 63 45 48 64 46
72 6 2 1 1 48 64 46 22 56 21
73 6 2 1 1 10 2 35 39 27 61
74 6 2 1 1 39 27 61 40 28 62
75 6 2 1 1 40 28 62 18 6 55
76 6 2 1 1 35 2 11 61 27 41
77 6 2 1 1 61 27 41 62 28 42
78 6 2 1 1 62 28 42 55 6 19
79 6 2 1 1 35 11 36 61 41 63
80 6 2 1 1 61 41 63 62 42 64
81 6 2 1 1 62 42 64 55 19 56
82 6 2 1 1 36 11 12 63 41 43
83 6 2 1 1 63 41 43 64 42 44
84 6 2 1 1 64 42 44 56 19 20
85 6 2 1 1 36 12 13 63 43 45
86 6 2 1 1 63 43 45 64 44 46
87 6 2 1 1 64 44 46 56 20 21
88 6 2 1 1 13 12 3 45 43 29
89 6 2 1 1 45 43 29 46 44 30
90 6 2 1 1 46 44 30 21 20 7
$EndElements
