$MeshFormat
2.2 0 8
$EndMeshFormat
$Nodes
80
1 0 0 0
2 0 0 5e-05
3 0 0 0.0001
4 0 0 0.00015
5 0 0 0.0002
6 0 0.0003333333333333333 0
7 0 0.0003333333333333333 5e-05
8 0 0.0003333333333333333 0.0001
9 0 0.0003333333333333333 0.00015
10 0 0.0003333333333333333 0.0002
11 0 0.0006666666666666666 0
12 0 0.0006666666666666666 5e-05
13 0 0.0006666666666666666 0.0001
14 0 0.0006666666666666666 0.00015
15 0 0.0006666666666666666 0.0002
16 0 0.001 0
17 0 0.001 5e-05
18 0 0.001 0.0001
19 0 0.001 0.00015
20 0 0.001 0.0002
21 0.0003333333333333333 0 0
22 0.0003333333333333333 0 5e-05
23 0.0003333333333333333 0 0.0001
24 0.0003333333333333333 0 0.00015
25 0.0003333333333333333 0 0.0002
26 0.0003333333333333333 0.0003333333333333333 0
27 0.0003333333333333333 0.0003333333333333333 5e-05
28 0.0003333333333333333 0.0003333333333333333 0.0001
29 0.0003333333333333333 0.0003333333333333333 0.00015
30 0.0003333333333333333 0.0003333333333333333 0.0002
31 0.0003333333333333333 0.0006666666666666666 0
32 0.0003333333333333333 0.0006666666666666666 5e-05
33 0.0003333333333333333 0.0006666666666666666 0.0001
34 0.0003333333333333333 0.0006666666666666666 0.00015
35 0.0003333333333333333 0.0006666666666666666 0.0002
36 0.0003333333333333333 0.001 0
37 0.0003333333333333333 0.001 5e-05
38 0.0003333333333333333 0.001 0.0001
39 0.0003333333333333333 0.001 0.00015
40 0.0003333333333333333 0.001 0.0002
41 0.0006666666666666666 0 0
42 0.0006666666666666666 0 5e-05
43 0.0006666666666666666 0 0.0001
44 0.0006666666666666666 0 0.00015
45 0.0006666666666666666 0 0.0002
46 0.0006666666666666666 0.0003333333333333333 0
47 0.0006666666666666666 0.0003333333333333333 5e-05
48 0.0006666666666666666 0.0003333333333333333 0.0001
49 0.0006666666666666666 0.0003333333333333333 0.00015
50 0.0006666666666666666 0.0003333333333333333 0.0002
51 0.0006666666666666666 0.0006666666666666666 0
52 0.0006666666666666666 0.0006666666666666666 5e-05
53 0.0006666666666666666 0.0006666666666666666 0.0001
54 0.0006666666666666666 0.0006666666666666666 0.00015
55 0.0006666666666666666 0.0006666666666666666 0.0002
56 0.0006666666666666666 0.001 0
57 0.0006666666666666666 0.001 5e-05
58 0.0006666666666666666 0.001 0.0001
59 0.0006666666666666666 0.001 0.00015
60 0.0006666666666666666 0.001 0.0002
61 0.001 0 0
62 0.001 0 5e-05
63 0.001 0 0.0001
64 0.001 0 0.00015
65 0.001 0 0.0002
66 0.001 0.0003333333333333333 0
67 0.001 0.0003333333333333333 5e-05
68 0.001 0.0003333333333333333 0.0001
69 0.001 0.0003333333333333333 0.00015
70 0.001 0.0003333333333333333 0.0002
71 0.001 0.0006666666666666666 0
72 0.001 0.0006666666666666666 5e-05
73 0.001 0.0006666666666666666 0.0001
74 0.001 0.0006666666666666666 0.00015
75 0.001 0.0006666666666666666 0.0002
76 0.001 0.001 0
77 0.001 0.001 5e-05
78 0.001 0.001 0.0001
79 0.001 0.001 0.00015
80 0.001 0.001 0.0002
$EndNodes
$Elements
180
1 6 2 1 1 1 21 26 2 22 27
2 6 2 1 1 1 26 6 2 27 7
3 6 2 1 1 2 22 27 3 23 28
4 6 2 1 1 2 27 7 3 28 8
5 4 2 2 2 3 23 28 29
6 4 2 2 2 3 23 29 24
7 4 2 2 2 3 24 29 4
8 4 2 2 2 3 28 8 9
9 4 2 2 2 3 28 9 29
10 4 2 2 2 3 29 9 4
11 4 2 2 2 4 24 29 30
12 4 2 2 2 4 24 30 25
13 4 2 2 2 4 25 30 5
14 4 2 2 2 4 29 9 10
15 4 2 2 2 4 29 10 30
16 4 2 2 2 4 30 10 5
17 6 2 1 1 6 26 31 7 27 32
18 6 2 1 1 6 31 11 7 32 12
19 6 2 1 1 7 27 32 8 28 33
20 6 2 1 1 7 32 12 8 33 13
21 4 2 2 2 8 28 33 34
22 4 2 2 2 8 28 34 29
23 4 2 2 2 8 29 34 9
24 4 2 2 2 8 33 13 14
25 4 2 2 2 8 33 14 34
26 4 2 2 2 8 34 14 9
27 4 2 2 2 9 29 34 35
28 4 2 2 2 9 29 35 30
29 4 2 2 2 9 30 35 10
30 4 2 2 2 9 34 14 15
31 4 2 2 2 9 34 15 35
32 4 2 2 2 9 35 15 10
33 6 2 1 1 11 31 36 12 32 37
34 6 2 1 1 11 36 16 12 37 17
35 6 2 1 1 12 32 37 13 33 38
36 6 2 1 1 12 37 17 13 38 18
37 4 2 2 2 13 33 38 39
38 4 2 2 2 13 33 39 34
39 4 2 2 2 13 34 39 14
40 4 2 2 2 13 38 18 19
41 4 2 2 2 13 38 19 39
42 4 2 2 2 13 39 19 14
43 4 2 2 2 14 34 39 40
44 4 2 2 2 14 34 40 35
45 4 2 2 2 14 35 40 15
46 4 2 2 2 14 39 19 20
47 4 2 2 2 14 39 20 40
48 4 2 2 2 14 40 20 15
49 6 2 1 1 21 41 46 22 42 47
50 6 2 1 1 21 46 26 22 47 27
51 6 2 1 1 22 42 47 23 43 48
52 6 2 1 1 22 47 27 23 48 28
53 4 2 2 2 23 43 48 49
54 4 2 2 2 23 43 49 44
55 4 2 2 2 23 44 49 24
56 4 2 2 2 23 48 28 29
57 4 2 2 2 23 48 29 49
58 4 2 2 2 23 49 29 24
59 4 2 2 2 24 44 49 50
60 4 2 2 2 24 44 50 45
61 4 2 2 2 24 45 50 25
62 4 2 2 2 24 49 29 30
63 4 2 2 2 24 49 30 50
64 4 2 2 2 24 50 30 25
65 6 2 1 1 26 46 51 27 47 52
66 6 2 1 1 26 51 31 27 52 32
67 6 2 1 1 27 47 52 28 48 53
68 6 2 1 1 27 52 32 28 53 33
69 4 2 2 2 28 48 53 54
70 4 2 2 2 28 48 54 49
71 4 2 2 2 28 49 54 29
72 4 2 2 2 28 53 33 34
73 4 2 2 2 28 53 34 54
74 4 2 2 2 28 54 34 29
75 4 2 2 2 29 49 54 55
76 4 2 2 2 29 49 55 50
77 4 2 2 2 29 50 55 30
78 4 2 2 2 29 54 34 35
79 4 2 2 2 29 54 35 55
80 4 2 2 2 29 55 35 30
81 6 2 1 1 31 51 56 32 52 57
82 6 2 1 1 31 56 36 32 57 37
83 6 2 1 1 32 52 57 33 53 58
84 6 2 1 1 32 57 37 33 58 38
85 4 2 2 2 33 53 58 59
86 4 2 2 2 33 53 59 54
87 4 2 2 2 33 54 59 34
88 4 2 2 2 33 58 38 39
89 4 2 2 2 33 58 39 59
90 4 2 2 2 33 59 39 34
91 4 2 2 2 34 54 59 60
92 4 2 2 2 34 54 60 55
93 4 2 2 2 34 55 60 35
94 4 2 2 2 34 59 39 40
95 4 2 2 2 34 59 40 60
96 4 2 2 2 34 60 40 35
97 6 2 1 1 41 61 66 42 62 67
98 6 2 1 1 41 66 46 42 67 47
99 6 2 1 1 42 62 67 43 63 68
100 6 2 1 1 42 67 47 43 68 48
101 4 2 2 2 43 63 68 69
102 4 2 2 2 43 63 69 64
103 4 2 2 2 43 64 69 44
104 4 2 2 2 43 68 48 49
105 4 2 2 2 43 68 49 69
106 4 2 2 2 43 69 49 44
107 4 2 2 2 44 64 69 70
108 4 2 2 2 44 64 70 65
109 4 2 2 2 44 65 70 45
110 4 2 2 2 44 69 49 50
111 4 2 2 2 44 69 50 70
112 4 2 2 2 44 70 50 45
113 6 2 1 1 46 66 71 47 67 72
114 6 2 1 1 46 71 51 47 72 52
115 6 2 1 1 47 67 72 48 68 73
116 6 2 1 1 47 72 52 48 73 53
117 4 2 2 2 48 68 73 74
118 4 2 2 2 48 68 74 69
119 4 2 2 2 48 69 74 49
120 4 2 2 2 48 73 53 54
121 4 2 2 2 48 73 54 74
122 4 2 2 2 48 74 54 49
123 4 2 2 2 49 69 74 75
124 4 2 2 2 49 69 75 70
125 4 2 2 2 49 70 75 50
126 4 2 2 2 49 74 54 55
127 4 2 2 2 49 74 55 75
128 4 2 2 2 49 75 55 50
129 6 2 1 1 51 71 76 52 72 77
130 6 2 1 1 51 76 56 52 77 57
131 6 2 1 1 52 72 77 53 73 78
132 6 2 1 1 52 77 57 53 78 58
133 4 2 2 2 53 73 78 79
134 4 2 2 2 53 73 79 74
135 4 2 2 2 53 74 79 54
136 4 2 2 2 53 78 58 59
137 4 2 2 2 53 78 59 79
138 4 2 2 2 53 79 59 54
139 4 2 2 2 54 74 79 80
140 4 2 2 2 54 74 80 75
141 4 2 2 2 54 75 80 55
142 4 2 2 2 54 79 59 60
143 4 2 2 2 54 79 60 80
144 4 2 2 2 54 80 60 55
145 2 2 10 10 1 21 26
146 2 2 10 10 1 26 6
147 2 2 11 11 5 25 30
148 2 2 11 11 5 30 10
149 2 2 10 10 6 26 31
150 2 2 10 10 6 31 11
151 2 2 11 11 10 30 35
152 2 2 11 11 10 35 15
153 2 2 10 10 11 31 36
154 2 2 10 10 11 36 16
155 2 2 11 11 15 35 40
156 2 2 11 11 15 40 20
157 2 2 10 10 21 41 46
158 2 2 10 10 21 46 26
159 2 2 11 11 25 45 50
160 2 2 11 11 25 50 30
161 2 2 10 10 26 46 51
162 2 2 10 10 26 51 31
163 2 2 11 11 30 50 55
164 2 2 11 11 30 55 35
165 2 2 10 10 31 51 56
166 2 2 10 10 31 56 36
167 2 2 11 11 35 55 60
168 2 2 11 11 35 60 40
169 2 2 10 10 41 61 66
170 2 2 10 10 41 66 46
171 2 2 11 11 45 65 70
172 2 2 11 11 45 70 50
173 2 2 10 10 46 66 71
174 2 2 10 10 46 71 51
175 2 2 11 11 50 70 75
176 2 2 11 11 50 75 55
177 2 2 10 10 51 71 76
178 2 2 10 10 51 76 56
179 2 2 11 11 55 75 80
180 2 2 11 11 55 80 60
$EndElements
