$MeshFormat
4.1 0 8
$EndMeshFormat
$Entities
0 0 2 3
10 0 0 0 0.001 0.001 0 1 10 0 
11 0 0 0.0002 0.001 0.001 0.0002 1 11 0 
1 0 0 0 0.001 0.001 0.0001 1 1 0 
2 0 0 0.0001 0.001 0.001 0.000125 1 2 0 
3 0 0 0.0001 0.001 0.001 0.0002 1 3 0 
$EndEntities
$Nodes
5 89 1 89
2 10 0 16
1
6
11
16
21
26
31
36
41
46
51
56
61
66
71
76
0 0 0
0 0.0003333333333333333 0
0 0.0006666666666666666 0
0 0.001 0
0.0003333333333333333 0 0
0.0003333333333333333 0.0003333333333333333 0
0.0003333333333333333 0.0006666666666666666 0
0.0003333333333333333 0.001 0
0.0006666666666666666 0 0
0.0006666666666666666 0.0003333333333333333 0
0.0006666666666666666 0.0006666666666666666 0
0.0006666666666666666 0.001 0
0.001 0 0
0.001 0.0003333333333333333 0
0.001 0.0006666666666666666 0
0.001 0.001 0
2 11 0 16
5
10
15
20
25
30
35
40
45
50
55
60
65
70
75
80
0 0 0.0002
0 0.0003333333333333333 0.0002
0 0.0006666666666666666 0.0002
0 0.001 0.0002
0.0003333333333333333 0 0.0002
0.0003333333333333333 0.0003333333333333333 0.0002
0.0003333333333333333 0.0006666666666666666 0.0002
0.0003333333333333333 0.001 0.0002
0.0006666666666666666 0 0.0002
0.0006666666666666666 0.0003333333333333333 0.0002
0.0006666666666666666 0.0006666666666666666 0.0002
0.0006666666666666666 0.001 0.0002
0.001 0 0.0002
0.001 0.0003333333333333333 0.0002
0.001 0.0006666666666666666 0.0002
0.001 0.001 0.0002
3 1 0 32
2
3
7
8
12
13
17
18
22
23
27
28
32
33
37
38
42
43
47
48
52
53
57
58
62
63
67
68
72
73
77
78
0 0 5e-05
0 0 0.0001
0 0.0003333333333333333 5e-05
0 0.0003333333333333333 0.0001
0 0.0006666666666666666 5e-05
0 0.0006666666666666666 0.0001
0 0.001 5e-05
0 0.001 0.0001
0.0003333333333333333 0 5e-05
0.0003333333333333333 0 0.0001
0.0003333333333333333 0.0003333333333333333 5e-05
0.0003333333333333333 0.0003333333333333333 0.0001
0.0003333333333333333 0.0006666666666666666 5e-05
0.0003333333333333333 0.0006666666666666666 0.0001
0.0003333333333333333 0.001 5e-05
0.0003333333333333333 0.001 0.0001
0.0006666666666666666 0 5e-05
0.0006666666666666666 0 0.0001
0.0006666666666666666 0.0003333333333333333 5e-05
0.0006666666666666666 0.0003333333333333333 0.0001
0.0006666666666666666 0.0006666666666666666 5e-05
0.0006666666666666666 0.0006666666666666666 0.0001
0.0006666666666666666 0.001 5e-05
0.0006666666666666666 0.001 0.0001
0.001 0 5e-05
0.001 0 0.0001
0.001 0.0003333333333333333 5e-05
0.001 0.0003333333333333333 0.0001
0.001 0.0006666666666666666 5e-05
0.001 0.0006666666666666666 0.0001
0.001 0.001 5e-05
0.001 0.001 0.0001
3 2 0 9
81
82
83
84
85
86
87
88
89
0.0001666666666666667 0.0001666666666666667 0.000125
0.0001666666666666667 0.0005 0.000125
0.0001666666666666667 0.0008333333333333334 0.000125
0.0005 0.0001666666666666667 0.000125
0.0005 0.0005 0.000125
0.0005 0.0008333333333333334 0.000125
0.0008333333333333333 0.0001666666666666667 0.000125
0.0008333333333333333 0.0005 0.000125
0.0008333333333333333 0.0008333333333333334 0.000125
3 3 0 16
4
9
14
19
24
29
34
39
44
49
54
59
64
69
74
79
0 0 0.00015
0 0.0003333333333333333 0.00015
0 0.0006666666666666666 0.00015
0 0.001 0.00015
0.0003333333333333333 0 0.00015
0.0003333333333333333 0.0003333333333333333 0.00015
0.0003333333333333333 0.0006666666666666666 0.00015
0.0003333333333333333 0.001 0.00015
0.0006666666666666666 0 0.00015
0.0006666666666666666 0.0003333333333333333 0.00015
0.0006666666666666666 0.0006666666666666666 0.00015
0.0006666666666666666 0.001 0.00015
0.001 0 0.00015
0.001 0.0003333333333333333 0.00015
0.001 0.0006666666666666666 0.00015
0.001 0.001 0.00015
$EndNodes
$Elements
5 198 1 198
2 10 3 9
172 1 21 26 6 
175 6 26 31 11 
178 11 31 36 16 
181 21 41 46 26 
184 26 46 51 31 
187 31 51 56 36 
190 41 61 66 46 
193 46 66 71 51 
196 51 71 76 56 
2 11 2 18
173 5 25 30 
174 5 30 10 
176 10 30 35 
177 10 35 15 
179 15 35 40 
180 15 40 20 
182 25 45 50 
183 25 50 30 
185 30 50 55 
186 30 55 35 
188 35 55 60 
189 35 60 40 
191 45 65 70 
192 45 70 50 
194 50 70 75 
195 50 75 55 
197 55 75 80 
198 55 80 60 
3 1 5 18
1 1 21 26 6 2 22 27 7 
2 2 22 27 7 3 23 28 8 
3 6 26 31 11 7 27 32 12 
4 7 27 32 12 8 28 33 13 
5 11 31 36 16 12 32 37 17 
6 12 32 37 17 13 33 38 18 
7 21 41 46 26 22 42 47 27 
8 22 42 47 27 23 43 48 28 
9 26 46 51 31 27 47 52 32 
10 27 47 52 32 28 48 53 33 
11 31 51 56 36 32 52 57 37 
12 32 52 57 37 33 53 58 38 
13 41 61 66 46 42 62 67 47 
14 42 62 67 47 43 63 68 48 
15 46 66 71 51 47 67 72 52 
16 47 67 72 52 48 68 73 53 
17 51 71 76 56 52 72 77 57 
18 52 72 77 57 53 73 78 58 
3 2 7 9
19 3 23 28 8 81 
30 8 28 33 13 82 
41 13 33 38 18 83 
52 23 43 48 28 84 
63 28 48 53 33 85 
74 33 53 58 38 86 
85 43 63 68 48 87 
96 48 68 73 53 88 
107 53 73 78 58 89 
3 3 4 144
20 3 8 9 81 
21 3 9 4 81 
22 23 28 29 81 
23 23 29 24 81 
24 3 23 24 81 
25 3 24 4 81 
26 8 28 29 81 
27 8 29 9 81 
28 4 24 29 81 
29 4 29 9 81 
31 8 13 14 82 
32 8 14 9 82 
33 28 33 34 82 
34 28 34 29 82 
35 8 28 29 82 
36 8 29 9 82 
37 13 33 34 82 
38 13 34 14 82 
39 9 29 34 82 
40 9 34 14 82 
42 13 18 19 83 
43 13 19 14 83 
44 33 38 39 83 
45 33 39 34 83 
46 13 33 34 83 
47 13 34 14 83 
48 18 38 39 83 
49 18 39 19 83 
50 14 34 39 83 
51 14 39 19 83 
53 23 28 29 84 
54 23 29 24 84 
55 43 48 49 84 
56 43 49 44 84 
57 23 43 44 84 
58 23 44 24 84 
59 28 48 49 84 
60 28 49 29 84 
61 24 44 49 84 
62 24 49 29 84 
64 28 33 34 85 
65 28 34 29 85 
66 48 53 54 85 
67 48 54 49 85 
68 28 48 49 85 
69 28 49 29 85 
70 33 53 54 85 
71 33 54 34 85 
72 29 49 54 85 
73 29 54 34 85 
75 33 38 39 86 
76 33 39 34 86 
77 53 58 59 86 
78 53 59 54 86 
79 33 53 54 86 
80 33 54 34 86 
81 38 58 59 86 
82 38 59 39 86 
83 34 54 59 86 
84 34 59 39 86 
86 43 48 49 87 
87 43 49 44 87 
88 63 68 69 87 
89 63 69 64 87 
90 43 63 64 87 
91 43 64 44 87 
92 48 68 69 87 
93 48 69 49 87 
94 44 64 69 87 
95 44 69 49 87 
97 48 53 54 88 
98 48 54 49 88 
99 68 73 74 88 
100 68 74 69 88 
101 48 68 69 88 
102 48 69 49 88 
103 53 73 74 88 
104 53 74 54 88 
105 49 69 74 88 
106 49 74 54 88 
108 53 58 59 89 
109 53 59 54 89 
110 73 78 79 89 
111 73 79 74 89 
112 53 73 74 89 
113 53 74 54 89 
114 58 78 79 89 
115 58 79 59 89 
116 54 74 79 89 
117 54 79 59 89 
118 4 24 29 30 
119 4 24 30 25 
120 4 25 30 5 
121 4 29 9 10 
122 4 29 10 30 
123 4 30 10 5 
124 9 29 34 35 
125 9 29 35 30 
126 9 30 35 10 
127 9 34 14 15 
128 9 34 15 35 
129 9 35 15 10 
130 14 34 39 40 
131 14 34 40 35 
132 14 35 40 15 
133 14 39 19 20 
134 14 39 20 40 
135 14 40 20 15 
136 24 44 49 50 
137 24 44 50 45 
138 24 45 50 25 
139 24 49 29 30 
140 24 49 30 50 
141 24 50 30 25 
142 29 49 54 55 
143 29 49 55 50 
144 29 50 55 30 
145 29 54 34 35 
146 29 54 35 55 
147 29 55 35 30 
148 34 54 59 60 
149 34 54 60 55 
150 34 55 60 35 
151 34 59 39 40 
152 34 59 40 60 
153 34 60 40 35 
154 44 64 69 70 
155 44 64 70 65 
156 44 65 70 45 
157 44 69 49 50 
158 44 69 50 70 
159 44 70 50 45 
160 49 69 74 75 
161 49 69 75 70 
162 49 70 75 50 
163 49 74 54 55 
164 49 74 55 75 
165 49 75 55 50 
166 54 74 79 80 
167 54 74 80 75 
168 54 75 80 55 
169 54 79 59 60 
170 54 79 60 80 
171 54 80 60 55 
$EndElements
