$MeshFormat
2.2 0 8
$EndMeshFormat
$Nodes
91
1 0 0 0
2 0 0 7.400241118798732e-05
3 0 0 0.0001281564642286862
4 0 0 0.0002
5 0 0.0003464167006507427 0
6 0 0.0002896942030408049 6.270065984471398e-05
7 0 0.0003489204705062866 0.0001369054725264892
8 0 0.0003542613123169346 0.0002
9 0 0.0007011827478696831 0
10 0 0.0006947283674863772 6.034390564824868e-05
11 0 0.0006310231302200234 0.000140648692089649
12 0 0.0006739330773842085 0.0002
13 0 0.001 0
14 0 0.001 6.83369160110456e-05
15 0 0.001 0.0001410319091637915
16 0 0.001 0.0002
17 0.0003821797778344254 0 0
18 0.0003754551330418549 0 7.565423165064327e-05
19 0.0003521278144970776 0 0.0001255084513118215
20 0.0003257573516172788 0 0.0002
21 0.0003365451141429219 0.0003742706937544757 0
22 0.0003593490353143164 0.0003460969064952648 5.812589833309295e-05
23 0.0003779019022857865 0.0003826988761924163 0.0001319919794393426
24 0.0003371451313399753 0.0003497360260475161 0.0002
25 0.000299645637863968 0.0006877891601687491 0
26 0.0003423014599370946 0.0006228028961399187 6.811984978380332e-05
27 0.000351282194901308 0.0007068148213670934 0.0001283390184042999
28 0.0002907094290387021 0.0006304824613436959 0.0002
29 0.0003327326951513434 0.001 0
30 0.0003238596375611857 0.001 7.224910158763615e-05
31 0.0003219649211261432 0.001 0.0001342867957181051
32 0.0003673187167851997 0.001 0.0002
33 0.0006942894129847499 0 0
34 0.0007161224835215692 0 7.509241362694311e-05
35 0.0006242860755647686 0 0.0001292205404954222
36 0.0006582928375334753 0 0.0002
37 0.0006178262498754978 0.0002904601191159658 0
38 0.0006646568555668073 0.0003545889174929966 6.737873636595121e-05
39 0.0006222237308219114 0.0002908771405528046 0.0001304999929382738
40 0.0006540555289176289 0.0003728491012193543 0.0002
41 0.000686432617380039 0.0007070995217750283 0
42 0.0006831324990725395 0.0006276458713446601 7.511122382701632e-05
43 0.000640509419049064 0.0006271306440162222 0.0001408214130338062
44 0.0006818972464742887 0.0006716840420160391 0.0002
45 0.0006686520471136869 0.001 0
46 0.0006251527002366371 0.001 6.38823804142228e-05
47 0.0006497226349216472 0.001 0.0001352134564287947
48 0.0006421553967099499 0.001 0.0002
49 0.001 0 0
50 0.001 0 6.819420941709233e-05
51 0.001 0 0.0001326730173070466
52 0.001 0 0.0002
53 0.001 0.0003026230401602476 0
54 0.001 0.0003685477937982052 7.117860799852504e-05
55 0.001 0.0003346489399030603 0.0001301153525487653
56 0.001 0.0003280239400600617 0.0002
57 0.001 0.0007001694082365709 0
58 0.001 0.0006171938785679289 6.856770331541166e-05
59 0.001 0.000711078118527712 0.0001417104982390354
60 0.001 0.0006644991960944071 0.0002
61 0.001 0.001 0
62 0.001 0.001 5.911479179788128e-05
63 0.001 0.001 0.0001242084784349064
64 0.001 0.001 0.0002
65 0.0002064393707498053 0.0001696778702126417 3.376726243808643e-05
66 0.000164710184781391 0.0001699625516573464 9.843336843660789e-05
67 0.0001717162087361871 0.0001603669930577212 0.0001671154134672108
68 0.0001545268668583232 0.0005139804501541902 3.102294597830235e-05
69 0.0001832193320407453 0.0004906924798087304 0.0001029012336544583
70 0.0001903563837375774 0.0004950707982319456 0.0001687164734479766
71 0.0001834224188149103 0.0008425228828331604 3.114027134780459e-05
72 0.000159728260086379 0.0008436558206351653 0.0001053495857126813
73 0.0001714355799442 0.0008418105503447528 0.0001716982663165146
74 0.0005336887030360062 0.0001858500093579254 3.284796985211518e-05
75 0.0004882822628053046 0.000185381677410533 0.0001013927573663786
76 0.0005008894175140169 0.0001738002033871392 0.0001625050090354096
77 0.0005232259694005661 0.0005111909649048507 3.450070119188456e-05
78 0.0005135884357991347 0.0004969098703040098 9.831332617074324e-05
79 0.0005174870953321839 0.000525799636792843 0.0001665974667322687
80 0.0004762783192694953 0.0008328185335981462 3.210957176053073e-05
81 0.0005161837210283333 0.0008295769941894453 0.0001032645020894714
82 0.0005053160401219923 0.0008074861393472458 0.0001626726243150261
83 0.0008226032996049852 0.0001879787878170551 3.89343857747142e-05
84 0.0008295002953488237 0.0001491468603454635 9.657121149292745e-05
85 0.0008293593771043333 0.000174552240202174 0.0001645449149743231
86 0.0008417053477629143 0.000513138475267899 3.438164479947758e-05
87 0.0008216844386962007 0.0004944858744767746 9.892753798738641e-05
88 0.000849256304911864 0.0004783417099051102 0.0001721418117812023
89 0.0008445475311127376 0.0008277050209907962 2.963399196643294e-05
90 0.0008495252596054209 0.00083534410150768 9.945609729363737e-05
91 0.0008470798083880296 0.0008365632122684228 0.0001662883417663246
$EndNodes
$Elements
180
1 7 2 1 1 1 17 21 5 65
2 7 2 1 1 2 18 22 6 65
3 7 2 1 1 1 5 6 2 65
4 7 2 1 1 17 21 22 18 65
5 7 2 1 1 1 17 18 2 65
6 7 2 1 1 5 21 22 6 65
7 7 2 1 1 2 18 22 6 66
8 7 2 1 1 3 19 23 7 66
9 7 2 1 1 2 6 7 3 66
10 7 2 1 1 18 22 23 19 66
11 7 2 1 1 2 18 19 3 66
12 7 2 1 1 6 22 23 7 66
13 7 2 1 1 3 19 23 7 67
14 7 2 1 1 4 20 24 8 67
15 7 2 1 1 3 7 8 4 67
16 7 2 1 1 19 23 24 20 67
17 7 2 1 1 3 19 20 4 67
18 7 2 1 1 7 23 24 8 67
19 7 2 1 1 5 21 25 9 68
20 7 2 1 1 6 22 26 10 68
21 7 2 1 1 5 9 10 6 68
22 7 2 1 1 21 25 26 22 68
23 7 2 1 1 5 21 22 6 68
24 7 2 1 1 9 25 26 10 68
25 7 2 1 1 6 22 26 10 69
26 7 2 1 1 7 23 27 11 69
27 7 2 1 1 6 10 11 7 69
28 7 2 1 1 22 26 27 23 69
29 7 2 1 1 6 22 23 7 69
30 7 2 1 1 10 26 27 11 69
31 7 2 1 1 7 23 27 11 70
32 7 2 1 1 8 24 28 12 70
33 7 2 1 1 7 11 12 8 70
34 7 2 1 1 23 27 28 24 70
35 7 2 1 1 7 23 24 8 70
36 7 2 1 1 11 27 28 12 70
37 7 2 1 1 9 25 29 13 71
38 7 2 1 1 10 26 30 14 71
39 7 2 1 1 9 13 14 10 71
40 7 2 1 1 25 29 30 26 71
41 7 2 1 1 9 25 26 10 71
42 7 2 1 1 13 29 30 14 71
43 7 2 1 1 10 26 30 14 72
44 7 2 1 1 11 27 31 15 72
45 7 2 1 1 10 14 15 11 72
46 7 2 1 1 26 30 31 27 72
47 7 2 1 1 10 26 27 11 72
48 7 2 1 1 14 30 31 15 72
49 7 2 1 1 11 27 31 15 73
50 7 2 1 1 12 28 32 16 73
51 7 2 1 1 11 15 16 12 73
52 7 2 1 1 27 31 32 28 73
53 7 2 1 1 11 27 28 12 73
54 7 2 1 1 15 31 32 16 73
55 7 2 1 1 17 33 37 21 74
56 7 2 1 1 18 34 38 22 74
57 7 2 1 1 17 21 22 18 74
58 7 2 1 1 33 37 38 34 74
59 7 2 1 1 17 33 34 18 74
60 7 2 1 1 21 37 38 22 74
61 7 2 1 1 18 34 38 22 75
62 7 2 1 1 19 35 39 23 75
63 7 2 1 1 18 22 23 19 75
64 7 2 1 1 34 38 39 35 75
65 7 2 1 1 18 34 35 19 75
66 7 2 1 1 22 38 39 23 75
67 7 2 1 1 19 35 39 23 76
68 7 2 1 1 20 36 40 24 76
69 7 2 1 1 19 23 24 20 76
70 7 2 1 1 35 39 40 36 76
71 7 2 1 1 19 35 36 20 76
72 7 2 1 1 23 39 40 24 76
73 7 2 1 1 21 37 41 25 77
74 7 2 1 1 22 38 42 26 77
75 7 2 1 1 21 25 26 22 77
76 7 2 1 1 37 41 42 38 77
77 7 2 1 1 21 37 38 22 77
78 7 2 1 1 25 41 42 26 77
79 7 2 1 1 22 38 42 26 78
80 7 2 1 1 23 39 43 27 78
81 7 2 1 1 22 26 27 23 78
82 7 2 1 1 38 42 43 39 78
83 7 2 1 1 22 38 39 23 78
84 7 2 1 1 26 42 43 27 78
85 7 2 1 1 23 39 43 27 79
86 7 2 1 1 24 40 44 28 79
87 7 2 1 1 23 27 28 24 79
88 7 2 1 1 39 43 44 40 79
89 7 2 1 1 23 39 40 24 79
90 7 2 1 1 27 43 44 28 79
91 7 2 1 1 25 41 45 29 80
92 7 2 1 1 26 42 46 30 80
93 7 2 1 1 25 29 30 26 80
94 7 2 1 1 41 45 46 42 80
95 7 2 1 1 25 41 42 26 80
96 7 2 1 1 29 45 46 30 80
97 7 2 1 1 26 42 46 30 81
98 7 2 1 1 27 43 47 31 81
99 7 2 1 1 26 30 31 27 81
100 7 2 1 1 42 46 47 43 81
101 7 2 1 1 26 42 43 27 81
102 7 2 1 1 30 46 47 31 81
103 7 2 1 1 27 43 47 31 82
104 7 2 1 1 28 44 48 32 82
105 7 2 1 1 27 31 32 28 82
106 7 2 1 1 43 47 48 44 82
107 7 2 1 1 27 43 44 28 82
108 7 2 1 1 31 47 48 32 82
109 7 2 1 1 33 49 53 37 83
110 7 2 1 1 34 50 54 38 83
111 7 2 1 1 33 37 38 34 83
112 7 2 1 1 49 53 54 50 83
113 7 2 1 1 33 49 50 34 83
114 7 2 1 1 37 53 54 38 83
115 7 2 1 1 34 50 54 38 84
116 7 2 1 1 35 51 55 39 84
117 7 2 1 1 34 38 39 35 84
118 7 2 1 1 50 54 55 51 84
119 7 2 1 1 34 50 51 35 84
120 7 2 1 1 38 54 55 39 84
121 7 2 1 1 35 51 55 39 85
122 7 2 1 1 36 52 56 40 85
123 7 2 1 1 35 39 40 36 85
124 7 2 1 1 51 55 56 52 85
125 7 2 1 1 35 51 52 36 85
126 7 2 1 1 39 55 56 40 85
127 7 2 1 1 37 53 57 41 86
128 7 2 1 1 38 54 58 42 86
129 7 2 1 1 37 41 42 38 86
130 7 2 1 1 53 57 58 54 86
131 7 2 1 1 37 53 54 38 86
132 7 2 1 1 41 57 58 42 86
133 7 2 1 1 38 54 58 42 87
134 7 2 1 1 39 55 59 43 87
135 7 2 1 1 38 42 43 39 87
136 7 2 1 1 54 58 59 55 87
137 7 2 1 1 38 54 55 39 87
138 7 2 1 1 42 58 59 43 87
139 7 2 1 1 39 55 59 43 88
140 7 2 1 1 40 56 60 44 88
141 7 2 1 1 39 43 44 40 88
142 7 2 1 1 55 59 60 56 88
143 7 2 1 1 39 55 56 40 88
144 7 2 1 1 43 59 60 44 88
145 7 2 1 1 41 57 61 45 89
146 7 2 1 1 42 58 62 46 89
147 7 2 1 1 41 45 46 42 89
148 7 2 1 1 57 61 62 58 89
149 7 2 1 1 41 57 58 42 89
150 7 2 1 1 45 61 62 46 89
151 7 2 1 1 42 58 62 46 90
152 7 2 1 1 43 59 63 47 90
153 7 2 1 1 42 46 47 43 90
154 7 2 1 1 58 62 63 59 90
155 7 2 1 1 42 58 59 43 90
156 7 2 1 1 46 62 63 47 90
157 7 2 1 1 43 59 63 47 91
158 7 2 1 1 44 60 64 48 91
159 7 2 1 1 43 47 48 44 91
160 7 2 1 1 59 63 64 60 91
161 7 2 1 1 43 59 60 44 91
162 7 2 1 1 47 63 64 48 91
163 3 2 10 10 1 17 21 5
164 3 2 11 11 4 20 24 8
165 3 2 10 10 5 21 25 9
166 3 2 11 11 8 24 28 12
167 3 2 10 10 9 25 29 13
168 3 2 11 11 12 28 32 16
169 3 2 10 10 17 33 37 21
170 3 2 11 11 20 36 40 24
171 3 2 10 10 21 37 41 25
172 3 2 11 11 24 40 44 28
173 3 2 10 10 25 41 45 29
174 3 2 11 11 28 44 48 32
175 3 2 10 10 33 49 53 37
176 3 2 11 11 36 52 56 40
177 3 2 10 10 37 53 57 41
178 3 2 11 11 40 56 60 44
179 3 2 10 10 41 57 61 45
180 3 2 11 11 44 60 64 48
$EndElements
