$MeshFormat
2.2 0 8
$EndMeshFormat
$Nodes
125
1 0 0 0
2 0 0.0005 0
3 0 0.001 0
4 0.0005 0 0
5 0.0005 0.0005 0
6 0.0005 0.001 0
7 0.001 0 0
8 0.001 0.0005 0
9 0.001 0.001 0
10 0.00025 0 0
11 0 0.00025 0
12 0.00025 0.00025 0
13 0.0005 0.00025 0
14 0.00025 0.0005 0
15 0 0.00075 0
16 0.00025 0.00075 0
17 0.0005 0.00075 0
18 0.00025 0.001 0
19 0.00075 0 0
20 0.00075 0.00025 0
21 0.001 0.00025 0
22 0.00075 0.0005 0
23 0.00075 0.00075 0
24 0.001 0.00075 0
25 0.00075 0.001 0
26 0 0 0.0002
27 0 0.0005 0.0002
28 0 0.001 0.0002
29 0.0005 0 0.0002
30 0.0005 0.0005 0.0002
31 0.0005 0.001 0.0002
32 0.001 0 0.0002
33 0.001 0.0005 0.0002
34 0.001 0.001 0.0002
35 0 0.00025 0.0002
36 0.00025 0.0005 0.0002
37 0.00025 0.00025 0.0002
38 0.0005 0.00025 0.0002
39 0.00025 0 0.0002
40 0 0.00075 0.0002
41 0.00025 0.001 0.0002
42 0.00025 0.00075 0.0002
43 0.0005 0.00075 0.0002
44 0.00075 0.0005 0.0002
45 0.00075 0.00025 0.0002
46 0.001 0.00025 0.0002
47 0.00075 0 0.0002
48 0.00075 0.001 0.0002
49 0.00075 0.00075 0.0002
50 0.001 0.00075 0.0002
51 0 0 0.0001
52 0 0.0005 0.0001
53 0 0.001 0.0001
54 0.0005 0 0.0001
55 0.0005 0.0005 0.0001
56 0.0005 0.001 0.0001
57 0.001 0 0.0001
58 0.001 0.0005 0.0001
59 0.001 0.001 0.0001
60 0 0 5e-05
61 0 0.00025 0.0001
62 0 0.00025 5e-05
63 0.00025 0.00025 5e-05
64 0.00025 0.0005 0.0001
65 0.00025 0.00025 0.0001
66 0.00025 0 5e-05
67 0.0005 0.00025 0.0001
68 0.00025 0 0.0001
69 0.0005 0.00025 5e-05
70 0.0005 0 5e-05
71 0 0.0005 5e-05
72 0.00025 0.0005 5e-05
73 0.0005 0.0005 5e-05
74 0 0 0.00015
75 0 0.00025 0.00015
76 0.00025 0.00025 0.00015
77 0.00025 0 0.00015
78 0.0005 0.00025 0.00015
79 0.0005 0 0.00015
80 0 0.0005 0.00015
81 0.00025 0.0005 0.00015
82 0.0005 0.0005 0.00015
83 0 0.00075 0.0001
84 0 0.00075 5e-05
85 0.00025 0.00075 5e-05
86 0.00025 0.001 0.0001
87 0.00025 0.00075 0.0001
88 0.0005 0.00075 0.0001
89 0.0005 0.00075 5e-05
90 0 0.001 5e-05
91 0.00025 0.001 5e-05
92 0.0005 0.001 5e-05
93 0 0.00075 0.00015
94 0.00025 0.00075 0.00015
95 0.0005 0.00075 0.00015
96 0 0.001 0.00015
97 0.00025 0.001 0.00015
98 0.0005 0.001 0.00015
99 0.00075 0.00025 5e-05
100 0.00075 0.0005 0.0001
101 0.00075 0.00025 0.0001
102 0.00075 0 5e-05
103 0.001 0.00025 0.0001
104 0.00075 0 0.0001
105 0.001 0.00025 5e-05
106 0.001 0 5e-05
107 0.00075 0.0005 5e-05
108 0.001 0.0005 5e-05
109 0.00075 0.00025 0.00015
110 0.00075 0 0.00015
111 0.001 0.00025 0.00015
112 0.001 0 0.00015
113 0.00075 0.0005 0.00015
114 0.001 0.0005 0.00015
115 0.00075 0.00075 5e-05
116 0.00075 0.001 0.0001
117 0.00075 0.00075 0.0001
118 0.001 0.00075 0.0001
119 0.001 0.00075 5e-05
120 0.00075 0.001 5e-05
121 0.001 0.001 5e-05
122 0.00075 0.00075 0.00015
123 0.001 0.00075 0.00015
124 0.00075 0.001 0.00015
125 0.001 0.001 0.00015
$EndNodes
$Elements
64
1 9 2 10 10 1 4 5 10 13 12
2 9 2 10 10 1 5 2 12 14 11
3 9 2 10 10 2 5 6 14 17 16
4 9 2 10 10 2 6 3 16 18 15
5 9 2 10 10 4 7 8 19 21 20
6 9 2 10 10 4 8 5 20 22 13
7 9 2 10 10 5 8 9 22 24 23
8 9 2 10 10 5 9 6 23 25 17
9 9 2 11 11 26 29 30 39 38 37
10 9 2 11 11 26 30 27 37 36 35
11 9 2 11 11 27 30 31 36 43 42
12 9 2 11 11 27 31 28 42 41 40
13 9 2 11 11 29 32 33 47 46 45
14 9 2 11 11 29 33 30 45 44 38
15 9 2 11 11 30 33 34 44 50 49
16 9 2 11 11 30 34 31 49 48 43
17 11 2 1 1 1 51 52 55 60 61 62 63 64 65
18 11 2 1 1 1 51 55 54 60 65 63 66 67 68
19 11 2 1 1 1 54 55 4 66 67 63 10 69 70
20 11 2 1 1 1 52 2 55 62 71 11 63 72 64
21 11 2 1 1 1 5 4 55 12 13 10 63 69 73
22 11 2 1 1 1 2 5 55 11 14 12 63 73 72
23 11 2 1 1 51 26 27 30 74 35 75 76 36 37
24 11 2 1 1 51 26 30 29 74 37 76 77 38 39
25 11 2 1 1 51 29 30 54 77 38 76 68 78 79
26 11 2 1 1 51 27 52 30 75 80 61 76 81 36
27 11 2 1 1 51 55 54 30 65 67 68 76 78 82
28 11 2 1 1 51 52 55 30 61 64 65 76 82 81
29 11 2 1 1 2 52 53 56 71 83 84 85 86 87
30 11 2 1 1 2 52 56 55 71 87 85 72 88 64
31 11 2 1 1 2 55 56 5 72 88 85 14 89 73
32 11 2 1 1 2 53 3 56 84 90 15 85 91 86
33 11 2 1 1 2 6 5 56 16 17 14 85 89 92
34 11 2 1 1 2 3 6 56 15 18 16 85 92 91
35 11 2 1 1 52 27 28 31 80 40 93 94 41 42
36 11 2 1 1 52 27 31 30 80 42 94 81 43 36
37 11 2 1 1 52 30 31 55 81 43 94 64 95 82
38 11 2 1 1 52 28 53 31 93 96 83 94 97 41
39 11 2 1 1 52 56 55 31 87 88 64 94 95 98
40 11 2 1 1 52 53 56 31 83 86 87 94 98 97
41 11 2 1 1 4 54 55 58 70 67 69 99 100 101
42 11 2 1 1 4 54 58 57 70 101 99 102 103 104
43 11 2 1 1 4 57 58 7 102 103 99 19 105 106
44 11 2 1 1 4 55 5 58 69 73 13 99 107 100
45 11 2 1 1 4 8 7 58 20 21 19 99 105 108
46 11 2 1 1 4 5 8 58 13 22 20 99 108 107
47 11 2 1 1 54 29 30 33 79 38 78 109 44 45
48 11 2 1 1 54 29 33 32 79 45 109 110 46 47
49 11 2 1 1 54 32 33 57 110 46 109 104 111 112
50 11 2 1 1 54 30 55 33 78 82 67 109 113 44
51 11 2 1 1 54 58 57 33 101 103 104 109 111 114
52 11 2 1 1 54 55 58 33 67 100 101 109 114 113
53 11 2 1 1 5 55 56 59 73 88 89 115 116 117
54 11 2 1 1 5 55 59 58 73 117 115 107 118 100
55 11 2 1 1 5 58 59 8 107 118 115 22 119 108
56 11 2 1 1 5 56 6 59 89 92 17 115 120 116
57 11 2 1 1 5 9 8 59 23 24 22 115 119 121
58 11 2 1 1 5 6 9 59 17 25 23 115 121 120
59 11 2 1 1 55 30 31 34 82 43 95 122 48 49
60 11 2 1 1 55 30 34 33 82 49 122 113 50 44
61 11 2 1 1 55 33 34 58 113 50 122 100 123 114
62 11 2 1 1 55 31 56 34 95 98 88 122 124 48
63 11 2 1 1 55 59 58 34 117 118 100 122 123 125
64 11 2 1 1 55 56 59 34 88 116 117 122 125 124
$EndElements
