$MeshFormat
2.2 0 8
$EndMeshFormat
$Nodes
100
1 0 0 0
2 0.0008660254037844387 0.00046984631039295412 0.00017101007166283434
3 0.00036602540378443879 0.0012836439917423277 0.00046720820438885815
4 -0.0004999999999999999 0.00081379768134937373 0.00029619813272602387
5 0 -6.8404028665133748e-05 0.0001879385241571817
6 0.0008660254037844387 0.00040144228172782039 0.00035894859582001604
7 0.00036602540378443879 0.0012152399630771939 0.0006551467285460398
8 -0.0004999999999999999 0.00074539365268424 0.00048413665688320557
9 0.00021650635094564279 0.00011746157759798522 4.2752517915616386e-05
10 0.00043301270189110782 0.00023492315519587403 8.5505035831197671e-05
11 0.00064951905283776421 0.00035238473279440916 0.0001282575537470142
12 0.00074102540378470833 0.00067329573072985886 0.0002450596048441806
13 0.00061602540378508054 0.00087674515106659647 0.00031910913802546609
14 0.00049102540378476492 0.0010801945714044535 0.00039315867120715898
15 0.00014951905283866853 0.0011661824141442735 0.00042445568647321661
16 -6.6987298106716518e-05 0.0010487208365464282 0.00038170316855765113
17 -0.00028349364905334905 0.00093125925894790591 0.00033895065064183926
18 -0.00037500000000019587 0.00061034826101234924 0.00022214859954463397
19 -0.00025000000000061426 0.00040689884067568677 0.00014809906636337585
20 -0.00012500000000031242 0.00020344942033785198 7.4049533181691054e-05
21 0.00021650635094564279 4.9057548932851473e-05 0.00023069104207279809
22 0.00043301270189110782 0.00016651912653074027 0.0002734435599883794
23 0.00064951905283776421 0.00028398070412927542 0.00031619607790419593
24 0.00074102540378470833 0.00060489170206472513 0.0004329981290013623
25 0.00061602540378508054 0.00080834112240146274 0.00050704766218264774
26 0.00049102540378476492 0.0010117905427393197 0.00058109719536434063
27 0.00014951905283866853 0.0010977783854791397 0.00061239421063039837
28 -6.6987298106716518e-05 0.00098031680788129437 0.00056964169271483283
29 -0.00028349364905334905 0.00086285523028277217 0.00052688917479902096
30 -0.00037500000000019587 0.00054194423234721551 0.00041008712370181567
31 -0.00025000000000061426 0.00033849481201055304 0.00033603759052055755
32 -0.00012500000000031242 0.00013504539167271822 0.00026198805733887274
33 0 -2.2801342888377916e-05 6.2646174719060559e-05
34 0 -4.5602685776755818e-05 0.00012529234943812109
35 0.0008660254037844387 0.00044704496750457619 0.00023365624638189489
36 0.0008660254037844387 0.00042424362461619832 0.00029630242110095545
37 0.00036602540378443879 0.0012608426488539498 0.00052985437910791874
38 0.00036602540378443879 0.0012380413059655719 0.00059250055382697921
39 -0.0004999999999999999 0.00079099633846099586 0.00035884430744508445
40 -0.0004999999999999999 0.00076819499557261787 0.00042149048216414493
41 9.1506350945727897e-05 0.00032091099793573713 0.00011680205109727101
42 -3.3493649054153467e-05 0.00052436041827343442 0.00019085158427890577
43 -0.00015849364905366655 0.00072780983861053231 0.00026490111746032234
44 0.00030801270189163024 0.00043837257553354738 0.00015955456901282371
45 0.00018301270189220937 0.00064182199587112872 0.00023360410219441628
46 5.8012701892804592e-05 0.0008452714162086836 0.00030765363537599917
47 0.00052451905283811429 0.00055583415313167331 0.00020230708692849133
48 0.00039951905283854418 0.00075928357346880773 0.00027635662010992121
49 0.00027451905283863774 0.00096273299380648925 0.00035040615329155018
50 0.00021650635094564279 9.4660234709607305e-05 0.00010539869263467694
51 0.00021650635094564279 7.1858891821229403e-05 0.00016804486735373748
52 0.00043301270189110782 0.00021212181230749613 0.00014815121055025823
53 0.00043301270189110782 0.0001893204694191182 0.00021079738526931876
54 0.00064951905283776421 0.00032958338990603123 0.00019090372846607476
55 0.00064951905283776421 0.00030678204701765335 0.00025354990318513529
56 0.00074102540378470833 0.00065049438784148099 0.00030770577956324113
57 0.00074102540378470833 0.000627693044953103 0.00037035195428230172
58 0.00061602540378508054 0.00085394380817821859 0.00038175531274452668
59 0.00061602540378508054 0.00083114246528984061 0.00044440148746358716
60 0.00049102540378476492 0.0010573932285160756 0.00045580484592621956
61 0.00049102540378476492 0.0010345918856276978 0.00051845102064528004
62 0.00014951905283866853 0.0011433810712558957 0.0004871018611922772
63 0.00014951905283866853 0.0011205797283675178 0.00054974803591133767
64 -6.6987298106716518e-05 0.0010259194936580503 0.00044434934327671166
65 -6.6987298106716518e-05 0.0010031181507696725 0.00050699551799577225
66 -0.00028349364905334905 0.00090845791605952803 0.00040159682536089979
67 -0.00028349364905334905 0.00088565657317115005 0.00046424300007996038
68 -0.00037500000000019587 0.00058754691812397137 0.0002847947742636945
69 -0.00037500000000019587 0.00056474557523559339 0.00034744094898275508
70 -0.00025000000000061426 0.00038409749778730884 0.00021074524108243641
71 -0.00025000000000061426 0.00036129615489893097 0.00027339141580149696
72 -0.00012500000000031242 0.00018064807744947408 0.00013669570790075163
73 -0.00012500000000031242 0.00015784673456109615 0.00019934188261981216
74 9.1506350945727897e-05 0.00025250696927060339 0.0003047405752544527
75 -3.3493649054153467e-05 0.00045595638960830068 0.00037879010843608747
76 -0.00015849364905366655 0.00065940580994539857 0.00045283964161750405
77 0.00030801270189163024 0.00036996854686841365 0.00034749309317000539
78 0.00018301270189220937 0.00057341796720599498 0.00042154262635159799
79 5.8012701892804592e-05 0.00077686738754354986 0.00049559215953318093
80 0.00052451905283811429 0.00048743012446653957 0.00039024561108567306
81 0.00039951905283854418 0.000690879544803674 0.00046429514426710292
82 0.00027451905283863774 0.00089432896514135551 0.00053834467744873194
83 9.1506350945727897e-05 0.0002981096550473592 0.00017944822581633158
84 9.1506350945727897e-05 0.00027530831215898132 0.00024209440053539212
85 -3.3493649054153467e-05 0.00050155907538505654 0.00025349775899796635
86 -3.3493649054153467e-05 0.00047875773249667861 0.00031614393371702683
87 -0.00015849364905366655 0.00070500849572215443 0.00032754729217938287
88 -0.00015849364905366655 0.00068220715283377645 0.00039019346689844346
89 0.00030801270189163024 0.00041557123264516946 0.00022220074373188427
90 0.00030801270189163024 0.00039276988975679158 0.0002848469184509448
91 0.00018301270189220937 0.00061902065298275084 0.00029625027691347681
92 0.00018301270189220937 0.00059621931009437286 0.0003588964516325374
93 5.8012701892804592e-05 0.00082247007332030572 0.00037029981009505976
94 5.8012701892804592e-05 0.00079966873043192774 0.00043294598481412024
95 0.00052451905283811429 0.00053303281024329543 0.00026495326164755189
96 0.00052451905283811429 0.00051023146735491745 0.00032759943636661242
97 0.00039951905283854418 0.00073648223058042986 0.00033900279482898174
98 0.00039951905283854418 0.00071368088769205187 0.00040164896954804233
99 0.00027451905283863774 0.00093993165091811137 0.00041305232801061077
100 0.00027451905283863774 0.00091713030802973339 0.00047569850272967124
$EndNodes
$Elements
80
1 3 2 10 1 1 9 41 20
2 3 2 10 1 20 41 42 19
3 3 2 10 1 19 42 43 18
4 3 2 10 1 18 43 17 4
5 3 2 10 1 9 10 44 41
6 3 2 10 1 41 44 45 42
7 3 2 10 1 42 45 46 43
8 3 2 10 1 43 46 16 17
9 3 2 10 1 10 11 47 44
10 3 2 10 1 44 47 48 45
11 3 2 10 1 45 48 49 46
12 3 2 10 1 46 49 15 16
13 3 2 10 1 11 2 12 47
14 3 2 10 1 47 12 13 48
15 3 2 10 1 48 13 14 49
16 3 2 10 1 49 14 3 15
17 3 2 11 26 5 21 74 32
18 3 2 11 26 32 74 75 31
19 3 2 11 26 31 75 76 30
20 3 2 11 26 30 76 29 8
21 3 2 11 26 21 22 77 74
22 3 2 11 26 74 77 78 75
23 3 2 11 26 75 78 79 76
24 3 2 11 26 76 79 28 29
25 3 2 11 26 22 23 80 77
26 3 2 11 26 77 80 81 78
27 3 2 11 26 78 81 82 79
28 3 2 11 26 79 82 27 28
29 3 2 11 26 23 6 24 80
30 3 2 11 26 80 24 25 81
31 3 2 11 26 81 25 26 82
32 3 2 11 26 82 26 7 27
33 5 2 1 1 1 9 41 20 33 50 83 72
34 5 2 1 1 33 50 83 72 34 51 84 73
35 5 2 1 1 34 51 84 73 5 21 74 32
36 5 2 1 1 20 41 42 19 72 83 85 70
37 5 2 1 1 72 83 85 70 73 84 86 71
38 5 2 1 1 73 84 86 71 32 74 75 31
39 5 2 1 1 19 42 43 18 70 85 87 68
40 5 2 1 1 70 85 87 68 71 86 88 69
41 5 2 1 1 71 86 88 69 31 75 76 30
42 5 2 1 1 18 43 17 4 68 87 66 39
43 5 2 1 1 68 87 66 39 69 88 67 40
44 5 2 1 1 69 88 67 40 30 76 29 8
45 5 2 1 1 9 10 44 41 50 52 89 83
46 5 2 1 1 50 52 89 83 51 53 90 84
47 5 2 1 1 51 53 90 84 21 22 77 74
48 5 2 1 1 41 44 45 42 83 89 91 85
49 5 2 1 1 83 89 91 85 84 90 92 86
50 5 2 1 1 84 90 92 86 74 77 78 75
51 5 2 1 1 42 45 46 43 85 91 93 87
52 5 2 1 1 85 91 93 87 86 92 94 88
53 5 2 1 1 86 92 94 88 75 78 79 76
54 5 2 1 1 43 46 16 17 87 93 64 66
55 5 2 1 1 87 93 64 66 88 94 65 67
56 5 2 1 1 88 94 65 67 76 79 28 29
57 5 2 1 1 10 11 47 44 52 54 95 89
58 5 2 1 1 52 54 95 89 53 55 96 90
59 5 2 1 1 53 55 96 90 22 23 80 77
60 5 2 1 1 44 47 48 45 89 95 97 91
61 5 2 1 1 89 95 97 91 90 96 98 92
62 5 2 1 1 90 96 98 92 77 80 81 78
63 5 2 1 1 45 48 49 46 91 97 99 93
64 5 2 1 1 91 97 99 93 92 98 100 94
65 5 2 1 1 92 98 100 94 78 81 82 79
66 5 2 1 1 46 49 15 16 93 99 62 64
67 5 2 1 1 93 99 62 64 94 100 63 65
68 5 2 1 1 94 100 63 65 79 82 27 28
69 5 2 1 1 11 2 12 47 54 35 56 95
70 5 2 1 1 54 35 56 95 55 36 57 96
71 5 2 1 1 55 36 57 96 23 6 24 80
72 5 2 1 1 47 12 13 48 95 56 58 97
73 5 2 1 1 95 56 58 97 96 57 59 98
74 5 2 1 1 96 57 59 98 80 24 25 81
75 5 2 1 1 48 13 14 49 97 58 60 99
76 5 2 1 1 97 58 60 99 98 59 61 100
77 5 2 1 1 98 59 61 100 81 25 26 82
78 5 2 1 1 49 14 3 15 99 60 37 62
79 5 2 1 1 99 60 37 62 100 61 38 63
80 5 2 1 1 100 61 38 63 82 26 7 27
$EndElements
