$MeshFormat
2.2 0 8
$EndMeshFormat
$Nodes
64
1 0 0 0
2 0.001 0 0
3 0.001 0.001 0
4 0 0.001 0
5 0 0 0.0002
6 0.001 0 0.0002
7 0.001 0.001 0.0002
8 0 0.001 0.0002
9 0.0003333333333325707 0 0
10 0.0006666666666658605 0 0
11 0.001 0.0003333333333325707 0
12 0.001 0.0006666666666658605 0
13 0.0006666666666671468 0.001 0
14 0.0003333333333341031 0.001 0
15 0 0.0006666666666671468 0
16 0 0.0003333333333341031 0
17 0.0003333333333325707 0 0.0002
18 0.0006666666666658605 0 0.0002
19 0.001 0.0003333333333325707 0.0002
20 0.001 0.0006666666666658605 0.0002
21 0.0006666666666671468 0.001 0.0002
22 0.0003333333333341031 0.001 0.0002
23 0 0.0006666666666671468 0.0002
24 0 0.0003333333333341031 0.0002
25 0 0 6.666666666666667e-05
26 0 0 0.0001333333333333333
27 0.001 0 6.666666666666667e-05
28 0.001 0 0.0001333333333333333
29 0.001 0.001 6.666666666666667e-05
30 0.001 0.001 0.0001333333333333333
31 0 0.001 6.666666666666667e-05
32 0 0.001 0.0001333333333333333
33 0.0003333333333330816 0.0003333333333335922 0
34 0.0003333333333335924 0.0006666666666667181 0
35 0.0006666666666662892 0.0003333333333330816 0
36 0.0006666666666667179 0.0006666666666662892 0
37 0.0003333333333325707 0 6.666666666666667e-05
38 0.0003333333333325707 0 0.0001333333333333333
39 0.0006666666666658605 0 6.666666666666667e-05
40 0.0006666666666658605 0 0.0001333333333333333
41 0.001 0.0003333333333325707 6.666666666666667e-05
42 0.001 0.0003333333333325707 0.0001333333333333333
43 0.001 0.0006666666666658605 6.666666666666667e-05
44 0.001 0.0006666666666658605 0.0001333333333333333
45 0.0006666666666671468 0.001 6.666666666666667e-05
46 0.0006666666666671468 0.001 0.0001333333333333333
47 0.0003333333333341031 0.001 6.666666666666667e-05
48 0.0003333333333341031 0.001 0.0001333333333333333
49 0 0.0006666666666671468 6.666666666666667e-05
50 0 0.0006666666666671468 0.0001333333333333333
51 0 0.0003333333333341031 6.666666666666667e-05
52 0 0.0003333333333341031 0.0001333333333333333
53 0.0003333333333330816 0.0003333333333335922 0.0002
54 0.0003333333333335924 0.0006666666666667181 0.0002
55 0.0006666666666662892 0.0003333333333330816 0.0002
56 0.0006666666666667179 0.0006666666666662892 0.0002
57 0.0003333333333330816 0.0003333333333335922 6.666666666666667e-05
58 0.0003333333333330816 0.0003333333333335922 0.0001333333333333333
59 0.0003333333333335924 0.0006666666666667181 6.666666666666667e-05
60 0.0003333333333335924 0.0006666666666667181 0.0001333333333333333
61 0.0006666666666662892 0.0003333333333330816 6.666666666666667e-05
62 0.0006666666666662892 0.0003333333333330816 0.0001333333333333333
63 0.0006666666666667179 0.0006666666666662892 6.666666666666667e-05
64 0.0006666666666667179 0.0006666666666662892 0.0001333333333333333
$EndNodes
$Elements
90
1 2 2 10 1 1 9 16
2 2 2 10 1 16 9 33
3 2 2 10 1 16 33 15
4 2 2 10 1 15 33 34
5 2 2 10 1 15 34 4
6 2 2 10 1 4 34 14
7 2 2 10 1 9 10 33
8 2 2 10 1 33 10 35
9 2 2 10 1 33 35 34
10 2 2 10 1 34 35 36
11 2 2 10 1 34 36 14
12 2 2 10 1 14 36 13
13 2 2 10 1 10 2 35
14 2 2 10 1 35 2 11
15 2 2 10 1 35 11 36
16 2 2 10 1 36 11 12
17 2 2 10 1 36 12 13
18 2 2 10 1 13 12 3
19 2 2 11 26 5 17 24
20 2 2 11 26 24 17 53
21 2 2 11 26 24 53 23
22 2 2 11 26 23 53 54
23 2 2 11 26 23 54 8
24 2 2 11 26 8 54 22
25 2 2 11 26 17 18 53
26 2 2 11 26 53 18 55
27 2 2 11 26 53 55 54
28 2 2 11 26 54 55 56
29 2 2 11 26 54 56 22
30 2 2 11 26 22 56 21
31 2 2 11 26 18 6 55
32 2 2 11 26 55 6 19
33 2 2 11 26 55 19 56
34 2 2 11 26 56 19 20
35 2 2 11 26 56 20 21
36 2 2 11 26 21 20 7
37 6 2 1 1 1 9 16 25 37 51
38 6 2 1 1 25 37 51 26 38 52
39 6 2 1 1 26 38 52 5 17 24
40 6 2 1 1 16 9 33 51 37 57
41 6 2 1 1 51 37 57 52 38 58
42 6 2 1 1 52 38 58 24 17 53
43 6 2 1 1 16 33 15 51 57 49
44 6 2 1 1 51 57 49 52 58 50
45 6 2 1 1 52 58 50 24 53 23
46 6 2 1 1 15 33 34 49 57 59
47 6 2 1 1 49 57 59 50 58 60
48 6 2 1 1 50 58 60 23 53 54
49 6 2 1 1 15 34 4 49 59 31
50 6 2 1 1 49 59 31 50 60 32
51 6 2 1 1 50 60 32 23 54 8
52 6 2 1 1 4 34 14 31 59 47
53 6 2 1 1 31 59 47 32 60 48
54 6 2 1 1 32 60 48 8 54 22
55 6 2 1 1 9 10 33 37 39 57
56 6 2 1 1 37 39 57 38 40 58
57 6 2 1 1 38 40 58 17 18 53
58 6 2 1 1 33 10 35 57 39 61
59 6 2 1 1 57 39 61 58 40 62
60 6 2 1 1 58 40 62 53 18 55
61 6 2 1 1 33 35 34 57 61 59
62 6 2 1 1 57 61 59 58 62 60
63 6 2 1 1 58 62 60 53 55 54
64 6 2 1 1 34 35 36 59 61 63
65 6 2 1 1 59 61 63 60 62 64
66 6 2 1 1 60 62 64 54 55 56
67 6 2 1 1 34 36 14 59 63 47
68 6 2 1 1 59 63 47 60 64 48
69 6 2 1 1 60 64 48 54 56 22
70 6 2 1 1 14 36 13 47 63 45
71 6 2 1 1 47 63 45 48 64 46
72 6 2 1 1 48 64 46 22 56 21
73 6 2 1 1 10 2 35 39 27 61
74 6 2 1 1 39 27 61 40 28 62
75 6 2 1 1 40 28 62 18 6 55
76 6 2 1 1 35 2 11 61 27 41
77 6 2 1 1 61 27 41 62 28 42
78 6 2 1 1 62 28 42 55 6 19
79 6 2 1 1 35 11 36 61 41 63
80 6 2 1 1 61 41 63 62 42 64
81 6 2 1 1 62 42 64 55 19 56
82 6 2 1 1 36 11 12 63 41 43
83 6 2 1 1 63 41 43 64 42 44
84 6 2 1 1 64 42 44 56 19 20
85 6 2 1 1 36 12 13 63 43 45
86 6 2 1 1 63 43 45 64 44 46
87 6 2 1 1 64 44 46 56 20 21
88 6 2 1 1 13 12 3 45 43 29
89 6 2 1 1 45 43 29 46 44 30
90 6 2 1 1 46 44 30 21 20 7
$EndElements
