$MeshFormat
2.2 0 8
$EndMeshFormat
$Nodes
89
1 0 0 0
2 0 0 5.55018083909905e-05
3 0 0 9.611734817151462e-05
4 0 0 0.0001519625050976114
5 0 0 0.0002
6 0 0.0002896942030408049 0
7 0 0.0003135032992235698 5.233807057594299e-05
8 0 0.0003511940292991128 0.0001031391968475402
9 0 0.0003678494145363498 0.0001542092551229566
10 0 0.0003017195282412433 0.0002
11 0 0.0006310231302200234 0
12 0 0.0007032434604482452 5.108996160763127e-05
13 0 0.0006750179133885613 0.0001057739318728436
14 0 0.0007155131111677587 0.0001563182699562782
15 0 0.0007116044915865496 0.0002
16 0 0.001 0
17 0 0.001 5.281917217456163e-05
18 0 0.001 9.413133848386612e-05
19 0 0.001 0.0001488636027425918
20 0 0.001 0.0002
21 0.0003365451141429219 0 0
22 0.0003742706937544757 0 5.390235529714746e-05
23 0.0003460969064952648 0 9.359442374981971e-05
24 0.0003779019022857865 0 0.0001574048314288625
25 0.0003266265638633798 0 0.0002
26 0.0003371451313399753 0.0003497360260475161 0
27 0.000299645637863968 0.0003544558268354158 5.13452189905642e-05
28 0.0002894695628065854 0.0003405992489190166 0.0001026923292351962
29 0.0003734814880337602 0.0003083617586881659 0.0001436064143558053
30 0.0002971491280103626 0.0003327326951513434 0.0002
31 0.0003238596375611857 0.000694578841271514 0
32 0.0003219649211261432 0.0006714339785905256 5.509780751777996e-05
33 0.0003609560796514165 0.0007161224835215692 0.0001063193102202073
34 0.0002909527422314353 0.0006461027024771112 0.0001487439256300213
35 0.0002844929165421645 0.000623793452449299 0.0002
36 0.000331323522233474 0.001 0
37 0.0003545889174929966 0.001 5.053405227446341e-05
38 0.0002888903974885781 0.001 9.36315710829207e-05
39 0.0003191666313580355 0.001 0.0001481083293376444
40 0.0003728491012193543 0.001 0.0002
41 0.000686432617380039 0 0
42 0.0007070995217750283 0 5.246987486088094e-05
43 0.0006276458713446601 0 0.0001063334178702622
44 0.000640509419049064 0 0.0001440695966024333
45 0.0007041070651690308 0 0.0002
46 0.0006818972464742887 0.0003383507086827057 0
47 0.0006686520471136869 0.0002918193669033038 4.79117853106671e-05
48 0.0006497226349216472 0.0003427339488106399 9.632330950649249e-05
49 0.0006743043804187949 0.0003300317532018994 0.0001453934560240371
50 0.0007018811271315385 0.0003558930399926251 0.0002
51 0.0006679822732363937 0.0006505767627438261 0
52 0.0006613572733933951 0.0007001694082365709 4.257908178518935e-05
53 0.0006761718499103916 0.000711078118527712 0.0001062828736792765
54 0.0006644991960944071 0.0006289072923227397 0.0001431563588261798
55 0.0007161631430828975 0.0006669027811066281 0.0002
56 0.000666235289776984 0.001 0
57 0.0006298785649446898 0.001 4.971087338839996e-05
58 0.0006596933903792743 0.001 9.927990513060172e-05
59 0.0006284964815163206 0.001 0.0001526926762933776
60 0.0006412600885687379 0.001 0.0002
61 0.001 0 0
62 0.001 0 5.183232221103148e-05
63 0.001 0 9.979248516560499e-05
64 0.001 0 0.0001513095023957797
65 0.001 0 0.0002
66 0.001 0.0003090233750887481 0
67 0.001 0.0003783763247908667 5.621796546255678e-05
68 0.001 0.0003040073859526808 0.0001022212422107561
69 0.001 0.000375543313334756 0.0001512629959125208
70 0.001 0.0003084238305229621 0.0002
71 0.001 0.0006512711334579918 0
72 0.001 0.0006901360041336442 5.552009324278839e-05
73 0.001 0.0006767190110922284 0.0001034586592166125
74 0.001 0.0007032663106120059 0.0001546157085752215
75 0.001 0.0006970125261678417 0.0002
76 0.001 0.001 0
77 0.001 0.001 4.747483978255454e-05
78 0.001 0.001 9.303006519356293e-05
79 0.001 0.001 0.0001540796841956543
80 0.001 0.001 0.0002
81 0.0001844123666836362 0.0001779161773721097 0.0001252327970590075
82 0.0001536194266519099 0.0005395848685061236 0.0001290773347729514
83 0.0001620394196069411 0.0008525133249999062 0.0001255479640813723
84 0.0004887155814446703 0.000188237361181066 0.0001269420470013812
85 0.0004981493230350718 0.0004840318207885402 0.0001243874500475923
86 0.000472049607623462 0.0008617193622837724 0.0001257560260371725
87 0.0008290807741655748 0.0001811605954087015 0.0001212840721991405
88 0.0008097874520026566 0.0004950273160932399 0.0001288570210933063
89 0.0008471270639808004 0.0008410854937337773 0.0001229090930953729
$EndNodes
$Elements
198
1 5 2 1 1 1 21 26 6 2 22 27 7
2 5 2 1 1 2 22 27 7 3 23 28 8
3 5 2 1 1 6 26 31 11 7 27 32 12
4 5 2 1 1 7 27 32 12 8 28 33 13
5 5 2 1 1 11 31 36 16 12 32 37 17
6 5 2 1 1 12 32 37 17 13 33 38 18
7 5 2 1 1 21 41 46 26 22 42 47 27
8 5 2 1 1 22 42 47 27 23 43 48 28
9 5 2 1 1 26 46 51 31 27 47 52 32
10 5 2 1 1 27 47 52 32 28 48 53 33
11 5 2 1 1 31 51 56 36 32 52 57 37
12 5 2 1 1 32 52 57 37 33 53 58 38
13 5 2 1 1 41 61 66 46 42 62 67 47
14 5 2 1 1 42 62 67 47 43 63 68 48
15 5 2 1 1 46 66 71 51 47 67 72 52
16 5 2 1 1 47 67 72 52 48 68 73 53
17 5 2 1 1 51 71 76 56 52 72 77 57
18 5 2 1 1 52 72 77 57 53 73 78 58
19 7 2 2 2 3 23 28 8 81
20 4 2 3 3 3 8 9 81
21 4 2 3 3 3 9 4 81
22 4 2 3 3 23 28 29 81
23 4 2 3 3 23 29 24 81
24 4 2 3 3 3 23 24 81
25 4 2 3 3 3 24 4 81
26 4 2 3 3 8 28 29 81
27 4 2 3 3 8 29 9 81
28 4 2 3 3 4 24 29 81
29 4 2 3 3 4 29 9 81
30 7 2 2 2 8 28 33 13 82
31 4 2 3 3 8 13 14 82
32 4 2 3 3 8 14 9 82
33 4 2 3 3 28 33 34 82
34 4 2 3 3 28 34 29 82
35 4 2 3 3 8 28 29 82
36 4 2 3 3 8 29 9 82
37 4 2 3 3 13 33 34 82
38 4 2 3 3 13 34 14 82
39 4 2 3 3 9 29 34 82
40 4 2 3 3 9 34 14 82
41 7 2 2 2 13 33 38 18 83
42 4 2 3 3 13 18 19 83
43 4 2 3 3 13 19 14 83
44 4 2 3 3 33 38 39 83
45 4 2 3 3 33 39 34 83
46 4 2 3 3 13 33 34 83
47 4 2 3 3 13 34 14 83
48 4 2 3 3 18 38 39 83
49 4 2 3 3 18 39 19 83
50 4 2 3 3 14 34 39 83
51 4 2 3 3 14 39 19 83
52 7 2 2 2 23 43 48 28 84
53 4 2 3 3 23 28 29 84
54 4 2 3 3 23 29 24 84
55 4 2 3 3 43 48 49 84
56 4 2 3 3 43 49 44 84
57 4 2 3 3 23 43 44 84
58 4 2 3 3 23 44 24 84
59 4 2 3 3 28 48 49 84
60 4 2 3 3 28 49 29 84
61 4 2 3 3 24 44 49 84
62 4 2 3 3 24 49 29 84
63 7 2 2 2 28 48 53 33 85
64 4 2 3 3 28 33 34 85
65 4 2 3 3 28 34 29 85
66 4 2 3 3 48 53 54 85
67 4 2 3 3 48 54 49 85
68 4 2 3 3 28 48 49 85
69 4 2 3 3 28 49 29 85
70 4 2 3 3 33 53 54 85
71 4 2 3 3 33 54 34 85
72 4 2 3 3 29 49 54 85
73 4 2 3 3 29 54 34 85
74 7 2 2 2 33 53 58 38 86
75 4 2 3 3 33 38 39 86
76 4 2 3 3 33 39 34 86
77 4 2 3 3 53 58 59 86
78 4 2 3 3 53 59 54 86
79 4 2 3 3 33 53 54 86
80 4 2 3 3 33 54 34 86
81 4 2 3 3 38 58 59 86
82 4 2 3 3 38 59 39 86
83 4 2 3 3 34 54 59 86
84 4 2 3 3 34 59 39 86
85 7 2 2 2 43 63 68 48 87
86 4 2 3 3 43 48 49 87
87 4 2 3 3 43 49 44 87
88 4 2 3 3 63 68 69 87
89 4 2 3 3 63 69 64 87
90 4 2 3 3 43 63 64 87
91 4 2 3 3 43 64 44 87
92 4 2 3 3 48 68 69 87
93 4 2 3 3 48 69 49 87
94 4 2 3 3 44 64 69 87
95 4 2 3 3 44 69 49 87
96 7 2 2 2 48 68 73 53 88
97 4 2 3 3 48 53 54 88
98 4 2 3 3 48 54 49 88
99 4 2 3 3 68 73 74 88
100 4 2 3 3 68 74 69 88
101 4 2 3 3 48 68 69 88
102 4 2 3 3 48 69 49 88
103 4 2 3 3 53 73 74 88
104 4 2 3 3 53 74 54 88
105 4 2 3 3 49 69 74 88
106 4 2 3 3 49 74 54 88
107 7 2 2 2 53 73 78 58 89
108 4 2 3 3 53 58 59 89
109 4 2 3 3 53 59 54 89
110 4 2 3 3 73 78 79 89
111 4 2 3 3 73 79 74 89
112 4 2 3 3 53 73 74 89
113 4 2 3 3 53 74 54 89
114 4 2 3 3 58 78 79 89
115 4 2 3 3 58 79 59 89
116 4 2 3 3 54 74 79 89
117 4 2 3 3 54 79 59 89
118 4 2 3 3 4 24 29 30
119 4 2 3 3 4 24 30 25
120 4 2 3 3 4 25 30 5
121 4 2 3 3 4 29 9 10
122 4 2 3 3 4 29 10 30
123 4 2 3 3 4 30 10 5
124 4 2 3 3 9 29 34 35
125 4 2 3 3 9 29 35 30
126 4 2 3 3 9 30 35 10
127 4 2 3 3 9 34 14 15
128 4 2 3 3 9 34 15 35
129 4 2 3 3 9 35 15 10
130 4 2 3 3 14 34 39 40
131 4 2 3 3 14 34 40 35
132 4 2 3 3 14 35 40 15
133 4 2 3 3 14 39 19 20
134 4 2 3 3 14 39 20 40
135 4 2 3 3 14 40 20 15
136 4 2 3 3 24 44 49 50
137 4 2 3 3 24 44 50 45
138 4 2 3 3 24 45 50 25
139 4 2 3 3 24 49 29 30
140 4 2 3 3 24 49 30 50
141 4 2 3 3 24 50 30 25
142 4 2 3 3 29 49 54 55
143 4 2 3 3 29 49 55 50
144 4 2 3 3 29 50 55 30
145 4 2 3 3 29 54 34 35
146 4 2 3 3 29 54 35 55
147 4 2 3 3 29 55 35 30
148 4 2 3 3 34 54 59 60
149 4 2 3 3 34 54 60 55
150 4 2 3 3 34 55 60 35
151 4 2 3 3 34 59 39 40
152 4 2 3 3 34 59 40 60
153 4 2 3 3 34 60 40 35
154 4 2 3 3 44 64 69 70
155 4 2 3 3 44 64 70 65
156 4 2 3 3 44 65 70 45
157 4 2 3 3 44 69 49 50
158 4 2 3 3 44 69 50 70
159 4 2 3 3 44 70 50 45
160 4 2 3 3 49 69 74 75
161 4 2 3 3 49 69 75 70
162 4 2 3 3 49 70 75 50
163 4 2 3 3 49 74 54 55
164 4 2 3 3 49 74 55 75
165 4 2 3 3 49 75 55 50
166 4 2 3 3 54 74 79 80
167 4 2 3 3 54 74 80 75
168 4 2 3 3 54 75 80 55
169 4 2 3 3 54 79 59 60
170 4 2 3 3 54 79 60 80
171 4 2 3 3 54 80 60 55
172 3 2 10 10 1 21 26 6
173 2 2 11 11 5 25 30
174 2 2 11 11 5 30 10
175 3 2 10 10 6 26 31 11
176 2 2 11 11 10 30 35
177 2 2 11 11 10 35 15
178 3 2 10 10 11 31 36 16
179 2 2 11 11 15 35 40
180 2 2 11 11 15 40 20
181 3 2 10 10 21 41 46 26
182 2 2 11 11 25 45 50
183 2 2 11 11 25 50 30
184 3 2 10 10 26 46 51 31
185 2 2 11 11 30 50 55
186 2 2 11 11 30 55 35
187 3 2 10 10 31 51 56 36
188 2 2 11 11 35 55 60
189 2 2 11 11 35 60 40
190 3 2 10 10 41 61 66 46
191 2 2 11 11 45 65 70
192 2 2 11 11 45 70 50
193 3 2 10 10 46 66 71 51
194 2 2 11 11 50 70 75
195 2 2 11 11 50 75 55
196 3 2 10 10 51 71 76 56
197 2 2 11 11 55 75 80
198 2 2 11 11 55 80 60
$EndElements
