$MeshFormat
2.2 0 8
$EndMeshFormat
$Nodes
343
1 0 0 0
2 0.0003821797778344254 0 0
3 0.0003365451141429219 0.0003742706937544757 0
4 0 0.0003464167006507427 0
5 0 0 7.400241118798732e-05
6 0.0003754551330418549 0 7.565423165064327e-05
7 0.0003593490353143164 0.0003460969064952648 5.812589833309295e-05
8 0 0.0002896942030408049 6.270065984471398e-05
9 0.0001910898889172127 0 0
10 0 0.0001732083503253713 0
11 0 0 3.700120559399366e-05
12 0.0003593624459886737 0.0001871353468772379 0
13 0.0003788174554381402 0 3.782711582532163e-05
14 0.000168272557071461 0.0003603436972026092 0
15 0.0003479470747286192 0.0003601838001248703 2.906294916654647e-05
16 0 0.0003180554518457738 3.135032992235699e-05
17 0.0001877275665209274 0 7.48283214193153e-05
18 0 0.0001448471015204024 6.835153551635065e-05
19 0.0003674020841780856 0.0001730484532476324 6.689006499186811e-05
20 0.0001796745176571582 0.0003178955547680348 6.041327908890346e-05
21 0.0001796812229943368 0.0001801718486013046 0
22 0.0001894087277190701 0 3.741416070965765e-05
23 0 0.0001590277259228869 3.417576775817532e-05
24 0.0003633822650833796 0.0001800919000624351 3.344503249593405e-05
25 0.0001739735373643096 0.000339119625985322 3.020663954445173e-05
26 0.0001837010420890428 0.0001589477773840174 6.762080025410938e-05
27 0.0001816911325416898 0.000169559812992661 3.381040012705469e-05
28 0 0 0.0001281564642286862
29 0.0003521278144970776 0 0.0001255084513118215
30 0.0003779019022857865 0.0003826988761924163 0.0001319919794393426
31 0 0.0003489204705062866 0.0001369054725264892
32 0 0 0.0001010794377083367
33 0.0003637914737694662 0 0.0001005813414812324
34 0.0003686254688000514 0.0003643978913438406 9.505893888621779e-05
35 0 0.0003193073367735457 9.98030661856016e-05
36 0.0001760639072485388 0 0.0001268324577702538
37 0 0.0001744602352531433 0.0001325309683775877
38 0.000365014858391432 0.0001913494380962082 0.0001287502153755821
39 0.0001889509511428932 0.0003658096733493515 0.0001344487259829159
40 0.0001818957368847331 0 0.0001008303895947846
41 0 0.0001596536683867728 0.0001004412519469692
42 0.0003662084712847589 0.0001821989456719203 9.782014018372507e-05
43 0.0001843127344000257 0.0003418526140586931 9.74310025359097e-05
44 0.000182507429195716 0.0001829048366746757 0.0001306405918765849
45 0.0001831042356423794 0.0001709263070293466 9.913069606534712e-05
46 0 0 0.0002
47 0.0003257573516172788 0 0.0002
48 0.0003371451313399753 0.0003497360260475161 0.0002
49 0 0.0003542613123169346 0.0002
50 0 0 0.0001640782321143431
51 0.0003389425830571782 0 0.0001627542256559108
52 0.0003575235168128809 0.0003662174511199662 0.0001659959897196713
53 0 0.0003515908914116106 0.0001684527362632446
54 0.0001628786758086394 0 0.0002
55 0 0.0001771306561584673 0.0002
56 0.000331451241478627 0.0001748680130237581 0.0002
57 0.0001685725656699876 0.0003519986691822253 0.0002
58 0.0001694712915285891 0 0.0001634162288851269
59 0 0.0001757954457058053 0.0001662654841887938
60 0.0003482330499350295 0.0001831087255599831 0.000164375107687791
61 0.0001787617584064405 0.0003589041712657884 0.000167224362991458
62 0.0001657256207393135 0.0001759993345911127 0.0002
63 0.0001741165249675148 0.0001794520856328942 0.0001653202959382925
64 0.000299645637863968 0.0006877891601687491 0
65 0 0.0007011827478696831 0
66 0.0003423014599370946 0.0006228028961399187 6.811984978380332e-05
67 0 0.0006947283674863772 6.034390564824868e-05
68 0 0.0005237997242602129 0
69 0.000318095376003445 0.0005310299269616124 0
70 0.000149822818931984 0.0006944859540192162 0
71 0.0003209735489005313 0.0006552960281543339 3.405992489190166e-05
72 0 0.0006979555576780302 3.017195282412434e-05
73 0 0.0004922112852635911 6.152228274648132e-05
74 0.0003508252476257055 0.0004844499013175917 6.312287405844813e-05
75 0.0001711507299685473 0.000658765631813148 6.4231877716026e-05
76 0.0001590476880017225 0.0005274148256109127 0
77 0 0.0005080055047619019 3.076114137324066e-05
78 0.0003344603118145753 0.0005077399141396021 3.156143702922407e-05
79 0.0001604867744502657 0.0006766257929161821 3.2115938858013e-05
80 0.0001754126238128527 0.0004883305932905914 6.232257840246474e-05
81 0.0001672301559072876 0.000507872709450752 3.116128920123237e-05
82 0.000351282194901308 0.0007068148213670934 0.0001283390184042999
83 0 0.0006310231302200234 0.000140648692089649
84 0.0003467918274192013 0.000664808858753506 9.822943409405158e-05
85 0 0.0006628757488532003 0.0001004962988689489
86 0 0.0004899718003631549 0.0001387770823080691
87 0.0003645920485935472 0.0005447568487797549 0.0001301654989218212
88 0.000175641097450654 0.0006689189757935585 0.0001344938552469744
89 0 0.0004910915428133729 0.0001001496825272752
90 0.0003577086481096264 0.0005146033750486733 9.66441864901347e-05
91 0.0001733959137096006 0.0006638423038033531 9.936286648150021e-05
92 0.0001822960242967736 0.0005173643245714549 0.0001344712906149452
93 0.0001788543240548132 0.0005028474589310231 9.839693450870496e-05
94 0.0002907094290387021 0.0006304824613436959 0.0002
95 0 0.0006739330773842085 0.0002
96 0.000320995811970005 0.0006686486413553947 0.0001641695092021499
97 0 0.0006524781038021159 0.0001703243460448245
98 0 0.0005140971948505715 0.0002
99 0.0003139272801893387 0.000490109243695606 0.0002
100 0.000145354714519351 0.0006522077693639522 0.0002
101 0 0.0005020344976068632 0.0001693885411540346
102 0.000339259664391443 0.0005174330462376804 0.0001650827494609106
103 0.0001604979059850025 0.0006605633725787553 0.0001672469276234872
104 0.0001569636400946693 0.0005021032192730888 0.0002
105 0.0001696298321957215 0.0005097337719222718 0.0001672356453074726
106 0.0003327326951513434 0.001 0
107 0 0.001 0
108 0.0003238596375611857 0.001 7.224910158763615e-05
109 0 0.001 6.83369160110456e-05
110 0 0.0008505913739348416 0
111 0.0003161891665076557 0.0008438945800843746 0
112 0.0001663663475756717 0.001 0
113 0.0003282961663562645 0.001 3.612455079381807e-05
114 0 0.001 3.41684580055228e-05
115 0 0.0008473641837431886 6.434041082964714e-05
116 0.0003330805487491401 0.0008114014480699594 7.018447568571973e-05
117 0.0001619298187805928 0.001 7.029300879934087e-05
118 0.0001580945832538279 0.0008472429770096081 0
119 0 0.0008489777788390151 3.217020541482357e-05
120 0.0003246348576283979 0.000827648014077167 3.509223784285986e-05
121 0.0001641480831781323 0.001 3.514650439967043e-05
122 0.0001665402743745701 0.000829382815906574 6.726244325768344e-05
123 0.000162317428814199 0.000838312896458091 3.363122162884172e-05
124 0.0003219649211261432 0.001 0.0001342867957181051
125 0 0.001 0.0001410319091637915
126 0.0003229122793436645 0.001 0.0001032679486528706
127 0 0.001 0.0001046844125874185
128 0 0.0008155115651100117 0.0001408403006267203
129 0.0003366235580137256 0.0008534074106835467 0.0001313129070612025
130 0.0001609824605630716 0.001 0.0001376593524409483
131 0 0.0008314378744266001 0.0001025903557281837
132 0.0003348520533814329 0.000832404429376753 0.0001007486913734611
133 0.0001614561396718322 0.001 0.0001039761806201446
134 0.0001683117790068628 0.0008344594878967793 0.0001360766038439614
135 0.0001674260266907165 0.0008319211519016766 0.0001016695235508224
136 0.0003673187167851997 0.001 0.0002
137 0 0.001 0.0002
138 0.0003446418189556715 0.001 0.0001671433978590526
139 0 0.001 0.0001705159545818957
140 0 0.0008369665386921042 0.0002
141 0.0003290140729119509 0.0008152412306718479 0.0002
142 0.0001836593583925999 0.001 0.0002
143 0 0.000826239051901058 0.0001704201503133601
144 0.0003328188154628382 0.0008343243206776973 0.0001656564535306013
145 0.0001723209094778357 0.001 0.0001688296762204742
146 0.0001645070364559754 0.0008261038846819761 0.0002
147 0.0001664094077314191 0.0008302816862893776 0.0001680383019219807
148 0.0006942894129847499 0 0
149 0.0006178262498754978 0.0002904601191159658 0
150 0.0007161224835215692 0 7.509241362694311e-05
151 0.0006646568555668073 0.0003545889174929966 6.737873636595121e-05
152 0.0005382345954095876 0 0
153 0.0006560578314301238 0.0001452300595579829 0
154 0.0007052059482531596 0 3.754620681347156e-05
155 0.0004771856820092099 0.0003323654064352208 0
156 0.0006412415527211526 0.0003225245183044812 3.368936818297561e-05
157 0.000545788808281712 0 7.537332263879319e-05
158 0.0006903896695441882 0.0001772944587464983 7.123557499644716e-05
159 0.0005120029454405619 0.0003503429119941307 6.275231734952208e-05
160 0.0005077101387093988 0.0001661827032176104 0
161 0.0005420117018456499 0 3.768666131939659e-05
162 0.0006732237504871561 0.0001612622591522406 3.561778749822358e-05
163 0.0004945943137248858 0.0003413541592146757 3.137615867476104e-05
164 0.000528895876861137 0.0001751714559970654 6.906281999415764e-05
165 0.0005183030077852678 0.0001706770796073379 3.453140999707882e-05
166 0.0006242860755647686 0 0.0001292205404954222
167 0.0006222237308219114 0.0002908771405528046 0.0001304999929382738
168 0.0006702042795431689 0 0.0001021564770611827
169 0.0006434402931943593 0.0003227330290229006 9.89393646521125e-05
170 0.0004882069450309231 0 0.0001273644959036219
171 0.0006232549031933399 0.0001454385702764023 0.000129860266716848
172 0.000500062816553849 0.0003367880083726104 0.0001312459861888082
173 0.0005169978766563176 0 0.0001013689092712075
174 0.0006568222863687641 0.0001613665145114503 0.0001005479208566476
175 0.0005060328809972054 0.0003435654601833706 9.699915176916514e-05
176 0.000494134880792386 0.0001683940041863052 0.000129305241046215
177 0.0005115153788267614 0.0001717827300916853 9.918403052018632e-05
178 0.0006582928375334753 0 0.0002
179 0.0006540555289176289 0.0003728491012193543 0.0002
180 0.0006412894565491219 0 0.0001646102702477111
181 0.0006381396298697702 0.0003318631208860794 0.0001652499964691369
182 0.000492025094575377 0 0.0002
183 0.0006561741832255522 0.0001864245506096771 0.0002
184 0.0004956003301288021 0.0003612925636334352 0.0002
185 0.0004901160198031501 0 0.0001636822479518109
186 0.0006397145432094461 0.0001659315604430397 0.000164930133358424
187 0.0004978315733413256 0.0003490402860030228 0.0001656229930944041
188 0.0004938127123520896 0.0001806462818167176 0.0002
189 0.0004939737965722378 0.0001745201430015114 0.0001646526205231075
190 0.000686432617380039 0.0007070995217750283 0
191 0.0006831324990725395 0.0006276458713446601 7.511122382701632e-05
192 0.0006521294336277684 0.0004987798204454971 0
193 0.0004930391276220035 0.0006974443409718887 0
194 0.0006847825582262893 0.0006673726965598442 3.755561191350816e-05
195 0.0006738946773196734 0.0004911173944188283 7.124498009648377e-05
196 0.0005127169795048171 0.0006252243837422894 7.161553680540983e-05
197 0.0004851124048156067 0.0005149048737035548 0
198 0.0006630120554737208 0.0004949486074321627 3.562249004824189e-05
199 0.0005028780535634102 0.0006613343623570891 3.580776840270491e-05
200 0.0005123599624726894 0.00048778364786821 6.718392707746595e-05
201 0.000498736183644148 0.0005013442607858824 3.359196353873298e-05
202 0.000640509419049064 0.0006271306440162222 0.0001408214130338062
203 0.0006618209590608017 0.0006273882576804412 0.0001079663184304112
204 0.0006313665749354877 0.0004590038922845134 0.00013566070298604
205 0.000495895806975186 0.0006669727326916578 0.000134580215719053
206 0.0006526306261275806 0.0004750606433516709 0.0001034528415412619
207 0.0005043063932400016 0.0006460985582169736 0.0001030978762622314
208 0.0004979793117645175 0.0005018803705321342 0.0001329131009539306
209 0.0005051696371186035 0.0004948320092001722 0.0001000485140156983
210 0.0006818972464742887 0.0006716840420160391 0.0002
211 0.0006612033327616764 0.0006494073430161306 0.0001704107065169031
212 0.0006679763876959588 0.0005222665716176967 0.0002
213 0.0004863033377564954 0.0006510832516798675 0.0002
214 0.0006496714813157233 0.000490635231951105 0.00016783035149302
215 0.0004910995723658408 0.0006590279921857627 0.0001672901078595265
216 0.0004909518339426488 0.0005061879076566513 0.0002
217 0.0004944655728535832 0.0005040341390943928 0.0001664565504769653
218 0.0006686520471136869 0.001 0
219 0.0006251527002366371 0.001 6.38823804142228e-05
220 0.000677542332246863 0.0008535497608875141 0
221 0.0005006923711325152 0.001 0
222 0.000646902373675162 0.001 3.19411902071114e-05
223 0.0006541425996545883 0.0008138229356723301 6.949680212061956e-05
224 0.0004745061688989114 0.001 6.806574100092947e-05
225 0.0004968657493772593 0.0008487221704859444 0
226 0.0006658424659507257 0.0008336863482799221 3.474840106030978e-05
227 0.0004875992700157133 0.001 3.403287050046474e-05
228 0.0004936115742018643 0.0008126121918711447 6.984063890316965e-05
229 0.0004952386617895618 0.0008306671811785446 3.492031945158482e-05
230 0.0006497226349216472 0.001 0.0001352134564287947
231 0.0006374376675791422 0.001 9.954791842150873e-05
232 0.0006451160269853556 0.0008135653220081112 0.0001380174347313004
233 0.0004858437780238952 0.001 0.0001347501260734499
234 0.0006496293133199719 0.0008136941288402206 0.00010375711842596
235 0.0004801749734614033 0.001 0.0001014079335371897
236 0.0004908697924995406 0.0008334863663458289 0.0001346651708962515
237 0.0004922406833507024 0.0008230492791084868 0.0001022529048997106
238 0.0006421553967099499 0.001 0.0002
239 0.0006459390158157985 0.001 0.0001676067282143973
240 0.0006620263215921193 0.0008358420210080196 0.0002
241 0.0005047370567475748 0.001 0.0002
242 0.0006535711742887374 0.0008247036715080653 0.0001690087173656502
243 0.000495290417385735 0.001 0.0001673750630367249
244 0.0004955201972520351 0.0008255416258399338 0.0002
245 0.0004931949948757878 0.0008295139960928813 0.0001673325854481258
246 0.001 0 0
247 0.001 0.0003026230401602476 0
248 0.001 0 6.819420941709233e-05
249 0.001 0.0003685477937982052 7.117860799852504e-05
250 0.000847144706492375 0 0
251 0.001 0.0001513115200801238 0
252 0.001 0 3.409710470854616e-05
253 0.0008089131249377489 0.0002965415796381067 0
254 0.001 0.0003355854169792264 3.558930399926252e-05
255 0.0008580612417607846 0 7.164331152201771e-05
256 0.001 0.0001842738968991026 6.968640870780868e-05
257 0.0008323284277834037 0.0003615683556456009 6.927867218223813e-05
258 0.0008280289157150619 0.0001482707898190534 0
259 0.0008526029741265798 0 3.582165576100886e-05
260 0.001 0.0001677927084896132 3.484320435390434e-05
261 0.0008206207763605763 0.0003290549676418538 3.463933609111907e-05
262 0.0008451948347720942 0.0001807841778228005 7.046099185212792e-05
263 0.000836611875243578 0.0001645274838209269 3.523049592606396e-05
264 0.001 0 0.0001326730173070466
265 0.001 0.0003346489399030603 0.0001301153525487653
266 0.001 0 0.0001004336133620694
267 0.001 0.0003515983668506327 0.0001006469802736451
268 0.0008121430377823843 0 0.0001309467789012344
269 0.001 0.0001673244699515302 0.0001313941849279059
270 0.0008111118654109558 0.0003127630402279324 0.0001303076727435195
271 0.0008351021397715844 0 0.0001012950452116261
272 0.001 0.0001757991834253164 0.0001005402968178573
273 0.0008217201465971797 0.0003371656979367667 9.979317246287882e-05
274 0.00081162745159667 0.0001563815201139662 0.000130627225822377
275 0.0008284111431843821 0.0001685828489683834 0.0001005441088372524
276 0.001 0 0.0002
277 0.001 0.0003280239400600617 0.0002
278 0.001 0 0.0001663365086535233
279 0.001 0.0003313364399815611 0.0001650576762743826
280 0.0008291464187667377 0 0.0002
281 0.001 0.0001640119700300309 0.0002
282 0.0008270277644588145 0.000350436520639708 0.0002
283 0.000820644728274561 0 0.0001654733894506172
284 0.001 0.0001656682199907805 0.0001656970924639529
285 0.0008190698149348852 0.0003315997804338202 0.0001651538363717597
286 0.0008280870916127761 0.000175218260319854 0.0002
287 0.0008198572716047231 0.0001657998902169101 0.0001653136129111885
288 0.001 0.0007001694082365709 0
289 0.001 0.0006171938785679289 6.856770331541166e-05
290 0.001 0.0005013962241984093 0
291 0.0008432163086900194 0.0007036344650057996 0
292 0.001 0.0006586816434022499 3.428385165770583e-05
293 0.001 0.0004928708361830671 6.987315565696835e-05
294 0.0008415662495362698 0.0006224198749562945 7.1839463571214e-05
295 0.0008260647168138842 0.0005000880223219532 0
296 0.001 0.0004971335301907382 3.493657782848418e-05
297 0.0008423912791131447 0.0006630271699810471 3.5919731785607e-05
298 0.0008369473386598367 0.0004919941153009478 7.055906787672606e-05
299 0.0008315060277368604 0.0004960410688114504 3.527953393836303e-05
300 0.001 0.000711078118527712 0.0001417104982390354
301 0.001 0.0006641359985478205 0.0001051391007772235
302 0.001 0.0005228635292153862 0.0001359129253939003
303 0.0008202547095245321 0.0006691043812719671 0.0001412659556364208
304 0.001 0.0005078671826992266 0.0001028930405254343
305 0.0008309104795304009 0.0006457621281141309 0.0001065527096038174
306 0.0008156832874677438 0.0004909337107499498 0.0001357868141899702
307 0.0008263153130637904 0.0004914639130254488 0.0001031729410333481
308 0.001 0.0006644991960944071 0.0002
309 0.001 0.0006877886573110596 0.0001708552491195177
310 0.001 0.0004962615680772345 0.0002
311 0.0008409486232371444 0.0006680916190552231 0.0002
312 0.001 0.0005095625486463103 0.0001679564626969502
313 0.0008306016663808381 0.0006685980001635951 0.0001706329778182104
314 0.0008339881938479795 0.0005092640698474655 0.0002
315 0.0008248357406578616 0.0005000988902987076 0.0001678934070949851
316 0.001 0.001 0
317 0.001 0.001 5.911479179788128e-05
318 0.001 0.0008500847041182855 0
319 0.0008343260235568435 0.001 0
320 0.001 0.001 2.955739589894064e-05
321 0.001 0.0008085969392839645 6.384124755664646e-05
322 0.0008125763501183186 0.001 6.149858610605204e-05
323 0.0008387711661234315 0.0008518172325028998 0
324 0.001 0.0008293408217011249 3.192062377832323e-05
325 0.000823451186837581 0.001 3.074929305302602e-05
326 0.0008270712998272941 0.0008112099374781472 6.666902483863302e-05
327 0.0008329212329753629 0.0008315135849905236 3.333451241931651e-05
328 0.001 0.001 0.0001242084784349064
329 0.001 0.001 9.166163511639386e-05
330 0.001 0.000855539059263856 0.0001329594883369709
331 0.0008248613174608236 0.001 0.0001297109674318506
332 0.001 0.0008320679992739103 9.84003679468087e-05
333 0.0008187188337895711 0.001 9.560477676895129e-05
334 0.0008225580134926778 0.0008345521906359836 0.0001354884615341357
335 0.000824814656659986 0.0008228810640570654 0.0001010787431863843
336 0.001 0.001 0.0002
337 0.001 0.001 0.0001621042392174532
338 0.001 0.0008322495980472035 0.0002
339 0.0008210776983549749 0.001 0.0002
340 0.001 0.0008438943286555299 0.0001664797441684855
341 0.0008229695079078993 0.001 0.0001648554837159253
342 0.0008310131607960596 0.0008340458095276116 0.0002
343 0.0008267855871443687 0.0008342990000817976 0.0001677442307670679
$EndNodes
$Elements
45
1 12 2 1 1 1 2 3 4 5 6 7 8 9 10 11 12 13 14 15 16 17 18 19 20 21 22 23 24 25 26 27
2 12 2 1 1 5 6 7 8 28 29 30 31 17 18 32 19 33 20 34 35 36 37 38 39 26 40 41 42 43 44 45
3 12 2 1 1 28 29 30 31 46 47 48 49 36 37 50 38 51 39 52 53 54 55 56 57 44 58 59 60 61 62 63
4 12 2 1 1 4 3 64 65 8 7 66 67 14 68 16 69 15 70 71 72 20 73 74 75 76 25 77 78 79 80 81
5 12 2 1 1 8 7 66 67 31 30 82 83 20 73 35 74 34 75 84 85 39 86 87 88 80 43 89 90 91 92 93
6 12 2 1 1 31 30 82 83 49 48 94 95 39 86 53 87 52 88 96 97 57 98 99 100 92 61 101 102 103 104 105
7 12 2 1 1 65 64 106 107 67 66 108 109 70 110 72 111 71 112 113 114 75 115 116 117 118 79 119 120 121 122 123
8 12 2 1 1 67 66 108 109 83 82 124 125 75 115 85 116 84 117 126 127 88 128 129 130 122 91 131 132 133 134 135
9 12 2 1 1 83 82 124 125 95 94 136 137 88 128 97 129 96 130 138 139 100 140 141 142 134 103 143 144 145 146 147
10 12 2 1 1 2 148 149 3 6 150 151 7 152 12 13 153 154 155 156 15 157 19 158 159 160 161 24 162 163 164 165
11 12 2 1 1 6 150 151 7 29 166 167 30 157 19 33 158 168 159 169 34 170 38 171 172 164 173 42 174 175 176 177
12 12 2 1 1 29 166 167 30 47 178 179 48 170 38 51 171 180 172 181 52 182 56 183 184 176 185 60 186 187 188 189
13 12 2 1 1 3 149 190 64 7 151 191 66 155 69 15 192 156 193 194 71 159 74 195 196 197 163 78 198 199 200 201
14 12 2 1 1 7 151 191 66 30 167 202 82 159 74 34 195 169 196 203 84 172 87 204 205 200 175 90 206 207 208 209
15 12 2 1 1 30 167 202 82 48 179 210 94 172 87 52 204 181 205 211 96 184 99 212 213 208 187 102 214 215 216 217
16 12 2 1 1 64 190 218 106 66 191 219 108 193 111 71 220 194 221 222 113 196 116 223 224 225 199 120 226 227 228 229
17 12 2 1 1 66 191 219 108 82 202 230 124 196 116 84 223 203 224 231 126 205 129 232 233 228 207 132 234 235 236 237
18 12 2 1 1 82 202 230 124 94 210 238 136 205 129 96 232 211 233 239 138 213 141 240 241 236 215 144 242 243 244 245
19 12 2 1 1 148 246 247 149 150 248 249 151 250 153 154 251 252 253 254 156 255 158 256 257 258 259 162 260 261 262 263
20 12 2 1 1 150 248 249 151 166 264 265 167 255 158 168 256 266 257 267 169 268 171 269 270 262 271 174 272 273 274 275
21 12 2 1 1 166 264 265 167 178 276 277 179 268 171 180 269 278 270 279 181 280 183 281 282 274 283 186 284 285 286 287
22 12 2 1 1 149 247 288 190 151 249 289 191 253 192 156 290 254 291 292 194 257 195 293 294 295 261 198 296 297 298 299
23 12 2 1 1 151 249 289 191 167 265 300 202 257 195 169 293 267 294 301 203 270 204 302 303 298 273 206 304 305 306 307
24 12 2 1 1 167 265 300 202 179 277 308 210 270 204 181 302 279 303 309 211 282 212 310 311 306 285 214 312 313 314 315
25 12 2 1 1 190 288 316 218 191 289 317 219 291 220 194 318 292 319 320 222 294 223 321 322 323 297 226 324 325 326 327
26 12 2 1 1 191 289 317 219 202 300 328 230 294 223 203 321 301 322 329 231 303 232 330 331 326 305 234 332 333 334 335
27 12 2 1 1 202 300 328 230 210 308 336 238 303 232 211 330 309 331 337 239 311 240 338 339 334 313 242 340 341 342 343
28 10 2 10 10 1 2 3 4 9 12 14 10 21
29 10 2 11 11 46 47 48 49 54 56 57 55 62
30 10 2 10 10 4 3 64 65 14 69 70 68 76
31 10 2 11 11 49 48 94 95 57 99 100 98 104
32 10 2 10 10 65 64 106 107 70 111 112 110 118
33 10 2 11 11 95 94 136 137 100 141 142 140 146
34 10 2 10 10 2 148 149 3 152 153 155 12 160
35 10 2 11 11 47 178 179 48 182 183 184 56 188
36 10 2 10 10 3 149 190 64 155 192 193 69 197
37 10 2 11 11 48 179 210 94 184 212 213 99 216
38 10 2 10 10 64 190 218 106 193 220 221 111 225
39 10 2 11 11 94 210 238 136 213 240 241 141 244
40 10 2 10 10 148 246 247 149 250 251 253 153 258
41 10 2 11 11 178 276 277 179 280 281 282 183 286
42 10 2 10 10 149 247 288 190 253 290 291 192 295
43 10 2 11 11 179 277 308 210 282 310 311 212 314
44 10 2 10 10 190 288 316 218 291 318 319 220 323
45 10 2 11 11 210 308 336 238 311 338 339 240 342
$EndElements
