$MeshFormat
2.2 0 8
$EndMeshFormat
$Nodes
48
1 0 0 0
2 0 0.0003333333333333333 0
3 0 0.0006666666666666666 0
4 0 0.001 0
5 0.0003333333333333333 0 0
6 0.0003333333333333333 0.0003333333333333333 0
7 0.0003333333333333333 0.0006666666666666666 0
8 0.0003333333333333333 0.001 0
9 0.0006666666666666666 0 0
10 0.0006666666666666666 0.0003333333333333333 0
11 0.0006666666666666666 0.0006666666666666666 0
12 0.0006666666666666666 0.001 0
13 0.001 0 0
14 0.001 0.0003333333333333333 0
15 0.001 0.0006666666666666666 0
16 0.001 0.001 0
17 0 0 0.0002
18 0 0.0003333333333333333 0.0002
19 0 0.0006666666666666666 0.0002
20 0 0.001 0.0002
21 0.0003333333333333333 0 0.0002
22 0.0003333333333333333 0.0003333333333333333 0.0002
23 0.0003333333333333333 0.0006666666666666666 0.0002
24 0.0003333333333333333 0.001 0.0002
25 0.0006666666666666666 0 0.0002
26 0.0006666666666666666 0.0003333333333333333 0.0002
27 0.0006666666666666666 0.0006666666666666666 0.0002
28 0.0006666666666666666 0.001 0.0002
29 0.001 0 0.0002
30 0.001 0.0003333333333333333 0.0002
31 0.001 0.0006666666666666666 0.0002
32 0.001 0.001 0.0002
33 0 0 0.0001
34 0 0.0003333333333333333 0.0001
35 0 0.0006666666666666666 0.0001
36 0 0.001 0.0001
37 0.0003333333333333333 0 0.0001
38 0.0003333333333333333 0.0003333333333333333 0.0001
39 0.0003333333333333333 0.0006666666666666666 0.0001
40 0.0003333333333333333 0.001 0.0001
41 0.0006666666666666666 0 0.0001
42 0.0006666666666666666 0.0003333333333333333 0.0001
43 0.0006666666666666666 0.0006666666666666666 0.0001
44 0.0006666666666666666 0.001 0.0001
45 0.001 0 0.0001
46 0.001 0.0003333333333333333 0.0001
47 0.001 0.0006666666666666666 0.0001
48 0.001 0.001 0.0001
$EndNodes
$Elements
144
1 2 2 10 10 1 5 6
2 2 2 10 10 1 6 2
3 2 2 10 10 2 6 7
4 2 2 10 10 2 7 3
5 2 2 10 10 3 7 8
6 2 2 10 10 3 8 4
7 2 2 10 10 5 9 10
8 2 2 10 10 5 10 6
9 2 2 10 10 6 10 11
10 2 2 10 10 6 11 7
11 2 2 10 10 7 11 12
12 2 2 10 10 7 12 8
13 2 2 10 10 9 13 14
14 2 2 10 10 9 14 10
15 2 2 10 10 10 14 15
16 2 2 10 10 10 15 11
17 2 2 10 10 11 15 16
18 2 2 10 10 11 16 12
19 2 2 11 11 17 21 22
20 2 2 11 11 17 22 18
21 2 2 11 11 18 22 23
22 2 2 11 11 18 23 19
23 2 2 11 11 19 23 24
24 2 2 11 11 19 24 20
25 2 2 11 11 21 25 26
26 2 2 11 11 21 26 22
27 2 2 11 11 22 26 27
28 2 2 11 11 22 27 23
29 2 2 11 11 23 27 28
30 2 2 11 11 23 28 24
31 2 2 11 11 25 29 30
32 2 2 11 11 25 30 26
33 2 2 11 11 26 30 31
34 2 2 11 11 26 31 27
35 2 2 11 11 27 31 32
36 2 2 11 11 27 32 28
37 4 2 1 1 1 33 34 38
38 4 2 1 1 1 33 38 37
39 4 2 1 1 1 37 38 5
40 4 2 1 1 1 34 2 38
41 4 2 1 1 1 6 5 38
42 4 2 1 1 1 2 6 38
43 4 2 1 1 33 17 18 22
44 4 2 1 1 33 17 22 21
45 4 2 1 1 33 21 22 37
46 4 2 1 1 33 18 34 22
47 4 2 1 1 33 38 37 22
48 4 2 1 1 33 34 38 22
49 4 2 1 1 2 34 35 39
50 4 2 1 1 2 34 39 38
51 4 2 1 1 2 38 39 6
52 4 2 1 1 2 35 3 39
53 4 2 1 1 2 7 6 39
54 4 2 1 1 2 3 7 39
55 4 2 1 1 34 18 19 23
56 4 2 1 1 34 18 23 22
57 4 2 1 1 34 22 23 38
58 4 2 1 1 34 19 35 23
59 4 2 1 1 34 39 38 23
60 4 2 1 1 34 35 39 23
61 4 2 1 1 3 35 36 40
62 4 2 1 1 3 35 40 39
63 4 2 1 1 3 39 40 7
64 4 2 1 1 3 36 4 40
65 4 2 1 1 3 8 7 40
66 4 2 1 1 3 4 8 40
67 4 2 1 1 35 19 20 24
68 4 2 1 1 35 19 24 23
69 4 2 1 1 35 23 24 39
70 4 2 1 1 35 20 36 24
71 4 2 1 1 35 40 39 24
72 4 2 1 1 35 36 40 24
73 4 2 1 1 5 37 38 42
74 4 2 1 1 5 37 42 41
75 4 2 1 1 5 41 42 9
76 4 2 1 1 5 38 6 42
77 4 2 1 1 5 10 9 42
78 4 2 1 1 5 6 10 42
79 4 2 1 1 37 21 22 26
80 4 2 1 1 37 21 26 25
81 4 2 1 1 37 25 26 41
82 4 2 1 1 37 22 38 26
83 4 2 1 1 37 42 41 26
84 4 2 1 1 37 38 42 26
85 4 2 1 1 6 38 39 43
86 4 2 1 1 6 38 43 42
87 4 2 1 1 6 42 43 10
88 4 2 1 1 6 39 7 43
89 4 2 1 1 6 11 10 43
90 4 2 1 1 6 7 11 43
91 4 2 1 1 38 22 23 27
92 4 2 1 1 38 22 27 26
93 4 2 1 1 38 26 27 42
94 4 2 1 1 38 23 39 27
95 4 2 1 1 38 43 42 27
96 4 2 1 1 38 39 43 27
97 4 2 1 1 7 39 40 44
98 4 2 1 1 7 39 44 43
99 4 2 1 1 7 43 44 11
100 4 2 1 1 7 40 8 44
101 4 2 1 1 7 12 11 44
102 4 2 1 1 7 8 12 44
103 4 2 1 1 39 23 24 28
104 4 2 1 1 39 23 28 27
105 4 2 1 1 39 27 28 43
106 4 2 1 1 39 24 40 28
107 4 2 1 1 39 44 43 28
108 4 2 1 1 39 40 44 28
109 4 2 1 1 9 41 42 46
110 4 2 1 1 9 41 46 45
111 4 2 1 1 9 45 46 13
112 4 2 1 1 9 42 10 46
113 4 2 1 1 9 14 13 46
114 4 2 1 1 9 10 14 46
115 4 2 1 1 41 25 26 30
116 4 2 1 1 41 25 30 29
117 4 2 1 1 41 29 30 45
118 4 2 1 1 41 26 42 30
119 4 2 1 1 41 46 45 30
120 4 2 1 1 41 42 46 30
121 4 2 1 1 10 42 43 47
122 4 2 1 1 10 42 47 46
123 4 2 1 1 10 46 47 14
124 4 2 1 1 10 43 11 47
125 4 2 1 1 10 15 14 47
126 4 2 1 1 10 11 15 47
127 4 2 1 1 42 26 27 31
128 4 2 1 1 42 26 31 30
129 4 2 1 1 42 30 31 46
130 4 2 1 1 42 27 43 31
131 4 2 1 1 42 47 46 31
132 4 2 1 1 42 43 47 31
133 4 2 1 1 11 43 44 48
134 4 2 1 1 11 43 48 47
135 4 2 1 1 11 47 48 15
136 4 2 1 1 11 44 12 48
137 4 2 1 1 11 16 15 48
138 4 2 1 1 11 12 16 48
139 4 2 1 1 43 27 28 32
140 4 2 1 1 43 27 32 31
141 4 2 1 1 43 31 32 47
142 4 2 1 1 43 28 44 32
143 4 2 1 1 43 48 47 32
144 4 2 1 1 43 44 48 32
$EndElements
