$MeshFormat
2.2 0 8
$EndMeshFormat
$Nodes
567
1 0 0 0
2 0 0 3.333333333e-05
3 0 0 6.666666667e-05
4 0 0 0.0001
5 0 0 0.0001333333333
6 0 0 0.0001666666667
7 0 0 0.0002
8 0 0.000125 0
9 0 0.000125 3.333333333e-05
10 0 0.000125 6.666666667e-05
11 0 0.000125 0.0001
12 0 0.000125 0.0001333333333
13 0 0.000125 0.0001666666667
14 0 0.000125 0.0002
15 0 0.00025 0
16 0 0.00025 3.333333333e-05
17 0 0.00025 6.666666667e-05
18 0 0.00025 0.0001
19 0 0.00025 0.0001333333333
20 0 0.00025 0.0001666666667
21 0 0.00025 0.0002
22 0 0.000375 0
23 0 0.000375 3.333333333e-05
24 0 0.000375 6.666666667e-05
25 0 0.000375 0.0001
26 0 0.000375 0.0001333333333
27 0 0.000375 0.0001666666667
28 0 0.000375 0.0002
29 0 0.0005 0
30 0 0.0005 3.333333333e-05
31 0 0.0005 6.666666667e-05
32 0 0.0005 0.0001
33 0 0.0005 0.0001333333333
34 0 0.0005 0.0001666666667
35 0 0.0005 0.0002
36 0 0.000625 0
37 0 0.000625 3.333333333e-05
38 0 0.000625 6.666666667e-05
39 0 0.000625 0.0001
40 0 0.000625 0.0001333333333
41 0 0.000625 0.0001666666667
42 0 0.000625 0.0002
43 0 0.00075 0
44 0 0.00075 3.333333333e-05
45 0 0.00075 6.666666667e-05
46 0 0.00075 0.0001
47 0 0.00075 0.0001333333333
48 0 0.00075 0.0001666666667
49 0 0.00075 0.0002
50 0 0.000875 0
51 0 0.000875 3.333333333e-05
52 0 0.000875 6.666666667e-05
53 0 0.000875 0.0001
54 0 0.000875 0.0001333333333
55 0 0.000875 0.0001666666667
56 0 0.000875 0.0002
57 0 0.001 0
58 0 0.001 3.333333333e-05
59 0 0.001 6.666666667e-05
60 0 0.001 0.0001
61 0 0.001 0.0001333333333
62 0 0.001 0.0001666666667
63 0 0.001 0.0002
64 0.000125 0 0
65 0.000125 0 3.333333333e-05
66 0.000125 0 6.666666667e-05
67 0.000125 0 0.0001
68 0.000125 0 0.0001333333333
69 0.000125 0 0.0001666666667
70 0.000125 0 0.0002
71 0.000125 0.000125 0
72 0.000125 0.000125 3.333333333e-05
73 0.000125 0.000125 6.666666667e-05
74 0.000125 0.000125 0.0001
75 0.000125 0.000125 0.0001333333333
76 0.000125 0.000125 0.0001666666667
77 0.000125 0.000125 0.0002
78 0.000125 0.00025 0
79 0.000125 0.00025 3.333333333e-05
80 0.000125 0.00025 6.666666667e-05
81 0.000125 0.00025 0.0001
82 0.000125 0.00025 0.0001333333333
83 0.000125 0.00025 0.0001666666667
84 0.000125 0.00025 0.0002
85 0.000125 0.000375 0
86 0.000125 0.000375 3.333333333e-05
87 0.000125 0.000375 6.666666667e-05
88 0.000125 0.000375 0.0001
89 0.000125 0.000375 0.0001333333333
90 0.000125 0.000375 0.0001666666667
91 0.000125 0.000375 0.0002
92 0.000125 0.0005 0
93 0.000125 0.0005 3.333333333e-05
94 0.000125 0.0005 6.666666667e-05
95 0.000125 0.0005 0.0001
96 0.000125 0.0005 0.0001333333333
97 0.000125 0.0005 0.0001666666667
98 0.000125 0.0005 0.0002
99 0.000125 0.000625 0
100 0.000125 0.000625 3.333333333e-05
101 0.000125 0.000625 6.666666667e-05
102 0.000125 0.000625 0.0001
103 0.000125 0.000625 0.0001333333333
104 0.000125 0.000625 0.0001666666667
105 0.000125 0.000625 0.0002
106 0.000125 0.00075 0
107 0.000125 0.00075 3.333333333e-05
108 0.000125 0.00075 6.666666667e-05
109 0.000125 0.00075 0.0001
110 0.000125 0.00075 0.0001333333333
111 0.000125 0.00075 0.0001666666667
112 0.000125 0.00075 0.0002
113 0.000125 0.000875 0
114 0.000125 0.000875 3.333333333e-05
115 0.000125 0.000875 6.666666667e-05
116 0.000125 0.000875 0.0001
117 0.000125 0.000875 0.0001333333333
118 0.000125 0.000875 0.0001666666667
119 0.000125 0.000875 0.0002
120 0.000125 0.001 0
121 0.000125 0.001 3.333333333e-05
122 0.000125 0.001 6.666666667e-05
123 0.000125 0.001 0.0001
124 0.000125 0.001 0.0001333333333
125 0.000125 0.001 0.0001666666667
126 0.000125 0.001 0.0002
127 0.00025 0 0
128 0.00025 0 3.333333333e-05
129 0.00025 0 6.666666667e-05
130 0.00025 0 0.0001
131 0.00025 0 0.0001333333333
132 0.00025 0 0.0001666666667
133 0.00025 0 0.0002
134 0.00025 0.000125 0
135 0.00025 0.000125 3.333333333e-05
136 0.00025 0.000125 6.666666667e-05
137 0.00025 0.000125 0.0001
138 0.00025 0.000125 0.0001333333333
139 0.00025 0.000125 0.0001666666667
140 0.00025 0.000125 0.0002
141 0.00025 0.00025 0
142 0.00025 0.00025 3.333333333e-05
143 0.00025 0.00025 6.666666667e-05
144 0.00025 0.00025 0.0001
145 0.00025 0.00025 0.0001333333333
146 0.00025 0.00025 0.0001666666667
147 0.00025 0.00025 0.0002
148 0.00025 0.000375 0
149 0.00025 0.000375 3.333333333e-05
150 0.00025 0.000375 6.666666667e-05
151 0.00025 0.000375 0.0001
152 0.00025 0.000375 0.0001333333333
153 0.00025 0.000375 0.0001666666667
154 0.00025 0.000375 0.0002
155 0.00025 0.0005 0
156 0.00025 0.0005 3.333333333e-05
157 0.00025 0.0005 6.666666667e-05
158 0.00025 0.0005 0.0001
159 0.00025 0.0005 0.0001333333333
160 0.00025 0.0005 0.0001666666667
161 0.00025 0.0005 0.0002
162 0.00025 0.000625 0
163 0.00025 0.000625 3.333333333e-05
164 0.00025 0.000625 6.666666667e-05
165 0.00025 0.000625 0.0001
166 0.00025 0.000625 0.0001333333333
167 0.00025 0.000625 0.0001666666667
168 0.00025 0.000625 0.0002
169 0.00025 0.00075 0
170 0.00025 0.00075 3.333333333e-05
171 0.00025 0.00075 6.666666667e-05
172 0.00025 0.00075 0.0001
173 0.00025 0.00075 0.0001333333333
174 0.00025 0.00075 0.0001666666667
175 0.00025 0.00075 0.0002
176 0.00025 0.000875 0
177 0.00025 0.000875 3.333333333e-05
178 0.00025 0.000875 6.666666667e-05
179 0.00025 0.000875 0.0001
180 0.00025 0.000875 0.0001333333333
181 0.00025 0.000875 0.0001666666667
182 0.00025 0.000875 0.0002
183 0.00025 0.001 0
184 0.00025 0.001 3.333333333e-05
185 0.00025 0.001 6.666666667e-05
186 0.00025 0.001 0.0001
187 0.00025 0.001 0.0001333333333
188 0.00025 0.001 0.0001666666667
189 0.00025 0.001 0.0002
190 0.000375 0 0
191 0.000375 0 3.333333333e-05
192 0.000375 0 6.666666667e-05
193 0.000375 0 0.0001
194 0.000375 0 0.0001333333333
195 0.000375 0 0.0001666666667
196 0.000375 0 0.0002
197 0.000375 0.000125 0
198 0.000375 0.000125 3.333333333e-05
199 0.000375 0.000125 6.666666667e-05
200 0.000375 0.000125 0.0001
201 0.000375 0.000125 0.0001333333333
202 0.000375 0.000125 0.0001666666667
203 0.000375 0.000125 0.0002
204 0.000375 0.00025 0
205 0.000375 0.00025 3.333333333e-05
206 0.000375 0.00025 6.666666667e-05
207 0.000375 0.00025 0.0001
208 0.000375 0.00025 0.0001333333333
209 0.000375 0.00025 0.0001666666667
210 0.000375 0.00025 0.0002
211 0.000375 0.000375 0
212 0.000375 0.000375 3.333333333e-05
213 0.000375 0.000375 6.666666667e-05
214 0.000375 0.000375 0.0001
215 0.000375 0.000375 0.0001333333333
216 0.000375 0.000375 0.0001666666667
217 0.000375 0.000375 0.0002
218 0.000375 0.0005 0
219 0.000375 0.0005 3.333333333e-05
220 0.000375 0.0005 6.666666667e-05
221 0.000375 0.0005 0.0001
222 0.000375 0.0005 0.0001333333333
223 0.000375 0.0005 0.0001666666667
224 0.000375 0.0005 0.0002
225 0.000375 0.000625 0
226 0.000375 0.000625 3.333333333e-05
227 0.000375 0.000625 6.666666667e-05
228 0.000375 0.000625 0.0001
229 0.000375 0.000625 0.0001333333333
230 0.000375 0.000625 0.0001666666667
231 0.000375 0.000625 0.0002
232 0.000375 0.00075 0
233 0.000375 0.00075 3.333333333e-05
234 0.000375 0.00075 6.666666667e-05
235 0.000375 0.00075 0.0001
236 0.000375 0.00075 0.0001333333333
237 0.000375 0.00075 0.0001666666667
238 0.000375 0.00075 0.0002
239 0.000375 0.000875 0
240 0.000375 0.000875 3.333333333e-05
241 0.000375 0.000875 6.666666667e-05
242 0.000375 0.000875 0.0001
243 0.000375 0.000875 0.0001333333333
244 0.000375 0.000875 0.0001666666667
245 0.000375 0.000875 0.0002
246 0.000375 0.001 0
247 0.000375 0.001 3.333333333e-05
248 0.000375 0.001 6.666666667e-05
249 0.000375 0.001 0.0001
250 0.000375 0.001 0.0001333333333
251 0.000375 0.001 0.0001666666667
252 0.000375 0.001 0.0002
253 0.0005 0 0
254 0.0005 0 3.333333333e-05
255 0.0005 0 6.666666667e-05
256 0.0005 0 0.0001
257 0.0005 0 0.0001333333333
258 0.0005 0 0.0001666666667
259 0.0005 0 0.0002
260 0.0005 0.000125 0
261 0.0005 0.000125 3.333333333e-05
262 0.0005 0.000125 6.666666667e-05
263 0.0005 0.000125 0.0001
264 0.0005 0.000125 0.0001333333333
265 0.0005 0.000125 0.0001666666667
266 0.0005 0.000125 0.0002
267 0.0005 0.00025 0
268 0.0005 0.00025 3.333333333e-05
269 0.0005 0.00025 6.666666667e-05
270 0.0005 0.00025 0.0001
271 0.0005 0.00025 0.0001333333333
272 0.0005 0.00025 0.0001666666667
273 0.0005 0.00025 0.0002
274 0.0005 0.000375 0
275 0.0005 0.000375 3.333333333e-05
276 0.0005 0.000375 6.666666667e-05
277 0.0005 0.000375 0.0001
278 0.0005 0.000375 0.0001333333333
279 0.0005 0.000375 0.0001666666667
280 0.0005 0.000375 0.0002
281 0.0005 0.0005 0
282 0.0005 0.0005 3.333333333e-05
283 0.0005 0.0005 6.666666667e-05
284 0.0005 0.0005 0.0001
285 0.0005 0.0005 0.0001333333333
286 0.0005 0.0005 0.0001666666667
287 0.0005 0.0005 0.0002
288 0.0005 0.000625 0
289 0.0005 0.000625 3.333333333e-05
290 0.0005 0.000625 6.666666667e-05
291 0.0005 0.000625 0.0001
292 0.0005 0.000625 0.0001333333333
293 0.0005 0.000625 0.0001666666667
294 0.0005 0.000625 0.0002
295 0.0005 0.00075 0
296 0.0005 0.00075 3.333333333e-05
297 0.0005 0.00075 6.666666667e-05
298 0.0005 0.00075 0.0001
299 0.0005 0.00075 0.0001333333333
300 0.0005 0.00075 0.0001666666667
301 0.0005 0.00075 0.0002
302 0.0005 0.000875 0
303 0.0005 0.000875 3.333333333e-05
304 0.0005 0.000875 6.666666667e-05
305 0.0005 0.000875 0.0001
306 0.0005 0.000875 0.0001333333333
307 0.0005 0.000875 0.0001666666667
308 0.0005 0.000875 0.0002
309 0.0005 0.001 0
310 0.0005 0.001 3.333333333e-05
311 0.0005 0.001 6.666666667e-05
312 0.0005 0.001 0.0001
313 0.0005 0.001 0.0001333333333
314 0.0005 0.001 0.0001666666667
315 0.0005 0.001 0.0002
316 0.000625 0 0
317 0.000625 0 3.333333333e-05
318 0.000625 0 6.666666667e-05
319 0.000625 0 0.0001
320 0.000625 0 0.0001333333333
321 0.000625 0 0.0001666666667
322 0.000625 0 0.0002
323 0.000625 0.000125 0
324 0.000625 0.000125 3.333333333e-05
325 0.000625 0.000125 6.666666667e-05
326 0.000625 0.000125 0.0001
327 0.000625 0.000125 0.0001333333333
328 0.000625 0.000125 0.0001666666667
329 0.000625 0.000125 0.0002
330 0.000625 0.00025 0
331 0.000625 0.00025 3.333333333e-05
332 0.000625 0.00025 6.666666667e-05
333 0.000625 0.00025 0.0001
334 0.000625 0.00025 0.0001333333333
335 0.000625 0.00025 0.0001666666667
336 0.000625 0.00025 0.0002
337 0.000625 0.000375 0
338 0.000625 0.000375 3.333333333e-05
339 0.000625 0.000375 6.666666667e-05
340 0.000625 0.000375 0.0001
341 0.000625 0.000375 0.0001333333333
342 0.000625 0.000375 0.0001666666667
343 0.000625 0.000375 0.0002
344 0.000625 0.0005 0
345 0.000625 0.0005 3.333333333e-05
346 0.000625 0.0005 6.666666667e-05
347 0.000625 0.0005 0.0001
348 0.000625 0.0005 0.0001333333333
349 0.000625 0.0005 0.0001666666667
350 0.000625 0.0005 0.0002
351 0.000625 0.000625 0
352 0.000625 0.000625 3.333333333e-05
353 0.000625 0.000625 6.666666667e-05
354 0.000625 0.000625 0.0001
355 0.000625 0.000625 0.0001333333333
356 0.000625 0.000625 0.0001666666667
357 0.000625 0.000625 0.0002
358 0.000625 0.00075 0
359 0.000625 0.00075 3.333333333e-05
360 0.000625 0.00075 6.666666667e-05
361 0.000625 0.00075 0.0001
362 0.000625 0.00075 0.0001333333333
363 0.000625 0.00075 0.0001666666667
364 0.000625 0.00075 0.0002
365 0.000625 0.000875 0
366 0.000625 0.000875 3.333333333e-05
367 0.000625 0.000875 6.666666667e-05
368 0.000625 0.000875 0.0001
369 0.000625 0.000875 0.0001333333333
370 0.000625 0.000875 0.0001666666667
371 0.000625 0.000875 0.0002
372 0.000625 0.001 0
373 0.000625 0.001 3.333333333e-05
374 0.000625 0.001 6.666666667e-05
375 0.000625 0.001 0.0001
376 0.000625 0.001 0.0001333333333
377 0.000625 0.001 0.0001666666667
378 0.000625 0.001 0.0002
379 0.00075 0 0
380 0.00075 0 3.333333333e-05
381 0.00075 0 6.666666667e-05
382 0.00075 0 0.0001
383 0.00075 0 0.0001333333333
384 0.00075 0 0.0001666666667
385 0.00075 0 0.0002
386 0.00075 0.000125 0
387 0.00075 0.000125 3.333333333e-05
388 0.00075 0.000125 6.666666667e-05
389 0.00075 0.000125 0.0001
390 0.00075 0.000125 0.0001333333333
391 0.00075 0.000125 0.0001666666667
392 0.00075 0.000125 0.0002
393 0.00075 0.00025 0
394 0.00075 0.00025 3.333333333e-05
395 0.00075 0.00025 6.666666667e-05
396 0.00075 0.00025 0.0001
397 0.00075 0.00025 0.0001333333333
398 0.00075 0.00025 0.0001666666667
399 0.00075 0.00025 0.0002
400 0.00075 0.000375 0
401 0.00075 0.000375 3.333333333e-05
402 0.00075 0.000375 6.666666667e-05
403 0.00075 0.000375 0.0001
404 0.00075 0.000375 0.0001333333333
405 0.00075 0.000375 0.0001666666667
406 0.00075 0.000375 0.0002
407 0.00075 0.0005 0
408 0.00075 0.0005 3.333333333e-05
409 0.00075 0.0005 6.666666667e-05
410 0.00075 0.0005 0.0001
411 0.00075 0.0005 0.0001333333333
412 0.00075 0.0005 0.0001666666667
413 0.00075 0.0005 0.0002
414 0.00075 0.000625 0
415 0.00075 0.000625 3.333333333e-05
416 0.00075 0.000625 6.666666667e-05
417 0.00075 0.000625 0.0001
418 0.00075 0.000625 0.0001333333333
419 0.00075 0.000625 0.0001666666667
420 0.00075 0.000625 0.0002
421 0.00075 0.00075 0
422 0.00075 0.00075 3.333333333e-05
423 0.00075 0.00075 6.666666667e-05
424 0.00075 0.00075 0.0001
425 0.00075 0.00075 0.0001333333333
426 0.00075 0.00075 0.0001666666667
427 0.00075 0.00075 0.0002
428 0.00075 0.000875 0
429 0.00075 0.000875 3.333333333e-05
430 0.00075 0.000875 6.666666667e-05
431 0.00075 0.000875 0.0001
432 0.00075 0.000875 0.0001333333333
433 0.00075 0.000875 0.0001666666667
434 0.00075 0.000875 0.0002
435 0.00075 0.001 0
436 0.00075 0.001 3.333333333e-05
437 0.00075 0.001 6.666666667e-05
438 0.00075 0.001 0.0001
439 0.00075 0.001 0.0001333333333
440 0.00075 0.001 0.0001666666667
441 0.00075 0.001 0.0002
442 0.000875 0 0
443 0.000875 0 3.333333333e-05
444 0.000875 0 6.666666667e-05
445 0.000875 0 0.0001
446 0.000875 0 0.0001333333333
447 0.000875 0 0.0001666666667
448 0.000875 0 0.0002
449 0.000875 0.000125 0
450 0.000875 0.000125 3.333333333e-05
451 0.000875 0.000125 6.666666667e-05
452 0.000875 0.000125 0.0001
453 0.000875 0.000125 0.0001333333333
454 0.000875 0.000125 0.0001666666667
455 0.000875 0.000125 0.0002
456 0.000875 0.00025 0
457 0.000875 0.00025 3.333333333e-05
458 0.000875 0.00025 6.666666667e-05
459 0.000875 0.00025 0.0001
460 0.000875 0.00025 0.0001333333333
461 0.000875 0.00025 0.0001666666667
462 0.000875 0.00025 0.0002
463 0.000875 0.000375 0
464 0.000875 0.000375 3.333333333e-05
465 0.000875 0.000375 6.666666667e-05
466 0.000875 0.000375 0.0001
467 0.000875 0.000375 0.0001333333333
468 0.000875 0.000375 0.0001666666667
469 0.000875 0.000375 0.0002
470 0.000875 0.0005 0
471 0.000875 0.0005 3.333333333e-05
472 0.000875 0.0005 6.666666667e-05
473 0.000875 0.0005 0.0001
474 0.000875 0.0005 0.0001333333333
475 0.000875 0.0005 0.0001666666667
476 0.000875 0.0005 0.0002
477 0.000875 0.000625 0
478 0.000875 0.000625 3.333333333e-05
479 0.000875 0.000625 6.666666667e-05
480 0.000875 0.000625 0.0001
481 0.000875 0.000625 0.0001333333333
482 0.000875 0.000625 0.0001666666667
483 0.000875 0.000625 0.0002
484 0.000875 0.00075 0
485 0.000875 0.00075 3.333333333e-05
486 0.000875 0.00075 6.666666667e-05
487 0.000875 0.00075 0.0001
488 0.000875 0.00075 0.0001333333333
489 0.000875 0.00075 0.0001666666667
490 0.000875 0.00075 0.0002
491 0.000875 0.000875 0
492 0.000875 0.000875 3.333333333e-05
493 0.000875 0.000875 6.666666667e-05
494 0.000875 0.000875 0.0001
495 0.000875 0.000875 0.0001333333333
496 0.000875 0.000875 0.0001666666667
497 0.000875 0.000875 0.0002
498 0.000875 0.001 0
499 0.000875 0.001 3.333333333e-05
500 0.000875 0.001 6.666666667e-05
501 0.000875 0.001 0.0001
502 0.000875 0.001 0.0001333333333
503 0.000875 0.001 0.0001666666667
504 0.000875 0.001 0.0002
505 0.001 0 0
506 0.001 0 3.333333333e-05
507 0.001 0 6.666666667e-05
508 0.001 0 0.0001
509 0.001 0 0.0001333333333
510 0.001 0 0.0001666666667
511 0.001 0 0.0002
512 0.001 0.000125 0
513 0.001 0.000125 3.333333333e-05
514 0.001 0.000125 6.666666667e-05
515 0.001 0.000125 0.0001
516 0.001 0.000125 0.0001333333333
517 0.001 0.000125 0.0001666666667
518 0.001 0.000125 0.0002
519 0.001 0.00025 0
520 0.001 0.00025 3.333333333e-05
521 0.001 0.00025 6.666666667e-05
522 0.001 0.00025 0.0001
523 0.001 0.00025 0.0001333333333
524 0.001 0.00025 0.0001666666667
525 0.001 0.00025 0.0002
526 0.001 0.000375 0
527 0.001 0.000375 3.333333333e-05
528 0.001 0.000375 6.666666667e-05
529 0.001 0.000375 0.0001
530 0.001 0.000375 0.0001333333333
531 0.001 0.000375 0.0001666666667
532 0.001 0.000375 0.0002
533 0.001 0.0005 0
534 0.001 0.0005 3.333333333e-05
535 0.001 0.0005 6.666666667e-05
536 0.001 0.0005 0.0001
537 0.001 0.0005 0.0001333333333
538 0.001 0.0005 0.0001666666667
539 0.001 0.0005 0.0002
540 0.001 0.000625 0
541 0.001 0.000625 3.333333333e-05
542 0.001 0.000625 6.666666667e-05
543 0.001 0.000625 0.0001
544 0.001 0.000625 0.0001333333333
545 0.001 0.000625 0.0001666666667
546 0.001 0.000625 0.0002
547 0.001 0.00075 0
548 0.001 0.00075 3.333333333e-05
549 0.001 0.00075 6.666666667e-05
550 0.001 0.00075 0.0001
551 0.001 0.00075 0.0001333333333
552 0.001 0.00075 0.0001666666667
553 0.001 0.00075 0.0002
554 0.001 0.000875 0
555 0.001 0.000875 3.333333333e-05
556 0.001 0.000875 6.666666667e-05
557 0.001 0.000875 0.0001
558 0.001 0.000875 0.0001333333333
559 0.001 0.000875 0.0001666666667
560 0.001 0.000875 0.0002
561 0.001 0.001 0
562 0.001 0.001 3.333333333e-05
563 0.001 0.001 6.666666667e-05
564 0.001 0.001 0.0001
565 0.001 0.001 0.0001333333333
566 0.001 0.001 0.0001666666667
567 0.001 0.001 0.0002
$EndNodes
$Elements
2560
1 2 2 10 10 1 64 71
2 2 2 10 10 1 71 8
3 2 2 11 11 7 70 77
4 2 2 11 11 7 77 14
5 2 2 10 10 8 71 78
6 2 2 10 10 8 78 15
7 2 2 11 11 14 77 84
8 2 2 11 11 14 84 21
9 2 2 10 10 15 78 85
10 2 2 10 10 15 85 22
11 2 2 11 11 21 84 91
12 2 2 11 11 21 91 28
13 2 2 10 10 22 85 92
14 2 2 10 10 22 92 29
15 2 2 11 11 28 91 98
16 2 2 11 11 28 98 35
17 2 2 10 10 29 92 99
18 2 2 10 10 29 99 36
19 2 2 11 11 35 98 105
20 2 2 11 11 35 105 42
21 2 2 10 10 36 99 106
22 2 2 10 10 36 106 43
23 2 2 11 11 42 105 112
24 2 2 11 11 42 112 49
25 2 2 10 10 43 106 113
26 2 2 10 10 43 113 50
27 2 2 11 11 49 112 119
28 2 2 11 11 49 119 56
29 2 2 10 10 50 113 120
30 2 2 10 10 50 120 57
31 2 2 11 11 56 119 126
32 2 2 11 11 56 126 63
33 2 2 10 10 64 127 134
34 2 2 10 10 64 134 71
35 2 2 11 11 70 133 140
36 2 2 11 11 70 140 77
37 2 2 10 10 71 134 141
38 2 2 10 10 71 141 78
39 2 2 11 11 77 140 147
40 2 2 11 11 77 147 84
41 2 2 10 10 78 141 148
42 2 2 10 10 78 148 85
43 2 2 11 11 84 147 154
44 2 2 11 11 84 154 91
45 2 2 10 10 85 148 155
46 2 2 10 10 85 155 92
47 2 2 11 11 91 154 161
48 2 2 11 11 91 161 98
49 2 2 10 10 92 155 162
50 2 2 10 10 92 162 99
51 2 2 11 11 98 161 168
52 2 2 11 11 98 168 105
53 2 2 10 10 99 162 169
54 2 2 10 10 99 169 106
55 2 2 11 11 105 168 175
56 2 2 11 11 105 175 112
57 2 2 10 10 106 169 176
58 2 2 10 10 106 176 113
59 2 2 11 11 112 175 182
60 2 2 11 11 112 182 119
61 2 2 10 10 113 176 183
62 2 2 10 10 113 183 120
63 2 2 11 11 119 182 189
64 2 2 11 11 119 189 126
65 2 2 10 10 127 190 197
66 2 2 10 10 127 197 134
67 2 2 11 11 133 196 203
68 2 2 11 11 133 203 140
69 2 2 10 10 134 197 204
70 2 2 10 10 134 204 141
71 2 2 11 11 140 203 210
72 2 2 11 11 140 210 147
73 2 2 10 10 141 204 211
74 2 2 10 10 141 211 148
75 2 2 11 11 147 210 217
76 2 2 11 11 147 217 154
77 2 2 10 10 148 211 218
78 2 2 10 10 148 218 155
79 2 2 11 11 154 217 224
80 2 2 11 11 154 224 161
81 2 2 10 10 155 218 225
82 2 2 10 10 155 225 162
83 2 2 11 11 161 224 231
84 2 2 11 11 161 231 168
85 2 2 10 10 162 225 232
86 2 2 10 10 162 232 169
87 2 2 11 11 168 231 238
88 2 2 11 11 168 238 175
89 2 2 10 10 169 232 239
90 2 2 10 10 169 239 176
91 2 2 11 11 175 238 245
92 2 2 11 11 175 245 182
93 2 2 10 10 176 239 246
94 2 2 10 10 176 246 183
95 2 2 11 11 182 245 252
96 2 2 11 11 182 252 189
97 2 2 10 10 190 253 260
98 2 2 10 10 190 260 197
99 2 2 11 11 196 259 266
100 2 2 11 11 196 266 203
101 2 2 10 10 197 260 267
102 2 2 10 10 197 267 204
103 2 2 11 11 203 266 273
104 2 2 11 11 203 273 210
105 2 2 10 10 204 267 274
106 2 2 10 10 204 274 211
107 2 2 11 11 210 273 280
108 2 2 11 11 210 280 217
109 2 2 10 10 211 274 281
110 2 2 10 10 211 281 218
111 2 2 11 11 217 280 287
112 2 2 11 11 217 287 224
113 2 2 10 10 218 281 288
114 2 2 10 10 218 288 225
115 2 2 11 11 224 287 294
116 2 2 11 11 224 294 231
117 2 2 10 10 225 288 295
118 2 2 10 10 225 295 232
119 2 2 11 11 231 294 301
120 2 2 11 11 231 301 238
121 2 2 10 10 232 295 302
122 2 2 10 10 232 302 239
123 2 2 11 11 238 301 308
124 2 2 11 11 238 308 245
125 2 2 10 10 239 302 309
126 2 2 10 10 239 309 246
127 2 2 11 11 245 308 315
128 2 2 11 11 245 315 252
129 2 2 10 10 253 316 323
130 2 2 10 10 253 323 260
131 2 2 11 11 259 322 329
132 2 2 11 11 259 329 266
133 2 2 10 10 260 323 330
134 2 2 10 10 260 330 267
135 2 2 11 11 266 329 336
136 2 2 11 11 266 336 273
137 2 2 10 10 267 330 337
138 2 2 10 10 267 337 274
139 2 2 11 11 273 336 343
140 2 2 11 11 273 343 280
141 2 2 10 10 274 337 344
142 2 2 10 10 274 344 281
143 2 2 11 11 280 343 350
144 2 2 11 11 280 350 287
145 2 2 10 10 281 344 351
146 2 2 10 10 281 351 288
147 2 2 11 11 287 350 357
148 2 2 11 11 287 357 294
149 2 2 10 10 288 351 358
150 2 2 10 10 288 358 295
151 2 2 11 11 294 357 364
152 2 2 11 11 294 364 301
153 2 2 10 10 295 358 365
154 2 2 10 10 295 365 302
155 2 2 11 11 301 364 371
156 2 2 11 11 301 371 308
157 2 2 10 10 302 365 372
158 2 2 10 10 302 372 309
159 2 2 11 11 308 371 378
160 2 2 11 11 308 378 315
161 2 2 10 10 316 379 386
162 2 2 10 10 316 386 323
163 2 2 11 11 322 385 392
164 2 2 11 11 322 392 329
165 2 2 10 10 323 386 393
166 2 2 10 10 323 393 330
167 2 2 11 11 329 392 399
168 2 2 11 11 329 399 336
169 2 2 10 10 330 393 400
170 2 2 10 10 330 400 337
171 2 2 11 11 336 399 406
172 2 2 11 11 336 406 343
173 2 2 10 10 337 400 407
174 2 2 10 10 337 407 344
175 2 2 11 11 343 406 413
176 2 2 11 11 343 413 350
177 2 2 10 10 344 407 414
178 2 2 10 10 344 414 351
179 2 2 11 11 350 413 420
180 2 2 11 11 350 420 357
181 2 2 10 10 351 414 421
182 2 2 10 10 351 421 358
183 2 2 11 11 357 420 427
184 2 2 11 11 357 427 364
185 2 2 10 10 358 421 428
186 2 2 10 10 358 428 365
187 2 2 11 11 364 427 434
188 2 2 11 11 364 434 371
189 2 2 10 10 365 428 435
190 2 2 10 10 365 435 372
191 2 2 11 11 371 434 441
192 2 2 11 11 371 441 378
193 2 2 10 10 379 442 449
194 2 2 10 10 379 449 386
195 2 2 11 11 385 448 455
196 2 2 11 11 385 455 392
197 2 2 10 10 386 449 456
198 2 2 10 10 386 456 393
199 2 2 11 11 392 455 462
200 2 2 11 11 392 462 399
201 2 2 10 10 393 456 463
202 2 2 10 10 393 463 400
203 2 2 11 11 399 462 469
204 2 2 11 11 399 469 406
205 2 2 10 10 400 463 470
206 2 2 10 10 400 470 407
207 2 2 11 11 406 469 476
208 2 2 11 11 406 476 413
209 2 2 10 10 407 470 477
210 2 2 10 10 407 477 414
211 2 2 11 11 413 476 483
212 2 2 11 11 413 483 420
213 2 2 10 10 414 477 484
214 2 2 10 10 414 484 421
215 2 2 11 11 420 483 490
216 2 2 11 11 420 490 427
217 2 2 10 10 421 484 491
218 2 2 10 10 421 491 428
219 2 2 11 11 427 490 497
220 2 2 11 11 427 497 434
221 2 2 10 10 428 491 498
222 2 2 10 10 428 498 435
223 2 2 11 11 434 497 504
224 2 2 11 11 434 504 441
225 2 2 10 10 442 505 512
226 2 2 10 10 442 512 449
227 2 2 11 11 448 511 518
228 2 2 11 11 448 518 455
229 2 2 10 10 449 512 519
230 2 2 10 10 449 519 456
231 2 2 11 11 455 518 525
232 2 2 11 11 455 525 462
233 2 2 10 10 456 519 526
234 2 2 10 10 456 526 463
235 2 2 11 11 462 525 532
236 2 2 11 11 462 532 469
237 2 2 10 10 463 526 533
238 2 2 10 10 463 533 470
239 2 2 11 11 469 532 539
240 2 2 11 11 469 539 476
241 2 2 10 10 470 533 540
242 2 2 10 10 470 540 477
243 2 2 11 11 476 539 546
244 2 2 11 11 476 546 483
245 2 2 10 10 477 540 547
246 2 2 10 10 477 547 484
247 2 2 11 11 483 546 553
248 2 2 11 11 483 553 490
249 2 2 10 10 484 547 554
250 2 2 10 10 484 554 491
251 2 2 11 11 490 553 560
252 2 2 11 11 490 560 497
253 2 2 10 10 491 554 561
254 2 2 10 10 491 561 498
255 2 2 11 11 497 560 567
256 2 2 11 11 497 567 504
257 4 2 1 1 1 2 9 72
258 4 2 1 1 1 2 72 65
259 4 2 1 1 1 65 72 64
260 4 2 1 1 1 9 8 72
261 4 2 1 1 1 71 64 72
262 4 2 1 1 1 8 71 72
263 4 2 1 1 2 3 10 73
264 4 2 1 1 2 3 73 66
265 4 2 1 1 2 66 73 65
266 4 2 1 1 2 10 9 73
267 4 2 1 1 2 72 65 73
268 4 2 1 1 2 9 72 73
269 4 2 1 1 3 4 11 74
270 4 2 1 1 3 4 74 67
271 4 2 1 1 3 67 74 66
272 4 2 1 1 3 11 10 74
273 4 2 1 1 3 73 66 74
274 4 2 1 1 3 10 73 74
275 4 2 1 1 4 5 12 75
276 4 2 1 1 4 5 75 68
277 4 2 1 1 4 68 75 67
278 4 2 1 1 4 12 11 75
279 4 2 1 1 4 74 67 75
280 4 2 1 1 4 11 74 75
281 4 2 1 1 5 6 13 76
282 4 2 1 1 5 6 76 69
283 4 2 1 1 5 69 76 68
284 4 2 1 1 5 13 12 76
285 4 2 1 1 5 75 68 76
286 4 2 1 1 5 12 75 76
287 4 2 1 1 6 7 14 77
288 4 2 1 1 6 7 77 70
289 4 2 1 1 6 70 77 69
290 4 2 1 1 6 14 13 77
291 4 2 1 1 6 76 69 77
292 4 2 1 1 6 13 76 77
293 4 2 1 1 8 9 16 79
294 4 2 1 1 8 9 79 72
295 4 2 1 1 8 72 79 71
296 4 2 1 1 8 16 15 79
297 4 2 1 1 8 78 71 79
298 4 2 1 1 8 15 78 79
299 4 2 1 1 9 10 17 80
300 4 2 1 1 9 10 80 73
301 4 2 1 1 9 73 80 72
302 4 2 1 1 9 17 16 80
303 4 2 1 1 9 79 72 80
304 4 2 1 1 9 16 79 80
305 4 2 1 1 10 11 18 81
306 4 2 1 1 10 11 81 74
307 4 2 1 1 10 74 81 73
308 4 2 1 1 10 18 17 81
309 4 2 1 1 10 80 73 81
310 4 2 1 1 10 17 80 81
311 4 2 1 1 11 12 19 82
312 4 2 1 1 11 12 82 75
313 4 2 1 1 11 75 82 74
314 4 2 1 1 11 19 18 82
315 4 2 1 1 11 81 74 82
316 4 2 1 1 11 18 81 82
317 4 2 1 1 12 13 20 83
318 4 2 1 1 12 13 83 76
319 4 2 1 1 12 76 83 75
320 4 2 1 1 12 20 19 83
321 4 2 1 1 12 82 75 83
322 4 2 1 1 12 19 82 83
323 4 2 1 1 13 14 21 84
324 4 2 1 1 13 14 84 77
325 4 2 1 1 13 77 84 76
326 4 2 1 1 13 21 20 84
327 4 2 1 1 13 83 76 84
328 4 2 1 1 13 20 83 84
329 4 2 1 1 15 16 23 86
330 4 2 1 1 15 16 86 79
331 4 2 1 1 15 79 86 78
332 4 2 1 1 15 23 22 86
333 4 2 1 1 15 85 78 86
334 4 2 1 1 15 22 85 86
335 4 2 1 1 16 17 24 87
336 4 2 1 1 16 17 87 80
337 4 2 1 1 16 80 87 79
338 4 2 1 1 16 24 23 87
339 4 2 1 1 16 86 79 87
340 4 2 1 1 16 23 86 87
341 4 2 1 1 17 18 25 88
342 4 2 1 1 17 18 88 81
343 4 2 1 1 17 81 88 80
344 4 2 1 1 17 25 24 88
345 4 2 1 1 17 87 80 88
346 4 2 1 1 17 24 87 88
347 4 2 1 1 18 19 26 89
348 4 2 1 1 18 19 89 82
349 4 2 1 1 18 82 89 81
350 4 2 1 1 18 26 25 89
351 4 2 1 1 18 88 81 89
352 4 2 1 1 18 25 88 89
353 4 2 1 1 19 20 27 90
354 4 2 1 1 19 20 90 83
355 4 2 1 1 19 83 90 82
356 4 2 1 1 19 27 26 90
357 4 2 1 1 19 89 82 90
358 4 2 1 1 19 26 89 90
359 4 2 1 1 20 21 28 91
360 4 2 1 1 20 21 91 84
361 4 2 1 1 20 84 91 83
362 4 2 1 1 20 28 27 91
363 4 2 1 1 20 90 83 91
364 4 2 1 1 20 27 90 91
365 4 2 1 1 22 23 30 93
366 4 2 1 1 22 23 93 86
367 4 2 1 1 22 86 93 85
368 4 2 1 1 22 30 29 93
369 4 2 1 1 22 92 85 93
370 4 2 1 1 22 29 92 93
371 4 2 1 1 23 24 31 94
372 4 2 1 1 23 24 94 87
373 4 2 1 1 23 87 94 86
374 4 2 1 1 23 31 30 94
375 4 2 1 1 23 93 86 94
376 4 2 1 1 23 30 93 94
377 4 2 1 1 24 25 32 95
378 4 2 1 1 24 25 95 88
379 4 2 1 1 24 88 95 87
380 4 2 1 1 24 32 31 95
381 4 2 1 1 24 94 87 95
382 4 2 1 1 24 31 94 95
383 4 2 1 1 25 26 33 96
384 4 2 1 1 25 26 96 89
385 4 2 1 1 25 89 96 88
386 4 2 1 1 25 33 32 96
387 4 2 1 1 25 95 88 96
388 4 2 1 1 25 32 95 96
389 4 2 1 1 26 27 34 97
390 4 2 1 1 26 27 97 90
391 4 2 1 1 26 90 97 89
392 4 2 1 1 26 34 33 97
393 4 2 1 1 26 96 89 97
394 4 2 1 1 26 33 96 97
395 4 2 1 1 27 28 35 98
396 4 2 1 1 27 28 98 91
397 4 2 1 1 27 91 98 90
398 4 2 1 1 27 35 34 98
399 4 2 1 1 27 97 90 98
400 4 2 1 1 27 34 97 98
401 4 2 1 1 29 30 37 100
402 4 2 1 1 29 30 100 93
403 4 2 1 1 29 93 100 92
404 4 2 1 1 29 37 36 100
405 4 2 1 1 29 99 92 100
406 4 2 1 1 29 36 99 100
407 4 2 1 1 30 31 38 101
408 4 2 1 1 30 31 101 94
409 4 2 1 1 30 94 101 93
410 4 2 1 1 30 38 37 101
411 4 2 1 1 30 100 93 101
412 4 2 1 1 30 37 100 101
413 4 2 1 1 31 32 39 102
414 4 2 1 1 31 32 102 95
415 4 2 1 1 31 95 102 94
416 4 2 1 1 31 39 38 102
417 4 2 1 1 31 101 94 102
418 4 2 1 1 31 38 101 102
419 4 2 1 1 32 33 40 103
420 4 2 1 1 32 33 103 96
421 4 2 1 1 32 96 103 95
422 4 2 1 1 32 40 39 103
423 4 2 1 1 32 102 95 103
424 4 2 1 1 32 39 102 103
425 4 2 1 1 33 34 41 104
426 4 2 1 1 33 34 104 97
427 4 2 1 1 33 97 104 96
428 4 2 1 1 33 41 40 104
429 4 2 1 1 33 103 96 104
430 4 2 1 1 33 40 103 104
431 4 2 1 1 34 35 42 105
432 4 2 1 1 34 35 105 98
433 4 2 1 1 34 98 105 97
434 4 2 1 1 34 42 41 105
435 4 2 1 1 34 104 97 105
436 4 2 1 1 34 41 104 105
437 4 2 1 1 36 37 44 107
438 4 2 1 1 36 37 107 100
439 4 2 1 1 36 100 107 99
440 4 2 1 1 36 44 43 107
441 4 2 1 1 36 106 99 107
442 4 2 1 1 36 43 106 107
443 4 2 1 1 37 38 45 108
444 4 2 1 1 37 38 108 101
445 4 2 1 1 37 101 108 100
446 4 2 1 1 37 45 44 108
447 4 2 1 1 37 107 100 108
448 4 2 1 1 37 44 107 108
449 4 2 1 1 38 39 46 109
450 4 2 1 1 38 39 109 102
451 4 2 1 1 38 102 109 101
452 4 2 1 1 38 46 45 109
453 4 2 1 1 38 108 101 109
454 4 2 1 1 38 45 108 109
455 4 2 1 1 39 40 47 110
456 4 2 1 1 39 40 110 103
457 4 2 1 1 39 103 110 102
458 4 2 1 1 39 47 46 110
459 4 2 1 1 39 109 102 110
460 4 2 1 1 39 46 109 110
461 4 2 1 1 40 41 48 111
462 4 2 1 1 40 41 111 104
463 4 2 1 1 40 104 111 103
464 4 2 1 1 40 48 47 111
465 4 2 1 1 40 110 103 111
466 4 2 1 1 40 47 110 111
467 4 2 1 1 41 42 49 112
468 4 2 1 1 41 42 112 105
469 4 2 1 1 41 105 112 104
470 4 2 1 1 41 49 48 112
471 4 2 1 1 41 111 104 112
472 4 2 1 1 41 48 111 112
473 4 2 1 1 43 44 51 114
474 4 2 1 1 43 44 114 107
475 4 2 1 1 43 107 114 106
476 4 2 1 1 43 51 50 114
477 4 2 1 1 43 113 106 114
478 4 2 1 1 43 50 113 114
479 4 2 1 1 44 45 52 115
480 4 2 1 1 44 45 115 108
481 4 2 1 1 44 108 115 107
482 4 2 1 1 44 52 51 115
483 4 2 1 1 44 114 107 115
484 4 2 1 1 44 51 114 115
485 4 2 1 1 45 46 53 116
486 4 2 1 1 45 46 116 109
487 4 2 1 1 45 109 116 108
488 4 2 1 1 45 53 52 116
489 4 2 1 1 45 115 108 116
490 4 2 1 1 45 52 115 116
491 4 2 1 1 46 47 54 117
492 4 2 1 1 46 47 117 110
493 4 2 1 1 46 110 117 109
494 4 2 1 1 46 54 53 117
495 4 2 1 1 46 116 109 117
496 4 2 1 1 46 53 116 117
497 4 2 1 1 47 48 55 118
498 4 2 1 1 47 48 118 111
499 4 2 1 1 47 111 118 110
500 4 2 1 1 47 55 54 118
501 4 2 1 1 47 117 110 118
502 4 2 1 1 47 54 117 118
503 4 2 1 1 48 49 56 119
504 4 2 1 1 48 49 119 112
505 4 2 1 1 48 112 119 111
506 4 2 1 1 48 56 55 119
507 4 2 1 1 48 118 111 119
508 4 2 1 1 48 55 118 119
509 4 2 1 1 50 51 58 121
510 4 2 1 1 50 51 121 114
511 4 2 1 1 50 114 121 113
512 4 2 1 1 50 58 57 121
513 4 2 1 1 50 120 113 121
514 4 2 1 1 50 57 120 121
515 4 2 1 1 51 52 59 122
516 4 2 1 1 51 52 122 115
517 4 2 1 1 51 115 122 114
518 4 2 1 1 51 59 58 122
519 4 2 1 1 51 121 114 122
520 4 2 1 1 51 58 121 122
521 4 2 1 1 52 53 60 123
522 4 2 1 1 52 53 123 116
523 4 2 1 1 52 116 123 115
524 4 2 1 1 52 60 59 123
525 4 2 1 1 52 122 115 123
526 4 2 1 1 52 59 122 123
527 4 2 1 1 53 54 61 124
528 4 2 1 1 53 54 124 117
529 4 2 1 1 53 117 124 116
530 4 2 1 1 53 61 60 124
531 4 2 1 1 53 123 116 124
532 4 2 1 1 53 60 123 124
533 4 2 1 1 54 55 62 125
534 4 2 1 1 54 55 125 118
535 4 2 1 1 54 118 125 117
536 4 2 1 1 54 62 61 125
537 4 2 1 1 54 124 117 125
538 4 2 1 1 54 61 124 125
539 4 2 1 1 55 56 63 126
540 4 2 1 1 55 56 126 119
541 4 2 1 1 55 119 126 118
542 4 2 1 1 55 63 62 126
543 4 2 1 1 55 125 118 126
544 4 2 1 1 55 62 125 126
545 4 2 1 1 64 65 72 135
546 4 2 1 1 64 65 135 128
547 4 2 1 1 64 128 135 127
548 4 2 1 1 64 72 71 135
549 4 2 1 1 64 134 127 135
550 4 2 1 1 64 71 134 135
551 4 2 1 1 65 66 73 136
552 4 2 1 1 65 66 136 129
553 4 2 1 1 65 129 136 128
554 4 2 1 1 65 73 72 136
555 4 2 1 1 65 135 128 136
556 4 2 1 1 65 72 135 136
557 4 2 1 1 66 67 74 137
558 4 2 1 1 66 67 137 130
559 4 2 1 1 66 130 137 129
560 4 2 1 1 66 74 73 137
561 4 2 1 1 66 136 129 137
562 4 2 1 1 66 73 136 137
563 4 2 1 1 67 68 75 138
564 4 2 1 1 67 68 138 131
565 4 2 1 1 67 131 138 130
566 4 2 1 1 67 75 74 138
567 4 2 1 1 67 137 130 138
568 4 2 1 1 67 74 137 138
569 4 2 1 1 68 69 76 139
570 4 2 1 1 68 69 139 132
571 4 2 1 1 68 132 139 131
572 4 2 1 1 68 76 75 139
573 4 2 1 1 68 138 131 139
574 4 2 1 1 68 75 138 139
575 4 2 1 1 69 70 77 140
576 4 2 1 1 69 70 140 133
577 4 2 1 1 69 133 140 132
578 4 2 1 1 69 77 76 140
579 4 2 1 1 69 139 132 140
580 4 2 1 1 69 76 139 140
581 4 2 1 1 71 72 79 142
582 4 2 1 1 71 72 142 135
583 4 2 1 1 71 135 142 134
584 4 2 1 1 71 79 78 142
585 4 2 1 1 71 141 134 142
586 4 2 1 1 71 78 141 142
587 4 2 1 1 72 73 80 143
588 4 2 1 1 72 73 143 136
589 4 2 1 1 72 136 143 135
590 4 2 1 1 72 80 79 143
591 4 2 1 1 72 142 135 143
592 4 2 1 1 72 79 142 143
593 4 2 1 1 73 74 81 144
594 4 2 1 1 73 74 144 137
595 4 2 1 1 73 137 144 136
596 4 2 1 1 73 81 80 144
597 4 2 1 1 73 143 136 144
598 4 2 1 1 73 80 143 144
599 4 2 1 1 74 75 82 145
600 4 2 1 1 74 75 145 138
601 4 2 1 1 74 138 145 137
602 4 2 1 1 74 82 81 145
603 4 2 1 1 74 144 137 145
604 4 2 1 1 74 81 144 145
605 4 2 1 1 75 76 83 146
606 4 2 1 1 75 76 146 139
607 4 2 1 1 75 139 146 138
608 4 2 1 1 75 83 82 146
609 4 2 1 1 75 145 138 146
610 4 2 1 1 75 82 145 146
611 4 2 1 1 76 77 84 147
612 4 2 1 1 76 77 147 140
613 4 2 1 1 76 140 147 139
614 4 2 1 1 76 84 83 147
615 4 2 1 1 76 146 139 147
616 4 2 1 1 76 83 146 147
617 4 2 1 1 78 79 86 149
618 4 2 1 1 78 79 149 142
619 4 2 1 1 78 142 149 141
620 4 2 1 1 78 86 85 149
621 4 2 1 1 78 148 141 149
622 4 2 1 1 78 85 148 149
623 4 2 1 1 79 80 87 150
624 4 2 1 1 79 80 150 143
625 4 2 1 1 79 143 150 142
626 4 2 1 1 79 87 86 150
627 4 2 1 1 79 149 142 150
628 4 2 1 1 79 86 149 150
629 4 2 1 1 80 81 88 151
630 4 2 1 1 80 81 151 144
631 4 2 1 1 80 144 151 143
632 4 2 1 1 80 88 87 151
633 4 2 1 1 80 150 143 151
634 4 2 1 1 80 87 150 151
635 4 2 1 1 81 82 89 152
636 4 2 1 1 81 82 152 145
637 4 2 1 1 81 145 152 144
638 4 2 1 1 81 89 88 152
639 4 2 1 1 81 151 144 152
640 4 2 1 1 81 88 151 152
641 4 2 1 1 82 83 90 153
642 4 2 1 1 82 83 153 146
643 4 2 1 1 82 146 153 145
644 4 2 1 1 82 90 89 153
645 4 2 1 1 82 152 145 153
646 4 2 1 1 82 89 152 153
647 4 2 1 1 83 84 91 154
648 4 2 1 1 83 84 154 147
649 4 2 1 1 83 147 154 146
650 4 2 1 1 83 91 90 154
651 4 2 1 1 83 153 146 154
652 4 2 1 1 83 90 153 154
653 4 2 1 1 85 86 93 156
654 4 2 1 1 85 86 156 149
655 4 2 1 1 85 149 156 148
656 4 2 1 1 85 93 92 156
657 4 2 1 1 85 155 148 156
658 4 2 1 1 85 92 155 156
659 4 2 1 1 86 87 94 157
660 4 2 1 1 86 87 157 150
661 4 2 1 1 86 150 157 149
662 4 2 1 1 86 94 93 157
663 4 2 1 1 86 156 149 157
664 4 2 1 1 86 93 156 157
665 4 2 1 1 87 88 95 158
666 4 2 1 1 87 88 158 151
667 4 2 1 1 87 151 158 150
668 4 2 1 1 87 95 94 158
669 4 2 1 1 87 157 150 158
670 4 2 1 1 87 94 157 158
671 4 2 1 1 88 89 96 159
672 4 2 1 1 88 89 159 152
673 4 2 1 1 88 152 159 151
674 4 2 1 1 88 96 95 159
675 4 2 1 1 88 158 151 159
676 4 2 1 1 88 95 158 159
677 4 2 1 1 89 90 97 160
678 4 2 1 1 89 90 160 153
679 4 2 1 1 89 153 160 152
680 4 2 1 1 89 97 96 160
681 4 2 1 1 89 159 152 160
682 4 2 1 1 89 96 159 160
683 4 2 1 1 90 91 98 161
684 4 2 1 1 90 91 161 154
685 4 2 1 1 90 154 161 153
686 4 2 1 1 90 98 97 161
687 4 2 1 1 90 160 153 161
688 4 2 1 1 90 97 160 161
689 4 2 1 1 92 93 100 163
690 4 2 1 1 92 93 163 156
691 4 2 1 1 92 156 163 155
692 4 2 1 1 92 100 99 163
693 4 2 1 1 92 162 155 163
694 4 2 1 1 92 99 162 163
695 4 2 1 1 93 94 101 164
696 4 2 1 1 93 94 164 157
697 4 2 1 1 93 157 164 156
698 4 2 1 1 93 101 100 164
699 4 2 1 1 93 163 156 164
700 4 2 1 1 93 100 163 164
701 4 2 1 1 94 95 102 165
702 4 2 1 1 94 95 165 158
703 4 2 1 1 94 158 165 157
704 4 2 1 1 94 102 101 165
705 4 2 1 1 94 164 157 165
706 4 2 1 1 94 101 164 165
707 4 2 1 1 95 96 103 166
708 4 2 1 1 95 96 166 159
709 4 2 1 1 95 159 166 158
710 4 2 1 1 95 103 102 166
711 4 2 1 1 95 165 158 166
712 4 2 1 1 95 102 165 166
713 4 2 1 1 96 97 104 167
714 4 2 1 1 96 97 167 160
715 4 2 1 1 96 160 167 159
716 4 2 1 1 96 104 103 167
717 4 2 1 1 96 166 159 167
718 4 2 1 1 96 103 166 167
719 4 2 1 1 97 98 105 168
720 4 2 1 1 97 98 168 161
721 4 2 1 1 97 161 168 160
722 4 2 1 1 97 105 104 168
723 4 2 1 1 97 167 160 168
724 4 2 1 1 97 104 167 168
725 4 2 1 1 99 100 107 170
726 4 2 1 1 99 100 170 163
727 4 2 1 1 99 163 170 162
728 4 2 1 1 99 107 106 170
729 4 2 1 1 99 169 162 170
730 4 2 1 1 99 106 169 170
731 4 2 1 1 100 101 108 171
732 4 2 1 1 100 101 171 164
733 4 2 1 1 100 164 171 163
734 4 2 1 1 100 108 107 171
735 4 2 1 1 100 170 163 171
736 4 2 1 1 100 107 170 171
737 4 2 1 1 101 102 109 172
738 4 2 1 1 101 102 172 165
739 4 2 1 1 101 165 172 164
740 4 2 1 1 101 109 108 172
741 4 2 1 1 101 171 164 172
742 4 2 1 1 101 108 171 172
743 4 2 1 1 102 103 110 173
744 4 2 1 1 102 103 173 166
745 4 2 1 1 102 166 173 165
746 4 2 1 1 102 110 109 173
747 4 2 1 1 102 172 165 173
748 4 2 1 1 102 109 172 173
749 4 2 1 1 103 104 111 174
750 4 2 1 1 103 104 174 167
751 4 2 1 1 103 167 174 166
752 4 2 1 1 103 111 110 174
753 4 2 1 1 103 173 166 174
754 4 2 1 1 103 110 173 174
755 4 2 1 1 104 105 112 175
756 4 2 1 1 104 105 175 168
757 4 2 1 1 104 168 175 167
758 4 2 1 1 104 112 111 175
759 4 2 1 1 104 174 167 175
760 4 2 1 1 104 111 174 175
761 4 2 1 1 106 107 114 177
762 4 2 1 1 106 107 177 170
763 4 2 1 1 106 170 177 169
764 4 2 1 1 106 114 113 177
765 4 2 1 1 106 176 169 177
766 4 2 1 1 106 113 176 177
767 4 2 1 1 107 108 115 178
768 4 2 1 1 107 108 178 171
769 4 2 1 1 107 171 178 170
770 4 2 1 1 107 115 114 178
771 4 2 1 1 107 177 170 178
772 4 2 1 1 107 114 177 178
773 4 2 1 1 108 109 116 179
774 4 2 1 1 108 109 179 172
775 4 2 1 1 108 172 179 171
776 4 2 1 1 108 116 115 179
777 4 2 1 1 108 178 171 179
778 4 2 1 1 108 115 178 179
779 4 2 1 1 109 110 117 180
780 4 2 1 1 109 110 180 173
781 4 2 1 1 109 173 180 172
782 4 2 1 1 109 117 116 180
783 4 2 1 1 109 179 172 180
784 4 2 1 1 109 116 179 180
785 4 2 1 1 110 111 118 181
786 4 2 1 1 110 111 181 174
787 4 2 1 1 110 174 181 173
788 4 2 1 1 110 118 117 181
789 4 2 1 1 110 180 173 181
790 4 2 1 1 110 117 180 181
791 4 2 1 1 111 112 119 182
792 4 2 1 1 111 112 182 175
793 4 2 1 1 111 175 182 174
794 4 2 1 1 111 119 118 182
795 4 2 1 1 111 181 174 182
796 4 2 1 1 111 118 181 182
797 4 2 1 1 113 114 121 184
798 4 2 1 1 113 114 184 177
799 4 2 1 1 113 177 184 176
800 4 2 1 1 113 121 120 184
801 4 2 1 1 113 183 176 184
802 4 2 1 1 113 120 183 184
803 4 2 1 1 114 115 122 185
804 4 2 1 1 114 115 185 178
805 4 2 1 1 114 178 185 177
806 4 2 1 1 114 122 121 185
807 4 2 1 1 114 184 177 185
808 4 2 1 1 114 121 184 185
809 4 2 1 1 115 116 123 186
810 4 2 1 1 115 116 186 179
811 4 2 1 1 115 179 186 178
812 4 2 1 1 115 123 122 186
813 4 2 1 1 115 185 178 186
814 4 2 1 1 115 122 185 186
815 4 2 1 1 116 117 124 187
816 4 2 1 1 116 117 187 180
817 4 2 1 1 116 180 187 179
818 4 2 1 1 116 124 123 187
819 4 2 1 1 116 186 179 187
820 4 2 1 1 116 123 186 187
821 4 2 1 1 117 118 125 188
822 4 2 1 1 117 118 188 181
823 4 2 1 1 117 181 188 180
824 4 2 1 1 117 125 124 188
825 4 2 1 1 117 187 180 188
826 4 2 1 1 117 124 187 188
827 4 2 1 1 118 119 126 189
828 4 2 1 1 118 119 189 182
829 4 2 1 1 118 182 189 181
830 4 2 1 1 118 126 125 189
831 4 2 1 1 118 188 181 189
832 4 2 1 1 118 125 188 189
833 4 2 1 1 127 128 135 198
834 4 2 1 1 127 128 198 191
835 4 2 1 1 127 191 198 190
836 4 2 1 1 127 135 134 198
837 4 2 1 1 127 197 190 198
838 4 2 1 1 127 134 197 198
839 4 2 1 1 128 129 136 199
840 4 2 1 1 128 129 199 192
841 4 2 1 1 128 192 199 191
842 4 2 1 1 128 136 135 199
843 4 2 1 1 128 198 191 199
844 4 2 1 1 128 135 198 199
845 4 2 1 1 129 130 137 200
846 4 2 1 1 129 130 200 193
847 4 2 1 1 129 193 200 192
848 4 2 1 1 129 137 136 200
849 4 2 1 1 129 199 192 200
850 4 2 1 1 129 136 199 200
851 4 2 1 1 130 131 138 201
852 4 2 1 1 130 131 201 194
853 4 2 1 1 130 194 201 193
854 4 2 1 1 130 138 137 201
855 4 2 1 1 130 200 193 201
856 4 2 1 1 130 137 200 201
857 4 2 1 1 131 132 139 202
858 4 2 1 1 131 132 202 195
859 4 2 1 1 131 195 202 194
860 4 2 1 1 131 139 138 202
861 4 2 1 1 131 201 194 202
862 4 2 1 1 131 138 201 202
863 4 2 1 1 132 133 140 203
864 4 2 1 1 132 133 203 196
865 4 2 1 1 132 196 203 195
866 4 2 1 1 132 140 139 203
867 4 2 1 1 132 202 195 203
868 4 2 1 1 132 139 202 203
869 4 2 1 1 134 135 142 205
870 4 2 1 1 134 135 205 198
871 4 2 1 1 134 198 205 197
872 4 2 1 1 134 142 141 205
873 4 2 1 1 134 204 197 205
874 4 2 1 1 134 141 204 205
875 4 2 1 1 135 136 143 206
876 4 2 1 1 135 136 206 199
877 4 2 1 1 135 199 206 198
878 4 2 1 1 135 143 142 206
879 4 2 1 1 135 205 198 206
880 4 2 1 1 135 142 205 206
881 4 2 1 1 136 137 144 207
882 4 2 1 1 136 137 207 200
883 4 2 1 1 136 200 207 199
884 4 2 1 1 136 144 143 207
885 4 2 1 1 136 206 199 207
886 4 2 1 1 136 143 206 207
887 4 2 1 1 137 138 145 208
888 4 2 1 1 137 138 208 201
889 4 2 1 1 137 201 208 200
890 4 2 1 1 137 145 144 208
891 4 2 1 1 137 207 200 208
892 4 2 1 1 137 144 207 208
893 4 2 1 1 138 139 146 209
894 4 2 1 1 138 139 209 202
895 4 2 1 1 138 202 209 201
896 4 2 1 1 138 146 145 209
897 4 2 1 1 138 208 201 209
898 4 2 1 1 138 145 208 209
899 4 2 1 1 139 140 147 210
900 4 2 1 1 139 140 210 203
901 4 2 1 1 139 203 210 202
902 4 2 1 1 139 147 146 210
903 4 2 1 1 139 209 202 210
904 4 2 1 1 139 146 209 210
905 4 2 1 1 141 142 149 212
906 4 2 1 1 141 142 212 205
907 4 2 1 1 141 205 212 204
908 4 2 1 1 141 149 148 212
909 4 2 1 1 141 211 204 212
910 4 2 1 1 141 148 211 212
911 4 2 1 1 142 143 150 213
912 4 2 1 1 142 143 213 206
913 4 2 1 1 142 206 213 205
914 4 2 1 1 142 150 149 213
915 4 2 1 1 142 212 205 213
916 4 2 1 1 142 149 212 213
917 4 2 1 1 143 144 151 214
918 4 2 1 1 143 144 214 207
919 4 2 1 1 143 207 214 206
920 4 2 1 1 143 151 150 214
921 4 2 1 1 143 213 206 214
922 4 2 1 1 143 150 213 214
923 4 2 1 1 144 145 152 215
924 4 2 1 1 144 145 215 208
925 4 2 1 1 144 208 215 207
926 4 2 1 1 144 152 151 215
927 4 2 1 1 144 214 207 215
928 4 2 1 1 144 151 214 215
929 4 2 1 1 145 146 153 216
930 4 2 1 1 145 146 216 209
931 4 2 1 1 145 209 216 208
932 4 2 1 1 145 153 152 216
933 4 2 1 1 145 215 208 216
934 4 2 1 1 145 152 215 216
935 4 2 1 1 146 147 154 217
936 4 2 1 1 146 147 217 210
937 4 2 1 1 146 210 217 209
938 4 2 1 1 146 154 153 217
939 4 2 1 1 146 216 209 217
940 4 2 1 1 146 153 216 217
941 4 2 1 1 148 149 156 219
942 4 2 1 1 148 149 219 212
943 4 2 1 1 148 212 219 211
944 4 2 1 1 148 156 155 219
945 4 2 1 1 148 218 211 219
946 4 2 1 1 148 155 218 219
947 4 2 1 1 149 150 157 220
948 4 2 1 1 149 150 220 213
949 4 2 1 1 149 213 220 212
950 4 2 1 1 149 157 156 220
951 4 2 1 1 149 219 212 220
952 4 2 1 1 149 156 219 220
953 4 2 1 1 150 151 158 221
954 4 2 1 1 150 151 221 214
955 4 2 1 1 150 214 221 213
956 4 2 1 1 150 158 157 221
957 4 2 1 1 150 220 213 221
958 4 2 1 1 150 157 220 221
959 4 2 1 1 151 152 159 222
960 4 2 1 1 151 152 222 215
961 4 2 1 1 151 215 222 214
962 4 2 1 1 151 159 158 222
963 4 2 1 1 151 221 214 222
964 4 2 1 1 151 158 221 222
965 4 2 1 1 152 153 160 223
966 4 2 1 1 152 153 223 216
967 4 2 1 1 152 216 223 215
968 4 2 1 1 152 160 159 223
969 4 2 1 1 152 222 215 223
970 4 2 1 1 152 159 222 223
971 4 2 1 1 153 154 161 224
972 4 2 1 1 153 154 224 217
973 4 2 1 1 153 217 224 216
974 4 2 1 1 153 161 160 224
975 4 2 1 1 153 223 216 224
976 4 2 1 1 153 160 223 224
977 4 2 1 1 155 156 163 226
978 4 2 1 1 155 156 226 219
979 4 2 1 1 155 219 226 218
980 4 2 1 1 155 163 162 226
981 4 2 1 1 155 225 218 226
982 4 2 1 1 155 162 225 226
983 4 2 1 1 156 157 164 227
984 4 2 1 1 156 157 227 220
985 4 2 1 1 156 220 227 219
986 4 2 1 1 156 164 163 227
987 4 2 1 1 156 226 219 227
988 4 2 1 1 156 163 226 227
989 4 2 1 1 157 158 165 228
990 4 2 1 1 157 158 228 221
991 4 2 1 1 157 221 228 220
992 4 2 1 1 157 165 164 228
993 4 2 1 1 157 227 220 228
994 4 2 1 1 157 164 227 228
995 4 2 1 1 158 159 166 229
996 4 2 1 1 158 159 229 222
997 4 2 1 1 158 222 229 221
998 4 2 1 1 158 166 165 229
999 4 2 1 1 158 228 221 229
1000 4 2 1 1 158 165 228 229
1001 4 2 1 1 159 160 167 230
1002 4 2 1 1 159 160 230 223
1003 4 2 1 1 159 223 230 222
1004 4 2 1 1 159 167 166 230
1005 4 2 1 1 159 229 222 230
1006 4 2 1 1 159 166 229 230
1007 4 2 1 1 160 161 168 231
1008 4 2 1 1 160 161 231 224
1009 4 2 1 1 160 224 231 223
1010 4 2 1 1 160 168 167 231
1011 4 2 1 1 160 230 223 231
1012 4 2 1 1 160 167 230 231
1013 4 2 1 1 162 163 170 233
1014 4 2 1 1 162 163 233 226
1015 4 2 1 1 162 226 233 225
1016 4 2 1 1 162 170 169 233
1017 4 2 1 1 162 232 225 233
1018 4 2 1 1 162 169 232 233
1019 4 2 1 1 163 164 171 234
1020 4 2 1 1 163 164 234 227
1021 4 2 1 1 163 227 234 226
1022 4 2 1 1 163 171 170 234
1023 4 2 1 1 163 233 226 234
1024 4 2 1 1 163 170 233 234
1025 4 2 1 1 164 165 172 235
1026 4 2 1 1 164 165 235 228
1027 4 2 1 1 164 228 235 227
1028 4 2 1 1 164 172 171 235
1029 4 2 1 1 164 234 227 235
1030 4 2 1 1 164 171 234 235
1031 4 2 1 1 165 166 173 236
1032 4 2 1 1 165 166 236 229
1033 4 2 1 1 165 229 236 228
1034 4 2 1 1 165 173 172 236
1035 4 2 1 1 165 235 228 236
1036 4 2 1 1 165 172 235 236
1037 4 2 1 1 166 167 174 237
1038 4 2 1 1 166 167 237 230
1039 4 2 1 1 166 230 237 229
1040 4 2 1 1 166 174 173 237
1041 4 2 1 1 166 236 229 237
1042 4 2 1 1 166 173 236 237
1043 4 2 1 1 167 168 175 238
1044 4 2 1 1 167 168 238 231
1045 4 2 1 1 167 231 238 230
1046 4 2 1 1 167 175 174 238
1047 4 2 1 1 167 237 230 238
1048 4 2 1 1 167 174 237 238
1049 4 2 1 1 169 170 177 240
1050 4 2 1 1 169 170 240 233
1051 4 2 1 1 169 233 240 232
1052 4 2 1 1 169 177 176 240
1053 4 2 1 1 169 239 232 240
1054 4 2 1 1 169 176 239 240
1055 4 2 1 1 170 171 178 241
1056 4 2 1 1 170 171 241 234
1057 4 2 1 1 170 234 241 233
1058 4 2 1 1 170 178 177 241
1059 4 2 1 1 170 240 233 241
1060 4 2 1 1 170 177 240 241
1061 4 2 1 1 171 172 179 242
1062 4 2 1 1 171 172 242 235
1063 4 2 1 1 171 235 242 234
1064 4 2 1 1 171 179 178 242
1065 4 2 1 1 171 241 234 242
1066 4 2 1 1 171 178 241 242
1067 4 2 1 1 172 173 180 243
1068 4 2 1 1 172 173 243 236
1069 4 2 1 1 172 236 243 235
1070 4 2 1 1 172 180 179 243
1071 4 2 1 1 172 242 235 243
1072 4 2 1 1 172 179 242 243
1073 4 2 1 1 173 174 181 244
1074 4 2 1 1 173 174 244 237
1075 4 2 1 1 173 237 244 236
1076 4 2 1 1 173 181 180 244
1077 4 2 1 1 173 243 236 244
1078 4 2 1 1 173 180 243 244
1079 4 2 1 1 174 175 182 245
1080 4 2 1 1 174 175 245 238
1081 4 2 1 1 174 238 245 237
1082 4 2 1 1 174 182 181 245
1083 4 2 1 1 174 244 237 245
1084 4 2 1 1 174 181 244 245
1085 4 2 1 1 176 177 184 247
1086 4 2 1 1 176 177 247 240
1087 4 2 1 1 176 240 247 239
1088 4 2 1 1 176 184 183 247
1089 4 2 1 1 176 246 239 247
1090 4 2 1 1 176 183 246 247
1091 4 2 1 1 177 178 185 248
1092 4 2 1 1 177 178 248 241
1093 4 2 1 1 177 241 248 240
1094 4 2 1 1 177 185 184 248
1095 4 2 1 1 177 247 240 248
1096 4 2 1 1 177 184 247 248
1097 4 2 1 1 178 179 186 249
1098 4 2 1 1 178 179 249 242
1099 4 2 1 1 178 242 249 241
1100 4 2 1 1 178 186 185 249
1101 4 2 1 1 178 248 241 249
1102 4 2 1 1 178 185 248 249
1103 4 2 1 1 179 180 187 250
1104 4 2 1 1 179 180 250 243
1105 4 2 1 1 179 243 250 242
1106 4 2 1 1 179 187 186 250
1107 4 2 1 1 179 249 242 250
1108 4 2 1 1 179 186 249 250
1109 4 2 1 1 180 181 188 251
1110 4 2 1 1 180 181 251 244
1111 4 2 1 1 180 244 251 243
1112 4 2 1 1 180 188 187 251
1113 4 2 1 1 180 250 243 251
1114 4 2 1 1 180 187 250 251
1115 4 2 1 1 181 182 189 252
1116 4 2 1 1 181 182 252 245
1117 4 2 1 1 181 245 252 244
1118 4 2 1 1 181 189 188 252
1119 4 2 1 1 181 251 244 252
1120 4 2 1 1 181 188 251 252
1121 4 2 1 1 190 191 198 261
1122 4 2 1 1 190 191 261 254
1123 4 2 1 1 190 254 261 253
1124 4 2 1 1 190 198 197 261
1125 4 2 1 1 190 260 253 261
1126 4 2 1 1 190 197 260 261
1127 4 2 1 1 191 192 199 262
1128 4 2 1 1 191 192 262 255
1129 4 2 1 1 191 255 262 254
1130 4 2 1 1 191 199 198 262
1131 4 2 1 1 191 261 254 262
1132 4 2 1 1 191 198 261 262
1133 4 2 1 1 192 193 200 263
1134 4 2 1 1 192 193 263 256
1135 4 2 1 1 192 256 263 255
1136 4 2 1 1 192 200 199 263
1137 4 2 1 1 192 262 255 263
1138 4 2 1 1 192 199 262 263
1139 4 2 1 1 193 194 201 264
1140 4 2 1 1 193 194 264 257
1141 4 2 1 1 193 257 264 256
1142 4 2 1 1 193 201 200 264
1143 4 2 1 1 193 263 256 264
1144 4 2 1 1 193 200 263 264
1145 4 2 1 1 194 195 202 265
1146 4 2 1 1 194 195 265 258
1147 4 2 1 1 194 258 265 257
1148 4 2 1 1 194 202 201 265
1149 4 2 1 1 194 264 257 265
1150 4 2 1 1 194 201 264 265
1151 4 2 1 1 195 196 203 266
1152 4 2 1 1 195 196 266 259
1153 4 2 1 1 195 259 266 258
1154 4 2 1 1 195 203 202 266
1155 4 2 1 1 195 265 258 266
1156 4 2 1 1 195 202 265 266
1157 4 2 1 1 197 198 205 268
1158 4 2 1 1 197 198 268 261
1159 4 2 1 1 197 261 268 260
1160 4 2 1 1 197 205 204 268
1161 4 2 1 1 197 267 260 268
1162 4 2 1 1 197 204 267 268
1163 4 2 1 1 198 199 206 269
1164 4 2 1 1 198 199 269 262
1165 4 2 1 1 198 262 269 261
1166 4 2 1 1 198 206 205 269
1167 4 2 1 1 198 268 261 269
1168 4 2 1 1 198 205 268 269
1169 4 2 1 1 199 200 207 270
1170 4 2 1 1 199 200 270 263
1171 4 2 1 1 199 263 270 262
1172 4 2 1 1 199 207 206 270
1173 4 2 1 1 199 269 262 270
1174 4 2 1 1 199 206 269 270
1175 4 2 1 1 200 201 208 271
1176 4 2 1 1 200 201 271 264
1177 4 2 1 1 200 264 271 263
1178 4 2 1 1 200 208 207 271
1179 4 2 1 1 200 270 263 271
1180 4 2 1 1 200 207 270 271
1181 4 2 1 1 201 202 209 272
1182 4 2 1 1 201 202 272 265
1183 4 2 1 1 201 265 272 264
1184 4 2 1 1 201 209 208 272
1185 4 2 1 1 201 271 264 272
1186 4 2 1 1 201 208 271 272
1187 4 2 1 1 202 203 210 273
1188 4 2 1 1 202 203 273 266
1189 4 2 1 1 202 266 273 265
1190 4 2 1 1 202 210 209 273
1191 4 2 1 1 202 272 265 273
1192 4 2 1 1 202 209 272 273
1193 4 2 1 1 204 205 212 275
1194 4 2 1 1 204 205 275 268
1195 4 2 1 1 204 268 275 267
1196 4 2 1 1 204 212 211 275
1197 4 2 1 1 204 274 267 275
1198 4 2 1 1 204 211 274 275
1199 4 2 1 1 205 206 213 276
1200 4 2 1 1 205 206 276 269
1201 4 2 1 1 205 269 276 268
1202 4 2 1 1 205 213 212 276
1203 4 2 1 1 205 275 268 276
1204 4 2 1 1 205 212 275 276
1205 4 2 1 1 206 207 214 277
1206 4 2 1 1 206 207 277 270
1207 4 2 1 1 206 270 277 269
1208 4 2 1 1 206 214 213 277
1209 4 2 1 1 206 276 269 277
1210 4 2 1 1 206 213 276 277
1211 4 2 1 1 207 208 215 278
1212 4 2 1 1 207 208 278 271
1213 4 2 1 1 207 271 278 270
1214 4 2 1 1 207 215 214 278
1215 4 2 1 1 207 277 270 278
1216 4 2 1 1 207 214 277 278
1217 4 2 1 1 208 209 216 279
1218 4 2 1 1 208 209 279 272
1219 4 2 1 1 208 272 279 271
1220 4 2 1 1 208 216 215 279
1221 4 2 1 1 208 278 271 279
1222 4 2 1 1 208 215 278 279
1223 4 2 1 1 209 210 217 280
1224 4 2 1 1 209 210 280 273
1225 4 2 1 1 209 273 280 272
1226 4 2 1 1 209 217 216 280
1227 4 2 1 1 209 279 272 280
1228 4 2 1 1 209 216 279 280
1229 4 2 1 1 211 212 219 282
1230 4 2 1 1 211 212 282 275
1231 4 2 1 1 211 275 282 274
1232 4 2 1 1 211 219 218 282
1233 4 2 1 1 211 281 274 282
1234 4 2 1 1 211 218 281 282
1235 4 2 1 1 212 213 220 283
1236 4 2 1 1 212 213 283 276
1237 4 2 1 1 212 276 283 275
1238 4 2 1 1 212 220 219 283
1239 4 2 1 1 212 282 275 283
1240 4 2 1 1 212 219 282 283
1241 4 2 1 1 213 214 221 284
1242 4 2 1 1 213 214 284 277
1243 4 2 1 1 213 277 284 276
1244 4 2 1 1 213 221 220 284
1245 4 2 1 1 213 283 276 284
1246 4 2 1 1 213 220 283 284
1247 4 2 1 1 214 215 222 285
1248 4 2 1 1 214 215 285 278
1249 4 2 1 1 214 278 285 277
1250 4 2 1 1 214 222 221 285
1251 4 2 1 1 214 284 277 285
1252 4 2 1 1 214 221 284 285
1253 4 2 1 1 215 216 223 286
1254 4 2 1 1 215 216 286 279
1255 4 2 1 1 215 279 286 278
1256 4 2 1 1 215 223 222 286
1257 4 2 1 1 215 285 278 286
1258 4 2 1 1 215 222 285 286
1259 4 2 1 1 216 217 224 287
1260 4 2 1 1 216 217 287 280
1261 4 2 1 1 216 280 287 279
1262 4 2 1 1 216 224 223 287
1263 4 2 1 1 216 286 279 287
1264 4 2 1 1 216 223 286 287
1265 4 2 1 1 218 219 226 289
1266 4 2 1 1 218 219 289 282
1267 4 2 1 1 218 282 289 281
1268 4 2 1 1 218 226 225 289
1269 4 2 1 1 218 288 281 289
1270 4 2 1 1 218 225 288 289
1271 4 2 1 1 219 220 227 290
1272 4 2 1 1 219 220 290 283
1273 4 2 1 1 219 283 290 282
1274 4 2 1 1 219 227 226 290
1275 4 2 1 1 219 289 282 290
1276 4 2 1 1 219 226 289 290
1277 4 2 1 1 220 221 228 291
1278 4 2 1 1 220 221 291 284
1279 4 2 1 1 220 284 291 283
1280 4 2 1 1 220 228 227 291
1281 4 2 1 1 220 290 283 291
1282 4 2 1 1 220 227 290 291
1283 4 2 1 1 221 222 229 292
1284 4 2 1 1 221 222 292 285
1285 4 2 1 1 221 285 292 284
1286 4 2 1 1 221 229 228 292
1287 4 2 1 1 221 291 284 292
1288 4 2 1 1 221 228 291 292
1289 4 2 1 1 222 223 230 293
1290 4 2 1 1 222 223 293 286
1291 4 2 1 1 222 286 293 285
1292 4 2 1 1 222 230 229 293
1293 4 2 1 1 222 292 285 293
1294 4 2 1 1 222 229 292 293
1295 4 2 1 1 223 224 231 294
1296 4 2 1 1 223 224 294 287
1297 4 2 1 1 223 287 294 286
1298 4 2 1 1 223 231 230 294
1299 4 2 1 1 223 293 286 294
1300 4 2 1 1 223 230 293 294
1301 4 2 1 1 225 226 233 296
1302 4 2 1 1 225 226 296 289
1303 4 2 1 1 225 289 296 288
1304 4 2 1 1 225 233 232 296
1305 4 2 1 1 225 295 288 296
1306 4 2 1 1 225 232 295 296
1307 4 2 1 1 226 227 234 297
1308 4 2 1 1 226 227 297 290
1309 4 2 1 1 226 290 297 289
1310 4 2 1 1 226 234 233 297
1311 4 2 1 1 226 296 289 297
1312 4 2 1 1 226 233 296 297
1313 4 2 1 1 227 228 235 298
1314 4 2 1 1 227 228 298 291
1315 4 2 1 1 227 291 298 290
1316 4 2 1 1 227 235 234 298
1317 4 2 1 1 227 297 290 298
1318 4 2 1 1 227 234 297 298
1319 4 2 1 1 228 229 236 299
1320 4 2 1 1 228 229 299 292
1321 4 2 1 1 228 292 299 291
1322 4 2 1 1 228 236 235 299
1323 4 2 1 1 228 298 291 299
1324 4 2 1 1 228 235 298 299
1325 4 2 1 1 229 230 237 300
1326 4 2 1 1 229 230 300 293
1327 4 2 1 1 229 293 300 292
1328 4 2 1 1 229 237 236 300
1329 4 2 1 1 229 299 292 300
1330 4 2 1 1 229 236 299 300
1331 4 2 1 1 230 231 238 301
1332 4 2 1 1 230 231 301 294
1333 4 2 1 1 230 294 301 293
1334 4 2 1 1 230 238 237 301
1335 4 2 1 1 230 300 293 301
1336 4 2 1 1 230 237 300 301
1337 4 2 1 1 232 233 240 303
1338 4 2 1 1 232 233 303 296
1339 4 2 1 1 232 296 303 295
1340 4 2 1 1 232 240 239 303
1341 4 2 1 1 232 302 295 303
1342 4 2 1 1 232 239 302 303
1343 4 2 1 1 233 234 241 304
1344 4 2 1 1 233 234 304 297
1345 4 2 1 1 233 297 304 296
1346 4 2 1 1 233 241 240 304
1347 4 2 1 1 233 303 296 304
1348 4 2 1 1 233 240 303 304
1349 4 2 1 1 234 235 242 305
1350 4 2 1 1 234 235 305 298
1351 4 2 1 1 234 298 305 297
1352 4 2 1 1 234 242 241 305
1353 4 2 1 1 234 304 297 305
1354 4 2 1 1 234 241 304 305
1355 4 2 1 1 235 236 243 306
1356 4 2 1 1 235 236 306 299
1357 4 2 1 1 235 299 306 298
1358 4 2 1 1 235 243 242 306
1359 4 2 1 1 235 305 298 306
1360 4 2 1 1 235 242 305 306
1361 4 2 1 1 236 237 244 307
1362 4 2 1 1 236 237 307 300
1363 4 2 1 1 236 300 307 299
1364 4 2 1 1 236 244 243 307
1365 4 2 1 1 236 306 299 307
1366 4 2 1 1 236 243 306 307
1367 4 2 1 1 237 238 245 308
1368 4 2 1 1 237 238 308 301
1369 4 2 1 1 237 301 308 300
1370 4 2 1 1 237 245 244 308
1371 4 2 1 1 237 307 300 308
1372 4 2 1 1 237 244 307 308
1373 4 2 1 1 239 240 247 310
1374 4 2 1 1 239 240 310 303
1375 4 2 1 1 239 303 310 302
1376 4 2 1 1 239 247 246 310
1377 4 2 1 1 239 309 302 310
1378 4 2 1 1 239 246 309 310
1379 4 2 1 1 240 241 248 311
1380 4 2 1 1 240 241 311 304
1381 4 2 1 1 240 304 311 303
1382 4 2 1 1 240 248 247 311
1383 4 2 1 1 240 310 303 311
1384 4 2 1 1 240 247 310 311
1385 4 2 1 1 241 242 249 312
1386 4 2 1 1 241 242 312 305
1387 4 2 1 1 241 305 312 304
1388 4 2 1 1 241 249 248 312
1389 4 2 1 1 241 311 304 312
1390 4 2 1 1 241 248 311 312
1391 4 2 1 1 242 243 250 313
1392 4 2 1 1 242 243 313 306
1393 4 2 1 1 242 306 313 305
1394 4 2 1 1 242 250 249 313
1395 4 2 1 1 242 312 305 313
1396 4 2 1 1 242 249 312 313
1397 4 2 1 1 243 244 251 314
1398 4 2 1 1 243 244 314 307
1399 4 2 1 1 243 307 314 306
1400 4 2 1 1 243 251 250 314
1401 4 2 1 1 243 313 306 314
1402 4 2 1 1 243 250 313 314
1403 4 2 1 1 244 245 252 315
1404 4 2 1 1 244 245 315 308
1405 4 2 1 1 244 308 315 307
1406 4 2 1 1 244 252 251 315
1407 4 2 1 1 244 314 307 315
1408 4 2 1 1 244 251 314 315
1409 4 2 1 1 253 254 261 324
1410 4 2 1 1 253 254 324 317
1411 4 2 1 1 253 317 324 316
1412 4 2 1 1 253 261 260 324
1413 4 2 1 1 253 323 316 324
1414 4 2 1 1 253 260 323 324
1415 4 2 1 1 254 255 262 325
1416 4 2 1 1 254 255 325 318
1417 4 2 1 1 254 318 325 317
1418 4 2 1 1 254 262 261 325
1419 4 2 1 1 254 324 317 325
1420 4 2 1 1 254 261 324 325
1421 4 2 1 1 255 256 263 326
1422 4 2 1 1 255 256 326 319
1423 4 2 1 1 255 319 326 318
1424 4 2 1 1 255 263 262 326
1425 4 2 1 1 255 325 318 326
1426 4 2 1 1 255 262 325 326
1427 4 2 1 1 256 257 264 327
1428 4 2 1 1 256 257 327 320
1429 4 2 1 1 256 320 327 319
1430 4 2 1 1 256 264 263 327
1431 4 2 1 1 256 326 319 327
1432 4 2 1 1 256 263 326 327
1433 4 2 1 1 257 258 265 328
1434 4 2 1 1 257 258 328 321
1435 4 2 1 1 257 321 328 320
1436 4 2 1 1 257 265 264 328
1437 4 2 1 1 257 327 320 328
1438 4 2 1 1 257 264 327 328
1439 4 2 1 1 258 259 266 329
1440 4 2 1 1 258 259 329 322
1441 4 2 1 1 258 322 329 321
1442 4 2 1 1 258 266 265 329
1443 4 2 1 1 258 328 321 329
1444 4 2 1 1 258 265 328 329
1445 4 2 1 1 260 261 268 331
1446 4 2 1 1 260 261 331 324
1447 4 2 1 1 260 324 331 323
1448 4 2 1 1 260 268 267 331
1449 4 2 1 1 260 330 323 331
1450 4 2 1 1 260 267 330 331
1451 4 2 1 1 261 262 269 332
1452 4 2 1 1 261 262 332 325
1453 4 2 1 1 261 325 332 324
1454 4 2 1 1 261 269 268 332
1455 4 2 1 1 261 331 324 332
1456 4 2 1 1 261 268 331 332
1457 4 2 1 1 262 263 270 333
1458 4 2 1 1 262 263 333 326
1459 4 2 1 1 262 326 333 325
1460 4 2 1 1 262 270 269 333
1461 4 2 1 1 262 332 325 333
1462 4 2 1 1 262 269 332 333
1463 4 2 1 1 263 264 271 334
1464 4 2 1 1 263 264 334 327
1465 4 2 1 1 263 327 334 326
1466 4 2 1 1 263 271 270 334
1467 4 2 1 1 263 333 326 334
1468 4 2 1 1 263 270 333 334
1469 4 2 1 1 264 265 272 335
1470 4 2 1 1 264 265 335 328
1471 4 2 1 1 264 328 335 327
1472 4 2 1 1 264 272 271 335
1473 4 2 1 1 264 334 327 335
1474 4 2 1 1 264 271 334 335
1475 4 2 1 1 265 266 273 336
1476 4 2 1 1 265 266 336 329
1477 4 2 1 1 265 329 336 328
1478 4 2 1 1 265 273 272 336
1479 4 2 1 1 265 335 328 336
1480 4 2 1 1 265 272 335 336
1481 4 2 1 1 267 268 275 338
1482 4 2 1 1 267 268 338 331
1483 4 2 1 1 267 331 338 330
1484 4 2 1 1 267 275 274 338
1485 4 2 1 1 267 337 330 338
1486 4 2 1 1 267 274 337 338
1487 4 2 1 1 268 269 276 339
1488 4 2 1 1 268 269 339 332
1489 4 2 1 1 268 332 339 331
1490 4 2 1 1 268 276 275 339
1491 4 2 1 1 268 338 331 339
1492 4 2 1 1 268 275 338 339
1493 4 2 1 1 269 270 277 340
1494 4 2 1 1 269 270 340 333
1495 4 2 1 1 269 333 340 332
1496 4 2 1 1 269 277 276 340
1497 4 2 1 1 269 339 332 340
1498 4 2 1 1 269 276 339 340
1499 4 2 1 1 270 271 278 341
1500 4 2 1 1 270 271 341 334
1501 4 2 1 1 270 334 341 333
1502 4 2 1 1 270 278 277 341
1503 4 2 1 1 270 340 333 341
1504 4 2 1 1 270 277 340 341
1505 4 2 1 1 271 272 279 342
1506 4 2 1 1 271 272 342 335
1507 4 2 1 1 271 335 342 334
1508 4 2 1 1 271 279 278 342
1509 4 2 1 1 271 341 334 342
1510 4 2 1 1 271 278 341 342
1511 4 2 1 1 272 273 280 343
1512 4 2 1 1 272 273 343 336
1513 4 2 1 1 272 336 343 335
1514 4 2 1 1 272 280 279 343
1515 4 2 1 1 272 342 335 343
1516 4 2 1 1 272 279 342 343
1517 4 2 1 1 274 275 282 345
1518 4 2 1 1 274 275 345 338
1519 4 2 1 1 274 338 345 337
1520 4 2 1 1 274 282 281 345
1521 4 2 1 1 274 344 337 345
1522 4 2 1 1 274 281 344 345
1523 4 2 1 1 275 276 283 346
1524 4 2 1 1 275 276 346 339
1525 4 2 1 1 275 339 346 338
1526 4 2 1 1 275 283 282 346
1527 4 2 1 1 275 345 338 346
1528 4 2 1 1 275 282 345 346
1529 4 2 1 1 276 277 284 347
1530 4 2 1 1 276 277 347 340
1531 4 2 1 1 276 340 347 339
1532 4 2 1 1 276 284 283 347
1533 4 2 1 1 276 346 339 347
1534 4 2 1 1 276 283 346 347
1535 4 2 1 1 277 278 285 348
1536 4 2 1 1 277 278 348 341
1537 4 2 1 1 277 341 348 340
1538 4 2 1 1 277 285 284 348
1539 4 2 1 1 277 347 340 348
1540 4 2 1 1 277 284 347 348
1541 4 2 1 1 278 279 286 349
1542 4 2 1 1 278 279 349 342
1543 4 2 1 1 278 342 349 341
1544 4 2 1 1 278 286 285 349
1545 4 2 1 1 278 348 341 349
1546 4 2 1 1 278 285 348 349
1547 4 2 1 1 279 280 287 350
1548 4 2 1 1 279 280 350 343
1549 4 2 1 1 279 343 350 342
1550 4 2 1 1 279 287 286 350
1551 4 2 1 1 279 349 342 350
1552 4 2 1 1 279 286 349 350
1553 4 2 1 1 281 282 289 352
1554 4 2 1 1 281 282 352 345
1555 4 2 1 1 281 345 352 344
1556 4 2 1 1 281 289 288 352
1557 4 2 1 1 281 351 344 352
1558 4 2 1 1 281 288 351 352
1559 4 2 1 1 282 283 290 353
1560 4 2 1 1 282 283 353 346
1561 4 2 1 1 282 346 353 345
1562 4 2 1 1 282 290 289 353
1563 4 2 1 1 282 352 345 353
1564 4 2 1 1 282 289 352 353
1565 4 2 1 1 283 284 291 354
1566 4 2 1 1 283 284 354 347
1567 4 2 1 1 283 347 354 346
1568 4 2 1 1 283 291 290 354
1569 4 2 1 1 283 353 346 354
1570 4 2 1 1 283 290 353 354
1571 4 2 1 1 284 285 292 355
1572 4 2 1 1 284 285 355 348
1573 4 2 1 1 284 348 355 347
1574 4 2 1 1 284 292 291 355
1575 4 2 1 1 284 354 347 355
1576 4 2 1 1 284 291 354 355
1577 4 2 1 1 285 286 293 356
1578 4 2 1 1 285 286 356 349
1579 4 2 1 1 285 349 356 348
1580 4 2 1 1 285 293 292 356
1581 4 2 1 1 285 355 348 356
1582 4 2 1 1 285 292 355 356
1583 4 2 1 1 286 287 294 357
1584 4 2 1 1 286 287 357 350
1585 4 2 1 1 286 350 357 349
1586 4 2 1 1 286 294 293 357
1587 4 2 1 1 286 356 349 357
1588 4 2 1 1 286 293 356 357
1589 4 2 1 1 288 289 296 359
1590 4 2 1 1 288 289 359 352
1591 4 2 1 1 288 352 359 351
1592 4 2 1 1 288 296 295 359
1593 4 2 1 1 288 358 351 359
1594 4 2 1 1 288 295 358 359
1595 4 2 1 1 289 290 297 360
1596 4 2 1 1 289 290 360 353
1597 4 2 1 1 289 353 360 352
1598 4 2 1 1 289 297 296 360
1599 4 2 1 1 289 359 352 360
1600 4 2 1 1 289 296 359 360
1601 4 2 1 1 290 291 298 361
1602 4 2 1 1 290 291 361 354
1603 4 2 1 1 290 354 361 353
1604 4 2 1 1 290 298 297 361
1605 4 2 1 1 290 360 353 361
1606 4 2 1 1 290 297 360 361
1607 4 2 1 1 291 292 299 362
1608 4 2 1 1 291 292 362 355
1609 4 2 1 1 291 355 362 354
1610 4 2 1 1 291 299 298 362
1611 4 2 1 1 291 361 354 362
1612 4 2 1 1 291 298 361 362
1613 4 2 1 1 292 293 300 363
1614 4 2 1 1 292 293 363 356
1615 4 2 1 1 292 356 363 355
1616 4 2 1 1 292 300 299 363
1617 4 2 1 1 292 362 355 363
1618 4 2 1 1 292 299 362 363
1619 4 2 1 1 293 294 301 364
1620 4 2 1 1 293 294 364 357
1621 4 2 1 1 293 357 364 356
1622 4 2 1 1 293 301 300 364
1623 4 2 1 1 293 363 356 364
1624 4 2 1 1 293 300 363 364
1625 4 2 1 1 295 296 303 366
1626 4 2 1 1 295 296 366 359
1627 4 2 1 1 295 359 366 358
1628 4 2 1 1 295 303 302 366
1629 4 2 1 1 295 365 358 366
1630 4 2 1 1 295 302 365 366
1631 4 2 1 1 296 297 304 367
1632 4 2 1 1 296 297 367 360
1633 4 2 1 1 296 360 367 359
1634 4 2 1 1 296 304 303 367
1635 4 2 1 1 296 366 359 367
1636 4 2 1 1 296 303 366 367
1637 4 2 1 1 297 298 305 368
1638 4 2 1 1 297 298 368 361
1639 4 2 1 1 297 361 368 360
1640 4 2 1 1 297 305 304 368
1641 4 2 1 1 297 367 360 368
1642 4 2 1 1 297 304 367 368
1643 4 2 1 1 298 299 306 369
1644 4 2 1 1 298 299 369 362
1645 4 2 1 1 298 362 369 361
1646 4 2 1 1 298 306 305 369
1647 4 2 1 1 298 368 361 369
1648 4 2 1 1 298 305 368 369
1649 4 2 1 1 299 300 307 370
1650 4 2 1 1 299 300 370 363
1651 4 2 1 1 299 363 370 362
1652 4 2 1 1 299 307 306 370
1653 4 2 1 1 299 369 362 370
1654 4 2 1 1 299 306 369 370
1655 4 2 1 1 300 301 308 371
1656 4 2 1 1 300 301 371 364
1657 4 2 1 1 300 364 371 363
1658 4 2 1 1 300 308 307 371
1659 4 2 1 1 300 370 363 371
1660 4 2 1 1 300 307 370 371
1661 4 2 1 1 302 303 310 373
1662 4 2 1 1 302 303 373 366
1663 4 2 1 1 302 366 373 365
1664 4 2 1 1 302 310 309 373
1665 4 2 1 1 302 372 365 373
1666 4 2 1 1 302 309 372 373
1667 4 2 1 1 303 304 311 374
1668 4 2 1 1 303 304 374 367
1669 4 2 1 1 303 367 374 366
1670 4 2 1 1 303 311 310 374
1671 4 2 1 1 303 373 366 374
1672 4 2 1 1 303 310 373 374
1673 4 2 1 1 304 305 312 375
1674 4 2 1 1 304 305 375 368
1675 4 2 1 1 304 368 375 367
1676 4 2 1 1 304 312 311 375
1677 4 2 1 1 304 374 367 375
1678 4 2 1 1 304 311 374 375
1679 4 2 1 1 305 306 313 376
1680 4 2 1 1 305 306 376 369
1681 4 2 1 1 305 369 376 368
1682 4 2 1 1 305 313 312 376
1683 4 2 1 1 305 375 368 376
1684 4 2 1 1 305 312 375 376
1685 4 2 1 1 306 307 314 377
1686 4 2 1 1 306 307 377 370
1687 4 2 1 1 306 370 377 369
1688 4 2 1 1 306 314 313 377
1689 4 2 1 1 306 376 369 377
1690 4 2 1 1 306 313 376 377
1691 4 2 1 1 307 308 315 378
1692 4 2 1 1 307 308 378 371
1693 4 2 1 1 307 371 378 370
1694 4 2 1 1 307 315 314 378
1695 4 2 1 1 307 377 370 378
1696 4 2 1 1 307 314 377 378
1697 4 2 1 1 316 317 324 387
1698 4 2 1 1 316 317 387 380
1699 4 2 1 1 316 380 387 379
1700 4 2 1 1 316 324 323 387
1701 4 2 1 1 316 386 379 387
1702 4 2 1 1 316 323 386 387
1703 4 2 1 1 317 318 325 388
1704 4 2 1 1 317 318 388 381
1705 4 2 1 1 317 381 388 380
1706 4 2 1 1 317 325 324 388
1707 4 2 1 1 317 387 380 388
1708 4 2 1 1 317 324 387 388
1709 4 2 1 1 318 319 326 389
1710 4 2 1 1 318 319 389 382
1711 4 2 1 1 318 382 389 381
1712 4 2 1 1 318 326 325 389
1713 4 2 1 1 318 388 381 389
1714 4 2 1 1 318 325 388 389
1715 4 2 1 1 319 320 327 390
1716 4 2 1 1 319 320 390 383
1717 4 2 1 1 319 383 390 382
1718 4 2 1 1 319 327 326 390
1719 4 2 1 1 319 389 382 390
1720 4 2 1 1 319 326 389 390
1721 4 2 1 1 320 321 328 391
1722 4 2 1 1 320 321 391 384
1723 4 2 1 1 320 384 391 383
1724 4 2 1 1 320 328 327 391
1725 4 2 1 1 320 390 383 391
1726 4 2 1 1 320 327 390 391
1727 4 2 1 1 321 322 329 392
1728 4 2 1 1 321 322 392 385
1729 4 2 1 1 321 385 392 384
1730 4 2 1 1 321 329 328 392
1731 4 2 1 1 321 391 384 392
1732 4 2 1 1 321 328 391 392
1733 4 2 1 1 323 324 331 394
1734 4 2 1 1 323 324 394 387
1735 4 2 1 1 323 387 394 386
1736 4 2 1 1 323 331 330 394
1737 4 2 1 1 323 393 386 394
1738 4 2 1 1 323 330 393 394
1739 4 2 1 1 324 325 332 395
1740 4 2 1 1 324 325 395 388
1741 4 2 1 1 324 388 395 387
1742 4 2 1 1 324 332 331 395
1743 4 2 1 1 324 394 387 395
1744 4 2 1 1 324 331 394 395
1745 4 2 1 1 325 326 333 396
1746 4 2 1 1 325 326 396 389
1747 4 2 1 1 325 389 396 388
1748 4 2 1 1 325 333 332 396
1749 4 2 1 1 325 395 388 396
1750 4 2 1 1 325 332 395 396
1751 4 2 1 1 326 327 334 397
1752 4 2 1 1 326 327 397 390
1753 4 2 1 1 326 390 397 389
1754 4 2 1 1 326 334 333 397
1755 4 2 1 1 326 396 389 397
1756 4 2 1 1 326 333 396 397
1757 4 2 1 1 327 328 335 398
1758 4 2 1 1 327 328 398 391
1759 4 2 1 1 327 391 398 390
1760 4 2 1 1 327 335 334 398
1761 4 2 1 1 327 397 390 398
1762 4 2 1 1 327 334 397 398
1763 4 2 1 1 328 329 336 399
1764 4 2 1 1 328 329 399 392
1765 4 2 1 1 328 392 399 391
1766 4 2 1 1 328 336 335 399
1767 4 2 1 1 328 398 391 399
1768 4 2 1 1 328 335 398 399
1769 4 2 1 1 330 331 338 401
1770 4 2 1 1 330 331 401 394
1771 4 2 1 1 330 394 401 393
1772 4 2 1 1 330 338 337 401
1773 4 2 1 1 330 400 393 401
1774 4 2 1 1 330 337 400 401
1775 4 2 1 1 331 332 339 402
1776 4 2 1 1 331 332 402 395
1777 4 2 1 1 331 395 402 394
1778 4 2 1 1 331 339 338 402
1779 4 2 1 1 331 401 394 402
1780 4 2 1 1 331 338 401 402
1781 4 2 1 1 332 333 340 403
1782 4 2 1 1 332 333 403 396
1783 4 2 1 1 332 396 403 395
1784 4 2 1 1 332 340 339 403
1785 4 2 1 1 332 402 395 403
1786 4 2 1 1 332 339 402 403
1787 4 2 1 1 333 334 341 404
1788 4 2 1 1 333 334 404 397
1789 4 2 1 1 333 397 404 396
1790 4 2 1 1 333 341 340 404
1791 4 2 1 1 333 403 396 404
1792 4 2 1 1 333 340 403 404
1793 4 2 1 1 334 335 342 405
1794 4 2 1 1 334 335 405 398
1795 4 2 1 1 334 398 405 397
1796 4 2 1 1 334 342 341 405
1797 4 2 1 1 334 404 397 405
1798 4 2 1 1 334 341 404 405
1799 4 2 1 1 335 336 343 406
1800 4 2 1 1 335 336 406 399
1801 4 2 1 1 335 399 406 398
1802 4 2 1 1 335 343 342 406
1803 4 2 1 1 335 405 398 406
1804 4 2 1 1 335 342 405 406
1805 4 2 1 1 337 338 345 408
1806 4 2 1 1 337 338 408 401
1807 4 2 1 1 337 401 408 400
1808 4 2 1 1 337 345 344 408
1809 4 2 1 1 337 407 400 408
1810 4 2 1 1 337 344 407 408
1811 4 2 1 1 338 339 346 409
1812 4 2 1 1 338 339 409 402
1813 4 2 1 1 338 402 409 401
1814 4 2 1 1 338 346 345 409
1815 4 2 1 1 338 408 401 409
1816 4 2 1 1 338 345 408 409
1817 4 2 1 1 339 340 347 410
1818 4 2 1 1 339 340 410 403
1819 4 2 1 1 339 403 410 402
1820 4 2 1 1 339 347 346 410
1821 4 2 1 1 339 409 402 410
1822 4 2 1 1 339 346 409 410
1823 4 2 1 1 340 341 348 411
1824 4 2 1 1 340 341 411 404
1825 4 2 1 1 340 404 411 403
1826 4 2 1 1 340 348 347 411
1827 4 2 1 1 340 410 403 411
1828 4 2 1 1 340 347 410 411
1829 4 2 1 1 341 342 349 412
1830 4 2 1 1 341 342 412 405
1831 4 2 1 1 341 405 412 404
1832 4 2 1 1 341 349 348 412
1833 4 2 1 1 341 411 404 412
1834 4 2 1 1 341 348 411 412
1835 4 2 1 1 342 343 350 413
1836 4 2 1 1 342 343 413 406
1837 4 2 1 1 342 406 413 405
1838 4 2 1 1 342 350 349 413
1839 4 2 1 1 342 412 405 413
1840 4 2 1 1 342 349 412 413
1841 4 2 1 1 344 345 352 415
1842 4 2 1 1 344 345 415 408
1843 4 2 1 1 344 408 415 407
1844 4 2 1 1 344 352 351 415
1845 4 2 1 1 344 414 407 415
1846 4 2 1 1 344 351 414 415
1847 4 2 1 1 345 346 353 416
1848 4 2 1 1 345 346 416 409
1849 4 2 1 1 345 409 416 408
1850 4 2 1 1 345 353 352 416
1851 4 2 1 1 345 415 408 416
1852 4 2 1 1 345 352 415 416
1853 4 2 1 1 346 347 354 417
1854 4 2 1 1 346 347 417 410
1855 4 2 1 1 346 410 417 409
1856 4 2 1 1 346 354 353 417
1857 4 2 1 1 346 416 409 417
1858 4 2 1 1 346 353 416 417
1859 4 2 1 1 347 348 355 418
1860 4 2 1 1 347 348 418 411
1861 4 2 1 1 347 411 418 410
1862 4 2 1 1 347 355 354 418
1863 4 2 1 1 347 417 410 418
1864 4 2 1 1 347 354 417 418
1865 4 2 1 1 348 349 356 419
1866 4 2 1 1 348 349 419 412
1867 4 2 1 1 348 412 419 411
1868 4 2 1 1 348 356 355 419
1869 4 2 1 1 348 418 411 419
1870 4 2 1 1 348 355 418 419
1871 4 2 1 1 349 350 357 420
1872 4 2 1 1 349 350 420 413
1873 4 2 1 1 349 413 420 412
1874 4 2 1 1 349 357 356 420
1875 4 2 1 1 349 419 412 420
1876 4 2 1 1 349 356 419 420
1877 4 2 1 1 351 352 359 422
1878 4 2 1 1 351 352 422 415
1879 4 2 1 1 351 415 422 414
1880 4 2 1 1 351 359 358 422
1881 4 2 1 1 351 421 414 422
1882 4 2 1 1 351 358 421 422
1883 4 2 1 1 352 353 360 423
1884 4 2 1 1 352 353 423 416
1885 4 2 1 1 352 416 423 415
1886 4 2 1 1 352 360 359 423
1887 4 2 1 1 352 422 415 423
1888 4 2 1 1 352 359 422 423
1889 4 2 1 1 353 354 361 424
1890 4 2 1 1 353 354 424 417
1891 4 2 1 1 353 417 424 416
1892 4 2 1 1 353 361 360 424
1893 4 2 1 1 353 423 416 424
1894 4 2 1 1 353 360 423 424
1895 4 2 1 1 354 355 362 425
1896 4 2 1 1 354 355 425 418
1897 4 2 1 1 354 418 425 417
1898 4 2 1 1 354 362 361 425
1899 4 2 1 1 354 424 417 425
1900 4 2 1 1 354 361 424 425
1901 4 2 1 1 355 356 363 426
1902 4 2 1 1 355 356 426 419
1903 4 2 1 1 355 419 426 418
1904 4 2 1 1 355 363 362 426
1905 4 2 1 1 355 425 418 426
1906 4 2 1 1 355 362 425 426
1907 4 2 1 1 356 357 364 427
1908 4 2 1 1 356 357 427 420
1909 4 2 1 1 356 420 427 419
1910 4 2 1 1 356 364 363 427
1911 4 2 1 1 356 426 419 427
1912 4 2 1 1 356 363 426 427
1913 4 2 1 1 358 359 366 429
1914 4 2 1 1 358 359 429 422
1915 4 2 1 1 358 422 429 421
1916 4 2 1 1 358 366 365 429
1917 4 2 1 1 358 428 421 429
1918 4 2 1 1 358 365 428 429
1919 4 2 1 1 359 360 367 430
1920 4 2 1 1 359 360 430 423
1921 4 2 1 1 359 423 430 422
1922 4 2 1 1 359 367 366 430
1923 4 2 1 1 359 429 422 430
1924 4 2 1 1 359 366 429 430
1925 4 2 1 1 360 361 368 431
1926 4 2 1 1 360 361 431 424
1927 4 2 1 1 360 424 431 423
1928 4 2 1 1 360 368 367 431
1929 4 2 1 1 360 430 423 431
1930 4 2 1 1 360 367 430 431
1931 4 2 1 1 361 362 369 432
1932 4 2 1 1 361 362 432 425
1933 4 2 1 1 361 425 432 424
1934 4 2 1 1 361 369 368 432
1935 4 2 1 1 361 431 424 432
1936 4 2 1 1 361 368 431 432
1937 4 2 1 1 362 363 370 433
1938 4 2 1 1 362 363 433 426
1939 4 2 1 1 362 426 433 425
1940 4 2 1 1 362 370 369 433
1941 4 2 1 1 362 432 425 433
1942 4 2 1 1 362 369 432 433
1943 4 2 1 1 363 364 371 434
1944 4 2 1 1 363 364 434 427
1945 4 2 1 1 363 427 434 426
1946 4 2 1 1 363 371 370 434
1947 4 2 1 1 363 433 426 434
1948 4 2 1 1 363 370 433 434
1949 4 2 1 1 365 366 373 436
1950 4 2 1 1 365 366 436 429
1951 4 2 1 1 365 429 436 428
1952 4 2 1 1 365 373 372 436
1953 4 2 1 1 365 435 428 436
1954 4 2 1 1 365 372 435 436
1955 4 2 1 1 366 367 374 437
1956 4 2 1 1 366 367 437 430
1957 4 2 1 1 366 430 437 429
1958 4 2 1 1 366 374 373 437
1959 4 2 1 1 366 436 429 437
1960 4 2 1 1 366 373 436 437
1961 4 2 1 1 367 368 375 438
1962 4 2 1 1 367 368 438 431
1963 4 2 1 1 367 431 438 430
1964 4 2 1 1 367 375 374 438
1965 4 2 1 1 367 437 430 438
1966 4 2 1 1 367 374 437 438
1967 4 2 1 1 368 369 376 439
1968 4 2 1 1 368 369 439 432
1969 4 2 1 1 368 432 439 431
1970 4 2 1 1 368 376 375 439
1971 4 2 1 1 368 438 431 439
1972 4 2 1 1 368 375 438 439
1973 4 2 1 1 369 370 377 440
1974 4 2 1 1 369 370 440 433
1975 4 2 1 1 369 433 440 432
1976 4 2 1 1 369 377 376 440
1977 4 2 1 1 369 439 432 440
1978 4 2 1 1 369 376 439 440
1979 4 2 1 1 370 371 378 441
1980 4 2 1 1 370 371 441 434
1981 4 2 1 1 370 434 441 433
1982 4 2 1 1 370 378 377 441
1983 4 2 1 1 370 440 433 441
1984 4 2 1 1 370 377 440 441
1985 4 2 1 1 379 380 387 450
1986 4 2 1 1 379 380 450 443
1987 4 2 1 1 379 443 450 442
1988 4 2 1 1 379 387 386 450
1989 4 2 1 1 379 449 442 450
1990 4 2 1 1 379 386 449 450
1991 4 2 1 1 380 381 388 451
1992 4 2 1 1 380 381 451 444
1993 4 2 1 1 380 444 451 443
1994 4 2 1 1 380 388 387 451
1995 4 2 1 1 380 450 443 451
1996 4 2 1 1 380 387 450 451
1997 4 2 1 1 381 382 389 452
1998 4 2 1 1 381 382 452 445
1999 4 2 1 1 381 445 452 444
2000 4 2 1 1 381 389 388 452
2001 4 2 1 1 381 451 444 452
2002 4 2 1 1 381 388 451 452
2003 4 2 1 1 382 383 390 453
2004 4 2 1 1 382 383 453 446
2005 4 2 1 1 382 446 453 445
2006 4 2 1 1 382 390 389 453
2007 4 2 1 1 382 452 445 453
2008 4 2 1 1 382 389 452 453
2009 4 2 1 1 383 384 391 454
2010 4 2 1 1 383 384 454 447
2011 4 2 1 1 383 447 454 446
2012 4 2 1 1 383 391 390 454
2013 4 2 1 1 383 453 446 454
2014 4 2 1 1 383 390 453 454
2015 4 2 1 1 384 385 392 455
2016 4 2 1 1 384 385 455 448
2017 4 2 1 1 384 448 455 447
2018 4 2 1 1 384 392 391 455
2019 4 2 1 1 384 454 447 455
2020 4 2 1 1 384 391 454 455
2021 4 2 1 1 386 387 394 457
2022 4 2 1 1 386 387 457 450
2023 4 2 1 1 386 450 457 449
2024 4 2 1 1 386 394 393 457
2025 4 2 1 1 386 456 449 457
2026 4 2 1 1 386 393 456 457
2027 4 2 1 1 387 388 395 458
2028 4 2 1 1 387 388 458 451
2029 4 2 1 1 387 451 458 450
2030 4 2 1 1 387 395 394 458
2031 4 2 1 1 387 457 450 458
2032 4 2 1 1 387 394 457 458
2033 4 2 1 1 388 389 396 459
2034 4 2 1 1 388 389 459 452
2035 4 2 1 1 388 452 459 451
2036 4 2 1 1 388 396 395 459
2037 4 2 1 1 388 458 451 459
2038 4 2 1 1 388 395 458 459
2039 4 2 1 1 389 390 397 460
2040 4 2 1 1 389 390 460 453
2041 4 2 1 1 389 453 460 452
2042 4 2 1 1 389 397 396 460
2043 4 2 1 1 389 459 452 460
2044 4 2 1 1 389 396 459 460
2045 4 2 1 1 390 391 398 461
2046 4 2 1 1 390 391 461 454
2047 4 2 1 1 390 454 461 453
2048 4 2 1 1 390 398 397 461
2049 4 2 1 1 390 460 453 461
2050 4 2 1 1 390 397 460 461
2051 4 2 1 1 391 392 399 462
2052 4 2 1 1 391 392 462 455
2053 4 2 1 1 391 455 462 454
2054 4 2 1 1 391 399 398 462
2055 4 2 1 1 391 461 454 462
2056 4 2 1 1 391 398 461 462
2057 4 2 1 1 393 394 401 464
2058 4 2 1 1 393 394 464 457
2059 4 2 1 1 393 457 464 456
2060 4 2 1 1 393 401 400 464
2061 4 2 1 1 393 463 456 464
2062 4 2 1 1 393 400 463 464
2063 4 2 1 1 394 395 402 465
2064 4 2 1 1 394 395 465 458
2065 4 2 1 1 394 458 465 457
2066 4 2 1 1 394 402 401 465
2067 4 2 1 1 394 464 457 465
2068 4 2 1 1 394 401 464 465
2069 4 2 1 1 395 396 403 466
2070 4 2 1 1 395 396 466 459
2071 4 2 1 1 395 459 466 458
2072 4 2 1 1 395 403 402 466
2073 4 2 1 1 395 465 458 466
2074 4 2 1 1 395 402 465 466
2075 4 2 1 1 396 397 404 467
2076 4 2 1 1 396 397 467 460
2077 4 2 1 1 396 460 467 459
2078 4 2 1 1 396 404 403 467
2079 4 2 1 1 396 466 459 467
2080 4 2 1 1 396 403 466 467
2081 4 2 1 1 397 398 405 468
2082 4 2 1 1 397 398 468 461
2083 4 2 1 1 397 461 468 460
2084 4 2 1 1 397 405 404 468
2085 4 2 1 1 397 467 460 468
2086 4 2 1 1 397 404 467 468
2087 4 2 1 1 398 399 406 469
2088 4 2 1 1 398 399 469 462
2089 4 2 1 1 398 462 469 461
2090 4 2 1 1 398 406 405 469
2091 4 2 1 1 398 468 461 469
2092 4 2 1 1 398 405 468 469
2093 4 2 1 1 400 401 408 471
2094 4 2 1 1 400 401 471 464
2095 4 2 1 1 400 464 471 463
2096 4 2 1 1 400 408 407 471
2097 4 2 1 1 400 470 463 471
2098 4 2 1 1 400 407 470 471
2099 4 2 1 1 401 402 409 472
2100 4 2 1 1 401 402 472 465
2101 4 2 1 1 401 465 472 464
2102 4 2 1 1 401 409 408 472
2103 4 2 1 1 401 471 464 472
2104 4 2 1 1 401 408 471 472
2105 4 2 1 1 402 403 410 473
2106 4 2 1 1 402 403 473 466
2107 4 2 1 1 402 466 473 465
2108 4 2 1 1 402 410 409 473
2109 4 2 1 1 402 472 465 473
2110 4 2 1 1 402 409 472 473
2111 4 2 1 1 403 404 411 474
2112 4 2 1 1 403 404 474 467
2113 4 2 1 1 403 467 474 466
2114 4 2 1 1 403 411 410 474
2115 4 2 1 1 403 473 466 474
2116 4 2 1 1 403 410 473 474
2117 4 2 1 1 404 405 412 475
2118 4 2 1 1 404 405 475 468
2119 4 2 1 1 404 468 475 467
2120 4 2 1 1 404 412 411 475
2121 4 2 1 1 404 474 467 475
2122 4 2 1 1 404 411 474 475
2123 4 2 1 1 405 406 413 476
2124 4 2 1 1 405 406 476 469
2125 4 2 1 1 405 469 476 468
2126 4 2 1 1 405 413 412 476
2127 4 2 1 1 405 475 468 476
2128 4 2 1 1 405 412 475 476
2129 4 2 1 1 407 408 415 478
2130 4 2 1 1 407 408 478 471
2131 4 2 1 1 407 471 478 470
2132 4 2 1 1 407 415 414 478
2133 4 2 1 1 407 477 470 478
2134 4 2 1 1 407 414 477 478
2135 4 2 1 1 408 409 416 479
2136 4 2 1 1 408 409 479 472
2137 4 2 1 1 408 472 479 471
2138 4 2 1 1 408 416 415 479
2139 4 2 1 1 408 478 471 479
2140 4 2 1 1 408 415 478 479
2141 4 2 1 1 409 410 417 480
2142 4 2 1 1 409 410 480 473
2143 4 2 1 1 409 473 480 472
2144 4 2 1 1 409 417 416 480
2145 4 2 1 1 409 479 472 480
2146 4 2 1 1 409 416 479 480
2147 4 2 1 1 410 411 418 481
2148 4 2 1 1 410 411 481 474
2149 4 2 1 1 410 474 481 473
2150 4 2 1 1 410 418 417 481
2151 4 2 1 1 410 480 473 481
2152 4 2 1 1 410 417 480 481
2153 4 2 1 1 411 412 419 482
2154 4 2 1 1 411 412 482 475
2155 4 2 1 1 411 475 482 474
2156 4 2 1 1 411 419 418 482
2157 4 2 1 1 411 481 474 482
2158 4 2 1 1 411 418 481 482
2159 4 2 1 1 412 413 420 483
2160 4 2 1 1 412 413 483 476
2161 4 2 1 1 412 476 483 475
2162 4 2 1 1 412 420 419 483
2163 4 2 1 1 412 482 475 483
2164 4 2 1 1 412 419 482 483
2165 4 2 1 1 414 415 422 485
2166 4 2 1 1 414 415 485 478
2167 4 2 1 1 414 478 485 477
2168 4 2 1 1 414 422 421 485
2169 4 2 1 1 414 484 477 485
2170 4 2 1 1 414 421 484 485
2171 4 2 1 1 415 416 423 486
2172 4 2 1 1 415 416 486 479
2173 4 2 1 1 415 479 486 478
2174 4 2 1 1 415 423 422 486
2175 4 2 1 1 415 485 478 486
2176 4 2 1 1 415 422 485 486
2177 4 2 1 1 416 417 424 487
2178 4 2 1 1 416 417 487 480
2179 4 2 1 1 416 480 487 479
2180 4 2 1 1 416 424 423 487
2181 4 2 1 1 416 486 479 487
2182 4 2 1 1 416 423 486 487
2183 4 2 1 1 417 418 425 488
2184 4 2 1 1 417 418 488 481
2185 4 2 1 1 417 481 488 480
2186 4 2 1 1 417 425 424 488
2187 4 2 1 1 417 487 480 488
2188 4 2 1 1 417 424 487 488
2189 4 2 1 1 418 419 426 489
2190 4 2 1 1 418 419 489 482
2191 4 2 1 1 418 482 489 481
2192 4 2 1 1 418 426 425 489
2193 4 2 1 1 418 488 481 489
2194 4 2 1 1 418 425 488 489
2195 4 2 1 1 419 420 427 490
2196 4 2 1 1 419 420 490 483
2197 4 2 1 1 419 483 490 482
2198 4 2 1 1 419 427 426 490
2199 4 2 1 1 419 489 482 490
2200 4 2 1 1 419 426 489 490
2201 4 2 1 1 421 422 429 492
2202 4 2 1 1 421 422 492 485
2203 4 2 1 1 421 485 492 484
2204 4 2 1 1 421 429 428 492
2205 4 2 1 1 421 491 484 492
2206 4 2 1 1 421 428 491 492
2207 4 2 1 1 422 423 430 493
2208 4 2 1 1 422 423 493 486
2209 4 2 1 1 422 486 493 485
2210 4 2 1 1 422 430 429 493
2211 4 2 1 1 422 492 485 493
2212 4 2 1 1 422 429 492 493
2213 4 2 1 1 423 424 431 494
2214 4 2 1 1 423 424 494 487
2215 4 2 1 1 423 487 494 486
2216 4 2 1 1 423 431 430 494
2217 4 2 1 1 423 493 486 494
2218 4 2 1 1 423 430 493 494
2219 4 2 1 1 424 425 432 495
2220 4 2 1 1 424 425 495 488
2221 4 2 1 1 424 488 495 487
2222 4 2 1 1 424 432 431 495
2223 4 2 1 1 424 494 487 495
2224 4 2 1 1 424 431 494 495
2225 4 2 1 1 425 426 433 496
2226 4 2 1 1 425 426 496 489
2227 4 2 1 1 425 489 496 488
2228 4 2 1 1 425 433 432 496
2229 4 2 1 1 425 495 488 496
2230 4 2 1 1 425 432 495 496
2231 4 2 1 1 426 427 434 497
2232 4 2 1 1 426 427 497 490
2233 4 2 1 1 426 490 497 489
2234 4 2 1 1 426 434 433 497
2235 4 2 1 1 426 496 489 497
2236 4 2 1 1 426 433 496 497
2237 4 2 1 1 428 429 436 499
2238 4 2 1 1 428 429 499 492
2239 4 2 1 1 428 492 499 491
2240 4 2 1 1 428 436 435 499
2241 4 2 1 1 428 498 491 499
2242 4 2 1 1 428 435 498 499
2243 4 2 1 1 429 430 437 500
2244 4 2 1 1 429 430 500 493
2245 4 2 1 1 429 493 500 492
2246 4 2 1 1 429 437 436 500
2247 4 2 1 1 429 499 492 500
2248 4 2 1 1 429 436 499 500
2249 4 2 1 1 430 431 438 501
2250 4 2 1 1 430 431 501 494
2251 4 2 1 1 430 494 501 493
2252 4 2 1 1 430 438 437 501
2253 4 2 1 1 430 500 493 501
2254 4 2 1 1 430 437 500 501
2255 4 2 1 1 431 432 439 502
2256 4 2 1 1 431 432 502 495
2257 4 2 1 1 431 495 502 494
2258 4 2 1 1 431 439 438 502
2259 4 2 1 1 431 501 494 502
2260 4 2 1 1 431 438 501 502
2261 4 2 1 1 432 433 440 503
2262 4 2 1 1 432 433 503 496
2263 4 2 1 1 432 496 503 495
2264 4 2 1 1 432 440 439 503
2265 4 2 1 1 432 502 495 503
2266 4 2 1 1 432 439 502 503
2267 4 2 1 1 433 434 441 504
2268 4 2 1 1 433 434 504 497
2269 4 2 1 1 433 497 504 496
2270 4 2 1 1 433 441 440 504
2271 4 2 1 1 433 503 496 504
2272 4 2 1 1 433 440 503 504
2273 4 2 1 1 442 443 450 513
2274 4 2 1 1 442 443 513 506
2275 4 2 1 1 442 506 513 505
2276 4 2 1 1 442 450 449 513
2277 4 2 1 1 442 512 505 513
2278 4 2 1 1 442 449 512 513
2279 4 2 1 1 443 444 451 514
2280 4 2 1 1 443 444 514 507
2281 4 2 1 1 443 507 514 506
2282 4 2 1 1 443 451 450 514
2283 4 2 1 1 443 513 506 514
2284 4 2 1 1 443 450 513 514
2285 4 2 1 1 444 445 452 515
2286 4 2 1 1 444 445 515 508
2287 4 2 1 1 444 508 515 507
2288 4 2 1 1 444 452 451 515
2289 4 2 1 1 444 514 507 515
2290 4 2 1 1 444 451 514 515
2291 4 2 1 1 445 446 453 516
2292 4 2 1 1 445 446 516 509
2293 4 2 1 1 445 509 516 508
2294 4 2 1 1 445 453 452 516
2295 4 2 1 1 445 515 508 516
2296 4 2 1 1 445 452 515 516
2297 4 2 1 1 446 447 454 517
2298 4 2 1 1 446 447 517 510
2299 4 2 1 1 446 510 517 509
2300 4 2 1 1 446 454 453 517
2301 4 2 1 1 446 516 509 517
2302 4 2 1 1 446 453 516 517
2303 4 2 1 1 447 448 455 518
2304 4 2 1 1 447 448 518 511
2305 4 2 1 1 447 511 518 510
2306 4 2 1 1 447 455 454 518
2307 4 2 1 1 447 517 510 518
2308 4 2 1 1 447 454 517 518
2309 4 2 1 1 449 450 457 520
2310 4 2 1 1 449 450 520 513
2311 4 2 1 1 449 513 520 512
2312 4 2 1 1 449 457 456 520
2313 4 2 1 1 449 519 512 520
2314 4 2 1 1 449 456 519 520
2315 4 2 1 1 450 451 458 521
2316 4 2 1 1 450 451 521 514
2317 4 2 1 1 450 514 521 513
2318 4 2 1 1 450 458 457 521
2319 4 2 1 1 450 520 513 521
2320 4 2 1 1 450 457 520 521
2321 4 2 1 1 451 452 459 522
2322 4 2 1 1 451 452 522 515
2323 4 2 1 1 451 515 522 514
2324 4 2 1 1 451 459 458 522
2325 4 2 1 1 451 521 514 522
2326 4 2 1 1 451 458 521 522
2327 4 2 1 1 452 453 460 523
2328 4 2 1 1 452 453 523 516
2329 4 2 1 1 452 516 523 515
2330 4 2 1 1 452 460 459 523
2331 4 2 1 1 452 522 515 523
2332 4 2 1 1 452 459 522 523
2333 4 2 1 1 453 454 461 524
2334 4 2 1 1 453 454 524 517
2335 4 2 1 1 453 517 524 516
2336 4 2 1 1 453 461 460 524
2337 4 2 1 1 453 523 516 524
2338 4 2 1 1 453 460 523 524
2339 4 2 1 1 454 455 462 525
2340 4 2 1 1 454 455 525 518
2341 4 2 1 1 454 518 525 517
2342 4 2 1 1 454 462 461 525
2343 4 2 1 1 454 524 517 525
2344 4 2 1 1 454 461 524 525
2345 4 2 1 1 456 457 464 527
2346 4 2 1 1 456 457 527 520
2347 4 2 1 1 456 520 527 519
2348 4 2 1 1 456 464 463 527
2349 4 2 1 1 456 526 519 527
2350 4 2 1 1 456 463 526 527
2351 4 2 1 1 457 458 465 528
2352 4 2 1 1 457 458 528 521
2353 4 2 1 1 457 521 528 520
2354 4 2 1 1 457 465 464 528
2355 4 2 1 1 457 527 520 528
2356 4 2 1 1 457 464 527 528
2357 4 2 1 1 458 459 466 529
2358 4 2 1 1 458 459 529 522
2359 4 2 1 1 458 522 529 521
2360 4 2 1 1 458 466 465 529
2361 4 2 1 1 458 528 521 529
2362 4 2 1 1 458 465 528 529
2363 4 2 1 1 459 460 467 530
2364 4 2 1 1 459 460 530 523
2365 4 2 1 1 459 523 530 522
2366 4 2 1 1 459 467 466 530
2367 4 2 1 1 459 529 522 530
2368 4 2 1 1 459 466 529 530
2369 4 2 1 1 460 461 468 531
2370 4 2 1 1 460 461 531 524
2371 4 2 1 1 460 524 531 523
2372 4 2 1 1 460 468 467 531
2373 4 2 1 1 460 530 523 531
2374 4 2 1 1 460 467 530 531
2375 4 2 1 1 461 462 469 532
2376 4 2 1 1 461 462 532 525
2377 4 2 1 1 461 525 532 524
2378 4 2 1 1 461 469 468 532
2379 4 2 1 1 461 531 524 532
2380 4 2 1 1 461 468 531 532
2381 4 2 1 1 463 464 471 534
2382 4 2 1 1 463 464 534 527
2383 4 2 1 1 463 527 534 526
2384 4 2 1 1 463 471 470 534
2385 4 2 1 1 463 533 526 534
2386 4 2 1 1 463 470 533 534
2387 4 2 1 1 464 465 472 535
2388 4 2 1 1 464 465 535 528
2389 4 2 1 1 464 528 535 527
2390 4 2 1 1 464 472 471 535
2391 4 2 1 1 464 534 527 535
2392 4 2 1 1 464 471 534 535
2393 4 2 1 1 465 466 473 536
2394 4 2 1 1 465 466 536 529
2395 4 2 1 1 465 529 536 528
2396 4 2 1 1 465 473 472 536
2397 4 2 1 1 465 535 528 536
2398 4 2 1 1 465 472 535 536
2399 4 2 1 1 466 467 474 537
2400 4 2 1 1 466 467 537 530
2401 4 2 1 1 466 530 537 529
2402 4 2 1 1 466 474 473 537
2403 4 2 1 1 466 536 529 537
2404 4 2 1 1 466 473 536 537
2405 4 2 1 1 467 468 475 538
2406 4 2 1 1 467 468 538 531
2407 4 2 1 1 467 531 538 530
2408 4 2 1 1 467 475 474 538
2409 4 2 1 1 467 537 530 538
2410 4 2 1 1 467 474 537 538
2411 4 2 1 1 468 469 476 539
2412 4 2 1 1 468 469 539 532
2413 4 2 1 1 468 532 539 531
2414 4 2 1 1 468 476 475 539
2415 4 2 1 1 468 538 531 539
2416 4 2 1 1 468 475 538 539
2417 4 2 1 1 470 471 478 541
2418 4 2 1 1 470 471 541 534
2419 4 2 1 1 470 534 541 533
2420 4 2 1 1 470 478 477 541
2421 4 2 1 1 470 540 533 541
2422 4 2 1 1 470 477 540 541
2423 4 2 1 1 471 472 479 542
2424 4 2 1 1 471 472 542 535
2425 4 2 1 1 471 535 542 534
2426 4 2 1 1 471 479 478 542
2427 4 2 1 1 471 541 534 542
2428 4 2 1 1 471 478 541 542
2429 4 2 1 1 472 473 480 543
2430 4 2 1 1 472 473 543 536
2431 4 2 1 1 472 536 543 535
2432 4 2 1 1 472 480 479 543
2433 4 2 1 1 472 542 535 543
2434 4 2 1 1 472 479 542 543
2435 4 2 1 1 473 474 481 544
2436 4 2 1 1 473 474 544 537
2437 4 2 1 1 473 537 544 536
2438 4 2 1 1 473 481 480 544
2439 4 2 1 1 473 543 536 544
2440 4 2 1 1 473 480 543 544
2441 4 2 1 1 474 475 482 545
2442 4 2 1 1 474 475 545 538
2443 4 2 1 1 474 538 545 537
2444 4 2 1 1 474 482 481 545
2445 4 2 1 1 474 544 537 545
2446 4 2 1 1 474 481 544 545
2447 4 2 1 1 475 476 483 546
2448 4 2 1 1 475 476 546 539
2449 4 2 1 1 475 539 546 538
2450 4 2 1 1 475 483 482 546
2451 4 2 1 1 475 545 538 546
2452 4 2 1 1 475 482 545 546
2453 4 2 1 1 477 478 485 548
2454 4 2 1 1 477 478 548 541
2455 4 2 1 1 477 541 548 540
2456 4 2 1 1 477 485 484 548
2457 4 2 1 1 477 547 540 548
2458 4 2 1 1 477 484 547 548
2459 4 2 1 1 478 479 486 549
2460 4 2 1 1 478 479 549 542
2461 4 2 1 1 478 542 549 541
2462 4 2 1 1 478 486 485 549
2463 4 2 1 1 478 548 541 549
2464 4 2 1 1 478 485 548 549
2465 4 2 1 1 479 480 487 550
2466 4 2 1 1 479 480 550 543
2467 4 2 1 1 479 543 550 542
2468 4 2 1 1 479 487 486 550
2469 4 2 1 1 479 549 542 550
2470 4 2 1 1 479 486 549 550
2471 4 2 1 1 480 481 488 551
2472 4 2 1 1 480 481 551 544
2473 4 2 1 1 480 544 551 543
2474 4 2 1 1 480 488 487 551
2475 4 2 1 1 480 550 543 551
2476 4 2 1 1 480 487 550 551
2477 4 2 1 1 481 482 489 552
2478 4 2 1 1 481 482 552 545
2479 4 2 1 1 481 545 552 544
2480 4 2 1 1 481 489 488 552
2481 4 2 1 1 481 551 544 552
2482 4 2 1 1 481 488 551 552
2483 4 2 1 1 482 483 490 553
2484 4 2 1 1 482 483 553 546
2485 4 2 1 1 482 546 553 545
2486 4 2 1 1 482 490 489 553
2487 4 2 1 1 482 552 545 553
2488 4 2 1 1 482 489 552 553
2489 4 2 1 1 484 485 492 555
2490 4 2 1 1 484 485 555 548
2491 4 2 1 1 484 548 555 547
2492 4 2 1 1 484 492 491 555
2493 4 2 1 1 484 554 547 555
2494 4 2 1 1 484 491 554 555
2495 4 2 1 1 485 486 493 556
2496 4 2 1 1 485 486 556 549
2497 4 2 1 1 485 549 556 548
2498 4 2 1 1 485 493 492 556
2499 4 2 1 1 485 555 548 556
2500 4 2 1 1 485 492 555 556
2501 4 2 1 1 486 487 494 557
2502 4 2 1 1 486 487 557 550
2503 4 2 1 1 486 550 557 549
2504 4 2 1 1 486 494 493 557
2505 4 2 1 1 486 556 549 557
2506 4 2 1 1 486 493 556 557
2507 4 2 1 1 487 488 495 558
2508 4 2 1 1 487 488 558 551
2509 4 2 1 1 487 551 558 550
2510 4 2 1 1 487 495 494 558
2511 4 2 1 1 487 557 550 558
2512 4 2 1 1 487 494 557 558
2513 4 2 1 1 488 489 496 559
2514 4 2 1 1 488 489 559 552
2515 4 2 1 1 488 552 559 551
2516 4 2 1 1 488 496 495 559
2517 4 2 1 1 488 558 551 559
2518 4 2 1 1 488 495 558 559
2519 4 2 1 1 489 490 497 560
2520 4 2 1 1 489 490 560 553
2521 4 2 1 1 489 553 560 552
2522 4 2 1 1 489 497 496 560
2523 4 2 1 1 489 559 552 560
2524 4 2 1 1 489 496 559 560
2525 4 2 1 1 491 492 499 562
2526 4 2 1 1 491 492 562 555
2527 4 2 1 1 491 555 562 554
2528 4 2 1 1 491 499 498 562
2529 4 2 1 1 491 561 554 562
2530 4 2 1 1 491 498 561 562
2531 4 2 1 1 492 493 500 563
2532 4 2 1 1 492 493 563 556
2533 4 2 1 1 492 556 563 555
2534 4 2 1 1 492 500 499 563
2535 4 2 1 1 492 562 555 563
2536 4 2 1 1 492 499 562 563
2537 4 2 1 1 493 494 501 564
2538 4 2 1 1 493 494 564 557
2539 4 2 1 1 493 557 564 556
2540 4 2 1 1 493 501 500 564
2541 4 2 1 1 493 563 556 564
2542 4 2 1 1 493 500 563 564
2543 4 2 1 1 494 495 502 565
2544 4 2 1 1 494 495 565 558
2545 4 2 1 1 494 558 565 557
2546 4 2 1 1 494 502 501 565
2547 4 2 1 1 494 564 557 565
2548 4 2 1 1 494 501 564 565
2549 4 2 1 1 495 496 503 566
2550 4 2 1 1 495 496 566 559
2551 4 2 1 1 495 559 566 558
2552 4 2 1 1 495 503 502 566
2553 4 2 1 1 495 565 558 566
2554 4 2 1 1 495 502 565 566
2555 4 2 1 1 496 497 504 567
2556 4 2 1 1 496 497 567 560
2557 4 2 1 1 496 560 567 559
2558 4 2 1 1 496 504 503 567
2559 4 2 1 1 496 566 559 567
2560 4 2 1 1 496 503 566 567
$EndElements
