$MeshFormat
2.2 0 8
$EndMeshFormat
$Nodes
244
1 0 0 0
2 0.001 0 0
3 0.001 0.001 0
4 0 0.001 0
5 0 0 0.0002
6 0.001 0 0.0002
7 0.001 0.001 0.0002
8 0 0.001 0.0002
9 0.0003333333333325707 0 0
10 0.0006666666666658605 0 0
11 0.0001666666666663905 0 0
12 0.0004999999999988565 0 0
13 0.0008333333333328447 0 0
14 0.001 0.0003333333333325707 0
15 0.001 0.0006666666666658605 0
16 0.001 0.0001666666666663905 0
17 0.001 0.0004999999999988565 0
18 0.001 0.0008333333333328447 0
19 0.0006666666666671468 0.001 0
20 0.0003333333333341031 0.001 0
21 0.0008333333333335449 0.001 0
22 0.0005000000000009341 0.001 0
23 0.0001666666666667973 0.001 0
24 0 0.0006666666666671468 0
25 0 0.0003333333333341031 0
26 0 0.0008333333333335449 0
27 0 0.0005000000000009341 0
28 0 0.0001666666666667973 0
29 0.0003333333333325707 0 0.0002
30 0.0006666666666658605 0 0.0002
31 0.0001666666666663905 0 0.0002
32 0.0004999999999988565 0 0.0002
33 0.0008333333333328447 0 0.0002
34 0.001 0.0003333333333325707 0.0002
35 0.001 0.0006666666666658605 0.0002
36 0.001 0.0001666666666663905 0.0002
37 0.001 0.0004999999999988565 0.0002
38 0.001 0.0008333333333328447 0.0002
39 0.0006666666666671468 0.001 0.0002
40 0.0003333333333341031 0.001 0.0002
41 0.0008333333333335449 0.001 0.0002
42 0.0005000000000009341 0.001 0.0002
43 0.0001666666666667973 0.001 0.0002
44 0 0.0006666666666671468 0.0002
45 0 0.0003333333333341031 0.0002
46 0 0.0008333333333335449 0.0002
47 0 0.0005000000000009341 0.0002
48 0 0.0001666666666667973 0.0002
49 0 0 6.666666666666667e-05
50 0 0 0.0001333333333333333
51 0 0 3.33333333333504e-05
52 0 0 9.999999999989539e-05
53 0 0 0.0001666666666666667
54 0.001 0 6.666666666666667e-05
55 0.001 0 0.0001333333333333333
56 0.001 0 3.33333333333504e-05
57 0.001 0 9.999999999989539e-05
58 0.001 0 0.0001666666666666667
59 0.001 0.001 6.666666666666667e-05
60 0.001 0.001 0.0001333333333333333
61 0.001 0.001 3.33333333333504e-05
62 0.001 0.001 9.999999999989539e-05
63 0.001 0.001 0.0001666666666666667
64 0 0.001 6.666666666666667e-05
65 0 0.001 0.0001333333333333333
66 0 0.001 3.33333333333504e-05
67 0 0.001 9.999999999989539e-05
68 0 0.001 0.0001666666666666667
69 0.0003333333333330816 0.0003333333333335922 0
70 0.0003333333333335924 0.0006666666666667181 0
71 0.0006666666666662892 0.0003333333333330816 0
72 0.0006666666666667179 0.0006666666666662892 0
73 0.0001666666666662854 0.0001666666666670515 0
74 0.0003333333333328262 0.0001666666666667961 0
75 0.0001666666666665408 0.0003333333333338476 0
76 0.0001666666666665408 0.0005000000000003695 0
77 0.000333333333333337 0.0005000000000001552 0
78 0.0001666666666667962 0.0006666666666669325 0
79 0.0001666666666667962 0.0008333333333333591 0
80 0.0003333333333338477 0.0008333333333333591 0
81 0.000499999999999471 0.0001666666666667961 0
82 0.0006666666666660749 0.0001666666666665408 0
83 0.0004999999999996854 0.000333333333333337 0
84 0.0004999999999999408 0.0004999999999998998 0
85 0.0006666666666665036 0.0004999999999996854 0
86 0.0005000000000001552 0.0006666666666665037 0
87 0.0005000000000004105 0.0008333333333331446 0
88 0.0006666666666669324 0.0008333333333331446 0
89 0.0008333333333331446 0.0001666666666665408 0
90 0.0008333333333331446 0.0003333333333328262 0
91 0.000833333333333359 0.0004999999999994299 0
92 0.000833333333333359 0.0006666666666660749 0
93 0.0008333333333335734 0.0008333333333329303 0
94 0.0003333333333325707 0 6.666666666666667e-05
95 0.0003333333333325707 0 0.0001333333333333333
96 0.0006666666666658605 0 6.666666666666667e-05
97 0.0006666666666658605 0 0.0001333333333333333
98 0.0003333333333325707 0 3.333333333333334e-05
99 0.0001666666666662854 0 6.666666666666667e-05
100 0.0003333333333325707 0 0.0001
101 0.0001666666666662854 0 0.0001333333333333333
102 0.0003333333333325707 0 0.0001666666666666667
103 0.0006666666666658605 0 3.333333333333334e-05
104 0.0004999999999992156 0 6.666666666666668e-05
105 0.0006666666666658605 0 0.0001
106 0.0004999999999992156 0 0.0001333333333333333
107 0.0006666666666658605 0 0.0001666666666666667
108 0.0008333333333329303 0 6.666666666666668e-05
109 0.0008333333333329303 0 0.0001333333333333333
110 0.001 0.0003333333333325707 6.666666666666667e-05
111 0.001 0.0003333333333325707 0.0001333333333333333
112 0.001 0.0006666666666658605 6.666666666666667e-05
113 0.001 0.0006666666666658605 0.0001333333333333333
114 0.001 0.0003333333333325707 3.333333333333334e-05
115 0.001 0.0001666666666662854 6.666666666666667e-05
116 0.001 0.0003333333333325707 0.0001
117 0.001 0.0001666666666662854 0.0001333333333333333
118 0.001 0.0003333333333325707 0.0001666666666666667
119 0.001 0.0006666666666658605 3.333333333333334e-05
120 0.001 0.0004999999999992156 6.666666666666668e-05
121 0.001 0.0006666666666658605 0.0001
122 0.001 0.0004999999999992156 0.0001333333333333333
123 0.001 0.0006666666666658605 0.0001666666666666667
124 0.001 0.0008333333333329303 6.666666666666668e-05
125 0.001 0.0008333333333329303 0.0001333333333333333
126 0.0006666666666671468 0.001 6.666666666666667e-05
127 0.0006666666666671468 0.001 0.0001333333333333333
128 0.0003333333333341031 0.001 6.666666666666667e-05
129 0.0003333333333341031 0.001 0.0001333333333333333
130 0.0006666666666671468 0.001 3.333333333333334e-05
131 0.0008333333333335734 0.001 6.666666666666667e-05
132 0.0006666666666671468 0.001 0.0001
133 0.0008333333333335734 0.001 0.0001333333333333333
134 0.0006666666666671468 0.001 0.0001666666666666667
135 0.0003333333333341031 0.001 3.333333333333334e-05
136 0.0005000000000006249 0.001 6.666666666666668e-05
137 0.0003333333333341031 0.001 0.0001
138 0.0005000000000006249 0.001 0.0001333333333333333
139 0.0003333333333341031 0.001 0.0001666666666666667
140 0.0001666666666670515 0.001 6.666666666666668e-05
141 0.0001666666666670515 0.001 0.0001333333333333333
142 0 0.0006666666666671468 6.666666666666667e-05
143 0 0.0006666666666671468 0.0001333333333333333
144 0 0.0003333333333341031 6.666666666666667e-05
145 0 0.0003333333333341031 0.0001333333333333333
146 0 0.0006666666666671468 3.333333333333334e-05
147 0 0.0008333333333335734 6.666666666666667e-05
148 0 0.0006666666666671468 0.0001
149 0 0.0008333333333335734 0.0001333333333333333
150 0 0.0006666666666671468 0.0001666666666666667
151 0 0.0003333333333341031 3.333333333333334e-05
152 0 0.0005000000000006249 6.666666666666668e-05
153 0 0.0003333333333341031 0.0001
154 0 0.0005000000000006249 0.0001333333333333333
155 0 0.0003333333333341031 0.0001666666666666667
156 0 0.0001666666666670515 6.666666666666668e-05
157 0 0.0001666666666670515 0.0001333333333333333
158 0.0003333333333330816 0.0003333333333335922 0.0002
159 0.0003333333333335924 0.0006666666666667181 0.0002
160 0.0006666666666662892 0.0003333333333330816 0.0002
161 0.0006666666666667179 0.0006666666666662892 0.0002
162 0.0001666666666662854 0.0001666666666670515 0.0002
163 0.0003333333333328262 0.0001666666666667961 0.0002
164 0.0001666666666665408 0.0003333333333338476 0.0002
165 0.0001666666666665408 0.0005000000000003695 0.0002
166 0.000333333333333337 0.0005000000000001552 0.0002
167 0.0001666666666667962 0.0006666666666669325 0.0002
168 0.0001666666666667962 0.0008333333333333591 0.0002
169 0.0003333333333338477 0.0008333333333333591 0.0002
170 0.000499999999999471 0.0001666666666667961 0.0002
171 0.0006666666666660749 0.0001666666666665408 0.0002
172 0.0004999999999996854 0.000333333333333337 0.0002
173 0.0004999999999999408 0.0004999999999998998 0.0002
174 0.0006666666666665036 0.0004999999999996854 0.0002
175 0.0005000000000001552 0.0006666666666665037 0.0002
176 0.0005000000000004105 0.0008333333333331446 0.0002
177 0.0006666666666669324 0.0008333333333331446 0.0002
178 0.0008333333333331446 0.0001666666666665408 0.0002
179 0.0008333333333331446 0.0003333333333328262 0.0002
180 0.000833333333333359 0.0004999999999994299 0.0002
181 0.000833333333333359 0.0006666666666660749 0.0002
182 0.0008333333333335734 0.0008333333333329303 0.0002
183 0.0003333333333330816 0.0003333333333335922 6.666666666666667e-05
184 0.0003333333333330816 0.0003333333333335922 0.0001333333333333333
185 0.0003333333333335924 0.0006666666666667181 6.666666666666667e-05
186 0.0003333333333335924 0.0006666666666667181 0.0001333333333333333
187 0.0006666666666662892 0.0003333333333330816 6.666666666666667e-05
188 0.0006666666666662892 0.0003333333333330816 0.0001333333333333333
189 0.0006666666666667179 0.0006666666666662892 6.666666666666667e-05
190 0.0006666666666667179 0.0006666666666662892 0.0001333333333333333
191 0.0001666666666662854 0.0001666666666670515 6.666666666666667e-05
192 0.0001666666666662854 0.0001666666666670515 0.0001333333333333333
193 0.0003333333333330816 0.0003333333333335922 3.333333333333333e-05
194 0.0001666666666665408 0.0003333333333338476 6.666666666666667e-05
195 0.0003333333333328262 0.0001666666666667961 6.666666666666667e-05
196 0.0003333333333330816 0.0003333333333335922 0.0001
197 0.0001666666666665408 0.0003333333333338476 0.0001333333333333333
198 0.0003333333333328262 0.0001666666666667961 0.0001333333333333333
199 0.0003333333333330816 0.0003333333333335922 0.0001666666666666667
200 0.0001666666666665408 0.0005000000000003695 6.666666666666667e-05
201 0.0001666666666665408 0.0005000000000003695 0.0001333333333333333
202 0.0003333333333335924 0.0006666666666667181 3.333333333333333e-05
203 0.0001666666666667962 0.0006666666666669325 6.666666666666667e-05
204 0.000333333333333337 0.0005000000000001552 6.666666666666667e-05
205 0.0003333333333335924 0.0006666666666667181 0.0001
206 0.0001666666666667962 0.0006666666666669325 0.0001333333333333333
207 0.000333333333333337 0.0005000000000001552 0.0001333333333333333
208 0.0003333333333335924 0.0006666666666667181 0.0001666666666666667
209 0.0001666666666667962 0.0008333333333333591 6.666666666666667e-05
210 0.0001666666666667962 0.0008333333333333591 0.0001333333333333333
211 0.0003333333333338477 0.0008333333333333591 6.666666666666667e-05
212 0.0003333333333338477 0.0008333333333333591 0.0001333333333333333
213 0.000499999999999471 0.0001666666666667961 6.666666666666667e-05
214 0.000499999999999471 0.0001666666666667961 0.0001333333333333333
215 0.0006666666666662892 0.0003333333333330816 3.333333333333333e-05
216 0.0004999999999996854 0.000333333333333337 6.666666666666667e-05
217 0.0006666666666660749 0.0001666666666665408 6.666666666666667e-05
218 0.0006666666666662892 0.0003333333333330816 0.0001
219 0.0004999999999996854 0.000333333333333337 0.0001333333333333333
220 0.0006666666666660749 0.0001666666666665408 0.0001333333333333333
221 0.0006666666666662892 0.0003333333333330816 0.0001666666666666667
222 0.0004999999999999408 0.0004999999999998998 6.666666666666667e-05
223 0.0004999999999999408 0.0004999999999998998 0.0001333333333333333
224 0.0006666666666667179 0.0006666666666662892 3.333333333333333e-05
225 0.0005000000000001552 0.0006666666666665037 6.666666666666667e-05
226 0.0006666666666665036 0.0004999999999996854 6.666666666666667e-05
227 0.0006666666666667179 0.0006666666666662892 0.0001
228 0.0005000000000001552 0.0006666666666665037 0.0001333333333333333
229 0.0006666666666665036 0.0004999999999996854 0.0001333333333333333
230 0.0006666666666667179 0.0006666666666662892 0.0001666666666666667
231 0.0005000000000004105 0.0008333333333331446 6.666666666666667e-05
232 0.0005000000000004105 0.0008333333333331446 0.0001333333333333333
233 0.0006666666666669324 0.0008333333333331446 6.666666666666667e-05
234 0.0006666666666669324 0.0008333333333331446 0.0001333333333333333
235 0.0008333333333331446 0.0001666666666665408 6.666666666666667e-05
236 0.0008333333333331446 0.0001666666666665408 0.0001333333333333333
237 0.0008333333333331446 0.0003333333333328262 6.666666666666667e-05
238 0.0008333333333331446 0.0003333333333328262 0.0001333333333333333
239 0.000833333333333359 0.0004999999999994299 6.666666666666667e-05
240 0.000833333333333359 0.0004999999999994299 0.0001333333333333333
241 0.000833333333333359 0.0006666666666660749 6.666666666666667e-05
242 0.000833333333333359 0.0006666666666660749 0.0001333333333333333
243 0.0008333333333335734 0.0008333333333329303 6.666666666666667e-05
244 0.0008333333333335734 0.0008333333333329303 0.0001333333333333333
$EndNodes
$Elements
90
1 9 2 10 1 1 9 25 11 73 28
2 9 2 10 1 25 9 69 73 74 75
3 9 2 10 1 25 69 24 75 76 27
4 9 2 10 1 24 69 70 76 77 78
5 9 2 10 1 24 70 4 78 79 26
6 9 2 10 1 4 70 20 79 80 23
7 9 2 10 1 9 10 69 12 81 74
8 9 2 10 1 69 10 71 81 82 83
9 9 2 10 1 69 71 70 83 84 77
10 9 2 10 1 70 71 72 84 85 86
11 9 2 10 1 70 72 20 86 87 80
12 9 2 10 1 20 72 19 87 88 22
13 9 2 10 1 10 2 71 13 89 82
14 9 2 10 1 71 2 14 89 16 90
15 9 2 10 1 71 14 72 90 91 85
16 9 2 10 1 72 14 15 91 17 92
17 9 2 10 1 72 15 19 92 93 88
18 9 2 10 1 19 15 3 93 18 21
19 9 2 11 26 5 29 45 31 162 48
20 9 2 11 26 45 29 158 162 163 164
21 9 2 11 26 45 158 44 164 165 47
22 9 2 11 26 44 158 159 165 166 167
23 9 2 11 26 44 159 8 167 168 46
24 9 2 11 26 8 159 40 168 169 43
25 9 2 11 26 29 30 158 32 170 163
26 9 2 11 26 158 30 160 170 171 172
27 9 2 11 26 158 160 159 172 173 166
28 9 2 11 26 159 160 161 173 174 175
29 9 2 11 26 159 161 40 175 176 169
30 9 2 11 26 40 161 39 176 177 42
31 9 2 11 26 30 6 160 33 178 171
32 9 2 11 26 160 6 34 178 36 179
33 9 2 11 26 160 34 161 179 180 174
34 9 2 11 26 161 34 35 180 37 181
35 9 2 11 26 161 35 39 181 182 177
36 9 2 11 26 39 35 7 182 38 41
37 18 2 1 1 1 9 25 49 94 144 11 28 51 73 98 151 99 156 191
38 18 2 1 1 49 94 144 50 95 145 99 156 52 191 100 153 101 157 192
39 18 2 1 1 50 95 145 5 29 45 101 157 53 192 102 155 31 48 162
40 18 2 1 1 25 9 69 144 94 183 73 75 151 74 98 193 191 194 195
41 18 2 1 1 144 94 183 145 95 184 191 194 153 195 100 196 192 197 198
42 18 2 1 1 145 95 184 45 29 158 192 197 155 198 102 199 162 164 163
43 18 2 1 1 25 69 24 144 183 142 75 27 151 76 193 146 194 152 200
44 18 2 1 1 144 183 142 145 184 143 194 152 153 200 196 148 197 154 201
45 18 2 1 1 145 184 143 45 158 44 197 154 155 201 199 150 164 47 165
46 18 2 1 1 24 69 70 142 183 185 76 78 146 77 193 202 200 203 204
47 18 2 1 1 142 183 185 143 184 186 200 203 148 204 196 205 201 206 207
48 18 2 1 1 143 184 186 44 158 159 201 206 150 207 199 208 165 167 166
49 18 2 1 1 24 70 4 142 185 64 78 26 146 79 202 66 203 147 209
50 18 2 1 1 142 185 64 143 186 65 203 147 148 209 205 67 206 149 210
51 18 2 1 1 143 186 65 44 159 8 206 149 150 210 208 68 167 46 168
52 18 2 1 1 4 70 20 64 185 128 79 23 66 80 202 135 209 140 211
53 18 2 1 1 64 185 128 65 186 129 209 140 67 211 205 137 210 141 212
54 18 2 1 1 65 186 129 8 159 40 210 141 68 212 208 139 168 43 169
55 18 2 1 1 9 10 69 94 96 183 12 74 98 81 103 193 104 195 213
56 18 2 1 1 94 96 183 95 97 184 104 195 100 213 105 196 106 198 214
57 18 2 1 1 95 97 184 29 30 158 106 198 102 214 107 199 32 163 170
58 18 2 1 1 69 10 71 183 96 187 81 83 193 82 103 215 213 216 217
59 18 2 1 1 183 96 187 184 97 188 213 216 196 217 105 218 214 219 220
60 18 2 1 1 184 97 188 158 30 160 214 219 199 220 107 221 170 172 171
61 18 2 1 1 69 71 70 183 187 185 83 77 193 84 215 202 216 204 222
62 18 2 1 1 183 187 185 184 188 186 216 204 196 222 218 205 219 207 223
63 18 2 1 1 184 188 186 158 160 159 219 207 199 223 221 208 172 166 173
64 18 2 1 1 70 71 72 185 187 189 84 86 202 85 215 224 222 225 226
65 18 2 1 1 185 187 189 186 188 190 222 225 205 226 218 227 223 228 229
66 18 2 1 1 186 188 190 159 160 161 223 228 208 229 221 230 173 175 174
67 18 2 1 1 70 72 20 185 189 128 86 80 202 87 224 135 225 211 231
68 18 2 1 1 185 189 128 186 190 129 225 211 205 231 227 137 228 212 232
69 18 2 1 1 186 190 129 159 161 40 228 212 208 232 230 139 175 169 176
70 18 2 1 1 20 72 19 128 189 126 87 22 135 88 224 130 231 136 233
71 18 2 1 1 128 189 126 129 190 127 231 136 137 233 227 132 232 138 234
72 18 2 1 1 129 190 127 40 161 39 232 138 139 234 230 134 176 42 177
73 18 2 1 1 10 2 71 96 54 187 13 82 103 89 56 215 108 217 235
74 18 2 1 1 96 54 187 97 55 188 108 217 105 235 57 218 109 220 236
75 18 2 1 1 97 55 188 30 6 160 109 220 107 236 58 221 33 171 178
76 18 2 1 1 71 2 14 187 54 110 89 90 215 16 56 114 235 237 115
77 18 2 1 1 187 54 110 188 55 111 235 237 218 115 57 116 236 238 117
78 18 2 1 1 188 55 111 160 6 34 236 238 221 117 58 118 178 179 36
79 18 2 1 1 71 14 72 187 110 189 90 85 215 91 114 224 237 226 239
80 18 2 1 1 187 110 189 188 111 190 237 226 218 239 116 227 238 229 240
81 18 2 1 1 188 111 190 160 34 161 238 229 221 240 118 230 179 174 180
82 18 2 1 1 72 14 15 189 110 112 91 92 224 17 114 119 239 241 120
83 18 2 1 1 189 110 112 190 111 113 239 241 227 120 116 121 240 242 122
84 18 2 1 1 190 111 113 161 34 35 240 242 230 122 118 123 180 181 37
85 18 2 1 1 72 15 19 189 112 126 92 88 224 93 119 130 241 233 243
86 18 2 1 1 189 112 126 190 113 127 241 233 227 243 121 132 242 234 244
87 18 2 1 1 190 113 127 161 35 39 242 234 230 244 123 134 181 177 182
88 18 2 1 1 19 15 3 126 112 59 93 21 130 18 119 61 243 131 124
89 18 2 1 1 126 112 59 127 113 60 243 131 132 124 121 62 244 133 125
90 18 2 1 1 127 113 60 39 35 7 244 133 134 125 123 63 182 41 38
$EndElements
