$MeshFormat
2.2 0 8
$EndMeshFormat
$Nodes
89
1 0 0 0
2 0 0 5e-05
3 0 0 0.0001
4 0 0 0.00015
5 0 0 0.0002
6 0 0.0003333333333333333 0
7 0 0.0003333333333333333 5e-05
8 0 0.0003333333333333333 0.0001
9 0 0.0003333333333333333 0.00015
10 0 0.0003333333333333333 0.0002
11 0 0.0006666666666666666 0
12 0 0.0006666666666666666 5e-05
13 0 0.0006666666666666666 0.0001
14 0 0.0006666666666666666 0.00015
15 0 0.0006666666666666666 0.0002
16 0 0.001 0
17 0 0.001 5e-05
18 0 0.001 0.0001
19 0 0.001 0.00015
20 0 0.001 0.0002
21 0.0003333333333333333 0 0
22 0.0003333333333333333 0 5e-05
23 0.0003333333333333333 0 0.0001
24 0.0003333333333333333 0 0.00015
25 0.0003333333333333333 0 0.0002
26 0.0003333333333333333 0.0003333333333333333 0
27 0.0003333333333333333 0.0003333333333333333 5e-05
28 0.0003333333333333333 0.0003333333333333333 0.0001
29 0.0003333333333333333 0.0003333333333333333 0.00015
30 0.0003333333333333333 0.0003333333333333333 0.0002
31 0.0003333333333333333 0.0006666666666666666 0
32 0.0003333333333333333 0.0006666666666666666 5e-05
33 0.0003333333333333333 0.0006666666666666666 0.0001
34 0.0003333333333333333 0.0006666666666666666 0.00015
35 0.0003333333333333333 0.0006666666666666666 0.0002
36 0.0003333333333333333 0.001 0
37 0.0003333333333333333 0.001 5e-05
38 0.0003333333333333333 0.001 0.0001
39 0.0003333333333333333 0.001 0.00015
40 0.0003333333333333333 0.001 0.0002
41 0.0006666666666666666 0 0
42 0.0006666666666666666 0 5e-05
43 0.0006666666666666666 0 0.0001
44 0.0006666666666666666 0 0.00015
45 0.0006666666666666666 0 0.0002
46 0.0006666666666666666 0.0003333333333333333 0
47 0.0006666666666666666 0.0003333333333333333 5e-05
48 0.0006666666666666666 0.0003333333333333333 0.0001
49 0.0006666666666666666 0.0003333333333333333 0.00015
50 0.0006666666666666666 0.0003333333333333333 0.0002
51 0.0006666666666666666 0.0006666666666666666 0
52 0.0006666666666666666 0.0006666666666666666 5e-05
53 0.0006666666666666666 0.0006666666666666666 0.0001
54 0.0006666666666666666 0.0006666666666666666 0.00015
55 0.0006666666666666666 0.0006666666666666666 0.0002
56 0.0006666666666666666 0.001 0
57 0.0006666666666666666 0.001 5e-05
58 0.0006666666666666666 0.001 0.0001
59 0.0006666666666666666 0.001 0.00015
60 0.0006666666666666666 0.001 0.0002
61 0.001 0 0
62 0.001 0 5e-05
63 0.001 0 0.0001
64 0.001 0 0.00015
65 0.001 0 0.0002
66 0.001 0.0003333333333333333 0
67 0.001 0.0003333333333333333 5e-05
68 0.001 0.0003333333333333333 0.0001
69 0.001 0.0003333333333333333 0.00015
70 0.001 0.0003333333333333333 0.0002
71 0.001 0.0006666666666666666 0
72 0.001 0.0006666666666666666 5e-05
73 0.001 0.0006666666666666666 0.0001
74 0.001 0.0006666666666666666 0.00015
75 0.001 0.0006666666666666666 0.0002
76 0.001 0.001 0
77 0.001 0.001 5e-05
78 0.001 0.001 0.0001
79 0.001 0.001 0.00015
80 0.001 0.001 0.0002
81 0.0001666666666666667 0.0001666666666666667 0.000125
82 0.0001666666666666667 0.0005 0.000125
83 0.0001666666666666667 0.0008333333333333334 0.000125
84 0.0005 0.0001666666666666667 0.000125
85 0.0005 0.0005 0.000125
86 0.0005 0.0008333333333333334 0.000125
87 0.0008333333333333333 0.0001666666666666667 0.000125
88 0.0008333333333333333 0.0005 0.000125
89 0.0008333333333333333 0.0008333333333333334 0.000125
$EndNodes
$Elements
198
1 5 2 1 1 1 21 26 6 2 22 27 7
2 5 2 1 1 2 22 27 7 3 23 28 8
3 5 2 1 1 6 26 31 11 7 27 32 12
4 5 2 1 1 7 27 32 12 8 28 33 13
5 5 2 1 1 11 31 36 16 12 32 37 17
6 5 2 1 1 12 32 37 17 13 33 38 18
7 5 2 1 1 21 41 46 26 22 42 47 27
8 5 2 1 1 22 42 47 27 23 43 48 28
9 5 2 1 1 26 46 51 31 27 47 52 32
10 5 2 1 1 27 47 52 32 28 48 53 33
11 5 2 1 1 31 51 56 36 32 52 57 37
12 5 2 1 1 32 52 57 37 33 53 58 38
13 5 2 1 1 41 61 66 46 42 62 67 47
14 5 2 1 1 42 62 67 47 43 63 68 48
15 5 2 1 1 46 66 71 51 47 67 72 52
16 5 2 1 1 47 67 72 52 48 68 73 53
17 5 2 1 1 51 71 76 56 52 72 77 57
18 5 2 1 1 52 72 77 57 53 73 78 58
19 7 2 2 2 3 23 28 8 81
20 4 2 3 3 3 8 9 81
21 4 2 3 3 3 9 4 81
22 4 2 3 3 23 28 29 81
23 4 2 3 3 23 29 24 81
24 4 2 3 3 3 23 24 81
25 4 2 3 3 3 24 4 81
26 4 2 3 3 8 28 29 81
27 4 2 3 3 8 29 9 81
28 4 2 3 3 4 24 29 81
29 4 2 3 3 4 29 9 81
30 7 2 2 2 8 28 33 13 82
31 4 2 3 3 8 13 14 82
32 4 2 3 3 8 14 9 82
33 4 2 3 3 28 33 34 82
34 4 2 3 3 28 34 29 82
35 4 2 3 3 8 28 29 82
36 4 2 3 3 8 29 9 82
37 4 2 3 3 13 33 34 82
38 4 2 3 3 13 34 14 82
39 4 2 3 3 9 29 34 82
40 4 2 3 3 9 34 14 82
41 7 2 2 2 13 33 38 18 83
42 4 2 3 3 13 18 19 83
43 4 2 3 3 13 19 14 83
44 4 2 3 3 33 38 39 83
45 4 2 3 3 33 39 34 83
46 4 2 3 3 13 33 34 83
47 4 2 3 3 13 34 14 83
48 4 2 3 3 18 38 39 83
49 4 2 3 3 18 39 19 83
50 4 2 3 3 14 34 39 83
51 4 2 3 3 14 39 19 83
52 7 2 2 2 23 43 48 28 84
53 4 2 3 3 23 28 29 84
54 4 2 3 3 23 29 24 84
55 4 2 3 3 43 48 49 84
56 4 2 3 3 43 49 44 84
57 4 2 3 3 23 43 44 84
58 4 2 3 3 23 44 24 84
59 4 2 3 3 28 48 49 84
60 4 2 3 3 28 49 29 84
61 4 2 3 3 24 44 49 84
62 4 2 3 3 24 49 29 84
63 7 2 2 2 28 48 53 33 85
64 4 2 3 3 28 33 34 85
65 4 2 3 3 28 34 29 85
66 4 2 3 3 48 53 54 85
67 4 2 3 3 48 54 49 85
68 4 2 3 3 28 48 49 85
69 4 2 3 3 28 49 29 85
70 4 2 3 3 33 53 54 85
71 4 2 3 3 33 54 34 85
72 4 2 3 3 29 49 54 85
73 4 2 3 3 29 54 34 85
74 7 2 2 2 33 53 58 38 86
75 4 2 3 3 33 38 39 86
76 4 2 3 3 33 39 34 86
77 4 2 3 3 53 58 59 86
78 4 2 3 3 53 59 54 86
79 4 2 3 3 33 53 54 86
80 4 2 3 3 33 54 34 86
81 4 2 3 3 38 58 59 86
82 4 2 3 3 38 59 39 86
83 4 2 3 3 34 54 59 86
84 4 2 3 3 34 59 39 86
85 7 2 2 2 43 63 68 48 87
86 4 2 3 3 43 48 49 87
87 4 2 3 3 43 49 44 87
88 4 2 3 3 63 68 69 87
89 4 2 3 3 63 69 64 87
90 4 2 3 3 43 63 64 87
91 4 2 3 3 43 64 44 87
92 4 2 3 3 48 68 69 87
93 4 2 3 3 48 69 49 87
94 4 2 3 3 44 64 69 87
95 4 2 3 3 44 69 49 87
96 7 2 2 2 48 68 73 53 88
97 4 2 3 3 48 53 54 88
98 4 2 3 3 48 54 49 88
99 4 2 3 3 68 73 74 88
100 4 2 3 3 68 74 69 88
101 4 2 3 3 48 68 69 88
102 4 2 3 3 48 69 49 88
103 4 2 3 3 53 73 74 88
104 4 2 3 3 53 74 54 88
105 4 2 3 3 49 69 74 88
106 4 2 3 3 49 74 54 88
107 7 2 2 2 53 73 78 58 89
108 4 2 3 3 53 58 59 89
109 4 2 3 3 53 59 54 89
110 4 2 3 3 73 78 79 89
111 4 2 3 3 73 79 74 89
112 4 2 3 3 53 73 74 89
113 4 2 3 3 53 74 54 89
114 4 2 3 3 58 78 79 89
115 4 2 3 3 58 79 59 89
116 4 2 3 3 54 74 79 89
117 4 2 3 3 54 79 59 89
118 4 2 3 3 4 24 29 30
119 4 2 3 3 4 24 30 25
120 4 2 3 3 4 25 30 5
121 4 2 3 3 4 29 9 10
122 4 2 3 3 4 29 10 30
123 4 2 3 3 4 30 10 5
124 4 2 3 3 9 29 34 35
125 4 2 3 3 9 29 35 30
126 4 2 3 3 9 30 35 10
127 4 2 3 3 9 34 14 15
128 4 2 3 3 9 34 15 35
129 4 2 3 3 9 35 15 10
130 4 2 3 3 14 34 39 40
131 4 2 3 3 14 34 40 35
132 4 2 3 3 14 35 40 15
133 4 2 3 3 14 39 19 20
134 4 2 3 3 14 39 20 40
135 4 2 3 3 14 40 20 15
136 4 2 3 3 24 44 49 50
137 4 2 3 3 24 44 50 45
138 4 2 3 3 24 45 50 25
139 4 2 3 3 24 49 29 30
140 4 2 3 3 24 49 30 50
141 4 2 3 3 24 50 30 25
142 4 2 3 3 29 49 54 55
143 4 2 3 3 29 49 55 50
144 4 2 3 3 29 50 55 30
145 4 2 3 3 29 54 34 35
146 4 2 3 3 29 54 35 55
147 4 2 3 3 29 55 35 30
148 4 2 3 3 34 54 59 60
149 4 2 3 3 34 54 60 55
150 4 2 3 3 34 55 60 35
151 4 2 3 3 34 59 39 40
152 4 2 3 3 34 59 40 60
153 4 2 3 3 34 60 40 35
154 4 2 3 3 44 64 69 70
155 4 2 3 3 44 64 70 65
156 4 2 3 3 44 65 70 45
157 4 2 3 3 44 69 49 50
158 4 2 3 3 44 69 50 70
159 4 2 3 3 44 70 50 45
160 4 2 3 3 49 69 74 75
161 4 2 3 3 49 69 75 70
162 4 2 3 3 49 70 75 50
163 4 2 3 3 49 74 54 55
164 4 2 3 3 49 74 55 75
165 4 2 3 3 49 75 55 50
166 4 2 3 3 54 74 79 80
167 4 2 3 3 54 74 80 75
168 4 2 3 3 54 75 80 55
169 4 2 3 3 54 79 59 60
170 4 2 3 3 54 79 60 80
171 4 2 3 3 54 80 60 55
172 3 2 10 10 1 21 26 6
173 2 2 11 11 5 25 30
174 2 2 11 11 5 30 10
175 3 2 10 10 6 26 31 11
176 2 2 11 11 10 30 35
177 2 2 11 11 10 35 15
178 3 2 10 10 11 31 36 16
179 2 2 11 11 15 35 40
180 2 2 11 11 15 40 20
181 3 2 10 10 21 41 46 26
182 2 2 11 11 25 45 50
183 2 2 11 11 25 50 30
184 3 2 10 10 26 46 51 31
185 2 2 11 11 30 50 55
186 2 2 11 11 30 55 35
187 3 2 10 10 31 51 56 36
188 2 2 11 11 35 55 60
189 2 2 11 11 35 60 40
190 3 2 10 10 41 61 66 46
191 2 2 11 11 45 65 70
192 2 2 11 11 45 70 50
193 3 2 10 10 46 66 71 51
194 2 2 11 11 50 70 75
195 2 2 11 11 50 75 55
196 3 2 10 10 51 71 76 56
197 2 2 11 11 55 75 80
198 2 2 11 11 55 80 60
$EndElements
