$MeshFormat
2.2 0 8
$EndMeshFormat
$Nodes
335
1 0 0 0
2 0.001 0 0
3 0.001 0.001 0
4 0 0.001 0
5 0 0 0.0002
6 0.001 0 0.0002
7 0.001 0.001 0.0002
8 0 0.001 0.0002
9 0.0002499999999994609 0 0
10 0.0004999999999987165 0 0
11 0.0007499999999993478 0 0
12 0.0001249999999997854 0 0
13 0.000374999999999089 0 0
14 0.0006249999999990682 0 0
15 0.0008749999999996254 0 0
16 0.001 0.0002499999999994609 0
17 0.001 0.0004999999999987165 0
18 0.001 0.0007499999999993478 0
19 0.001 0.0001249999999997854 0
20 0.001 0.000374999999999089 0
21 0.001 0.0006249999999990682 0
22 0.001 0.0008749999999996254 0
23 0.0007500000000003918 0.001 0
24 0.0005000000000012286 0.001 0
25 0.0002500000000006249 0.001 0
26 0.0008750000000000333 0.001 0
27 0.0006250000000007871 0.001 0
28 0.0003750000000009903 0.001 0
29 0.000125000000000223 0.001 0
30 0 0.0007500000000003918 0
31 0 0.0005000000000012286 0
32 0 0.0002500000000006249 0
33 0 0.0008750000000000333 0
34 0 0.0006250000000007871 0
35 0 0.0003750000000009903 0
36 0 0.000125000000000223 0
37 0.0002499999999994609 0 0.0002
38 0.0004999999999987165 0 0.0002
39 0.0007499999999993478 0 0.0002
40 0.0001249999999997854 0 0.0002
41 0.000374999999999089 0 0.0002
42 0.0006249999999990682 0 0.0002
43 0.0008749999999996254 0 0.0002
44 0.001 0.0002499999999994609 0.0002
45 0.001 0.0004999999999987165 0.0002
46 0.001 0.0007499999999993478 0.0002
47 0.001 0.0001249999999997854 0.0002
48 0.001 0.000374999999999089 0.0002
49 0.001 0.0006249999999990682 0.0002
50 0.001 0.0008749999999996254 0.0002
51 0.0007500000000003918 0.001 0.0002
52 0.0005000000000012286 0.001 0.0002
53 0.0002500000000006249 0.001 0.0002
54 0.0008750000000000333 0.001 0.0002
55 0.0006250000000007871 0.001 0.0002
56 0.0003750000000009903 0.001 0.0002
57 0.000125000000000223 0.001 0.0002
58 0 0.0007500000000003918 0.0002
59 0 0.0005000000000012286 0.0002
60 0 0.0002500000000006249 0.0002
61 0 0.0008750000000000333 0.0002
62 0 0.0006250000000007871 0.0002
63 0 0.0003750000000009903 0.0002
64 0 0.000125000000000223 0.0002
65 0 0 6.666666666666667e-05
66 0 0 0.0001333333333333333
67 0 0 3.33333333333504e-05
68 0 0 9.999999999989539e-05
69 0 0 0.0001666666666666667
70 0.001 0 6.666666666666667e-05
71 0.001 0 0.0001333333333333333
72 0.001 0 3.33333333333504e-05
73 0.001 0 9.999999999989539e-05
74 0.001 0 0.0001666666666666667
75 0.001 0.001 6.666666666666667e-05
76 0.001 0.001 0.0001333333333333333
77 0.001 0.001 3.33333333333504e-05
78 0.001 0.001 9.999999999989539e-05
79 0.001 0.001 0.0001666666666666667
80 0 0.001 6.666666666666667e-05
81 0 0.001 0.0001333333333333333
82 0 0.001 3.33333333333504e-05
83 0 0.001 9.999999999989539e-05
84 0 0.001 0.0001666666666666667
85 0.0002499999999997519 0.0002500000000003339 0
86 0.0002500000000000429 0.0005000000000006007 0
87 0.0002500000000003339 0.0007500000000001309 0
88 0.0004999999999993445 0.0002500000000000429 0
89 0.0004999999999999726 0.0004999999999999726 0
90 0.0005000000000006005 0.0007499999999998698 0
91 0.0007499999999996087 0.0002499999999997519 0
92 0.0007499999999998698 0.0004999999999993444 0
93 0.0007500000000001307 0.0007499999999996089 0
94 0.0002499999999996064 0.000125000000000167 0
95 0.000124999999999876 0.0002500000000004794 0
96 0.0002499999999998974 0.0003750000000004673 0
97 0.0001250000000000215 0.0005000000000009146 0
98 0.0002500000000001884 0.0006250000000003657 0
99 0.000125000000000167 0.0007500000000002613 0
100 0.0002500000000004794 0.0008750000000000654 0
101 0.0004999999999990305 0.0001250000000000215 0
102 0.0003749999999995482 0.0002500000000001884 0
103 0.0004999999999996585 0.0003750000000000078 0
104 0.0003750000000000078 0.0005000000000002867 0
105 0.0005000000000002866 0.0006249999999999212 0
106 0.0003750000000004672 0.0007500000000000003 0
107 0.0005000000000009146 0.0008749999999999349 0
108 0.0007499999999994783 0.000124999999999876 0
109 0.0006249999999994767 0.0002499999999998974 0
110 0.0007499999999997393 0.0003749999999995482 0
111 0.0006249999999999212 0.0004999999999996585 0
112 0.0007500000000000002 0.0006249999999994767 0
113 0.0006250000000003656 0.0007499999999997394 0
114 0.0007500000000002613 0.0008749999999998045 0
115 0.0008749999999998043 0.0002499999999996064 0
116 0.0008749999999999349 0.0004999999999990305 0
117 0.0008750000000000654 0.0007499999999994783 0
118 0.0002499999999994609 0 6.666666666666667e-05
119 0.0002499999999994609 0 0.0001333333333333333
120 0.0004999999999987165 0 6.666666666666667e-05
121 0.0004999999999987165 0 0.0001333333333333333
122 0.0007499999999993478 0 6.666666666666667e-05
123 0.0007499999999993478 0 0.0001333333333333333
124 0.0002499999999994609 0 3.333333333333334e-05
125 0.0001249999999997305 0 6.666666666666667e-05
126 0.0002499999999994609 0 0.0001
127 0.0001249999999997305 0 0.0001333333333333333
128 0.0002499999999994609 0 0.0001666666666666667
129 0.0004999999999987165 0 3.333333333333334e-05
130 0.0003749999999990887 0 6.666666666666668e-05
131 0.0004999999999987165 0 0.0001
132 0.0003749999999990887 0 0.0001333333333333333
133 0.0004999999999987165 0 0.0001666666666666667
134 0.0007499999999993478 0 3.333333333333334e-05
135 0.0006249999999990321 0 6.666666666666668e-05
136 0.0007499999999993478 0 0.0001
137 0.0006249999999990321 0 0.0001333333333333333
138 0.0007499999999993478 0 0.0001666666666666667
139 0.0008749999999996738 0 6.666666666666668e-05
140 0.0008749999999996738 0 0.0001333333333333333
141 0.001 0.0002499999999994609 6.666666666666667e-05
142 0.001 0.0002499999999994609 0.0001333333333333333
143 0.001 0.0004999999999987165 6.666666666666667e-05
144 0.001 0.0004999999999987165 0.0001333333333333333
145 0.001 0.0007499999999993478 6.666666666666667e-05
146 0.001 0.0007499999999993478 0.0001333333333333333
147 0.001 0.0002499999999994609 3.333333333333334e-05
148 0.001 0.0001249999999997305 6.666666666666667e-05
149 0.001 0.0002499999999994609 0.0001
150 0.001 0.0001249999999997305 0.0001333333333333333
151 0.001 0.0002499999999994609 0.0001666666666666667
152 0.001 0.0004999999999987165 3.333333333333334e-05
153 0.001 0.0003749999999990887 6.666666666666668e-05
154 0.001 0.0004999999999987165 0.0001
155 0.001 0.0003749999999990887 0.0001333333333333333
156 0.001 0.0004999999999987165 0.0001666666666666667
157 0.001 0.0007499999999993478 3.333333333333334e-05
158 0.001 0.0006249999999990321 6.666666666666668e-05
159 0.001 0.0007499999999993478 0.0001
160 0.001 0.0006249999999990321 0.0001333333333333333
161 0.001 0.0007499999999993478 0.0001666666666666667
162 0.001 0.0008749999999996738 6.666666666666668e-05
163 0.001 0.0008749999999996738 0.0001333333333333333
164 0.0007500000000003918 0.001 6.666666666666667e-05
165 0.0007500000000003918 0.001 0.0001333333333333333
166 0.0005000000000012286 0.001 6.666666666666667e-05
167 0.0005000000000012286 0.001 0.0001333333333333333
168 0.0002500000000006249 0.001 6.666666666666667e-05
169 0.0002500000000006249 0.001 0.0001333333333333333
170 0.0007500000000003918 0.001 3.333333333333334e-05
171 0.0008750000000001959 0.001 6.666666666666667e-05
172 0.0007500000000003918 0.001 0.0001
173 0.0008750000000001959 0.001 0.0001333333333333333
174 0.0007500000000003918 0.001 0.0001666666666666667
175 0.0005000000000012286 0.001 3.333333333333334e-05
176 0.0006250000000008102 0.001 6.666666666666668e-05
177 0.0005000000000012286 0.001 0.0001
178 0.0006250000000008102 0.001 0.0001333333333333333
179 0.0005000000000012286 0.001 0.0001666666666666667
180 0.0002500000000006249 0.001 3.333333333333334e-05
181 0.0003750000000009268 0.001 6.666666666666668e-05
182 0.0002500000000006249 0.001 0.0001
183 0.0003750000000009268 0.001 0.0001333333333333333
184 0.0002500000000006249 0.001 0.0001666666666666667
185 0.0001250000000003125 0.001 6.666666666666668e-05
186 0.0001250000000003125 0.001 0.0001333333333333333
187 0 0.0007500000000003918 6.666666666666667e-05
188 0 0.0007500000000003918 0.0001333333333333333
189 0 0.0005000000000012286 6.666666666666667e-05
190 0 0.0005000000000012286 0.0001333333333333333
191 0 0.0002500000000006249 6.666666666666667e-05
192 0 0.0002500000000006249 0.0001333333333333333
193 0 0.0007500000000003918 3.333333333333334e-05
194 0 0.0008750000000001959 6.666666666666667e-05
195 0 0.0007500000000003918 0.0001
196 0 0.0008750000000001959 0.0001333333333333333
197 0 0.0007500000000003918 0.0001666666666666667
198 0 0.0005000000000012286 3.333333333333334e-05
199 0 0.0006250000000008102 6.666666666666668e-05
200 0 0.0005000000000012286 0.0001
201 0 0.0006250000000008102 0.0001333333333333333
202 0 0.0005000000000012286 0.0001666666666666667
203 0 0.0002500000000006249 3.333333333333334e-05
204 0 0.0003750000000009268 6.666666666666668e-05
205 0 0.0002500000000006249 0.0001
206 0 0.0003750000000009268 0.0001333333333333333
207 0 0.0002500000000006249 0.0001666666666666667
208 0 0.0001250000000003125 6.666666666666668e-05
209 0 0.0001250000000003125 0.0001333333333333333
210 0.0002499999999997519 0.0002500000000003339 0.0002
211 0.0002500000000000429 0.0005000000000006007 0.0002
212 0.0002500000000003339 0.0007500000000001309 0.0002
213 0.0004999999999993445 0.0002500000000000429 0.0002
214 0.0004999999999999726 0.0004999999999999726 0.0002
215 0.0005000000000006005 0.0007499999999998698 0.0002
216 0.0007499999999996087 0.0002499999999997519 0.0002
217 0.0007499999999998698 0.0004999999999993444 0.0002
218 0.0007500000000001307 0.0007499999999996089 0.0002
219 0.0002499999999996064 0.000125000000000167 0.0002
220 0.000124999999999876 0.0002500000000004794 0.0002
221 0.0002499999999998974 0.0003750000000004673 0.0002
222 0.0001250000000000215 0.0005000000000009146 0.0002
223 0.0002500000000001884 0.0006250000000003657 0.0002
224 0.000125000000000167 0.0007500000000002613 0.0002
225 0.0002500000000004794 0.0008750000000000654 0.0002
226 0.0004999999999990305 0.0001250000000000215 0.0002
227 0.0003749999999995482 0.0002500000000001884 0.0002
228 0.0004999999999996585 0.0003750000000000078 0.0002
229 0.0003750000000000078 0.0005000000000002867 0.0002
230 0.0005000000000002866 0.0006249999999999212 0.0002
231 0.0003750000000004672 0.0007500000000000003 0.0002
232 0.0005000000000009146 0.0008749999999999349 0.0002
233 0.0007499999999994783 0.000124999999999876 0.0002
234 0.0006249999999994767 0.0002499999999998974 0.0002
235 0.0007499999999997393 0.0003749999999995482 0.0002
236 0.0006249999999999212 0.0004999999999996585 0.0002
237 0.0007500000000000002 0.0006249999999994767 0.0002
238 0.0006250000000003656 0.0007499999999997394 0.0002
239 0.0007500000000002613 0.0008749999999998045 0.0002
240 0.0008749999999998043 0.0002499999999996064 0.0002
241 0.0008749999999999349 0.0004999999999990305 0.0002
242 0.0008750000000000654 0.0007499999999994783 0.0002
243 0.0002499999999997519 0.0002500000000003339 6.666666666666667e-05
244 0.0002499999999997519 0.0002500000000003339 0.0001333333333333333
245 0.0002500000000000429 0.0005000000000006007 6.666666666666667e-05
246 0.0002500000000000429 0.0005000000000006007 0.0001333333333333333
247 0.0002500000000003339 0.0007500000000001309 6.666666666666667e-05
248 0.0002500000000003339 0.0007500000000001309 0.0001333333333333333
249 0.0004999999999993445 0.0002500000000000429 6.666666666666667e-05
250 0.0004999999999993445 0.0002500000000000429 0.0001333333333333333
251 0.0004999999999999726 0.0004999999999999726 6.666666666666667e-05
252 0.0004999999999999726 0.0004999999999999726 0.0001333333333333333
253 0.0005000000000006005 0.0007499999999998698 6.666666666666667e-05
254 0.0005000000000006005 0.0007499999999998698 0.0001333333333333333
255 0.0007499999999996087 0.0002499999999997519 6.666666666666667e-05
256 0.0007499999999996087 0.0002499999999997519 0.0001333333333333333
257 0.0007499999999998698 0.0004999999999993444 6.666666666666667e-05
258 0.0007499999999998698 0.0004999999999993444 0.0001333333333333333
259 0.0007500000000001307 0.0007499999999996089 6.666666666666667e-05
260 0.0007500000000001307 0.0007499999999996089 0.0001333333333333333
261 0.0002499999999997519 0.0002500000000003339 3.333333333333333e-05
262 0.0002499999999996064 0.000125000000000167 6.666666666666667e-05
263 0.000124999999999876 0.0002500000000004794 6.666666666666667e-05
264 0.0002499999999997519 0.0002500000000003339 0.0001
265 0.0002499999999996064 0.000125000000000167 0.0001333333333333333
266 0.000124999999999876 0.0002500000000004794 0.0001333333333333333
267 0.0002499999999997519 0.0002500000000003339 0.0001666666666666667
268 0.0002500000000000429 0.0005000000000006007 3.333333333333333e-05
269 0.0002499999999998974 0.0003750000000004673 6.666666666666667e-05
270 0.0001250000000000215 0.0005000000000009146 6.666666666666667e-05
271 0.0002500000000000429 0.0005000000000006007 0.0001
272 0.0002499999999998974 0.0003750000000004673 0.0001333333333333333
273 0.0001250000000000215 0.0005000000000009146 0.0001333333333333333
274 0.0002500000000000429 0.0005000000000006007 0.0001666666666666667
275 0.0002500000000003339 0.0007500000000001309 3.333333333333333e-05
276 0.0002500000000001884 0.0006250000000003657 6.666666666666667e-05
277 0.000125000000000167 0.0007500000000002613 6.666666666666667e-05
278 0.0002500000000003339 0.0007500000000001309 0.0001
279 0.0002500000000001884 0.0006250000000003657 0.0001333333333333333
280 0.000125000000000167 0.0007500000000002613 0.0001333333333333333
281 0.0002500000000003339 0.0007500000000001309 0.0001666666666666667
282 0.0002500000000004794 0.0008750000000000654 6.666666666666667e-05
283 0.0002500000000004794 0.0008750000000000654 0.0001333333333333333
284 0.0004999999999993445 0.0002500000000000429 3.333333333333333e-05
285 0.0004999999999990305 0.0001250000000000215 6.666666666666667e-05
286 0.0003749999999995482 0.0002500000000001884 6.666666666666667e-05
287 0.0004999999999993445 0.0002500000000000429 0.0001
288 0.0004999999999990305 0.0001250000000000215 0.0001333333333333333
289 0.0003749999999995482 0.0002500000000001884 0.0001333333333333333
290 0.0004999999999993445 0.0002500000000000429 0.0001666666666666667
291 0.0004999999999999726 0.0004999999999999726 3.333333333333333e-05
292 0.0004999999999996585 0.0003750000000000078 6.666666666666667e-05
293 0.0003750000000000078 0.0005000000000002867 6.666666666666667e-05
294 0.0004999999999999726 0.0004999999999999726 0.0001
295 0.0004999999999996585 0.0003750000000000078 0.0001333333333333333
296 0.0003750000000000078 0.0005000000000002867 0.0001333333333333333
297 0.0004999999999999726 0.0004999999999999726 0.0001666666666666667
298 0.0005000000000006005 0.0007499999999998698 3.333333333333333e-05
299 0.0005000000000002866 0.0006249999999999212 6.666666666666667e-05
300 0.0003750000000004672 0.0007500000000000003 6.666666666666667e-05
301 0.0005000000000006005 0.0007499999999998698 0.0001
302 0.0005000000000002866 0.0006249999999999212 0.0001333333333333333
303 0.0003750000000004672 0.0007500000000000003 0.0001333333333333333
304 0.0005000000000006005 0.0007499999999998698 0.0001666666666666667
305 0.0005000000000009146 0.0008749999999999349 6.666666666666667e-05
306 0.0005000000000009146 0.0008749999999999349 0.0001333333333333333
307 0.0007499999999996087 0.0002499999999997519 3.333333333333333e-05
308 0.0007499999999994783 0.000124999999999876 6.666666666666667e-05
309 0.0006249999999994767 0.0002499999999998974 6.666666666666667e-05
310 0.0007499999999996087 0.0002499999999997519 0.0001
311 0.0007499999999994783 0.000124999999999876 0.0001333333333333333
312 0.0006249999999994767 0.0002499999999998974 0.0001333333333333333
313 0.0007499999999996087 0.0002499999999997519 0.0001666666666666667
314 0.0007499999999998698 0.0004999999999993444 3.333333333333333e-05
315 0.0007499999999997393 0.0003749999999995482 6.666666666666667e-05
316 0.0006249999999999212 0.0004999999999996585 6.666666666666667e-05
317 0.0007499999999998698 0.0004999999999993444 0.0001
318 0.0007499999999997393 0.0003749999999995482 0.0001333333333333333
319 0.0006249999999999212 0.0004999999999996585 0.0001333333333333333
320 0.0007499999999998698 0.0004999999999993444 0.0001666666666666667
321 0.0007500000000001307 0.0007499999999996089 3.333333333333333e-05
322 0.0007500000000000002 0.0006249999999994767 6.666666666666667e-05
323 0.0006250000000003656 0.0007499999999997394 6.666666666666667e-05
324 0.0007500000000001307 0.0007499999999996089 0.0001
325 0.0007500000000000002 0.0006249999999994767 0.0001333333333333333
326 0.0006250000000003656 0.0007499999999997394 0.0001333333333333333
327 0.0007500000000001307 0.0007499999999996089 0.0001666666666666667
328 0.0007500000000002613 0.0008749999999998045 6.666666666666667e-05
329 0.0007500000000002613 0.0008749999999998045 0.0001333333333333333
330 0.0008749999999998043 0.0002499999999996064 6.666666666666667e-05
331 0.0008749999999998043 0.0002499999999996064 0.0001333333333333333
332 0.0008749999999999349 0.0004999999999990305 6.666666666666667e-05
333 0.0008749999999999349 0.0004999999999990305 0.0001333333333333333
334 0.0008750000000000654 0.0007499999999994783 6.666666666666667e-05
335 0.0008750000000000654 0.0007499999999994783 0.0001333333333333333
$EndNodes
$Elements
80
1 16 2 10 1 1 9 85 32 12 94 95 36
2 16 2 10 1 32 85 86 31 95 96 97 35
3 16 2 10 1 31 86 87 30 97 98 99 34
4 16 2 10 1 30 87 25 4 99 100 29 33
5 16 2 10 1 9 10 88 85 13 101 102 94
6 16 2 10 1 85 88 89 86 102 103 104 96
7 16 2 10 1 86 89 90 87 104 105 106 98
8 16 2 10 1 87 90 24 25 106 107 28 100
9 16 2 10 1 10 11 91 88 14 108 109 101
10 16 2 10 1 88 91 92 89 109 110 111 103
11 16 2 10 1 89 92 93 90 111 112 113 105
12 16 2 10 1 90 93 23 24 113 114 27 107
13 16 2 10 1 11 2 16 91 15 19 115 108
14 16 2 10 1 91 16 17 92 115 20 116 110
15 16 2 10 1 92 17 18 93 116 21 117 112
16 16 2 10 1 93 18 3 23 117 22 26 114
17 16 2 11 26 5 37 210 60 40 219 220 64
18 16 2 11 26 60 210 211 59 220 221 222 63
19 16 2 11 26 59 211 212 58 222 223 224 62
20 16 2 11 26 58 212 53 8 224 225 57 61
21 16 2 11 26 37 38 213 210 41 226 227 219
22 16 2 11 26 210 213 214 211 227 228 229 221
23 16 2 11 26 211 214 215 212 229 230 231 223
24 16 2 11 26 212 215 52 53 231 232 56 225
25 16 2 11 26 38 39 216 213 42 233 234 226
26 16 2 11 26 213 216 217 214 234 235 236 228
27 16 2 11 26 214 217 218 215 236 237 238 230
28 16 2 11 26 215 218 51 52 238 239 55 232
29 16 2 11 26 39 6 44 216 43 47 240 233
30 16 2 11 26 216 44 45 217 240 48 241 235
31 16 2 11 26 217 45 46 218 241 49 242 237
32 16 2 11 26 218 46 7 51 242 50 54 239
33 17 2 1 1 1 9 85 32 65 118 243 191 12 36 67 94 124 95 261 203 125 208 262 263
34 17 2 1 1 65 118 243 191 66 119 244 192 125 208 68 262 126 263 264 205 127 209 265 266
35 17 2 1 1 66 119 244 192 5 37 210 60 127 209 69 265 128 266 267 207 40 64 219 220
36 17 2 1 1 32 85 86 31 191 243 245 189 95 35 203 96 261 97 268 198 263 204 269 270
37 17 2 1 1 191 243 245 189 192 244 246 190 263 204 205 269 264 270 271 200 266 206 272 273
38 17 2 1 1 192 244 246 190 60 210 211 59 266 206 207 272 267 273 274 202 220 63 221 222
39 17 2 1 1 31 86 87 30 189 245 247 187 97 34 198 98 268 99 275 193 270 199 276 277
40 17 2 1 1 189 245 247 187 190 246 248 188 270 199 200 276 271 277 278 195 273 201 279 280
41 17 2 1 1 190 246 248 188 59 211 212 58 273 201 202 279 274 280 281 197 222 62 223 224
42 17 2 1 1 30 87 25 4 187 247 168 80 99 33 193 100 275 29 180 82 277 194 282 185
43 17 2 1 1 187 247 168 80 188 248 169 81 277 194 195 282 278 185 182 83 280 196 283 186
44 17 2 1 1 188 248 169 81 58 212 53 8 280 196 197 283 281 186 184 84 224 61 225 57
45 17 2 1 1 9 10 88 85 118 120 249 243 13 94 124 101 129 102 284 261 130 262 285 286
46 17 2 1 1 118 120 249 243 119 121 250 244 130 262 126 285 131 286 287 264 132 265 288 289
47 17 2 1 1 119 121 250 244 37 38 213 210 132 265 128 288 133 289 290 267 41 219 226 227
48 17 2 1 1 85 88 89 86 243 249 251 245 102 96 261 103 284 104 291 268 286 269 292 293
49 17 2 1 1 243 249 251 245 244 250 252 246 286 269 264 292 287 293 294 271 289 272 295 296
50 17 2 1 1 244 250 252 246 210 213 214 211 289 272 267 295 290 296 297 274 227 221 228 229
51 17 2 1 1 86 89 90 87 245 251 253 247 104 98 268 105 291 106 298 275 293 276 299 300
52 17 2 1 1 245 251 253 247 246 252 254 248 293 276 271 299 294 300 301 278 296 279 302 303
53 17 2 1 1 246 252 254 248 211 214 215 212 296 279 274 302 297 303 304 281 229 223 230 231
54 17 2 1 1 87 90 24 25 247 253 166 168 106 100 275 107 298 28 175 180 300 282 305 181
55 17 2 1 1 247 253 166 168 248 254 167 169 300 282 278 305 301 181 177 182 303 283 306 183
56 17 2 1 1 248 254 167 169 212 215 52 53 303 283 281 306 304 183 179 184 231 225 232 56
57 17 2 1 1 10 11 91 88 120 122 255 249 14 101 129 108 134 109 307 284 135 285 308 309
58 17 2 1 1 120 122 255 249 121 123 256 250 135 285 131 308 136 309 310 287 137 288 311 312
59 17 2 1 1 121 123 256 250 38 39 216 213 137 288 133 311 138 312 313 290 42 226 233 234
60 17 2 1 1 88 91 92 89 249 255 257 251 109 103 284 110 307 111 314 291 309 292 315 316
61 17 2 1 1 249 255 257 251 250 256 258 252 309 292 287 315 310 316 317 294 312 295 318 319
62 17 2 1 1 250 256 258 252 213 216 217 214 312 295 290 318 313 319 320 297 234 228 235 236
63 17 2 1 1 89 92 93 90 251 257 259 253 111 105 291 112 314 113 321 298 316 299 322 323
64 17 2 1 1 251 257 259 253 252 258 260 254 316 299 294 322 317 323 324 301 319 302 325 326
65 17 2 1 1 252 258 260 254 214 217 218 215 319 302 297 325 320 326 327 304 236 230 237 238
66 17 2 1 1 90 93 23 24 253 259 164 166 113 107 298 114 321 27 170 175 323 305 328 176
67 17 2 1 1 253 259 164 166 254 260 165 167 323 305 301 328 324 176 172 177 326 306 329 178
68 17 2 1 1 254 260 165 167 215 218 51 52 326 306 304 329 327 178 174 179 238 232 239 55
69 17 2 1 1 11 2 16 91 122 70 141 255 15 108 134 19 72 115 147 307 139 308 148 330
70 17 2 1 1 122 70 141 255 123 71 142 256 139 308 136 148 73 330 149 310 140 311 150 331
71 17 2 1 1 123 71 142 256 39 6 44 216 140 311 138 150 74 331 151 313 43 233 47 240
72 17 2 1 1 91 16 17 92 255 141 143 257 115 110 307 20 147 116 152 314 330 315 153 332
73 17 2 1 1 255 141 143 257 256 142 144 258 330 315 310 153 149 332 154 317 331 318 155 333
74 17 2 1 1 256 142 144 258 216 44 45 217 331 318 313 155 151 333 156 320 240 235 48 241
75 17 2 1 1 92 17 18 93 257 143 145 259 116 112 314 21 152 117 157 321 332 322 158 334
76 17 2 1 1 257 143 145 259 258 144 146 260 332 322 317 158 154 334 159 324 333 325 160 335
77 17 2 1 1 258 144 146 260 217 45 46 218 333 325 320 160 156 335 161 327 241 237 49 242
78 17 2 1 1 93 18 3 23 259 145 75 164 117 114 321 22 157 26 77 170 334 328 162 171
79 17 2 1 1 259 145 75 164 260 146 76 165 334 328 324 162 159 171 78 172 335 329 163 173
80 17 2 1 1 260 146 76 165 218 46 7 51 335 329 327 163 161 173 79 174 242 239 50 54
$EndElements
