$MeshFormat
2.2 0 8
$EndMeshFormat
$Nodes
567
1 0 0 0
2 0.001 0 0
3 0.001 0.001 0
4 0 0.001 0
5 0.0002499999999994609 0 0
6 0.0004999999999987165 0 0
7 0.0007499999999993478 0 0
8 0.0001249999999997854 0 0
9 0.000374999999999089 0 0
10 0.0006249999999990682 0 0
11 0.0008749999999996254 0 0
12 0.001 0.0002499999999994609 0
13 0.001 0.0004999999999987165 0
14 0.001 0.0007499999999993478 0
15 0.001 0.0001249999999997854 0
16 0.001 0.000374999999999089 0
17 0.001 0.0006249999999990682 0
18 0.001 0.0008749999999996254 0
19 0.0007500000000003918 0.001 0
20 0.0005000000000012286 0.001 0
21 0.0002500000000006249 0.001 0
22 0.0008750000000000333 0.001 0
23 0.0006250000000007871 0.001 0
24 0.0003750000000009903 0.001 0
25 0.000125000000000223 0.001 0
26 0 0.0007500000000003918 0
27 0 0.0005000000000012286 0
28 0 0.0002500000000006249 0
29 0 0.0008750000000000333 0
30 0 0.0006250000000007871 0
31 0 0.0003750000000009903 0
32 0 0.000125000000000223 0
33 0.0002499999999997519 0.0002500000000003339 0
34 0.0002500000000000429 0.0005000000000006007 0
35 0.0002500000000003339 0.0007500000000001309 0
36 0.0004999999999993445 0.0002500000000000429 0
37 0.0004999999999999726 0.0004999999999999726 0
38 0.0005000000000006005 0.0007499999999998698 0
39 0.0007499999999996087 0.0002499999999997519 0
40 0.0007499999999998698 0.0004999999999993444 0
41 0.0007500000000001307 0.0007499999999996089 0
42 0.0002499999999996064 0.000125000000000167 0
43 0.000124999999999876 0.0002500000000004794 0
44 0.0001249999999998307 0.000125000000000195 0
45 0.0002499999999998974 0.0003750000000004673 0
46 0.0001250000000000215 0.0005000000000009146 0
47 0.0001249999999999487 0.0003750000000007288 0
48 0.0002500000000001884 0.0006250000000003657 0
49 0.000125000000000167 0.0007500000000002613 0
50 0.0001250000000000942 0.0006250000000005765 0
51 0.0002500000000004794 0.0008750000000000654 0
52 0.000125000000000195 0.0008750000000000493 0
53 0.0004999999999990305 0.0001250000000000215 0
54 0.0003749999999995482 0.0002500000000001884 0
55 0.0003749999999993186 0.0001250000000000942 0
56 0.0004999999999996585 0.0003750000000000078 0
57 0.0003750000000000078 0.0005000000000002867 0
58 0.000374999999999778 0.0003750000000002376 0
59 0.0005000000000002866 0.0006249999999999212 0
60 0.0003750000000004672 0.0007500000000000003 0
61 0.0003750000000002375 0.0006250000000001435 0
62 0.0005000000000009146 0.0008749999999999349 0
63 0.0003750000000007288 0.0008750000000000001 0
64 0.0007499999999994783 0.000124999999999876 0
65 0.0006249999999994767 0.0002499999999998974 0
66 0.0006249999999992724 0.0001249999999999487 0
67 0.0007499999999997393 0.0003749999999995482 0
68 0.0006249999999999212 0.0004999999999996585 0
69 0.0006249999999996989 0.000374999999999778 0
70 0.0007500000000000002 0.0006249999999994767 0
71 0.0006250000000003656 0.0007499999999997394 0
72 0.0006250000000001433 0.0006249999999996989 0
73 0.0007500000000002613 0.0008749999999998045 0
74 0.0006250000000005764 0.0008749999999998697 0
75 0.0008749999999998043 0.0002499999999996064 0
76 0.000874999999999715 0.0001249999999998307 0
77 0.0008749999999999349 0.0004999999999990305 0
78 0.0008749999999998696 0.0003749999999993186 0
79 0.0008750000000000654 0.0007499999999994783 0
80 0.0008750000000000001 0.0006249999999992724 0
81 0.0008750000000000493 0.000874999999999715 0
82 0 0 0.0002
83 0.001 0 0.0002
84 0.001 0.001 0.0002
85 0 0.001 0.0002
86 0.0002499999999994609 0 0.0002
87 0.0004999999999987165 0 0.0002
88 0.0007499999999993478 0 0.0002
89 0.0001249999999997854 0 0.0002
90 0.000374999999999089 0 0.0002
91 0.0006249999999990682 0 0.0002
92 0.0008749999999996254 0 0.0002
93 0.001 0.0002499999999994609 0.0002
94 0.001 0.0004999999999987165 0.0002
95 0.001 0.0007499999999993478 0.0002
96 0.001 0.0001249999999997854 0.0002
97 0.001 0.000374999999999089 0.0002
98 0.001 0.0006249999999990682 0.0002
99 0.001 0.0008749999999996254 0.0002
100 0.0007500000000003918 0.001 0.0002
101 0.0005000000000012286 0.001 0.0002
102 0.0002500000000006249 0.001 0.0002
103 0.0008750000000000333 0.001 0.0002
104 0.0006250000000007871 0.001 0.0002
105 0.0003750000000009903 0.001 0.0002
106 0.000125000000000223 0.001 0.0002
107 0 0.0007500000000003918 0.0002
108 0 0.0005000000000012286 0.0002
109 0 0.0002500000000006249 0.0002
110 0 0.0008750000000000333 0.0002
111 0 0.0006250000000007871 0.0002
112 0 0.0003750000000009903 0.0002
113 0 0.000125000000000223 0.0002
114 0.0002499999999997519 0.0002500000000003339 0.0002
115 0.0002500000000000429 0.0005000000000006007 0.0002
116 0.0002500000000003339 0.0007500000000001309 0.0002
117 0.0004999999999993445 0.0002500000000000429 0.0002
118 0.0004999999999999726 0.0004999999999999726 0.0002
119 0.0005000000000006005 0.0007499999999998698 0.0002
120 0.0007499999999996087 0.0002499999999997519 0.0002
121 0.0007499999999998698 0.0004999999999993444 0.0002
122 0.0007500000000001307 0.0007499999999996089 0.0002
123 0.0002499999999996064 0.000125000000000167 0.0002
124 0.000124999999999876 0.0002500000000004794 0.0002
125 0.0001249999999998307 0.000125000000000195 0.0002
126 0.0002499999999998974 0.0003750000000004673 0.0002
127 0.0001250000000000215 0.0005000000000009146 0.0002
128 0.0001249999999999487 0.0003750000000007288 0.0002
129 0.0002500000000001884 0.0006250000000003657 0.0002
130 0.000125000000000167 0.0007500000000002613 0.0002
131 0.0001250000000000942 0.0006250000000005765 0.0002
132 0.0002500000000004794 0.0008750000000000654 0.0002
133 0.000125000000000195 0.0008750000000000493 0.0002
134 0.0004999999999990305 0.0001250000000000215 0.0002
135 0.0003749999999995482 0.0002500000000001884 0.0002
136 0.0003749999999993186 0.0001250000000000942 0.0002
137 0.0004999999999996585 0.0003750000000000078 0.0002
138 0.0003750000000000078 0.0005000000000002867 0.0002
139 0.000374999999999778 0.0003750000000002376 0.0002
140 0.0005000000000002866 0.0006249999999999212 0.0002
141 0.0003750000000004672 0.0007500000000000003 0.0002
142 0.0003750000000002375 0.0006250000000001435 0.0002
143 0.0005000000000009146 0.0008749999999999349 0.0002
144 0.0003750000000007288 0.0008750000000000001 0.0002
145 0.0007499999999994783 0.000124999999999876 0.0002
146 0.0006249999999994767 0.0002499999999998974 0.0002
147 0.0006249999999992724 0.0001249999999999487 0.0002
148 0.0007499999999997393 0.0003749999999995482 0.0002
149 0.0006249999999999212 0.0004999999999996585 0.0002
150 0.0006249999999996989 0.000374999999999778 0.0002
151 0.0007500000000000002 0.0006249999999994767 0.0002
152 0.0006250000000003656 0.0007499999999997394 0.0002
153 0.0006250000000001433 0.0006249999999996989 0.0002
154 0.0007500000000002613 0.0008749999999998045 0.0002
155 0.0006250000000005764 0.0008749999999998697 0.0002
156 0.0008749999999998043 0.0002499999999996064 0.0002
157 0.000874999999999715 0.0001249999999998307 0.0002
158 0.0008749999999999349 0.0004999999999990305 0.0002
159 0.0008749999999998696 0.0003749999999993186 0.0002
160 0.0008750000000000654 0.0007499999999994783 0.0002
161 0.0008750000000000001 0.0006249999999992724 0.0002
162 0.0008750000000000493 0.000874999999999715 0.0002
163 0 0 6.666666666666667e-05
164 0 0 0.0001333333333333333
165 0 0 3.33333333333504e-05
166 0 0 9.999999999989539e-05
167 0 0 0.0001666666666666667
168 0.001 0 6.666666666666667e-05
169 0.001 0 0.0001333333333333333
170 0.001 0 3.33333333333504e-05
171 0.001 0 9.999999999989539e-05
172 0.001 0 0.0001666666666666667
173 0.001 0.001 6.666666666666667e-05
174 0.001 0.001 0.0001333333333333333
175 0.001 0.001 3.33333333333504e-05
176 0.001 0.001 9.999999999989539e-05
177 0.001 0.001 0.0001666666666666667
178 0 0.001 6.666666666666667e-05
179 0 0.001 0.0001333333333333333
180 0 0.001 3.33333333333504e-05
181 0 0.001 9.999999999989539e-05
182 0 0.001 0.0001666666666666667
183 0.0002499999999994609 0 6.666666666666667e-05
184 0.0002499999999994609 0 0.0001333333333333333
185 0.0004999999999987165 0 6.666666666666667e-05
186 0.0004999999999987165 0 0.0001333333333333333
187 0.0007499999999993478 0 6.666666666666667e-05
188 0.0007499999999993478 0 0.0001333333333333333
189 0.0002499999999994609 0 3.333333333333334e-05
190 0.0001249999999997305 0 6.666666666666667e-05
191 0.0001249999999997579 0 3.333333333334187e-05
192 0.0002499999999994609 0 0.0001
193 0.0001249999999997305 0 0.0001333333333333333
194 0.0001249999999997305 0 9.999999999994771e-05
195 0.0002499999999994609 0 0.0001666666666666667
196 0.0001249999999997579 0 0.0001666666666666667
197 0.0004999999999987165 0 3.333333333333334e-05
198 0.0003749999999990887 0 6.666666666666668e-05
199 0.0003749999999990888 0 3.333333333333335e-05
200 0.0004999999999987165 0 0.0001
201 0.0003749999999990887 0 0.0001333333333333333
202 0.0003749999999990887 0 0.0001
203 0.0004999999999987165 0 0.0001666666666666667
204 0.0003749999999990888 0 0.0001666666666666667
205 0.0007499999999993478 0 3.333333333333334e-05
206 0.0006249999999990321 0 6.666666666666668e-05
207 0.0006249999999990501 0 3.333333333333335e-05
208 0.0007499999999993478 0 0.0001
209 0.0006249999999990321 0 0.0001333333333333333
210 0.0006249999999990321 0 0.0001
211 0.0007499999999993478 0 0.0001666666666666667
212 0.0006249999999990501 0 0.0001666666666666667
213 0.0008749999999996738 0 6.666666666666668e-05
214 0.0008749999999996497 0 3.333333333334187e-05
215 0.0008749999999996738 0 0.0001333333333333333
216 0.0008749999999996739 0 9.999999999994771e-05
217 0.0008749999999996497 0 0.0001666666666666667
218 0.001 0.0002499999999994609 6.666666666666667e-05
219 0.001 0.0002499999999994609 0.0001333333333333333
220 0.001 0.0004999999999987165 6.666666666666667e-05
221 0.001 0.0004999999999987165 0.0001333333333333333
222 0.001 0.0007499999999993478 6.666666666666667e-05
223 0.001 0.0007499999999993478 0.0001333333333333333
224 0.001 0.0002499999999994609 3.333333333333334e-05
225 0.001 0.0001249999999997305 6.666666666666667e-05
226 0.001 0.0001249999999997579 3.333333333334187e-05
227 0.001 0.0002499999999994609 0.0001
228 0.001 0.0001249999999997305 0.0001333333333333333
229 0.001 0.0001249999999997305 9.999999999994771e-05
230 0.001 0.0002499999999994609 0.0001666666666666667
231 0.001 0.0001249999999997579 0.0001666666666666667
232 0.001 0.0004999999999987165 3.333333333333334e-05
233 0.001 0.0003749999999990887 6.666666666666668e-05
234 0.001 0.0003749999999990888 3.333333333333335e-05
235 0.001 0.0004999999999987165 0.0001
236 0.001 0.0003749999999990887 0.0001333333333333333
237 0.001 0.0003749999999990887 0.0001
238 0.001 0.0004999999999987165 0.0001666666666666667
239 0.001 0.0003749999999990888 0.0001666666666666667
240 0.001 0.0007499999999993478 3.333333333333334e-05
241 0.001 0.0006249999999990321 6.666666666666668e-05
242 0.001 0.0006249999999990501 3.333333333333335e-05
243 0.001 0.0007499999999993478 0.0001
244 0.001 0.0006249999999990321 0.0001333333333333333
245 0.001 0.0006249999999990321 0.0001
246 0.001 0.0007499999999993478 0.0001666666666666667
247 0.001 0.0006249999999990501 0.0001666666666666667
248 0.001 0.0008749999999996738 6.666666666666668e-05
249 0.001 0.0008749999999996497 3.333333333334187e-05
250 0.001 0.0008749999999996738 0.0001333333333333333
251 0.001 0.0008749999999996739 9.999999999994771e-05
252 0.001 0.0008749999999996497 0.0001666666666666667
253 0.0007500000000003918 0.001 6.666666666666667e-05
254 0.0007500000000003918 0.001 0.0001333333333333333
255 0.0005000000000012286 0.001 6.666666666666667e-05
256 0.0005000000000012286 0.001 0.0001333333333333333
257 0.0002500000000006249 0.001 6.666666666666667e-05
258 0.0002500000000006249 0.001 0.0001333333333333333
259 0.0007500000000003918 0.001 3.333333333333334e-05
260 0.0008750000000001959 0.001 6.666666666666667e-05
261 0.0008750000000001146 0.001 3.333333333334187e-05
262 0.0007500000000003918 0.001 0.0001
263 0.0008750000000001959 0.001 0.0001333333333333333
264 0.0008750000000001959 0.001 9.999999999994771e-05
265 0.0007500000000003918 0.001 0.0001666666666666667
266 0.0008750000000001146 0.001 0.0001666666666666667
267 0.0005000000000012286 0.001 3.333333333333334e-05
268 0.0006250000000008102 0.001 6.666666666666668e-05
269 0.0006250000000007987 0.001 3.333333333333335e-05
270 0.0005000000000012286 0.001 0.0001
271 0.0006250000000008102 0.001 0.0001333333333333333
272 0.0006250000000008102 0.001 0.0001
273 0.0005000000000012286 0.001 0.0001666666666666667
274 0.0006250000000007987 0.001 0.0001666666666666667
275 0.0002500000000006249 0.001 3.333333333333334e-05
276 0.0003750000000009268 0.001 6.666666666666668e-05
277 0.0003750000000009586 0.001 3.333333333333335e-05
278 0.0002500000000006249 0.001 0.0001
279 0.0003750000000009268 0.001 0.0001333333333333333
280 0.0003750000000009268 0.001 0.0001
281 0.0002500000000006249 0.001 0.0001666666666666667
282 0.0003750000000009586 0.001 0.0001666666666666667
283 0.0001250000000003125 0.001 6.666666666666668e-05
284 0.0001250000000002677 0.001 3.333333333334187e-05
285 0.0001250000000003125 0.001 0.0001333333333333333
286 0.0001250000000003125 0.001 9.999999999994771e-05
287 0.0001250000000002677 0.001 0.0001666666666666667
288 0 0.0007500000000003918 6.666666666666667e-05
289 0 0.0007500000000003918 0.0001333333333333333
290 0 0.0005000000000012286 6.666666666666667e-05
291 0 0.0005000000000012286 0.0001333333333333333
292 0 0.0002500000000006249 6.666666666666667e-05
293 0 0.0002500000000006249 0.0001333333333333333
294 0 0.0007500000000003918 3.333333333333334e-05
295 0 0.0008750000000001959 6.666666666666667e-05
296 0 0.0008750000000001146 3.333333333334187e-05
297 0 0.0007500000000003918 0.0001
298 0 0.0008750000000001959 0.0001333333333333333
299 0 0.0008750000000001959 9.999999999994771e-05
300 0 0.0007500000000003918 0.0001666666666666667
301 0 0.0008750000000001146 0.0001666666666666667
302 0 0.0005000000000012286 3.333333333333334e-05
303 0 0.0006250000000008102 6.666666666666668e-05
304 0 0.0006250000000007987 3.333333333333335e-05
305 0 0.0005000000000012286 0.0001
306 0 0.0006250000000008102 0.0001333333333333333
307 0 0.0006250000000008102 0.0001
308 0 0.0005000000000012286 0.0001666666666666667
309 0 0.0006250000000007987 0.0001666666666666667
310 0 0.0002500000000006249 3.333333333333334e-05
311 0 0.0003750000000009268 6.666666666666668e-05
312 0 0.0003750000000009586 3.333333333333335e-05
313 0 0.0002500000000006249 0.0001
314 0 0.0003750000000009268 0.0001333333333333333
315 0 0.0003750000000009268 0.0001
316 0 0.0002500000000006249 0.0001666666666666667
317 0 0.0003750000000009586 0.0001666666666666667
318 0 0.0001250000000003125 6.666666666666668e-05
319 0 0.0001250000000002677 3.333333333334187e-05
320 0 0.0001250000000003125 0.0001333333333333333
321 0 0.0001250000000003125 9.999999999994771e-05
322 0 0.0001250000000002677 0.0001666666666666667
323 0.0002499999999997519 0.0002500000000003339 6.666666666666667e-05
324 0.0002499999999997519 0.0002500000000003339 0.0001333333333333333
325 0.0002500000000000429 0.0005000000000006007 6.666666666666667e-05
326 0.0002500000000000429 0.0005000000000006007 0.0001333333333333333
327 0.0002500000000003339 0.0007500000000001309 6.666666666666667e-05
328 0.0002500000000003339 0.0007500000000001309 0.0001333333333333333
329 0.0004999999999993445 0.0002500000000000429 6.666666666666667e-05
330 0.0004999999999993445 0.0002500000000000429 0.0001333333333333333
331 0.0004999999999999726 0.0004999999999999726 6.666666666666667e-05
332 0.0004999999999999726 0.0004999999999999726 0.0001333333333333333
333 0.0005000000000006005 0.0007499999999998698 6.666666666666667e-05
334 0.0005000000000006005 0.0007499999999998698 0.0001333333333333333
335 0.0007499999999996087 0.0002499999999997519 6.666666666666667e-05
336 0.0007499999999996087 0.0002499999999997519 0.0001333333333333333
337 0.0007499999999998698 0.0004999999999993444 6.666666666666667e-05
338 0.0007499999999998698 0.0004999999999993444 0.0001333333333333333
339 0.0007500000000001307 0.0007499999999996089 6.666666666666667e-05
340 0.0007500000000001307 0.0007499999999996089 0.0001333333333333333
341 0.0002499999999997519 0.0002500000000003339 3.333333333333333e-05
342 0.0002499999999996064 0.000125000000000167 6.666666666666667e-05
343 0.000124999999999876 0.0002500000000004794 6.666666666666667e-05
344 0.0002499999999996064 0.000125000000000167 3.333333333333333e-05
345 0.000124999999999876 0.0002500000000004794 3.333333333333333e-05
346 0.0001249999999998032 0.0001250000000002397 6.666666666666667e-05
347 0.0001249999999998169 0.0001250000000002173 3.33333333333376e-05
348 0.0002499999999997519 0.0002500000000003339 0.0001
349 0.0002499999999996064 0.000125000000000167 0.0001333333333333333
350 0.000124999999999876 0.0002500000000004794 0.0001333333333333333
351 0.0002499999999996064 0.000125000000000167 0.0001
352 0.000124999999999876 0.0002500000000004794 0.0001
353 0.0001249999999998032 0.0001250000000002397 0.0001333333333333333
354 0.0001249999999998032 0.0001250000000002397 9.999999999997388e-05
355 0.0002499999999997519 0.0002500000000003339 0.0001666666666666667
356 0.0002499999999996064 0.000125000000000167 0.0001666666666666667
357 0.000124999999999876 0.0002500000000004794 0.0001666666666666667
358 0.0001249999999998169 0.0001250000000002173 0.0001666666666666667
359 0.0002500000000000429 0.0005000000000006007 3.333333333333333e-05
360 0.0002499999999998974 0.0003750000000004673 6.666666666666667e-05
361 0.0001250000000000215 0.0005000000000009146 6.666666666666667e-05
362 0.0002499999999998974 0.0003750000000004673 3.333333333333333e-05
363 0.0001250000000000215 0.0005000000000009146 3.333333333333333e-05
364 0.0001249999999999487 0.000375000000000697 6.666666666666667e-05
365 0.0001249999999999487 0.0003750000000007128 3.333333333333333e-05
366 0.0002500000000000429 0.0005000000000006007 0.0001
367 0.0002499999999998974 0.0003750000000004673 0.0001333333333333333
368 0.0001250000000000215 0.0005000000000009146 0.0001333333333333333
369 0.0002499999999998974 0.0003750000000004673 0.0001
370 0.0001250000000000215 0.0005000000000009146 0.0001
371 0.0001249999999999487 0.000375000000000697 0.0001333333333333333
372 0.0001249999999999487 0.000375000000000697 9.999999999999998e-05
373 0.0002500000000000429 0.0005000000000006007 0.0001666666666666667
374 0.0002499999999998974 0.0003750000000004673 0.0001666666666666667
375 0.0001250000000000215 0.0005000000000009146 0.0001666666666666667
376 0.0001249999999999487 0.0003750000000007129 0.0001666666666666667
377 0.0002500000000003339 0.0007500000000001309 3.333333333333333e-05
378 0.0002500000000001884 0.0006250000000003657 6.666666666666667e-05
379 0.000125000000000167 0.0007500000000002613 6.666666666666667e-05
380 0.0002500000000001884 0.0006250000000003657 3.333333333333333e-05
381 0.000125000000000167 0.0007500000000002613 3.333333333333333e-05
382 0.0001250000000000942 0.000625000000000588 6.666666666666667e-05
383 0.0001250000000000942 0.0006250000000005821 3.333333333333333e-05
384 0.0002500000000003339 0.0007500000000001309 0.0001
385 0.0002500000000001884 0.0006250000000003657 0.0001333333333333333
386 0.000125000000000167 0.0007500000000002613 0.0001333333333333333
387 0.0002500000000001884 0.0006250000000003657 0.0001
388 0.000125000000000167 0.0007500000000002613 0.0001
389 0.0001250000000000942 0.000625000000000588 0.0001333333333333333
390 0.0001250000000000942 0.000625000000000588 9.999999999999998e-05
391 0.0002500000000003339 0.0007500000000001309 0.0001666666666666667
392 0.0002500000000001884 0.0006250000000003657 0.0001666666666666667
393 0.000125000000000167 0.0007500000000002613 0.0001666666666666667
394 0.0001250000000000942 0.0006250000000005821 0.0001666666666666667
395 0.0002500000000004794 0.0008750000000000654 6.666666666666667e-05
396 0.0002500000000004794 0.0008750000000000654 3.333333333333333e-05
397 0.0001250000000002397 0.0008750000000001307 6.666666666666667e-05
398 0.0001250000000002173 0.0008750000000000899 3.33333333333376e-05
399 0.0002500000000004794 0.0008750000000000654 0.0001333333333333333
400 0.0002500000000004794 0.0008750000000000654 0.0001
401 0.0001250000000002397 0.0008750000000001307 0.0001333333333333333
402 0.0001250000000002397 0.0008750000000001303 9.999999999997386e-05
403 0.0002500000000004794 0.0008750000000000654 0.0001666666666666667
404 0.0001250000000002173 0.0008750000000000898 0.0001666666666666667
405 0.0004999999999993445 0.0002500000000000429 3.333333333333333e-05
406 0.0004999999999990305 0.0001250000000000215 6.666666666666667e-05
407 0.0003749999999995482 0.0002500000000001884 6.666666666666667e-05
408 0.0004999999999990305 0.0001250000000000215 3.333333333333333e-05
409 0.0003749999999995482 0.0002500000000001884 3.333333333333333e-05
410 0.0003749999999993185 0.0001250000000000942 6.666666666666667e-05
411 0.0003749999999993184 0.0001250000000000942 3.333333333333333e-05
412 0.0004999999999993445 0.0002500000000000429 0.0001
413 0.0004999999999990305 0.0001250000000000215 0.0001333333333333333
414 0.0003749999999995482 0.0002500000000001884 0.0001333333333333333
415 0.0004999999999990305 0.0001250000000000215 0.0001
416 0.0003749999999995482 0.0002500000000001884 0.0001
417 0.0003749999999993185 0.0001250000000000942 0.0001333333333333333
418 0.0003749999999993185 0.0001250000000000942 9.999999999999998e-05
419 0.0004999999999993445 0.0002500000000000429 0.0001666666666666667
420 0.0004999999999990305 0.0001250000000000215 0.0001666666666666667
421 0.0003749999999995482 0.0002500000000001884 0.0001666666666666667
422 0.0003749999999993184 0.0001250000000000942 0.0001666666666666667
423 0.0004999999999999726 0.0004999999999999726 3.333333333333333e-05
424 0.0004999999999996585 0.0003750000000000078 6.666666666666667e-05
425 0.0003750000000000078 0.0005000000000002867 6.666666666666667e-05
426 0.0004999999999996585 0.0003750000000000078 3.333333333333333e-05
427 0.0003750000000000077 0.0005000000000002867 3.333333333333333e-05
428 0.000374999999999778 0.0003750000000002376 6.666666666666667e-05
429 0.0003749999999997779 0.0003750000000002376 3.333333333333333e-05
430 0.0004999999999999726 0.0004999999999999726 0.0001
431 0.0004999999999996585 0.0003750000000000078 0.0001333333333333333
432 0.0003750000000000078 0.0005000000000002867 0.0001333333333333333
433 0.0004999999999996585 0.0003750000000000078 0.0001
434 0.0003750000000000077 0.0005000000000002867 0.0001
435 0.000374999999999778 0.0003750000000002376 0.0001333333333333333
436 0.0003749999999997779 0.0003750000000002376 9.999999999999998e-05
437 0.0004999999999999726 0.0004999999999999726 0.0001666666666666667
438 0.0004999999999996585 0.0003750000000000078 0.0001666666666666667
439 0.0003750000000000077 0.0005000000000002867 0.0001666666666666667
440 0.0003749999999997779 0.0003750000000002376 0.0001666666666666667
441 0.0005000000000006005 0.0007499999999998698 3.333333333333333e-05
442 0.0005000000000002866 0.0006249999999999212 6.666666666666667e-05
443 0.0003750000000004672 0.0007500000000000003 6.666666666666667e-05
444 0.0005000000000002866 0.0006249999999999212 3.333333333333333e-05
445 0.0003750000000004672 0.0007500000000000003 3.333333333333333e-05
446 0.0003750000000002375 0.0006250000000001435 6.666666666666667e-05
447 0.0003750000000002374 0.0006250000000001435 3.333333333333333e-05
448 0.0005000000000006005 0.0007499999999998698 0.0001
449 0.0005000000000002866 0.0006249999999999212 0.0001333333333333333
450 0.0003750000000004672 0.0007500000000000003 0.0001333333333333333
451 0.0005000000000002866 0.0006249999999999212 0.0001
452 0.0003750000000004672 0.0007500000000000003 0.0001
453 0.0003750000000002375 0.0006250000000001435 0.0001333333333333333
454 0.0003750000000002374 0.0006250000000001435 9.999999999999998e-05
455 0.0005000000000006005 0.0007499999999998698 0.0001666666666666667
456 0.0005000000000002866 0.0006249999999999212 0.0001666666666666667
457 0.0003750000000004672 0.0007500000000000003 0.0001666666666666667
458 0.0003750000000002374 0.0006250000000001435 0.0001666666666666667
459 0.0005000000000009146 0.0008749999999999349 6.666666666666667e-05
460 0.0005000000000009146 0.0008749999999999349 3.333333333333333e-05
461 0.000375000000000697 0.0008750000000000001 6.666666666666667e-05
462 0.000375000000000713 0.000875 3.333333333333334e-05
463 0.0005000000000009146 0.0008749999999999349 0.0001333333333333333
464 0.0005000000000009146 0.0008749999999999349 0.0001
465 0.000375000000000697 0.0008750000000000001 0.0001333333333333333
466 0.0003750000000006971 0.000875 9.999999999999998e-05
467 0.0005000000000009146 0.0008749999999999349 0.0001666666666666667
468 0.0003750000000007129 0.000875 0.0001666666666666667
469 0.0007499999999996087 0.0002499999999997519 3.333333333333333e-05
470 0.0007499999999994783 0.000124999999999876 6.666666666666667e-05
471 0.0006249999999994767 0.0002499999999998974 6.666666666666667e-05
472 0.0007499999999994783 0.000124999999999876 3.333333333333333e-05
473 0.0006249999999994767 0.0002499999999998974 3.333333333333333e-05
474 0.0006249999999992544 0.0001249999999999487 6.666666666666667e-05
475 0.0006249999999992635 0.0001249999999999487 3.333333333333333e-05
476 0.0007499999999996087 0.0002499999999997519 0.0001
477 0.0007499999999994783 0.000124999999999876 0.0001333333333333333
478 0.0006249999999994767 0.0002499999999998974 0.0001333333333333333
479 0.0007499999999994783 0.000124999999999876 0.0001
480 0.0006249999999994767 0.0002499999999998974 0.0001
481 0.0006249999999992544 0.0001249999999999487 0.0001333333333333333
482 0.0006249999999992544 0.0001249999999999487 9.999999999999998e-05
483 0.0007499999999996087 0.0002499999999997519 0.0001666666666666667
484 0.0007499999999994783 0.000124999999999876 0.0001666666666666667
485 0.0006249999999994767 0.0002499999999998974 0.0001666666666666667
486 0.0006249999999992633 0.0001249999999999487 0.0001666666666666667
487 0.0007499999999998698 0.0004999999999993444 3.333333333333333e-05
488 0.0007499999999997393 0.0003749999999995482 6.666666666666667e-05
489 0.0006249999999999212 0.0004999999999996585 6.666666666666667e-05
490 0.0007499999999997393 0.0003749999999995482 3.333333333333333e-05
491 0.0006249999999999212 0.0004999999999996585 3.333333333333333e-05
492 0.0006249999999996989 0.000374999999999778 6.666666666666667e-05
493 0.0006249999999996989 0.0003749999999997779 3.333333333333333e-05
494 0.0007499999999998698 0.0004999999999993444 0.0001
495 0.0007499999999997393 0.0003749999999995482 0.0001333333333333333
496 0.0006249999999999212 0.0004999999999996585 0.0001333333333333333
497 0.0007499999999997393 0.0003749999999995482 0.0001
498 0.0006249999999999212 0.0004999999999996585 0.0001
499 0.0006249999999996989 0.000374999999999778 0.0001333333333333333
500 0.0006249999999996989 0.0003749999999997779 9.999999999999998e-05
501 0.0007499999999998698 0.0004999999999993444 0.0001666666666666667
502 0.0007499999999997393 0.0003749999999995482 0.0001666666666666667
503 0.0006249999999999212 0.0004999999999996585 0.0001666666666666667
504 0.0006249999999996989 0.0003749999999997779 0.0001666666666666667
505 0.0007500000000001307 0.0007499999999996089 3.333333333333333e-05
506 0.0007500000000000002 0.0006249999999994767 6.666666666666667e-05
507 0.0006250000000003656 0.0007499999999997394 6.666666666666667e-05
508 0.0007500000000000002 0.0006249999999994767 3.333333333333333e-05
509 0.0006250000000003656 0.0007499999999997394 3.333333333333333e-05
510 0.0006250000000001433 0.0006249999999996989 6.666666666666667e-05
511 0.0006250000000001432 0.0006249999999996987 3.333333333333333e-05
512 0.0007500000000001307 0.0007499999999996089 0.0001
513 0.0007500000000000002 0.0006249999999994767 0.0001333333333333333
514 0.0006250000000003656 0.0007499999999997394 0.0001333333333333333
515 0.0007500000000000002 0.0006249999999994767 0.0001
516 0.0006250000000003656 0.0007499999999997394 0.0001
517 0.0006250000000001433 0.0006249999999996989 0.0001333333333333333
518 0.0006250000000001432 0.0006249999999996987 9.999999999999998e-05
519 0.0007500000000001307 0.0007499999999996089 0.0001666666666666667
520 0.0007500000000000002 0.0006249999999994767 0.0001666666666666667
521 0.0006250000000003656 0.0007499999999997394 0.0001666666666666667
522 0.0006250000000001432 0.0006249999999996987 0.0001666666666666667
523 0.0007500000000002613 0.0008749999999998045 6.666666666666667e-05
524 0.0007500000000002613 0.0008749999999998045 3.333333333333333e-05
525 0.000625000000000588 0.0008749999999998697 6.666666666666667e-05
526 0.0006250000000005821 0.0008749999999998698 3.333333333333334e-05
527 0.0007500000000002613 0.0008749999999998045 0.0001333333333333333
528 0.0007500000000002613 0.0008749999999998045 0.0001
529 0.000625000000000588 0.0008749999999998697 0.0001333333333333333
530 0.0006250000000005879 0.0008749999999998698 9.999999999999998e-05
531 0.0007500000000002613 0.0008749999999998045 0.0001666666666666667
532 0.0006250000000005821 0.0008749999999998698 0.0001666666666666667
533 0.0008749999999998043 0.0002499999999996064 6.666666666666667e-05
534 0.0008749999999998043 0.0002499999999996064 3.333333333333333e-05
535 0.0008749999999997392 0.0001249999999998032 6.666666666666667e-05
536 0.0008749999999997273 0.0001249999999998169 3.333333333333759e-05
537 0.0008749999999998043 0.0002499999999996064 0.0001333333333333333
538 0.0008749999999998043 0.0002499999999996064 0.0001
539 0.0008749999999997392 0.0001249999999998032 0.0001333333333333333
540 0.0008749999999997393 0.0001249999999998032 9.999999999997389e-05
541 0.0008749999999998043 0.0002499999999996064 0.0001666666666666667
542 0.0008749999999997269 0.0001249999999998169 0.0001666666666666667
543 0.0008749999999999349 0.0004999999999990305 6.666666666666667e-05
544 0.0008749999999999349 0.0004999999999990305 3.333333333333333e-05
545 0.0008749999999998696 0.0003749999999993185 6.666666666666667e-05
546 0.0008749999999998697 0.0003749999999993186 3.333333333333334e-05
547 0.0008749999999999349 0.0004999999999990305 0.0001333333333333333
548 0.0008749999999999349 0.0004999999999990305 0.0001
549 0.0008749999999998696 0.0003749999999993185 0.0001333333333333333
550 0.0008749999999998697 0.0003749999999993185 9.999999999999998e-05
551 0.0008749999999999349 0.0004999999999990305 0.0001666666666666667
552 0.0008749999999998697 0.0003749999999993186 0.0001666666666666667
553 0.0008750000000000654 0.0007499999999994783 6.666666666666667e-05
554 0.0008750000000000654 0.0007499999999994783 3.333333333333333e-05
555 0.0008750000000000001 0.0006249999999992544 6.666666666666667e-05
556 0.000875 0.0006249999999992633 3.333333333333334e-05
557 0.0008750000000000654 0.0007499999999994783 0.0001333333333333333
558 0.0008750000000000654 0.0007499999999994783 0.0001
559 0.0008750000000000001 0.0006249999999992544 0.0001333333333333333
560 0.000875 0.0006249999999992544 9.999999999999998e-05
561 0.0008750000000000654 0.0007499999999994783 0.0001666666666666667
562 0.000875 0.0006249999999992633 0.0001666666666666667
563 0.0008750000000001307 0.0008749999999997392 6.666666666666667e-05
564 0.0008750000000000901 0.0008749999999997271 3.333333333333759e-05
565 0.0008750000000001307 0.0008749999999997392 0.0001333333333333333
566 0.0008750000000001308 0.0008749999999997393 9.999999999997386e-05
567 0.0008750000000000902 0.0008749999999997272 0.0001666666666666667
$EndNodes
$Elements
80
1 10 2 10 1 1 5 33 28 8 42 43 32 44
2 10 2 10 1 28 33 34 27 43 45 46 31 47
3 10 2 10 1 27 34 35 26 46 48 49 30 50
4 10 2 10 1 26 35 21 4 49 51 25 29 52
5 10 2 10 1 5 6 36 33 9 53 54 42 55
6 10 2 10 1 33 36 37 34 54 56 57 45 58
7 10 2 10 1 34 37 38 35 57 59 60 48 61
8 10 2 10 1 35 38 20 21 60 62 24 51 63
9 10 2 10 1 6 7 39 36 10 64 65 53 66
10 10 2 10 1 36 39 40 37 65 67 68 56 69
11 10 2 10 1 37 40 41 38 68 70 71 59 72
12 10 2 10 1 38 41 19 20 71 73 23 62 74
13 10 2 10 1 7 2 12 39 11 15 75 64 76
14 10 2 10 1 39 12 13 40 75 16 77 67 78
15 10 2 10 1 40 13 14 41 77 17 79 70 80
16 10 2 10 1 41 14 3 19 79 18 22 73 81
17 10 2 11 26 82 86 114 109 89 123 124 113 125
18 10 2 11 26 109 114 115 108 124 126 127 112 128
19 10 2 11 26 108 115 116 107 127 129 130 111 131
20 10 2 11 26 107 116 102 85 130 132 106 110 133
21 10 2 11 26 86 87 117 114 90 134 135 123 136
22 10 2 11 26 114 117 118 115 135 137 138 126 139
23 10 2 11 26 115 118 119 116 138 140 141 129 142
24 10 2 11 26 116 119 101 102 141 143 105 132 144
25 10 2 11 26 87 88 120 117 91 145 146 134 147
26 10 2 11 26 117 120 121 118 146 148 149 137 150
27 10 2 11 26 118 121 122 119 149 151 152 140 153
28 10 2 11 26 119 122 100 101 152 154 104 143 155
29 10 2 11 26 88 83 93 120 92 96 156 145 157
30 10 2 11 26 120 93 94 121 156 97 158 148 159
31 10 2 11 26 121 94 95 122 158 98 160 151 161
32 10 2 11 26 122 95 84 100 160 99 103 154 162
33 12 2 1 1 1 5 33 28 163 183 323 292 8 32 165 42 189 43 341 310 190 318 342 343 44 191 319 344 345 346 347
34 12 2 1 1 163 183 323 292 164 184 324 293 190 318 166 342 192 343 348 313 193 320 349 350 346 194 321 351 352 353 354
35 12 2 1 1 164 184 324 293 82 86 114 109 193 320 167 349 195 350 355 316 89 113 123 124 353 196 322 356 357 125 358
36 12 2 1 1 28 33 34 27 292 323 325 290 43 31 310 45 341 46 359 302 343 311 360 361 47 345 312 362 363 364 365
37 12 2 1 1 292 323 325 290 293 324 326 291 343 311 313 360 348 361 366 305 350 314 367 368 364 352 315 369 370 371 372
38 12 2 1 1 293 324 326 291 109 114 115 108 350 314 316 367 355 368 373 308 124 112 126 127 371 357 317 374 375 128 376
39 12 2 1 1 27 34 35 26 290 325 327 288 46 30 302 48 359 49 377 294 361 303 378 379 50 363 304 380 381 382 383
40 12 2 1 1 290 325 327 288 291 326 328 289 361 303 305 378 366 379 384 297 368 306 385 386 382 370 307 387 388 389 390
41 12 2 1 1 291 326 328 289 108 115 116 107 368 306 308 385 373 386 391 300 127 111 129 130 389 375 309 392 393 131 394
42 12 2 1 1 26 35 21 4 288 327 257 178 49 29 294 51 377 25 275 180 379 295 395 283 52 381 296 396 284 397 398
43 12 2 1 1 288 327 257 178 289 328 258 179 379 295 297 395 384 283 278 181 386 298 399 285 397 388 299 400 286 401 402
44 12 2 1 1 289 328 258 179 107 116 102 85 386 298 300 399 391 285 281 182 130 110 132 106 401 393 301 403 287 133 404
45 12 2 1 1 5 6 36 33 183 185 329 323 9 42 189 53 197 54 405 341 198 342 406 407 55 199 344 408 409 410 411
46 12 2 1 1 183 185 329 323 184 186 330 324 198 342 192 406 200 407 412 348 201 349 413 414 410 202 351 415 416 417 418
47 12 2 1 1 184 186 330 324 86 87 117 114 201 349 195 413 203 414 419 355 90 123 134 135 417 204 356 420 421 136 422
48 12 2 1 1 33 36 37 34 323 329 331 325 54 45 341 56 405 57 423 359 407 360 424 425 58 409 362 426 427 428 429
49 12 2 1 1 323 329 331 325 324 330 332 326 407 360 348 424 412 425 430 366 414 367 431 432 428 416 369 433 434 435 436
50 12 2 1 1 324 330 332 326 114 117 118 115 414 367 355 431 419 432 437 373 135 126 137 138 435 421 374 438 439 139 440
51 12 2 1 1 34 37 38 35 325 331 333 327 57 48 359 59 423 60 441 377 425 378 442 443 61 427 380 444 445 446 447
52 12 2 1 1 325 331 333 327 326 332 334 328 425 378 366 442 430 443 448 384 432 385 449 450 446 434 387 451 452 453 454
53 12 2 1 1 326 332 334 328 115 118 119 116 432 385 373 449 437 450 455 391 138 129 140 141 453 439 392 456 457 142 458
54 12 2 1 1 35 38 20 21 327 333 255 257 60 51 377 62 441 24 267 275 443 395 459 276 63 445 396 460 277 461 462
55 12 2 1 1 327 333 255 257 328 334 256 258 443 395 384 459 448 276 270 278 450 399 463 279 461 452 400 464 280 465 466
56 12 2 1 1 328 334 256 258 116 119 101 102 450 399 391 463 455 279 273 281 141 132 143 105 465 457 403 467 282 144 468
57 12 2 1 1 6 7 39 36 185 187 335 329 10 53 197 64 205 65 469 405 206 406 470 471 66 207 408 472 473 474 475
58 12 2 1 1 185 187 335 329 186 188 336 330 206 406 200 470 208 471 476 412 209 413 477 478 474 210 415 479 480 481 482
59 12 2 1 1 186 188 336 330 87 88 120 117 209 413 203 477 211 478 483 419 91 134 145 146 481 212 420 484 485 147 486
60 12 2 1 1 36 39 40 37 329 335 337 331 65 56 405 67 469 68 487 423 471 424 488 489 69 473 426 490 491 492 493
61 12 2 1 1 329 335 337 331 330 336 338 332 471 424 412 488 476 489 494 430 478 431 495 496 492 480 433 497 498 499 500
62 12 2 1 1 330 336 338 332 117 120 121 118 478 431 419 495 483 496 501 437 146 137 148 149 499 485 438 502 503 150 504
63 12 2 1 1 37 40 41 38 331 337 339 333 68 59 423 70 487 71 505 441 489 442 506 507 72 491 444 508 509 510 511
64 12 2 1 1 331 337 339 333 332 338 340 334 489 442 430 506 494 507 512 448 496 449 513 514 510 498 451 515 516 517 518
65 12 2 1 1 332 338 340 334 118 121 122 119 496 449 437 513 501 514 519 455 149 140 151 152 517 503 456 520 521 153 522
66 12 2 1 1 38 41 19 20 333 339 253 255 71 62 441 73 505 23 259 267 507 459 523 268 74 509 460 524 269 525 526
67 12 2 1 1 333 339 253 255 334 340 254 256 507 459 448 523 512 268 262 270 514 463 527 271 525 516 464 528 272 529 530
68 12 2 1 1 334 340 254 256 119 122 100 101 514 463 455 527 519 271 265 273 152 143 154 104 529 521 467 531 274 155 532
69 12 2 1 1 7 2 12 39 187 168 218 335 11 64 205 15 170 75 224 469 213 470 225 533 76 214 472 226 534 535 536
70 12 2 1 1 187 168 218 335 188 169 219 336 213 470 208 225 171 533 227 476 215 477 228 537 535 216 479 229 538 539 540
71 12 2 1 1 188 169 219 336 88 83 93 120 215 477 211 228 172 537 230 483 92 145 96 156 539 217 484 231 541 157 542
72 12 2 1 1 39 12 13 40 335 218 220 337 75 67 469 16 224 77 232 487 533 488 233 543 78 534 490 234 544 545 546
73 12 2 1 1 335 218 220 337 336 219 221 338 533 488 476 233 227 543 235 494 537 495 236 547 545 538 497 237 548 549 550
74 12 2 1 1 336 219 221 338 120 93 94 121 537 495 483 236 230 547 238 501 156 148 97 158 549 541 502 239 551 159 552
75 12 2 1 1 40 13 14 41 337 220 222 339 77 70 487 17 232 79 240 505 543 506 241 553 80 544 508 242 554 555 556
76 12 2 1 1 337 220 222 339 338 221 223 340 543 506 494 241 235 553 243 512 547 513 244 557 555 548 515 245 558 559 560
77 12 2 1 1 338 221 223 340 121 94 95 122 547 513 501 244 238 557 246 519 158 151 98 160 559 551 520 247 561 161 562
78 12 2 1 1 41 14 3 19 339 222 173 253 79 73 505 18 240 22 175 259 553 523 248 260 81 554 524 249 261 563 564
79 12 2 1 1 339 222 173 253 340 223 174 254 553 523 512 248 243 260 176 262 557 527 250 263 563 558 528 251 264 565 566
80 12 2 1 1 340 223 174 254 122 95 84 100 557 527 519 250 246 263 177 265 160 154 99 103 565 561 531 252 266 162 567
$EndElements
