$MeshFormat
4.1 0 8
$EndMeshFormat
$Entities
2 0 2 1
1 0 0 0 0
2 0 0 0 0
1 0 0 0 0 0 0 1 10 0
2 0 0 0 0 0 0 1 11 0
3 0 0 0 0 0 0 1 1 0
$EndEntities
$Nodes
1 567 1 567
0 1 0 567
1
2
3
4
5
6
7
8
9
10
11
12
13
14
15
16
17
18
19
20
21
22
23
24
25
26
27
28
29
30
31
32
33
34
35
36
37
38
39
40
41
42
43
44
45
46
47
48
49
50
51
52
53
54
55
56
57
58
59
60
61
62
63
64
65
66
67
68
69
70
71
72
73
74
75
76
77
78
79
80
81
82
83
84
85
86
87
88
89
90
91
92
93
94
95
96
97
98
99
100
101
102
103
104
105
106
107
108
109
110
111
112
113
114
115
116
117
118
119
120
121
122
123
124
125
126
127
128
129
130
131
132
133
134
135
136
137
138
139
140
141
142
143
144
145
146
147
148
149
150
151
152
153
154
155
156
157
158
159
160
161
162
163
164
165
166
167
168
169
170
171
172
173
174
175
176
177
178
179
180
181
182
183
184
185
186
187
188
189
190
191
192
193
194
195
196
197
198
199
200
201
202
203
204
205
206
207
208
209
210
211
212
213
214
215
216
217
218
219
220
221
222
223
224
225
226
227
228
229
230
231
232
233
234
235
236
237
238
239
240
241
242
243
244
245
246
247
248
249
250
251
252
253
254
255
256
257
258
259
260
261
262
263
264
265
266
267
268
269
270
271
272
273
274
275
276
277
278
279
280
281
282
283
284
285
286
287
288
289
290
291
292
293
294
295
296
297
298
299
300
301
302
303
304
305
306
307
308
309
310
311
312
313
314
315
316
317
318
319
320
321
322
323
324
325
326
327
328
329
330
331
332
333
334
335
336
337
338
339
340
341
342
343
344
345
346
347
348
349
350
351
352
353
354
355
356
357
358
359
360
361
362
363
364
365
366
367
368
369
370
371
372
373
374
375
376
377
378
379
380
381
382
383
384
385
386
387
388
389
390
391
392
393
394
395
396
397
398
399
400
401
402
403
404
405
406
407
408
409
410
411
412
413
414
415
416
417
418
419
420
421
422
423
424
425
426
427
428
429
430
431
432
433
434
435
436
437
438
439
440
441
442
443
444
445
446
447
448
449
450
451
452
453
454
455
456
457
458
459
460
461
462
463
464
465
466
467
468
469
470
471
472
473
474
475
476
477
478
479
480
481
482
483
484
485
486
487
488
489
490
491
492
493
494
495
496
497
498
499
500
501
502
503
504
505
506
507
508
509
510
511
512
513
514
515
516
517
518
519
520
521
522
523
524
525
526
527
528
529
530
531
532
533
534
535
536
537
538
539
540
541
542
543
544
545
546
547
548
549
550
551
552
553
554
555
556
557
558
559
560
561
562
563
564
565
566
567
0 0 0
0 0 3.333333333333333e-05
0 0 6.666666666666667e-05
0 0 0.0001
0 0 0.0001333333333333333
0 0 0.0001666666666666667
0 0 0.0002
0 0.000125 0
0 0.000125 3.333333333333333e-05
0 0.000125 6.666666666666667e-05
0 0.000125 0.0001
0 0.000125 0.0001333333333333333
0 0.000125 0.0001666666666666667
0 0.000125 0.0002
0 0.00025 0
0 0.00025 3.333333333333333e-05
0 0.00025 6.666666666666667e-05
0 0.00025 0.0001
0 0.00025 0.0001333333333333333
0 0.00025 0.0001666666666666667
0 0.00025 0.0002
0 0.000375 0
0 0.000375 3.333333333333333e-05
0 0.000375 6.666666666666667e-05
0 0.000375 0.0001
0 0.000375 0.0001333333333333333
0 0.000375 0.0001666666666666667
0 0.000375 0.0002
0 0.0005 0
0 0.0005 3.333333333333333e-05
0 0.0005 6.666666666666667e-05
0 0.0005 0.0001
0 0.0005 0.0001333333333333333
0 0.0005 0.0001666666666666667
0 0.0005 0.0002
0 0.000625 0
0 0.000625 3.333333333333333e-05
0 0.000625 6.666666666666667e-05
0 0.000625 0.0001
0 0.000625 0.0001333333333333333
0 0.000625 0.0001666666666666667
0 0.000625 0.0002
0 0.00075 0
0 0.00075 3.333333333333333e-05
0 0.00075 6.666666666666667e-05
0 0.00075 0.0001
0 0.00075 0.0001333333333333333
0 0.00075 0.0001666666666666667
0 0.00075 0.0002
0 0.000875 0
0 0.000875 3.333333333333333e-05
0 0.000875 6.666666666666667e-05
0 0.000875 0.0001
0 0.000875 0.0001333333333333333
0 0.000875 0.0001666666666666667
0 0.000875 0.0002
0 0.001 0
0 0.001 3.333333333333333e-05
0 0.001 6.666666666666667e-05
0 0.001 0.0001
0 0.001 0.0001333333333333333
0 0.001 0.0001666666666666667
0 0.001 0.0002
0.000125 0 0
0.000125 0 3.333333333333333e-05
0.000125 0 6.666666666666667e-05
0.000125 0 0.0001
0.000125 0 0.0001333333333333333
0.000125 0 0.0001666666666666667
0.000125 0 0.0002
0.000125 0.000125 0
0.000125 0.000125 3.333333333333333e-05
0.000125 0.000125 6.666666666666667e-05
0.000125 0.000125 0.0001
0.000125 0.000125 0.0001333333333333333
0.000125 0.000125 0.0001666666666666667
0.000125 0.000125 0.0002
0.000125 0.00025 0
0.000125 0.00025 3.333333333333333e-05
0.000125 0.00025 6.666666666666667e-05
0.000125 0.00025 0.0001
0.000125 0.00025 0.0001333333333333333
0.000125 0.00025 0.0001666666666666667
0.000125 0.00025 0.0002
0.000125 0.000375 0
0.000125 0.000375 3.333333333333333e-05
0.000125 0.000375 6.666666666666667e-05
0.000125 0.000375 0.0001
0.000125 0.000375 0.0001333333333333333
0.000125 0.000375 0.0001666666666666667
0.000125 0.000375 0.0002
0.000125 0.0005 0
0.000125 0.0005 3.333333333333333e-05
0.000125 0.0005 6.666666666666667e-05
0.000125 0.0005 0.0001
0.000125 0.0005 0.0001333333333333333
0.000125 0.0005 0.0001666666666666667
0.000125 0.0005 0.0002
0.000125 0.000625 0
0.000125 0.000625 3.333333333333333e-05
0.000125 0.000625 6.666666666666667e-05
0.000125 0.000625 0.0001
0.000125 0.000625 0.0001333333333333333
0.000125 0.000625 0.0001666666666666667
0.000125 0.000625 0.0002
0.000125 0.00075 0
0.000125 0.00075 3.333333333333333e-05
0.000125 0.00075 6.666666666666667e-05
0.000125 0.00075 0.0001
0.000125 0.00075 0.0001333333333333333
0.000125 0.00075 0.0001666666666666667
0.000125 0.00075 0.0002
0.000125 0.000875 0
0.000125 0.000875 3.333333333333333e-05
0.000125 0.000875 6.666666666666667e-05
0.000125 0.000875 0.0001
0.000125 0.000875 0.0001333333333333333
0.000125 0.000875 0.0001666666666666667
0.000125 0.000875 0.0002
0.000125 0.001 0
0.000125 0.001 3.333333333333333e-05
0.000125 0.001 6.666666666666667e-05
0.000125 0.001 0.0001
0.000125 0.001 0.0001333333333333333
0.000125 0.001 0.0001666666666666667
0.000125 0.001 0.0002
0.00025 0 0
0.00025 0 3.333333333333333e-05
0.00025 0 6.666666666666667e-05
0.00025 0 0.0001
0.00025 0 0.0001333333333333333
0.00025 0 0.0001666666666666667
0.00025 0 0.0002
0.00025 0.000125 0
0.00025 0.000125 3.333333333333333e-05
0.00025 0.000125 6.666666666666667e-05
0.00025 0.000125 0.0001
0.00025 0.000125 0.0001333333333333333
0.00025 0.000125 0.0001666666666666667
0.00025 0.000125 0.0002
0.00025 0.00025 0
0.00025 0.00025 3.333333333333333e-05
0.00025 0.00025 6.666666666666667e-05
0.00025 0.00025 0.0001
0.00025 0.00025 0.0001333333333333333
0.00025 0.00025 0.0001666666666666667
0.00025 0.00025 0.0002
0.00025 0.000375 0
0.00025 0.000375 3.333333333333333e-05
0.00025 0.000375 6.666666666666667e-05
0.00025 0.000375 0.0001
0.00025 0.000375 0.0001333333333333333
0.00025 0.000375 0.0001666666666666667
0.00025 0.000375 0.0002
0.00025 0.0005 0
0.00025 0.0005 3.333333333333333e-05
0.00025 0.0005 6.666666666666667e-05
0.00025 0.0005 0.0001
0.00025 0.0005 0.0001333333333333333
0.00025 0.0005 0.0001666666666666667
0.00025 0.0005 0.0002
0.00025 0.000625 0
0.00025 0.000625 3.333333333333333e-05
0.00025 0.000625 6.666666666666667e-05
0.00025 0.000625 0.0001
0.00025 0.000625 0.0001333333333333333
0.00025 0.000625 0.0001666666666666667
0.00025 0.000625 0.0002
0.00025 0.00075 0
0.00025 0.00075 3.333333333333333e-05
0.00025 0.00075 6.666666666666667e-05
0.00025 0.00075 0.0001
0.00025 0.00075 0.0001333333333333333
0.00025 0.00075 0.0001666666666666667
0.00025 0.00075 0.0002
0.00025 0.000875 0
0.00025 0.000875 3.333333333333333e-05
0.00025 0.000875 6.666666666666667e-05
0.00025 0.000875 0.0001
0.00025 0.000875 0.0001333333333333333
0.00025 0.000875 0.0001666666666666667
0.00025 0.000875 0.0002
0.00025 0.001 0
0.00025 0.001 3.333333333333333e-05
0.00025 0.001 6.666666666666667e-05
0.00025 0.001 0.0001
0.00025 0.001 0.0001333333333333333
0.00025 0.001 0.0001666666666666667
0.00025 0.001 0.0002
0.000375 0 0
0.000375 0 3.333333333333333e-05
0.000375 0 6.666666666666667e-05
0.000375 0 0.0001
0.000375 0 0.0001333333333333333
0.000375 0 0.0001666666666666667
0.000375 0 0.0002
0.000375 0.000125 0
0.000375 0.000125 3.333333333333333e-05
0.000375 0.000125 6.666666666666667e-05
0.000375 0.000125 0.0001
0.000375 0.000125 0.0001333333333333333
0.000375 0.000125 0.0001666666666666667
0.000375 0.000125 0.0002
0.000375 0.00025 0
0.000375 0.00025 3.333333333333333e-05
0.000375 0.00025 6.666666666666667e-05
0.000375 0.00025 0.0001
0.000375 0.00025 0.0001333333333333333
0.000375 0.00025 0.0001666666666666667
0.000375 0.00025 0.0002
0.000375 0.000375 0
0.000375 0.000375 3.333333333333333e-05
0.000375 0.000375 6.666666666666667e-05
0.000375 0.000375 0.0001
0.000375 0.000375 0.0001333333333333333
0.000375 0.000375 0.0001666666666666667
0.000375 0.000375 0.0002
0.000375 0.0005 0
0.000375 0.0005 3.333333333333333e-05
0.000375 0.0005 6.666666666666667e-05
0.000375 0.0005 0.0001
0.000375 0.0005 0.0001333333333333333
0.000375 0.0005 0.0001666666666666667
0.000375 0.0005 0.0002
0.000375 0.000625 0
0.000375 0.000625 3.333333333333333e-05
0.000375 0.000625 6.666666666666667e-05
0.000375 0.000625 0.0001
0.000375 0.000625 0.0001333333333333333
0.000375 0.000625 0.0001666666666666667
0.000375 0.000625 0.0002
0.000375 0.00075 0
0.000375 0.00075 3.333333333333333e-05
0.000375 0.00075 6.666666666666667e-05
0.000375 0.00075 0.0001
0.000375 0.00075 0.0001333333333333333
0.000375 0.00075 0.0001666666666666667
0.000375 0.00075 0.0002
0.000375 0.000875 0
0.000375 0.000875 3.333333333333333e-05
0.000375 0.000875 6.666666666666667e-05
0.000375 0.000875 0.0001
0.000375 0.000875 0.0001333333333333333
0.000375 0.000875 0.0001666666666666667
0.000375 0.000875 0.0002
0.000375 0.001 0
0.000375 0.001 3.333333333333333e-05
0.000375 0.001 6.666666666666667e-05
0.000375 0.001 0.0001
0.000375 0.001 0.0001333333333333333
0.000375 0.001 0.0001666666666666667
0.000375 0.001 0.0002
0.0005 0 0
0.0005 0 3.333333333333333e-05
0.0005 0 6.666666666666667e-05
0.0005 0 0.0001
0.0005 0 0.0001333333333333333
0.0005 0 0.0001666666666666667
0.0005 0 0.0002
0.0005 0.000125 0
0.0005 0.000125 3.333333333333333e-05
0.0005 0.000125 6.666666666666667e-05
0.0005 0.000125 0.0001
0.0005 0.000125 0.0001333333333333333
0.0005 0.000125 0.0001666666666666667
0.0005 0.000125 0.0002
0.0005 0.00025 0
0.0005 0.00025 3.333333333333333e-05
0.0005 0.00025 6.666666666666667e-05
0.0005 0.00025 0.0001
0.0005 0.00025 0.0001333333333333333
0.0005 0.00025 0.0001666666666666667
0.0005 0.00025 0.0002
0.0005 0.000375 0
0.0005 0.000375 3.333333333333333e-05
0.0005 0.000375 6.666666666666667e-05
0.0005 0.000375 0.0001
0.0005 0.000375 0.0001333333333333333
0.0005 0.000375 0.0001666666666666667
0.0005 0.000375 0.0002
0.0005 0.0005 0
0.0005 0.0005 3.333333333333333e-05
0.0005 0.0005 6.666666666666667e-05
0.0005 0.0005 0.0001
0.0005 0.0005 0.0001333333333333333
0.0005 0.0005 0.0001666666666666667
0.0005 0.0005 0.0002
0.0005 0.000625 0
0.0005 0.000625 3.333333333333333e-05
0.0005 0.000625 6.666666666666667e-05
0.0005 0.000625 0.0001
0.0005 0.000625 0.0001333333333333333
0.0005 0.000625 0.0001666666666666667
0.0005 0.000625 0.0002
0.0005 0.00075 0
0.0005 0.00075 3.333333333333333e-05
0.0005 0.00075 6.666666666666667e-05
0.0005 0.00075 0.0001
0.0005 0.00075 0.0001333333333333333
0.0005 0.00075 0.0001666666666666667
0.0005 0.00075 0.0002
0.0005 0.000875 0
0.0005 0.000875 3.333333333333333e-05
0.0005 0.000875 6.666666666666667e-05
0.0005 0.000875 0.0001
0.0005 0.000875 0.0001333333333333333
0.0005 0.000875 0.0001666666666666667
0.0005 0.000875 0.0002
0.0005 0.001 0
0.0005 0.001 3.333333333333333e-05
0.0005 0.001 6.666666666666667e-05
0.0005 0.001 0.0001
0.0005 0.001 0.0001333333333333333
0.0005 0.001 0.0001666666666666667
0.0005 0.001 0.0002
0.000625 0 0
0.000625 0 3.333333333333333e-05
0.000625 0 6.666666666666667e-05
0.000625 0 0.0001
0.000625 0 0.0001333333333333333
0.000625 0 0.0001666666666666667
0.000625 0 0.0002
0.000625 0.000125 0
0.000625 0.000125 3.333333333333333e-05
0.000625 0.000125 6.666666666666667e-05
0.000625 0.000125 0.0001
0.000625 0.000125 0.0001333333333333333
0.000625 0.000125 0.0001666666666666667
0.000625 0.000125 0.0002
0.000625 0.00025 0
0.000625 0.00025 3.333333333333333e-05
0.000625 0.00025 6.666666666666667e-05
0.000625 0.00025 0.0001
0.000625 0.00025 0.0001333333333333333
0.000625 0.00025 0.0001666666666666667
0.000625 0.00025 0.0002
0.000625 0.000375 0
0.000625 0.000375 3.333333333333333e-05
0.000625 0.000375 6.666666666666667e-05
0.000625 0.000375 0.0001
0.000625 0.000375 0.0001333333333333333
0.000625 0.000375 0.0001666666666666667
0.000625 0.000375 0.0002
0.000625 0.0005 0
0.000625 0.0005 3.333333333333333e-05
0.000625 0.0005 6.666666666666667e-05
0.000625 0.0005 0.0001
0.000625 0.0005 0.0001333333333333333
0.000625 0.0005 0.0001666666666666667
0.000625 0.0005 0.0002
0.000625 0.000625 0
0.000625 0.000625 3.333333333333333e-05
0.000625 0.000625 6.666666666666667e-05
0.000625 0.000625 0.0001
0.000625 0.000625 0.0001333333333333333
0.000625 0.000625 0.0001666666666666667
0.000625 0.000625 0.0002
0.000625 0.00075 0
0.000625 0.00075 3.333333333333333e-05
0.000625 0.00075 6.666666666666667e-05
0.000625 0.00075 0.0001
0.000625 0.00075 0.0001333333333333333
0.000625 0.00075 0.0001666666666666667
0.000625 0.00075 0.0002
0.000625 0.000875 0
0.000625 0.000875 3.333333333333333e-05
0.000625 0.000875 6.666666666666667e-05
0.000625 0.000875 0.0001
0.000625 0.000875 0.0001333333333333333
0.000625 0.000875 0.0001666666666666667
0.000625 0.000875 0.0002
0.000625 0.001 0
0.000625 0.001 3.333333333333333e-05
0.000625 0.001 6.666666666666667e-05
0.000625 0.001 0.0001
0.000625 0.001 0.0001333333333333333
0.000625 0.001 0.0001666666666666667
0.000625 0.001 0.0002
0.00075 0 0
0.00075 0 3.333333333333333e-05
0.00075 0 6.666666666666667e-05
0.00075 0 0.0001
0.00075 0 0.0001333333333333333
0.00075 0 0.0001666666666666667
0.00075 0 0.0002
0.00075 0.000125 0
0.00075 0.000125 3.333333333333333e-05
0.00075 0.000125 6.666666666666667e-05
0.00075 0.000125 0.0001
0.00075 0.000125 0.0001333333333333333
0.00075 0.000125 0.0001666666666666667
0.00075 0.000125 0.0002
0.00075 0.00025 0
0.00075 0.00025 3.333333333333333e-05
0.00075 0.00025 6.666666666666667e-05
0.00075 0.00025 0.0001
0.00075 0.00025 0.0001333333333333333
0.00075 0.00025 0.0001666666666666667
0.00075 0.00025 0.0002
0.00075 0.000375 0
0.00075 0.000375 3.333333333333333e-05
0.00075 0.000375 6.666666666666667e-05
0.00075 0.000375 0.0001
0.00075 0.000375 0.0001333333333333333
0.00075 0.000375 0.0001666666666666667
0.00075 0.000375 0.0002
0.00075 0.0005 0
0.00075 0.0005 3.333333333333333e-05
0.00075 0.0005 6.666666666666667e-05
0.00075 0.0005 0.0001
0.00075 0.0005 0.0001333333333333333
0.00075 0.0005 0.0001666666666666667
0.00075 0.0005 0.0002
0.00075 0.000625 0
0.00075 0.000625 3.333333333333333e-05
0.00075 0.000625 6.666666666666667e-05
0.00075 0.000625 0.0001
0.00075 0.000625 0.0001333333333333333
0.00075 0.000625 0.0001666666666666667
0.00075 0.000625 0.0002
0.00075 0.00075 0
0.00075 0.00075 3.333333333333333e-05
0.00075 0.00075 6.666666666666667e-05
0.00075 0.00075 0.0001
0.00075 0.00075 0.0001333333333333333
0.00075 0.00075 0.0001666666666666667
0.00075 0.00075 0.0002
0.00075 0.000875 0
0.00075 0.000875 3.333333333333333e-05
0.00075 0.000875 6.666666666666667e-05
0.00075 0.000875 0.0001
0.00075 0.000875 0.0001333333333333333
0.00075 0.000875 0.0001666666666666667
0.00075 0.000875 0.0002
0.00075 0.001 0
0.00075 0.001 3.333333333333333e-05
0.00075 0.001 6.666666666666667e-05
0.00075 0.001 0.0001
0.00075 0.001 0.0001333333333333333
0.00075 0.001 0.0001666666666666667
0.00075 0.001 0.0002
0.000875 0 0
0.000875 0 3.333333333333333e-05
0.000875 0 6.666666666666667e-05
0.000875 0 0.0001
0.000875 0 0.0001333333333333333
0.000875 0 0.0001666666666666667
0.000875 0 0.0002
0.000875 0.000125 0
0.000875 0.000125 3.333333333333333e-05
0.000875 0.000125 6.666666666666667e-05
0.000875 0.000125 0.0001
0.000875 0.000125 0.0001333333333333333
0.000875 0.000125 0.0001666666666666667
0.000875 0.000125 0.0002
0.000875 0.00025 0
0.000875 0.00025 3.333333333333333e-05
0.000875 0.00025 6.666666666666667e-05
0.000875 0.00025 0.0001
0.000875 0.00025 0.0001333333333333333
0.000875 0.00025 0.0001666666666666667
0.000875 0.00025 0.0002
0.000875 0.000375 0
0.000875 0.000375 3.333333333333333e-05
0.000875 0.000375 6.666666666666667e-05
0.000875 0.000375 0.0001
0.000875 0.000375 0.0001333333333333333
0.000875 0.000375 0.0001666666666666667
0.000875 0.000375 0.0002
0.000875 0.0005 0
0.000875 0.0005 3.333333333333333e-05
0.000875 0.0005 6.666666666666667e-05
0.000875 0.0005 0.0001
0.000875 0.0005 0.0001333333333333333
0.000875 0.0005 0.0001666666666666667
0.000875 0.0005 0.0002
0.000875 0.000625 0
0.000875 0.000625 3.333333333333333e-05
0.000875 0.000625 6.666666666666667e-05
0.000875 0.000625 0.0001
0.000875 0.000625 0.0001333333333333333
0.000875 0.000625 0.0001666666666666667
0.000875 0.000625 0.0002
0.000875 0.00075 0
0.000875 0.00075 3.333333333333333e-05
0.000875 0.00075 6.666666666666667e-05
0.000875 0.00075 0.0001
0.000875 0.00075 0.0001333333333333333
0.000875 0.00075 0.0001666666666666667
0.000875 0.00075 0.0002
0.000875 0.000875 0
0.000875 0.000875 3.333333333333333e-05
0.000875 0.000875 6.666666666666667e-05
0.000875 0.000875 0.0001
0.000875 0.000875 0.0001333333333333333
0.000875 0.000875 0.0001666666666666667
0.000875 0.000875 0.0002
0.000875 0.001 0
0.000875 0.001 3.333333333333333e-05
0.000875 0.001 6.666666666666667e-05
0.000875 0.001 0.0001
0.000875 0.001 0.0001333333333333333
0.000875 0.001 0.0001666666666666667
0.000875 0.001 0.0002
0.001 0 0
0.001 0 3.333333333333333e-05
0.001 0 6.666666666666667e-05
0.001 0 0.0001
0.001 0 0.0001333333333333333
0.001 0 0.0001666666666666667
0.001 0 0.0002
0.001 0.000125 0
0.001 0.000125 3.333333333333333e-05
0.001 0.000125 6.666666666666667e-05
0.001 0.000125 0.0001
0.001 0.000125 0.0001333333333333333
0.001 0.000125 0.0001666666666666667
0.001 0.000125 0.0002
0.001 0.00025 0
0.001 0.00025 3.333333333333333e-05
0.001 0.00025 6.666666666666667e-05
0.001 0.00025 0.0001
0.001 0.00025 0.0001333333333333333
0.001 0.00025 0.0001666666666666667
0.001 0.00025 0.0002
0.001 0.000375 0
0.001 0.000375 3.333333333333333e-05
0.001 0.000375 6.666666666666667e-05
0.001 0.000375 0.0001
0.001 0.000375 0.0001333333333333333
0.001 0.000375 0.0001666666666666667
0.001 0.000375 0.0002
0.001 0.0005 0
0.001 0.0005 3.333333333333333e-05
0.001 0.0005 6.666666666666667e-05
0.001 0.0005 0.0001
0.001 0.0005 0.0001333333333333333
0.001 0.0005 0.0001666666666666667
0.001 0.0005 0.0002
0.001 0.000625 0
0.001 0.000625 3.333333333333333e-05
0.001 0.000625 6.666666666666667e-05
0.001 0.000625 0.0001
0.001 0.000625 0.0001333333333333333
0.001 0.000625 0.0001666666666666667
0.001 0.000625 0.0002
0.001 0.00075 0
0.001 0.00075 3.333333333333333e-05
0.001 0.00075 6.666666666666667e-05
0.001 0.00075 0.0001
0.001 0.00075 0.0001333333333333333
0.001 0.00075 0.0001666666666666667
0.001 0.00075 0.0002
0.001 0.000875 0
0.001 0.000875 3.333333333333333e-05
0.001 0.000875 6.666666666666667e-05
0.001 0.000875 0.0001
0.001 0.000875 0.0001333333333333333
0.001 0.000875 0.0001666666666666667
0.001 0.000875 0.0002
0.001 0.001 0
0.001 0.001 3.333333333333333e-05
0.001 0.001 6.666666666666667e-05
0.001 0.001 0.0001
0.001 0.001 0.0001333333333333333
0.001 0.001 0.0001666666666666667
0.001 0.001 0.0002
$EndNodes
$Elements
3 2560 1 2560
2 1 2 128
1 1 64 71
2 1 71 8
3 8 71 78
4 8 78 15
5 15 78 85
6 15 85 22
7 22 85 92
8 22 92 29
9 29 92 99
10 29 99 36
11 36 99 106
12 36 106 43
13 43 106 113
14 43 113 50
15 50 113 120
16 50 120 57
17 64 127 134
18 64 134 71
19 71 134 141
20 71 141 78
21 78 141 148
22 78 148 85
23 85 148 155
24 85 155 92
25 92 155 162
26 92 162 99
27 99 162 169
28 99 169 106
29 106 169 176
30 106 176 113
31 113 176 183
32 113 183 120
33 127 190 197
34 127 197 134
35 134 197 204
36 134 204 141
37 141 204 211
38 141 211 148
39 148 211 218
40 148 218 155
41 155 218 225
42 155 225 162
43 162 225 232
44 162 232 169
45 169 232 239
46 169 239 176
47 176 239 246
48 176 246 183
49 190 253 260
50 190 260 197
51 197 260 267
52 197 267 204
53 204 267 274
54 204 274 211
55 211 274 281
56 211 281 218
57 218 281 288
58 218 288 225
59 225 288 295
60 225 295 232
61 232 295 302
62 232 302 239
63 239 302 309
64 239 309 246
65 253 316 323
66 253 323 260
67 260 323 330
68 260 330 267
69 267 330 337
70 267 337 274
71 274 337 344
72 274 344 281
73 281 344 351
74 281 351 288
75 288 351 358
76 288 358 295
77 295 358 365
78 295 365 302
79 302 365 372
80 302 372 309
81 316 379 386
82 316 386 323
83 323 386 393
84 323 393 330
85 330 393 400
86 330 400 337
87 337 400 407
88 337 407 344
89 344 407 414
90 344 414 351
91 351 414 421
92 351 421 358
93 358 421 428
94 358 428 365
95 365 428 435
96 365 435 372
97 379 442 449
98 379 449 386
99 386 449 456
100 386 456 393
101 393 456 463
102 393 463 400
103 400 463 470
104 400 470 407
105 407 470 477
106 407 477 414
107 414 477 484
108 414 484 421
109 421 484 491
110 421 491 428
111 428 491 498
112 428 498 435
113 442 505 512
114 442 512 449
115 449 512 519
116 449 519 456
117 456 519 526
118 456 526 463
119 463 526 533
120 463 533 470
121 470 533 540
122 470 540 477
123 477 540 547
124 477 547 484
125 484 547 554
126 484 554 491
127 491 554 561
128 491 561 498
2 2 2 128
129 7 70 77
130 7 77 14
131 14 77 84
132 14 84 21
133 21 84 91
134 21 91 28
135 28 91 98
136 28 98 35
137 35 98 105
138 35 105 42
139 42 105 112
140 42 112 49
141 49 112 119
142 49 119 56
143 56 119 126
144 56 126 63
145 70 133 140
146 70 140 77
147 77 140 147
148 77 147 84
149 84 147 154
150 84 154 91
151 91 154 161
152 91 161 98
153 98 161 168
154 98 168 105
155 105 168 175
156 105 175 112
157 112 175 182
158 112 182 119
159 119 182 189
160 119 189 126
161 133 196 203
162 133 203 140
163 140 203 210
164 140 210 147
165 147 210 217
166 147 217 154
167 154 217 224
168 154 224 161
169 161 224 231
170 161 231 168
171 168 231 238
172 168 238 175
173 175 238 245
174 175 245 182
175 182 245 252
176 182 252 189
177 196 259 266
178 196 266 203
179 203 266 273
180 203 273 210
181 210 273 280
182 210 280 217
183 217 280 287
184 217 287 224
185 224 287 294
186 224 294 231
187 231 294 301
188 231 301 238
189 238 301 308
190 238 308 245
191 245 308 315
192 245 315 252
193 259 322 329
194 259 329 266
195 266 329 336
196 266 336 273
197 273 336 343
198 273 343 280
199 280 343 350
200 280 350 287
201 287 350 357
202 287 357 294
203 294 357 364
204 294 364 301
205 301 364 371
206 301 371 308
207 308 371 378
208 308 378 315
209 322 385 392
210 322 392 329
211 329 392 399
212 329 399 336
213 336 399 406
214 336 406 343
215 343 406 413
216 343 413 350
217 350 413 420
218 350 420 357
219 357 420 427
220 357 427 364
221 364 427 434
222 364 434 371
223 371 434 441
224 371 441 378
225 385 448 455
226 385 455 392
227 392 455 462
228 392 462 399
229 399 462 469
230 399 469 406
231 406 469 476
232 406 476 413
233 413 476 483
234 413 483 420
235 420 483 490
236 420 490 427
237 427 490 497
238 427 497 434
239 434 497 504
240 434 504 441
241 448 511 518
242 448 518 455
243 455 518 525
244 455 525 462
245 462 525 532
246 462 532 469
247 469 532 539
248 469 539 476
249 476 539 546
250 476 546 483
251 483 546 553
252 483 553 490
253 490 553 560
254 490 560 497
255 497 560 567
256 497 567 504
3 3 4 2304
257 1 2 9 72
258 1 2 72 65
259 1 65 72 64
260 1 9 8 72
261 1 71 64 72
262 1 8 71 72
263 2 3 10 73
264 2 3 73 66
265 2 66 73 65
266 2 10 9 73
267 2 72 65 73
268 2 9 72 73
269 3 4 11 74
270 3 4 74 67
271 3 67 74 66
272 3 11 10 74
273 3 73 66 74
274 3 10 73 74
275 4 5 12 75
276 4 5 75 68
277 4 68 75 67
278 4 12 11 75
279 4 74 67 75
280 4 11 74 75
281 5 6 13 76
282 5 6 76 69
283 5 69 76 68
284 5 13 12 76
285 5 75 68 76
286 5 12 75 76
287 6 7 14 77
288 6 7 77 70
289 6 70 77 69
290 6 14 13 77
291 6 76 69 77
292 6 13 76 77
293 8 9 16 79
294 8 9 79 72
295 8 72 79 71
296 8 16 15 79
297 8 78 71 79
298 8 15 78 79
299 9 10 17 80
300 9 10 80 73
301 9 73 80 72
302 9 17 16 80
303 9 79 72 80
304 9 16 79 80
305 10 11 18 81
306 10 11 81 74
307 10 74 81 73
308 10 18 17 81
309 10 80 73 81
310 10 17 80 81
311 11 12 19 82
312 11 12 82 75
313 11 75 82 74
314 11 19 18 82
315 11 81 74 82
316 11 18 81 82
317 12 13 20 83
318 12 13 83 76
319 12 76 83 75
320 12 20 19 83
321 12 82 75 83
322 12 19 82 83
323 13 14 21 84
324 13 14 84 77
325 13 77 84 76
326 13 21 20 84
327 13 83 76 84
328 13 20 83 84
329 15 16 23 86
330 15 16 86 79
331 15 79 86 78
332 15 23 22 86
333 15 85 78 86
334 15 22 85 86
335 16 17 24 87
336 16 17 87 80
337 16 80 87 79
338 16 24 23 87
339 16 86 79 87
340 16 23 86 87
341 17 18 25 88
342 17 18 88 81
343 17 81 88 80
344 17 25 24 88
345 17 87 80 88
346 17 24 87 88
347 18 19 26 89
348 18 19 89 82
349 18 82 89 81
350 18 26 25 89
351 18 88 81 89
352 18 25 88 89
353 19 20 27 90
354 19 20 90 83
355 19 83 90 82
356 19 27 26 90
357 19 89 82 90
358 19 26 89 90
359 20 21 28 91
360 20 21 91 84
361 20 84 91 83
362 20 28 27 91
363 20 90 83 91
364 20 27 90 91
365 22 23 30 93
366 22 23 93 86
367 22 86 93 85
368 22 30 29 93
369 22 92 85 93
370 22 29 92 93
371 23 24 31 94
372 23 24 94 87
373 23 87 94 86
374 23 31 30 94
375 23 93 86 94
376 23 30 93 94
377 24 25 32 95
378 24 25 95 88
379 24 88 95 87
380 24 32 31 95
381 24 94 87 95
382 24 31 94 95
383 25 26 33 96
384 25 26 96 89
385 25 89 96 88
386 25 33 32 96
387 25 95 88 96
388 25 32 95 96
389 26 27 34 97
390 26 27 97 90
391 26 90 97 89
392 26 34 33 97
393 26 96 89 97
394 26 33 96 97
395 27 28 35 98
396 27 28 98 91
397 27 91 98 90
398 27 35 34 98
399 27 97 90 98
400 27 34 97 98
401 29 30 37 100
402 29 30 100 93
403 29 93 100 92
404 29 37 36 100
405 29 99 92 100
406 29 36 99 100
407 30 31 38 101
408 30 31 101 94
409 30 94 101 93
410 30 38 37 101
411 30 100 93 101
412 30 37 100 101
413 31 32 39 102
414 31 32 102 95
415 31 95 102 94
416 31 39 38 102
417 31 101 94 102
418 31 38 101 102
419 32 33 40 103
420 32 33 103 96
421 32 96 103 95
422 32 40 39 103
423 32 102 95 103
424 32 39 102 103
425 33 34 41 104
426 33 34 104 97
427 33 97 104 96
428 33 41 40 104
429 33 103 96 104
430 33 40 103 104
431 34 35 42 105
432 34 35 105 98
433 34 98 105 97
434 34 42 41 105
435 34 104 97 105
436 34 41 104 105
437 36 37 44 107
438 36 37 107 100
439 36 100 107 99
440 36 44 43 107
441 36 106 99 107
442 36 43 106 107
443 37 38 45 108
444 37 38 108 101
445 37 101 108 100
446 37 45 44 108
447 37 107 100 108
448 37 44 107 108
449 38 39 46 109
450 38 39 109 102
451 38 102 109 101
452 38 46 45 109
453 38 108 101 109
454 38 45 108 109
455 39 40 47 110
456 39 40 110 103
457 39 103 110 102
458 39 47 46 110
459 39 109 102 110
460 39 46 109 110
461 40 41 48 111
462 40 41 111 104
463 40 104 111 103
464 40 48 47 111
465 40 110 103 111
466 40 47 110 111
467 41 42 49 112
468 41 42 112 105
469 41 105 112 104
470 41 49 48 112
471 41 111 104 112
472 41 48 111 112
473 43 44 51 114
474 43 44 114 107
475 43 107 114 106
476 43 51 50 114
477 43 113 106 114
478 43 50 113 114
479 44 45 52 115
480 44 45 115 108
481 44 108 115 107
482 44 52 51 115
483 44 114 107 115
484 44 51 114 115
485 45 46 53 116
486 45 46 116 109
487 45 109 116 108
488 45 53 52 116
489 45 115 108 116
490 45 52 115 116
491 46 47 54 117
492 46 47 117 110
493 46 110 117 109
494 46 54 53 117
495 46 116 109 117
496 46 53 116 117
497 47 48 55 118
498 47 48 118 111
499 47 111 118 110
500 47 55 54 118
501 47 117 110 118
502 47 54 117 118
503 48 49 56 119
504 48 49 119 112
505 48 112 119 111
506 48 56 55 119
507 48 118 111 119
508 48 55 118 119
509 50 51 58 121
510 50 51 121 114
511 50 114 121 113
512 50 58 57 121
513 50 120 113 121
514 50 57 120 121
515 51 52 59 122
516 51 52 122 115
517 51 115 122 114
518 51 59 58 122
519 51 121 114 122
520 51 58 121 122
521 52 53 60 123
522 52 53 123 116
523 52 116 123 115
524 52 60 59 123
525 52 122 115 123
526 52 59 122 123
527 53 54 61 124
528 53 54 124 117
529 53 117 124 116
530 53 61 60 124
531 53 123 116 124
532 53 60 123 124
533 54 55 62 125
534 54 55 125 118
535 54 118 125 117
536 54 62 61 125
537 54 124 117 125
538 54 61 124 125
539 55 56 63 126
540 55 56 126 119
541 55 119 126 118
542 55 63 62 126
543 55 125 118 126
544 55 62 125 126
545 64 65 72 135
546 64 65 135 128
547 64 128 135 127
548 64 72 71 135
549 64 134 127 135
550 64 71 134 135
551 65 66 73 136
552 65 66 136 129
553 65 129 136 128
554 65 73 72 136
555 65 135 128 136
556 65 72 135 136
557 66 67 74 137
558 66 67 137 130
559 66 130 137 129
560 66 74 73 137
561 66 136 129 137
562 66 73 136 137
563 67 68 75 138
564 67 68 138 131
565 67 131 138 130
566 67 75 74 138
567 67 137 130 138
568 67 74 137 138
569 68 69 76 139
570 68 69 139 132
571 68 132 139 131
572 68 76 75 139
573 68 138 131 139
574 68 75 138 139
575 69 70 77 140
576 69 70 140 133
577 69 133 140 132
578 69 77 76 140
579 69 139 132 140
580 69 76 139 140
581 71 72 79 142
582 71 72 142 135
583 71 135 142 134
584 71 79 78 142
585 71 141 134 142
586 71 78 141 142
587 72 73 80 143
588 72 73 143 136
589 72 136 143 135
590 72 80 79 143
591 72 142 135 143
592 72 79 142 143
593 73 74 81 144
594 73 74 144 137
595 73 137 144 136
596 73 81 80 144
597 73 143 136 144
598 73 80 143 144
599 74 75 82 145
600 74 75 145 138
601 74 138 145 137
602 74 82 81 145
603 74 144 137 145
604 74 81 144 145
605 75 76 83 146
606 75 76 146 139
607 75 139 146 138
608 75 83 82 146
609 75 145 138 146
610 75 82 145 146
611 76 77 84 147
612 76 77 147 140
613 76 140 147 139
614 76 84 83 147
615 76 146 139 147
616 76 83 146 147
617 78 79 86 149
618 78 79 149 142
619 78 142 149 141
620 78 86 85 149
621 78 148 141 149
622 78 85 148 149
623 79 80 87 150
624 79 80 150 143
625 79 143 150 142
626 79 87 86 150
627 79 149 142 150
628 79 86 149 150
629 80 81 88 151
630 80 81 151 144
631 80 144 151 143
632 80 88 87 151
633 80 150 143 151
634 80 87 150 151
635 81 82 89 152
636 81 82 152 145
637 81 145 152 144
638 81 89 88 152
639 81 151 144 152
640 81 88 151 152
641 82 83 90 153
642 82 83 153 146
643 82 146 153 145
644 82 90 89 153
645 82 152 145 153
646 82 89 152 153
647 83 84 91 154
648 83 84 154 147
649 83 147 154 146
650 83 91 90 154
651 83 153 146 154
652 83 90 153 154
653 85 86 93 156
654 85 86 156 149
655 85 149 156 148
656 85 93 92 156
657 85 155 148 156
658 85 92 155 156
659 86 87 94 157
660 86 87 157 150
661 86 150 157 149
662 86 94 93 157
663 86 156 149 157
664 86 93 156 157
665 87 88 95 158
666 87 88 158 151
667 87 151 158 150
668 87 95 94 158
669 87 157 150 158
670 87 94 157 158
671 88 89 96 159
672 88 89 159 152
673 88 152 159 151
674 88 96 95 159
675 88 158 151 159
676 88 95 158 159
677 89 90 97 160
678 89 90 160 153
679 89 153 160 152
680 89 97 96 160
681 89 159 152 160
682 89 96 159 160
683 90 91 98 161
684 90 91 161 154
685 90 154 161 153
686 90 98 97 161
687 90 160 153 161
688 90 97 160 161
689 92 93 100 163
690 92 93 163 156
691 92 156 163 155
692 92 100 99 163
693 92 162 155 163
694 92 99 162 163
695 93 94 101 164
696 93 94 164 157
697 93 157 164 156
698 93 101 100 164
699 93 163 156 164
700 93 100 163 164
701 94 95 102 165
702 94 95 165 158
703 94 158 165 157
704 94 102 101 165
705 94 164 157 165
706 94 101 164 165
707 95 96 103 166
708 95 96 166 159
709 95 159 166 158
710 95 103 102 166
711 95 165 158 166
712 95 102 165 166
713 96 97 104 167
714 96 97 167 160
715 96 160 167 159
716 96 104 103 167
717 96 166 159 167
718 96 103 166 167
719 97 98 105 168
720 97 98 168 161
721 97 161 168 160
722 97 105 104 168
723 97 167 160 168
724 97 104 167 168
725 99 100 107 170
726 99 100 170 163
727 99 163 170 162
728 99 107 106 170
729 99 169 162 170
730 99 106 169 170
731 100 101 108 171
732 100 101 171 164
733 100 164 171 163
734 100 108 107 171
735 100 170 163 171
736 100 107 170 171
737 101 102 109 172
738 101 102 172 165
739 101 165 172 164
740 101 109 108 172
741 101 171 164 172
742 101 108 171 172
743 102 103 110 173
744 102 103 173 166
745 102 166 173 165
746 102 110 109 173
747 102 172 165 173
748 102 109 172 173
749 103 104 111 174
750 103 104 174 167
751 103 167 174 166
752 103 111 110 174
753 103 173 166 174
754 103 110 173 174
755 104 105 112 175
756 104 105 175 168
757 104 168 175 167
758 104 112 111 175
759 104 174 167 175
760 104 111 174 175
761 106 107 114 177
762 106 107 177 170
763 106 170 177 169
764 106 114 113 177
765 106 176 169 177
766 106 113 176 177
767 107 108 115 178
768 107 108 178 171
769 107 171 178 170
770 107 115 114 178
771 107 177 170 178
772 107 114 177 178
773 108 109 116 179
774 108 109 179 172
775 108 172 179 171
776 108 116 115 179
777 108 178 171 179
778 108 115 178 179
779 109 110 117 180
780 109 110 180 173
781 109 173 180 172
782 109 117 116 180
783 109 179 172 180
784 109 116 179 180
785 110 111 118 181
786 110 111 181 174
787 110 174 181 173
788 110 118 117 181
789 110 180 173 181
790 110 117 180 181
791 111 112 119 182
792 111 112 182 175
793 111 175 182 174
794 111 119 118 182
795 111 181 174 182
796 111 118 181 182
797 113 114 121 184
798 113 114 184 177
799 113 177 184 176
800 113 121 120 184
801 113 183 176 184
802 113 120 183 184
803 114 115 122 185
804 114 115 185 178
805 114 178 185 177
806 114 122 121 185
807 114 184 177 185
808 114 121 184 185
809 115 116 123 186
810 115 116 186 179
811 115 179 186 178
812 115 123 122 186
813 115 185 178 186
814 115 122 185 186
815 116 117 124 187
816 116 117 187 180
817 116 180 187 179
818 116 124 123 187
819 116 186 179 187
820 116 123 186 187
821 117 118 125 188
822 117 118 188 181
823 117 181 188 180
824 117 125 124 188
825 117 187 180 188
826 117 124 187 188
827 118 119 126 189
828 118 119 189 182
829 118 182 189 181
830 118 126 125 189
831 118 188 181 189
832 118 125 188 189
833 127 128 135 198
834 127 128 198 191
835 127 191 198 190
836 127 135 134 198
837 127 197 190 198
838 127 134 197 198
839 128 129 136 199
840 128 129 199 192
841 128 192 199 191
842 128 136 135 199
843 128 198 191 199
844 128 135 198 199
845 129 130 137 200
846 129 130 200 193
847 129 193 200 192
848 129 137 136 200
849 129 199 192 200
850 129 136 199 200
851 130 131 138 201
852 130 131 201 194
853 130 194 201 193
854 130 138 137 201
855 130 200 193 201
856 130 137 200 201
857 131 132 139 202
858 131 132 202 195
859 131 195 202 194
860 131 139 138 202
861 131 201 194 202
862 131 138 201 202
863 132 133 140 203
864 132 133 203 196
865 132 196 203 195
866 132 140 139 203
867 132 202 195 203
868 132 139 202 203
869 134 135 142 205
870 134 135 205 198
871 134 198 205 197
872 134 142 141 205
873 134 204 197 205
874 134 141 204 205
875 135 136 143 206
876 135 136 206 199
877 135 199 206 198
878 135 143 142 206
879 135 205 198 206
880 135 142 205 206
881 136 137 144 207
882 136 137 207 200
883 136 200 207 199
884 136 144 143 207
885 136 206 199 207
886 136 143 206 207
887 137 138 145 208
888 137 138 208 201
889 137 201 208 200
890 137 145 144 208
891 137 207 200 208
892 137 144 207 208
893 138 139 146 209
894 138 139 209 202
895 138 202 209 201
896 138 146 145 209
897 138 208 201 209
898 138 145 208 209
899 139 140 147 210
900 139 140 210 203
901 139 203 210 202
902 139 147 146 210
903 139 209 202 210
904 139 146 209 210
905 141 142 149 212
906 141 142 212 205
907 141 205 212 204
908 141 149 148 212
909 141 211 204 212
910 141 148 211 212
911 142 143 150 213
912 142 143 213 206
913 142 206 213 205
914 142 150 149 213
915 142 212 205 213
916 142 149 212 213
917 143 144 151 214
918 143 144 214 207
919 143 207 214 206
920 143 151 150 214
921 143 213 206 214
922 143 150 213 214
923 144 145 152 215
924 144 145 215 208
925 144 208 215 207
926 144 152 151 215
927 144 214 207 215
928 144 151 214 215
929 145 146 153 216
930 145 146 216 209
931 145 209 216 208
932 145 153 152 216
933 145 215 208 216
934 145 152 215 216
935 146 147 154 217
936 146 147 217 210
937 146 210 217 209
938 146 154 153 217
939 146 216 209 217
940 146 153 216 217
941 148 149 156 219
942 148 149 219 212
943 148 212 219 211
944 148 156 155 219
945 148 218 211 219
946 148 155 218 219
947 149 150 157 220
948 149 150 220 213
949 149 213 220 212
950 149 157 156 220
951 149 219 212 220
952 149 156 219 220
953 150 151 158 221
954 150 151 221 214
955 150 214 221 213
956 150 158 157 221
957 150 220 213 221
958 150 157 220 221
959 151 152 159 222
960 151 152 222 215
961 151 215 222 214
962 151 159 158 222
963 151 221 214 222
964 151 158 221 222
965 152 153 160 223
966 152 153 223 216
967 152 216 223 215
968 152 160 159 223
969 152 222 215 223
970 152 159 222 223
971 153 154 161 224
972 153 154 224 217
973 153 217 224 216
974 153 161 160 224
975 153 223 216 224
976 153 160 223 224
977 155 156 163 226
978 155 156 226 219
979 155 219 226 218
980 155 163 162 226
981 155 225 218 226
982 155 162 225 226
983 156 157 164 227
984 156 157 227 220
985 156 220 227 219
986 156 164 163 227
987 156 226 219 227
988 156 163 226 227
989 157 158 165 228
990 157 158 228 221
991 157 221 228 220
992 157 165 164 228
993 157 227 220 228
994 157 164 227 228
995 158 159 166 229
996 158 159 229 222
997 158 222 229 221
998 158 166 165 229
999 158 228 221 229
1000 158 165 228 229
1001 159 160 167 230
1002 159 160 230 223
1003 159 223 230 222
1004 159 167 166 230
1005 159 229 222 230
1006 159 166 229 230
1007 160 161 168 231
1008 160 161 231 224
1009 160 224 231 223
1010 160 168 167 231
1011 160 230 223 231
1012 160 167 230 231
1013 162 163 170 233
1014 162 163 233 226
1015 162 226 233 225
1016 162 170 169 233
1017 162 232 225 233
1018 162 169 232 233
1019 163 164 171 234
1020 163 164 234 227
1021 163 227 234 226
1022 163 171 170 234
1023 163 233 226 234
1024 163 170 233 234
1025 164 165 172 235
1026 164 165 235 228
1027 164 228 235 227
1028 164 172 171 235
1029 164 234 227 235
1030 164 171 234 235
1031 165 166 173 236
1032 165 166 236 229
1033 165 229 236 228
1034 165 173 172 236
1035 165 235 228 236
1036 165 172 235 236
1037 166 167 174 237
1038 166 167 237 230
1039 166 230 237 229
1040 166 174 173 237
1041 166 236 229 237
1042 166 173 236 237
1043 167 168 175 238
1044 167 168 238 231
1045 167 231 238 230
1046 167 175 174 238
1047 167 237 230 238
1048 167 174 237 238
1049 169 170 177 240
1050 169 170 240 233
1051 169 233 240 232
1052 169 177 176 240
1053 169 239 232 240
1054 169 176 239 240
1055 170 171 178 241
1056 170 171 241 234
1057 170 234 241 233
1058 170 178 177 241
1059 170 240 233 241
1060 170 177 240 241
1061 171 172 179 242
1062 171 172 242 235
1063 171 235 242 234
1064 171 179 178 242
1065 171 241 234 242
1066 171 178 241 242
1067 172 173 180 243
1068 172 173 243 236
1069 172 236 243 235
1070 172 180 179 243
1071 172 242 235 243
1072 172 179 242 243
1073 173 174 181 244
1074 173 174 244 237
1075 173 237 244 236
1076 173 181 180 244
1077 173 243 236 244
1078 173 180 243 244
1079 174 175 182 245
1080 174 175 245 238
1081 174 238 245 237
1082 174 182 181 245
1083 174 244 237 245
1084 174 181 244 245
1085 176 177 184 247
1086 176 177 247 240
1087 176 240 247 239
1088 176 184 183 247
1089 176 246 239 247
1090 176 183 246 247
1091 177 178 185 248
1092 177 178 248 241
1093 177 241 248 240
1094 177 185 184 248
1095 177 247 240 248
1096 177 184 247 248
1097 178 179 186 249
1098 178 179 249 242
1099 178 242 249 241
1100 178 186 185 249
1101 178 248 241 249
1102 178 185 248 249
1103 179 180 187 250
1104 179 180 250 243
1105 179 243 250 242
1106 179 187 186 250
1107 179 249 242 250
1108 179 186 249 250
1109 180 181 188 251
1110 180 181 251 244
1111 180 244 251 243
1112 180 188 187 251
1113 180 250 243 251
1114 180 187 250 251
1115 181 182 189 252
1116 181 182 252 245
1117 181 245 252 244
1118 181 189 188 252
1119 181 251 244 252
1120 181 188 251 252
1121 190 191 198 261
1122 190 191 261 254
1123 190 254 261 253
1124 190 198 197 261
1125 190 260 253 261
1126 190 197 260 261
1127 191 192 199 262
1128 191 192 262 255
1129 191 255 262 254
1130 191 199 198 262
1131 191 261 254 262
1132 191 198 261 262
1133 192 193 200 263
1134 192 193 263 256
1135 192 256 263 255
1136 192 200 199 263
1137 192 262 255 263
1138 192 199 262 263
1139 193 194 201 264
1140 193 194 264 257
1141 193 257 264 256
1142 193 201 200 264
1143 193 263 256 264
1144 193 200 263 264
1145 194 195 202 265
1146 194 195 265 258
1147 194 258 265 257
1148 194 202 201 265
1149 194 264 257 265
1150 194 201 264 265
1151 195 196 203 266
1152 195 196 266 259
1153 195 259 266 258
1154 195 203 202 266
1155 195 265 258 266
1156 195 202 265 266
1157 197 198 205 268
1158 197 198 268 261
1159 197 261 268 260
1160 197 205 204 268
1161 197 267 260 268
1162 197 204 267 268
1163 198 199 206 269
1164 198 199 269 262
1165 198 262 269 261
1166 198 206 205 269
1167 198 268 261 269
1168 198 205 268 269
1169 199 200 207 270
1170 199 200 270 263
1171 199 263 270 262
1172 199 207 206 270
1173 199 269 262 270
1174 199 206 269 270
1175 200 201 208 271
1176 200 201 271 264
1177 200 264 271 263
1178 200 208 207 271
1179 200 270 263 271
1180 200 207 270 271
1181 201 202 209 272
1182 201 202 272 265
1183 201 265 272 264
1184 201 209 208 272
1185 201 271 264 272
1186 201 208 271 272
1187 202 203 210 273
1188 202 203 273 266
1189 202 266 273 265
1190 202 210 209 273
1191 202 272 265 273
1192 202 209 272 273
1193 204 205 212 275
1194 204 205 275 268
1195 204 268 275 267
1196 204 212 211 275
1197 204 274 267 275
1198 204 211 274 275
1199 205 206 213 276
1200 205 206 276 269
1201 205 269 276 268
1202 205 213 212 276
1203 205 275 268 276
1204 205 212 275 276
1205 206 207 214 277
1206 206 207 277 270
1207 206 270 277 269
1208 206 214 213 277
1209 206 276 269 277
1210 206 213 276 277
1211 207 208 215 278
1212 207 208 278 271
1213 207 271 278 270
1214 207 215 214 278
1215 207 277 270 278
1216 207 214 277 278
1217 208 209 216 279
1218 208 209 279 272
1219 208 272 279 271
1220 208 216 215 279
1221 208 278 271 279
1222 208 215 278 279
1223 209 210 217 280
1224 209 210 280 273
1225 209 273 280 272
1226 209 217 216 280
1227 209 279 272 280
1228 209 216 279 280
1229 211 212 219 282
1230 211 212 282 275
1231 211 275 282 274
1232 211 219 218 282
1233 211 281 274 282
1234 211 218 281 282
1235 212 213 220 283
1236 212 213 283 276
1237 212 276 283 275
1238 212 220 219 283
1239 212 282 275 283
1240 212 219 282 283
1241 213 214 221 284
1242 213 214 284 277
1243 213 277 284 276
1244 213 221 220 284
1245 213 283 276 284
1246 213 220 283 284
1247 214 215 222 285
1248 214 215 285 278
1249 214 278 285 277
1250 214 222 221 285
1251 214 284 277 285
1252 214 221 284 285
1253 215 216 223 286
1254 215 216 286 279
1255 215 279 286 278
1256 215 223 222 286
1257 215 285 278 286
1258 215 222 285 286
1259 216 217 224 287
1260 216 217 287 280
1261 216 280 287 279
1262 216 224 223 287
1263 216 286 279 287
1264 216 223 286 287
1265 218 219 226 289
1266 218 219 289 282
1267 218 282 289 281
1268 218 226 225 289
1269 218 288 281 289
1270 218 225 288 289
1271 219 220 227 290
1272 219 220 290 283
1273 219 283 290 282
1274 219 227 226 290
1275 219 289 282 290
1276 219 226 289 290
1277 220 221 228 291
1278 220 221 291 284
1279 220 284 291 283
1280 220 228 227 291
1281 220 290 283 291
1282 220 227 290 291
1283 221 222 229 292
1284 221 222 292 285
1285 221 285 292 284
1286 221 229 228 292
1287 221 291 284 292
1288 221 228 291 292
1289 222 223 230 293
1290 222 223 293 286
1291 222 286 293 285
1292 222 230 229 293
1293 222 292 285 293
1294 222 229 292 293
1295 223 224 231 294
1296 223 224 294 287
1297 223 287 294 286
1298 223 231 230 294
1299 223 293 286 294
1300 223 230 293 294
1301 225 226 233 296
1302 225 226 296 289
1303 225 289 296 288
1304 225 233 232 296
1305 225 295 288 296
1306 225 232 295 296
1307 226 227 234 297
1308 226 227 297 290
1309 226 290 297 289
1310 226 234 233 297
1311 226 296 289 297
1312 226 233 296 297
1313 227 228 235 298
1314 227 228 298 291
1315 227 291 298 290
1316 227 235 234 298
1317 227 297 290 298
1318 227 234 297 298
1319 228 229 236 299
1320 228 229 299 292
1321 228 292 299 291
1322 228 236 235 299
1323 228 298 291 299
1324 228 235 298 299
1325 229 230 237 300
1326 229 230 300 293
1327 229 293 300 292
1328 229 237 236 300
1329 229 299 292 300
1330 229 236 299 300
1331 230 231 238 301
1332 230 231 301 294
1333 230 294 301 293
1334 230 238 237 301
1335 230 300 293 301
1336 230 237 300 301
1337 232 233 240 303
1338 232 233 303 296
1339 232 296 303 295
1340 232 240 239 303
1341 232 302 295 303
1342 232 239 302 303
1343 233 234 241 304
1344 233 234 304 297
1345 233 297 304 296
1346 233 241 240 304
1347 233 303 296 304
1348 233 240 303 304
1349 234 235 242 305
1350 234 235 305 298
1351 234 298 305 297
1352 234 242 241 305
1353 234 304 297 305
1354 234 241 304 305
1355 235 236 243 306
1356 235 236 306 299
1357 235 299 306 298
1358 235 243 242 306
1359 235 305 298 306
1360 235 242 305 306
1361 236 237 244 307
1362 236 237 307 300
1363 236 300 307 299
1364 236 244 243 307
1365 236 306 299 307
1366 236 243 306 307
1367 237 238 245 308
1368 237 238 308 301
1369 237 301 308 300
1370 237 245 244 308
1371 237 307 300 308
1372 237 244 307 308
1373 239 240 247 310
1374 239 240 310 303
1375 239 303 310 302
1376 239 247 246 310
1377 239 309 302 310
1378 239 246 309 310
1379 240 241 248 311
1380 240 241 311 304
1381 240 304 311 303
1382 240 248 247 311
1383 240 310 303 311
1384 240 247 310 311
1385 241 242 249 312
1386 241 242 312 305
1387 241 305 312 304
1388 241 249 248 312
1389 241 311 304 312
1390 241 248 311 312
1391 242 243 250 313
1392 242 243 313 306
1393 242 306 313 305
1394 242 250 249 313
1395 242 312 305 313
1396 242 249 312 313
1397 243 244 251 314
1398 243 244 314 307
1399 243 307 314 306
1400 243 251 250 314
1401 243 313 306 314
1402 243 250 313 314
1403 244 245 252 315
1404 244 245 315 308
1405 244 308 315 307
1406 244 252 251 315
1407 244 314 307 315
1408 244 251 314 315
1409 253 254 261 324
1410 253 254 324 317
1411 253 317 324 316
1412 253 261 260 324
1413 253 323 316 324
1414 253 260 323 324
1415 254 255 262 325
1416 254 255 325 318
1417 254 318 325 317
1418 254 262 261 325
1419 254 324 317 325
1420 254 261 324 325
1421 255 256 263 326
1422 255 256 326 319
1423 255 319 326 318
1424 255 263 262 326
1425 255 325 318 326
1426 255 262 325 326
1427 256 257 264 327
1428 256 257 327 320
1429 256 320 327 319
1430 256 264 263 327
1431 256 326 319 327
1432 256 263 326 327
1433 257 258 265 328
1434 257 258 328 321
1435 257 321 328 320
1436 257 265 264 328
1437 257 327 320 328
1438 257 264 327 328
1439 258 259 266 329
1440 258 259 329 322
1441 258 322 329 321
1442 258 266 265 329
1443 258 328 321 329
1444 258 265 328 329
1445 260 261 268 331
1446 260 261 331 324
1447 260 324 331 323
1448 260 268 267 331
1449 260 330 323 331
1450 260 267 330 331
1451 261 262 269 332
1452 261 262 332 325
1453 261 325 332 324
1454 261 269 268 332
1455 261 331 324 332
1456 261 268 331 332
1457 262 263 270 333
1458 262 263 333 326
1459 262 326 333 325
1460 262 270 269 333
1461 262 332 325 333
1462 262 269 332 333
1463 263 264 271 334
1464 263 264 334 327
1465 263 327 334 326
1466 263 271 270 334
1467 263 333 326 334
1468 263 270 333 334
1469 264 265 272 335
1470 264 265 335 328
1471 264 328 335 327
1472 264 272 271 335
1473 264 334 327 335
1474 264 271 334 335
1475 265 266 273 336
1476 265 266 336 329
1477 265 329 336 328
1478 265 273 272 336
1479 265 335 328 336
1480 265 272 335 336
1481 267 268 275 338
1482 267 268 338 331
1483 267 331 338 330
1484 267 275 274 338
1485 267 337 330 338
1486 267 274 337 338
1487 268 269 276 339
1488 268 269 339 332
1489 268 332 339 331
1490 268 276 275 339
1491 268 338 331 339
1492 268 275 338 339
1493 269 270 277 340
1494 269 270 340 333
1495 269 333 340 332
1496 269 277 276 340
1497 269 339 332 340
1498 269 276 339 340
1499 270 271 278 341
1500 270 271 341 334
1501 270 334 341 333
1502 270 278 277 341
1503 270 340 333 341
1504 270 277 340 341
1505 271 272 279 342
1506 271 272 342 335
1507 271 335 342 334
1508 271 279 278 342
1509 271 341 334 342
1510 271 278 341 342
1511 272 273 280 343
1512 272 273 343 336
1513 272 336 343 335
1514 272 280 279 343
1515 272 342 335 343
1516 272 279 342 343
1517 274 275 282 345
1518 274 275 345 338
1519 274 338 345 337
1520 274 282 281 345
1521 274 344 337 345
1522 274 281 344 345
1523 275 276 283 346
1524 275 276 346 339
1525 275 339 346 338
1526 275 283 282 346
1527 275 345 338 346
1528 275 282 345 346
1529 276 277 284 347
1530 276 277 347 340
1531 276 340 347 339
1532 276 284 283 347
1533 276 346 339 347
1534 276 283 346 347
1535 277 278 285 348
1536 277 278 348 341
1537 277 341 348 340
1538 277 285 284 348
1539 277 347 340 348
1540 277 284 347 348
1541 278 279 286 349
1542 278 279 349 342
1543 278 342 349 341
1544 278 286 285 349
1545 278 348 341 349
1546 278 285 348 349
1547 279 280 287 350
1548 279 280 350 343
1549 279 343 350 342
1550 279 287 286 350
1551 279 349 342 350
1552 279 286 349 350
1553 281 282 289 352
1554 281 282 352 345
1555 281 345 352 344
1556 281 289 288 352
1557 281 351 344 352
1558 281 288 351 352
1559 282 283 290 353
1560 282 283 353 346
1561 282 346 353 345
1562 282 290 289 353
1563 282 352 345 353
1564 282 289 352 353
1565 283 284 291 354
1566 283 284 354 347
1567 283 347 354 346
1568 283 291 290 354
1569 283 353 346 354
1570 283 290 353 354
1571 284 285 292 355
1572 284 285 355 348
1573 284 348 355 347
1574 284 292 291 355
1575 284 354 347 355
1576 284 291 354 355
1577 285 286 293 356
1578 285 286 356 349
1579 285 349 356 348
1580 285 293 292 356
1581 285 355 348 356
1582 285 292 355 356
1583 286 287 294 357
1584 286 287 357 350
1585 286 350 357 349
1586 286 294 293 357
1587 286 356 349 357
1588 286 293 356 357
1589 288 289 296 359
1590 288 289 359 352
1591 288 352 359 351
1592 288 296 295 359
1593 288 358 351 359
1594 288 295 358 359
1595 289 290 297 360
1596 289 290 360 353
1597 289 353 360 352
1598 289 297 296 360
1599 289 359 352 360
1600 289 296 359 360
1601 290 291 298 361
1602 290 291 361 354
1603 290 354 361 353
1604 290 298 297 361
1605 290 360 353 361
1606 290 297 360 361
1607 291 292 299 362
1608 291 292 362 355
1609 291 355 362 354
1610 291 299 298 362
1611 291 361 354 362
1612 291 298 361 362
1613 292 293 300 363
1614 292 293 363 356
1615 292 356 363 355
1616 292 300 299 363
1617 292 362 355 363
1618 292 299 362 363
1619 293 294 301 364
1620 293 294 364 357
1621 293 357 364 356
1622 293 301 300 364
1623 293 363 356 364
1624 293 300 363 364
1625 295 296 303 366
1626 295 296 366 359
1627 295 359 366 358
1628 295 303 302 366
1629 295 365 358 366
1630 295 302 365 366
1631 296 297 304 367
1632 296 297 367 360
1633 296 360 367 359
1634 296 304 303 367
1635 296 366 359 367
1636 296 303 366 367
1637 297 298 305 368
1638 297 298 368 361
1639 297 361 368 360
1640 297 305 304 368
1641 297 367 360 368
1642 297 304 367 368
1643 298 299 306 369
1644 298 299 369 362
1645 298 362 369 361
1646 298 306 305 369
1647 298 368 361 369
1648 298 305 368 369
1649 299 300 307 370
1650 299 300 370 363
1651 299 363 370 362
1652 299 307 306 370
1653 299 369 362 370
1654 299 306 369 370
1655 300 301 308 371
1656 300 301 371 364
1657 300 364 371 363
1658 300 308 307 371
1659 300 370 363 371
1660 300 307 370 371
1661 302 303 310 373
1662 302 303 373 366
1663 302 366 373 365
1664 302 310 309 373
1665 302 372 365 373
1666 302 309 372 373
1667 303 304 311 374
1668 303 304 374 367
1669 303 367 374 366
1670 303 311 310 374
1671 303 373 366 374
1672 303 310 373 374
1673 304 305 312 375
1674 304 305 375 368
1675 304 368 375 367
1676 304 312 311 375
1677 304 374 367 375
1678 304 311 374 375
1679 305 306 313 376
1680 305 306 376 369
1681 305 369 376 368
1682 305 313 312 376
1683 305 375 368 376
1684 305 312 375 376
1685 306 307 314 377
1686 306 307 377 370
1687 306 370 377 369
1688 306 314 313 377
1689 306 376 369 377
1690 306 313 376 377
1691 307 308 315 378
1692 307 308 378 371
1693 307 371 378 370
1694 307 315 314 378
1695 307 377 370 378
1696 307 314 377 378
1697 316 317 324 387
1698 316 317 387 380
1699 316 380 387 379
1700 316 324 323 387
1701 316 386 379 387
1702 316 323 386 387
1703 317 318 325 388
1704 317 318 388 381
1705 317 381 388 380
1706 317 325 324 388
1707 317 387 380 388
1708 317 324 387 388
1709 318 319 326 389
1710 318 319 389 382
1711 318 382 389 381
1712 318 326 325 389
1713 318 388 381 389
1714 318 325 388 389
1715 319 320 327 390
1716 319 320 390 383
1717 319 383 390 382
1718 319 327 326 390
1719 319 389 382 390
1720 319 326 389 390
1721 320 321 328 391
1722 320 321 391 384
1723 320 384 391 383
1724 320 328 327 391
1725 320 390 383 391
1726 320 327 390 391
1727 321 322 329 392
1728 321 322 392 385
1729 321 385 392 384
1730 321 329 328 392
1731 321 391 384 392
1732 321 328 391 392
1733 323 324 331 394
1734 323 324 394 387
1735 323 387 394 386
1736 323 331 330 394
1737 323 393 386 394
1738 323 330 393 394
1739 324 325 332 395
1740 324 325 395 388
1741 324 388 395 387
1742 324 332 331 395
1743 324 394 387 395
1744 324 331 394 395
1745 325 326 333 396
1746 325 326 396 389
1747 325 389 396 388
1748 325 333 332 396
1749 325 395 388 396
1750 325 332 395 396
1751 326 327 334 397
1752 326 327 397 390
1753 326 390 397 389
1754 326 334 333 397
1755 326 396 389 397
1756 326 333 396 397
1757 327 328 335 398
1758 327 328 398 391
1759 327 391 398 390
1760 327 335 334 398
1761 327 397 390 398
1762 327 334 397 398
1763 328 329 336 399
1764 328 329 399 392
1765 328 392 399 391
1766 328 336 335 399
1767 328 398 391 399
1768 328 335 398 399
1769 330 331 338 401
1770 330 331 401 394
1771 330 394 401 393
1772 330 338 337 401
1773 330 400 393 401
1774 330 337 400 401
1775 331 332 339 402
1776 331 332 402 395
1777 331 395 402 394
1778 331 339 338 402
1779 331 401 394 402
1780 331 338 401 402
1781 332 333 340 403
1782 332 333 403 396
1783 332 396 403 395
1784 332 340 339 403
1785 332 402 395 403
1786 332 339 402 403
1787 333 334 341 404
1788 333 334 404 397
1789 333 397 404 396
1790 333 341 340 404
1791 333 403 396 404
1792 333 340 403 404
1793 334 335 342 405
1794 334 335 405 398
1795 334 398 405 397
1796 334 342 341 405
1797 334 404 397 405
1798 334 341 404 405
1799 335 336 343 406
1800 335 336 406 399
1801 335 399 406 398
1802 335 343 342 406
1803 335 405 398 406
1804 335 342 405 406
1805 337 338 345 408
1806 337 338 408 401
1807 337 401 408 400
1808 337 345 344 408
1809 337 407 400 408
1810 337 344 407 408
1811 338 339 346 409
1812 338 339 409 402
1813 338 402 409 401
1814 338 346 345 409
1815 338 408 401 409
1816 338 345 408 409
1817 339 340 347 410
1818 339 340 410 403
1819 339 403 410 402
1820 339 347 346 410
1821 339 409 402 410
1822 339 346 409 410
1823 340 341 348 411
1824 340 341 411 404
1825 340 404 411 403
1826 340 348 347 411
1827 340 410 403 411
1828 340 347 410 411
1829 341 342 349 412
1830 341 342 412 405
1831 341 405 412 404
1832 341 349 348 412
1833 341 411 404 412
1834 341 348 411 412
1835 342 343 350 413
1836 342 343 413 406
1837 342 406 413 405
1838 342 350 349 413
1839 342 412 405 413
1840 342 349 412 413
1841 344 345 352 415
1842 344 345 415 408
1843 344 408 415 407
1844 344 352 351 415
1845 344 414 407 415
1846 344 351 414 415
1847 345 346 353 416
1848 345 346 416 409
1849 345 409 416 408
1850 345 353 352 416
1851 345 415 408 416
1852 345 352 415 416
1853 346 347 354 417
1854 346 347 417 410
1855 346 410 417 409
1856 346 354 353 417
1857 346 416 409 417
1858 346 353 416 417
1859 347 348 355 418
1860 347 348 418 411
1861 347 411 418 410
1862 347 355 354 418
1863 347 417 410 418
1864 347 354 417 418
1865 348 349 356 419
1866 348 349 419 412
1867 348 412 419 411
1868 348 356 355 419
1869 348 418 411 419
1870 348 355 418 419
1871 349 350 357 420
1872 349 350 420 413
1873 349 413 420 412
1874 349 357 356 420
1875 349 419 412 420
1876 349 356 419 420
1877 351 352 359 422
1878 351 352 422 415
1879 351 415 422 414
1880 351 359 358 422
1881 351 421 414 422
1882 351 358 421 422
1883 352 353 360 423
1884 352 353 423 416
1885 352 416 423 415
1886 352 360 359 423
1887 352 422 415 423
1888 352 359 422 423
1889 353 354 361 424
1890 353 354 424 417
1891 353 417 424 416
1892 353 361 360 424
1893 353 423 416 424
1894 353 360 423 424
1895 354 355 362 425
1896 354 355 425 418
1897 354 418 425 417
1898 354 362 361 425
1899 354 424 417 425
1900 354 361 424 425
1901 355 356 363 426
1902 355 356 426 419
1903 355 419 426 418
1904 355 363 362 426
1905 355 425 418 426
1906 355 362 425 426
1907 356 357 364 427
1908 356 357 427 420
1909 356 420 427 419
1910 356 364 363 427
1911 356 426 419 427
1912 356 363 426 427
1913 358 359 366 429
1914 358 359 429 422
1915 358 422 429 421
1916 358 366 365 429
1917 358 428 421 429
1918 358 365 428 429
1919 359 360 367 430
1920 359 360 430 423
1921 359 423 430 422
1922 359 367 366 430
1923 359 429 422 430
1924 359 366 429 430
1925 360 361 368 431
1926 360 361 431 424
1927 360 424 431 423
1928 360 368 367 431
1929 360 430 423 431
1930 360 367 430 431
1931 361 362 369 432
1932 361 362 432 425
1933 361 425 432 424
1934 361 369 368 432
1935 361 431 424 432
1936 361 368 431 432
1937 362 363 370 433
1938 362 363 433 426
1939 362 426 433 425
1940 362 370 369 433
1941 362 432 425 433
1942 362 369 432 433
1943 363 364 371 434
1944 363 364 434 427
1945 363 427 434 426
1946 363 371 370 434
1947 363 433 426 434
1948 363 370 433 434
1949 365 366 373 436
1950 365 366 436 429
1951 365 429 436 428
1952 365 373 372 436
1953 365 435 428 436
1954 365 372 435 436
1955 366 367 374 437
1956 366 367 437 430
1957 366 430 437 429
1958 366 374 373 437
1959 366 436 429 437
1960 366 373 436 437
1961 367 368 375 438
1962 367 368 438 431
1963 367 431 438 430
1964 367 375 374 438
1965 367 437 430 438
1966 367 374 437 438
1967 368 369 376 439
1968 368 369 439 432
1969 368 432 439 431
1970 368 376 375 439
1971 368 438 431 439
1972 368 375 438 439
1973 369 370 377 440
1974 369 370 440 433
1975 369 433 440 432
1976 369 377 376 440
1977 369 439 432 440
1978 369 376 439 440
1979 370 371 378 441
1980 370 371 441 434
1981 370 434 441 433
1982 370 378 377 441
1983 370 440 433 441
1984 370 377 440 441
1985 379 380 387 450
1986 379 380 450 443
1987 379 443 450 442
1988 379 387 386 450
1989 379 449 442 450
1990 379 386 449 450
1991 380 381 388 451
1992 380 381 451 444
1993 380 444 451 443
1994 380 388 387 451
1995 380 450 443 451
1996 380 387 450 451
1997 381 382 389 452
1998 381 382 452 445
1999 381 445 452 444
2000 381 389 388 452
2001 381 451 444 452
2002 381 388 451 452
2003 382 383 390 453
2004 382 383 453 446
2005 382 446 453 445
2006 382 390 389 453
2007 382 452 445 453
2008 382 389 452 453
2009 383 384 391 454
2010 383 384 454 447
2011 383 447 454 446
2012 383 391 390 454
2013 383 453 446 454
2014 383 390 453 454
2015 384 385 392 455
2016 384 385 455 448
2017 384 448 455 447
2018 384 392 391 455
2019 384 454 447 455
2020 384 391 454 455
2021 386 387 394 457
2022 386 387 457 450
2023 386 450 457 449
2024 386 394 393 457
2025 386 456 449 457
2026 386 393 456 457
2027 387 388 395 458
2028 387 388 458 451
2029 387 451 458 450
2030 387 395 394 458
2031 387 457 450 458
2032 387 394 457 458
2033 388 389 396 459
2034 388 389 459 452
2035 388 452 459 451
2036 388 396 395 459
2037 388 458 451 459
2038 388 395 458 459
2039 389 390 397 460
2040 389 390 460 453
2041 389 453 460 452
2042 389 397 396 460
2043 389 459 452 460
2044 389 396 459 460
2045 390 391 398 461
2046 390 391 461 454
2047 390 454 461 453
2048 390 398 397 461
2049 390 460 453 461
2050 390 397 460 461
2051 391 392 399 462
2052 391 392 462 455
2053 391 455 462 454
2054 391 399 398 462
2055 391 461 454 462
2056 391 398 461 462
2057 393 394 401 464
2058 393 394 464 457
2059 393 457 464 456
2060 393 401 400 464
2061 393 463 456 464
2062 393 400 463 464
2063 394 395 402 465
2064 394 395 465 458
2065 394 458 465 457
2066 394 402 401 465
2067 394 464 457 465
2068 394 401 464 465
2069 395 396 403 466
2070 395 396 466 459
2071 395 459 466 458
2072 395 403 402 466
2073 395 465 458 466
2074 395 402 465 466
2075 396 397 404 467
2076 396 397 467 460
2077 396 460 467 459
2078 396 404 403 467
2079 396 466 459 467
2080 396 403 466 467
2081 397 398 405 468
2082 397 398 468 461
2083 397 461 468 460
2084 397 405 404 468
2085 397 467 460 468
2086 397 404 467 468
2087 398 399 406 469
2088 398 399 469 462
2089 398 462 469 461
2090 398 406 405 469
2091 398 468 461 469
2092 398 405 468 469
2093 400 401 408 471
2094 400 401 471 464
2095 400 464 471 463
2096 400 408 407 471
2097 400 470 463 471
2098 400 407 470 471
2099 401 402 409 472
2100 401 402 472 465
2101 401 465 472 464
2102 401 409 408 472
2103 401 471 464 472
2104 401 408 471 472
2105 402 403 410 473
2106 402 403 473 466
2107 402 466 473 465
2108 402 410 409 473
2109 402 472 465 473
2110 402 409 472 473
2111 403 404 411 474
2112 403 404 474 467
2113 403 467 474 466
2114 403 411 410 474
2115 403 473 466 474
2116 403 410 473 474
2117 404 405 412 475
2118 404 405 475 468
2119 404 468 475 467
2120 404 412 411 475
2121 404 474 467 475
2122 404 411 474 475
2123 405 406 413 476
2124 405 406 476 469
2125 405 469 476 468
2126 405 413 412 476
2127 405 475 468 476
2128 405 412 475 476
2129 407 408 415 478
2130 407 408 478 471
2131 407 471 478 470
2132 407 415 414 478
2133 407 477 470 478
2134 407 414 477 478
2135 408 409 416 479
2136 408 409 479 472
2137 408 472 479 471
2138 408 416 415 479
2139 408 478 471 479
2140 408 415 478 479
2141 409 410 417 480
2142 409 410 480 473
2143 409 473 480 472
2144 409 417 416 480
2145 409 479 472 480
2146 409 416 479 480
2147 410 411 418 481
2148 410 411 481 474
2149 410 474 481 473
2150 410 418 417 481
2151 410 480 473 481
2152 410 417 480 481
2153 411 412 419 482
2154 411 412 482 475
2155 411 475 482 474
2156 411 419 418 482
2157 411 481 474 482
2158 411 418 481 482
2159 412 413 420 483
2160 412 413 483 476
2161 412 476 483 475
2162 412 420 419 483
2163 412 482 475 483
2164 412 419 482 483
2165 414 415 422 485
2166 414 415 485 478
2167 414 478 485 477
2168 414 422 421 485
2169 414 484 477 485
2170 414 421 484 485
2171 415 416 423 486
2172 415 416 486 479
2173 415 479 486 478
2174 415 423 422 486
2175 415 485 478 486
2176 415 422 485 486
2177 416 417 424 487
2178 416 417 487 480
2179 416 480 487 479
2180 416 424 423 487
2181 416 486 479 487
2182 416 423 486 487
2183 417 418 425 488
2184 417 418 488 481
2185 417 481 488 480
2186 417 425 424 488
2187 417 487 480 488
2188 417 424 487 488
2189 418 419 426 489
2190 418 419 489 482
2191 418 482 489 481
2192 418 426 425 489
2193 418 488 481 489
2194 418 425 488 489
2195 419 420 427 490
2196 419 420 490 483
2197 419 483 490 482
2198 419 427 426 490
2199 419 489 482 490
2200 419 426 489 490
2201 421 422 429 492
2202 421 422 492 485
2203 421 485 492 484
2204 421 429 428 492
2205 421 491 484 492
2206 421 428 491 492
2207 422 423 430 493
2208 422 423 493 486
2209 422 486 493 485
2210 422 430 429 493
2211 422 492 485 493
2212 422 429 492 493
2213 423 424 431 494
2214 423 424 494 487
2215 423 487 494 486
2216 423 431 430 494
2217 423 493 486 494
2218 423 430 493 494
2219 424 425 432 495
2220 424 425 495 488
2221 424 488 495 487
2222 424 432 431 495
2223 424 494 487 495
2224 424 431 494 495
2225 425 426 433 496
2226 425 426 496 489
2227 425 489 496 488
2228 425 433 432 496
2229 425 495 488 496
2230 425 432 495 496
2231 426 427 434 497
2232 426 427 497 490
2233 426 490 497 489
2234 426 434 433 497
2235 426 496 489 497
2236 426 433 496 497
2237 428 429 436 499
2238 428 429 499 492
2239 428 492 499 491
2240 428 436 435 499
2241 428 498 491 499
2242 428 435 498 499
2243 429 430 437 500
2244 429 430 500 493
2245 429 493 500 492
2246 429 437 436 500
2247 429 499 492 500
2248 429 436 499 500
2249 430 431 438 501
2250 430 431 501 494
2251 430 494 501 493
2252 430 438 437 501
2253 430 500 493 501
2254 430 437 500 501
2255 431 432 439 502
2256 431 432 502 495
2257 431 495 502 494
2258 431 439 438 502
2259 431 501 494 502
2260 431 438 501 502
2261 432 433 440 503
2262 432 433 503 496
2263 432 496 503 495
2264 432 440 439 503
2265 432 502 495 503
2266 432 439 502 503
2267 433 434 441 504
2268 433 434 504 497
2269 433 497 504 496
2270 433 441 440 504
2271 433 503 496 504
2272 433 440 503 504
2273 442 443 450 513
2274 442 443 513 506
2275 442 506 513 505
2276 442 450 449 513
2277 442 512 505 513
2278 442 449 512 513
2279 443 444 451 514
2280 443 444 514 507
2281 443 507 514 506
2282 443 451 450 514
2283 443 513 506 514
2284 443 450 513 514
2285 444 445 452 515
2286 444 445 515 508
2287 444 508 515 507
2288 444 452 451 515
2289 444 514 507 515
2290 444 451 514 515
2291 445 446 453 516
2292 445 446 516 509
2293 445 509 516 508
2294 445 453 452 516
2295 445 515 508 516
2296 445 452 515 516
2297 446 447 454 517
2298 446 447 517 510
2299 446 510 517 509
2300 446 454 453 517
2301 446 516 509 517
2302 446 453 516 517
2303 447 448 455 518
2304 447 448 518 511
2305 447 511 518 510
2306 447 455 454 518
2307 447 517 510 518
2308 447 454 517 518
2309 449 450 457 520
2310 449 450 520 513
2311 449 513 520 512
2312 449 457 456 520
2313 449 519 512 520
2314 449 456 519 520
2315 450 451 458 521
2316 450 451 521 514
2317 450 514 521 513
2318 450 458 457 521
2319 450 520 513 521
2320 450 457 520 521
2321 451 452 459 522
2322 451 452 522 515
2323 451 515 522 514
2324 451 459 458 522
2325 451 521 514 522
2326 451 458 521 522
2327 452 453 460 523
2328 452 453 523 516
2329 452 516 523 515
2330 452 460 459 523
2331 452 522 515 523
2332 452 459 522 523
2333 453 454 461 524
2334 453 454 524 517
2335 453 517 524 516
2336 453 461 460 524
2337 453 523 516 524
2338 453 460 523 524
2339 454 455 462 525
2340 454 455 525 518
2341 454 518 525 517
2342 454 462 461 525
2343 454 524 517 525
2344 454 461 524 525
2345 456 457 464 527
2346 456 457 527 520
2347 456 520 527 519
2348 456 464 463 527
2349 456 526 519 527
2350 456 463 526 527
2351 457 458 465 528
2352 457 458 528 521
2353 457 521 528 520
2354 457 465 464 528
2355 457 527 520 528
2356 457 464 527 528
2357 458 459 466 529
2358 458 459 529 522
2359 458 522 529 521
2360 458 466 465 529
2361 458 528 521 529
2362 458 465 528 529
2363 459 460 467 530
2364 459 460 530 523
2365 459 523 530 522
2366 459 467 466 530
2367 459 529 522 530
2368 459 466 529 530
2369 460 461 468 531
2370 460 461 531 524
2371 460 524 531 523
2372 460 468 467 531
2373 460 530 523 531
2374 460 467 530 531
2375 461 462 469 532
2376 461 462 532 525
2377 461 525 532 524
2378 461 469 468 532
2379 461 531 524 532
2380 461 468 531 532
2381 463 464 471 534
2382 463 464 534 527
2383 463 527 534 526
2384 463 471 470 534
2385 463 533 526 534
2386 463 470 533 534
2387 464 465 472 535
2388 464 465 535 528
2389 464 528 535 527
2390 464 472 471 535
2391 464 534 527 535
2392 464 471 534 535
2393 465 466 473 536
2394 465 466 536 529
2395 465 529 536 528
2396 465 473 472 536
2397 465 535 528 536
2398 465 472 535 536
2399 466 467 474 537
2400 466 467 537 530
2401 466 530 537 529
2402 466 474 473 537
2403 466 536 529 537
2404 466 473 536 537
2405 467 468 475 538
2406 467 468 538 531
2407 467 531 538 530
2408 467 475 474 538
2409 467 537 530 538
2410 467 474 537 538
2411 468 469 476 539
2412 468 469 539 532
2413 468 532 539 531
2414 468 476 475 539
2415 468 538 531 539
2416 468 475 538 539
2417 470 471 478 541
2418 470 471 541 534
2419 470 534 541 533
2420 470 478 477 541
2421 470 540 533 541
2422 470 477 540 541
2423 471 472 479 542
2424 471 472 542 535
2425 471 535 542 534
2426 471 479 478 542
2427 471 541 534 542
2428 471 478 541 542
2429 472 473 480 543
2430 472 473 543 536
2431 472 536 543 535
2432 472 480 479 543
2433 472 542 535 543
2434 472 479 542 543
2435 473 474 481 544
2436 473 474 544 537
2437 473 537 544 536
2438 473 481 480 544
2439 473 543 536 544
2440 473 480 543 544
2441 474 475 482 545
2442 474 475 545 538
2443 474 538 545 537
2444 474 482 481 545
2445 474 544 537 545
2446 474 481 544 545
2447 475 476 483 546
2448 475 476 546 539
2449 475 539 546 538
2450 475 483 482 546
2451 475 545 538 546
2452 475 482 545 546
2453 477 478 485 548
2454 477 478 548 541
2455 477 541 548 540
2456 477 485 484 548
2457 477 547 540 548
2458 477 484 547 548
2459 478 479 486 549
2460 478 479 549 542
2461 478 542 549 541
2462 478 486 485 549
2463 478 548 541 549
2464 478 485 548 549
2465 479 480 487 550
2466 479 480 550 543
2467 479 543 550 542
2468 479 487 486 550
2469 479 549 542 550
2470 479 486 549 550
2471 480 481 488 551
2472 480 481 551 544
2473 480 544 551 543
2474 480 488 487 551
2475 480 550 543 551
2476 480 487 550 551
2477 481 482 489 552
2478 481 482 552 545
2479 481 545 552 544
2480 481 489 488 552
2481 481 551 544 552
2482 481 488 551 552
2483 482 483 490 553
2484 482 483 553 546
2485 482 546 553 545
2486 482 490 489 553
2487 482 552 545 553
2488 482 489 552 553
2489 484 485 492 555
2490 484 485 555 548
2491 484 548 555 547
2492 484 492 491 555
2493 484 554 547 555
2494 484 491 554 555
2495 485 486 493 556
2496 485 486 556 549
2497 485 549 556 548
2498 485 493 492 556
2499 485 555 548 556
2500 485 492 555 556
2501 486 487 494 557
2502 486 487 557 550
2503 486 550 557 549
2504 486 494 493 557
2505 486 556 549 557
2506 486 493 556 557
2507 487 488 495 558
2508 487 488 558 551
2509 487 551 558 550
2510 487 495 494 558
2511 487 557 550 558
2512 487 494 557 558
2513 488 489 496 559
2514 488 489 559 552
2515 488 552 559 551
2516 488 496 495 559
2517 488 558 551 559
2518 488 495 558 559
2519 489 490 497 560
2520 489 490 560 553
2521 489 553 560 552
2522 489 497 496 560
2523 489 559 552 560
2524 489 496 559 560
2525 491 492 499 562
2526 491 492 562 555
2527 491 555 562 554
2528 491 499 498 562
2529 491 561 554 562
2530 491 498 561 562
2531 492 493 500 563
2532 492 493 563 556
2533 492 556 563 555
2534 492 500 499 563
2535 492 562 555 563
2536 492 499 562 563
2537 493 494 501 564
2538 493 494 564 557
2539 493 557 564 556
2540 493 501 500 564
2541 493 563 556 564
2542 493 500 563 564
2543 494 495 502 565
2544 494 495 565 558
2545 494 558 565 557
2546 494 502 501 565
2547 494 564 557 565
2548 494 501 564 565
2549 495 496 503 566
2550 495 496 566 559
2551 495 559 566 558
2552 495 503 502 566
2553 495 565 558 566
2554 495 502 565 566
2555 496 497 504 567
2556 496 497 567 560
2557 496 560 567 559
2558 496 504 503 567
2559 496 566 559 567
2560 496 503 566 567
$EndElements
