$MeshFormat
2.2 0 8
$EndMeshFormat
$Nodes
89
1 0 0 0
2 0 0.0003333333333333333 0
3 0 0.0006666666666666666 0
4 0 0.001 0
5 0.0003333333333333333 0 0
6 0.0003333333333333333 0.0003333333333333333 0
7 0.0003333333333333333 0.0006666666666666666 0
8 0.0003333333333333333 0.001 0
9 0.0006666666666666666 0 0
10 0.0006666666666666666 0.0003333333333333333 0
11 0.0006666666666666666 0.0006666666666666666 0
12 0.0006666666666666666 0.001 0
13 0.001 0 0
14 0.001 0.0003333333333333333 0
15 0.001 0.0006666666666666666 0
16 0.001 0.001 0
17 0 0 0.0002
18 0 0.0003333333333333333 0.0002
19 0 0.0006666666666666666 0.0002
20 0 0.001 0.0002
21 0.0003333333333333333 0 0.0002
22 0.0003333333333333333 0.0003333333333333333 0.0002
23 0.0003333333333333333 0.0006666666666666666 0.0002
24 0.0003333333333333333 0.001 0.0002
25 0.0006666666666666666 0 0.0002
26 0.0006666666666666666 0.0003333333333333333 0.0002
27 0.0006666666666666666 0.0006666666666666666 0.0002
28 0.0006666666666666666 0.001 0.0002
29 0.001 0 0.0002
30 0.001 0.0003333333333333333 0.0002
31 0.001 0.0006666666666666666 0.0002
32 0.001 0.001 0.0002
33 0 0 5e-05
34 0 0 0.0001
35 0 0.0003333333333333333 5e-05
36 0 0.0003333333333333333 0.0001
37 0 0.0006666666666666666 5e-05
38 0 0.0006666666666666666 0.0001
39 0 0.001 5e-05
40 0 0.001 0.0001
41 0.0003333333333333333 0 5e-05
42 0.0003333333333333333 0 0.0001
43 0.0003333333333333333 0.0003333333333333333 5e-05
44 0.0003333333333333333 0.0003333333333333333 0.0001
45 0.0003333333333333333 0.0006666666666666666 5e-05
46 0.0003333333333333333 0.0006666666666666666 0.0001
47 0.0003333333333333333 0.001 5e-05
48 0.0003333333333333333 0.001 0.0001
49 0.0006666666666666666 0 5e-05
50 0.0006666666666666666 0 0.0001
51 0.0006666666666666666 0.0003333333333333333 5e-05
52 0.0006666666666666666 0.0003333333333333333 0.0001
53 0.0006666666666666666 0.0006666666666666666 5e-05
54 0.0006666666666666666 0.0006666666666666666 0.0001
55 0.0006666666666666666 0.001 5e-05
56 0.0006666666666666666 0.001 0.0001
57 0.001 0 5e-05
58 0.001 0 0.0001
59 0.001 0.0003333333333333333 5e-05
60 0.001 0.0003333333333333333 0.0001
61 0.001 0.0006666666666666666 5e-05
62 0.001 0.0006666666666666666 0.0001
63 0.001 0.001 5e-05
64 0.001 0.001 0.0001
65 0.0001666666666666667 0.0001666666666666667 0.000125
66 0.0001666666666666667 0.0005 0.000125
67 0.0001666666666666667 0.0008333333333333334 0.000125
68 0.0005 0.0001666666666666667 0.000125
69 0.0005 0.0005 0.000125
70 0.0005 0.0008333333333333334 0.000125
71 0.0008333333333333333 0.0001666666666666667 0.000125
72 0.0008333333333333333 0.0005 0.000125
73 0.0008333333333333333 0.0008333333333333334 0.000125
74 0 0 0.00015
75 0 0.0003333333333333333 0.00015
76 0 0.0006666666666666666 0.00015
77 0 0.001 0.00015
78 0.0003333333333333333 0 0.00015
79 0.0003333333333333333 0.0003333333333333333 0.00015
80 0.0003333333333333333 0.0006666666666666666 0.00015
81 0.0003333333333333333 0.001 0.00015
82 0.0006666666666666666 0 0.00015
83 0.0006666666666666666 0.0003333333333333333 0.00015
84 0.0006666666666666666 0.0006666666666666666 0.00015
85 0.0006666666666666666 0.001 0.00015
86 0.001 0 0.00015
87 0.001 0.0003333333333333333 0.00015
88 0.001 0.0006666666666666666 0.00015
89 0.001 0.001 0.00015
$EndNodes
$Elements
198
1 2 2 11 11 17 21 22
2 2 2 11 11 17 22 18
3 2 2 11 11 18 22 23
4 2 2 11 11 18 23 19
5 2 2 11 11 19 23 24
6 2 2 11 11 19 24 20
7 2 2 11 11 21 25 26
8 2 2 11 11 21 26 22
9 2 2 11 11 22 26 27
10 2 2 11 11 22 27 23
11 2 2 11 11 23 27 28
12 2 2 11 11 23 28 24
13 2 2 11 11 25 29 30
14 2 2 11 11 25 30 26
15 2 2 11 11 26 30 31
16 2 2 11 11 26 31 27
17 2 2 11 11 27 31 32
18 2 2 11 11 27 32 28
19 3 2 10 10 1 5 6 2
20 3 2 10 10 2 6 7 3
21 3 2 10 10 3 7 8 4
22 3 2 10 10 5 9 10 6
23 3 2 10 10 6 10 11 7
24 3 2 10 10 7 11 12 8
25 3 2 10 10 9 13 14 10
26 3 2 10 10 10 14 15 11
27 3 2 10 10 11 15 16 12
28 4 2 3 3 34 36 75 65
29 4 2 3 3 34 75 74 65
30 4 2 3 3 42 44 79 65
31 4 2 3 3 42 79 78 65
32 4 2 3 3 34 42 78 65
33 4 2 3 3 34 78 74 65
34 4 2 3 3 36 44 79 65
35 4 2 3 3 36 79 75 65
36 4 2 3 3 74 78 79 65
37 4 2 3 3 74 79 75 65
38 4 2 3 3 36 38 76 66
39 4 2 3 3 36 76 75 66
40 4 2 3 3 44 46 80 66
41 4 2 3 3 44 80 79 66
42 4 2 3 3 36 44 79 66
43 4 2 3 3 36 79 75 66
44 4 2 3 3 38 46 80 66
45 4 2 3 3 38 80 76 66
46 4 2 3 3 75 79 80 66
47 4 2 3 3 75 80 76 66
48 4 2 3 3 38 40 77 67
49 4 2 3 3 38 77 76 67
50 4 2 3 3 46 48 81 67
51 4 2 3 3 46 81 80 67
52 4 2 3 3 38 46 80 67
53 4 2 3 3 38 80 76 67
54 4 2 3 3 40 48 81 67
55 4 2 3 3 40 81 77 67
56 4 2 3 3 76 80 81 67
57 4 2 3 3 76 81 77 67
58 4 2 3 3 42 44 79 68
59 4 2 3 3 42 79 78 68
60 4 2 3 3 50 52 83 68
61 4 2 3 3 50 83 82 68
62 4 2 3 3 42 50 82 68
63 4 2 3 3 42 82 78 68
64 4 2 3 3 44 52 83 68
65 4 2 3 3 44 83 79 68
66 4 2 3 3 78 82 83 68
67 4 2 3 3 78 83 79 68
68 4 2 3 3 44 46 80 69
69 4 2 3 3 44 80 79 69
70 4 2 3 3 52 54 84 69
71 4 2 3 3 52 84 83 69
72 4 2 3 3 44 52 83 69
73 4 2 3 3 44 83 79 69
74 4 2 3 3 46 54 84 69
75 4 2 3 3 46 84 80 69
76 4 2 3 3 79 83 84 69
77 4 2 3 3 79 84 80 69
78 4 2 3 3 46 48 81 70
79 4 2 3 3 46 81 80 70
80 4 2 3 3 54 56 85 70
81 4 2 3 3 54 85 84 70
82 4 2 3 3 46 54 84 70
83 4 2 3 3 46 84 80 70
84 4 2 3 3 48 56 85 70
85 4 2 3 3 48 85 81 70
86 4 2 3 3 80 84 85 70
87 4 2 3 3 80 85 81 70
88 4 2 3 3 50 52 83 71
89 4 2 3 3 50 83 82 71
90 4 2 3 3 58 60 87 71
91 4 2 3 3 58 87 86 71
92 4 2 3 3 50 58 86 71
93 4 2 3 3 50 86 82 71
94 4 2 3 3 52 60 87 71
95 4 2 3 3 52 87 83 71
96 4 2 3 3 82 86 87 71
97 4 2 3 3 82 87 83 71
98 4 2 3 3 52 54 84 72
99 4 2 3 3 52 84 83 72
100 4 2 3 3 60 62 88 72
101 4 2 3 3 60 88 87 72
102 4 2 3 3 52 60 87 72
103 4 2 3 3 52 87 83 72
104 4 2 3 3 54 62 88 72
105 4 2 3 3 54 88 84 72
106 4 2 3 3 83 87 88 72
107 4 2 3 3 83 88 84 72
108 4 2 3 3 54 56 85 73
109 4 2 3 3 54 85 84 73
110 4 2 3 3 62 64 89 73
111 4 2 3 3 62 89 88 73
112 4 2 3 3 54 62 88 73
113 4 2 3 3 54 88 84 73
114 4 2 3 3 56 64 89 73
115 4 2 3 3 56 89 85 73
116 4 2 3 3 84 88 89 73
117 4 2 3 3 84 89 85 73
118 4 2 3 3 74 78 79 22
119 4 2 3 3 74 78 22 21
120 4 2 3 3 74 21 22 17
121 4 2 3 3 74 79 75 18
122 4 2 3 3 74 79 18 22
123 4 2 3 3 74 22 18 17
124 4 2 3 3 75 79 80 23
125 4 2 3 3 75 79 23 22
126 4 2 3 3 75 22 23 18
127 4 2 3 3 75 80 76 19
128 4 2 3 3 75 80 19 23
129 4 2 3 3 75 23 19 18
130 4 2 3 3 76 80 81 24
131 4 2 3 3 76 80 24 23
132 4 2 3 3 76 23 24 19
133 4 2 3 3 76 81 77 20
134 4 2 3 3 76 81 20 24
135 4 2 3 3 76 24 20 19
136 4 2 3 3 78 82 83 26
137 4 2 3 3 78 82 26 25
138 4 2 3 3 78 25 26 21
139 4 2 3 3 78 83 79 22
140 4 2 3 3 78 83 22 26
141 4 2 3 3 78 26 22 21
142 4 2 3 3 79 83 84 27
143 4 2 3 3 79 83 27 26
144 4 2 3 3 79 26 27 22
145 4 2 3 3 79 84 80 23
146 4 2 3 3 79 84 23 27
147 4 2 3 3 79 27 23 22
148 4 2 3 3 80 84 85 28
149 4 2 3 3 80 84 28 27
150 4 2 3 3 80 27 28 23
151 4 2 3 3 80 85 81 24
152 4 2 3 3 80 85 24 28
153 4 2 3 3 80 28 24 23
154 4 2 3 3 82 86 87 30
155 4 2 3 3 82 86 30 29
156 4 2 3 3 82 29 30 25
157 4 2 3 3 82 87 83 26
158 4 2 3 3 82 87 26 30
159 4 2 3 3 82 30 26 25
160 4 2 3 3 83 87 88 31
161 4 2 3 3 83 87 31 30
162 4 2 3 3 83 30 31 26
163 4 2 3 3 83 88 84 27
164 4 2 3 3 83 88 27 31
165 4 2 3 3 83 31 27 26
166 4 2 3 3 84 88 89 32
167 4 2 3 3 84 88 32 31
168 4 2 3 3 84 31 32 27
169 4 2 3 3 84 89 85 28
170 4 2 3 3 84 89 28 32
171 4 2 3 3 84 32 28 27
172 5 2 1 1 1 5 6 2 33 41 43 35
173 5 2 1 1 33 41 43 35 34 42 44 36
174 5 2 1 1 2 6 7 3 35 43 45 37
175 5 2 1 1 35 43 45 37 36 44 46 38
176 5 2 1 1 3 7 8 4 37 45 47 39
177 5 2 1 1 37 45 47 39 38 46 48 40
178 5 2 1 1 5 9 10 6 41 49 51 43
179 5 2 1 1 41 49 51 43 42 50 52 44
180 5 2 1 1 6 10 11 7 43 51 53 45
181 5 2 1 1 43 51 53 45 44 52 54 46
182 5 2 1 1 7 11 12 8 45 53 55 47
183 5 2 1 1 45 53 55 47 46 54 56 48
184 5 2 1 1 9 13 14 10 49 57 59 51
185 5 2 1 1 49 57 59 51 50 58 60 52
186 5 2 1 1 10 14 15 11 51 59 61 53
187 5 2 1 1 51 59 61 53 52 60 62 54
188 5 2 1 1 11 15 16 12 53 61 63 55
189 5 2 1 1 53 61 63 55 54 62 64 56
190 7 2 2 2 34 42 44 36 65
191 7 2 2 2 36 44 46 38 66
192 7 2 2 2 38 46 48 40 67
193 7 2 2 2 42 50 52 44 68
194 7 2 2 2 44 52 54 46 69
195 7 2 2 2 46 54 56 48 70
196 7 2 2 2 50 58 60 52 71
197 7 2 2 2 52 60 62 54 72
198 7 2 2 2 54 62 64 56 73
$EndElements
