$MeshFormat
2.2 0 8
$EndMeshFormat
$Nodes
567
1 0 0 0
2 0 0 6.666666666666667e-05
3 0 0 0.0001333333333333333
4 0 0 0.0002
5 0 0.00025 0
6 0 0.00025 6.666666666666667e-05
7 0 0.00025 0.0001333333333333333
8 0 0.00025 0.0002
9 0 0.0005 0
10 0 0.0005 6.666666666666667e-05
11 0 0.0005 0.0001333333333333333
12 0 0.0005 0.0002
13 0 0.00075 0
14 0 0.00075 6.666666666666667e-05
15 0 0.00075 0.0001333333333333333
16 0 0.00075 0.0002
17 0 0.001 0
18 0 0.001 6.666666666666667e-05
19 0 0.001 0.0001333333333333333
20 0 0.001 0.0002
21 0.00025 0 0
22 0.00025 0 6.666666666666667e-05
23 0.00025 0 0.0001333333333333333
24 0.00025 0 0.0002
25 0.00025 0.00025 0
26 0.00025 0.00025 6.666666666666667e-05
27 0.00025 0.00025 0.0001333333333333333
28 0.00025 0.00025 0.0002
29 0.00025 0.0005 0
30 0.00025 0.0005 6.666666666666667e-05
31 0.00025 0.0005 0.0001333333333333333
32 0.00025 0.0005 0.0002
33 0.00025 0.00075 0
34 0.00025 0.00075 6.666666666666667e-05
35 0.00025 0.00075 0.0001333333333333333
36 0.00025 0.00075 0.0002
37 0.00025 0.001 0
38 0.00025 0.001 6.666666666666667e-05
39 0.00025 0.001 0.0001333333333333333
40 0.00025 0.001 0.0002
41 0.0005 0 0
42 0.0005 0 6.666666666666667e-05
43 0.0005 0 0.0001333333333333333
44 0.0005 0 0.0002
45 0.0005 0.00025 0
46 0.0005 0.00025 6.666666666666667e-05
47 0.0005 0.00025 0.0001333333333333333
48 0.0005 0.00025 0.0002
49 0.0005 0.0005 0
50 0.0005 0.0005 6.666666666666667e-05
51 0.0005 0.0005 0.0001333333333333333
52 0.0005 0.0005 0.0002
53 0.0005 0.00075 0
54 0.0005 0.00075 6.666666666666667e-05
55 0.0005 0.00075 0.0001333333333333333
56 0.0005 0.00075 0.0002
57 0.0005 0.001 0
58 0.0005 0.001 6.666666666666667e-05
59 0.0005 0.001 0.0001333333333333333
60 0.0005 0.001 0.0002
61 0.00075 0 0
62 0.00075 0 6.666666666666667e-05
63 0.00075 0 0.0001333333333333333
64 0.00075 0 0.0002
65 0.00075 0.00025 0
66 0.00075 0.00025 6.666666666666667e-05
67 0.00075 0.00025 0.0001333333333333333
68 0.00075 0.00025 0.0002
69 0.00075 0.0005 0
70 0.00075 0.0005 6.666666666666667e-05
71 0.00075 0.0005 0.0001333333333333333
72 0.00075 0.0005 0.0002
73 0.00075 0.00075 0
74 0.00075 0.00075 6.666666666666667e-05
75 0.00075 0.00075 0.0001333333333333333
76 0.00075 0.00075 0.0002
77 0.00075 0.001 0
78 0.00075 0.001 6.666666666666667e-05
79 0.00075 0.001 0.0001333333333333333
80 0.00075 0.001 0.0002
81 0.001 0 0
82 0.001 0 6.666666666666667e-05
83 0.001 0 0.0001333333333333333
84 0.001 0 0.0002
85 0.001 0.00025 0
86 0.001 0.00025 6.666666666666667e-05
87 0.001 0.00025 0.0001333333333333333
88 0.001 0.00025 0.0002
89 0.001 0.0005 0
90 0.001 0.0005 6.666666666666667e-05
91 0.001 0.0005 0.0001333333333333333
92 0.001 0.0005 0.0002
93 0.001 0.00075 0
94 0.001 0.00075 6.666666666666667e-05
95 0.001 0.00075 0.0001333333333333333
96 0.001 0.00075 0.0002
97 0.001 0.001 0
98 0.001 0.001 6.666666666666667e-05
99 0.001 0.001 0.0001333333333333333
100 0.001 0.001 0.0002
101 0 0 3.333333333333333e-05
102 0 0.000125 6.666666666666667e-05
103 0 0.000125 3.333333333333333e-05
104 0.000125 0.000125 3.333333333333333e-05
105 0.000125 0.00025 6.666666666666667e-05
106 0.000125 0.000125 6.666666666666667e-05
107 0.000125 0 3.333333333333333e-05
108 0.00025 0.000125 6.666666666666667e-05
109 0.000125 0 6.666666666666667e-05
110 0.000125 0 0
111 0.00025 0.000125 3.333333333333333e-05
112 0.00025 0 3.333333333333333e-05
113 0 0.00025 3.333333333333333e-05
114 0 0.000125 0
115 0.000125 0.00025 3.333333333333333e-05
116 0.000125 0.000125 0
117 0.00025 0.000125 0
118 0.00025 0.00025 3.333333333333333e-05
119 0.000125 0.00025 0
120 0 0 0.0001
121 0 0.000125 0.0001333333333333333
122 0 0.000125 0.0001
123 0.000125 0.000125 0.0001
124 0.000125 0.00025 0.0001333333333333333
125 0.000125 0.000125 0.0001333333333333333
126 0.000125 0 0.0001
127 0.00025 0.000125 0.0001333333333333333
128 0.000125 0 0.0001333333333333333
129 0.00025 0.000125 0.0001
130 0.00025 0 0.0001
131 0 0.00025 0.0001
132 0.000125 0.00025 0.0001
133 0.00025 0.00025 0.0001
134 0 0 0.0001666666666666667
135 0 0.000125 0.0002
136 0 0.000125 0.0001666666666666667
137 0.000125 0.000125 0.0001666666666666667
138 0.000125 0.00025 0.0002
139 0.000125 0.000125 0.0002
140 0.000125 0 0.0001666666666666667
141 0.00025 0.000125 0.0002
142 0.000125 0 0.0002
143 0.00025 0.000125 0.0001666666666666667
144 0.00025 0 0.0001666666666666667
145 0 0.00025 0.0001666666666666667
146 0.000125 0.00025 0.0001666666666666667
147 0.00025 0.00025 0.0001666666666666667
148 0 0.000375 6.666666666666667e-05
149 0 0.000375 3.333333333333333e-05
150 0.000125 0.000375 3.333333333333333e-05
151 0.000125 0.0005 6.666666666666667e-05
152 0.000125 0.000375 6.666666666666667e-05
153 0.00025 0.000375 6.666666666666667e-05
154 0.00025 0.000375 3.333333333333333e-05
155 0 0.0005 3.333333333333333e-05
156 0 0.000375 0
157 0.000125 0.0005 3.333333333333333e-05
158 0.000125 0.000375 0
159 0.00025 0.000375 0
160 0.00025 0.0005 3.333333333333333e-05
161 0.000125 0.0005 0
162 0 0.000375 0.0001333333333333333
163 0 0.000375 0.0001
164 0.000125 0.000375 0.0001
165 0.000125 0.0005 0.0001333333333333333
166 0.000125 0.000375 0.0001333333333333333
167 0.00025 0.000375 0.0001333333333333333
168 0.00025 0.000375 0.0001
169 0 0.0005 0.0001
170 0.000125 0.0005 0.0001
171 0.00025 0.0005 0.0001
172 0 0.000375 0.0002
173 0 0.000375 0.0001666666666666667
174 0.000125 0.000375 0.0001666666666666667
175 0.000125 0.0005 0.0002
176 0.000125 0.000375 0.0002
177 0.00025 0.000375 0.0002
178 0.00025 0.000375 0.0001666666666666667
179 0 0.0005 0.0001666666666666667
180 0.000125 0.0005 0.0001666666666666667
181 0.00025 0.0005 0.0001666666666666667
182 0 0.000625 6.666666666666667e-05
183 0 0.000625 3.333333333333333e-05
184 0.000125 0.000625 3.333333333333333e-05
185 0.000125 0.00075 6.666666666666667e-05
186 0.000125 0.000625 6.666666666666667e-05
187 0.00025 0.000625 6.666666666666667e-05
188 0.00025 0.000625 3.333333333333333e-05
189 0 0.00075 3.333333333333333e-05
190 0 0.000625 0
191 0.000125 0.00075 3.333333333333333e-05
192 0.000125 0.000625 0
193 0.00025 0.000625 0
194 0.00025 0.00075 3.333333333333333e-05
195 0.000125 0.00075 0
196 0 0.000625 0.0001333333333333333
197 0 0.000625 0.0001
198 0.000125 0.000625 0.0001
199 0.000125 0.00075 0.0001333333333333333
200 0.000125 0.000625 0.0001333333333333333
201 0.00025 0.000625 0.0001333333333333333
202 0.00025 0.000625 0.0001
203 0 0.00075 0.0001
204 0.000125 0.00075 0.0001
205 0.00025 0.00075 0.0001
206 0 0.000625 0.0002
207 0 0.000625 0.0001666666666666667
208 0.000125 0.000625 0.0001666666666666667
209 0.000125 0.00075 0.0002
210 0.000125 0.000625 0.0002
211 0.00025 0.000625 0.0002
212 0.00025 0.000625 0.0001666666666666667
213 0 0.00075 0.0001666666666666667
214 0.000125 0.00075 0.0001666666666666667
215 0.00025 0.00075 0.0001666666666666667
216 0 0.000875 6.666666666666667e-05
217 0 0.000875 3.333333333333333e-05
218 0.000125 0.000875 3.333333333333333e-05
219 0.000125 0.001 6.666666666666667e-05
220 0.000125 0.000875 6.666666666666667e-05
221 0.00025 0.000875 6.666666666666667e-05
222 0.00025 0.000875 3.333333333333333e-05
223 0 0.001 3.333333333333333e-05
224 0 0.000875 0
225 0.000125 0.001 3.333333333333333e-05
226 0.000125 0.000875 0
227 0.00025 0.000875 0
228 0.00025 0.001 3.333333333333333e-05
229 0.000125 0.001 0
230 0 0.000875 0.0001333333333333333
231 0 0.000875 0.0001
232 0.000125 0.000875 0.0001
233 0.000125 0.001 0.0001333333333333333
234 0.000125 0.000875 0.0001333333333333333
235 0.00025 0.000875 0.0001333333333333333
236 0.00025 0.000875 0.0001
237 0 0.001 0.0001
238 0.000125 0.001 0.0001
239 0.00025 0.001 0.0001
240 0 0.000875 0.0002
241 0 0.000875 0.0001666666666666667
242 0.000125 0.000875 0.0001666666666666667
243 0.000125 0.001 0.0002
244 0.000125 0.000875 0.0002
245 0.00025 0.000875 0.0002
246 0.00025 0.000875 0.0001666666666666667
247 0 0.001 0.0001666666666666667
248 0.000125 0.001 0.0001666666666666667
249 0.00025 0.001 0.0001666666666666667
250 0.000375 0.000125 3.333333333333333e-05
251 0.000375 0.00025 6.666666666666667e-05
252 0.000375 0.000125 6.666666666666667e-05
253 0.000375 0 3.333333333333333e-05
254 0.0005 0.000125 6.666666666666667e-05
255 0.000375 0 6.666666666666667e-05
256 0.000375 0 0
257 0.0005 0.000125 3.333333333333333e-05
258 0.0005 0 3.333333333333333e-05
259 0.000375 0.00025 3.333333333333333e-05
260 0.000375 0.000125 0
261 0.0005 0.000125 0
262 0.0005 0.00025 3.333333333333333e-05
263 0.000375 0.00025 0
264 0.000375 0.000125 0.0001
265 0.000375 0.00025 0.0001333333333333333
266 0.000375 0.000125 0.0001333333333333333
267 0.000375 0 0.0001
268 0.0005 0.000125 0.0001333333333333333
269 0.000375 0 0.0001333333333333333
270 0.0005 0.000125 0.0001
271 0.0005 0 0.0001
272 0.000375 0.00025 0.0001
273 0.0005 0.00025 0.0001
274 0.000375 0.000125 0.0001666666666666667
275 0.000375 0.00025 0.0002
276 0.000375 0.000125 0.0002
277 0.000375 0 0.0001666666666666667
278 0.0005 0.000125 0.0002
279 0.000375 0 0.0002
280 0.0005 0.000125 0.0001666666666666667
281 0.0005 0 0.0001666666666666667
282 0.000375 0.00025 0.0001666666666666667
283 0.0005 0.00025 0.0001666666666666667
284 0.000375 0.000375 3.333333333333333e-05
285 0.000375 0.0005 6.666666666666667e-05
286 0.000375 0.000375 6.666666666666667e-05
287 0.0005 0.000375 6.666666666666667e-05
288 0.0005 0.000375 3.333333333333333e-05
289 0.000375 0.0005 3.333333333333333e-05
290 0.000375 0.000375 0
291 0.0005 0.000375 0
292 0.0005 0.0005 3.333333333333333e-05
293 0.000375 0.0005 0
294 0.000375 0.000375 0.0001
295 0.000375 0.0005 0.0001333333333333333
296 0.000375 0.000375 0.0001333333333333333
297 0.0005 0.000375 0.0001333333333333333
298 0.0005 0.000375 0.0001
299 0.000375 0.0005 0.0001
300 0.0005 0.0005 0.0001
301 0.000375 0.000375 0.0001666666666666667
302 0.000375 0.0005 0.0002
303 0.000375 0.000375 0.0002
304 0.0005 0.000375 0.0002
305 0.0005 0.000375 0.0001666666666666667
306 0.000375 0.0005 0.0001666666666666667
307 0.0005 0.0005 0.0001666666666666667
308 0.000375 0.000625 3.333333333333333e-05
309 0.000375 0.00075 6.666666666666667e-05
310 0.000375 0.000625 6.666666666666667e-05
311 0.0005 0.000625 6.666666666666667e-05
312 0.0005 0.000625 3.333333333333333e-05
313 0.000375 0.00075 3.333333333333333e-05
314 0.000375 0.000625 0
315 0.0005 0.000625 0
316 0.0005 0.00075 3.333333333333333e-05
317 0.000375 0.00075 0
318 0.000375 0.000625 0.0001
319 0.000375 0.00075 0.0001333333333333333
320 0.000375 0.000625 0.0001333333333333333
321 0.0005 0.000625 0.0001333333333333333
322 0.0005 0.000625 0.0001
323 0.000375 0.00075 0.0001
324 0.0005 0.00075 0.0001
325 0.000375 0.000625 0.0001666666666666667
326 0.000375 0.00075 0.0002
327 0.000375 0.000625 0.0002
328 0.0005 0.000625 0.0002
329 0.0005 0.000625 0.0001666666666666667
330 0.000375 0.00075 0.0001666666666666667
331 0.0005 0.00075 0.0001666666666666667
332 0.000375 0.000875 3.333333333333333e-05
333 0.000375 0.001 6.666666666666667e-05
334 0.000375 0.000875 6.666666666666667e-05
335 0.0005 0.000875 6.666666666666667e-05
336 0.0005 0.000875 3.333333333333333e-05
337 0.000375 0.001 3.333333333333333e-05
338 0.000375 0.000875 0
339 0.0005 0.000875 0
340 0.0005 0.001 3.333333333333333e-05
341 0.000375 0.001 0
342 0.000375 0.000875 0.0001
343 0.000375 0.001 0.0001333333333333333
344 0.000375 0.000875 0.0001333333333333333
345 0.0005 0.000875 0.0001333333333333333
346 0.0005 0.000875 0.0001
347 0.000375 0.001 0.0001
348 0.0005 0.001 0.0001
349 0.000375 0.000875 0.0001666666666666667
350 0.000375 0.001 0.0002
351 0.000375 0.000875 0.0002
352 0.0005 0.000875 0.0002
353 0.0005 0.000875 0.0001666666666666667
354 0.000375 0.001 0.0001666666666666667
355 0.0005 0.001 0.0001666666666666667
356 0.000625 0.000125 3.333333333333333e-05
357 0.000625 0.00025 6.666666666666667e-05
358 0.000625 0.000125 6.666666666666667e-05
359 0.000625 0 3.333333333333333e-05
360 0.00075 0.000125 6.666666666666667e-05
361 0.000625 0 6.666666666666667e-05
362 0.000625 0 0
363 0.00075 0.000125 3.333333333333333e-05
364 0.00075 0 3.333333333333333e-05
365 0.000625 0.00025 3.333333333333333e-05
366 0.000625 0.000125 0
367 0.00075 0.000125 0
368 0.00075 0.00025 3.333333333333333e-05
369 0.000625 0.00025 0
370 0.000625 0.000125 0.0001
371 0.000625 0.00025 0.0001333333333333333
372 0.000625 0.000125 0.0001333333333333333
373 0.000625 0 0.0001
374 0.00075 0.000125 0.0001333333333333333
375 0.000625 0 0.0001333333333333333
376 0.00075 0.000125 0.0001
377 0.00075 0 0.0001
378 0.000625 0.00025 0.0001
379 0.00075 0.00025 0.0001
380 0.000625 0.000125 0.0001666666666666667
381 0.000625 0.00025 0.0002
382 0.000625 0.000125 0.0002
383 0.000625 0 0.0001666666666666667
384 0.00075 0.000125 0.0002
385 0.000625 0 0.0002
386 0.00075 0.000125 0.0001666666666666667
387 0.00075 0 0.0001666666666666667
388 0.000625 0.00025 0.0001666666666666667
389 0.00075 0.00025 0.0001666666666666667
390 0.000625 0.000375 3.333333333333333e-05
391 0.000625 0.0005 6.666666666666667e-05
392 0.000625 0.000375 6.666666666666667e-05
393 0.00075 0.000375 6.666666666666667e-05
394 0.00075 0.000375 3.333333333333333e-05
395 0.000625 0.0005 3.333333333333333e-05
396 0.000625 0.000375 0
397 0.00075 0.000375 0
398 0.00075 0.0005 3.333333333333333e-05
399 0.000625 0.0005 0
400 0.000625 0.000375 0.0001
401 0.000625 0.0005 0.0001333333333333333
402 0.000625 0.000375 0.0001333333333333333
403 0.00075 0.000375 0.0001333333333333333
404 0.00075 0.000375 0.0001
405 0.000625 0.0005 0.0001
406 0.00075 0.0005 0.0001
407 0.000625 0.000375 0.0001666666666666667
408 0.000625 0.0005 0.0002
409 0.000625 0.000375 0.0002
410 0.00075 0.000375 0.0002
411 0.00075 0.000375 0.0001666666666666667
412 0.000625 0.0005 0.0001666666666666667
413 0.00075 0.0005 0.0001666666666666667
414 0.000625 0.000625 3.333333333333333e-05
415 0.000625 0.00075 6.666666666666667e-05
416 0.000625 0.000625 6.666666666666667e-05
417 0.00075 0.000625 6.666666666666667e-05
418 0.00075 0.000625 3.333333333333333e-05
419 0.000625 0.00075 3.333333333333333e-05
420 0.000625 0.000625 0
421 0.00075 0.000625 0
422 0.00075 0.00075 3.333333333333333e-05
423 0.000625 0.00075 0
424 0.000625 0.000625 0.0001
425 0.000625 0.00075 0.0001333333333333333
426 0.000625 0.000625 0.0001333333333333333
427 0.00075 0.000625 0.0001333333333333333
428 0.00075 0.000625 0.0001
429 0.000625 0.00075 0.0001
430 0.00075 0.00075 0.0001
431 0.000625 0.000625 0.0001666666666666667
432 0.000625 0.00075 0.0002
433 0.000625 0.000625 0.0002
434 0.00075 0.000625 0.0002
435 0.00075 0.000625 0.0001666666666666667
436 0.000625 0.00075 0.0001666666666666667
437 0.00075 0.00075 0.0001666666666666667
438 0.000625 0.000875 3.333333333333333e-05
439 0.000625 0.001 6.666666666666667e-05
440 0.000625 0.000875 6.666666666666667e-05
441 0.00075 0.000875 6.666666666666667e-05
442 0.00075 0.000875 3.333333333333333e-05
443 0.000625 0.001 3.333333333333333e-05
444 0.000625 0.000875 0
445 0.00075 0.000875 0
446 0.00075 0.001 3.333333333333333e-05
447 0.000625 0.001 0
448 0.000625 0.000875 0.0001
449 0.000625 0.001 0.0001333333333333333
450 0.000625 0.000875 0.0001333333333333333
451 0.00075 0.000875 0.0001333333333333333
452 0.00075 0.000875 0.0001
453 0.000625 0.001 0.0001
454 0.00075 0.001 0.0001
455 0.000625 0.000875 0.0001666666666666667
456 0.000625 0.001 0.0002
457 0.000625 0.000875 0.0002
458 0.00075 0.000875 0.0002
459 0.00075 0.000875 0.0001666666666666667
460 0.000625 0.001 0.0001666666666666667
461 0.00075 0.001 0.0001666666666666667
462 0.000875 0.000125 3.333333333333333e-05
463 0.000875 0.00025 6.666666666666667e-05
464 0.000875 0.000125 6.666666666666667e-05
465 0.000875 0 3.333333333333333e-05
466 0.001 0.000125 6.666666666666667e-05
467 0.000875 0 6.666666666666667e-05
468 0.000875 0 0
469 0.001 0.000125 3.333333333333333e-05
470 0.001 0 3.333333333333333e-05
471 0.000875 0.00025 3.333333333333333e-05
472 0.000875 0.000125 0
473 0.001 0.000125 0
474 0.001 0.00025 3.333333333333333e-05
475 0.000875 0.00025 0
476 0.000875 0.000125 0.0001
477 0.000875 0.00025 0.0001333333333333333
478 0.000875 0.000125 0.0001333333333333333
479 0.000875 0 0.0001
480 0.001 0.000125 0.0001333333333333333
481 0.000875 0 0.0001333333333333333
482 0.001 0.000125 0.0001
483 0.001 0 0.0001
484 0.000875 0.00025 0.0001
485 0.001 0.00025 0.0001
486 0.000875 0.000125 0.0001666666666666667
487 0.000875 0.00025 0.0002
488 0.000875 0.000125 0.0002
489 0.000875 0 0.0001666666666666667
490 0.001 0.000125 0.0002
491 0.000875 0 0.0002
492 0.001 0.000125 0.0001666666666666667
493 0.001 0 0.0001666666666666667
494 0.000875 0.00025 0.0001666666666666667
495 0.001 0.00025 0.0001666666666666667
496 0.000875 0.000375 3.333333333333333e-05
497 0.000875 0.0005 6.666666666666667e-05
498 0.000875 0.000375 6.666666666666667e-05
499 0.001 0.000375 6.666666666666667e-05
500 0.001 0.000375 3.333333333333333e-05
501 0.000875 0.0005 3.333333333333333e-05
502 0.000875 0.000375 0
503 0.001 0.000375 0
504 0.001 0.0005 3.333333333333333e-05
505 0.000875 0.0005 0
506 0.000875 0.000375 0.0001
507 0.000875 0.0005 0.0001333333333333333
508 0.000875 0.000375 0.0001333333333333333
509 0.001 0.000375 0.0001333333333333333
510 0.001 0.000375 0.0001
511 0.000875 0.0005 0.0001
512 0.001 0.0005 0.0001
513 0.000875 0.000375 0.0001666666666666667
514 0.000875 0.0005 0.0002
515 0.000875 0.000375 0.0002
516 0.001 0.000375 0.0002
517 0.001 0.000375 0.0001666666666666667
518 0.000875 0.0005 0.0001666666666666667
519 0.001 0.0005 0.0001666666666666667
520 0.000875 0.000625 3.333333333333333e-05
521 0.000875 0.00075 6.666666666666667e-05
522 0.000875 0.000625 6.666666666666667e-05
523 0.001 0.000625 6.666666666666667e-05
524 0.001 0.000625 3.333333333333333e-05
525 0.000875 0.00075 3.333333333333333e-05
526 0.000875 0.000625 0
527 0.001 0.000625 0
528 0.001 0.00075 3.333333333333333e-05
529 0.000875 0.00075 0
530 0.000875 0.000625 0.0001
531 0.000875 0.00075 0.0001333333333333333
532 0.000875 0.000625 0.0001333333333333333
533 0.001 0.000625 0.0001333333333333333
534 0.001 0.000625 0.0001
535 0.000875 0.00075 0.0001
536 0.001 0.00075 0.0001
537 0.000875 0.000625 0.0001666666666666667
538 0.000875 0.00075 0.0002
539 0.000875 0.000625 0.0002
540 0.001 0.000625 0.0002
541 0.001 0.000625 0.0001666666666666667
542 0.000875 0.00075 0.0001666666666666667
543 0.001 0.00075 0.0001666666666666667
544 0.000875 0.000875 3.333333333333333e-05
545 0.000875 0.001 6.666666666666667e-05
546 0.000875 0.000875 6.666666666666667e-05
547 0.001 0.000875 6.666666666666667e-05
548 0.001 0.000875 3.333333333333333e-05
549 0.000875 0.001 3.333333333333333e-05
550 0.000875 0.000875 0
551 0.001 0.000875 0
552 0.001 0.001 3.333333333333333e-05
553 0.000875 0.001 0
554 0.000875 0.000875 0.0001
555 0.000875 0.001 0.0001333333333333333
556 0.000875 0.000875 0.0001333333333333333
557 0.001 0.000875 0.0001333333333333333
558 0.001 0.000875 0.0001
559 0.000875 0.001 0.0001
560 0.001 0.001 0.0001
561 0.000875 0.000875 0.0001666666666666667
562 0.000875 0.001 0.0002
563 0.000875 0.000875 0.0002
564 0.001 0.000875 0.0002
565 0.001 0.000875 0.0001666666666666667
566 0.000875 0.001 0.0001666666666666667
567 0.001 0.001 0.0001666666666666667
$EndNodes
$Elements
352
1 9 2 10 10 1 21 25 110 117 116
2 9 2 10 10 1 25 5 116 119 114
3 9 2 11 11 4 24 28 142 141 139
4 9 2 11 11 4 28 8 139 138 135
5 9 2 10 10 5 25 29 119 159 158
6 9 2 10 10 5 29 9 158 161 156
7 9 2 11 11 8 28 32 138 177 176
8 9 2 11 11 8 32 12 176 175 172
9 9 2 10 10 9 29 33 161 193 192
10 9 2 10 10 9 33 13 192 195 190
11 9 2 11 11 12 32 36 175 211 210
12 9 2 11 11 12 36 16 210 209 206
13 9 2 10 10 13 33 37 195 227 226
14 9 2 10 10 13 37 17 226 229 224
15 9 2 11 11 16 36 40 209 245 244
16 9 2 11 11 16 40 20 244 243 240
17 9 2 10 10 21 41 45 256 261 260
18 9 2 10 10 21 45 25 260 263 117
19 9 2 11 11 24 44 48 279 278 276
20 9 2 11 11 24 48 28 276 275 141
21 9 2 10 10 25 45 49 263 291 290
22 9 2 10 10 25 49 29 290 293 159
23 9 2 11 11 28 48 52 275 304 303
24 9 2 11 11 28 52 32 303 302 177
25 9 2 10 10 29 49 53 293 315 314
26 9 2 10 10 29 53 33 314 317 193
27 9 2 11 11 32 52 56 302 328 327
28 9 2 11 11 32 56 36 327 326 211
29 9 2 10 10 33 53 57 317 339 338
30 9 2 10 10 33 57 37 338 341 227
31 9 2 11 11 36 56 60 326 352 351
32 9 2 11 11 36 60 40 351 350 245
33 9 2 10 10 41 61 65 362 367 366
34 9 2 10 10 41 65 45 366 369 261
35 9 2 11 11 44 64 68 385 384 382
36 9 2 11 11 44 68 48 382 381 278
37 9 2 10 10 45 65 69 369 397 396
38 9 2 10 10 45 69 49 396 399 291
39 9 2 11 11 48 68 72 381 410 409
40 9 2 11 11 48 72 52 409 408 304
41 9 2 10 10 49 69 73 399 421 420
42 9 2 10 10 49 73 53 420 423 315
43 9 2 11 11 52 72 76 408 434 433
44 9 2 11 11 52 76 56 433 432 328
45 9 2 10 10 53 73 77 423 445 444
46 9 2 10 10 53 77 57 444 447 339
47 9 2 11 11 56 76 80 432 458 457
48 9 2 11 11 56 80 60 457 456 352
49 9 2 10 10 61 81 85 468 473 472
50 9 2 10 10 61 85 65 472 475 367
51 9 2 11 11 64 84 88 491 490 488
52 9 2 11 11 64 88 68 488 487 384
53 9 2 10 10 65 85 89 475 503 502
54 9 2 10 10 65 89 69 502 505 397
55 9 2 11 11 68 88 92 487 516 515
56 9 2 11 11 68 92 72 515 514 410
57 9 2 10 10 69 89 93 505 527 526
58 9 2 10 10 69 93 73 526 529 421
59 9 2 11 11 72 92 96 514 540 539
60 9 2 11 11 72 96 76 539 538 434
61 9 2 10 10 73 93 97 529 551 550
62 9 2 10 10 73 97 77 550 553 445
63 9 2 11 11 76 96 100 538 564 563
64 9 2 11 11 76 100 80 563 562 458
65 11 2 1 1 1 2 6 26 101 102 103 104 105 106
66 11 2 1 1 1 2 26 22 101 106 104 107 108 109
67 11 2 1 1 1 22 26 21 107 108 104 110 111 112
68 11 2 1 1 1 6 5 26 103 113 114 104 115 105
69 11 2 1 1 1 25 21 26 116 117 110 104 111 118
70 11 2 1 1 1 5 25 26 114 119 116 104 118 115
71 11 2 1 1 2 3 7 27 120 121 122 123 124 125
72 11 2 1 1 2 3 27 23 120 125 123 126 127 128
73 11 2 1 1 2 23 27 22 126 127 123 109 129 130
74 11 2 1 1 2 7 6 27 122 131 102 123 132 124
75 11 2 1 1 2 26 22 27 106 108 109 123 129 133
76 11 2 1 1 2 6 26 27 102 105 106 123 133 132
77 11 2 1 1 3 4 8 28 134 135 136 137 138 139
78 11 2 1 1 3 4 28 24 134 139 137 140 141 142
79 11 2 1 1 3 24 28 23 140 141 137 128 143 144
80 11 2 1 1 3 8 7 28 136 145 121 137 146 138
81 11 2 1 1 3 27 23 28 125 127 128 137 143 147
82 11 2 1 1 3 7 27 28 121 124 125 137 147 146
83 11 2 1 1 5 6 10 30 113 148 149 150 151 152
84 11 2 1 1 5 6 30 26 113 152 150 115 153 105
85 11 2 1 1 5 26 30 25 115 153 150 119 154 118
86 11 2 1 1 5 10 9 30 149 155 156 150 157 151
87 11 2 1 1 5 29 25 30 158 159 119 150 154 160
88 11 2 1 1 5 9 29 30 156 161 158 150 160 157
89 11 2 1 1 6 7 11 31 131 162 163 164 165 166
90 11 2 1 1 6 7 31 27 131 166 164 132 167 124
91 11 2 1 1 6 27 31 26 132 167 164 105 168 133
92 11 2 1 1 6 11 10 31 163 169 148 164 170 165
93 11 2 1 1 6 30 26 31 152 153 105 164 168 171
94 11 2 1 1 6 10 30 31 148 151 152 164 171 170
95 11 2 1 1 7 8 12 32 145 172 173 174 175 176
96 11 2 1 1 7 8 32 28 145 176 174 146 177 138
97 11 2 1 1 7 28 32 27 146 177 174 124 178 147
98 11 2 1 1 7 12 11 32 173 179 162 174 180 175
99 11 2 1 1 7 31 27 32 166 167 124 174 178 181
100 11 2 1 1 7 11 31 32 162 165 166 174 181 180
101 11 2 1 1 9 10 14 34 155 182 183 184 185 186
102 11 2 1 1 9 10 34 30 155 186 184 157 187 151
103 11 2 1 1 9 30 34 29 157 187 184 161 188 160
104 11 2 1 1 9 14 13 34 183 189 190 184 191 185
105 11 2 1 1 9 33 29 34 192 193 161 184 188 194
106 11 2 1 1 9 13 33 34 190 195 192 184 194 191
107 11 2 1 1 10 11 15 35 169 196 197 198 199 200
108 11 2 1 1 10 11 35 31 169 200 198 170 201 165
109 11 2 1 1 10 31 35 30 170 201 198 151 202 171
110 11 2 1 1 10 15 14 35 197 203 182 198 204 199
111 11 2 1 1 10 34 30 35 186 187 151 198 202 205
112 11 2 1 1 10 14 34 35 182 185 186 198 205 204
113 11 2 1 1 11 12 16 36 179 206 207 208 209 210
114 11 2 1 1 11 12 36 32 179 210 208 180 211 175
115 11 2 1 1 11 32 36 31 180 211 208 165 212 181
116 11 2 1 1 11 16 15 36 207 213 196 208 214 209
117 11 2 1 1 11 35 31 36 200 201 165 208 212 215
118 11 2 1 1 11 15 35 36 196 199 200 208 215 214
119 11 2 1 1 13 14 18 38 189 216 217 218 219 220
120 11 2 1 1 13 14 38 34 189 220 218 191 221 185
121 11 2 1 1 13 34 38 33 191 221 218 195 222 194
122 11 2 1 1 13 18 17 38 217 223 224 218 225 219
123 11 2 1 1 13 37 33 38 226 227 195 218 222 228
124 11 2 1 1 13 17 37 38 224 229 226 218 228 225
125 11 2 1 1 14 15 19 39 203 230 231 232 233 234
126 11 2 1 1 14 15 39 35 203 234 232 204 235 199
127 11 2 1 1 14 35 39 34 204 235 232 185 236 205
128 11 2 1 1 14 19 18 39 231 237 216 232 238 233
129 11 2 1 1 14 38 34 39 220 221 185 232 236 239
130 11 2 1 1 14 18 38 39 216 219 220 232 239 238
131 11 2 1 1 15 16 20 40 213 240 241 242 243 244
132 11 2 1 1 15 16 40 36 213 244 242 214 245 209
133 11 2 1 1 15 36 40 35 214 245 242 199 246 215
134 11 2 1 1 15 20 19 40 241 247 230 242 248 243
135 11 2 1 1 15 39 35 40 234 235 199 242 246 249
136 11 2 1 1 15 19 39 40 230 233 234 242 249 248
137 11 2 1 1 21 22 26 46 112 108 111 250 251 252
138 11 2 1 1 21 22 46 42 112 252 250 253 254 255
139 11 2 1 1 21 42 46 41 253 254 250 256 257 258
140 11 2 1 1 21 26 25 46 111 118 117 250 259 251
141 11 2 1 1 21 45 41 46 260 261 256 250 257 262
142 11 2 1 1 21 25 45 46 117 263 260 250 262 259
143 11 2 1 1 22 23 27 47 130 127 129 264 265 266
144 11 2 1 1 22 23 47 43 130 266 264 267 268 269
145 11 2 1 1 22 43 47 42 267 268 264 255 270 271
146 11 2 1 1 22 27 26 47 129 133 108 264 272 265
147 11 2 1 1 22 46 42 47 252 254 255 264 270 273
148 11 2 1 1 22 26 46 47 108 251 252 264 273 272
149 11 2 1 1 23 24 28 48 144 141 143 274 275 276
150 11 2 1 1 23 24 48 44 144 276 274 277 278 279
151 11 2 1 1 23 44 48 43 277 278 274 269 280 281
152 11 2 1 1 23 28 27 48 143 147 127 274 282 275
153 11 2 1 1 23 47 43 48 266 268 269 274 280 283
154 11 2 1 1 23 27 47 48 127 265 266 274 283 282
155 11 2 1 1 25 26 30 50 118 153 154 284 285 286
156 11 2 1 1 25 26 50 46 118 286 284 259 287 251
157 11 2 1 1 25 46 50 45 259 287 284 263 288 262
158 11 2 1 1 25 30 29 50 154 160 159 284 289 285
159 11 2 1 1 25 49 45 50 290 291 263 284 288 292
160 11 2 1 1 25 29 49 50 159 293 290 284 292 289
161 11 2 1 1 26 27 31 51 133 167 168 294 295 296
162 11 2 1 1 26 27 51 47 133 296 294 272 297 265
163 11 2 1 1 26 47 51 46 272 297 294 251 298 273
164 11 2 1 1 26 31 30 51 168 171 153 294 299 295
165 11 2 1 1 26 50 46 51 286 287 251 294 298 300
166 11 2 1 1 26 30 50 51 153 285 286 294 300 299
167 11 2 1 1 27 28 32 52 147 177 178 301 302 303
168 11 2 1 1 27 28 52 48 147 303 301 282 304 275
169 11 2 1 1 27 48 52 47 282 304 301 265 305 283
170 11 2 1 1 27 32 31 52 178 181 167 301 306 302
171 11 2 1 1 27 51 47 52 296 297 265 301 305 307
172 11 2 1 1 27 31 51 52 167 295 296 301 307 306
173 11 2 1 1 29 30 34 54 160 187 188 308 309 310
174 11 2 1 1 29 30 54 50 160 310 308 289 311 285
175 11 2 1 1 29 50 54 49 289 311 308 293 312 292
176 11 2 1 1 29 34 33 54 188 194 193 308 313 309
177 11 2 1 1 29 53 49 54 314 315 293 308 312 316
178 11 2 1 1 29 33 53 54 193 317 314 308 316 313
179 11 2 1 1 30 31 35 55 171 201 202 318 319 320
180 11 2 1 1 30 31 55 51 171 320 318 299 321 295
181 11 2 1 1 30 51 55 50 299 321 318 285 322 300
182 11 2 1 1 30 35 34 55 202 205 187 318 323 319
183 11 2 1 1 30 54 50 55 310 311 285 318 322 324
184 11 2 1 1 30 34 54 55 187 309 310 318 324 323
185 11 2 1 1 31 32 36 56 181 211 212 325 326 327
186 11 2 1 1 31 32 56 52 181 327 325 306 328 302
187 11 2 1 1 31 52 56 51 306 328 325 295 329 307
188 11 2 1 1 31 36 35 56 212 215 201 325 330 326
189 11 2 1 1 31 55 51 56 320 321 295 325 329 331
190 11 2 1 1 31 35 55 56 201 319 320 325 331 330
191 11 2 1 1 33 34 38 58 194 221 222 332 333 334
192 11 2 1 1 33 34 58 54 194 334 332 313 335 309
193 11 2 1 1 33 54 58 53 313 335 332 317 336 316
194 11 2 1 1 33 38 37 58 222 228 227 332 337 333
195 11 2 1 1 33 57 53 58 338 339 317 332 336 340
196 11 2 1 1 33 37 57 58 227 341 338 332 340 337
197 11 2 1 1 34 35 39 59 205 235 236 342 343 344
198 11 2 1 1 34 35 59 55 205 344 342 323 345 319
199 11 2 1 1 34 55 59 54 323 345 342 309 346 324
200 11 2 1 1 34 39 38 59 236 239 221 342 347 343
201 11 2 1 1 34 58 54 59 334 335 309 342 346 348
202 11 2 1 1 34 38 58 59 221 333 334 342 348 347
203 11 2 1 1 35 36 40 60 215 245 246 349 350 351
204 11 2 1 1 35 36 60 56 215 351 349 330 352 326
205 11 2 1 1 35 56 60 55 330 352 349 319 353 331
206 11 2 1 1 35 40 39 60 246 249 235 349 354 350
207 11 2 1 1 35 59 55 60 344 345 319 349 353 355
208 11 2 1 1 35 39 59 60 235 343 344 349 355 354
209 11 2 1 1 41 42 46 66 258 254 257 356 357 358
210 11 2 1 1 41 42 66 62 258 358 356 359 360 361
211 11 2 1 1 41 62 66 61 359 360 356 362 363 364
212 11 2 1 1 41 46 45 66 257 262 261 356 365 357
213 11 2 1 1 41 65 61 66 366 367 362 356 363 368
214 11 2 1 1 41 45 65 66 261 369 366 356 368 365
215 11 2 1 1 42 43 47 67 271 268 270 370 371 372
216 11 2 1 1 42 43 67 63 271 372 370 373 374 375
217 11 2 1 1 42 63 67 62 373 374 370 361 376 377
218 11 2 1 1 42 47 46 67 270 273 254 370 378 371
219 11 2 1 1 42 66 62 67 358 360 361 370 376 379
220 11 2 1 1 42 46 66 67 254 357 358 370 379 378
221 11 2 1 1 43 44 48 68 281 278 280 380 381 382
222 11 2 1 1 43 44 68 64 281 382 380 383 384 385
223 11 2 1 1 43 64 68 63 383 384 380 375 386 387
224 11 2 1 1 43 48 47 68 280 283 268 380 388 381
225 11 2 1 1 43 67 63 68 372 374 375 380 386 389
226 11 2 1 1 43 47 67 68 268 371 372 380 389 388
227 11 2 1 1 45 46 50 70 262 287 288 390 391 392
228 11 2 1 1 45 46 70 66 262 392 390 365 393 357
229 11 2 1 1 45 66 70 65 365 393 390 369 394 368
230 11 2 1 1 45 50 49 70 288 292 291 390 395 391
231 11 2 1 1 45 69 65 70 396 397 369 390 394 398
232 11 2 1 1 45 49 69 70 291 399 396 390 398 395
233 11 2 1 1 46 47 51 71 273 297 298 400 401 402
234 11 2 1 1 46 47 71 67 273 402 400 378 403 371
235 11 2 1 1 46 67 71 66 378 403 400 357 404 379
236 11 2 1 1 46 51 50 71 298 300 287 400 405 401
237 11 2 1 1 46 70 66 71 392 393 357 400 404 406
238 11 2 1 1 46 50 70 71 287 391 392 400 406 405
239 11 2 1 1 47 48 52 72 283 304 305 407 408 409
240 11 2 1 1 47 48 72 68 283 409 407 388 410 381
241 11 2 1 1 47 68 72 67 388 410 407 371 411 389
242 11 2 1 1 47 52 51 72 305 307 297 407 412 408
243 11 2 1 1 47 71 67 72 402 403 371 407 411 413
244 11 2 1 1 47 51 71 72 297 401 402 407 413 412
245 11 2 1 1 49 50 54 74 292 311 312 414 415 416
246 11 2 1 1 49 50 74 70 292 416 414 395 417 391
247 11 2 1 1 49 70 74 69 395 417 414 399 418 398
248 11 2 1 1 49 54 53 74 312 316 315 414 419 415
249 11 2 1 1 49 73 69 74 420 421 399 414 418 422
250 11 2 1 1 49 53 73 74 315 423 420 414 422 419
251 11 2 1 1 50 51 55 75 300 321 322 424 425 426
252 11 2 1 1 50 51 75 71 300 426 424 405 427 401
253 11 2 1 1 50 71 75 70 405 427 424 391 428 406
254 11 2 1 1 50 55 54 75 322 324 311 424 429 425
255 11 2 1 1 50 74 70 75 416 417 391 424 428 430
256 11 2 1 1 50 54 74 75 311 415 416 424 430 429
257 11 2 1 1 51 52 56 76 307 328 329 431 432 433
258 11 2 1 1 51 52 76 72 307 433 431 412 434 408
259 11 2 1 1 51 72 76 71 412 434 431 401 435 413
260 11 2 1 1 51 56 55 76 329 331 321 431 436 432
261 11 2 1 1 51 75 71 76 426 427 401 431 435 437
262 11 2 1 1 51 55 75 76 321 425 426 431 437 436
263 11 2 1 1 53 54 58 78 316 335 336 438 439 440
264 11 2 1 1 53 54 78 74 316 440 438 419 441 415
265 11 2 1 1 53 74 78 73 419 441 438 423 442 422
266 11 2 1 1 53 58 57 78 336 340 339 438 443 439
267 11 2 1 1 53 77 73 78 444 445 423 438 442 446
268 11 2 1 1 53 57 77 78 339 447 444 438 446 443
269 11 2 1 1 54 55 59 79 324 345 346 448 449 450
270 11 2 1 1 54 55 79 75 324 450 448 429 451 425
271 11 2 1 1 54 75 79 74 429 451 448 415 452 430
272 11 2 1 1 54 59 58 79 346 348 335 448 453 449
273 11 2 1 1 54 78 74 79 440 441 415 448 452 454
274 11 2 1 1 54 58 78 79 335 439 440 448 454 453
275 11 2 1 1 55 56 60 80 331 352 353 455 456 457
276 11 2 1 1 55 56 80 76 331 457 455 436 458 432
277 11 2 1 1 55 76 80 75 436 458 455 425 459 437
278 11 2 1 1 55 60 59 80 353 355 345 455 460 456
279 11 2 1 1 55 79 75 80 450 451 425 455 459 461
280 11 2 1 1 55 59 79 80 345 449 450 455 461 460
281 11 2 1 1 61 62 66 86 364 360 363 462 463 464
282 11 2 1 1 61 62 86 82 364 464 462 465 466 467
283 11 2 1 1 61 82 86 81 465 466 462 468 469 470
284 11 2 1 1 61 66 65 86 363 368 367 462 471 463
285 11 2 1 1 61 85 81 86 472 473 468 462 469 474
286 11 2 1 1 61 65 85 86 367 475 472 462 474 471
287 11 2 1 1 62 63 67 87 377 374 376 476 477 478
288 11 2 1 1 62 63 87 83 377 478 476 479 480 481
289 11 2 1 1 62 83 87 82 479 480 476 467 482 483
290 11 2 1 1 62 67 66 87 376 379 360 476 484 477
291 11 2 1 1 62 86 82 87 464 466 467 476 482 485
292 11 2 1 1 62 66 86 87 360 463 464 476 485 484
293 11 2 1 1 63 64 68 88 387 384 386 486 487 488
294 11 2 1 1 63 64 88 84 387 488 486 489 490 491
295 11 2 1 1 63 84 88 83 489 490 486 481 492 493
296 11 2 1 1 63 68 67 88 386 389 374 486 494 487
297 11 2 1 1 63 87 83 88 478 480 481 486 492 495
298 11 2 1 1 63 67 87 88 374 477 478 486 495 494
299 11 2 1 1 65 66 70 90 368 393 394 496 497 498
300 11 2 1 1 65 66 90 86 368 498 496 471 499 463
301 11 2 1 1 65 86 90 85 471 499 496 475 500 474
302 11 2 1 1 65 70 69 90 394 398 397 496 501 497
303 11 2 1 1 65 89 85 90 502 503 475 496 500 504
304 11 2 1 1 65 69 89 90 397 505 502 496 504 501
305 11 2 1 1 66 67 71 91 379 403 404 506 507 508
306 11 2 1 1 66 67 91 87 379 508 506 484 509 477
307 11 2 1 1 66 87 91 86 484 509 506 463 510 485
308 11 2 1 1 66 71 70 91 404 406 393 506 511 507
309 11 2 1 1 66 90 86 91 498 499 463 506 510 512
310 11 2 1 1 66 70 90 91 393 497 498 506 512 511
311 11 2 1 1 67 68 72 92 389 410 411 513 514 515
312 11 2 1 1 67 68 92 88 389 515 513 494 516 487
313 11 2 1 1 67 88 92 87 494 516 513 477 517 495
314 11 2 1 1 67 72 71 92 411 413 403 513 518 514
315 11 2 1 1 67 91 87 92 508 509 477 513 517 519
316 11 2 1 1 67 71 91 92 403 507 508 513 519 518
317 11 2 1 1 69 70 74 94 398 417 418 520 521 522
318 11 2 1 1 69 70 94 90 398 522 520 501 523 497
319 11 2 1 1 69 90 94 89 501 523 520 505 524 504
320 11 2 1 1 69 74 73 94 418 422 421 520 525 521
321 11 2 1 1 69 93 89 94 526 527 505 520 524 528
322 11 2 1 1 69 73 93 94 421 529 526 520 528 525
323 11 2 1 1 70 71 75 95 406 427 428 530 531 532
324 11 2 1 1 70 71 95 91 406 532 530 511 533 507
325 11 2 1 1 70 91 95 90 511 533 530 497 534 512
326 11 2 1 1 70 75 74 95 428 430 417 530 535 531
327 11 2 1 1 70 94 90 95 522 523 497 530 534 536
328 11 2 1 1 70 74 94 95 417 521 522 530 536 535
329 11 2 1 1 71 72 76 96 413 434 435 537 538 539
330 11 2 1 1 71 72 96 92 413 539 537 518 540 514
331 11 2 1 1 71 92 96 91 518 540 537 507 541 519
332 11 2 1 1 71 76 75 96 435 437 427 537 542 538
333 11 2 1 1 71 95 91 96 532 533 507 537 541 543
334 11 2 1 1 71 75 95 96 427 531 532 537 543 542
335 11 2 1 1 73 74 78 98 422 441 442 544 545 546
336 11 2 1 1 73 74 98 94 422 546 544 525 547 521
337 11 2 1 1 73 94 98 93 525 547 544 529 548 528
338 11 2 1 1 73 78 77 98 442 446 445 544 549 545
339 11 2 1 1 73 97 93 98 550 551 529 544 548 552
340 11 2 1 1 73 77 97 98 445 553 550 544 552 549
341 11 2 1 1 74 75 79 99 430 451 452 554 555 556
342 11 2 1 1 74 75 99 95 430 556 554 535 557 531
343 11 2 1 1 74 95 99 94 535 557 554 521 558 536
344 11 2 1 1 74 79 78 99 452 454 441 554 559 555
345 11 2 1 1 74 98 94 99 546 547 521 554 558 560
346 11 2 1 1 74 78 98 99 441 545 546 554 560 559
347 11 2 1 1 75 76 80 100 437 458 459 561 562 563
348 11 2 1 1 75 76 100 96 437 563 561 542 564 538
349 11 2 1 1 75 96 100 95 542 564 561 531 565 543
350 11 2 1 1 75 80 79 100 459 461 451 561 566 562
351 11 2 1 1 75 99 95 100 556 557 531 561 565 567
352 11 2 1 1 75 79 99 100 451 555 556 561 567 566
$EndElements
