$MeshFormat
2.2 0 8
$EndMeshFormat
$Nodes
100
1 0 0 0
2 0.001 0 0
3 0.001 0.001 0
4 0 0.001 0
5 0 0 0.0002
6 0.001 0 0.0002
7 0.001 0.001 0.0002
8 0 0.001 0.0002
9 0.0002499999999994609 0 0
10 0.0004999999999987165 0 0
11 0.0007499999999993478 0 0
12 0.001 0.0002499999999994609 0
13 0.001 0.0004999999999987165 0
14 0.001 0.0007499999999993478 0
15 0.0007500000000003918 0.001 0
16 0.0005000000000012286 0.001 0
17 0.0002500000000006249 0.001 0
18 0 0.0007500000000003918 0
19 0 0.0005000000000012286 0
20 0 0.0002500000000006249 0
21 0.0002499999999994609 0 0.0002
22 0.0004999999999987165 0 0.0002
23 0.0007499999999993478 0 0.0002
24 0.001 0.0002499999999994609 0.0002
25 0.001 0.0004999999999987165 0.0002
26 0.001 0.0007499999999993478 0.0002
27 0.0007500000000003918 0.001 0.0002
28 0.0005000000000012286 0.001 0.0002
29 0.0002500000000006249 0.001 0.0002
30 0 0.0007500000000003918 0.0002
31 0 0.0005000000000012286 0.0002
32 0 0.0002500000000006249 0.0002
33 0 0 6.666666666666667e-05
34 0 0 0.0001333333333333333
35 0.001 0 6.666666666666667e-05
36 0.001 0 0.0001333333333333333
37 0.001 0.001 6.666666666666667e-05
38 0.001 0.001 0.0001333333333333333
39 0 0.001 6.666666666666667e-05
40 0 0.001 0.0001333333333333333
41 0.0002499999999997519 0.0002500000000003339 0
42 0.0002500000000000429 0.0005000000000006007 0
43 0.0002500000000003339 0.0007500000000001309 0
44 0.0004999999999993445 0.0002500000000000429 0
45 0.0004999999999999726 0.0004999999999999726 0
46 0.0005000000000006005 0.0007499999999998698 0
47 0.0007499999999996087 0.0002499999999997519 0
48 0.0007499999999998698 0.0004999999999993444 0
49 0.0007500000000001307 0.0007499999999996089 0
50 0.0002499999999994609 0 6.666666666666667e-05
51 0.0002499999999994609 0 0.0001333333333333333
52 0.0004999999999987165 0 6.666666666666667e-05
53 0.0004999999999987165 0 0.0001333333333333333
54 0.0007499999999993478 0 6.666666666666667e-05
55 0.0007499999999993478 0 0.0001333333333333333
56 0.001 0.0002499999999994609 6.666666666666667e-05
57 0.001 0.0002499999999994609 0.0001333333333333333
58 0.001 0.0004999999999987165 6.666666666666667e-05
59 0.001 0.0004999999999987165 0.0001333333333333333
60 0.001 0.0007499999999993478 6.666666666666667e-05
61 0.001 0.0007499999999993478 0.0001333333333333333
62 0.0007500000000003918 0.001 6.666666666666667e-05
63 0.0007500000000003918 0.001 0.0001333333333333333
64 0.0005000000000012286 0.001 6.666666666666667e-05
65 0.0005000000000012286 0.001 0.0001333333333333333
66 0.0002500000000006249 0.001 6.666666666666667e-05
67 0.0002500000000006249 0.001 0.0001333333333333333
68 0 0.0007500000000003918 6.666666666666667e-05
69 0 0.0007500000000003918 0.0001333333333333333
70 0 0.0005000000000012286 6.666666666666667e-05
71 0 0.0005000000000012286 0.0001333333333333333
72 0 0.0002500000000006249 6.666666666666667e-05
73 0 0.0002500000000006249 0.0001333333333333333
74 0.0002499999999997519 0.0002500000000003339 0.0002
75 0.0002500000000000429 0.0005000000000006007 0.0002
76 0.0002500000000003339 0.0007500000000001309 0.0002
77 0.0004999999999993445 0.0002500000000000429 0.0002
78 0.0004999999999999726 0.0004999999999999726 0.0002
79 0.0005000000000006005 0.0007499999999998698 0.0002
80 0.0007499999999996087 0.0002499999999997519 0.0002
81 0.0007499999999998698 0.0004999999999993444 0.0002
82 0.0007500000000001307 0.0007499999999996089 0.0002
83 0.0002499999999997519 0.0002500000000003339 6.666666666666667e-05
84 0.0002499999999997519 0.0002500000000003339 0.0001333333333333333
85 0.0002500000000000429 0.0005000000000006007 6.666666666666667e-05
86 0.0002500000000000429 0.0005000000000006007 0.0001333333333333333
87 0.0002500000000003339 0.0007500000000001309 6.666666666666667e-05
88 0.0002500000000003339 0.0007500000000001309 0.0001333333333333333
89 0.0004999999999993445 0.0002500000000000429 6.666666666666667e-05
90 0.0004999999999993445 0.0002500000000000429 0.0001333333333333333
91 0.0004999999999999726 0.0004999999999999726 6.666666666666667e-05
92 0.0004999999999999726 0.0004999999999999726 0.0001333333333333333
93 0.0005000000000006005 0.0007499999999998698 6.666666666666667e-05
94 0.0005000000000006005 0.0007499999999998698 0.0001333333333333333
95 0.0007499999999996087 0.0002499999999997519 6.666666666666667e-05
96 0.0007499999999996087 0.0002499999999997519 0.0001333333333333333
97 0.0007499999999998698 0.0004999999999993444 6.666666666666667e-05
98 0.0007499999999998698 0.0004999999999993444 0.0001333333333333333
99 0.0007500000000001307 0.0007499999999996089 6.666666666666667e-05
100 0.0007500000000001307 0.0007499999999996089 0.0001333333333333333
$EndNodes
$Elements
80
1 3 2 10 1 1 9 41 20
2 3 2 10 1 20 41 42 19
3 3 2 10 1 19 42 43 18
4 3 2 10 1 18 43 17 4
5 3 2 10 1 9 10 44 41
6 3 2 10 1 41 44 45 42
7 3 2 10 1 42 45 46 43
8 3 2 10 1 43 46 16 17
9 3 2 10 1 10 11 47 44
10 3 2 10 1 44 47 48 45
11 3 2 10 1 45 48 49 46
12 3 2 10 1 46 49 15 16
13 3 2 10 1 11 2 12 47
14 3 2 10 1 47 12 13 48
15 3 2 10 1 48 13 14 49
16 3 2 10 1 49 14 3 15
17 3 2 11 26 5 21 74 32
18 3 2 11 26 32 74 75 31
19 3 2 11 26 31 75 76 30
20 3 2 11 26 30 76 29 8
21 3 2 11 26 21 22 77 74
22 3 2 11 26 74 77 78 75
23 3 2 11 26 75 78 79 76
24 3 2 11 26 76 79 28 29
25 3 2 11 26 22 23 80 77
26 3 2 11 26 77 80 81 78
27 3 2 11 26 78 81 82 79
28 3 2 11 26 79 82 27 28
29 3 2 11 26 23 6 24 80
30 3 2 11 26 80 24 25 81
31 3 2 11 26 81 25 26 82
32 3 2 11 26 82 26 7 27
33 5 2 1 1 1 9 41 20 33 50 83 72
34 5 2 1 1 33 50 83 72 34 51 84 73
35 5 2 1 1 34 51 84 73 5 21 74 32
36 5 2 1 1 20 41 42 19 72 83 85 70
37 5 2 1 1 72 83 85 70 73 84 86 71
38 5 2 1 1 73 84 86 71 32 74 75 31
39 5 2 1 1 19 42 43 18 70 85 87 68
40 5 2 1 1 70 85 87 68 71 86 88 69
41 5 2 1 1 71 86 88 69 31 75 76 30
42 5 2 1 1 18 43 17 4 68 87 66 39
43 5 2 1 1 68 87 66 39 69 88 67 40
44 5 2 1 1 69 88 67 40 30 76 29 8
45 5 2 1 1 9 10 44 41 50 52 89 83
46 5 2 1 1 50 52 89 83 51 53 90 84
47 5 2 1 1 51 53 90 84 21 22 77 74
48 5 2 1 1 41 44 45 42 83 89 91 85
49 5 2 1 1 83 89 91 85 84 90 92 86
50 5 2 1 1 84 90 92 86 74 77 78 75
51 5 2 1 1 42 45 46 43 85 91 93 87
52 5 2 1 1 85 91 93 87 86 92 94 88
53 5 2 1 1 86 92 94 88 75 78 79 76
54 5 2 1 1 43 46 16 17 87 93 64 66
55 5 2 1 1 87 93 64 66 88 94 65 67
56 5 2 1 1 88 94 65 67 76 79 28 29
57 5 2 1 1 10 11 47 44 52 54 95 89
58 5 2 1 1 52 54 95 89 53 55 96 90
59 5 2 1 1 53 55 96 90 22 23 80 77
60 5 2 1 1 44 47 48 45 89 95 97 91
61 5 2 1 1 89 95 97 91 90 96 98 92
62 5 2 1 1 90 96 98 92 77 80 81 78
63 5 2 1 1 45 48 49 46 91 97 99 93
64 5 2 1 1 91 97 99 93 92 98 100 94
65 5 2 1 1 92 98 100 94 78 81 82 79
66 5 2 1 1 46 49 15 16 93 99 62 64
67 5 2 1 1 93 99 62 64 94 100 63 65
68 5 2 1 1 94 100 63 65 79 82 27 28
69 5 2 1 1 11 2 12 47 54 35 56 95
70 5 2 1 1 54 35 56 95 55 36 57 96
71 5 2 1 1 55 36 57 96 23 6 24 80
72 5 2 1 1 47 12 13 48 95 56 58 97
73 5 2 1 1 95 56 58 97 96 57 59 98
74 5 2 1 1 96 57 59 98 80 24 25 81
75 5 2 1 1 48 13 14 49 97 58 60 99
76 5 2 1 1 97 58 60 99 98 59 61 100
77 5 2 1 1 98 59 61 100 81 25 26 82
78 5 2 1 1 49 14 3 15 99 60 37 62
79 5 2 1 1 99 60 37 62 100 61 38 63
80 5 2 1 1 100 61 38 63 82 26 7 27
$EndElements
