$MeshFormat
4.1 0 8
$EndMeshFormat
$Entities
0 0 2 1
1 0 0 0 0.001 0.001 0 1 10 0 
26 0 0 0.0002 0.001 0.001 0.0002 1 11 0 
1 0 0 0 0.001 0.001 0.0002 1 1 0 
$EndEntities
$Nodes
3 567 1 567
2 1 0 81
1
2
3
4
9
10
11
12
13
14
15
16
17
18
19
20
21
22
23
24
25
26
27
28
29
30
31
32
33
34
35
36
85
86
87
88
89
90
91
92
93
94
95
96
97
98
99
100
101
102
103
104
105
106
107
108
109
110
111
112
113
114
115
116
117
118
119
120
121
122
123
124
125
126
127
128
129
130
131
132
133
0 0 0
0.001 0 0
0.001 0.001 0
0 0.001 0
0.0002499999999994609 0 0
0.0004999999999987165 0 0
0.0007499999999993478 0 0
0.0001249999999997854 0 0
0.000374999999999089 0 0
0.0006249999999990682 0 0
0.0008749999999996254 0 0
0.001 0.0002499999999994609 0
0.001 0.0004999999999987165 0
0.001 0.0007499999999993478 0
0.001 0.0001249999999997854 0
0.001 0.000374999999999089 0
0.001 0.0006249999999990682 0
0.001 0.0008749999999996254 0
0.0007500000000003918 0.001 0
0.0005000000000012286 0.001 0
0.0002500000000006249 0.001 0
0.0008750000000000333 0.001 0
0.0006250000000007871 0.001 0
0.0003750000000009903 0.001 0
0.000125000000000223 0.001 0
0 0.0007500000000003918 0
0 0.0005000000000012286 0
0 0.0002500000000006249 0
0 0.0008750000000000333 0
0 0.0006250000000007871 0
0 0.0003750000000009903 0
0 0.000125000000000223 0
0.0002499999999997519 0.0002500000000003339 0
0.0002500000000000429 0.0005000000000006007 0
0.0002500000000003339 0.0007500000000001309 0
0.0004999999999993445 0.0002500000000000429 0
0.0004999999999999726 0.0004999999999999726 0
0.0005000000000006005 0.0007499999999998698 0
0.0007499999999996087 0.0002499999999997519 0
0.0007499999999998698 0.0004999999999993444 0
0.0007500000000001307 0.0007499999999996089 0
0.0002499999999996064 0.000125000000000167 0
0.000124999999999876 0.0002500000000004794 0
0.0001249999999998307 0.000125000000000195 0
0.0002499999999998974 0.0003750000000004673 0
0.0001250000000000215 0.0005000000000009146 0
0.0001249999999999487 0.0003750000000007288 0
0.0002500000000001884 0.0006250000000003657 0
0.000125000000000167 0.0007500000000002613 0
0.0001250000000000942 0.0006250000000005765 0
0.0002500000000004794 0.0008750000000000654 0
0.000125000000000195 0.0008750000000000493 0
0.0004999999999990305 0.0001250000000000215 0
0.0003749999999995482 0.0002500000000001884 0
0.0003749999999993186 0.0001250000000000942 0
0.0004999999999996585 0.0003750000000000078 0
0.0003750000000000078 0.0005000000000002867 0
0.000374999999999778 0.0003750000000002376 0
0.0005000000000002866 0.0006249999999999212 0
0.0003750000000004672 0.0007500000000000003 0
0.0003750000000002375 0.0006250000000001435 0
0.0005000000000009146 0.0008749999999999349 0
0.0003750000000007288 0.0008750000000000001 0
0.0007499999999994783 0.000124999999999876 0
0.0006249999999994767 0.0002499999999998974 0
0.0006249999999992724 0.0001249999999999487 0
0.0007499999999997393 0.0003749999999995482 0
0.0006249999999999212 0.0004999999999996585 0
0.0006249999999996989 0.000374999999999778 0
0.0007500000000000002 0.0006249999999994767 0
0.0006250000000003656 0.0007499999999997394 0
0.0006250000000001433 0.0006249999999996989 0
0.0007500000000002613 0.0008749999999998045 0
0.0006250000000005764 0.0008749999999998697 0
0.0008749999999998043 0.0002499999999996064 0
0.000874999999999715 0.0001249999999998307 0
0.0008749999999999349 0.0004999999999990305 0
0.0008749999999998696 0.0003749999999993186 0
0.0008750000000000654 0.0007499999999994783 0
0.0008750000000000001 0.0006249999999992724 0
0.0008750000000000493 0.000874999999999715 0
2 26 0 81
5
6
7
8
37
38
39
40
41
42
43
44
45
46
47
48
49
50
51
52
53
54
55
56
57
58
59
60
61
62
63
64
274
275
276
277
278
279
280
281
282
283
284
285
286
287
288
289
290
291
292
293
294
295
296
297
298
299
300
301
302
303
304
305
306
307
308
309
310
311
312
313
314
315
316
317
318
319
320
321
322
0 0 0.0002
0.001 0 0.0002
0.001 0.001 0.0002
0 0.001 0.0002
0.0002499999999994609 0 0.0002
0.0004999999999987165 0 0.0002
0.0007499999999993478 0 0.0002
0.0001249999999997854 0 0.0002
0.000374999999999089 0 0.0002
0.0006249999999990682 0 0.0002
0.0008749999999996254 0 0.0002
0.001 0.0002499999999994609 0.0002
0.001 0.0004999999999987165 0.0002
0.001 0.0007499999999993478 0.0002
0.001 0.0001249999999997854 0.0002
0.001 0.000374999999999089 0.0002
0.001 0.0006249999999990682 0.0002
0.001 0.0008749999999996254 0.0002
0.0007500000000003918 0.001 0.0002
0.0005000000000012286 0.001 0.0002
0.0002500000000006249 0.001 0.0002
0.0008750000000000333 0.001 0.0002
0.0006250000000007871 0.001 0.0002
0.0003750000000009903 0.001 0.0002
0.000125000000000223 0.001 0.0002
0 0.0007500000000003918 0.0002
0 0.0005000000000012286 0.0002
0 0.0002500000000006249 0.0002
0 0.0008750000000000333 0.0002
0 0.0006250000000007871 0.0002
0 0.0003750000000009903 0.0002
0 0.000125000000000223 0.0002
0.0002499999999997519 0.0002500000000003339 0.0002
0.0002500000000000429 0.0005000000000006007 0.0002
0.0002500000000003339 0.0007500000000001309 0.0002
0.0004999999999993445 0.0002500000000000429 0.0002
0.0004999999999999726 0.0004999999999999726 0.0002
0.0005000000000006005 0.0007499999999998698 0.0002
0.0007499999999996087 0.0002499999999997519 0.0002
0.0007499999999998698 0.0004999999999993444 0.0002
0.0007500000000001307 0.0007499999999996089 0.0002
0.0002499999999996064 0.000125000000000167 0.0002
0.000124999999999876 0.0002500000000004794 0.0002
0.0001249999999998307 0.000125000000000195 0.0002
0.0002499999999998974 0.0003750000000004673 0.0002
0.0001250000000000215 0.0005000000000009146 0.0002
0.0001249999999999487 0.0003750000000007288 0.0002
0.0002500000000001884 0.0006250000000003657 0.0002
0.000125000000000167 0.0007500000000002613 0.0002
0.0001250000000000942 0.0006250000000005765 0.0002
0.0002500000000004794 0.0008750000000000654 0.0002
0.000125000000000195 0.0008750000000000493 0.0002
0.0004999999999990305 0.0001250000000000215 0.0002
0.0003749999999995482 0.0002500000000001884 0.0002
0.0003749999999993186 0.0001250000000000942 0.0002
0.0004999999999996585 0.0003750000000000078 0.0002
0.0003750000000000078 0.0005000000000002867 0.0002
0.000374999999999778 0.0003750000000002376 0.0002
0.0005000000000002866 0.0006249999999999212 0.0002
0.0003750000000004672 0.0007500000000000003 0.0002
0.0003750000000002375 0.0006250000000001435 0.0002
0.0005000000000009146 0.0008749999999999349 0.0002
0.0003750000000007288 0.0008750000000000001 0.0002
0.0007499999999994783 0.000124999999999876 0.0002
0.0006249999999994767 0.0002499999999998974 0.0002
0.0006249999999992724 0.0001249999999999487 0.0002
0.0007499999999997393 0.0003749999999995482 0.0002
0.0006249999999999212 0.0004999999999996585 0.0002
0.0006249999999996989 0.000374999999999778 0.0002
0.0007500000000000002 0.0006249999999994767 0.0002
0.0006250000000003656 0.0007499999999997394 0.0002
0.0006250000000001433 0.0006249999999996989 0.0002
0.0007500000000002613 0.0008749999999998045 0.0002
0.0006250000000005764 0.0008749999999998697 0.0002
0.0008749999999998043 0.0002499999999996064 0.0002
0.000874999999999715 0.0001249999999998307 0.0002
0.0008749999999999349 0.0004999999999990305 0.0002
0.0008749999999998696 0.0003749999999993186 0.0002
0.0008750000000000654 0.0007499999999994783 0.0002
0.0008750000000000001 0.0006249999999992724 0.0002
0.0008750000000000493 0.000874999999999715 0.0002
3 1 0 405
65
66
67
68
69
70
71
72
73
74
75
76
77
78
79
80
81
82
83
84
134
135
136
137
138
139
140
141
142
143
144
145
146
147
148
149
150
151
152
153
154
155
156
157
158
159
160
161
162
163
164
165
166
167
168
169
170
171
172
173
174
175
176
177
178
179
180
181
182
183
184
185
186
187
188
189
190
191
192
193
194
195
196
197
198
199
200
201
202
203
204
205
206
207
208
209
210
211
212
213
214
215
216
217
218
219
220
221
222
223
224
225
226
227
228
229
230
231
232
233
234
235
236
237
238
239
240
241
242
243
244
245
246
247
248
249
250
251
252
253
254
255
256
257
258
259
260
261
262
263
264
265
266
267
268
269
270
271
272
273
323
324
325
326
327
328
329
330
331
332
333
334
335
336
337
338
339
340
341
342
343
344
345
346
347
348
349
350
351
352
353
354
355
356
357
358
359
360
361
362
363
364
365
366
367
368
369
370
371
372
373
374
375
376
377
378
379
380
381
382
383
384
385
386
387
388
389
390
391
392
393
394
395
396
397
398
399
400
401
402
403
404
405
406
407
408
409
410
411
412
413
414
415
416
417
418
419
420
421
422
423
424
425
426
427
428
429
430
431
432
433
434
435
436
437
438
439
440
441
442
443
444
445
446
447
448
449
450
451
452
453
454
455
456
457
458
459
460
461
462
463
464
465
466
467
468
469
470
471
472
473
474
475
476
477
478
479
480
481
482
483
484
485
486
487
488
489
490
491
492
493
494
495
496
497
498
499
500
501
502
503
504
505
506
507
508
509
510
511
512
513
514
515
516
517
518
519
520
521
522
523
524
525
526
527
528
529
530
531
532
533
534
535
536
537
538
539
540
541
542
543
544
545
546
547
548
549
550
551
552
553
554
555
556
557
558
559
560
561
562
563
564
565
566
567
0 0 6.666666666666667e-05
0 0 0.0001333333333333333
0 0 3.33333333333504e-05
0 0 9.999999999989539e-05
0 0 0.0001666666666666667
0.001 0 6.666666666666667e-05
0.001 0 0.0001333333333333333
0.001 0 3.33333333333504e-05
0.001 0 9.999999999989539e-05
0.001 0 0.0001666666666666667
0.001 0.001 6.666666666666667e-05
0.001 0.001 0.0001333333333333333
0.001 0.001 3.33333333333504e-05
0.001 0.001 9.999999999989539e-05
0.001 0.001 0.0001666666666666667
0 0.001 6.666666666666667e-05
0 0.001 0.0001333333333333333
0 0.001 3.33333333333504e-05
0 0.001 9.999999999989539e-05
0 0.001 0.0001666666666666667
0.0002499999999994609 0 6.666666666666667e-05
0.0002499999999994609 0 0.0001333333333333333
0.0004999999999987165 0 6.666666666666667e-05
0.0004999999999987165 0 0.0001333333333333333
0.0007499999999993478 0 6.666666666666667e-05
0.0007499999999993478 0 0.0001333333333333333
0.0002499999999994609 0 3.333333333333334e-05
0.0001249999999997305 0 6.666666666666667e-05
0.0001249999999997579 0 3.333333333334187e-05
0.0002499999999994609 0 0.0001
0.0001249999999997305 0 0.0001333333333333333
0.0001249999999997305 0 9.999999999994771e-05
0.0002499999999994609 0 0.0001666666666666667
0.0001249999999997579 0 0.0001666666666666667
0.0004999999999987165 0 3.333333333333334e-05
0.0003749999999990887 0 6.666666666666668e-05
0.0003749999999990888 0 3.333333333333335e-05
0.0004999999999987165 0 0.0001
0.0003749999999990887 0 0.0001333333333333333
0.0003749999999990887 0 0.0001
0.0004999999999987165 0 0.0001666666666666667
0.0003749999999990888 0 0.0001666666666666667
0.0007499999999993478 0 3.333333333333334e-05
0.0006249999999990321 0 6.666666666666668e-05
0.0006249999999990501 0 3.333333333333335e-05
0.0007499999999993478 0 0.0001
0.0006249999999990321 0 0.0001333333333333333
0.0006249999999990321 0 0.0001
0.0007499999999993478 0 0.0001666666666666667
0.0006249999999990501 0 0.0001666666666666667
0.0008749999999996738 0 6.666666666666668e-05
0.0008749999999996497 0 3.333333333334187e-05
0.0008749999999996738 0 0.0001333333333333333
0.0008749999999996739 0 9.999999999994771e-05
0.0008749999999996497 0 0.0001666666666666667
0.001 0.0002499999999994609 6.666666666666667e-05
0.001 0.0002499999999994609 0.0001333333333333333
0.001 0.0004999999999987165 6.666666666666667e-05
0.001 0.0004999999999987165 0.0001333333333333333
0.001 0.0007499999999993478 6.666666666666667e-05
0.001 0.0007499999999993478 0.0001333333333333333
0.001 0.0002499999999994609 3.333333333333334e-05
0.001 0.0001249999999997305 6.666666666666667e-05
0.001 0.0001249999999997579 3.333333333334187e-05
0.001 0.0002499999999994609 0.0001
0.001 0.0001249999999997305 0.0001333333333333333
0.001 0.0001249999999997305 9.999999999994771e-05
0.001 0.0002499999999994609 0.0001666666666666667
0.001 0.0001249999999997579 0.0001666666666666667
0.001 0.0004999999999987165 3.333333333333334e-05
0.001 0.0003749999999990887 6.666666666666668e-05
0.001 0.0003749999999990888 3.333333333333335e-05
0.001 0.0004999999999987165 0.0001
0.001 0.0003749999999990887 0.0001333333333333333
0.001 0.0003749999999990887 0.0001
0.001 0.0004999999999987165 0.0001666666666666667
0.001 0.0003749999999990888 0.0001666666666666667
0.001 0.0007499999999993478 3.333333333333334e-05
0.001 0.0006249999999990321 6.666666666666668e-05
0.001 0.0006249999999990501 3.333333333333335e-05
0.001 0.0007499999999993478 0.0001
0.001 0.0006249999999990321 0.0001333333333333333
0.001 0.0006249999999990321 0.0001
0.001 0.0007499999999993478 0.0001666666666666667
0.001 0.0006249999999990501 0.0001666666666666667
0.001 0.0008749999999996738 6.666666666666668e-05
0.001 0.0008749999999996497 3.333333333334187e-05
0.001 0.0008749999999996738 0.0001333333333333333
0.001 0.0008749999999996739 9.999999999994771e-05
0.001 0.0008749999999996497 0.0001666666666666667
0.0007500000000003918 0.001 6.666666666666667e-05
0.0007500000000003918 0.001 0.0001333333333333333
0.0005000000000012286 0.001 6.666666666666667e-05
0.0005000000000012286 0.001 0.0001333333333333333
0.0002500000000006249 0.001 6.666666666666667e-05
0.0002500000000006249 0.001 0.0001333333333333333
0.0007500000000003918 0.001 3.333333333333334e-05
0.0008750000000001959 0.001 6.666666666666667e-05
0.0008750000000001146 0.001 3.333333333334187e-05
0.0007500000000003918 0.001 0.0001
0.0008750000000001959 0.001 0.0001333333333333333
0.0008750000000001959 0.001 9.999999999994771e-05
0.0007500000000003918 0.001 0.0001666666666666667
0.0008750000000001146 0.001 0.0001666666666666667
0.0005000000000012286 0.001 3.333333333333334e-05
0.0006250000000008102 0.001 6.666666666666668e-05
0.0006250000000007987 0.001 3.333333333333335e-05
0.0005000000000012286 0.001 0.0001
0.0006250000000008102 0.001 0.0001333333333333333
0.0006250000000008102 0.001 0.0001
0.0005000000000012286 0.001 0.0001666666666666667
0.0006250000000007987 0.001 0.0001666666666666667
0.0002500000000006249 0.001 3.333333333333334e-05
0.0003750000000009268 0.001 6.666666666666668e-05
0.0003750000000009586 0.001 3.333333333333335e-05
0.0002500000000006249 0.001 0.0001
0.0003750000000009268 0.001 0.0001333333333333333
0.0003750000000009268 0.001 0.0001
0.0002500000000006249 0.001 0.0001666666666666667
0.0003750000000009586 0.001 0.0001666666666666667
0.0001250000000003125 0.001 6.666666666666668e-05
0.0001250000000002677 0.001 3.333333333334187e-05
0.0001250000000003125 0.001 0.0001333333333333333
0.0001250000000003125 0.001 9.999999999994771e-05
0.0001250000000002677 0.001 0.0001666666666666667
0 0.0007500000000003918 6.666666666666667e-05
0 0.0007500000000003918 0.0001333333333333333
0 0.0005000000000012286 6.666666666666667e-05
0 0.0005000000000012286 0.0001333333333333333
0 0.0002500000000006249 6.666666666666667e-05
0 0.0002500000000006249 0.0001333333333333333
0 0.0007500000000003918 3.333333333333334e-05
0 0.0008750000000001959 6.666666666666667e-05
0 0.0008750000000001146 3.333333333334187e-05
0 0.0007500000000003918 0.0001
0 0.0008750000000001959 0.0001333333333333333
0 0.0008750000000001959 9.999999999994771e-05
0 0.0007500000000003918 0.0001666666666666667
0 0.0008750000000001146 0.0001666666666666667
0 0.0005000000000012286 3.333333333333334e-05
0 0.0006250000000008102 6.666666666666668e-05
0 0.0006250000000007987 3.333333333333335e-05
0 0.0005000000000012286 0.0001
0 0.0006250000000008102 0.0001333333333333333
0 0.0006250000000008102 0.0001
0 0.0005000000000012286 0.0001666666666666667
0 0.0006250000000007987 0.0001666666666666667
0 0.0002500000000006249 3.333333333333334e-05
0 0.0003750000000009268 6.666666666666668e-05
0 0.0003750000000009586 3.333333333333335e-05
0 0.0002500000000006249 0.0001
0 0.0003750000000009268 0.0001333333333333333
0 0.0003750000000009268 0.0001
0 0.0002500000000006249 0.0001666666666666667
0 0.0003750000000009586 0.0001666666666666667
0 0.0001250000000003125 6.666666666666668e-05
0 0.0001250000000002677 3.333333333334187e-05
0 0.0001250000000003125 0.0001333333333333333
0 0.0001250000000003125 9.999999999994771e-05
0 0.0001250000000002677 0.0001666666666666667
0.0002499999999997519 0.0002500000000003339 6.666666666666667e-05
0.0002499999999997519 0.0002500000000003339 0.0001333333333333333
0.0002500000000000429 0.0005000000000006007 6.666666666666667e-05
0.0002500000000000429 0.0005000000000006007 0.0001333333333333333
0.0002500000000003339 0.0007500000000001309 6.666666666666667e-05
0.0002500000000003339 0.0007500000000001309 0.0001333333333333333
0.0004999999999993445 0.0002500000000000429 6.666666666666667e-05
0.0004999999999993445 0.0002500000000000429 0.0001333333333333333
0.0004999999999999726 0.0004999999999999726 6.666666666666667e-05
0.0004999999999999726 0.0004999999999999726 0.0001333333333333333
0.0005000000000006005 0.0007499999999998698 6.666666666666667e-05
0.0005000000000006005 0.0007499999999998698 0.0001333333333333333
0.0007499999999996087 0.0002499999999997519 6.666666666666667e-05
0.0007499999999996087 0.0002499999999997519 0.0001333333333333333
0.0007499999999998698 0.0004999999999993444 6.666666666666667e-05
0.0007499999999998698 0.0004999999999993444 0.0001333333333333333
0.0007500000000001307 0.0007499999999996089 6.666666666666667e-05
0.0007500000000001307 0.0007499999999996089 0.0001333333333333333
0.0002499999999997519 0.0002500000000003339 3.333333333333333e-05
0.0002499999999996064 0.000125000000000167 6.666666666666667e-05
0.000124999999999876 0.0002500000000004794 6.666666666666667e-05
0.0002499999999996064 0.000125000000000167 3.333333333333333e-05
0.000124999999999876 0.0002500000000004794 3.333333333333333e-05
0.0001249999999998032 0.0001250000000002397 6.666666666666667e-05
0.0001249999999998169 0.0001250000000002173 3.33333333333376e-05
0.0002499999999997519 0.0002500000000003339 0.0001
0.0002499999999996064 0.000125000000000167 0.0001333333333333333
0.000124999999999876 0.0002500000000004794 0.0001333333333333333
0.0002499999999996064 0.000125000000000167 0.0001
0.000124999999999876 0.0002500000000004794 0.0001
0.0001249999999998032 0.0001250000000002397 0.0001333333333333333
0.0001249999999998032 0.0001250000000002397 9.999999999997388e-05
0.0002499999999997519 0.0002500000000003339 0.0001666666666666667
0.0002499999999996064 0.000125000000000167 0.0001666666666666667
0.000124999999999876 0.0002500000000004794 0.0001666666666666667
0.0001249999999998169 0.0001250000000002173 0.0001666666666666667
0.0002500000000000429 0.0005000000000006007 3.333333333333333e-05
0.0002499999999998974 0.0003750000000004673 6.666666666666667e-05
0.0001250000000000215 0.0005000000000009146 6.666666666666667e-05
0.0002499999999998974 0.0003750000000004673 3.333333333333333e-05
0.0001250000000000215 0.0005000000000009146 3.333333333333333e-05
0.0001249999999999487 0.000375000000000697 6.666666666666667e-05
0.0001249999999999487 0.0003750000000007128 3.333333333333333e-05
0.0002500000000000429 0.0005000000000006007 0.0001
0.0002499999999998974 0.0003750000000004673 0.0001333333333333333
0.0001250000000000215 0.0005000000000009146 0.0001333333333333333
0.0002499999999998974 0.0003750000000004673 0.0001
0.0001250000000000215 0.0005000000000009146 0.0001
0.0001249999999999487 0.000375000000000697 0.0001333333333333333
0.0001249999999999487 0.000375000000000697 9.999999999999998e-05
0.0002500000000000429 0.0005000000000006007 0.0001666666666666667
0.0002499999999998974 0.0003750000000004673 0.0001666666666666667
0.0001250000000000215 0.0005000000000009146 0.0001666666666666667
0.0001249999999999487 0.0003750000000007129 0.0001666666666666667
0.0002500000000003339 0.0007500000000001309 3.333333333333333e-05
0.0002500000000001884 0.0006250000000003657 6.666666666666667e-05
0.000125000000000167 0.0007500000000002613 6.666666666666667e-05
0.0002500000000001884 0.0006250000000003657 3.333333333333333e-05
0.000125000000000167 0.0007500000000002613 3.333333333333333e-05
0.0001250000000000942 0.000625000000000588 6.666666666666667e-05
0.0001250000000000942 0.0006250000000005821 3.333333333333333e-05
0.0002500000000003339 0.0007500000000001309 0.0001
0.0002500000000001884 0.0006250000000003657 0.0001333333333333333
0.000125000000000167 0.0007500000000002613 0.0001333333333333333
0.0002500000000001884 0.0006250000000003657 0.0001
0.000125000000000167 0.0007500000000002613 0.0001
0.0001250000000000942 0.000625000000000588 0.0001333333333333333
0.0001250000000000942 0.000625000000000588 9.999999999999998e-05
0.0002500000000003339 0.0007500000000001309 0.0001666666666666667
0.0002500000000001884 0.0006250000000003657 0.0001666666666666667
0.000125000000000167 0.0007500000000002613 0.0001666666666666667
0.0001250000000000942 0.0006250000000005821 0.0001666666666666667
0.0002500000000004794 0.0008750000000000654 6.666666666666667e-05
0.0002500000000004794 0.0008750000000000654 3.333333333333333e-05
0.0001250000000002397 0.0008750000000001307 6.666666666666667e-05
0.0001250000000002173 0.0008750000000000899 3.33333333333376e-05
0.0002500000000004794 0.0008750000000000654 0.0001333333333333333
0.0002500000000004794 0.0008750000000000654 0.0001
0.0001250000000002397 0.0008750000000001307 0.0001333333333333333
0.0001250000000002397 0.0008750000000001303 9.999999999997386e-05
0.0002500000000004794 0.0008750000000000654 0.0001666666666666667
0.0001250000000002173 0.0008750000000000898 0.0001666666666666667
0.0004999999999993445 0.0002500000000000429 3.333333333333333e-05
0.0004999999999990305 0.0001250000000000215 6.666666666666667e-05
0.0003749999999995482 0.0002500000000001884 6.666666666666667e-05
0.0004999999999990305 0.0001250000000000215 3.333333333333333e-05
0.0003749999999995482 0.0002500000000001884 3.333333333333333e-05
0.0003749999999993185 0.0001250000000000942 6.666666666666667e-05
0.0003749999999993184 0.0001250000000000942 3.333333333333333e-05
0.0004999999999993445 0.0002500000000000429 0.0001
0.0004999999999990305 0.0001250000000000215 0.0001333333333333333
0.0003749999999995482 0.0002500000000001884 0.0001333333333333333
0.0004999999999990305 0.0001250000000000215 0.0001
0.0003749999999995482 0.0002500000000001884 0.0001
0.0003749999999993185 0.0001250000000000942 0.0001333333333333333
0.0003749999999993185 0.0001250000000000942 9.999999999999998e-05
0.0004999999999993445 0.0002500000000000429 0.0001666666666666667
0.0004999999999990305 0.0001250000000000215 0.0001666666666666667
0.0003749999999995482 0.0002500000000001884 0.0001666666666666667
0.0003749999999993184 0.0001250000000000942 0.0001666666666666667
0.0004999999999999726 0.0004999999999999726 3.333333333333333e-05
0.0004999999999996585 0.0003750000000000078 6.666666666666667e-05
0.0003750000000000078 0.0005000000000002867 6.666666666666667e-05
0.0004999999999996585 0.0003750000000000078 3.333333333333333e-05
0.0003750000000000077 0.0005000000000002867 3.333333333333333e-05
0.000374999999999778 0.0003750000000002376 6.666666666666667e-05
0.0003749999999997779 0.0003750000000002376 3.333333333333333e-05
0.0004999999999999726 0.0004999999999999726 0.0001
0.0004999999999996585 0.0003750000000000078 0.0001333333333333333
0.0003750000000000078 0.0005000000000002867 0.0001333333333333333
0.0004999999999996585 0.0003750000000000078 0.0001
0.0003750000000000077 0.0005000000000002867 0.0001
0.000374999999999778 0.0003750000000002376 0.0001333333333333333
0.0003749999999997779 0.0003750000000002376 9.999999999999998e-05
0.0004999999999999726 0.0004999999999999726 0.0001666666666666667
0.0004999999999996585 0.0003750000000000078 0.0001666666666666667
0.0003750000000000077 0.0005000000000002867 0.0001666666666666667
0.0003749999999997779 0.0003750000000002376 0.0001666666666666667
0.0005000000000006005 0.0007499999999998698 3.333333333333333e-05
0.0005000000000002866 0.0006249999999999212 6.666666666666667e-05
0.0003750000000004672 0.0007500000000000003 6.666666666666667e-05
0.0005000000000002866 0.0006249999999999212 3.333333333333333e-05
0.0003750000000004672 0.0007500000000000003 3.333333333333333e-05
0.0003750000000002375 0.0006250000000001435 6.666666666666667e-05
0.0003750000000002374 0.0006250000000001435 3.333333333333333e-05
0.0005000000000006005 0.0007499999999998698 0.0001
0.0005000000000002866 0.0006249999999999212 0.0001333333333333333
0.0003750000000004672 0.0007500000000000003 0.0001333333333333333
0.0005000000000002866 0.0006249999999999212 0.0001
0.0003750000000004672 0.0007500000000000003 0.0001
0.0003750000000002375 0.0006250000000001435 0.0001333333333333333
0.0003750000000002374 0.0006250000000001435 9.999999999999998e-05
0.0005000000000006005 0.0007499999999998698 0.0001666666666666667
0.0005000000000002866 0.0006249999999999212 0.0001666666666666667
0.0003750000000004672 0.0007500000000000003 0.0001666666666666667
0.0003750000000002374 0.0006250000000001435 0.0001666666666666667
0.0005000000000009146 0.0008749999999999349 6.666666666666667e-05
0.0005000000000009146 0.0008749999999999349 3.333333333333333e-05
0.000375000000000697 0.0008750000000000001 6.666666666666667e-05
0.000375000000000713 0.000875 3.333333333333334e-05
0.0005000000000009146 0.0008749999999999349 0.0001333333333333333
0.0005000000000009146 0.0008749999999999349 0.0001
0.000375000000000697 0.0008750000000000001 0.0001333333333333333
0.0003750000000006971 0.000875 9.999999999999998e-05
0.0005000000000009146 0.0008749999999999349 0.0001666666666666667
0.0003750000000007129 0.000875 0.0001666666666666667
0.0007499999999996087 0.0002499999999997519 3.333333333333333e-05
0.0007499999999994783 0.000124999999999876 6.666666666666667e-05
0.0006249999999994767 0.0002499999999998974 6.666666666666667e-05
0.0007499999999994783 0.000124999999999876 3.333333333333333e-05
0.0006249999999994767 0.0002499999999998974 3.333333333333333e-05
0.0006249999999992544 0.0001249999999999487 6.666666666666667e-05
0.0006249999999992635 0.0001249999999999487 3.333333333333333e-05
0.0007499999999996087 0.0002499999999997519 0.0001
0.0007499999999994783 0.000124999999999876 0.0001333333333333333
0.0006249999999994767 0.0002499999999998974 0.0001333333333333333
0.0007499999999994783 0.000124999999999876 0.0001
0.0006249999999994767 0.0002499999999998974 0.0001
0.0006249999999992544 0.0001249999999999487 0.0001333333333333333
0.0006249999999992544 0.0001249999999999487 9.999999999999998e-05
0.0007499999999996087 0.0002499999999997519 0.0001666666666666667
0.0007499999999994783 0.000124999999999876 0.0001666666666666667
0.0006249999999994767 0.0002499999999998974 0.0001666666666666667
0.0006249999999992633 0.0001249999999999487 0.0001666666666666667
0.0007499999999998698 0.0004999999999993444 3.333333333333333e-05
0.0007499999999997393 0.0003749999999995482 6.666666666666667e-05
0.0006249999999999212 0.0004999999999996585 6.666666666666667e-05
0.0007499999999997393 0.0003749999999995482 3.333333333333333e-05
0.0006249999999999212 0.0004999999999996585 3.333333333333333e-05
0.0006249999999996989 0.000374999999999778 6.666666666666667e-05
0.0006249999999996989 0.0003749999999997779 3.333333333333333e-05
0.0007499999999998698 0.0004999999999993444 0.0001
0.0007499999999997393 0.0003749999999995482 0.0001333333333333333
0.0006249999999999212 0.0004999999999996585 0.0001333333333333333
0.0007499999999997393 0.0003749999999995482 0.0001
0.0006249999999999212 0.0004999999999996585 0.0001
0.0006249999999996989 0.000374999999999778 0.0001333333333333333
0.0006249999999996989 0.0003749999999997779 9.999999999999998e-05
0.0007499999999998698 0.0004999999999993444 0.0001666666666666667
0.0007499999999997393 0.0003749999999995482 0.0001666666666666667
0.0006249999999999212 0.0004999999999996585 0.0001666666666666667
0.0006249999999996989 0.0003749999999997779 0.0001666666666666667
0.0007500000000001307 0.0007499999999996089 3.333333333333333e-05
0.0007500000000000002 0.0006249999999994767 6.666666666666667e-05
0.0006250000000003656 0.0007499999999997394 6.666666666666667e-05
0.0007500000000000002 0.0006249999999994767 3.333333333333333e-05
0.0006250000000003656 0.0007499999999997394 3.333333333333333e-05
0.0006250000000001433 0.0006249999999996989 6.666666666666667e-05
0.0006250000000001432 0.0006249999999996987 3.333333333333333e-05
0.0007500000000001307 0.0007499999999996089 0.0001
0.0007500000000000002 0.0006249999999994767 0.0001333333333333333
0.0006250000000003656 0.0007499999999997394 0.0001333333333333333
0.0007500000000000002 0.0006249999999994767 0.0001
0.0006250000000003656 0.0007499999999997394 0.0001
0.0006250000000001433 0.0006249999999996989 0.0001333333333333333
0.0006250000000001432 0.0006249999999996987 9.999999999999998e-05
0.0007500000000001307 0.0007499999999996089 0.0001666666666666667
0.0007500000000000002 0.0006249999999994767 0.0001666666666666667
0.0006250000000003656 0.0007499999999997394 0.0001666666666666667
0.0006250000000001432 0.0006249999999996987 0.0001666666666666667
0.0007500000000002613 0.0008749999999998045 6.666666666666667e-05
0.0007500000000002613 0.0008749999999998045 3.333333333333333e-05
0.000625000000000588 0.0008749999999998697 6.666666666666667e-05
0.0006250000000005821 0.0008749999999998698 3.333333333333334e-05
0.0007500000000002613 0.0008749999999998045 0.0001333333333333333
0.0007500000000002613 0.0008749999999998045 0.0001
0.000625000000000588 0.0008749999999998697 0.0001333333333333333
0.0006250000000005879 0.0008749999999998698 9.999999999999998e-05
0.0007500000000002613 0.0008749999999998045 0.0001666666666666667
0.0006250000000005821 0.0008749999999998698 0.0001666666666666667
0.0008749999999998043 0.0002499999999996064 6.666666666666667e-05
0.0008749999999998043 0.0002499999999996064 3.333333333333333e-05
0.0008749999999997392 0.0001249999999998032 6.666666666666667e-05
0.0008749999999997273 0.0001249999999998169 3.333333333333759e-05
0.0008749999999998043 0.0002499999999996064 0.0001333333333333333
0.0008749999999998043 0.0002499999999996064 0.0001
0.0008749999999997392 0.0001249999999998032 0.0001333333333333333
0.0008749999999997393 0.0001249999999998032 9.999999999997389e-05
0.0008749999999998043 0.0002499999999996064 0.0001666666666666667
0.0008749999999997269 0.0001249999999998169 0.0001666666666666667
0.0008749999999999349 0.0004999999999990305 6.666666666666667e-05
0.0008749999999999349 0.0004999999999990305 3.333333333333333e-05
0.0008749999999998696 0.0003749999999993185 6.666666666666667e-05
0.0008749999999998697 0.0003749999999993186 3.333333333333334e-05
0.0008749999999999349 0.0004999999999990305 0.0001333333333333333
0.0008749999999999349 0.0004999999999990305 0.0001
0.0008749999999998696 0.0003749999999993185 0.0001333333333333333
0.0008749999999998697 0.0003749999999993185 9.999999999999998e-05
0.0008749999999999349 0.0004999999999990305 0.0001666666666666667
0.0008749999999998697 0.0003749999999993186 0.0001666666666666667
0.0008750000000000654 0.0007499999999994783 6.666666666666667e-05
0.0008750000000000654 0.0007499999999994783 3.333333333333333e-05
0.0008750000000000001 0.0006249999999992544 6.666666666666667e-05
0.000875 0.0006249999999992633 3.333333333333334e-05
0.0008750000000000654 0.0007499999999994783 0.0001333333333333333
0.0008750000000000654 0.0007499999999994783 0.0001
0.0008750000000000001 0.0006249999999992544 0.0001333333333333333
0.000875 0.0006249999999992544 9.999999999999998e-05
0.0008750000000000654 0.0007499999999994783 0.0001666666666666667
0.000875 0.0006249999999992633 0.0001666666666666667
0.0008750000000001307 0.0008749999999997392 6.666666666666667e-05
0.0008750000000000901 0.0008749999999997271 3.333333333333759e-05
0.0008750000000001307 0.0008749999999997392 0.0001333333333333333
0.0008750000000001308 0.0008749999999997393 9.999999999997386e-05
0.0008750000000000902 0.0008749999999997272 0.0001666666666666667
$EndNodes
$Elements
3 80 1 80
2 1 10 16
1 1 9 85 32 12 94 95 36 96 
2 32 85 86 31 95 97 98 35 99 
3 31 86 87 30 98 100 101 34 102 
4 30 87 25 4 101 103 29 33 104 
5 9 10 88 85 13 105 106 94 107 
6 85 88 89 86 106 108 109 97 110 
7 86 89 90 87 109 111 112 100 113 
8 87 90 24 25 112 114 28 103 115 
9 10 11 91 88 14 116 117 105 118 
10 88 91 92 89 117 119 120 108 121 
11 89 92 93 90 120 122 123 111 124 
12 90 93 23 24 123 125 27 114 126 
13 11 2 16 91 15 19 127 116 128 
14 91 16 17 92 127 20 129 119 130 
15 92 17 18 93 129 21 131 122 132 
16 93 18 3 23 131 22 26 125 133 
2 26 10 16
17 5 37 274 60 40 283 284 64 285 
18 60 274 275 59 284 286 287 63 288 
19 59 275 276 58 287 289 290 62 291 
20 58 276 53 8 290 292 57 61 293 
21 37 38 277 274 41 294 295 283 296 
22 274 277 278 275 295 297 298 286 299 
23 275 278 279 276 298 300 301 289 302 
24 276 279 52 53 301 303 56 292 304 
25 38 39 280 277 42 305 306 294 307 
26 277 280 281 278 306 308 309 297 310 
27 278 281 282 279 309 311 312 300 313 
28 279 282 51 52 312 314 55 303 315 
29 39 6 44 280 43 47 316 305 317 
30 280 44 45 281 316 48 318 308 319 
31 281 45 46 282 318 49 320 311 321 
32 282 46 7 51 320 50 54 314 322 
3 1 12 48
33 1 9 85 32 65 134 323 243 12 36 67 94 140 95 341 261 141 269 342 343 96 142 270 344 345 346 347 
34 65 134 323 243 66 135 324 244 141 269 68 342 143 343 348 264 144 271 349 350 346 145 272 351 352 353 354 
35 66 135 324 244 5 37 274 60 144 271 69 349 146 350 355 267 40 64 283 284 353 147 273 356 357 285 358 
36 32 85 86 31 243 323 325 241 95 35 261 97 341 98 359 253 343 262 360 361 99 345 263 362 363 364 365 
37 243 323 325 241 244 324 326 242 343 262 264 360 348 361 366 256 350 265 367 368 364 352 266 369 370 371 372 
38 244 324 326 242 60 274 275 59 350 265 267 367 355 368 373 259 284 63 286 287 371 357 268 374 375 288 376 
39 31 86 87 30 241 325 327 239 98 34 253 100 359 101 377 245 361 254 378 379 102 363 255 380 381 382 383 
40 241 325 327 239 242 326 328 240 361 254 256 378 366 379 384 248 368 257 385 386 382 370 258 387 388 389 390 
41 242 326 328 240 59 275 276 58 368 257 259 385 373 386 391 251 287 62 289 290 389 375 260 392 393 291 394 
42 30 87 25 4 239 327 208 80 101 33 245 103 377 29 226 82 379 246 395 234 104 381 247 396 235 397 398 
43 239 327 208 80 240 328 209 81 379 246 248 395 384 234 229 83 386 249 399 236 397 388 250 400 237 401 402 
44 240 328 209 81 58 276 53 8 386 249 251 399 391 236 232 84 290 61 292 57 401 393 252 403 238 293 404 
45 9 10 88 85 134 136 329 323 13 94 140 105 148 106 405 341 149 342 406 407 107 150 344 408 409 410 411 
46 134 136 329 323 135 137 330 324 149 342 143 406 151 407 412 348 152 349 413 414 410 153 351 415 416 417 418 
47 135 137 330 324 37 38 277 274 152 349 146 413 154 414 419 355 41 283 294 295 417 155 356 420 421 296 422 
48 85 88 89 86 323 329 331 325 106 97 341 108 405 109 423 359 407 360 424 425 110 409 362 426 427 428 429 
49 323 329 331 325 324 330 332 326 407 360 348 424 412 425 430 366 414 367 431 432 428 416 369 433 434 435 436 
50 324 330 332 326 274 277 278 275 414 367 355 431 419 432 437 373 295 286 297 298 435 421 374 438 439 299 440 
51 86 89 90 87 325 331 333 327 109 100 359 111 423 112 441 377 425 378 442 443 113 427 380 444 445 446 447 
52 325 331 333 327 326 332 334 328 425 378 366 442 430 443 448 384 432 385 449 450 446 434 387 451 452 453 454 
53 326 332 334 328 275 278 279 276 432 385 373 449 437 450 455 391 298 289 300 301 453 439 392 456 457 302 458 
54 87 90 24 25 327 333 206 208 112 103 377 114 441 28 218 226 443 395 459 227 115 445 396 460 228 461 462 
55 327 333 206 208 328 334 207 209 443 395 384 459 448 227 221 229 450 399 463 230 461 452 400 464 231 465 466 
56 328 334 207 209 276 279 52 53 450 399 391 463 455 230 224 232 301 292 303 56 465 457 403 467 233 304 468 
57 10 11 91 88 136 138 335 329 14 105 148 116 156 117 469 405 157 406 470 471 118 158 408 472 473 474 475 
58 136 138 335 329 137 139 336 330 157 406 151 470 159 471 476 412 160 413 477 478 474 161 415 479 480 481 482 
59 137 139 336 330 38 39 280 277 160 413 154 477 162 478 483 419 42 294 305 306 481 163 420 484 485 307 486 
60 88 91 92 89 329 335 337 331 117 108 405 119 469 120 487 423 471 424 488 489 121 473 426 490 491 492 493 
61 329 335 337 331 330 336 338 332 471 424 412 488 476 489 494 430 478 431 495 496 492 480 433 497 498 499 500 
62 330 336 338 332 277 280 281 278 478 431 419 495 483 496 501 437 306 297 308 309 499 485 438 502 503 310 504 
63 89 92 93 90 331 337 339 333 120 111 423 122 487 123 505 441 489 442 506 507 124 491 444 508 509 510 511 
64 331 337 339 333 332 338 340 334 489 442 430 506 494 507 512 448 496 449 513 514 510 498 451 515 516 517 518 
65 332 338 340 334 278 281 282 279 496 449 437 513 501 514 519 455 309 300 311 312 517 503 456 520 521 313 522 
66 90 93 23 24 333 339 204 206 123 114 441 125 505 27 210 218 507 459 523 219 126 509 460 524 220 525 526 
67 333 339 204 206 334 340 205 207 507 459 448 523 512 219 213 221 514 463 527 222 525 516 464 528 223 529 530 
68 334 340 205 207 279 282 51 52 514 463 455 527 519 222 216 224 312 303 314 55 529 521 467 531 225 315 532 
69 11 2 16 91 138 70 169 335 15 116 156 19 72 127 175 469 164 470 176 533 128 165 472 177 534 535 536 
70 138 70 169 335 139 71 170 336 164 470 159 176 73 533 178 476 166 477 179 537 535 167 479 180 538 539 540 
71 139 71 170 336 39 6 44 280 166 477 162 179 74 537 181 483 43 305 47 316 539 168 484 182 541 317 542 
72 91 16 17 92 335 169 171 337 127 119 469 20 175 129 183 487 533 488 184 543 130 534 490 185 544 545 546 
73 335 169 171 337 336 170 172 338 533 488 476 184 178 543 186 494 537 495 187 547 545 538 497 188 548 549 550 
74 336 170 172 338 280 44 45 281 537 495 483 187 181 547 189 501 316 308 48 318 549 541 502 190 551 319 552 
75 92 17 18 93 337 171 173 339 129 122 487 21 183 131 191 505 543 506 192 553 132 544 508 193 554 555 556 
76 337 171 173 339 338 172 174 340 543 506 494 192 186 553 194 512 547 513 195 557 555 548 515 196 558 559 560 
77 338 172 174 340 281 45 46 282 547 513 501 195 189 557 197 519 318 311 49 320 559 551 520 198 561 321 562 
78 93 18 3 23 339 173 75 204 131 125 505 22 191 26 77 210 553 523 199 211 133 554 524 200 212 563 564 
79 339 173 75 204 340 174 76 205 553 523 512 199 194 211 78 213 557 527 201 214 563 558 528 202 215 565 566 
80 340 174 76 205 282 46 7 51 557 527 519 201 197 214 79 216 320 314 50 54 565 561 531 203 217 322 567 
$EndElements
