$MeshFormat
2.2 0 8
$EndMeshFormat
$Nodes
64
1 0 0 0
2 0 0 7.400241118798732e-05
3 0 0 0.0001281564642286862
4 0 0 0.0002
5 0 0.0003464167006507427 0
6 0 0.0002896942030408049 6.270065984471398e-05
7 0 0.0003489204705062866 0.0001369054725264892
8 0 0.0003542613123169346 0.0002
9 0 0.0007011827478696831 0
10 0 0.0006947283674863772 6.034390564824868e-05
11 0 0.0006310231302200234 0.000140648692089649
12 0 0.0006739330773842085 0.0002
13 0 0.001 0
14 0 0.001 6.83369160110456e-05
15 0 0.001 0.0001410319091637915
16 0 0.001 0.0002
17 0.0003821797778344254 0 0
18 0.0003754551330418549 0 7.565423165064327e-05
19 0.0003521278144970776 0 0.0001255084513118215
20 0.0003257573516172788 0 0.0002
21 0.0003365451141429219 0.0003742706937544757 0
22 0.0003593490353143164 0.0003460969064952648 5.812589833309295e-05
23 0.0003779019022857865 0.0003826988761924163 0.0001319919794393426
24 0.0003371451313399753 0.0003497360260475161 0.0002
25 0.000299645637863968 0.0006877891601687491 0
26 0.0003423014599370946 0.0006228028961399187 6.811984978380332e-05
27 0.000351282194901308 0.0007068148213670934 0.0001283390184042999
28 0.0002907094290387021 0.0006304824613436959 0.0002
29 0.0003327326951513434 0.001 0
30 0.0003238596375611857 0.001 7.224910158763615e-05
31 0.0003219649211261432 0.001 0.0001342867957181051
32 0.0003673187167851997 0.001 0.0002
33 0.0006942894129847499 0 0
34 0.0007161224835215692 0 7.509241362694311e-05
35 0.0006242860755647686 0 0.0001292205404954222
36 0.0006582928375334753 0 0.0002
37 0.0006178262498754978 0.0002904601191159658 0
38 0.0006646568555668073 0.0003545889174929966 6.737873636595121e-05
39 0.0006222237308219114 0.0002908771405528046 0.0001304999929382738
40 0.0006540555289176289 0.0003728491012193543 0.0002
41 0.000686432617380039 0.0007070995217750283 0
42 0.0006831324990725395 0.0006276458713446601 7.511122382701632e-05
43 0.000640509419049064 0.0006271306440162222 0.0001408214130338062
44 0.0006818972464742887 0.0006716840420160391 0.0002
45 0.0006686520471136869 0.001 0
46 0.0006251527002366371 0.001 6.38823804142228e-05
47 0.0006497226349216472 0.001 0.0001352134564287947
48 0.0006421553967099499 0.001 0.0002
49 0.001 0 0
50 0.001 0 6.819420941709233e-05
51 0.001 0 0.0001326730173070466
52 0.001 0 0.0002
53 0.001 0.0003026230401602476 0
54 0.001 0.0003685477937982052 7.117860799852504e-05
55 0.001 0.0003346489399030603 0.0001301153525487653
56 0.001 0.0003280239400600617 0.0002
57 0.001 0.0007001694082365709 0
58 0.001 0.0006171938785679289 6.856770331541166e-05
59 0.001 0.000711078118527712 0.0001417104982390354
60 0.001 0.0006644991960944071 0.0002
61 0.001 0.001 0
62 0.001 0.001 5.911479179788128e-05
63 0.001 0.001 0.0001242084784349064
64 0.001 0.001 0.0002
$EndNodes
$Elements
45
1 3 2 10 10 1 17 21 5
2 3 2 11 11 4 20 24 8
3 3 2 10 10 5 21 25 9
4 3 2 11 11 8 24 28 12
5 3 2 10 10 9 25 29 13
6 3 2 11 11 12 28 32 16
7 3 2 10 10 17 33 37 21
8 3 2 11 11 20 36 40 24
9 3 2 10 10 21 37 41 25
10 3 2 11 11 24 40 44 28
11 3 2 10 10 25 41 45 29
12 3 2 11 11 28 44 48 32
13 3 2 10 10 33 49 53 37
14 3 2 11 11 36 52 56 40
15 3 2 10 10 37 53 57 41
16 3 2 11 11 40 56 60 44
17 3 2 10 10 41 57 61 45
18 3 2 11 11 44 60 64 48
19 5 2 1 1 1 17 21 5 2 18 22 6
20 5 2 1 1 2 18 22 6 3 19 23 7
21 5 2 1 1 3 19 23 7 4 20 24 8
22 5 2 1 1 5 21 25 9 6 22 26 10
23 5 2 1 1 6 22 26 10 7 23 27 11
24 5 2 1 1 7 23 27 11 8 24 28 12
25 5 2 1 1 9 25 29 13 10 26 30 14
26 5 2 1 1 10 26 30 14 11 27 31 15
27 5 2 1 1 11 27 31 15 12 28 32 16
28 5 2 1 1 17 33 37 21 18 34 38 22
29 5 2 1 1 18 34 38 22 19 35 39 23
30 5 2 1 1 19 35 39 23 20 36 40 24
31 5 2 1 1 21 37 41 25 22 38 42 26
32 5 2 1 1 22 38 42 26 23 39 43 27
33 5 2 1 1 23 39 43 27 24 40 44 28
34 5 2 1 1 25 41 45 29 26 42 46 30
35 5 2 1 1 26 42 46 30 27 43 47 31
36 5 2 1 1 27 43 47 31 28 44 48 32
37 5 2 1 1 33 49 53 37 34 50 54 38
38 5 2 1 1 34 50 54 38 35 51 55 39
39 5 2 1 1 35 51 55 39 36 52 56 40
40 5 2 1 1 37 53 57 41 38 54 58 42
41 5 2 1 1 38 54 58 42 39 55 59 43
42 5 2 1 1 39 55 59 43 40 56 60 44
43 5 2 1 1 41 57 61 45 42 58 62 46
44 5 2 1 1 42 58 62 46 43 59 63 47
45 5 2 1 1 43 59 63 47 44 60 64 48
$EndElements
