$MeshFormat
2.2 0 8
$EndMeshFormat
$Nodes
567
1 0 0 0
2 0.001 0 0
3 0.001 0.001 0
4 0 0.001 0
5 0 0 0.0002
6 0.001 0 0.0002
7 0.001 0.001 0.0002
8 0 0.001 0.0002
9 0.0002499999999994609 0 0
10 0.0004999999999987165 0 0
11 0.0007499999999993478 0 0
12 0.0001249999999997854 0 0
13 0.000374999999999089 0 0
14 0.0006249999999990682 0 0
15 0.0008749999999996254 0 0
16 0.001 0.0002499999999994609 0
17 0.001 0.0004999999999987165 0
18 0.001 0.0007499999999993478 0
19 0.001 0.0001249999999997854 0
20 0.001 0.000374999999999089 0
21 0.001 0.0006249999999990682 0
22 0.001 0.0008749999999996254 0
23 0.0007500000000003918 0.001 0
24 0.0005000000000012286 0.001 0
25 0.0002500000000006249 0.001 0
26 0.0008750000000000333 0.001 0
27 0.0006250000000007871 0.001 0
28 0.0003750000000009903 0.001 0
29 0.000125000000000223 0.001 0
30 0 0.0007500000000003918 0
31 0 0.0005000000000012286 0
32 0 0.0002500000000006249 0
33 0 0.0008750000000000333 0
34 0 0.0006250000000007871 0
35 0 0.0003750000000009903 0
36 0 0.000125000000000223 0
37 0.0002499999999994609 0 0.0002
38 0.0004999999999987165 0 0.0002
39 0.0007499999999993478 0 0.0002
40 0.0001249999999997854 0 0.0002
41 0.000374999999999089 0 0.0002
42 0.0006249999999990682 0 0.0002
43 0.0008749999999996254 0 0.0002
44 0.001 0.0002499999999994609 0.0002
45 0.001 0.0004999999999987165 0.0002
46 0.001 0.0007499999999993478 0.0002
47 0.001 0.0001249999999997854 0.0002
48 0.001 0.000374999999999089 0.0002
49 0.001 0.0006249999999990682 0.0002
50 0.001 0.0008749999999996254 0.0002
51 0.0007500000000003918 0.001 0.0002
52 0.0005000000000012286 0.001 0.0002
53 0.0002500000000006249 0.001 0.0002
54 0.0008750000000000333 0.001 0.0002
55 0.0006250000000007871 0.001 0.0002
56 0.0003750000000009903 0.001 0.0002
57 0.000125000000000223 0.001 0.0002
58 0 0.0007500000000003918 0.0002
59 0 0.0005000000000012286 0.0002
60 0 0.0002500000000006249 0.0002
61 0 0.0008750000000000333 0.0002
62 0 0.0006250000000007871 0.0002
63 0 0.0003750000000009903 0.0002
64 0 0.000125000000000223 0.0002
65 0 0 6.666666666666667e-05
66 0 0 0.0001333333333333333
67 0 0 3.33333333333504e-05
68 0 0 9.999999999989539e-05
69 0 0 0.0001666666666666667
70 0.001 0 6.666666666666667e-05
71 0.001 0 0.0001333333333333333
72 0.001 0 3.33333333333504e-05
73 0.001 0 9.999999999989539e-05
74 0.001 0 0.0001666666666666667
75 0.001 0.001 6.666666666666667e-05
76 0.001 0.001 0.0001333333333333333
77 0.001 0.001 3.33333333333504e-05
78 0.001 0.001 9.999999999989539e-05
79 0.001 0.001 0.0001666666666666667
80 0 0.001 6.666666666666667e-05
81 0 0.001 0.0001333333333333333
82 0 0.001 3.33333333333504e-05
83 0 0.001 9.999999999989539e-05
84 0 0.001 0.0001666666666666667
85 0.0002499999999997519 0.0002500000000003339 0
86 0.0002500000000000429 0.0005000000000006007 0
87 0.0002500000000003339 0.0007500000000001309 0
88 0.0004999999999993445 0.0002500000000000429 0
89 0.0004999999999999726 0.0004999999999999726 0
90 0.0005000000000006005 0.0007499999999998698 0
91 0.0007499999999996087 0.0002499999999997519 0
92 0.0007499999999998698 0.0004999999999993444 0
93 0.0007500000000001307 0.0007499999999996089 0
94 0.0002499999999996064 0.000125000000000167 0
95 0.000124999999999876 0.0002500000000004794 0
96 0.0001249999999998307 0.000125000000000195 0
97 0.0002499999999998974 0.0003750000000004673 0
98 0.0001250000000000215 0.0005000000000009146 0
99 0.0001249999999999487 0.0003750000000007288 0
100 0.0002500000000001884 0.0006250000000003657 0
101 0.000125000000000167 0.0007500000000002613 0
102 0.0001250000000000942 0.0006250000000005765 0
103 0.0002500000000004794 0.0008750000000000654 0
104 0.000125000000000195 0.0008750000000000493 0
105 0.0004999999999990305 0.0001250000000000215 0
106 0.0003749999999995482 0.0002500000000001884 0
107 0.0003749999999993186 0.0001250000000000942 0
108 0.0004999999999996585 0.0003750000000000078 0
109 0.0003750000000000078 0.0005000000000002867 0
110 0.000374999999999778 0.0003750000000002376 0
111 0.0005000000000002866 0.0006249999999999212 0
112 0.0003750000000004672 0.0007500000000000003 0
113 0.0003750000000002375 0.0006250000000001435 0
114 0.0005000000000009146 0.0008749999999999349 0
115 0.0003750000000007288 0.0008750000000000001 0
116 0.0007499999999994783 0.000124999999999876 0
117 0.0006249999999994767 0.0002499999999998974 0
118 0.0006249999999992724 0.0001249999999999487 0
119 0.0007499999999997393 0.0003749999999995482 0
120 0.0006249999999999212 0.0004999999999996585 0
121 0.0006249999999996989 0.000374999999999778 0
122 0.0007500000000000002 0.0006249999999994767 0
123 0.0006250000000003656 0.0007499999999997394 0
124 0.0006250000000001433 0.0006249999999996989 0
125 0.0007500000000002613 0.0008749999999998045 0
126 0.0006250000000005764 0.0008749999999998697 0
127 0.0008749999999998043 0.0002499999999996064 0
128 0.000874999999999715 0.0001249999999998307 0
129 0.0008749999999999349 0.0004999999999990305 0
130 0.0008749999999998696 0.0003749999999993186 0
131 0.0008750000000000654 0.0007499999999994783 0
132 0.0008750000000000001 0.0006249999999992724 0
133 0.0008750000000000493 0.000874999999999715 0
134 0.0002499999999994609 0 6.666666666666667e-05
135 0.0002499999999994609 0 0.0001333333333333333
136 0.0004999999999987165 0 6.666666666666667e-05
137 0.0004999999999987165 0 0.0001333333333333333
138 0.0007499999999993478 0 6.666666666666667e-05
139 0.0007499999999993478 0 0.0001333333333333333
140 0.0002499999999994609 0 3.333333333333334e-05
141 0.0001249999999997305 0 6.666666666666667e-05
142 0.0001249999999997579 0 3.333333333334187e-05
143 0.0002499999999994609 0 0.0001
144 0.0001249999999997305 0 0.0001333333333333333
145 0.0001249999999997305 0 9.999999999994771e-05
146 0.0002499999999994609 0 0.0001666666666666667
147 0.0001249999999997579 0 0.0001666666666666667
148 0.0004999999999987165 0 3.333333333333334e-05
149 0.0003749999999990887 0 6.666666666666668e-05
150 0.0003749999999990888 0 3.333333333333335e-05
151 0.0004999999999987165 0 0.0001
152 0.0003749999999990887 0 0.0001333333333333333
153 0.0003749999999990887 0 0.0001
154 0.0004999999999987165 0 0.0001666666666666667
155 0.0003749999999990888 0 0.0001666666666666667
156 0.0007499999999993478 0 3.333333333333334e-05
157 0.0006249999999990321 0 6.666666666666668e-05
158 0.0006249999999990501 0 3.333333333333335e-05
159 0.0007499999999993478 0 0.0001
160 0.0006249999999990321 0 0.0001333333333333333
161 0.0006249999999990321 0 0.0001
162 0.0007499999999993478 0 0.0001666666666666667
163 0.0006249999999990501 0 0.0001666666666666667
164 0.0008749999999996738 0 6.666666666666668e-05
165 0.0008749999999996497 0 3.333333333334187e-05
166 0.0008749999999996738 0 0.0001333333333333333
167 0.0008749999999996739 0 9.999999999994771e-05
168 0.0008749999999996497 0 0.0001666666666666667
169 0.001 0.0002499999999994609 6.666666666666667e-05
170 0.001 0.0002499999999994609 0.0001333333333333333
171 0.001 0.0004999999999987165 6.666666666666667e-05
172 0.001 0.0004999999999987165 0.0001333333333333333
173 0.001 0.0007499999999993478 6.666666666666667e-05
174 0.001 0.0007499999999993478 0.0001333333333333333
175 0.001 0.0002499999999994609 3.333333333333334e-05
176 0.001 0.0001249999999997305 6.666666666666667e-05
177 0.001 0.0001249999999997579 3.333333333334187e-05
178 0.001 0.0002499999999994609 0.0001
179 0.001 0.0001249999999997305 0.0001333333333333333
180 0.001 0.0001249999999997305 9.999999999994771e-05
181 0.001 0.0002499999999994609 0.0001666666666666667
182 0.001 0.0001249999999997579 0.0001666666666666667
183 0.001 0.0004999999999987165 3.333333333333334e-05
184 0.001 0.0003749999999990887 6.666666666666668e-05
185 0.001 0.0003749999999990888 3.333333333333335e-05
186 0.001 0.0004999999999987165 0.0001
187 0.001 0.0003749999999990887 0.0001333333333333333
188 0.001 0.0003749999999990887 0.0001
189 0.001 0.0004999999999987165 0.0001666666666666667
190 0.001 0.0003749999999990888 0.0001666666666666667
191 0.001 0.0007499999999993478 3.333333333333334e-05
192 0.001 0.0006249999999990321 6.666666666666668e-05
193 0.001 0.0006249999999990501 3.333333333333335e-05
194 0.001 0.0007499999999993478 0.0001
195 0.001 0.0006249999999990321 0.0001333333333333333
196 0.001 0.0006249999999990321 0.0001
197 0.001 0.0007499999999993478 0.0001666666666666667
198 0.001 0.0006249999999990501 0.0001666666666666667
199 0.001 0.0008749999999996738 6.666666666666668e-05
200 0.001 0.0008749999999996497 3.333333333334187e-05
201 0.001 0.0008749999999996738 0.0001333333333333333
202 0.001 0.0008749999999996739 9.999999999994771e-05
203 0.001 0.0008749999999996497 0.0001666666666666667
204 0.0007500000000003918 0.001 6.666666666666667e-05
205 0.0007500000000003918 0.001 0.0001333333333333333
206 0.0005000000000012286 0.001 6.666666666666667e-05
207 0.0005000000000012286 0.001 0.0001333333333333333
208 0.0002500000000006249 0.001 6.666666666666667e-05
209 0.0002500000000006249 0.001 0.0001333333333333333
210 0.0007500000000003918 0.001 3.333333333333334e-05
211 0.0008750000000001959 0.001 6.666666666666667e-05
212 0.0008750000000001146 0.001 3.333333333334187e-05
213 0.0007500000000003918 0.001 0.0001
214 0.0008750000000001959 0.001 0.0001333333333333333
215 0.0008750000000001959 0.001 9.999999999994771e-05
216 0.0007500000000003918 0.001 0.0001666666666666667
217 0.0008750000000001146 0.001 0.0001666666666666667
218 0.0005000000000012286 0.001 3.333333333333334e-05
219 0.0006250000000008102 0.001 6.666666666666668e-05
220 0.0006250000000007987 0.001 3.333333333333335e-05
221 0.0005000000000012286 0.001 0.0001
222 0.0006250000000008102 0.001 0.0001333333333333333
223 0.0006250000000008102 0.001 0.0001
224 0.0005000000000012286 0.001 0.0001666666666666667
225 0.0006250000000007987 0.001 0.0001666666666666667
226 0.0002500000000006249 0.001 3.333333333333334e-05
227 0.0003750000000009268 0.001 6.666666666666668e-05
228 0.0003750000000009586 0.001 3.333333333333335e-05
229 0.0002500000000006249 0.001 0.0001
230 0.0003750000000009268 0.001 0.0001333333333333333
231 0.0003750000000009268 0.001 0.0001
232 0.0002500000000006249 0.001 0.0001666666666666667
233 0.0003750000000009586 0.001 0.0001666666666666667
234 0.0001250000000003125 0.001 6.666666666666668e-05
235 0.0001250000000002677 0.001 3.333333333334187e-05
236 0.0001250000000003125 0.001 0.0001333333333333333
237 0.0001250000000003125 0.001 9.999999999994771e-05
238 0.0001250000000002677 0.001 0.0001666666666666667
239 0 0.0007500000000003918 6.666666666666667e-05
240 0 0.0007500000000003918 0.0001333333333333333
241 0 0.0005000000000012286 6.666666666666667e-05
242 0 0.0005000000000012286 0.0001333333333333333
243 0 0.0002500000000006249 6.666666666666667e-05
244 0 0.0002500000000006249 0.0001333333333333333
245 0 0.0007500000000003918 3.333333333333334e-05
246 0 0.0008750000000001959 6.666666666666667e-05
247 0 0.0008750000000001146 3.333333333334187e-05
248 0 0.0007500000000003918 0.0001
249 0 0.0008750000000001959 0.0001333333333333333
250 0 0.0008750000000001959 9.999999999994771e-05
251 0 0.0007500000000003918 0.0001666666666666667
252 0 0.0008750000000001146 0.0001666666666666667
253 0 0.0005000000000012286 3.333333333333334e-05
254 0 0.0006250000000008102 6.666666666666668e-05
255 0 0.0006250000000007987 3.333333333333335e-05
256 0 0.0005000000000012286 0.0001
257 0 0.0006250000000008102 0.0001333333333333333
258 0 0.0006250000000008102 0.0001
259 0 0.0005000000000012286 0.0001666666666666667
260 0 0.0006250000000007987 0.0001666666666666667
261 0 0.0002500000000006249 3.333333333333334e-05
262 0 0.0003750000000009268 6.666666666666668e-05
263 0 0.0003750000000009586 3.333333333333335e-05
264 0 0.0002500000000006249 0.0001
265 0 0.0003750000000009268 0.0001333333333333333
266 0 0.0003750000000009268 0.0001
267 0 0.0002500000000006249 0.0001666666666666667
268 0 0.0003750000000009586 0.0001666666666666667
269 0 0.0001250000000003125 6.666666666666668e-05
270 0 0.0001250000000002677 3.333333333334187e-05
271 0 0.0001250000000003125 0.0001333333333333333
272 0 0.0001250000000003125 9.999999999994771e-05
273 0 0.0001250000000002677 0.0001666666666666667
274 0.0002499999999997519 0.0002500000000003339 0.0002
275 0.0002500000000000429 0.0005000000000006007 0.0002
276 0.0002500000000003339 0.0007500000000001309 0.0002
277 0.0004999999999993445 0.0002500000000000429 0.0002
278 0.0004999999999999726 0.0004999999999999726 0.0002
279 0.0005000000000006005 0.0007499999999998698 0.0002
280 0.0007499999999996087 0.0002499999999997519 0.0002
281 0.0007499999999998698 0.0004999999999993444 0.0002
282 0.0007500000000001307 0.0007499999999996089 0.0002
283 0.0002499999999996064 0.000125000000000167 0.0002
284 0.000124999999999876 0.0002500000000004794 0.0002
285 0.0001249999999998307 0.000125000000000195 0.0002
286 0.0002499999999998974 0.0003750000000004673 0.0002
287 0.0001250000000000215 0.0005000000000009146 0.0002
288 0.0001249999999999487 0.0003750000000007288 0.0002
289 0.0002500000000001884 0.0006250000000003657 0.0002
290 0.000125000000000167 0.0007500000000002613 0.0002
291 0.0001250000000000942 0.0006250000000005765 0.0002
292 0.0002500000000004794 0.0008750000000000654 0.0002
293 0.000125000000000195 0.0008750000000000493 0.0002
294 0.0004999999999990305 0.0001250000000000215 0.0002
295 0.0003749999999995482 0.0002500000000001884 0.0002
296 0.0003749999999993186 0.0001250000000000942 0.0002
297 0.0004999999999996585 0.0003750000000000078 0.0002
298 0.0003750000000000078 0.0005000000000002867 0.0002
299 0.000374999999999778 0.0003750000000002376 0.0002
300 0.0005000000000002866 0.0006249999999999212 0.0002
301 0.0003750000000004672 0.0007500000000000003 0.0002
302 0.0003750000000002375 0.0006250000000001435 0.0002
303 0.0005000000000009146 0.0008749999999999349 0.0002
304 0.0003750000000007288 0.0008750000000000001 0.0002
305 0.0007499999999994783 0.000124999999999876 0.0002
306 0.0006249999999994767 0.0002499999999998974 0.0002
307 0.0006249999999992724 0.0001249999999999487 0.0002
308 0.0007499999999997393 0.0003749999999995482 0.0002
309 0.0006249999999999212 0.0004999999999996585 0.0002
310 0.0006249999999996989 0.000374999999999778 0.0002
311 0.0007500000000000002 0.0006249999999994767 0.0002
312 0.0006250000000003656 0.0007499999999997394 0.0002
313 0.0006250000000001433 0.0006249999999996989 0.0002
314 0.0007500000000002613 0.0008749999999998045 0.0002
315 0.0006250000000005764 0.0008749999999998697 0.0002
316 0.0008749999999998043 0.0002499999999996064 0.0002
317 0.000874999999999715 0.0001249999999998307 0.0002
318 0.0008749999999999349 0.0004999999999990305 0.0002
319 0.0008749999999998696 0.0003749999999993186 0.0002
320 0.0008750000000000654 0.0007499999999994783 0.0002
321 0.0008750000000000001 0.0006249999999992724 0.0002
322 0.0008750000000000493 0.000874999999999715 0.0002
323 0.0002499999999997519 0.0002500000000003339 6.666666666666667e-05
324 0.0002499999999997519 0.0002500000000003339 0.0001333333333333333
325 0.0002500000000000429 0.0005000000000006007 6.666666666666667e-05
326 0.0002500000000000429 0.0005000000000006007 0.0001333333333333333
327 0.0002500000000003339 0.0007500000000001309 6.666666666666667e-05
328 0.0002500000000003339 0.0007500000000001309 0.0001333333333333333
329 0.0004999999999993445 0.0002500000000000429 6.666666666666667e-05
330 0.0004999999999993445 0.0002500000000000429 0.0001333333333333333
331 0.0004999999999999726 0.0004999999999999726 6.666666666666667e-05
332 0.0004999999999999726 0.0004999999999999726 0.0001333333333333333
333 0.0005000000000006005 0.0007499999999998698 6.666666666666667e-05
334 0.0005000000000006005 0.0007499999999998698 0.0001333333333333333
335 0.0007499999999996087 0.0002499999999997519 6.666666666666667e-05
336 0.0007499999999996087 0.0002499999999997519 0.0001333333333333333
337 0.0007499999999998698 0.0004999999999993444 6.666666666666667e-05
338 0.0007499999999998698 0.0004999999999993444 0.0001333333333333333
339 0.0007500000000001307 0.0007499999999996089 6.666666666666667e-05
340 0.0007500000000001307 0.0007499999999996089 0.0001333333333333333
341 0.0002499999999997519 0.0002500000000003339 3.333333333333333e-05
342 0.0002499999999996064 0.000125000000000167 6.666666666666667e-05
343 0.000124999999999876 0.0002500000000004794 6.666666666666667e-05
344 0.0002499999999996064 0.000125000000000167 3.333333333333333e-05
345 0.000124999999999876 0.0002500000000004794 3.333333333333333e-05
346 0.0001249999999998032 0.0001250000000002397 6.666666666666667e-05
347 0.0001249999999998169 0.0001250000000002173 3.33333333333376e-05
348 0.0002499999999997519 0.0002500000000003339 0.0001
349 0.0002499999999996064 0.000125000000000167 0.0001333333333333333
350 0.000124999999999876 0.0002500000000004794 0.0001333333333333333
351 0.0002499999999996064 0.000125000000000167 0.0001
352 0.000124999999999876 0.0002500000000004794 0.0001
353 0.0001249999999998032 0.0001250000000002397 0.0001333333333333333
354 0.0001249999999998032 0.0001250000000002397 9.999999999997388e-05
355 0.0002499999999997519 0.0002500000000003339 0.0001666666666666667
356 0.0002499999999996064 0.000125000000000167 0.0001666666666666667
357 0.000124999999999876 0.0002500000000004794 0.0001666666666666667
358 0.0001249999999998169 0.0001250000000002173 0.0001666666666666667
359 0.0002500000000000429 0.0005000000000006007 3.333333333333333e-05
360 0.0002499999999998974 0.0003750000000004673 6.666666666666667e-05
361 0.0001250000000000215 0.0005000000000009146 6.666666666666667e-05
362 0.0002499999999998974 0.0003750000000004673 3.333333333333333e-05
363 0.0001250000000000215 0.0005000000000009146 3.333333333333333e-05
364 0.0001249999999999487 0.000375000000000697 6.666666666666667e-05
365 0.0001249999999999487 0.0003750000000007128 3.333333333333333e-05
366 0.0002500000000000429 0.0005000000000006007 0.0001
367 0.0002499999999998974 0.0003750000000004673 0.0001333333333333333
368 0.0001250000000000215 0.0005000000000009146 0.0001333333333333333
369 0.0002499999999998974 0.0003750000000004673 0.0001
370 0.0001250000000000215 0.0005000000000009146 0.0001
371 0.0001249999999999487 0.000375000000000697 0.0001333333333333333
372 0.0001249999999999487 0.000375000000000697 9.999999999999998e-05
373 0.0002500000000000429 0.0005000000000006007 0.0001666666666666667
374 0.0002499999999998974 0.0003750000000004673 0.0001666666666666667
375 0.0001250000000000215 0.0005000000000009146 0.0001666666666666667
376 0.0001249999999999487 0.0003750000000007129 0.0001666666666666667
377 0.0002500000000003339 0.0007500000000001309 3.333333333333333e-05
378 0.0002500000000001884 0.0006250000000003657 6.666666666666667e-05
379 0.000125000000000167 0.0007500000000002613 6.666666666666667e-05
380 0.0002500000000001884 0.0006250000000003657 3.333333333333333e-05
381 0.000125000000000167 0.0007500000000002613 3.333333333333333e-05
382 0.0001250000000000942 0.000625000000000588 6.666666666666667e-05
383 0.0001250000000000942 0.0006250000000005821 3.333333333333333e-05
384 0.0002500000000003339 0.0007500000000001309 0.0001
385 0.0002500000000001884 0.0006250000000003657 0.0001333333333333333
386 0.000125000000000167 0.0007500000000002613 0.0001333333333333333
387 0.0002500000000001884 0.0006250000000003657 0.0001
388 0.000125000000000167 0.0007500000000002613 0.0001
389 0.0001250000000000942 0.000625000000000588 0.0001333333333333333
390 0.0001250000000000942 0.000625000000000588 9.999999999999998e-05
391 0.0002500000000003339 0.0007500000000001309 0.0001666666666666667
392 0.0002500000000001884 0.0006250000000003657 0.0001666666666666667
393 0.000125000000000167 0.0007500000000002613 0.0001666666666666667
394 0.0001250000000000942 0.0006250000000005821 0.0001666666666666667
395 0.0002500000000004794 0.0008750000000000654 6.666666666666667e-05
396 0.0002500000000004794 0.0008750000000000654 3.333333333333333e-05
397 0.0001250000000002397 0.0008750000000001307 6.666666666666667e-05
398 0.0001250000000002173 0.0008750000000000899 3.33333333333376e-05
399 0.0002500000000004794 0.0008750000000000654 0.0001333333333333333
400 0.0002500000000004794 0.0008750000000000654 0.0001
401 0.0001250000000002397 0.0008750000000001307 0.0001333333333333333
402 0.0001250000000002397 0.0008750000000001303 9.999999999997386e-05
403 0.0002500000000004794 0.0008750000000000654 0.0001666666666666667
404 0.0001250000000002173 0.0008750000000000898 0.0001666666666666667
405 0.0004999999999993445 0.0002500000000000429 3.333333333333333e-05
406 0.0004999999999990305 0.0001250000000000215 6.666666666666667e-05
407 0.0003749999999995482 0.0002500000000001884 6.666666666666667e-05
408 0.0004999999999990305 0.0001250000000000215 3.333333333333333e-05
409 0.0003749999999995482 0.0002500000000001884 3.333333333333333e-05
410 0.0003749999999993185 0.0001250000000000942 6.666666666666667e-05
411 0.0003749999999993184 0.0001250000000000942 3.333333333333333e-05
412 0.0004999999999993445 0.0002500000000000429 0.0001
413 0.0004999999999990305 0.0001250000000000215 0.0001333333333333333
414 0.0003749999999995482 0.0002500000000001884 0.0001333333333333333
415 0.0004999999999990305 0.0001250000000000215 0.0001
416 0.0003749999999995482 0.0002500000000001884 0.0001
417 0.0003749999999993185 0.0001250000000000942 0.0001333333333333333
418 0.0003749999999993185 0.0001250000000000942 9.999999999999998e-05
419 0.0004999999999993445 0.0002500000000000429 0.0001666666666666667
420 0.0004999999999990305 0.0001250000000000215 0.0001666666666666667
421 0.0003749999999995482 0.0002500000000001884 0.0001666666666666667
422 0.0003749999999993184 0.0001250000000000942 0.0001666666666666667
423 0.0004999999999999726 0.0004999999999999726 3.333333333333333e-05
424 0.0004999999999996585 0.0003750000000000078 6.666666666666667e-05
425 0.0003750000000000078 0.0005000000000002867 6.666666666666667e-05
426 0.0004999999999996585 0.0003750000000000078 3.333333333333333e-05
427 0.0003750000000000077 0.0005000000000002867 3.333333333333333e-05
428 0.000374999999999778 0.0003750000000002376 6.666666666666667e-05
429 0.0003749999999997779 0.0003750000000002376 3.333333333333333e-05
430 0.0004999999999999726 0.0004999999999999726 0.0001
431 0.0004999999999996585 0.0003750000000000078 0.0001333333333333333
432 0.0003750000000000078 0.0005000000000002867 0.0001333333333333333
433 0.0004999999999996585 0.0003750000000000078 0.0001
434 0.0003750000000000077 0.0005000000000002867 0.0001
435 0.000374999999999778 0.0003750000000002376 0.0001333333333333333
436 0.0003749999999997779 0.0003750000000002376 9.999999999999998e-05
437 0.0004999999999999726 0.0004999999999999726 0.0001666666666666667
438 0.0004999999999996585 0.0003750000000000078 0.0001666666666666667
439 0.0003750000000000077 0.0005000000000002867 0.0001666666666666667
440 0.0003749999999997779 0.0003750000000002376 0.0001666666666666667
441 0.0005000000000006005 0.0007499999999998698 3.333333333333333e-05
442 0.0005000000000002866 0.0006249999999999212 6.666666666666667e-05
443 0.0003750000000004672 0.0007500000000000003 6.666666666666667e-05
444 0.0005000000000002866 0.0006249999999999212 3.333333333333333e-05
445 0.0003750000000004672 0.0007500000000000003 3.333333333333333e-05
446 0.0003750000000002375 0.0006250000000001435 6.666666666666667e-05
447 0.0003750000000002374 0.0006250000000001435 3.333333333333333e-05
448 0.0005000000000006005 0.0007499999999998698 0.0001
449 0.0005000000000002866 0.0006249999999999212 0.0001333333333333333
450 0.0003750000000004672 0.0007500000000000003 0.0001333333333333333
451 0.0005000000000002866 0.0006249999999999212 0.0001
452 0.0003750000000004672 0.0007500000000000003 0.0001
453 0.0003750000000002375 0.0006250000000001435 0.0001333333333333333
454 0.0003750000000002374 0.0006250000000001435 9.999999999999998e-05
455 0.0005000000000006005 0.0007499999999998698 0.0001666666666666667
456 0.0005000000000002866 0.0006249999999999212 0.0001666666666666667
457 0.0003750000000004672 0.0007500000000000003 0.0001666666666666667
458 0.0003750000000002374 0.0006250000000001435 0.0001666666666666667
459 0.0005000000000009146 0.0008749999999999349 6.666666666666667e-05
460 0.0005000000000009146 0.0008749999999999349 3.333333333333333e-05
461 0.000375000000000697 0.0008750000000000001 6.666666666666667e-05
462 0.000375000000000713 0.000875 3.333333333333334e-05
463 0.0005000000000009146 0.0008749999999999349 0.0001333333333333333
464 0.0005000000000009146 0.0008749999999999349 0.0001
465 0.000375000000000697 0.0008750000000000001 0.0001333333333333333
466 0.0003750000000006971 0.000875 9.999999999999998e-05
467 0.0005000000000009146 0.0008749999999999349 0.0001666666666666667
468 0.0003750000000007129 0.000875 0.0001666666666666667
469 0.0007499999999996087 0.0002499999999997519 3.333333333333333e-05
470 0.0007499999999994783 0.000124999999999876 6.666666666666667e-05
471 0.0006249999999994767 0.0002499999999998974 6.666666666666667e-05
472 0.0007499999999994783 0.000124999999999876 3.333333333333333e-05
473 0.0006249999999994767 0.0002499999999998974 3.333333333333333e-05
474 0.0006249999999992544 0.0001249999999999487 6.666666666666667e-05
475 0.0006249999999992635 0.0001249999999999487 3.333333333333333e-05
476 0.0007499999999996087 0.0002499999999997519 0.0001
477 0.0007499999999994783 0.000124999999999876 0.0001333333333333333
478 0.0006249999999994767 0.0002499999999998974 0.0001333333333333333
479 0.0007499999999994783 0.000124999999999876 0.0001
480 0.0006249999999994767 0.0002499999999998974 0.0001
481 0.0006249999999992544 0.0001249999999999487 0.0001333333333333333
482 0.0006249999999992544 0.0001249999999999487 9.999999999999998e-05
483 0.0007499999999996087 0.0002499999999997519 0.0001666666666666667
484 0.0007499999999994783 0.000124999999999876 0.0001666666666666667
485 0.0006249999999994767 0.0002499999999998974 0.0001666666666666667
486 0.0006249999999992633 0.0001249999999999487 0.0001666666666666667
487 0.0007499999999998698 0.0004999999999993444 3.333333333333333e-05
488 0.0007499999999997393 0.0003749999999995482 6.666666666666667e-05
489 0.0006249999999999212 0.0004999999999996585 6.666666666666667e-05
490 0.0007499999999997393 0.0003749999999995482 3.333333333333333e-05
491 0.0006249999999999212 0.0004999999999996585 3.333333333333333e-05
492 0.0006249999999996989 0.000374999999999778 6.666666666666667e-05
493 0.0006249999999996989 0.0003749999999997779 3.333333333333333e-05
494 0.0007499999999998698 0.0004999999999993444 0.0001
495 0.0007499999999997393 0.0003749999999995482 0.0001333333333333333
496 0.0006249999999999212 0.0004999999999996585 0.0001333333333333333
497 0.0007499999999997393 0.0003749999999995482 0.0001
498 0.0006249999999999212 0.0004999999999996585 0.0001
499 0.0006249999999996989 0.000374999999999778 0.0001333333333333333
500 0.0006249999999996989 0.0003749999999997779 9.999999999999998e-05
501 0.0007499999999998698 0.0004999999999993444 0.0001666666666666667
502 0.0007499999999997393 0.0003749999999995482 0.0001666666666666667
503 0.0006249999999999212 0.0004999999999996585 0.0001666666666666667
504 0.0006249999999996989 0.0003749999999997779 0.0001666666666666667
505 0.0007500000000001307 0.0007499999999996089 3.333333333333333e-05
506 0.0007500000000000002 0.0006249999999994767 6.666666666666667e-05
507 0.0006250000000003656 0.0007499999999997394 6.666666666666667e-05
508 0.0007500000000000002 0.0006249999999994767 3.333333333333333e-05
509 0.0006250000000003656 0.0007499999999997394 3.333333333333333e-05
510 0.0006250000000001433 0.0006249999999996989 6.666666666666667e-05
511 0.0006250000000001432 0.0006249999999996987 3.333333333333333e-05
512 0.0007500000000001307 0.0007499999999996089 0.0001
513 0.0007500000000000002 0.0006249999999994767 0.0001333333333333333
514 0.0006250000000003656 0.0007499999999997394 0.0001333333333333333
515 0.0007500000000000002 0.0006249999999994767 0.0001
516 0.0006250000000003656 0.0007499999999997394 0.0001
517 0.0006250000000001433 0.0006249999999996989 0.0001333333333333333
518 0.0006250000000001432 0.0006249999999996987 9.999999999999998e-05
519 0.0007500000000001307 0.0007499999999996089 0.0001666666666666667
520 0.0007500000000000002 0.0006249999999994767 0.0001666666666666667
521 0.0006250000000003656 0.0007499999999997394 0.0001666666666666667
522 0.0006250000000001432 0.0006249999999996987 0.0001666666666666667
523 0.0007500000000002613 0.0008749999999998045 6.666666666666667e-05
524 0.0007500000000002613 0.0008749999999998045 3.333333333333333e-05
525 0.000625000000000588 0.0008749999999998697 6.666666666666667e-05
526 0.0006250000000005821 0.0008749999999998698 3.333333333333334e-05
527 0.0007500000000002613 0.0008749999999998045 0.0001333333333333333
528 0.0007500000000002613 0.0008749999999998045 0.0001
529 0.000625000000000588 0.0008749999999998697 0.0001333333333333333
530 0.0006250000000005879 0.0008749999999998698 9.999999999999998e-05
531 0.0007500000000002613 0.0008749999999998045 0.0001666666666666667
532 0.0006250000000005821 0.0008749999999998698 0.0001666666666666667
533 0.0008749999999998043 0.0002499999999996064 6.666666666666667e-05
534 0.0008749999999998043 0.0002499999999996064 3.333333333333333e-05
535 0.0008749999999997392 0.0001249999999998032 6.666666666666667e-05
536 0.0008749999999997273 0.0001249999999998169 3.333333333333759e-05
537 0.0008749999999998043 0.0002499999999996064 0.0001333333333333333
538 0.0008749999999998043 0.0002499999999996064 0.0001
539 0.0008749999999997392 0.0001249999999998032 0.0001333333333333333
540 0.0008749999999997393 0.0001249999999998032 9.999999999997389e-05
541 0.0008749999999998043 0.0002499999999996064 0.0001666666666666667
542 0.0008749999999997269 0.0001249999999998169 0.0001666666666666667
543 0.0008749999999999349 0.0004999999999990305 6.666666666666667e-05
544 0.0008749999999999349 0.0004999999999990305 3.333333333333333e-05
545 0.0008749999999998696 0.0003749999999993185 6.666666666666667e-05
546 0.0008749999999998697 0.0003749999999993186 3.333333333333334e-05
547 0.0008749999999999349 0.0004999999999990305 0.0001333333333333333
548 0.0008749999999999349 0.0004999999999990305 0.0001
549 0.0008749999999998696 0.0003749999999993185 0.0001333333333333333
550 0.0008749999999998697 0.0003749999999993185 9.999999999999998e-05
551 0.0008749999999999349 0.0004999999999990305 0.0001666666666666667
552 0.0008749999999998697 0.0003749999999993186 0.0001666666666666667
553 0.0008750000000000654 0.0007499999999994783 6.666666666666667e-05
554 0.0008750000000000654 0.0007499999999994783 3.333333333333333e-05
555 0.0008750000000000001 0.0006249999999992544 6.666666666666667e-05
556 0.000875 0.0006249999999992633 3.333333333333334e-05
557 0.0008750000000000654 0.0007499999999994783 0.0001333333333333333
558 0.0008750000000000654 0.0007499999999994783 0.0001
559 0.0008750000000000001 0.0006249999999992544 0.0001333333333333333
560 0.000875 0.0006249999999992544 9.999999999999998e-05
561 0.0008750000000000654 0.0007499999999994783 0.0001666666666666667
562 0.000875 0.0006249999999992633 0.0001666666666666667
563 0.0008750000000001307 0.0008749999999997392 6.666666666666667e-05
564 0.0008750000000000901 0.0008749999999997271 3.333333333333759e-05
565 0.0008750000000001307 0.0008749999999997392 0.0001333333333333333
566 0.0008750000000001308 0.0008749999999997393 9.999999999997386e-05
567 0.0008750000000000902 0.0008749999999997272 0.0001666666666666667
$EndNodes
$Elements
80
1 10 2 10 1 1 9 85 32 12 94 95 36 96
2 10 2 10 1 32 85 86 31 95 97 98 35 99
3 10 2 10 1 31 86 87 30 98 100 101 34 102
4 10 2 10 1 30 87 25 4 101 103 29 33 104
5 10 2 10 1 9 10 88 85 13 105 106 94 107
6 10 2 10 1 85 88 89 86 106 108 109 97 110
7 10 2 10 1 86 89 90 87 109 111 112 100 113
8 10 2 10 1 87 90 24 25 112 114 28 103 115
9 10 2 10 1 10 11 91 88 14 116 117 105 118
10 10 2 10 1 88 91 92 89 117 119 120 108 121
11 10 2 10 1 89 92 93 90 120 122 123 111 124
12 10 2 10 1 90 93 23 24 123 125 27 114 126
13 10 2 10 1 11 2 16 91 15 19 127 116 128
14 10 2 10 1 91 16 17 92 127 20 129 119 130
15 10 2 10 1 92 17 18 93 129 21 131 122 132
16 10 2 10 1 93 18 3 23 131 22 26 125 133
17 10 2 11 26 5 37 274 60 40 283 284 64 285
18 10 2 11 26 60 274 275 59 284 286 287 63 288
19 10 2 11 26 59 275 276 58 287 289 290 62 291
20 10 2 11 26 58 276 53 8 290 292 57 61 293
21 10 2 11 26 37 38 277 274 41 294 295 283 296
22 10 2 11 26 274 277 278 275 295 297 298 286 299
23 10 2 11 26 275 278 279 276 298 300 301 289 302
24 10 2 11 26 276 279 52 53 301 303 56 292 304
25 10 2 11 26 38 39 280 277 42 305 306 294 307
26 10 2 11 26 277 280 281 278 306 308 309 297 310
27 10 2 11 26 278 281 282 279 309 311 312 300 313
28 10 2 11 26 279 282 51 52 312 314 55 303 315
29 10 2 11 26 39 6 44 280 43 47 316 305 317
30 10 2 11 26 280 44 45 281 316 48 318 308 319
31 10 2 11 26 281 45 46 282 318 49 320 311 321
32 10 2 11 26 282 46 7 51 320 50 54 314 322
33 12 2 1 1 1 9 85 32 65 134 323 243 12 36 67 94 140 95 341 261 141 269 342 343 96 142 270 344 345 346 347
34 12 2 1 1 65 134 323 243 66 135 324 244 141 269 68 342 143 343 348 264 144 271 349 350 346 145 272 351 352 353 354
35 12 2 1 1 66 135 324 244 5 37 274 60 144 271 69 349 146 350 355 267 40 64 283 284 353 147 273 356 357 285 358
36 12 2 1 1 32 85 86 31 243 323 325 241 95 35 261 97 341 98 359 253 343 262 360 361 99 345 263 362 363 364 365
37 12 2 1 1 243 323 325 241 244 324 326 242 343 262 264 360 348 361 366 256 350 265 367 368 364 352 266 369 370 371 372
38 12 2 1 1 244 324 326 242 60 274 275 59 350 265 267 367 355 368 373 259 284 63 286 287 371 357 268 374 375 288 376
39 12 2 1 1 31 86 87 30 241 325 327 239 98 34 253 100 359 101 377 245 361 254 378 379 102 363 255 380 381 382 383
40 12 2 1 1 241 325 327 239 242 326 328 240 361 254 256 378 366 379 384 248 368 257 385 386 382 370 258 387 388 389 390
41 12 2 1 1 242 326 328 240 59 275 276 58 368 257 259 385 373 386 391 251 287 62 289 290 389 375 260 392 393 291 394
42 12 2 1 1 30 87 25 4 239 327 208 80 101 33 245 103 377 29 226 82 379 246 395 234 104 381 247 396 235 397 398
43 12 2 1 1 239 327 208 80 240 328 209 81 379 246 248 395 384 234 229 83 386 249 399 236 397 388 250 400 237 401 402
44 12 2 1 1 240 328 209 81 58 276 53 8 386 249 251 399 391 236 232 84 290 61 292 57 401 393 252 403 238 293 404
45 12 2 1 1 9 10 88 85 134 136 329 323 13 94 140 105 148 106 405 341 149 342 406 407 107 150 344 408 409 410 411
46 12 2 1 1 134 136 329 323 135 137 330 324 149 342 143 406 151 407 412 348 152 349 413 414 410 153 351 415 416 417 418
47 12 2 1 1 135 137 330 324 37 38 277 274 152 349 146 413 154 414 419 355 41 283 294 295 417 155 356 420 421 296 422
48 12 2 1 1 85 88 89 86 323 329 331 325 106 97 341 108 405 109 423 359 407 360 424 425 110 409 362 426 427 428 429
49 12 2 1 1 323 329 331 325 324 330 332 326 407 360 348 424 412 425 430 366 414 367 431 432 428 416 369 433 434 435 436
50 12 2 1 1 324 330 332 326 274 277 278 275 414 367 355 431 419 432 437 373 295 286 297 298 435 421 374 438 439 299 440
51 12 2 1 1 86 89 90 87 325 331 333 327 109 100 359 111 423 112 441 377 425 378 442 443 113 427 380 444 445 446 447
52 12 2 1 1 325 331 333 327 326 332 334 328 425 378 366 442 430 443 448 384 432 385 449 450 446 434 387 451 452 453 454
53 12 2 1 1 326 332 334 328 275 278 279 276 432 385 373 449 437 450 455 391 298 289 300 301 453 439 392 456 457 302 458
54 12 2 1 1 87 90 24 25 327 333 206 208 112 103 377 114 441 28 218 226 443 395 459 227 115 445 396 460 228 461 462
55 12 2 1 1 327 333 206 208 328 334 207 209 443 395 384 459 448 227 221 229 450 399 463 230 461 452 400 464 231 465 466
56 12 2 1 1 328 334 207 209 276 279 52 53 450 399 391 463 455 230 224 232 301 292 303 56 465 457 403 467 233 304 468
57 12 2 1 1 10 11 91 88 136 138 335 329 14 105 148 116 156 117 469 405 157 406 470 471 118 158 408 472 473 474 475
58 12 2 1 1 136 138 335 329 137 139 336 330 157 406 151 470 159 471 476 412 160 413 477 478 474 161 415 479 480 481 482
59 12 2 1 1 137 139 336 330 38 39 280 277 160 413 154 477 162 478 483 419 42 294 305 306 481 163 420 484 485 307 486
60 12 2 1 1 88 91 92 89 329 335 337 331 117 108 405 119 469 120 487 423 471 424 488 489 121 473 426 490 491 492 493
61 12 2 1 1 329 335 337 331 330 336 338 332 471 424 412 488 476 489 494 430 478 431 495 496 492 480 433 497 498 499 500
62 12 2 1 1 330 336 338 332 277 280 281 278 478 431 419 495 483 496 501 437 306 297 308 309 499 485 438 502 503 310 504
63 12 2 1 1 89 92 93 90 331 337 339 333 120 111 423 122 487 123 505 441 489 442 506 507 124 491 444 508 509 510 511
64 12 2 1 1 331 337 339 333 332 338 340 334 489 442 430 506 494 507 512 448 496 449 513 514 510 498 451 515 516 517 518
65 12 2 1 1 332 338 340 334 278 281 282 279 496 449 437 513 501 514 519 455 309 300 311 312 517 503 456 520 521 313 522
66 12 2 1 1 90 93 23 24 333 339 204 206 123 114 441 125 505 27 210 218 507 459 523 219 126 509 460 524 220 525 526
67 12 2 1 1 333 339 204 206 334 340 205 207 507 459 448 523 512 219 213 221 514 463 527 222 525 516 464 528 223 529 530
68 12 2 1 1 334 340 205 207 279 282 51 52 514 463 455 527 519 222 216 224 312 303 314 55 529 521 467 531 225 315 532
69 12 2 1 1 11 2 16 91 138 70 169 335 15 116 156 19 72 127 175 469 164 470 176 533 128 165 472 177 534 535 536
70 12 2 1 1 138 70 169 335 139 71 170 336 164 470 159 176 73 533 178 476 166 477 179 537 535 167 479 180 538 539 540
71 12 2 1 1 139 71 170 336 39 6 44 280 166 477 162 179 74 537 181 483 43 305 47 316 539 168 484 182 541 317 542
72 12 2 1 1 91 16 17 92 335 169 171 337 127 119 469 20 175 129 183 487 533 488 184 543 130 534 490 185 544 545 546
73 12 2 1 1 335 169 171 337 336 170 172 338 533 488 476 184 178 543 186 494 537 495 187 547 545 538 497 188 548 549 550
74 12 2 1 1 336 170 172 338 280 44 45 281 537 495 483 187 181 547 189 501 316 308 48 318 549 541 502 190 551 319 552
75 12 2 1 1 92 17 18 93 337 171 173 339 129 122 487 21 183 131 191 505 543 506 192 553 132 544 508 193 554 555 556
76 12 2 1 1 337 171 173 339 338 172 174 340 543 506 494 192 186 553 194 512 547 513 195 557 555 548 515 196 558 559 560
77 12 2 1 1 338 172 174 340 281 45 46 282 547 513 501 195 189 557 197 519 318 311 49 320 559 551 520 198 561 321 562
78 12 2 1 1 93 18 3 23 339 173 75 204 131 125 505 22 191 26 77 210 553 523 199 211 133 554 524 200 212 563 564
79 12 2 1 1 339 173 75 204 340 174 76 205 553 523 512 199 194 211 78 213 557 527 201 214 563 558 528 202 215 565 566
80 12 2 1 1 340 174 76 205 282 46 7 51 557 527 519 201 197 214 79 216 320 314 50 54 565 561 531 203 217 322 567
$EndElements
