$MeshFormat
2.2 0 8
$EndMeshFormat
$Nodes
343
1 0 0 0
2 0.0003821797778344254 0 0
3 0.0003365451141429219 0.0003742706937544757 0
4 0 0 7.400241118798732e-05
5 0.0003754551330418549 0 7.565423165064327e-05
6 0.0003593490353143164 0.0003460969064952648 5.812589833309295e-05
7 0.0001910898889172127 0 0
8 0.000168272557071461 0.0001871353468772379 0
9 0 0 3.700120559399366e-05
10 0.0003593624459886737 0.0001871353468772379 0
11 0.0003788174554381402 0 3.782711582532163e-05
12 0.0003479470747286192 0.0003601838001248703 2.906294916654647e-05
13 0.0001877275665209274 0 7.48283214193153e-05
14 0.0001796745176571582 0.0001730484532476324 6.606415476054014e-05
15 0.0003674020841780856 0.0001730484532476324 6.689006499186811e-05
16 0.0001894087277190701 0 3.741416070965765e-05
17 0.0001739735373643096 0.0001800919000624351 3.303207738027007e-05
18 0.0003633822650833796 0.0001800919000624351 3.344503249593405e-05
19 0 0.0003464167006507427 0
20 0 0.0002896942030408049 6.270065984471398e-05
21 0 0.0001732083503253713 0
22 0.000168272557071461 0.0003603436972026092 0
23 0 0.0003180554518457738 3.135032992235699e-05
24 0 0.0001448471015204024 6.835153551635065e-05
25 0.0001796745176571582 0.0003178955547680348 6.041327908890346e-05
26 0 0.0001590277259228869 3.417576775817532e-05
27 0.0001739735373643096 0.000339119625985322 3.020663954445173e-05
28 0 0 0.0001281564642286862
29 0.0003521278144970776 0 0.0001255084513118215
30 0.0003779019022857865 0.0003826988761924163 0.0001319919794393426
31 0 0 0.0001010794377083367
32 0.0003637914737694662 0 0.0001005813414812324
33 0.0003686254688000514 0.0003643978913438406 9.505893888621779e-05
34 0.0001760639072485388 0 0.0001268324577702538
35 0.0001889509511428932 0.0001913494380962082 0.0001300742218340144
36 0.000365014858391432 0.0001913494380962082 0.0001287502153755821
37 0.0001818957368847331 0 0.0001008303895947846
38 0.0001843127344000257 0.0001821989456719203 9.806918829727726e-05
39 0.0003662084712847589 0.0001821989456719203 9.782014018372507e-05
40 0 0.0003489204705062866 0.0001369054725264892
41 0 0.0003193073367735457 9.98030661856016e-05
42 0 0.0001744602352531433 0.0001325309683775877
43 0.0001889509511428932 0.0003658096733493515 0.0001344487259829159
44 0 0.0001596536683867728 0.0001004412519469692
45 0.0001843127344000257 0.0003418526140586931 9.74310025359097e-05
46 0 0 0.0002
47 0.0003257573516172788 0 0.0002
48 0.0003371451313399753 0.0003497360260475161 0.0002
49 0 0 0.0001640782321143431
50 0.0003389425830571782 0 0.0001627542256559108
51 0.0003575235168128809 0.0003662174511199662 0.0001659959897196713
52 0.0001628786758086394 0 0.0002
53 0.0001685725656699876 0.0001748680130237581 0.0002
54 0.000331451241478627 0.0001748680130237581 0.0002
55 0.0001694712915285891 0 0.0001634162288851269
56 0.0001787617584064405 0.0001831087255599831 0.0001650371109170072
57 0.0003482330499350295 0.0001831087255599831 0.000164375107687791
58 0 0.0003542613123169346 0.0002
59 0 0.0003515908914116106 0.0001684527362632446
60 0 0.0001771306561584673 0.0002
61 0.0001685725656699876 0.0003519986691822253 0.0002
62 0 0.0001757954457058053 0.0001662654841887938
63 0.0001787617584064405 0.0003589041712657884 0.000167224362991458
64 0.000299645637863968 0.0006877891601687491 0
65 0.0003423014599370946 0.0006228028961399187 6.811984978380332e-05
66 0.000149822818931984 0.0005171029304097459 0
67 0.000318095376003445 0.0005310299269616124 0
68 0.0003209735489005313 0.0006552960281543339 3.405992489190166e-05
69 0.0001711507299685473 0.0004562485495903617 6.541025481425865e-05
70 0.0003508252476257055 0.0004844499013175917 6.312287405844813e-05
71 0.0001604867744502657 0.0004866757400000539 3.270512740712933e-05
72 0.0003344603118145753 0.0005077399141396021 3.156143702922407e-05
73 0 0.0007011827478696831 0
74 0 0.0006947283674863772 6.034390564824868e-05
75 0 0.0005237997242602129 0
76 0.000149822818931984 0.0006944859540192162 0
77 0 0.0006979555576780302 3.017195282412434e-05
78 0 0.0004922112852635911 6.152228274648132e-05
79 0.0001711507299685473 0.000658765631813148 6.4231877716026e-05
80 0 0.0005080055047619019 3.076114137324066e-05
81 0.0001604867744502657 0.0006766257929161821 3.2115938858013e-05
82 0.000351282194901308 0.0007068148213670934 0.0001283390184042999
83 0.0003467918274192013 0.000664808858753506 9.822943409405158e-05
84 0.000175641097450654 0.00052786764593669 0.0001326222454653945
85 0.0003645920485935472 0.0005447568487797549 0.0001301654989218212
86 0.0001733959137096006 0.0004920580977635259 9.901625013982661e-05
87 0.0003577086481096264 0.0005146033750486733 9.66441864901347e-05
88 0 0.0006310231302200234 0.000140648692089649
89 0 0.0006628757488532003 0.0001004962988689489
90 0 0.0004899718003631549 0.0001387770823080691
91 0.000175641097450654 0.0006689189757935585 0.0001344938552469744
92 0 0.0004910915428133729 0.0001001496825272752
93 0.0001733959137096006 0.0006638423038033531 9.936286648150021e-05
94 0.0002907094290387021 0.0006304824613436959 0.0002
95 0.000320995811970005 0.0006686486413553947 0.0001641695092021499
96 0.000145354714519351 0.0004923718868303153 0.0002
97 0.0003139272801893387 0.000490109243695606 0.0002
98 0.0001604979059850025 0.0005101197663835026 0.0001663111227326973
99 0.000339259664391443 0.0005174330462376804 0.0001650827494609106
100 0 0.0006739330773842085 0.0002
101 0 0.0006524781038021159 0.0001703243460448245
102 0 0.0005140971948505715 0.0002
103 0.000145354714519351 0.0006522077693639522 0.0002
104 0 0.0005020344976068632 0.0001693885411540346
105 0.0001604979059850025 0.0006605633725787553 0.0001672469276234872
106 0.0003327326951513434 0.001 0
107 0.0003238596375611857 0.001 7.224910158763615e-05
108 0.0001663663475756717 0.0008505913739348416 0
109 0.0003161891665076557 0.0008438945800843746 0
110 0.0003282961663562645 0.001 3.612455079381807e-05
111 0.0001619298187805928 0.0008473641837431886 6.629650361794241e-05
112 0.0003330805487491401 0.0008114014480699594 7.018447568571973e-05
113 0.0001641480831781323 0.0008489777788390151 3.314825180897121e-05
114 0.0003246348576283979 0.000827648014077167 3.509223784285986e-05
115 0 0.001 0
116 0 0.001 6.83369160110456e-05
117 0 0.0008505913739348416 0
118 0.0001663663475756717 0.001 0
119 0 0.001 3.41684580055228e-05
120 0 0.0008473641837431886 6.434041082964714e-05
121 0.0001619298187805928 0.001 7.029300879934087e-05
122 0 0.0008489777788390151 3.217020541482357e-05
123 0.0001641480831781323 0.001 3.514650439967043e-05
124 0.0003219649211261432 0.001 0.0001342867957181051
125 0.0003229122793436645 0.001 0.0001032679486528706
126 0.0001609824605630716 0.0008155115651100117 0.0001374677439038771
127 0.0003366235580137256 0.0008534074106835467 0.0001313129070612025
128 0.0001614561396718322 0.0008314378744266001 0.0001018821237609097
129 0.0003348520533814329 0.000832404429376753 0.0001007486913734611
130 0 0.001 0.0001410319091637915
131 0 0.001 0.0001046844125874185
132 0 0.0008155115651100117 0.0001408403006267203
133 0.0001609824605630716 0.001 0.0001376593524409483
134 0 0.0008314378744266001 0.0001025903557281837
135 0.0001614561396718322 0.001 0.0001039761806201446
136 0.0003673187167851997 0.001 0.0002
137 0.0003446418189556715 0.001 0.0001671433978590526
138 0.0001836593583925999 0.0008369665386921042 0.0002
139 0.0003290140729119509 0.0008152412306718479 0.0002
140 0.0001723209094778357 0.000826239051901058 0.0001687338719519386
141 0.0003328188154628382 0.0008343243206776973 0.0001656564535306013
142 0 0.001 0.0002
143 0 0.001 0.0001705159545818957
144 0 0.0008369665386921042 0.0002
145 0.0001836593583925999 0.001 0.0002
146 0 0.000826239051901058 0.0001704201503133601
147 0.0001723209094778357 0.001 0.0001688296762204742
148 0.0006942894129847499 0 0
149 0.0006178262498754978 0.0002904601191159658 0
150 0.0007161224835215692 0 7.509241362694311e-05
151 0.0006646568555668073 0.0003545889174929966 6.737873636595121e-05
152 0.0005382345954095876 0 0
153 0.0005000030138549616 0.0001452300595579829 0
154 0.0006560578314301238 0.0001452300595579829 0
155 0.0007052059482531596 0 3.754620681347156e-05
156 0.0006412415527211526 0.0003225245183044812 3.368936818297561e-05
157 0.000545788808281712 0 7.537332263879319e-05
158 0.0005200559943043311 0.0001772944587464983 7.151648400829724e-05
159 0.0006903896695441882 0.0001772944587464983 7.123557499644716e-05
160 0.0005420117018456499 0 3.768666131939659e-05
161 0.0005100295040796464 0.0001612622591522406 3.575824200414862e-05
162 0.0006732237504871561 0.0001612622591522406 3.561778749822358e-05
163 0.0004771856820092099 0.0003323654064352208 0
164 0.0005120029454405619 0.0003503429119941307 6.275231734952208e-05
165 0.0004945943137248858 0.0003413541592146757 3.137615867476104e-05
166 0.0006242860755647686 0 0.0001292205404954222
167 0.0006222237308219114 0.0002908771405528046 0.0001304999929382738
168 0.0006702042795431689 0 0.0001021564770611827
169 0.0006434402931943593 0.0003227330290229006 9.89393646521125e-05
170 0.0004882069450309231 0 0.0001273644959036219
171 0.0004871757726594945 0.0001454385702764023 0.0001280042221250476
172 0.0006232549031933399 0.0001454385702764023 0.000129860266716848
173 0.0005169978766563176 0 0.0001013689092712075
174 0.0005036158834819129 0.0001613665145114503 9.976035306667244e-05
175 0.0006568222863687641 0.0001613665145114503 0.0001005479208566476
176 0.000500062816553849 0.0003367880083726104 0.0001312459861888082
177 0.0005060328809972054 0.0003435654601833706 9.699915176916514e-05
178 0.0006582928375334753 0 0.0002
179 0.0006540555289176289 0.0003728491012193543 0.0002
180 0.0006412894565491219 0 0.0001646102702477111
181 0.0006381396298697702 0.0003318631208860794 0.0001652499964691369
182 0.000492025094575377 0 0.0002
183 0.0004899064402674538 0.0001864245506096771 0.0002
184 0.0006561741832255522 0.0001864245506096771 0.0002
185 0.0004901160198031501 0 0.0001636822479518109
186 0.0004885411064634742 0.0001659315604430397 0.0001640021110625238
187 0.0006397145432094461 0.0001659315604430397 0.000164930133358424
188 0.0004956003301288021 0.0003612925636334352 0.0002
189 0.0004978315733413256 0.0003490402860030228 0.0001656229930944041
190 0.000686432617380039 0.0007070995217750283 0
191 0.0006831324990725395 0.0006276458713446601 7.511122382701632e-05
192 0.0005114888657614805 0.000540685107764752 0
193 0.0006521294336277684 0.0004987798204454971 0
194 0.0006847825582262893 0.0006673726965598442 3.755561191350816e-05
195 0.000521240767193428 0.0004868713889199625 6.661856108005463e-05
196 0.0006738946773196734 0.0004911173944188283 7.124498009648377e-05
197 0.0005163648164774543 0.0005137782483423572 3.330928054002731e-05
198 0.0006630120554737208 0.0004949486074321627 3.562249004824189e-05
199 0.0004930391276220035 0.0006974443409718887 0
200 0.0005127169795048171 0.0006252243837422894 7.161553680540983e-05
201 0.0005028780535634102 0.0006613343623570891 3.580776840270491e-05
202 0.000640509419049064 0.0006271306440162222 0.0001408214130338062
203 0.0006618209590608017 0.0006273882576804412 0.0001079663184304112
204 0.0005092056606674253 0.0005049147601043193 0.0001364066962365744
205 0.0006313665749354877 0.0004590038922845134 0.00013566070298604
206 0.0005152232139304266 0.0004958930745121409 0.0001015126286583145
207 0.0006526306261275806 0.0004750606433516709 0.0001034528415412619
208 0.000495895806975186 0.0006669727326916578 0.000134580215719053
209 0.0005043063932400016 0.0006460985582169736 0.0001030978762622314
210 0.0006818972464742887 0.0006716840420160391 0.0002
211 0.0006612033327616764 0.0006494073430161306 0.0001704107065169031
212 0.000509521188907132 0.0005107100340317776 0.0002
213 0.0006679763876959588 0.0005222665716176967 0.0002
214 0.0005093634247872787 0.0005078123970680484 0.0001682033481182872
215 0.0006496714813157233 0.000490635231951105 0.00016783035149302
216 0.0004863033377564954 0.0006510832516798675 0.0002
217 0.0004910995723658408 0.0006590279921857627 0.0001672901078595265
218 0.0006686520471136869 0.001 0
219 0.0006251527002366371 0.001 6.38823804142228e-05
220 0.0004841488424888275 0.0008438945800843746 0
221 0.000677542332246863 0.0008535497608875141 0
222 0.000646902373675162 0.001 3.19411902071114e-05
223 0.0004837270800868658 0.0008114014480699594 6.600111509901305e-05
224 0.0006541425996545883 0.0008138229356723301 6.949680212061956e-05
225 0.0004839379612878467 0.000827648014077167 3.300055754950653e-05
226 0.0006658424659507257 0.0008336863482799221 3.474840106030978e-05
227 0.0005006923711325152 0.001 0
228 0.0004745061688989114 0.001 6.806574100092947e-05
229 0.0004875992700157133 0.001 3.403287050046474e-05
230 0.0006497226349216472 0.001 0.0001352134564287947
231 0.0006374376675791422 0.001 9.954791842150873e-05
232 0.0005005024149114776 0.0008534074106835467 0.0001317762374165473
233 0.0006451160269853556 0.0008135653220081112 0.0001380174347313004
234 0.0004921147474991717 0.000832404429376753 9.888867625778015e-05
235 0.0006496293133199719 0.0008136941288402206 0.00010375711842596
236 0.0004858437780238952 0.001 0.0001347501260734499
237 0.0004801749734614033 0.001 0.0001014079335371897
238 0.0006421553967099499 0.001 0.0002
239 0.0006459390158157985 0.001 0.0001676067282143973
240 0.000466432412874326 0.0008152412306718479 0.0002
241 0.0006620263215921193 0.0008358420210080196 0.0002
242 0.0004834674138929017 0.0008343243206776973 0.0001658881187082736
243 0.0006535711742887374 0.0008247036715080653 0.0001690087173656502
244 0.0005047370567475748 0.001 0.0002
245 0.000495290417385735 0.001 0.0001673750630367249
246 0.001 0 0
247 0.001 0.0003026230401602476 0
248 0.001 0 6.819420941709233e-05
249 0.001 0.0003685477937982052 7.117860799852504e-05
250 0.000847144706492375 0 0
251 0.000847144706492375 0.0001513115200801238 0
252 0.001 0.0001513115200801238 0
253 0.001 0 3.409710470854616e-05
254 0.001 0.0003355854169792264 3.558930399926252e-05
255 0.0008580612417607846 0 7.164331152201771e-05
256 0.0008580612417607846 0.0001842738968991026 7.313551081273407e-05
257 0.001 0.0001842738968991026 6.968640870780868e-05
258 0.0008526029741265798 0 3.582165576100886e-05
259 0.0008526029741265798 0.0001677927084896132 3.656775540636703e-05
260 0.001 0.0001677927084896132 3.484320435390434e-05
261 0.0008089131249377489 0.0002965415796381067 0
262 0.0008323284277834037 0.0003615683556456009 6.927867218223813e-05
263 0.0008206207763605763 0.0003290549676418538 3.463933609111907e-05
264 0.001 0 0.0001326730173070466
265 0.001 0.0003346489399030603 0.0001301153525487653
266 0.001 0 0.0001004336133620694
267 0.001 0.0003515983668506327 0.0001006469802736451
268 0.0008121430377823843 0 0.0001309467789012344
269 0.0008121430377823843 0.0001673244699515302 0.0001296679465220938
270 0.001 0.0001673244699515302 0.0001313941849279059
271 0.0008351021397715844 0 0.0001012950452116261
272 0.0008351021397715844 0.0001757991834253164 0.0001014017286674139
273 0.001 0.0001757991834253164 0.0001005402968178573
274 0.0008111118654109558 0.0003127630402279324 0.0001303076727435195
275 0.0008217201465971797 0.0003371656979367667 9.979317246287882e-05
276 0.001 0 0.0002
277 0.001 0.0003280239400600617 0.0002
278 0.001 0 0.0001663365086535233
279 0.001 0.0003313364399815611 0.0001650576762743826
280 0.0008291464187667377 0 0.0002
281 0.0008291464187667377 0.0001640119700300309 0.0002
282 0.001 0.0001640119700300309 0.0002
283 0.000820644728274561 0 0.0001654733894506172
284 0.000820644728274561 0.0001656682199907805 0.0001648339732610469
285 0.001 0.0001656682199907805 0.0001656970924639529
286 0.0008270277644588145 0.000350436520639708 0.0002
287 0.0008190698149348852 0.0003315997804338202 0.0001651538363717597
288 0.001 0.0007001694082365709 0
289 0.001 0.0006171938785679289 6.856770331541166e-05
290 0.0008089131249377489 0.0004953147636762683 0
291 0.001 0.0005013962241984093 0
292 0.001 0.0006586816434022499 3.428385165770583e-05
293 0.0008323284277834037 0.0004858913980304628 6.797321984068143e-05
294 0.001 0.0004928708361830671 6.987315565696835e-05
295 0.0008206207763605763 0.0004906030808533655 3.398660992034072e-05
296 0.001 0.0004971335301907382 3.493657782848418e-05
297 0.0008432163086900194 0.0007036344650057996 0
298 0.0008415662495362698 0.0006224198749562945 7.1839463571214e-05
299 0.0008423912791131447 0.0006630271699810471 3.5919731785607e-05
300 0.001 0.000711078118527712 0.0001417104982390354
301 0.001 0.0006641359985478205 0.0001051391007772235
302 0.0008111118654109558 0.0005009776295402584 0.0001361052455886546
303 0.001 0.0005228635292153862 0.0001359129253939003
304 0.0008217201465971797 0.0004934345137853606 0.000102039232714668
305 0.001 0.0005078671826992266 0.0001028930405254343
306 0.0008202547095245321 0.0006691043812719671 0.0001412659556364208
307 0.0008309104795304009 0.0006457621281141309 0.0001065527096038174
308 0.001 0.0006644991960944071 0.0002
309 0.001 0.0006877886573110596 0.0001708552491195177
310 0.0008270277644588145 0.0005186741486568806 0.0002
311 0.001 0.0004962615680772345 0.0002
312 0.0008190698149348852 0.0005098258890985695 0.0001680526227943273
313 0.001 0.0005095625486463103 0.0001679564626969502
314 0.0008409486232371444 0.0006680916190552231 0.0002
315 0.0008306016663808381 0.0006685980001635951 0.0001706329778182104
316 0.001 0.001 0
317 0.001 0.001 5.911479179788128e-05
318 0.0008432163086900194 0.0008535497608875141 0
319 0.001 0.0008500847041182855 0
320 0.001 0.001 2.955739589894064e-05
321 0.0008415662495362698 0.0008138229356723301 6.71130078124488e-05
322 0.001 0.0008085969392839645 6.384124755664646e-05
323 0.0008423912791131447 0.0008336863482799221 3.35565039062244e-05
324 0.001 0.0008293408217011249 3.192062377832323e-05
325 0.0008343260235568435 0.001 0
326 0.0008125763501183186 0.001 6.149858610605204e-05
327 0.000823451186837581 0.001 3.074929305302602e-05
328 0.001 0.001 0.0001242084784349064
329 0.001 0.001 9.166163511639386e-05
330 0.0008202547095245321 0.0008135653220081112 0.0001325149457343563
331 0.001 0.000855539059263856 0.0001329594883369709
332 0.0008309104795304009 0.0008136941288402206 9.981397677340255e-05
333 0.001 0.0008320679992739103 9.84003679468087e-05
334 0.0008248613174608236 0.001 0.0001297109674318506
335 0.0008187188337895711 0.001 9.560477676895129e-05
336 0.001 0.001 0.0002
337 0.001 0.001 0.0001621042392174532
338 0.0008409486232371444 0.0008358420210080196 0.0002
339 0.001 0.0008322495980472035 0.0002
340 0.0008306016663808381 0.0008247036715080653 0.0001662574728671782
341 0.001 0.0008438943286555299 0.0001664797441684855
342 0.0008210776983549749 0.001 0.0002
343 0.0008229695079078993 0.001 0.0001648554837159253
$EndNodes
$Elements
90
1 13 2 1 1 1 2 3 4 5 6 7 8 9 10 11 12 13 14 15 16 17 18
2 13 2 1 1 1 3 19 4 6 20 8 21 9 22 12 23 14 24 25 17 26 27
3 13 2 1 1 4 5 6 28 29 30 13 14 31 15 32 33 34 35 36 37 38 39
4 13 2 1 1 4 6 20 28 30 40 14 24 31 25 33 41 35 42 43 38 44 45
5 13 2 1 1 28 29 30 46 47 48 34 35 49 36 50 51 52 53 54 55 56 57
6 13 2 1 1 28 30 40 46 48 58 35 42 49 43 51 59 53 60 61 56 62 63
7 13 2 1 1 19 3 64 20 6 65 22 66 23 67 12 68 25 69 70 27 71 72
8 13 2 1 1 19 64 73 20 65 74 66 75 23 76 68 77 69 78 79 71 80 81
9 13 2 1 1 20 6 65 40 30 82 25 69 41 70 33 83 43 84 85 45 86 87
10 13 2 1 1 20 65 74 40 82 88 69 78 41 79 83 89 84 90 91 86 92 93
11 13 2 1 1 40 30 82 58 48 94 43 84 59 85 51 95 61 96 97 63 98 99
12 13 2 1 1 40 82 88 58 94 100 84 90 59 91 95 101 96 102 103 98 104 105
13 13 2 1 1 73 64 106 74 65 107 76 108 77 109 68 110 79 111 112 81 113 114
14 13 2 1 1 73 106 115 74 107 116 108 117 77 118 110 119 111 120 121 113 122 123
15 13 2 1 1 74 65 107 88 82 124 79 111 89 112 83 125 91 126 127 93 128 129
16 13 2 1 1 74 107 116 88 124 130 111 120 89 121 125 131 126 132 133 128 134 135
17 13 2 1 1 88 82 124 100 94 136 91 126 101 127 95 137 103 138 139 105 140 141
18 13 2 1 1 88 124 130 100 136 142 126 132 101 133 137 143 138 144 145 140 146 147
19 13 2 1 1 2 148 149 5 150 151 152 153 11 154 155 156 157 158 159 160 161 162
20 13 2 1 1 2 149 3 5 151 6 153 10 11 163 156 12 158 15 164 161 18 165
21 13 2 1 1 5 150 151 29 166 167 157 158 32 159 168 169 170 171 172 173 174 175
22 13 2 1 1 5 151 6 29 167 30 158 15 32 164 169 33 171 36 176 174 39 177
23 13 2 1 1 29 166 167 47 178 179 170 171 50 172 180 181 182 183 184 185 186 187
24 13 2 1 1 29 167 30 47 179 48 171 36 50 176 181 51 183 54 188 186 57 189
25 13 2 1 1 3 149 190 6 151 191 163 192 12 193 156 194 164 195 196 165 197 198
26 13 2 1 1 3 190 64 6 191 65 192 67 12 199 194 68 195 70 200 197 72 201
27 13 2 1 1 6 151 191 30 167 202 164 195 33 196 169 203 176 204 205 177 206 207
28 13 2 1 1 6 191 65 30 202 82 195 70 33 200 203 83 204 85 208 206 87 209
29 13 2 1 1 30 167 202 48 179 210 176 204 51 205 181 211 188 212 213 189 214 215
30 13 2 1 1 30 202 82 48 210 94 204 85 51 208 211 95 212 97 216 214 99 217
31 13 2 1 1 64 190 218 65 191 219 199 220 68 221 194 222 200 223 224 201 225 226
32 13 2 1 1 64 218 106 65 219 107 220 109 68 227 222 110 223 112 228 225 114 229
33 13 2 1 1 65 191 219 82 202 230 200 223 83 224 203 231 208 232 233 209 234 235
34 13 2 1 1 65 219 107 82 230 124 223 112 83 228 231 125 232 127 236 234 129 237
35 13 2 1 1 82 202 230 94 210 238 208 232 95 233 211 239 216 240 241 217 242 243
36 13 2 1 1 82 230 124 94 238 136 232 127 95 236 239 137 240 139 244 242 141 245
37 13 2 1 1 148 246 247 150 248 249 250 251 155 252 253 254 255 256 257 258 259 260
38 13 2 1 1 148 247 149 150 249 151 251 154 155 261 254 156 256 159 262 259 162 263
39 13 2 1 1 150 248 249 166 264 265 255 256 168 257 266 267 268 269 270 271 272 273
40 13 2 1 1 150 249 151 166 265 167 256 159 168 262 267 169 269 172 274 272 175 275
41 13 2 1 1 166 264 265 178 276 277 268 269 180 270 278 279 280 281 282 283 284 285
42 13 2 1 1 166 265 167 178 277 179 269 172 180 274 279 181 281 184 286 284 187 287
43 13 2 1 1 149 247 288 151 249 289 261 290 156 291 254 292 262 293 294 263 295 296
44 13 2 1 1 149 288 190 151 289 191 290 193 156 297 292 194 293 196 298 295 198 299
45 13 2 1 1 151 249 289 167 265 300 262 293 169 294 267 301 274 302 303 275 304 305
46 13 2 1 1 151 289 191 167 300 202 293 196 169 298 301 203 302 205 306 304 207 307
47 13 2 1 1 167 265 300 179 277 308 274 302 181 303 279 309 286 310 311 287 312 313
48 13 2 1 1 167 300 202 179 308 210 302 205 181 306 309 211 310 213 314 312 215 315
49 13 2 1 1 190 288 316 191 289 317 297 318 194 319 292 320 298 321 322 299 323 324
50 13 2 1 1 190 316 218 191 317 219 318 221 194 325 320 222 321 224 326 323 226 327
51 13 2 1 1 191 289 317 202 300 328 298 321 203 322 301 329 306 330 331 307 332 333
52 13 2 1 1 191 317 219 202 328 230 321 224 203 326 329 231 330 233 334 332 235 335
53 13 2 1 1 202 300 328 210 308 336 306 330 211 331 309 337 314 338 339 315 340 341
54 13 2 1 1 202 328 230 210 336 238 330 233 211 334 337 239 338 241 342 340 243 343
55 9 2 10 10 1 2 3 7 10 8
56 9 2 10 10 1 3 19 8 22 21
57 9 2 11 11 46 47 48 52 54 53
58 9 2 11 11 46 48 58 53 61 60
59 9 2 10 10 19 3 64 22 67 66
60 9 2 10 10 19 64 73 66 76 75
61 9 2 11 11 58 48 94 61 97 96
62 9 2 11 11 58 94 100 96 103 102
63 9 2 10 10 73 64 106 76 109 108
64 9 2 10 10 73 106 115 108 118 117
65 9 2 11 11 100 94 136 103 139 138
66 9 2 11 11 100 136 142 138 145 144
67 9 2 10 10 2 148 149 152 154 153
68 9 2 10 10 2 149 3 153 163 10
69 9 2 11 11 47 178 179 182 184 183
70 9 2 11 11 47 179 48 183 188 54
71 9 2 10 10 3 149 190 163 193 192
72 9 2 10 10 3 190 64 192 199 67
73 9 2 11 11 48 179 210 188 213 212
74 9 2 11 11 48 210 94 212 216 97
75 9 2 10 10 64 190 218 199 221 220
76 9 2 10 10 64 218 106 220 227 109
77 9 2 11 11 94 210 238 216 241 240
78 9 2 11 11 94 238 136 240 244 139
79 9 2 10 10 148 246 247 250 252 251
80 9 2 10 10 148 247 149 251 261 154
81 9 2 11 11 178 276 277 280 282 281
82 9 2 11 11 178 277 179 281 286 184
83 9 2 10 10 149 247 288 261 291 290
84 9 2 10 10 149 288 190 290 297 193
85 9 2 11 11 179 277 308 286 311 310
86 9 2 11 11 179 308 210 310 314 213
87 9 2 10 10 190 288 316 297 319 318
88 9 2 10 10 190 316 218 318 325 221
89 9 2 11 11 210 308 336 314 339 338
90 9 2 11 11 210 336 238 338 342 241
$EndElements
