$MeshFormat
2.2 0 8
$EndMeshFormat
$Nodes
120
1 0.0005 0 0
2 0.0005 0 0.0001
3 0.0004330127018922193 0.00025 0
4 0.0004330127018922193 0.00025 0.0001
5 0.0002500000000000001 0.0004330127018922193 0
6 0.0002500000000000001 0.0004330127018922193 0.0001
7 3.061616997868383e-20 0.0005 0
8 3.061616997868383e-20 0.0005 0.0001
9 -0.0002499999999999999 0.0004330127018922193 0
10 -0.0002499999999999999 0.0004330127018922193 0.0001
11 -0.0004330127018922193 0.00025 0
12 -0.0004330127018922193 0.00025 0.0001
13 -0.0005 6.123233995736766e-20 0
14 -0.0005 6.123233995736766e-20 0.0001
15 -0.0004330127018922194 -0.0002499999999999998 0
16 -0.0004330127018922194 -0.0002499999999999998 0.0001
17 -0.0002500000000000002 -0.0004330127018922192 0
18 -0.0002500000000000002 -0.0004330127018922192 0.0001
19 -9.184850993605149e-20 -0.0005 0
20 -9.184850993605149e-20 -0.0005 0.0001
21 0.0002500000000000001 -0.0004330127018922193 0
22 0.0002500000000000001 -0.0004330127018922193 0.0001
23 0.0004330127018922192 -0.0002500000000000002 0
24 0.0004330127018922192 -0.0002500000000000002 0.0001
25 0.0006580370064762462 0 0
26 0.0006580370064762462 0 0.0001
27 0.0005698767642386944 0.000329018503238123 0
28 0.0005698767642386944 0.000329018503238123 0.0001
29 0.0003290185032381231 0.0005698767642386943 0
30 0.0003290185032381231 0.0005698767642386943 0.0001
31 4.029314568508205e-20 0.0006580370064762462 0
32 4.029314568508205e-20 0.0006580370064762462 0.0001
33 -0.0003290185032381229 0.0005698767642386944 0
34 -0.0003290185032381229 0.0005698767642386944 0.0001
35 -0.0005698767642386944 0.000329018503238123 0
36 -0.0005698767642386944 0.000329018503238123 0.0001
37 -0.0006580370064762462 8.058629137016411e-20 0
38 -0.0006580370064762462 8.058629137016411e-20 0.0001
39 -0.0005698767642386944 -0.0003290185032381229 0
40 -0.0005698767642386944 -0.0003290185032381229 0.0001
41 -0.0003290185032381234 -0.0005698767642386942 0
42 -0.0003290185032381234 -0.0005698767642386942 0.0001
43 -1.208794370552461e-19 -0.0006580370064762462 0
44 -1.208794370552461e-19 -0.0006580370064762462 0.0001
45 0.0003290185032381231 -0.0005698767642386943 0
46 0.0003290185032381231 -0.0005698767642386943 0.0001
47 0.0005698767642386942 -0.0003290185032381234 0
48 0.0005698767642386942 -0.0003290185032381234 0.0001
49 0.0008660254037844386 0 0
50 0.0008660254037844386 0 0.0001
51 0.00075 0.0004330127018922192 0
52 0.00075 0.0004330127018922192 0.0001
53 0.0004330127018922194 0.0007499999999999999 0
54 0.0004330127018922194 0.0007499999999999999 0.0001
55 5.302876193624534e-20 0.0008660254037844386 0
56 5.302876193624534e-20 0.0008660254037844386 0.0001
57 -0.0004330127018922191 0.00075 0
58 -0.0004330127018922191 0.00075 0.0001
59 -0.00075 0.0004330127018922192 0
60 -0.00075 0.0004330127018922192 0.0001
61 -0.0008660254037844386 1.060575238724907e-19 0
62 -0.0008660254037844386 1.060575238724907e-19 0.0001
63 -0.0007500000000000001 -0.0004330127018922191 0
64 -0.0007500000000000001 -0.0004330127018922191 0.0001
65 -0.0004330127018922197 -0.0007499999999999997 0
66 -0.0004330127018922197 -0.0007499999999999997 0.0001
67 -1.59086285808736e-19 -0.0008660254037844386 0
68 -1.59086285808736e-19 -0.0008660254037844386 0.0001
69 0.0004330127018922194 -0.0007499999999999999 0
70 0.0004330127018922194 -0.0007499999999999999 0.0001
71 0.0007499999999999997 -0.0004330127018922197 0
72 0.0007499999999999997 -0.0004330127018922197 0.0001
73 0.001139753528477389 0 0
74 0.001139753528477389 0 0.0001
75 0.0009870555097143694 0.0005698767642386943 0
76 0.0009870555097143694 0.0005698767642386943 0.0001
77 0.0005698767642386945 0.0009870555097143694 0
78 0.0005698767642386945 0.0009870555097143694 0.0001
79 6.978977552333679e-20 0.001139753528477389 0
80 6.978977552333679e-20 0.001139753528477389 0.0001
81 -0.0005698767642386942 0.0009870555097143694 0
82 -0.0005698767642386942 0.0009870555097143694 0.0001
83 -0.0009870555097143694 0.0005698767642386943 0
84 -0.0009870555097143694 0.0005698767642386943 0.0001
85 -0.001139753528477389 1.395795510466736e-19 0
86 -0.001139753528477389 1.395795510466736e-19 0.0001
87 -0.0009870555097143696 -0.0005698767642386941 0
88 -0.0009870555097143696 -0.0005698767642386941 0.0001
89 -0.000569876764238695 -0.0009870555097143692 0
90 -0.000569876764238695 -0.0009870555097143692 0.0001
91 -2.093693265700104e-19 -0.001139753528477389 0
92 -2.093693265700104e-19 -0.001139753528477389 0.0001
93 0.0005698767642386945 -0.0009870555097143694 0
94 0.0005698767642386945 -0.0009870555097143694 0.0001
95 0.0009870555097143692 -0.000569876764238695 0
96 0.0009870555097143692 -0.000569876764238695 0.0001
97 0.0015 0 0
98 0.0015 0 0.0001
99 0.001299038105676658 0.0007499999999999999 0
100 0.001299038105676658 0.0007499999999999999 0.0001
101 0.0007500000000000002 0.001299038105676658 0
102 0.0007500000000000002 0.001299038105676658 0.0001
103 9.184850993605149e-20 0.0015 0
104 9.184850993605149e-20 0.0015 0.0001
105 -0.0007499999999999997 0.001299038105676658 0
106 -0.0007499999999999997 0.001299038105676658 0.0001
107 -0.001299038105676658 0.0007499999999999999 0
108 -0.001299038105676658 0.0007499999999999999 0.0001
109 -0.0015 1.83697019872103e-19 0
110 -0.0015 1.83697019872103e-19 0.0001
111 -0.001299038105676658 -0.0007499999999999996 0
112 -0.001299038105676658 -0.0007499999999999996 0.0001
113 -0.0007500000000000007 -0.001299038105676658 0
114 -0.0007500000000000007 -0.001299038105676658 0.0001
115 -2.755455298081544e-19 -0.0015 0
116 -2.755455298081544e-19 -0.0015 0.0001
117 0.0007500000000000002 -0.001299038105676658 0
118 0.0007500000000000002 -0.001299038105676658 0.0001
119 0.001299038105676658 -0.0007500000000000007 0
120 0.001299038105676658 -0.0007500000000000007 0.0001
$EndNodes
$Elements
72
1 3 2 11 11 1 3 4 2
2 3 2 10 10 97 99 100 98
3 3 2 11 11 3 5 6 4
4 3 2 10 10 99 101 102 100
5 3 2 11 11 5 7 8 6
6 3 2 10 10 101 103 104 102
7 3 2 11 11 7 9 10 8
8 3 2 10 10 103 105 106 104
9 3 2 11 11 9 11 12 10
10 3 2 10 10 105 107 108 106
11 3 2 11 11 11 13 14 12
12 3 2 10 10 107 109 110 108
13 3 2 11 11 13 15 16 14
14 3 2 10 10 109 111 112 110
15 3 2 11 11 15 17 18 16
16 3 2 10 10 111 113 114 112
17 3 2 11 11 17 19 20 18
18 3 2 10 10 113 115 116 114
19 3 2 11 11 19 21 22 20
20 3 2 10 10 115 117 118 116
21 3 2 11 11 21 23 24 22
22 3 2 10 10 117 119 120 118
23 3 2 11 11 23 1 2 24
24 3 2 10 10 119 97 98 120
25 5 2 1 1 1 25 27 3 2 26 28 4
26 5 2 1 1 3 27 29 5 4 28 30 6
27 5 2 1 1 5 29 31 7 6 30 32 8
28 5 2 1 1 7 31 33 9 8 32 34 10
29 5 2 1 1 9 33 35 11 10 34 36 12
30 5 2 1 1 11 35 37 13 12 36 38 14
31 5 2 1 1 13 37 39 15 14 38 40 16
32 5 2 1 1 15 39 41 17 16 40 42 18
33 5 2 1 1 17 41 43 19 18 42 44 20
34 5 2 1 1 19 43 45 21 20 44 46 22
35 5 2 1 1 21 45 47 23 22 46 48 24
36 5 2 1 1 23 47 25 1 24 48 26 2
37 5 2 1 1 25 49 51 27 26 50 52 28
38 5 2 1 1 27 51 53 29 28 52 54 30
39 5 2 1 1 29 53 55 31 30 54 56 32
40 5 2 1 1 31 55 57 33 32 56 58 34
41 5 2 1 1 33 57 59 35 34 58 60 36
42 5 2 1 1 35 59 61 37 36 60 62 38
43 5 2 1 1 37 61 63 39 38 62 64 40
44 5 2 1 1 39 63 65 41 40 64 66 42
45 5 2 1 1 41 65 67 43 42 66 68 44
46 5 2 1 1 43 67 69 45 44 68 70 46
47 5 2 1 1 45 69 71 47 46 70 72 48
48 5 2 1 1 47 71 49 25 48 72 50 26
49 5 2 1 1 49 73 75 51 50 74 76 52
50 5 2 1 1 51 75 77 53 52 76 78 54
51 5 2 1 1 53 77 79 55 54 78 80 56
52 5 2 1 1 55 79 81 57 56 80 82 58
53 5 2 1 1 57 81 83 59 58 82 84 60
54 5 2 1 1 59 83 85 61 60 84 86 62
55 5 2 1 1 61 85 87 63 62 86 88 64
56 5 2 1 1 63 87 89 65 64 88 90 66
57 5 2 1 1 65 89 91 67 66 90 92 68
58 5 2 1 1 67 91 93 69 68 92 94 70
59 5 2 1 1 69 93 95 71 70 94 96 72
60 5 2 1 1 71 95 73 49 72 96 74 50
61 5 2 1 1 73 97 99 75 74 98 100 76
62 5 2 1 1 75 99 101 77 76 100 102 78
63 5 2 1 1 77 101 103 79 78 102 104 80
64 5 2 1 1 79 103 105 81 80 104 106 82
65 5 2 1 1 81 105 107 83 82 106 108 84
66 5 2 1 1 83 107 109 85 84 108 110 86
67 5 2 1 1 85 109 111 87 86 110 112 88
68 5 2 1 1 87 111 113 89 88 112 114 90
69 5 2 1 1 89 113 115 91 90 114 116 92
70 5 2 1 1 91 115 117 93 92 116 118 94
71 5 2 1 1 93 117 119 95 94 118 120 96
72 5 2 1 1 95 119 97 73 96 120 98 74
$EndElements
