$MeshFormat
2.2 0 8
$EndMeshFormat
$Nodes
696
1 0.0005 0 0
2 0.0005 0 0.0001
3 0.0004330127018922193 0.00025 0
4 0.0004330127018922193 0.00025 0.0001
5 0.0002500000000000001 0.0004330127018922193 0
6 0.0002500000000000001 0.0004330127018922193 0.0001
7 3.061616997868383e-20 0.0005 0
8 3.061616997868383e-20 0.0005 0.0001
9 -0.0002499999999999999 0.0004330127018922193 0
10 -0.0002499999999999999 0.0004330127018922193 0.0001
11 -0.0004330127018922193 0.00025 0
12 -0.0004330127018922193 0.00025 0.0001
13 -0.0005 6.123233995736766e-20 0
14 -0.0005 6.123233995736766e-20 0.0001
15 -0.0004330127018922194 -0.0002499999999999998 0
16 -0.0004330127018922194 -0.0002499999999999998 0.0001
17 -0.0002500000000000002 -0.0004330127018922192 0
18 -0.0002500000000000002 -0.0004330127018922192 0.0001
19 -9.184850993605149e-20 -0.0005 0
20 -9.184850993605149e-20 -0.0005 0.0001
21 0.0002500000000000001 -0.0004330127018922193 0
22 0.0002500000000000001 -0.0004330127018922193 0.0001
23 0.0004330127018922192 -0.0002500000000000002 0
24 0.0004330127018922192 -0.0002500000000000002 0.0001
25 0.0006580370064762462 0 0
26 0.0006580370064762462 0 0.0001
27 0.0005698767642386944 0.000329018503238123 0
28 0.0005698767642386944 0.000329018503238123 0.0001
29 0.0003290185032381231 0.0005698767642386943 0
30 0.0003290185032381231 0.0005698767642386943 0.0001
31 4.029314568508205e-20 0.0006580370064762462 0
32 4.029314568508205e-20 0.0006580370064762462 0.0001
33 -0.0003290185032381229 0.0005698767642386944 0
34 -0.0003290185032381229 0.0005698767642386944 0.0001
35 -0.0005698767642386944 0.000329018503238123 0
36 -0.0005698767642386944 0.000329018503238123 0.0001
37 -0.0006580370064762462 8.058629137016411e-20 0
38 -0.0006580370064762462 8.058629137016411e-20 0.0001
39 -0.0005698767642386944 -0.0003290185032381229 0
40 -0.0005698767642386944 -0.0003290185032381229 0.0001
41 -0.0003290185032381234 -0.0005698767642386942 0
42 -0.0003290185032381234 -0.0005698767642386942 0.0001
43 -1.208794370552461e-19 -0.0006580370064762462 0
44 -1.208794370552461e-19 -0.0006580370064762462 0.0001
45 0.0003290185032381231 -0.0005698767642386943 0
46 0.0003290185032381231 -0.0005698767642386943 0.0001
47 0.0005698767642386942 -0.0003290185032381234 0
48 0.0005698767642386942 -0.0003290185032381234 0.0001
49 0.0008660254037844386 0 0
50 0.0008660254037844386 0 0.0001
51 0.00075 0.0004330127018922192 0
52 0.00075 0.0004330127018922192 0.0001
53 0.0004330127018922194 0.0007499999999999999 0
54 0.0004330127018922194 0.0007499999999999999 0.0001
55 5.302876193624534e-20 0.0008660254037844386 0
56 5.302876193624534e-20 0.0008660254037844386 0.0001
57 -0.0004330127018922191 0.00075 0
58 -0.0004330127018922191 0.00075 0.0001
59 -0.00075 0.0004330127018922192 0
60 -0.00075 0.0004330127018922192 0.0001
61 -0.0008660254037844386 1.060575238724907e-19 0
62 -0.0008660254037844386 1.060575238724907e-19 0.0001
63 -0.0007500000000000001 -0.0004330127018922191 0
64 -0.0007500000000000001 -0.0004330127018922191 0.0001
65 -0.0004330127018922197 -0.0007499999999999997 0
66 -0.0004330127018922197 -0.0007499999999999997 0.0001
67 -1.59086285808736e-19 -0.0008660254037844386 0
68 -1.59086285808736e-19 -0.0008660254037844386 0.0001
69 0.0004330127018922194 -0.0007499999999999999 0
70 0.0004330127018922194 -0.0007499999999999999 0.0001
71 0.0007499999999999997 -0.0004330127018922197 0
72 0.0007499999999999997 -0.0004330127018922197 0.0001
73 0.001139753528477389 0 0
74 0.001139753528477389 0 0.0001
75 0.0009870555097143694 0.0005698767642386943 0
76 0.0009870555097143694 0.0005698767642386943 0.0001
77 0.0005698767642386945 0.0009870555097143694 0
78 0.0005698767642386945 0.0009870555097143694 0.0001
79 6.978977552333679e-20 0.001139753528477389 0
80 6.978977552333679e-20 0.001139753528477389 0.0001
81 -0.0005698767642386942 0.0009870555097143694 0
82 -0.0005698767642386942 0.0009870555097143694 0.0001
83 -0.0009870555097143694 0.0005698767642386943 0
84 -0.0009870555097143694 0.0005698767642386943 0.0001
85 -0.001139753528477389 1.395795510466736e-19 0
86 -0.001139753528477389 1.395795510466736e-19 0.0001
87 -0.0009870555097143696 -0.0005698767642386941 0
88 -0.0009870555097143696 -0.0005698767642386941 0.0001
89 -0.000569876764238695 -0.0009870555097143692 0
90 -0.000569876764238695 -0.0009870555097143692 0.0001
91 -2.093693265700104e-19 -0.001139753528477389 0
92 -2.093693265700104e-19 -0.001139753528477389 0.0001
93 0.0005698767642386945 -0.0009870555097143694 0
94 0.0005698767642386945 -0.0009870555097143694 0.0001
95 0.0009870555097143692 -0.000569876764238695 0
96 0.0009870555097143692 -0.000569876764238695 0.0001
97 0.0015 0 0
98 0.0015 0 0.0001
99 0.001299038105676658 0.0007499999999999999 0
100 0.001299038105676658 0.0007499999999999999 0.0001
101 0.0007500000000000002 0.001299038105676658 0
102 0.0007500000000000002 0.001299038105676658 0.0001
103 9.184850993605149e-20 0.0015 0
104 9.184850993605149e-20 0.0015 0.0001
105 -0.0007499999999999997 0.001299038105676658 0
106 -0.0007499999999999997 0.001299038105676658 0.0001
107 -0.001299038105676658 0.0007499999999999999 0
108 -0.001299038105676658 0.0007499999999999999 0.0001
109 -0.0015 1.83697019872103e-19 0
110 -0.0015 1.83697019872103e-19 0.0001
111 -0.001299038105676658 -0.0007499999999999996 0
112 -0.001299038105676658 -0.0007499999999999996 0.0001
113 -0.0007500000000000007 -0.001299038105676658 0
114 -0.0007500000000000007 -0.001299038105676658 0.0001
115 -2.755455298081544e-19 -0.0015 0
116 -2.755455298081544e-19 -0.0015 0.0001
117 0.0007500000000000002 -0.001299038105676658 0
118 0.0007500000000000002 -0.001299038105676658 0.0001
119 0.001299038105676658 -0.0007500000000000007 0
120 0.001299038105676658 -0.0007500000000000007 0.0001
121 0.0005790185032381231 0 0
122 0.000635614939209353 0.0001703125096583033 0
123 0.0005349383821193472 0.0001645092516190615 0
124 0.0005349383821193472 0.0001645092516190615 5e-05
125 0.0005698767642386944 0.000329018503238123 5e-05
126 0.000635614939209353 0.0001703125096583033 5e-05
127 0.0005790185032381231 0 5e-05
128 0.000635614939209353 0.0001703125096583033 0.0001
129 0.0006580370064762462 0 5e-05
130 0.0005 0 5e-05
131 0.0005349383821193472 0.0001645092516190615 0.0001
132 0.0005790185032381231 0 0.0001
133 0.0005014447330654568 0.0002895092516190615 0
134 0.0004829629131445342 0.0001294095225512604 0
135 0.0004829629131445342 0.0001294095225512604 5e-05
136 0.0004330127018922193 0.00025 5e-05
137 0.0005014447330654568 0.0002895092516190615 5e-05
138 0.0005014447330654568 0.0002895092516190615 0.0001
139 0.0004829629131445342 0.0001294095225512604 0.0001
140 0.0004653024295510498 0.0004653024295510497 0
141 0.0003810156025651712 0.0004099383821193471 0
142 0.0003810156025651712 0.0004099383821193471 5e-05
143 0.0003290185032381231 0.0005698767642386943 5e-05
144 0.0004653024295510498 0.0004653024295510497 5e-05
145 0.0005014447330654568 0.0002895092516190615 5e-05
146 0.0004653024295510498 0.0004653024295510497 0.0001
147 0.0003810156025651712 0.0004099383821193471 0.0001
148 0.0002895092516190616 0.0005014447330654568 0
149 0.0003535533905932738 0.0003535533905932737 0
150 0.0003535533905932738 0.0003535533905932737 5e-05
151 0.0002500000000000001 0.0004330127018922193 5e-05
152 0.0002895092516190616 0.0005014447330654568 5e-05
153 0.0002895092516190616 0.0005014447330654568 0.0001
154 0.0003535533905932738 0.0003535533905932737 0.0001
155 0.0001703125096583034 0.000635614939209353 0
156 0.0001250000000000001 0.0005455248541842327 0
157 0.0001250000000000001 0.0005455248541842327 5e-05
158 4.029314568508205e-20 0.0006580370064762462 5e-05
159 0.0001703125096583034 0.000635614939209353 5e-05
160 0.0002895092516190616 0.0005014447330654568 5e-05
161 0.0001703125096583034 0.000635614939209353 0.0001
162 0.0001250000000000001 0.0005455248541842327 0.0001
163 3.545465783188294e-20 0.0005790185032381231 0
164 0.0001294095225512604 0.0004829629131445341 0
165 0.0001294095225512604 0.0004829629131445341 5e-05
166 3.061616997868383e-20 0.0005 5e-05
167 3.545465783188294e-20 0.0005790185032381231 5e-05
168 3.545465783188294e-20 0.0005790185032381231 0.0001
169 0.0001294095225512604 0.0004829629131445341 0.0001
170 -0.0001703125096583032 0.0006356149392093531 0
171 -0.0001645092516190614 0.0005349383821193472 0
172 -0.0001645092516190614 0.0005349383821193472 5e-05
173 -0.0003290185032381229 0.0005698767642386944 5e-05
174 -0.0001703125096583032 0.0006356149392093531 5e-05
175 3.545465783188294e-20 0.0005790185032381231 5e-05
176 -0.0001703125096583032 0.0006356149392093531 0.0001
177 -0.0001645092516190614 0.0005349383821193472 0.0001
178 -0.0002895092516190614 0.0005014447330654568 0
179 -0.0001294095225512603 0.0004829629131445342 0
180 -0.0001294095225512603 0.0004829629131445342 5e-05
181 -0.0002499999999999999 0.0004330127018922193 5e-05
182 -0.0002895092516190614 0.0005014447330654568 5e-05
183 -0.0002895092516190614 0.0005014447330654568 0.0001
184 -0.0001294095225512603 0.0004829629131445342 0.0001
185 -0.0004653024295510498 0.0004653024295510498 0
186 -0.0004099383821193472 0.0003810156025651712 0
187 -0.0004099383821193472 0.0003810156025651712 5e-05
188 -0.0005698767642386944 0.000329018503238123 5e-05
189 -0.0004653024295510498 0.0004653024295510498 5e-05
190 -0.0002895092516190614 0.0005014447330654568 5e-05
191 -0.0004653024295510498 0.0004653024295510498 0.0001
192 -0.0004099383821193472 0.0003810156025651712 0.0001
193 -0.0005014447330654568 0.0002895092516190615 0
194 -0.0003535533905932738 0.0003535533905932738 0
195 -0.0003535533905932738 0.0003535533905932738 5e-05
196 -0.0004330127018922193 0.00025 5e-05
197 -0.0005014447330654568 0.0002895092516190615 5e-05
198 -0.0005014447330654568 0.0002895092516190615 0.0001
199 -0.0003535533905932738 0.0003535533905932738 0.0001
200 -0.000635614939209353 0.0001703125096583033 0
201 -0.0005455248541842328 0.000125 0
202 -0.0005455248541842328 0.000125 5e-05
203 -0.0006580370064762462 8.058629137016411e-20 5e-05
204 -0.000635614939209353 0.0001703125096583033 5e-05
205 -0.0005014447330654568 0.0002895092516190615 5e-05
206 -0.000635614939209353 0.0001703125096583033 0.0001
207 -0.0005455248541842328 0.000125 0.0001
208 -0.0005790185032381231 7.090931566376588e-20 0
209 -0.0004829629131445342 0.0001294095225512604 0
210 -0.0004829629131445342 0.0001294095225512604 5e-05
211 -0.0005 6.123233995736766e-20 5e-05
212 -0.0005790185032381231 7.090931566376588e-20 5e-05
213 -0.0005790185032381231 7.090931566376588e-20 0.0001
214 -0.0004829629131445342 0.0001294095225512604 0.0001
215 -0.0006356149392093531 -0.0001703125096583032 0
216 -0.0005349383821193472 -0.0001645092516190614 0
217 -0.0005349383821193472 -0.0001645092516190614 5e-05
218 -0.0005698767642386944 -0.0003290185032381229 5e-05
219 -0.0006356149392093531 -0.0001703125096583032 5e-05
220 -0.0005790185032381231 7.090931566376588e-20 5e-05
221 -0.0006356149392093531 -0.0001703125096583032 0.0001
222 -0.0005349383821193472 -0.0001645092516190614 0.0001
223 -0.0005014447330654569 -0.0002895092516190614 0
224 -0.0004829629131445342 -0.0001294095225512602 0
225 -0.0004829629131445342 -0.0001294095225512602 5e-05
226 -0.0004330127018922194 -0.0002499999999999998 5e-05
227 -0.0005014447330654569 -0.0002895092516190614 5e-05
228 -0.0005014447330654569 -0.0002895092516190614 0.0001
229 -0.0004829629131445342 -0.0001294095225512602 0.0001
230 -0.0004653024295510499 -0.0004653024295510495 0
231 -0.0003810156025651714 -0.000409938382119347 0
232 -0.0003810156025651714 -0.000409938382119347 5e-05
233 -0.0003290185032381234 -0.0005698767642386942 5e-05
234 -0.0004653024295510499 -0.0004653024295510495 5e-05
235 -0.0005014447330654569 -0.0002895092516190614 5e-05
236 -0.0004653024295510499 -0.0004653024295510495 0.0001
237 -0.0003810156025651714 -0.000409938382119347 0.0001
238 -0.0002895092516190618 -0.0005014447330654567 0
239 -0.0003535533905932739 -0.0003535533905932736 0
240 -0.0003535533905932739 -0.0003535533905932736 5e-05
241 -0.0002500000000000002 -0.0004330127018922192 5e-05
242 -0.0002895092516190618 -0.0005014447330654567 5e-05
243 -0.0002895092516190618 -0.0005014447330654567 0.0001
244 -0.0003535533905932739 -0.0003535533905932736 0.0001
245 -0.0001703125096583035 -0.000635614939209353 0
246 -0.0001250000000000002 -0.0005455248541842327 0
247 -0.0001250000000000002 -0.0005455248541842327 5e-05
248 -1.208794370552461e-19 -0.0006580370064762462 5e-05
249 -0.0001703125096583035 -0.000635614939209353 5e-05
250 -0.0002895092516190618 -0.0005014447330654567 5e-05
251 -0.0001703125096583035 -0.000635614939209353 0.0001
252 -0.0001250000000000002 -0.0005455248541842327 0.0001
253 -1.063639734956488e-19 -0.0005790185032381231 0
254 -0.0001294095225512606 -0.0004829629131445341 0
255 -0.0001294095225512606 -0.0004829629131445341 5e-05
256 -9.184850993605149e-20 -0.0005 5e-05
257 -1.063639734956488e-19 -0.0005790185032381231 5e-05
258 -1.063639734956488e-19 -0.0005790185032381231 0.0001
259 -0.0001294095225512606 -0.0004829629131445341 0.0001
260 0.0001703125096583033 -0.000635614939209353 0
261 0.0001645092516190615 -0.0005349383821193472 0
262 0.0001645092516190615 -0.0005349383821193472 5e-05
263 0.0003290185032381231 -0.0005698767642386943 5e-05
264 0.0001703125096583033 -0.000635614939209353 5e-05
265 -1.063639734956488e-19 -0.0005790185032381231 5e-05
266 0.0001703125096583033 -0.000635614939209353 0.0001
267 0.0001645092516190615 -0.0005349383821193472 0.0001
268 0.0002895092516190616 -0.0005014447330654568 0
269 0.0001294095225512604 -0.0004829629131445342 0
270 0.0001294095225512604 -0.0004829629131445342 5e-05
271 0.0002500000000000001 -0.0004330127018922193 5e-05
272 0.0002895092516190616 -0.0005014447330654568 5e-05
273 0.0002895092516190616 -0.0005014447330654568 0.0001
274 0.0001294095225512604 -0.0004829629131445342 0.0001
275 0.0004653024295510497 -0.0004653024295510498 0
276 0.0004099383821193471 -0.0003810156025651713 0
277 0.0004099383821193471 -0.0003810156025651713 5e-05
278 0.0005698767642386942 -0.0003290185032381234 5e-05
279 0.0004653024295510497 -0.0004653024295510498 5e-05
280 0.0002895092516190616 -0.0005014447330654568 5e-05
281 0.0004653024295510497 -0.0004653024295510498 0.0001
282 0.0004099383821193471 -0.0003810156025651713 0.0001
283 0.0005014447330654567 -0.0002895092516190618 0
284 0.0003535533905932737 -0.0003535533905932738 0
285 0.0003535533905932737 -0.0003535533905932738 5e-05
286 0.0004330127018922192 -0.0002500000000000002 5e-05
287 0.0005014447330654567 -0.0002895092516190618 5e-05
288 0.0005014447330654567 -0.0002895092516190618 0.0001
289 0.0003535533905932737 -0.0003535533905932738 0.0001
290 0.000635614939209353 -0.0001703125096583035 0
291 0.0005455248541842327 -0.0001250000000000001 0
292 0.0005455248541842327 -0.0001250000000000001 5e-05
293 0.000635614939209353 -0.0001703125096583035 5e-05
294 0.0005014447330654567 -0.0002895092516190618 5e-05
295 0.000635614939209353 -0.0001703125096583035 0.0001
296 0.0005455248541842327 -0.0001250000000000001 0.0001
297 0.0004829629131445341 -0.0001294095225512605 0
298 0.0004829629131445341 -0.0001294095225512605 5e-05
299 0.0005790185032381231 0 5e-05
300 0.0004829629131445341 -0.0001294095225512605 0.0001
301 0.0007620312051303424 0 0
302 0.0008365163037378078 0.0002241438680420133 0
303 0.0007040185032381231 0.0002165063509461096 0
304 0.0007040185032381231 0.0002165063509461096 5e-05
305 0.0007500000000000001 0.0004330127018922192 5e-05
306 0.0008365163037378078 0.0002241438680420133 5e-05
307 0.0007620312051303424 0 5e-05
308 0.0008365163037378078 0.0002241438680420133 0.0001
309 0.0008660254037844386 0 5e-05
310 0.0007040185032381231 0.0002165063509461096 0.0001
311 0.0007620312051303424 0 0.0001
312 0.0006599383821193472 0.0003810156025651711 0
313 0.0006599383821193472 0.0003810156025651711 5e-05
314 0.0006599383821193472 0.0003810156025651711 0.0001
315 0.0006123724356957946 0.0006123724356957944 0
316 0.0005014447330654569 0.0005395092516190615 0
317 0.0005014447330654569 0.0005395092516190615 5e-05
318 0.0004330127018922194 0.0007499999999999999 5e-05
319 0.0006123724356957946 0.0006123724356957944 5e-05
320 0.0006599383821193472 0.0003810156025651711 5e-05
321 0.0006123724356957946 0.0006123724356957944 0.0001
322 0.0005014447330654569 0.0005395092516190615 0.0001
323 0.0003810156025651713 0.0006599383821193471 0
324 0.0003810156025651713 0.0006599383821193471 5e-05
325 0.0003810156025651713 0.0006599383821193471 0.0001
326 0.0002241438680420135 0.0008365163037378078 0
327 0.0001645092516190616 0.0007179510840115665 0
328 0.0001645092516190616 0.0007179510840115665 5e-05
329 5.302876193624534e-20 0.0008660254037844386 5e-05
330 0.0002241438680420135 0.0008365163037378078 5e-05
331 0.0003810156025651713 0.0006599383821193471 5e-05
332 0.0002241438680420135 0.0008365163037378078 0.0001
333 0.0001645092516190616 0.0007179510840115665 0.0001
334 4.66609538106637e-20 0.0007620312051303424 0
335 4.66609538106637e-20 0.0007620312051303424 5e-05
336 4.66609538106637e-20 0.0007620312051303424 0.0001
337 -0.0002241438680420132 0.0008365163037378078 0
338 -0.0002165063509461095 0.0007040185032381231 0
339 -0.0002165063509461095 0.0007040185032381231 5e-05
340 -0.0004330127018922191 0.0007500000000000001 5e-05
341 -0.0002241438680420132 0.0008365163037378078 5e-05
342 4.66609538106637e-20 0.0007620312051303424 5e-05
343 -0.0002241438680420132 0.0008365163037378078 0.0001
344 -0.0002165063509461095 0.0007040185032381231 0.0001
345 -0.000381015602565171 0.0006599383821193472 0
346 -0.000381015602565171 0.0006599383821193472 5e-05
347 -0.000381015602565171 0.0006599383821193472 0.0001
348 -0.0006123724356957945 0.0006123724356957946 0
349 -0.0005395092516190615 0.0005014447330654568 0
350 -0.0005395092516190615 0.0005014447330654568 5e-05
351 -0.0007500000000000001 0.0004330127018922192 5e-05
352 -0.0006123724356957945 0.0006123724356957946 5e-05
353 -0.000381015602565171 0.0006599383821193472 5e-05
354 -0.0006123724356957945 0.0006123724356957946 0.0001
355 -0.0005395092516190615 0.0005014447330654568 0.0001
356 -0.0006599383821193472 0.0003810156025651711 0
357 -0.0006599383821193472 0.0003810156025651711 5e-05
358 -0.0006599383821193472 0.0003810156025651711 0.0001
359 -0.0008365163037378078 0.0002241438680420134 0
360 -0.0007179510840115665 0.0001645092516190616 0
361 -0.0007179510840115665 0.0001645092516190616 5e-05
362 -0.0008660254037844386 1.060575238724907e-19 5e-05
363 -0.0008365163037378078 0.0002241438680420134 5e-05
364 -0.0006599383821193472 0.0003810156025651711 5e-05
365 -0.0008365163037378078 0.0002241438680420134 0.0001
366 -0.0007179510840115665 0.0001645092516190616 0.0001
367 -0.0007620312051303424 9.33219076213274e-20 0
368 -0.0007620312051303424 9.33219076213274e-20 5e-05
369 -0.0007620312051303424 9.33219076213274e-20 0.0001
370 -0.0008365163037378079 -0.0002241438680420132 0
371 -0.0007040185032381231 -0.0002165063509461095 0
372 -0.0007040185032381231 -0.0002165063509461095 5e-05
373 -0.0007500000000000001 -0.0004330127018922191 5e-05
374 -0.0008365163037378079 -0.0002241438680420132 5e-05
375 -0.0007620312051303424 9.33219076213274e-20 5e-05
376 -0.0008365163037378079 -0.0002241438680420132 0.0001
377 -0.0007040185032381231 -0.0002165063509461095 0.0001
378 -0.0006599383821193473 -0.000381015602565171 0
379 -0.0006599383821193473 -0.000381015602565171 5e-05
380 -0.0006599383821193473 -0.000381015602565171 0.0001
381 -0.0006123724356957948 -0.0006123724356957941 0
382 -0.0005014447330654571 -0.0005395092516190613 0
383 -0.0005014447330654571 -0.0005395092516190613 5e-05
384 -0.0004330127018922197 -0.0007499999999999997 5e-05
385 -0.0006123724356957948 -0.0006123724356957941 5e-05
386 -0.0006599383821193473 -0.000381015602565171 5e-05
387 -0.0006123724356957948 -0.0006123724356957941 0.0001
388 -0.0005014447330654571 -0.0005395092516190613 0.0001
389 -0.0003810156025651715 -0.0006599383821193469 0
390 -0.0003810156025651715 -0.0006599383821193469 5e-05
391 -0.0003810156025651715 -0.0006599383821193469 0.0001
392 -0.0002241438680420136 -0.0008365163037378077 0
393 -0.0001645092516190618 -0.0007179510840115665 0
394 -0.0001645092516190618 -0.0007179510840115665 5e-05
395 -1.59086285808736e-19 -0.0008660254037844386 5e-05
396 -0.0002241438680420136 -0.0008365163037378077 5e-05
397 -0.0003810156025651715 -0.0006599383821193469 5e-05
398 -0.0002241438680420136 -0.0008365163037378077 0.0001
399 -0.0001645092516190618 -0.0007179510840115665 0.0001
400 -1.399828614319911e-19 -0.0007620312051303424 0
401 -1.399828614319911e-19 -0.0007620312051303424 5e-05
402 -1.399828614319911e-19 -0.0007620312051303424 0.0001
403 0.0002241438680420133 -0.0008365163037378078 0
404 0.0002165063509461096 -0.0007040185032381231 0
405 0.0002165063509461096 -0.0007040185032381231 5e-05
406 0.0004330127018922194 -0.0007499999999999999 5e-05
407 0.0002241438680420133 -0.0008365163037378078 5e-05
408 -1.399828614319911e-19 -0.0007620312051303424 5e-05
409 0.0002241438680420133 -0.0008365163037378078 0.0001
410 0.0002165063509461096 -0.0007040185032381231 0.0001
411 0.0003810156025651713 -0.0006599383821193471 0
412 0.0003810156025651713 -0.0006599383821193471 5e-05
413 0.0003810156025651713 -0.0006599383821193471 0.0001
414 0.0006123724356957944 -0.0006123724356957946 0
415 0.0005395092516190614 -0.0005014447330654571 0
416 0.0005395092516190614 -0.0005014447330654571 5e-05
417 0.0007499999999999997 -0.0004330127018922197 5e-05
418 0.0006123724356957944 -0.0006123724356957946 5e-05
419 0.0003810156025651713 -0.0006599383821193471 5e-05
420 0.0006123724356957944 -0.0006123724356957946 0.0001
421 0.0005395092516190614 -0.0005014447330654571 0.0001
422 0.0006599383821193469 -0.0003810156025651715 0
423 0.0006599383821193469 -0.0003810156025651715 5e-05
424 0.0006599383821193469 -0.0003810156025651715 0.0001
425 0.0008365163037378078 -0.0002241438680420136 0
426 0.0007179510840115665 -0.0001645092516190617 0
427 0.0007179510840115665 -0.0001645092516190617 5e-05
428 0.0008365163037378078 -0.0002241438680420136 5e-05
429 0.0006599383821193469 -0.0003810156025651715 5e-05
430 0.0008365163037378078 -0.0002241438680420136 0.0001
431 0.0007179510840115665 -0.0001645092516190617 0.0001
432 0.0007620312051303424 0 5e-05
433 0.001002889466130914 0 0
434 0.001100917368760403 0.0002949899198927465 0
435 0.0009265404567494039 0.0002849383821193472 0
436 0.0009265404567494039 0.0002849383821193472 5e-05
437 0.0009870555097143694 0.0005698767642386943 5e-05
438 0.001100917368760403 0.0002949899198927465 5e-05
439 0.001002889466130914 0 5e-05
440 0.001100917368760403 0.0002949899198927465 0.0001
441 0.001139753528477389 0 5e-05
442 0.0009265404567494039 0.0002849383821193472 0.0001
443 0.001002889466130914 0 0.0001
444 0.0008685277548571847 0.0005014447330654568 0
445 0.0008685277548571847 0.0005014447330654568 5e-05
446 0.0008685277548571847 0.0005014447330654568 0.0001
447 0.0008059274488676566 0.0008059274488676566 0
448 0.0006599383821193473 0.0007100341058032943 0
449 0.0006599383821193473 0.0007100341058032943 5e-05
450 0.0005698767642386945 0.0009870555097143694 5e-05
451 0.0008059274488676566 0.0008059274488676566 5e-05
452 0.0008685277548571847 0.0005014447330654568 5e-05
453 0.0008059274488676566 0.0008059274488676566 0.0001
454 0.0006599383821193473 0.0007100341058032943 0.0001
455 0.0005014447330654569 0.0008685277548571846 0
456 0.0005014447330654569 0.0008685277548571846 5e-05
457 0.0005014447330654569 0.0008685277548571846 0.0001
458 0.0002949899198927466 0.001100917368760403 0
459 0.0002165063509461097 0.0009448767642386943 0
460 0.0002165063509461097 0.0009448767642386943 5e-05
461 6.978977552333679e-20 0.001139753528477389 5e-05
462 0.0002949899198927466 0.001100917368760403 5e-05
463 0.0005014447330654569 0.0008685277548571846 5e-05
464 0.0002949899198927466 0.001100917368760403 0.0001
465 0.0002165063509461097 0.0009448767642386943 0.0001
466 6.140926872979107e-20 0.001002889466130914 0
467 6.140926872979107e-20 0.001002889466130914 5e-05
468 6.140926872979107e-20 0.001002889466130914 0.0001
469 -0.0002949899198927463 0.001100917368760403 0
470 -0.0002849383821193471 0.0009265404567494039 0
471 -0.0002849383821193471 0.0009265404567494039 5e-05
472 -0.0005698767642386942 0.0009870555097143694 5e-05
473 -0.0002949899198927463 0.001100917368760403 5e-05
474 6.140926872979107e-20 0.001002889466130914 5e-05
475 -0.0002949899198927463 0.001100917368760403 0.0001
476 -0.0002849383821193471 0.0009265404567494039 0.0001
477 -0.0005014447330654566 0.0008685277548571847 0
478 -0.0005014447330654566 0.0008685277548571847 5e-05
479 -0.0005014447330654566 0.0008685277548571847 0.0001
480 -0.0008059274488676563 0.0008059274488676564 0
481 -0.0007100341058032942 0.0006599383821193471 0
482 -0.0007100341058032942 0.0006599383821193471 5e-05
483 -0.0009870555097143694 0.0005698767642386943 5e-05
484 -0.0008059274488676564 0.0008059274488676566 5e-05
485 -0.0005014447330654566 0.0008685277548571847 5e-05
486 -0.0008059274488676563 0.0008059274488676564 0.0001
487 -0.0007100341058032942 0.0006599383821193471 0.0001
488 -0.0008685277548571847 0.0005014447330654568 0
489 -0.0008685277548571847 0.0005014447330654568 5e-05
490 -0.0008685277548571847 0.0005014447330654568 0.0001
491 -0.001100917368760403 0.0002949899198927465 0
492 -0.0009448767642386944 0.0002165063509461097 0
493 -0.0009448767642386944 0.0002165063509461097 5e-05
494 -0.001139753528477389 1.395795510466736e-19 5e-05
495 -0.001100917368760403 0.0002949899198927465 5e-05
496 -0.0008685277548571847 0.0005014447330654568 5e-05
497 -0.001100917368760403 0.0002949899198927465 0.0001
498 -0.0009448767642386944 0.0002165063509461097 0.0001
499 -0.001002889466130914 1.228185374595821e-19 0
500 -0.001002889466130914 1.228185374595821e-19 5e-05
501 -0.001002889466130914 1.228185374595821e-19 0.0001
502 -0.001100917368760403 -0.0002949899198927463 0
503 -0.0009265404567494041 -0.000284938382119347 0
504 -0.0009265404567494041 -0.000284938382119347 5e-05
505 -0.0009870555097143696 -0.0005698767642386941 5e-05
506 -0.001100917368760403 -0.0002949899198927463 5e-05
507 -0.001002889466130914 1.228185374595821e-19 5e-05
508 -0.001100917368760403 -0.0002949899198927463 0.0001
509 -0.0009265404567494041 -0.000284938382119347 0.0001
510 -0.0008685277548571848 -0.0005014447330654566 0
511 -0.0008685277548571848 -0.0005014447330654566 5e-05
512 -0.0008685277548571848 -0.0005014447330654566 0.0001
513 -0.0008059274488676568 -0.0008059274488676561 0
514 -0.0006599383821193476 -0.0007100341058032941 0
515 -0.0006599383821193476 -0.0007100341058032941 5e-05
516 -0.000569876764238695 -0.0009870555097143692 5e-05
517 -0.0008059274488676568 -0.0008059274488676561 5e-05
518 -0.0008685277548571848 -0.0005014447330654566 5e-05
519 -0.0008059274488676568 -0.0008059274488676561 0.0001
520 -0.0006599383821193476 -0.0007100341058032941 0.0001
521 -0.0005014447330654573 -0.0008685277548571844 0
522 -0.0005014447330654573 -0.0008685277548571844 5e-05
523 -0.0005014447330654573 -0.0008685277548571844 0.0001
524 -0.0002949899198927468 -0.001100917368760403 0
525 -0.0002165063509461099 -0.0009448767642386943 0
526 -0.0002165063509461099 -0.0009448767642386943 5e-05
527 -2.093693265700104e-19 -0.001139753528477389 5e-05
528 -0.0002949899198927468 -0.001100917368760403 5e-05
529 -0.0005014447330654573 -0.0008685277548571844 5e-05
530 -0.0002949899198927468 -0.001100917368760403 0.0001
531 -0.0002165063509461099 -0.0009448767642386943 0.0001
532 -1.842278061893732e-19 -0.001002889466130914 0
533 -1.842278061893732e-19 -0.001002889466130914 5e-05
534 -1.842278061893732e-19 -0.001002889466130914 0.0001
535 0.0002949899198927465 -0.001100917368760403 0
536 0.0002849383821193472 -0.0009265404567494039 0
537 0.0002849383821193472 -0.0009265404567494039 5e-05
538 0.0005698767642386945 -0.0009870555097143694 5e-05
539 0.0002949899198927465 -0.001100917368760403 5e-05
540 -1.842278061893732e-19 -0.001002889466130914 5e-05
541 0.0002949899198927465 -0.001100917368760403 0.0001
542 0.0002849383821193472 -0.0009265404567494039 0.0001
543 0.0005014447330654569 -0.0008685277548571846 0
544 0.0005014447330654569 -0.0008685277548571846 5e-05
545 0.0005014447330654569 -0.0008685277548571846 0.0001
546 0.0008059274488676564 -0.0008059274488676566 0
547 0.0007100341058032943 -0.0006599383821193474 0
548 0.0007100341058032943 -0.0006599383821193474 5e-05
549 0.0009870555097143692 -0.000569876764238695 5e-05
550 0.0008059274488676564 -0.0008059274488676566 5e-05
551 0.0005014447330654569 -0.0008685277548571846 5e-05
552 0.0008059274488676564 -0.0008059274488676566 0.0001
553 0.0007100341058032943 -0.0006599383821193474 0.0001
554 0.0008685277548571844 -0.0005014447330654573 0
555 0.0008685277548571844 -0.0005014447330654573 5e-05
556 0.0008685277548571844 -0.0005014447330654573 0.0001
557 0.001100917368760403 -0.0002949899198927468 0
558 0.0009448767642386943 -0.0002165063509461098 0
559 0.0009448767642386943 -0.0002165063509461098 5e-05
560 0.001100917368760403 -0.0002949899198927468 5e-05
561 0.0008685277548571844 -0.0005014447330654573 5e-05
562 0.001100917368760403 -0.0002949899198927468 0.0001
563 0.0009448767642386943 -0.0002165063509461098 0.0001
564 0.001002889466130914 0 5e-05
565 0.001319876764238694 0 0
566 0.001448888739433602 0.000388228567653781 0
567 0.001219395817077024 0.000375 0
568 0.001219395817077024 0.000375 5e-05
569 0.001299038105676658 0.0007499999999999999 5e-05
570 0.001448888739433602 0.000388228567653781 5e-05
571 0.001319876764238694 0 5e-05
572 0.001448888739433602 0.000388228567653781 0.0001
573 0.0015 0 5e-05
574 0.001219395817077024 0.000375 0.0001
575 0.001319876764238694 0 0.0001
576 0.001143046807695514 0.0006599383821193471 0
577 0.001143046807695514 0.0006599383821193471 5e-05
578 0.001143046807695514 0.0006599383821193471 0.0001
579 0.001060660171779821 0.001060660171779821 0
580 0.0008685277548571848 0.0009344574349576761 0
581 0.0008685277548571848 0.0009344574349576761 5e-05
582 0.0007500000000000002 0.001299038105676658 5e-05
583 0.001060660171779821 0.001060660171779821 5e-05
584 0.001143046807695514 0.0006599383821193471 5e-05
585 0.001060660171779821 0.001060660171779821 0.0001
586 0.0008685277548571848 0.0009344574349576761 0.0001
587 0.0006599383821193473 0.001143046807695514 0
588 0.0006599383821193473 0.001143046807695514 5e-05
589 0.0006599383821193473 0.001143046807695514 0.0001
590 0.0003882285676537813 0.001448888739433602 0
591 0.0002849383821193473 0.001243527754857185 0
592 0.0002849383821193473 0.001243527754857185 5e-05
593 9.18485099360515e-20 0.0015 5e-05
594 0.0003882285676537813 0.001448888739433602 5e-05
595 0.0006599383821193473 0.001143046807695514 5e-05
596 0.0003882285676537813 0.001448888739433602 0.0001
597 0.0002849383821193473 0.001243527754857185 0.0001
598 8.081914272969414e-20 0.001319876764238694 0
599 8.081914272969414e-20 0.001319876764238694 5e-05
600 8.081914272969414e-20 0.001319876764238694 0.0001
601 -0.0003882285676537809 0.001448888739433603 0
602 -0.0003749999999999998 0.001219395817077024 0
603 -0.0003749999999999998 0.001219395817077024 5e-05
604 -0.0007499999999999997 0.001299038105676658 5e-05
605 -0.0003882285676537809 0.001448888739433603 5e-05
606 8.081914272969414e-20 0.001319876764238694 5e-05
607 -0.0003882285676537809 0.001448888739433603 0.0001
608 -0.0003749999999999998 0.001219395817077024 0.0001
609 -0.0006599383821193469 0.001143046807695514 0
610 -0.0006599383821193469 0.001143046807695514 5e-05
611 -0.0006599383821193469 0.001143046807695514 0.0001
612 -0.001060660171779821 0.001060660171779821 0
613 -0.0009344574349576762 0.0008685277548571846 0
614 -0.0009344574349576762 0.0008685277548571846 5e-05
615 -0.001299038105676658 0.0007499999999999999 5e-05
616 -0.001060660171779821 0.001060660171779821 5e-05
617 -0.0006599383821193469 0.001143046807695514 5e-05
618 -0.001060660171779821 0.001060660171779821 0.0001
619 -0.0009344574349576762 0.0008685277548571846 0.0001
620 -0.001143046807695514 0.0006599383821193471 0
621 -0.001143046807695514 0.0006599383821193471 5e-05
622 -0.001143046807695514 0.0006599383821193471 0.0001
623 -0.001448888739433602 0.0003882285676537812 0
624 -0.001243527754857185 0.0002849383821193473 0
625 -0.001243527754857185 0.0002849383821193473 5e-05
626 -0.0015 1.83697019872103e-19 5e-05
627 -0.001448888739433602 0.0003882285676537812 5e-05
628 -0.001143046807695514 0.0006599383821193471 5e-05
629 -0.001448888739433602 0.0003882285676537812 0.0001
630 -0.001243527754857185 0.0002849383821193473 0.0001
631 -0.001319876764238694 1.616382854593883e-19 0
632 -0.001319876764238694 1.616382854593883e-19 5e-05
633 -0.001319876764238694 1.616382854593883e-19 0.0001
634 -0.001448888739433603 -0.0003882285676537808 0
635 -0.001219395817077024 -0.0003749999999999997 0
636 -0.001219395817077024 -0.0003749999999999997 5e-05
637 -0.001299038105676658 -0.0007499999999999996 5e-05
638 -0.001448888739433603 -0.0003882285676537808 5e-05
639 -0.001319876764238694 1.616382854593883e-19 5e-05
640 -0.001448888739433603 -0.0003882285676537808 0.0001
641 -0.001219395817077024 -0.0003749999999999997 0.0001
642 -0.001143046807695514 -0.0006599383821193469 0
643 -0.001143046807695514 -0.0006599383821193469 5e-05
644 -0.001143046807695514 -0.0006599383821193469 0.0001
645 -0.001060660171779822 -0.001060660171779821 0
646 -0.0008685277548571851 -0.0009344574349576759 0
647 -0.0008685277548571851 -0.0009344574349576759 5e-05
648 -0.0007500000000000007 -0.001299038105676658 5e-05
649 -0.001060660171779822 -0.001060660171779821 5e-05
650 -0.001143046807695514 -0.0006599383821193469 5e-05
651 -0.001060660171779822 -0.001060660171779821 0.0001
652 -0.0008685277548571851 -0.0009344574349576759 0.0001
653 -0.0006599383821193478 -0.001143046807695513 0
654 -0.0006599383821193478 -0.001143046807695513 5e-05
655 -0.0006599383821193478 -0.001143046807695513 0.0001
656 -0.0003882285676537817 -0.001448888739433602 0
657 -0.0002849383821193477 -0.001243527754857184 0
658 -0.0002849383821193477 -0.001243527754857184 5e-05
659 -2.755455298081544e-19 -0.0015 5e-05
660 -0.0003882285676537817 -0.001448888739433602 5e-05
661 -0.0006599383821193478 -0.001143046807695513 5e-05
662 -0.0003882285676537817 -0.001448888739433602 0.0001
663 -0.0002849383821193477 -0.001243527754857184 0.0001
664 -2.424574281890824e-19 -0.001319876764238694 0
665 -2.424574281890824e-19 -0.001319876764238694 5e-05
666 -2.424574281890824e-19 -0.001319876764238694 0.0001
667 0.0003882285676537811 -0.001448888739433602 0
668 0.000375 -0.001219395817077024 0
669 0.000375 -0.001219395817077024 5e-05
670 0.0007500000000000002 -0.001299038105676658 5e-05
671 0.0003882285676537811 -0.001448888739433602 5e-05
672 -2.424574281890824e-19 -0.001319876764238694 5e-05
673 0.0003882285676537811 -0.001448888739433602 0.0001
674 0.000375 -0.001219395817077024 0.0001
675 0.0006599383821193473 -0.001143046807695514 0
676 0.0006599383821193473 -0.001143046807695514 5e-05
677 0.0006599383821193473 -0.001143046807695514 0.0001
678 0.001060660171779821 -0.001060660171779822 0
679 0.0009344574349576761 -0.000868527754857185 0
680 0.0009344574349576761 -0.000868527754857185 5e-05
681 0.001299038105676658 -0.0007500000000000007 5e-05
682 0.001060660171779821 -0.001060660171779822 5e-05
683 0.0006599383821193473 -0.001143046807695514 5e-05
684 0.001060660171779821 -0.001060660171779822 0.0001
685 0.0009344574349576761 -0.000868527754857185 0.0001
686 0.001143046807695513 -0.0006599383821193478 0
687 0.001143046807695513 -0.0006599383821193478 5e-05
688 0.001143046807695513 -0.0006599383821193478 0.0001
689 0.001448888739433602 -0.0003882285676537815 0
690 0.001243527754857184 -0.0002849383821193475 0
691 0.001243527754857184 -0.0002849383821193475 5e-05
692 0.001448888739433602 -0.0003882285676537815 5e-05
693 0.001143046807695513 -0.0006599383821193478 5e-05
694 0.001448888739433602 -0.0003882285676537815 0.0001
695 0.001243527754857184 -0.0002849383821193475 0.0001
696 0.001319876764238694 0 5e-05
$EndNodes
$Elements
336
1 9 2 11 11 1 3 4 134 136 135
2 9 2 11 11 1 4 2 135 139 130
3 9 2 10 10 97 99 100 566 569 570
4 9 2 10 10 97 100 98 570 572 573
5 9 2 11 11 3 5 6 149 151 150
6 9 2 11 11 3 6 4 150 154 136
7 9 2 10 10 99 101 102 579 582 583
8 9 2 10 10 99 102 100 583 585 569
9 9 2 11 11 5 7 8 164 166 165
10 9 2 11 11 5 8 6 165 169 151
11 9 2 10 10 101 103 104 590 593 594
12 9 2 10 10 101 104 102 594 596 582
13 9 2 11 11 7 9 10 179 181 180
14 9 2 11 11 7 10 8 180 184 166
15 9 2 10 10 103 105 106 601 604 605
16 9 2 10 10 103 106 104 605 607 593
17 9 2 11 11 9 11 12 194 196 195
18 9 2 11 11 9 12 10 195 199 181
19 9 2 10 10 105 107 108 612 615 616
20 9 2 10 10 105 108 106 616 618 604
21 9 2 11 11 11 13 14 209 211 210
22 9 2 11 11 11 14 12 210 214 196
23 9 2 10 10 107 109 110 623 626 627
24 9 2 10 10 107 110 108 627 629 615
25 9 2 11 11 13 15 16 224 226 225
26 9 2 11 11 13 16 14 225 229 211
27 9 2 10 10 109 111 112 634 637 638
28 9 2 10 10 109 112 110 638 640 626
29 9 2 11 11 15 17 18 239 241 240
30 9 2 11 11 15 18 16 240 244 226
31 9 2 10 10 111 113 114 645 648 649
32 9 2 10 10 111 114 112 649 651 637
33 9 2 11 11 17 19 20 254 256 255
34 9 2 11 11 17 20 18 255 259 241
35 9 2 10 10 113 115 116 656 659 660
36 9 2 10 10 113 116 114 660 662 648
37 9 2 11 11 19 21 22 269 271 270
38 9 2 11 11 19 22 20 270 274 256
39 9 2 10 10 115 117 118 667 670 671
40 9 2 10 10 115 118 116 671 673 659
41 9 2 11 11 21 23 24 284 286 285
42 9 2 11 11 21 24 22 285 289 271
43 9 2 10 10 117 119 120 678 681 682
44 9 2 10 10 117 120 118 682 684 670
45 9 2 11 11 23 1 2 297 130 298
46 9 2 11 11 23 2 24 298 300 286
47 9 2 10 10 119 97 98 689 573 692
48 9 2 10 10 119 98 120 692 694 681
49 11 2 1 1 1 25 27 28 121 122 123 124 125 126
50 11 2 1 1 1 25 28 26 121 126 124 127 128 129
51 11 2 1 1 1 26 28 2 127 128 124 130 131 132
52 11 2 1 1 1 27 3 4 123 133 134 135 136 137
53 11 2 1 1 1 27 4 28 123 137 135 124 138 125
54 11 2 1 1 1 28 4 2 124 138 135 130 139 131
55 11 2 1 1 3 27 29 30 133 140 141 142 143 144
56 11 2 1 1 3 27 30 28 133 144 142 145 146 125
57 11 2 1 1 3 28 30 4 145 146 142 136 147 138
58 11 2 1 1 3 29 5 6 141 148 149 150 151 152
59 11 2 1 1 3 29 6 30 141 152 150 142 153 143
60 11 2 1 1 3 30 6 4 142 153 150 136 154 147
61 11 2 1 1 5 29 31 32 148 155 156 157 158 159
62 11 2 1 1 5 29 32 30 148 159 157 160 161 143
63 11 2 1 1 5 30 32 6 160 161 157 151 162 153
64 11 2 1 1 5 31 7 8 156 163 164 165 166 167
65 11 2 1 1 5 31 8 32 156 167 165 157 168 158
66 11 2 1 1 5 32 8 6 157 168 165 151 169 162
67 11 2 1 1 7 31 33 34 163 170 171 172 173 174
68 11 2 1 1 7 31 34 32 163 174 172 175 176 158
69 11 2 1 1 7 32 34 8 175 176 172 166 177 168
70 11 2 1 1 7 33 9 10 171 178 179 180 181 182
71 11 2 1 1 7 33 10 34 171 182 180 172 183 173
72 11 2 1 1 7 34 10 8 172 183 180 166 184 177
73 11 2 1 1 9 33 35 36 178 185 186 187 188 189
74 11 2 1 1 9 33 36 34 178 189 187 190 191 173
75 11 2 1 1 9 34 36 10 190 191 187 181 192 183
76 11 2 1 1 9 35 11 12 186 193 194 195 196 197
77 11 2 1 1 9 35 12 36 186 197 195 187 198 188
78 11 2 1 1 9 36 12 10 187 198 195 181 199 192
79 11 2 1 1 11 35 37 38 193 200 201 202 203 204
80 11 2 1 1 11 35 38 36 193 204 202 205 206 188
81 11 2 1 1 11 36 38 12 205 206 202 196 207 198
82 11 2 1 1 11 37 13 14 201 208 209 210 211 212
83 11 2 1 1 11 37 14 38 201 212 210 202 213 203
84 11 2 1 1 11 38 14 12 202 213 210 196 214 207
85 11 2 1 1 13 37 39 40 208 215 216 217 218 219
86 11 2 1 1 13 37 40 38 208 219 217 220 221 203
87 11 2 1 1 13 38 40 14 220 221 217 211 222 213
88 11 2 1 1 13 39 15 16 216 223 224 225 226 227
89 11 2 1 1 13 39 16 40 216 227 225 217 228 218
90 11 2 1 1 13 40 16 14 217 228 225 211 229 222
91 11 2 1 1 15 39 41 42 223 230 231 232 233 234
92 11 2 1 1 15 39 42 40 223 234 232 235 236 218
93 11 2 1 1 15 40 42 16 235 236 232 226 237 228
94 11 2 1 1 15 41 17 18 231 238 239 240 241 242
95 11 2 1 1 15 41 18 42 231 242 240 232 243 233
96 11 2 1 1 15 42 18 16 232 243 240 226 244 237
97 11 2 1 1 17 41 43 44 238 245 246 247 248 249
98 11 2 1 1 17 41 44 42 238 249 247 250 251 233
99 11 2 1 1 17 42 44 18 250 251 247 241 252 243
100 11 2 1 1 17 43 19 20 246 253 254 255 256 257
101 11 2 1 1 17 43 20 44 246 257 255 247 258 248
102 11 2 1 1 17 44 20 18 247 258 255 241 259 252
103 11 2 1 1 19 43 45 46 253 260 261 262 263 264
104 11 2 1 1 19 43 46 44 253 264 262 265 266 248
105 11 2 1 1 19 44 46 20 265 266 262 256 267 258
106 11 2 1 1 19 45 21 22 261 268 269 270 271 272
107 11 2 1 1 19 45 22 46 261 272 270 262 273 263
108 11 2 1 1 19 46 22 20 262 273 270 256 274 267
109 11 2 1 1 21 45 47 48 268 275 276 277 278 279
110 11 2 1 1 21 45 48 46 268 279 277 280 281 263
111 11 2 1 1 21 46 48 22 280 281 277 271 282 273
112 11 2 1 1 21 47 23 24 276 283 284 285 286 287
113 11 2 1 1 21 47 24 48 276 287 285 277 288 278
114 11 2 1 1 21 48 24 22 277 288 285 271 289 282
115 11 2 1 1 23 47 25 26 283 290 291 292 129 293
116 11 2 1 1 23 47 26 48 283 293 292 294 295 278
117 11 2 1 1 23 48 26 24 294 295 292 286 296 288
118 11 2 1 1 23 25 1 2 291 121 297 298 130 299
119 11 2 1 1 23 25 2 26 291 299 298 292 132 129
120 11 2 1 1 23 26 2 24 292 132 298 286 300 296
121 11 2 1 1 25 49 51 52 301 302 303 304 305 306
122 11 2 1 1 25 49 52 50 301 306 304 307 308 309
123 11 2 1 1 25 50 52 26 307 308 304 129 310 311
124 11 2 1 1 25 51 27 28 303 312 122 126 125 313
125 11 2 1 1 25 51 28 52 303 313 126 304 314 305
126 11 2 1 1 25 52 28 26 304 314 126 129 128 310
127 11 2 1 1 27 51 53 54 312 315 316 317 318 319
128 11 2 1 1 27 51 54 52 312 319 317 320 321 305
129 11 2 1 1 27 52 54 28 320 321 317 125 322 314
130 11 2 1 1 27 53 29 30 316 323 140 144 143 324
131 11 2 1 1 27 53 30 54 316 324 144 317 325 318
132 11 2 1 1 27 54 30 28 317 325 144 125 146 322
133 11 2 1 1 29 53 55 56 323 326 327 328 329 330
134 11 2 1 1 29 53 56 54 323 330 328 331 332 318
135 11 2 1 1 29 54 56 30 331 332 328 143 333 325
136 11 2 1 1 29 55 31 32 327 334 155 159 158 335
137 11 2 1 1 29 55 32 56 327 335 159 328 336 329
138 11 2 1 1 29 56 32 30 328 336 159 143 161 333
139 11 2 1 1 31 55 57 58 334 337 338 339 340 341
140 11 2 1 1 31 55 58 56 334 341 339 342 343 329
141 11 2 1 1 31 56 58 32 342 343 339 158 344 336
142 11 2 1 1 31 57 33 34 338 345 170 174 173 346
143 11 2 1 1 31 57 34 58 338 346 174 339 347 340
144 11 2 1 1 31 58 34 32 339 347 174 158 176 344
145 11 2 1 1 33 57 59 60 345 348 349 350 351 352
146 11 2 1 1 33 57 60 58 345 352 350 353 354 340
147 11 2 1 1 33 58 60 34 353 354 350 173 355 347
148 11 2 1 1 33 59 35 36 349 356 185 189 188 357
149 11 2 1 1 33 59 36 60 349 357 189 350 358 351
150 11 2 1 1 33 60 36 34 350 358 189 173 191 355
151 11 2 1 1 35 59 61 62 356 359 360 361 362 363
152 11 2 1 1 35 59 62 60 356 363 361 364 365 351
153 11 2 1 1 35 60 62 36 364 365 361 188 366 358
154 11 2 1 1 35 61 37 38 360 367 200 204 203 368
155 11 2 1 1 35 61 38 62 360 368 204 361 369 362
156 11 2 1 1 35 62 38 36 361 369 204 188 206 366
157 11 2 1 1 37 61 63 64 367 370 371 372 373 374
158 11 2 1 1 37 61 64 62 367 374 372 375 376 362
159 11 2 1 1 37 62 64 38 375 376 372 203 377 369
160 11 2 1 1 37 63 39 40 371 378 215 219 218 379
161 11 2 1 1 37 63 40 64 371 379 219 372 380 373
162 11 2 1 1 37 64 40 38 372 380 219 203 221 377
163 11 2 1 1 39 63 65 66 378 381 382 383 384 385
164 11 2 1 1 39 63 66 64 378 385 383 386 387 373
165 11 2 1 1 39 64 66 40 386 387 383 218 388 380
166 11 2 1 1 39 65 41 42 382 389 230 234 233 390
167 11 2 1 1 39 65 42 66 382 390 234 383 391 384
168 11 2 1 1 39 66 42 40 383 391 234 218 236 388
169 11 2 1 1 41 65 67 68 389 392 393 394 395 396
170 11 2 1 1 41 65 68 66 389 396 394 397 398 384
171 11 2 1 1 41 66 68 42 397 398 394 233 399 391
172 11 2 1 1 41 67 43 44 393 400 245 249 248 401
173 11 2 1 1 41 67 44 68 393 401 249 394 402 395
174 11 2 1 1 41 68 44 42 394 402 249 233 251 399
175 11 2 1 1 43 67 69 70 400 403 404 405 406 407
176 11 2 1 1 43 67 70 68 400 407 405 408 409 395
177 11 2 1 1 43 68 70 44 408 409 405 248 410 402
178 11 2 1 1 43 69 45 46 404 411 260 264 263 412
179 11 2 1 1 43 69 46 70 404 412 264 405 413 406
180 11 2 1 1 43 70 46 44 405 413 264 248 266 410
181 11 2 1 1 45 69 71 72 411 414 415 416 417 418
182 11 2 1 1 45 69 72 70 411 418 416 419 420 406
183 11 2 1 1 45 70 72 46 419 420 416 263 421 413
184 11 2 1 1 45 71 47 48 415 422 275 279 278 423
185 11 2 1 1 45 71 48 72 415 423 279 416 424 417
186 11 2 1 1 45 72 48 46 416 424 279 263 281 421
187 11 2 1 1 47 71 49 50 422 425 426 427 309 428
188 11 2 1 1 47 71 50 72 422 428 427 429 430 417
189 11 2 1 1 47 72 50 48 429 430 427 278 431 424
190 11 2 1 1 47 49 25 26 426 301 290 293 129 432
191 11 2 1 1 47 49 26 50 426 432 293 427 311 309
192 11 2 1 1 47 50 26 48 427 311 293 278 295 431
193 11 2 1 1 49 73 75 76 433 434 435 436 437 438
194 11 2 1 1 49 73 76 74 433 438 436 439 440 441
195 11 2 1 1 49 74 76 50 439 440 436 309 442 443
196 11 2 1 1 49 75 51 52 435 444 302 306 305 445
197 11 2 1 1 49 75 52 76 435 445 306 436 446 437
198 11 2 1 1 49 76 52 50 436 446 306 309 308 442
199 11 2 1 1 51 75 77 78 444 447 448 449 450 451
200 11 2 1 1 51 75 78 76 444 451 449 452 453 437
201 11 2 1 1 51 76 78 52 452 453 449 305 454 446
202 11 2 1 1 51 77 53 54 448 455 315 319 318 456
203 11 2 1 1 51 77 54 78 448 456 319 449 457 450
204 11 2 1 1 51 78 54 52 449 457 319 305 321 454
205 11 2 1 1 53 77 79 80 455 458 459 460 461 462
206 11 2 1 1 53 77 80 78 455 462 460 463 464 450
207 11 2 1 1 53 78 80 54 463 464 460 318 465 457
208 11 2 1 1 53 79 55 56 459 466 326 330 329 467
209 11 2 1 1 53 79 56 80 459 467 330 460 468 461
210 11 2 1 1 53 80 56 54 460 468 330 318 332 465
211 11 2 1 1 55 79 81 82 466 469 470 471 472 473
212 11 2 1 1 55 79 82 80 466 473 471 474 475 461
213 11 2 1 1 55 80 82 56 474 475 471 329 476 468
214 11 2 1 1 55 81 57 58 470 477 337 341 340 478
215 11 2 1 1 55 81 58 82 470 478 341 471 479 472
216 11 2 1 1 55 82 58 56 471 479 341 329 343 476
217 11 2 1 1 57 81 83 84 477 480 481 482 483 484
218 11 2 1 1 57 81 84 82 477 484 482 485 486 472
219 11 2 1 1 57 82 84 58 485 486 482 340 487 479
220 11 2 1 1 57 83 59 60 481 488 348 352 351 489
221 11 2 1 1 57 83 60 84 481 489 352 482 490 483
222 11 2 1 1 57 84 60 58 482 490 352 340 354 487
223 11 2 1 1 59 83 85 86 488 491 492 493 494 495
224 11 2 1 1 59 83 86 84 488 495 493 496 497 483
225 11 2 1 1 59 84 86 60 496 497 493 351 498 490
226 11 2 1 1 59 85 61 62 492 499 359 363 362 500
227 11 2 1 1 59 85 62 86 492 500 363 493 501 494
228 11 2 1 1 59 86 62 60 493 501 363 351 365 498
229 11 2 1 1 61 85 87 88 499 502 503 504 505 506
230 11 2 1 1 61 85 88 86 499 506 504 507 508 494
231 11 2 1 1 61 86 88 62 507 508 504 362 509 501
232 11 2 1 1 61 87 63 64 503 510 370 374 373 511
233 11 2 1 1 61 87 64 88 503 511 374 504 512 505
234 11 2 1 1 61 88 64 62 504 512 374 362 376 509
235 11 2 1 1 63 87 89 90 510 513 514 515 516 517
236 11 2 1 1 63 87 90 88 510 517 515 518 519 505
237 11 2 1 1 63 88 90 64 518 519 515 373 520 512
238 11 2 1 1 63 89 65 66 514 521 381 385 384 522
239 11 2 1 1 63 89 66 90 514 522 385 515 523 516
240 11 2 1 1 63 90 66 64 515 523 385 373 387 520
241 11 2 1 1 65 89 91 92 521 524 525 526 527 528
242 11 2 1 1 65 89 92 90 521 528 526 529 530 516
243 11 2 1 1 65 90 92 66 529 530 526 384 531 523
244 11 2 1 1 65 91 67 68 525 532 392 396 395 533
245 11 2 1 1 65 91 68 92 525 533 396 526 534 527
246 11 2 1 1 65 92 68 66 526 534 396 384 398 531
247 11 2 1 1 67 91 93 94 532 535 536 537 538 539
248 11 2 1 1 67 91 94 92 532 539 537 540 541 527
249 11 2 1 1 67 92 94 68 540 541 537 395 542 534
250 11 2 1 1 67 93 69 70 536 543 403 407 406 544
251 11 2 1 1 67 93 70 94 536 544 407 537 545 538
252 11 2 1 1 67 94 70 68 537 545 407 395 409 542
253 11 2 1 1 69 93 95 96 543 546 547 548 549 550
254 11 2 1 1 69 93 96 94 543 550 548 551 552 538
255 11 2 1 1 69 94 96 70 551 552 548 406 553 545
256 11 2 1 1 69 95 71 72 547 554 414 418 417 555
257 11 2 1 1 69 95 72 96 547 555 418 548 556 549
258 11 2 1 1 69 96 72 70 548 556 418 406 420 553
259 11 2 1 1 71 95 73 74 554 557 558 559 441 560
260 11 2 1 1 71 95 74 96 554 560 559 561 562 549
261 11 2 1 1 71 96 74 72 561 562 559 417 563 556
262 11 2 1 1 71 73 49 50 558 433 425 428 309 564
263 11 2 1 1 71 73 50 74 558 564 428 559 443 441
264 11 2 1 1 71 74 50 72 559 443 428 417 430 563
265 11 2 1 1 73 97 99 100 565 566 567 568 569 570
266 11 2 1 1 73 97 100 98 565 570 568 571 572 573
267 11 2 1 1 73 98 100 74 571 572 568 441 574 575
268 11 2 1 1 73 99 75 76 567 576 434 438 437 577
269 11 2 1 1 73 99 76 100 567 577 438 568 578 569
270 11 2 1 1 73 100 76 74 568 578 438 441 440 574
271 11 2 1 1 75 99 101 102 576 579 580 581 582 583
272 11 2 1 1 75 99 102 100 576 583 581 584 585 569
273 11 2 1 1 75 100 102 76 584 585 581 437 586 578
274 11 2 1 1 75 101 77 78 580 587 447 451 450 588
275 11 2 1 1 75 101 78 102 580 588 451 581 589 582
276 11 2 1 1 75 102 78 76 581 589 451 437 453 586
277 11 2 1 1 77 101 103 104 587 590 591 592 593 594
278 11 2 1 1 77 101 104 102 587 594 592 595 596 582
279 11 2 1 1 77 102 104 78 595 596 592 450 597 589
280 11 2 1 1 77 103 79 80 591 598 458 462 461 599
281 11 2 1 1 77 103 80 104 591 599 462 592 600 593
282 11 2 1 1 77 104 80 78 592 600 462 450 464 597
283 11 2 1 1 79 103 105 106 598 601 602 603 604 605
284 11 2 1 1 79 103 106 104 598 605 603 606 607 593
285 11 2 1 1 79 104 106 80 606 607 603 461 608 600
286 11 2 1 1 79 105 81 82 602 609 469 473 472 610
287 11 2 1 1 79 105 82 106 602 610 473 603 611 604
288 11 2 1 1 79 106 82 80 603 611 473 461 475 608
289 11 2 1 1 81 105 107 108 609 612 613 614 615 616
290 11 2 1 1 81 105 108 106 609 616 614 617 618 604
291 11 2 1 1 81 106 108 82 617 618 614 472 619 611
292 11 2 1 1 81 107 83 84 613 620 480 484 483 621
293 11 2 1 1 81 107 84 108 613 621 484 614 622 615
294 11 2 1 1 81 108 84 82 614 622 484 472 486 619
295 11 2 1 1 83 107 109 110 620 623 624 625 626 627
296 11 2 1 1 83 107 110 108 620 627 625 628 629 615
297 11 2 1 1 83 108 110 84 628 629 625 483 630 622
298 11 2 1 1 83 109 85 86 624 631 491 495 494 632
299 11 2 1 1 83 109 86 110 624 632 495 625 633 626
300 11 2 1 1 83 110 86 84 625 633 495 483 497 630
301 11 2 1 1 85 109 111 112 631 634 635 636 637 638
302 11 2 1 1 85 109 112 110 631 638 636 639 640 626
303 11 2 1 1 85 110 112 86 639 640 636 494 641 633
304 11 2 1 1 85 111 87 88 635 642 502 506 505 643
305 11 2 1 1 85 111 88 112 635 643 506 636 644 637
306 11 2 1 1 85 112 88 86 636 644 506 494 508 641
307 11 2 1 1 87 111 113 114 642 645 646 647 648 649
308 11 2 1 1 87 111 114 112 642 649 647 650 651 637
309 11 2 1 1 87 112 114 88 650 651 647 505 652 644
310 11 2 1 1 87 113 89 90 646 653 513 517 516 654
311 11 2 1 1 87 113 90 114 646 654 517 647 655 648
312 11 2 1 1 87 114 90 88 647 655 517 505 519 652
313 11 2 1 1 89 113 115 116 653 656 657 658 659 660
314 11 2 1 1 89 113 116 114 653 660 658 661 662 648
315 11 2 1 1 89 114 116 90 661 662 658 516 663 655
316 11 2 1 1 89 115 91 92 657 664 524 528 527 665
317 11 2 1 1 89 115 92 116 657 665 528 658 666 659
318 11 2 1 1 89 116 92 90 658 666 528 516 530 663
319 11 2 1 1 91 115 117 118 664 667 668 669 670 671
320 11 2 1 1 91 115 118 116 664 671 669 672 673 659
321 11 2 1 1 91 116 118 92 672 673 669 527 674 666
322 11 2 1 1 91 117 93 94 668 675 535 539 538 676
323 11 2 1 1 91 117 94 118 668 676 539 669 677 670
324 11 2 1 1 91 118 94 92 669 677 539 527 541 674
325 11 2 1 1 93 117 119 120 675 678 679 680 681 682
326 11 2 1 1 93 117 120 118 675 682 680 683 684 670
327 11 2 1 1 93 118 120 94 683 684 680 538 685 677
328 11 2 1 1 93 119 95 96 679 686 546 550 549 687
329 11 2 1 1 93 119 96 120 679 687 550 680 688 681
330 11 2 1 1 93 120 96 94 680 688 550 538 552 685
331 11 2 1 1 95 119 97 98 686 689 690 691 573 692
332 11 2 1 1 95 119 98 120 686 692 691 693 694 681
333 11 2 1 1 95 120 98 96 693 694 691 549 695 688
334 11 2 1 1 95 97 73 74 690 565 557 560 441 696
335 11 2 1 1 95 97 74 98 690 696 560 691 575 573
336 11 2 1 1 95 98 74 96 691 575 560 549 562 695
$EndElements
