$MeshFormat
2.2 0 8
$EndMeshFormat
$Nodes
576
1 0.0005 0 0
2 0.0005 0 0.0001
3 0.0004903926402016152 9.754516100806413e-05 0
4 0.0004903926402016152 9.754516100806413e-05 0.0001
5 0.0004619397662556434 0.0001913417161825449 0
6 0.0004619397662556434 0.0001913417161825449 0.0001
7 0.0004157348061512726 0.0002777851165098011 0
8 0.0004157348061512726 0.0002777851165098011 0.0001
9 0.0003535533905932738 0.0003535533905932738 0
10 0.0003535533905932738 0.0003535533905932738 0.0001
11 0.0002777851165098012 0.0004157348061512726 0
12 0.0002777851165098012 0.0004157348061512726 0.0001
13 0.0001913417161825449 0.0004619397662556434 0
14 0.0001913417161825449 0.0004619397662556434 0.0001
15 9.754516100806417e-05 0.0004903926402016152 0
16 9.754516100806417e-05 0.0004903926402016152 0.0001
17 3.061616997868383e-20 0.0005 0
18 3.061616997868383e-20 0.0005 0.0001
19 -9.75451610080641e-05 0.0004903926402016152 0
20 -9.75451610080641e-05 0.0004903926402016152 0.0001
21 -0.0001913417161825449 0.0004619397662556434 0
22 -0.0001913417161825449 0.0004619397662556434 0.0001
23 -0.000277785116509801 0.0004157348061512728 0
24 -0.000277785116509801 0.0004157348061512728 0.0001
25 -0.0003535533905932738 0.0003535533905932738 0
26 -0.0003535533905932738 0.0003535533905932738 0.0001
27 -0.0004157348061512727 0.0002777851165098011 0
28 -0.0004157348061512727 0.0002777851165098011 0.0001
29 -0.0004619397662556434 0.0001913417161825449 0
30 -0.0004619397662556434 0.0001913417161825449 0.0001
31 -0.0004903926402016152 9.75451610080643e-05 0
32 -0.0004903926402016152 9.75451610080643e-05 0.0001
33 -0.0005 6.123233995736766e-20 0
34 -0.0005 6.123233995736766e-20 0.0001
35 -0.0004903926402016152 -9.754516100806418e-05 0
36 -0.0004903926402016152 -9.754516100806418e-05 0.0001
37 -0.0004619397662556434 -0.0001913417161825448 0
38 -0.0004619397662556434 -0.0001913417161825448 0.0001
39 -0.0004157348061512728 -0.000277785116509801 0
40 -0.0004157348061512728 -0.000277785116509801 0.0001
41 -0.0003535533905932739 -0.0003535533905932738 0
42 -0.0003535533905932739 -0.0003535533905932738 0.0001
43 -0.0002777851165098011 -0.0004157348061512726 0
44 -0.0002777851165098011 -0.0004157348061512726 0.0001
45 -0.0001913417161825452 -0.0004619397662556433 0
46 -0.0001913417161825452 -0.0004619397662556433 0.0001
47 -9.754516100806433e-05 -0.0004903926402016152 0
48 -9.754516100806433e-05 -0.0004903926402016152 0.0001
49 -9.184850993605149e-20 -0.0005 0
50 -9.184850993605149e-20 -0.0005 0.0001
51 9.754516100806416e-05 -0.0004903926402016152 0
52 9.754516100806416e-05 -0.0004903926402016152 0.0001
53 0.000191341716182545 -0.0004619397662556433 0
54 0.000191341716182545 -0.0004619397662556433 0.0001
55 0.000277785116509801 -0.0004157348061512728 0
56 0.000277785116509801 -0.0004157348061512728 0.0001
57 0.0003535533905932737 -0.0003535533905932739 0
58 0.0003535533905932737 -0.0003535533905932739 0.0001
59 0.0004157348061512726 -0.0002777851165098011 0
60 0.0004157348061512726 -0.0002777851165098011 0.0001
61 0.0004619397662556433 -0.0001913417161825452 0
62 0.0004619397662556433 -0.0001913417161825452 0.0001
63 0.0004903926402016152 -9.754516100806436e-05 0
64 0.0004903926402016152 -9.754516100806436e-05 0.0001
65 0.0005736013452199385 0 0
66 0.0005736013452199385 0 0.0001
67 0.0005625797562112076 0.0001119040711478422 0
68 0.0005625797562112076 0.0001119040711478422 0.0001
69 0.0005299385426696421 0.0002195077315979989 0
70 0.0005299385426696421 0.0002195077315979989 0.0001
71 0.0004769320881262407 0.0003186758330241985 0
72 0.0004769320881262407 0.0003186758330241985 0.0001
73 0.0004055974009027444 0.0004055974009027444 0
74 0.0004055974009027444 0.0004055974009027444 0.0001
75 0.0003186758330241986 0.0004769320881262407 0
76 0.0003186758330241986 0.0004769320881262407 0.0001
77 0.0002195077315979989 0.0005299385426696421 0
78 0.0002195077315979989 0.0005299385426696421 0.0001
79 0.0001119040711478422 0.0005625797562112076 0
80 0.0001119040711478422 0.0005625797562112076 0.0001
81 3.512295257051068e-20 0.0005736013452199385 0
82 3.512295257051068e-20 0.0005736013452199385 0.0001
83 -0.0001119040711478421 0.0005625797562112076 0
84 -0.0001119040711478421 0.0005625797562112076 0.0001
85 -0.0002195077315979988 0.0005299385426696421 0
86 -0.0002195077315979988 0.0005299385426696421 0.0001
87 -0.0003186758330241984 0.0004769320881262408 0
88 -0.0003186758330241984 0.0004769320881262408 0.0001
89 -0.0004055974009027444 0.0004055974009027444 0
90 -0.0004055974009027444 0.0004055974009027444 0.0001
91 -0.0004769320881262408 0.0003186758330241985 0
92 -0.0004769320881262408 0.0003186758330241985 0.0001
93 -0.0005299385426696421 0.0002195077315979989 0
94 -0.0005299385426696421 0.0002195077315979989 0.0001
95 -0.0005625797562112076 0.0001119040711478424 0
96 -0.0005625797562112076 0.0001119040711478424 0.0001
97 -0.0005736013452199385 7.024590514102137e-20 0
98 -0.0005736013452199385 7.024590514102137e-20 0.0001
99 -0.0005625797562112076 -0.0001119040711478422 0
100 -0.0005625797562112076 -0.0001119040711478422 0.0001
101 -0.0005299385426696421 -0.0002195077315979988 0
102 -0.0005299385426696421 -0.0002195077315979988 0.0001
103 -0.0004769320881262408 -0.0003186758330241984 0
104 -0.0004769320881262408 -0.0003186758330241984 0.0001
105 -0.0004055974009027445 -0.0004055974009027444 0
106 -0.0004055974009027445 -0.0004055974009027444 0.0001
107 -0.0003186758330241985 -0.0004769320881262407 0
108 -0.0003186758330241985 -0.0004769320881262407 0.0001
109 -0.0002195077315979992 -0.0005299385426696418 0
110 -0.0002195077315979992 -0.0005299385426696418 0.0001
111 -0.0001119040711478424 -0.0005625797562112076 0
112 -0.0001119040711478424 -0.0005625797562112076 0.0001
113 -1.05368857711532e-19 -0.0005736013452199385 0
114 -1.05368857711532e-19 -0.0005736013452199385 0.0001
115 0.0001119040711478422 -0.0005625797562112076 0
116 0.0001119040711478422 -0.0005625797562112076 0.0001
117 0.000219507731597999 -0.000529938542669642 0
118 0.000219507731597999 -0.000529938542669642 0.0001
119 0.0003186758330241983 -0.0004769320881262408 0
120 0.0003186758330241983 -0.0004769320881262408 0.0001
121 0.0004055974009027443 -0.0004055974009027445 0
122 0.0004055974009027443 -0.0004055974009027445 0.0001
123 0.0004769320881262407 -0.0003186758330241985 0
124 0.0004769320881262407 -0.0003186758330241985 0.0001
125 0.0005299385426696418 -0.0002195077315979992 0
126 0.0005299385426696418 -0.0002195077315979992 0.0001
127 0.0005625797562112076 -0.0001119040711478424 0
128 0.0005625797562112076 -0.0001119040711478424 0.0001
129 0.0006580370064762462 0 0
130 0.0006580370064762462 0 0.0001
131 0.0006453930099125074 0.0001283766514919799 0
132 0.0006453930099125074 0.0001283766514919799 0.0001
133 0.0006079469219184008 0.0002518198602615787 0
134 0.0006079469219184008 0.0002518198602615787 0.0001
135 0.0005471377746555318 0.0003655857730235296 0
136 0.0005471377746555318 0.0003655857730235296 0.0001
137 0.0004653024295510498 0.0004653024295510497 0
138 0.0004653024295510498 0.0004653024295510497 0.0001
139 0.0003655857730235296 0.0005471377746555318 0
140 0.0003655857730235296 0.0005471377746555318 0.0001
141 0.0002518198602615787 0.0006079469219184008 0
142 0.0002518198602615787 0.0006079469219184008 0.0001
143 0.00012837665149198 0.0006453930099125074 0
144 0.00012837665149198 0.0006453930099125074 0.0001
145 4.029314568508205e-20 0.0006580370064762462 0
146 4.029314568508205e-20 0.0006580370064762462 0.0001
147 -0.0001283766514919799 0.0006453930099125074 0
148 -0.0001283766514919799 0.0006453930099125074 0.0001
149 -0.0002518198602615787 0.0006079469219184008 0
150 -0.0002518198602615787 0.0006079469219184008 0.0001
151 -0.0003655857730235294 0.0005471377746555321 0
152 -0.0003655857730235294 0.0005471377746555321 0.0001
153 -0.0004653024295510497 0.0004653024295510498 0
154 -0.0004653024295510497 0.0004653024295510498 0.0001
155 -0.0005471377746555319 0.0003655857730235296 0
156 -0.0005471377746555319 0.0003655857730235296 0.0001
157 -0.0006079469219184008 0.0002518198602615788 0
158 -0.0006079469219184008 0.0002518198602615788 0.0001
159 -0.0006453930099125074 0.0001283766514919802 0
160 -0.0006453930099125074 0.0001283766514919802 0.0001
161 -0.0006580370064762462 8.058629137016411e-20 0
162 -0.0006580370064762462 8.058629137016411e-20 0.0001
163 -0.0006453930099125074 -0.00012837665149198 0
164 -0.0006453930099125074 -0.00012837665149198 0.0001
165 -0.0006079469219184009 -0.0002518198602615786 0
166 -0.0006079469219184009 -0.0002518198602615786 0.0001
167 -0.0005471377746555321 -0.0003655857730235294 0
168 -0.0005471377746555321 -0.0003655857730235294 0.0001
169 -0.0004653024295510499 -0.0004653024295510497 0
170 -0.0004653024295510499 -0.0004653024295510497 0.0001
171 -0.0003655857730235296 -0.0005471377746555318 0
172 -0.0003655857730235296 -0.0005471377746555318 0.0001
173 -0.0002518198602615791 -0.0006079469219184007 0
174 -0.0002518198602615791 -0.0006079469219184007 0.0001
175 -0.0001283766514919802 -0.0006453930099125074 0
176 -0.0001283766514919802 -0.0006453930099125074 0.0001
177 -1.208794370552461e-19 -0.0006580370064762462 0
178 -1.208794370552461e-19 -0.0006580370064762462 0.0001
179 0.00012837665149198 -0.0006453930099125074 0
180 0.00012837665149198 -0.0006453930099125074 0.0001
181 0.0002518198602615788 -0.0006079469219184008 0
182 0.0002518198602615788 -0.0006079469219184008 0.0001
183 0.0003655857730235293 -0.0005471377746555321 0
184 0.0003655857730235293 -0.0005471377746555321 0.0001
185 0.0004653024295510496 -0.0004653024295510499 0
186 0.0004653024295510496 -0.0004653024295510499 0.0001
187 0.0005471377746555318 -0.0003655857730235296 0
188 0.0005471377746555318 -0.0003655857730235296 0.0001
189 0.0006079469219184007 -0.0002518198602615791 0
190 0.0006079469219184007 -0.0002518198602615791 0.0001
191 0.0006453930099125074 -0.0001283766514919802 0
192 0.0006453930099125074 -0.0001283766514919802 0.0001
193 0.0007549018242385525 0 0
194 0.0007549018242385525 0 0.0001
195 0.0007403965973627189 0.0001472740399812618 0
196 0.0007403965973627189 0.0001472740399812618 0.0001
197 0.0006974383444694315 0.000288888421198277 0
198 0.0006974383444694315 0.000288888421198277 0.0001
199 0.0006276779271261134 0.0004194009823991354 0
200 0.0006276779271261134 0.0004194009823991354 0.0001
201 0.0005337961990491757 0.0005337961990491757 0
202 0.0005337961990491757 0.0005337961990491757 0.0001
203 0.0004194009823991355 0.0006276779271261134 0
204 0.0004194009823991355 0.0006276779271261134 0.0001
205 0.0002888884211982771 0.0006974383444694315 0
206 0.0002888884211982771 0.0006974383444694315 0.0001
207 0.0001472740399812619 0.0007403965973627189 0
208 0.0001472740399812619 0.0007403965973627189 0.0001
209 4.622440513621206e-20 0.0007549018242385525 0
210 4.622440513621206e-20 0.0007549018242385525 0.0001
211 -0.0001472740399812618 0.0007403965973627189 0
212 -0.0001472740399812618 0.0007403965973627189 0.0001
213 -0.0002888884211982769 0.0006974383444694315 0
214 -0.0002888884211982769 0.0006974383444694315 0.0001
215 -0.0004194009823991352 0.0006276779271261136 0
216 -0.0004194009823991352 0.0006276779271261136 0.0001
217 -0.0005337961990491757 0.0005337961990491757 0
218 -0.0005337961990491757 0.0005337961990491757 0.0001
219 -0.0006276779271261135 0.0004194009823991354 0
220 -0.0006276779271261135 0.0004194009823991354 0.0001
221 -0.0006974383444694315 0.0002888884211982771 0
222 -0.0006974383444694315 0.0002888884211982771 0.0001
223 -0.0007403965973627189 0.0001472740399812621 0
224 -0.0007403965973627189 0.0001472740399812621 0.0001
225 -0.0007549018242385525 9.244881027242412e-20 0
226 -0.0007549018242385525 9.244881027242412e-20 0.0001
227 -0.0007403965973627189 -0.000147274039981262 0
228 -0.0007403965973627189 -0.000147274039981262 0.0001
229 -0.0006974383444694315 -0.0002888884211982769 0
230 -0.0006974383444694315 -0.0002888884211982769 0.0001
231 -0.0006276779271261136 -0.0004194009823991352 0
232 -0.0006276779271261136 -0.0004194009823991352 0.0001
233 -0.0005337961990491758 -0.0005337961990491757 0
234 -0.0005337961990491758 -0.0005337961990491757 0.0001
235 -0.0004194009823991354 -0.0006276779271261134 0
236 -0.0004194009823991354 -0.0006276779271261134 0.0001
237 -0.0002888884211982774 -0.0006974383444694313 0
238 -0.0002888884211982774 -0.0006974383444694313 0.0001
239 -0.0001472740399812622 -0.0007403965973627188 0
240 -0.0001472740399812622 -0.0007403965973627188 0.0001
241 -1.386732154086362e-19 -0.0007549018242385525 0
242 -1.386732154086362e-19 -0.0007549018242385525 0.0001
243 0.0001472740399812619 -0.0007403965973627189 0
244 0.0001472740399812619 -0.0007403965973627189 0.0001
245 0.0002888884211982772 -0.0006974383444694314 0
246 0.0002888884211982772 -0.0006974383444694314 0.0001
247 0.0004194009823991351 -0.0006276779271261136 0
248 0.0004194009823991351 -0.0006276779271261136 0.0001
249 0.0005337961990491756 -0.0005337961990491758 0
250 0.0005337961990491756 -0.0005337961990491758 0.0001
251 0.0006276779271261134 -0.0004194009823991354 0
252 0.0006276779271261134 -0.0004194009823991354 0.0001
253 0.0006974383444694313 -0.0002888884211982775 0
254 0.0006974383444694313 -0.0002888884211982775 0.0001
255 0.0007403965973627188 -0.0001472740399812622 0
256 0.0007403965973627188 -0.0001472740399812622 0.0001
257 0.0008660254037844386 0 0
258 0.0008660254037844386 0 0.0001
259 0.0008493849684870414 0.0001689531748984536 0
260 0.0008493849684870414 0.0001689531748984536 0.0001
261 0.0008001031451912654 0.0003314135740355918 0
262 0.0008001031451912654 0.0003314135740355918 0.0001
263 0.0007200738067288024 0.0004811379353814156 0
264 0.0007200738067288024 0.0004811379353814156 0.0001
265 0.0006123724356957946 0.0006123724356957945 0
266 0.0006123724356957946 0.0006123724356957945 0.0001
267 0.0004811379353814157 0.0007200738067288024 0
268 0.0004811379353814157 0.0007200738067288024 0.0001
269 0.0003314135740355918 0.0008001031451912654 0
270 0.0003314135740355918 0.0008001031451912654 0.0001
271 0.0001689531748984537 0.0008493849684870414 0
272 0.0001689531748984537 0.0008493849684870414 0.0001
273 5.302876193624534e-20 0.0008660254037844386 0
274 5.302876193624534e-20 0.0008660254037844386 0.0001
275 -0.0001689531748984536 0.0008493849684870414 0
276 -0.0001689531748984536 0.0008493849684870414 0.0001
277 -0.0003314135740355917 0.0008001031451912654 0
278 -0.0003314135740355917 0.0008001031451912654 0.0001
279 -0.0004811379353814154 0.0007200738067288026 0
280 -0.0004811379353814154 0.0007200738067288026 0.0001
281 -0.0006123724356957945 0.0006123724356957946 0
282 -0.0006123724356957945 0.0006123724356957946 0.0001
283 -0.0007200738067288025 0.0004811379353814156 0
284 -0.0007200738067288025 0.0004811379353814156 0.0001
285 -0.0008001031451912654 0.0003314135740355919 0
286 -0.0008001031451912654 0.0003314135740355919 0.0001
287 -0.0008493849684870414 0.0001689531748984539 0
288 -0.0008493849684870414 0.0001689531748984539 0.0001
289 -0.0008660254037844386 1.060575238724907e-19 0
290 -0.0008660254037844386 1.060575238724907e-19 0.0001
291 -0.0008493849684870414 -0.0001689531748984537 0
292 -0.0008493849684870414 -0.0001689531748984537 0.0001
293 -0.0008001031451912655 -0.0003314135740355917 0
294 -0.0008001031451912655 -0.0003314135740355917 0.0001
295 -0.0007200738067288026 -0.0004811379353814154 0
296 -0.0007200738067288026 -0.0004811379353814154 0.0001
297 -0.0006123724356957946 -0.0006123724356957945 0
298 -0.0006123724356957946 -0.0006123724356957945 0.0001
299 -0.0004811379353814156 -0.0007200738067288024 0
300 -0.0004811379353814156 -0.0007200738067288024 0.0001
301 -0.0003314135740355922 -0.0008001031451912653 0
302 -0.0003314135740355922 -0.0008001031451912653 0.0001
303 -0.000168953174898454 -0.0008493849684870413 0
304 -0.000168953174898454 -0.0008493849684870413 0.0001
305 -1.59086285808736e-19 -0.0008660254037844386 0
306 -1.59086285808736e-19 -0.0008660254037844386 0.0001
307 0.0001689531748984537 -0.0008493849684870414 0
308 0.0001689531748984537 -0.0008493849684870414 0.0001
309 0.000331413574035592 -0.0008001031451912654 0
310 0.000331413574035592 -0.0008001031451912654 0.0001
311 0.0004811379353814153 -0.0007200738067288026 0
312 0.0004811379353814153 -0.0007200738067288026 0.0001
313 0.0006123724356957944 -0.0006123724356957946 0
314 0.0006123724356957944 -0.0006123724356957946 0.0001
315 0.0007200738067288024 -0.0004811379353814156 0
316 0.0007200738067288024 -0.0004811379353814156 0.0001
317 0.0008001031451912653 -0.0003314135740355923 0
318 0.0008001031451912653 -0.0003314135740355923 0.0001
319 0.0008493849684870413 -0.000168953174898454 0
320 0.0008493849684870413 -0.000168953174898454 0.0001
321 0.0009935066732107889 0 0
322 0.0009935066732107889 0 0.0001
323 0.0009744167210675242 0.0001938235368018651 0
324 0.0009744167210675242 0.0001938235368018651 0.0001
325 0.0009178804807928274 0.0003801985437819263 0
326 0.0009178804807928274 0.0003801985437819263 0.0001
327 0.0008260706083945661 0.0005519627339422477 0
328 0.0008260706083945661 0.0005519627339422477 0.0001
329 0.0007025153057814361 0.000702515305781436 0
330 0.0007025153057814361 0.000702515305781436 0.0001
331 0.0005519627339422478 0.0008260706083945661 0
332 0.0005519627339422478 0.0008260706083945661 0.0001
333 0.0003801985437819263 0.0009178804807928274 0
334 0.0003801985437819263 0.0009178804807928274 0.0001
335 0.0001938235368018652 0.0009744167210675242 0
336 0.0001938235368018652 0.0009744167210675242 0.0001
337 6.08347383639564e-20 0.0009935066732107889 0
338 6.08347383639564e-20 0.0009935066732107889 0.0001
339 -0.000193823536801865 0.0009744167210675242 0
340 -0.000193823536801865 0.0009744167210675242 0.0001
341 -0.0003801985437819262 0.0009178804807928274 0
342 -0.0003801985437819262 0.0009178804807928274 0.0001
343 -0.0005519627339422475 0.0008260706083945663 0
344 -0.0005519627339422475 0.0008260706083945663 0.0001
345 -0.000702515305781436 0.0007025153057814361 0
346 -0.000702515305781436 0.0007025153057814361 0.0001
347 -0.0008260706083945662 0.0005519627339422477 0
348 -0.0008260706083945662 0.0005519627339422477 0.0001
349 -0.0009178804807928274 0.0003801985437819264 0
350 -0.0009178804807928274 0.0003801985437819264 0.0001
351 -0.0009744167210675242 0.0001938235368018655 0
352 -0.0009744167210675242 0.0001938235368018655 0.0001
353 -0.0009935066732107889 1.216694767279128e-19 0
354 -0.0009935066732107889 1.216694767279128e-19 0.0001
355 -0.0009744167210675242 -0.0001938235368018652 0
356 -0.0009744167210675242 -0.0001938235368018652 0.0001
357 -0.0009178804807928275 -0.0003801985437819262 0
358 -0.0009178804807928275 -0.0003801985437819262 0.0001
359 -0.0008260706083945663 -0.0005519627339422475 0
360 -0.0008260706083945663 -0.0005519627339422475 0.0001
361 -0.0007025153057814362 -0.000702515305781436 0
362 -0.0007025153057814362 -0.000702515305781436 0.0001
363 -0.0005519627339422477 -0.0008260706083945661 0
364 -0.0005519627339422477 -0.0008260706083945661 0.0001
365 -0.0003801985437819268 -0.0009178804807928271 0
366 -0.0003801985437819268 -0.0009178804807928271 0.0001
367 -0.0001938235368018655 -0.0009744167210675241 0
368 -0.0001938235368018655 -0.0009744167210675241 0.0001
369 -1.825042150918692e-19 -0.0009935066732107889 0
370 -1.825042150918692e-19 -0.0009935066732107889 0.0001
371 0.0001938235368018651 -0.0009744167210675242 0
372 0.0001938235368018651 -0.0009744167210675242 0.0001
373 0.0003801985437819265 -0.0009178804807928273 0
374 0.0003801985437819265 -0.0009178804807928273 0.0001
375 0.0005519627339422474 -0.0008260706083945663 0
376 0.0005519627339422474 -0.0008260706083945663 0.0001
377 0.0007025153057814359 -0.0007025153057814362 0
378 0.0007025153057814359 -0.0007025153057814362 0.0001
379 0.0008260706083945661 -0.0005519627339422477 0
380 0.0008260706083945661 -0.0005519627339422477 0.0001
381 0.0009178804807928271 -0.0003801985437819269 0
382 0.0009178804807928271 -0.0003801985437819269 0.0001
383 0.0009744167210675241 -0.0001938235368018656 0
384 0.0009744167210675241 -0.0001938235368018656 0.0001
385 0.001139753528477389 0 0
386 0.001139753528477389 0 0.0001
387 0.001117853484018267 0.0002223548828896722 0
388 0.001117853484018267 0.0002223548828896722 0.0001
389 0.00105299495706778 0.0004361647923279493 0
390 0.00105299495706778 0.0004361647923279493 0.0001
391 0.0009476704244435525 0.0006332131334010967 0
392 0.0009476704244435525 0.0006332131334010967 0.0001
393 0.0008059274488676565 0.0008059274488676564 0
394 0.0008059274488676565 0.0008059274488676564 0.0001
395 0.0006332131334010969 0.0009476704244435525 0
396 0.0006332131334010969 0.0009476704244435525 0.0001
397 0.0004361647923279494 0.00105299495706778 0
398 0.0004361647923279494 0.00105299495706778 0.0001
399 0.0002223548828896723 0.001117853484018267 0
400 0.0002223548828896723 0.001117853484018267 0.0001
401 6.978977552333679e-20 0.001139753528477389 0
402 6.978977552333679e-20 0.001139753528477389 0.0001
403 -0.0002223548828896721 0.001117853484018267 0
404 -0.0002223548828896721 0.001117853484018267 0.0001
405 -0.0004361647923279492 0.00105299495706778 0
406 -0.0004361647923279492 0.00105299495706778 0.0001
407 -0.0006332131334010965 0.0009476704244435527 0
408 -0.0006332131334010965 0.0009476704244435527 0.0001
409 -0.0008059274488676564 0.0008059274488676565 0
410 -0.0008059274488676564 0.0008059274488676565 0.0001
411 -0.0009476704244435526 0.0006332131334010967 0
412 -0.0009476704244435526 0.0006332131334010967 0.0001
413 -0.00105299495706778 0.0004361647923279494 0
414 -0.00105299495706778 0.0004361647923279494 0.0001
415 -0.001117853484018267 0.0002223548828896726 0
416 -0.001117853484018267 0.0002223548828896726 0.0001
417 -0.001139753528477389 1.395795510466736e-19 0
418 -0.001139753528477389 1.395795510466736e-19 0.0001
419 -0.001117853484018267 -0.0002223548828896723 0
420 -0.001117853484018267 -0.0002223548828896723 0.0001
421 -0.00105299495706778 -0.0004361647923279491 0
422 -0.00105299495706778 -0.0004361647923279491 0.0001
423 -0.0009476704244435527 -0.0006332131334010965 0
424 -0.0009476704244435527 -0.0006332131334010965 0.0001
425 -0.0008059274488676567 -0.0008059274488676564 0
426 -0.0008059274488676567 -0.0008059274488676564 0.0001
427 -0.0006332131334010967 -0.0009476704244435525 0
428 -0.0006332131334010967 -0.0009476704244435525 0.0001
429 -0.0004361647923279499 -0.001052994957067779 0
430 -0.0004361647923279499 -0.001052994957067779 0.0001
431 -0.0002223548828896727 -0.001117853484018267 0
432 -0.0002223548828896727 -0.001117853484018267 0.0001
433 -2.093693265700104e-19 -0.001139753528477389 0
434 -2.093693265700104e-19 -0.001139753528477389 0.0001
435 0.0002223548828896723 -0.001117853484018267 0
436 0.0002223548828896723 -0.001117853484018267 0.0001
437 0.0004361647923279495 -0.001052994957067779 0
438 0.0004361647923279495 -0.001052994957067779 0.0001
439 0.0006332131334010964 -0.0009476704244435527 0
440 0.0006332131334010964 -0.0009476704244435527 0.0001
441 0.0008059274488676563 -0.0008059274488676567 0
442 0.0008059274488676563 -0.0008059274488676567 0.0001
443 0.0009476704244435525 -0.0006332131334010967 0
444 0.0009476704244435525 -0.0006332131334010967 0.0001
445 0.001052994957067779 -0.0004361647923279499 0
446 0.001052994957067779 -0.0004361647923279499 0.0001
447 0.001117853484018267 -0.0002223548828896727 0
448 0.001117853484018267 -0.0002223548828896727 0.0001
449 0.001307528314307603 0 0
450 0.001307528314307603 0 0.0001
451 0.001282404524383346 0.0002550861198834757 0
452 0.001282404524383346 0.0002550861198834757 0.0001
453 0.00120799864776778 0.0005003694232337736 0
454 0.00120799864776778 0.0005003694232337736 0.0001
455 0.001087170060571944 0.0007264238102596029 0
456 0.001087170060571944 0.0007264238102596029 0.0001
457 0.000924562137640322 0.0009245621376403219 0
458 0.000924562137640322 0.0009245621376403219 0.0001
459 0.000726423810259603 0.001087170060571944 0
460 0.000726423810259603 0.001087170060571944 0.0001
461 0.0005003694232337737 0.00120799864776778 0
462 0.0005003694232337737 0.00120799864776778 0.0001
463 0.0002550861198834758 0.001282404524383346 0
464 0.0002550861198834758 0.001282404524383346 0.0001
465 8.006301824556705e-20 0.001307528314307603 0
466 8.006301824556705e-20 0.001307528314307603 0.0001
467 -0.0002550861198834756 0.001282404524383346 0
468 -0.0002550861198834756 0.001282404524383346 0.0001
469 -0.0005003694232337735 0.00120799864776778 0
470 -0.0005003694232337735 0.00120799864776778 0.0001
471 -0.0007264238102596026 0.001087170060571944 0
472 -0.0007264238102596026 0.001087170060571944 0.0001
473 -0.0009245621376403219 0.000924562137640322 0
474 -0.0009245621376403219 0.000924562137640322 0.0001
475 -0.001087170060571944 0.0007264238102596029 0
476 -0.001087170060571944 0.0007264238102596029 0.0001
477 -0.00120799864776778 0.0005003694232337737 0
478 -0.00120799864776778 0.0005003694232337737 0.0001
479 -0.001282404524383346 0.0002550861198834762 0
480 -0.001282404524383346 0.0002550861198834762 0.0001
481 -0.001307528314307603 1.601260364911341e-19 0
482 -0.001307528314307603 1.601260364911341e-19 0.0001
483 -0.001282404524383346 -0.0002550861198834758 0
484 -0.001282404524383346 -0.0002550861198834758 0.0001
485 -0.00120799864776778 -0.0005003694232337735 0
486 -0.00120799864776778 -0.0005003694232337735 0.0001
487 -0.001087170060571944 -0.0007264238102596026 0
488 -0.001087170060571944 -0.0007264238102596026 0.0001
489 -0.0009245621376403221 -0.0009245621376403219 0
490 -0.0009245621376403221 -0.0009245621376403219 0.0001
491 -0.0007264238102596029 -0.001087170060571944 0
492 -0.0007264238102596029 -0.001087170060571944 0.0001
493 -0.0005003694232337744 -0.001207998647767779 0
494 -0.0005003694232337744 -0.001207998647767779 0.0001
495 -0.0002550861198834763 -0.001282404524383346 0
496 -0.0002550861198834763 -0.001282404524383346 0.0001
497 -2.401890547367011e-19 -0.001307528314307603 0
498 -2.401890547367011e-19 -0.001307528314307603 0.0001
499 0.0002550861198834758 -0.001282404524383346 0
500 0.0002550861198834758 -0.001282404524383346 0.0001
501 0.0005003694232337739 -0.001207998647767779 0
502 0.0005003694232337739 -0.001207998647767779 0.0001
503 0.0007264238102596025 -0.001087170060571944 0
504 0.0007264238102596025 -0.001087170060571944 0.0001
505 0.0009245621376403216 -0.0009245621376403221 0
506 0.0009245621376403216 -0.0009245621376403221 0.0001
507 0.001087170060571944 -0.0007264238102596029 0
508 0.001087170060571944 -0.0007264238102596029 0.0001
509 0.001207998647767779 -0.0005003694232337744 0
510 0.001207998647767779 -0.0005003694232337744 0.0001
511 0.001282404524383346 -0.0002550861198834763 0
512 0.001282404524383346 -0.0002550861198834763 0.0001
513 0.0015 0 0
514 0.0015 0 0.0001
515 0.001471177920604846 0.0002926354830241924 0
516 0.001471177920604846 0.0002926354830241924 0.0001
517 0.00138581929876693 0.0005740251485476347 0
518 0.00138581929876693 0.0005740251485476347 0.0001
519 0.001247204418453818 0.0008333553495294033 0
520 0.001247204418453818 0.0008333553495294033 0.0001
521 0.001060660171779821 0.001060660171779821 0
522 0.001060660171779821 0.001060660171779821 0.0001
523 0.0008333553495294035 0.001247204418453818 0
524 0.0008333553495294035 0.001247204418453818 0.0001
525 0.0005740251485476347 0.00138581929876693 0
526 0.0005740251485476347 0.00138581929876693 0.0001
527 0.0002926354830241925 0.001471177920604846 0
528 0.0002926354830241925 0.001471177920604846 0.0001
529 9.184850993605149e-20 0.0015 0
530 9.184850993605149e-20 0.0015 0.0001
531 -0.0002926354830241923 0.001471177920604846 0
532 -0.0002926354830241923 0.001471177920604846 0.0001
533 -0.0005740251485476346 0.00138581929876693 0
534 -0.0005740251485476346 0.00138581929876693 0.0001
535 -0.000833355349529403 0.001247204418453818 0
536 -0.000833355349529403 0.001247204418453818 0.0001
537 -0.001060660171779821 0.001060660171779821 0
538 -0.001060660171779821 0.001060660171779821 0.0001
539 -0.001247204418453818 0.0008333553495294033 0
540 -0.001247204418453818 0.0008333553495294033 0.0001
541 -0.00138581929876693 0.0005740251485476348 0
542 -0.00138581929876693 0.0005740251485476348 0.0001
543 -0.001471177920604846 0.0002926354830241929 0
544 -0.001471177920604846 0.0002926354830241929 0.0001
545 -0.0015 1.83697019872103e-19 0
546 -0.0015 1.83697019872103e-19 0.0001
547 -0.001471177920604846 -0.0002926354830241925 0
548 -0.001471177920604846 -0.0002926354830241925 0.0001
549 -0.00138581929876693 -0.0005740251485476345 0
550 -0.00138581929876693 -0.0005740251485476345 0.0001
551 -0.001247204418453818 -0.000833355349529403 0
552 -0.001247204418453818 -0.000833355349529403 0.0001
553 -0.001060660171779822 -0.001060660171779821 0
554 -0.001060660171779822 -0.001060660171779821 0.0001
555 -0.0008333553495294033 -0.001247204418453818 0
556 -0.0008333553495294033 -0.001247204418453818 0.0001
557 -0.0005740251485476355 -0.00138581929876693 0
558 -0.0005740251485476355 -0.00138581929876693 0.0001
559 -0.000292635483024193 -0.001471177920604846 0
560 -0.000292635483024193 -0.001471177920604846 0.0001
561 -2.755455298081544e-19 -0.0015 0
562 -2.755455298081544e-19 -0.0015 0.0001
563 0.0002926354830241924 -0.001471177920604846 0
564 0.0002926354830241924 -0.001471177920604846 0.0001
565 0.0005740251485476351 -0.00138581929876693 0
566 0.0005740251485476351 -0.00138581929876693 0.0001
567 0.0008333553495294027 -0.001247204418453818 0
568 0.0008333553495294027 -0.001247204418453818 0.0001
569 0.001060660171779821 -0.001060660171779822 0
570 0.001060660171779821 -0.001060660171779822 0.0001
571 0.001247204418453818 -0.0008333553495294033 0
572 0.001247204418453818 -0.0008333553495294033 0.0001
573 0.00138581929876693 -0.0005740251485476356 0
574 0.00138581929876693 -0.0005740251485476356 0.0001
575 0.001471177920604846 -0.0002926354830241931 0
576 0.001471177920604846 -0.0002926354830241931 0.0001
$EndNodes
$Elements
320
1 3 2 11 11 1 3 4 2
2 3 2 10 10 513 515 516 514
3 3 2 11 11 3 5 6 4
4 3 2 10 10 515 517 518 516
5 3 2 11 11 5 7 8 6
6 3 2 10 10 517 519 520 518
7 3 2 11 11 7 9 10 8
8 3 2 10 10 519 521 522 520
9 3 2 11 11 9 11 12 10
10 3 2 10 10 521 523 524 522
11 3 2 11 11 11 13 14 12
12 3 2 10 10 523 525 526 524
13 3 2 11 11 13 15 16 14
14 3 2 10 10 525 527 528 526
15 3 2 11 11 15 17 18 16
16 3 2 10 10 527 529 530 528
17 3 2 11 11 17 19 20 18
18 3 2 10 10 529 531 532 530
19 3 2 11 11 19 21 22 20
20 3 2 10 10 531 533 534 532
21 3 2 11 11 21 23 24 22
22 3 2 10 10 533 535 536 534
23 3 2 11 11 23 25 26 24
24 3 2 10 10 535 537 538 536
25 3 2 11 11 25 27 28 26
26 3 2 10 10 537 539 540 538
27 3 2 11 11 27 29 30 28
28 3 2 10 10 539 541 542 540
29 3 2 11 11 29 31 32 30
30 3 2 10 10 541 543 544 542
31 3 2 11 11 31 33 34 32
32 3 2 10 10 543 545 546 544
33 3 2 11 11 33 35 36 34
34 3 2 10 10 545 547 548 546
35 3 2 11 11 35 37 38 36
36 3 2 10 10 547 549 550 548
37 3 2 11 11 37 39 40 38
38 3 2 10 10 549 551 552 550
39 3 2 11 11 39 41 42 40
40 3 2 10 10 551 553 554 552
41 3 2 11 11 41 43 44 42
42 3 2 10 10 553 555 556 554
43 3 2 11 11 43 45 46 44
44 3 2 10 10 555 557 558 556
45 3 2 11 11 45 47 48 46
46 3 2 10 10 557 559 560 558
47 3 2 11 11 47 49 50 48
48 3 2 10 10 559 561 562 560
49 3 2 11 11 49 51 52 50
50 3 2 10 10 561 563 564 562
51 3 2 11 11 51 53 54 52
52 3 2 10 10 563 565 566 564
53 3 2 11 11 53 55 56 54
54 3 2 10 10 565 567 568 566
55 3 2 11 11 55 57 58 56
56 3 2 10 10 567 569 570 568
57 3 2 11 11 57 59 60 58
58 3 2 10 10 569 571 572 570
59 3 2 11 11 59 61 62 60
60 3 2 10 10 571 573 574 572
61 3 2 11 11 61 63 64 62
62 3 2 10 10 573 575 576 574
63 3 2 11 11 63 1 2 64
64 3 2 10 10 575 513 514 576
65 5 2 1 1 1 65 67 3 2 66 68 4
66 5 2 1 1 3 67 69 5 4 68 70 6
67 5 2 1 1 5 69 71 7 6 70 72 8
68 5 2 1 1 7 71 73 9 8 72 74 10
69 5 2 1 1 9 73 75 11 10 74 76 12
70 5 2 1 1 11 75 77 13 12 76 78 14
71 5 2 1 1 13 77 79 15 14 78 80 16
72 5 2 1 1 15 79 81 17 16 80 82 18
73 5 2 1 1 17 81 83 19 18 82 84 20
74 5 2 1 1 19 83 85 21 20 84 86 22
75 5 2 1 1 21 85 87 23 22 86 88 24
76 5 2 1 1 23 87 89 25 24 88 90 26
77 5 2 1 1 25 89 91 27 26 90 92 28
78 5 2 1 1 27 91 93 29 28 92 94 30
79 5 2 1 1 29 93 95 31 30 94 96 32
80 5 2 1 1 31 95 97 33 32 96 98 34
81 5 2 1 1 33 97 99 35 34 98 100 36
82 5 2 1 1 35 99 101 37 36 100 102 38
83 5 2 1 1 37 101 103 39 38 102 104 40
84 5 2 1 1 39 103 105 41 40 104 106 42
85 5 2 1 1 41 105 107 43 42 106 108 44
86 5 2 1 1 43 107 109 45 44 108 110 46
87 5 2 1 1 45 109 111 47 46 110 112 48
88 5 2 1 1 47 111 113 49 48 112 114 50
89 5 2 1 1 49 113 115 51 50 114 116 52
90 5 2 1 1 51 115 117 53 52 116 118 54
91 5 2 1 1 53 117 119 55 54 118 120 56
92 5 2 1 1 55 119 121 57 56 120 122 58
93 5 2 1 1 57 121 123 59 58 122 124 60
94 5 2 1 1 59 123 125 61 60 124 126 62
95 5 2 1 1 61 125 127 63 62 126 128 64
96 5 2 1 1 63 127 65 1 64 128 66 2
97 5 2 1 1 65 129 131 67 66 130 132 68
98 5 2 1 1 67 131 133 69 68 132 134 70
99 5 2 1 1 69 133 135 71 70 134 136 72
100 5 2 1 1 71 135 137 73 72 136 138 74
101 5 2 1 1 73 137 139 75 74 138 140 76
102 5 2 1 1 75 139 141 77 76 140 142 78
103 5 2 1 1 77 141 143 79 78 142 144 80
104 5 2 1 1 79 143 145 81 80 144 146 82
105 5 2 1 1 81 145 147 83 82 146 148 84
106 5 2 1 1 83 147 149 85 84 148 150 86
107 5 2 1 1 85 149 151 87 86 150 152 88
108 5 2 1 1 87 151 153 89 88 152 154 90
109 5 2 1 1 89 153 155 91 90 154 156 92
110 5 2 1 1 91 155 157 93 92 156 158 94
111 5 2 1 1 93 157 159 95 94 158 160 96
112 5 2 1 1 95 159 161 97 96 160 162 98
113 5 2 1 1 97 161 163 99 98 162 164 100
114 5 2 1 1 99 163 165 101 100 164 166 102
115 5 2 1 1 101 165 167 103 102 166 168 104
116 5 2 1 1 103 167 169 105 104 168 170 106
117 5 2 1 1 105 169 171 107 106 170 172 108
118 5 2 1 1 107 171 173 109 108 172 174 110
119 5 2 1 1 109 173 175 111 110 174 176 112
120 5 2 1 1 111 175 177 113 112 176 178 114
121 5 2 1 1 113 177 179 115 114 178 180 116
122 5 2 1 1 115 179 181 117 116 180 182 118
123 5 2 1 1 117 181 183 119 118 182 184 120
124 5 2 1 1 119 183 185 121 120 184 186 122
125 5 2 1 1 121 185 187 123 122 186 188 124
126 5 2 1 1 123 187 189 125 124 188 190 126
127 5 2 1 1 125 189 191 127 126 190 192 128
128 5 2 1 1 127 191 129 65 128 192 130 66
129 5 2 1 1 129 193 195 131 130 194 196 132
130 5 2 1 1 131 195 197 133 132 196 198 134
131 5 2 1 1 133 197 199 135 134 198 200 136
132 5 2 1 1 135 199 201 137 136 200 202 138
133 5 2 1 1 137 201 203 139 138 202 204 140
134 5 2 1 1 139 203 205 141 140 204 206 142
135 5 2 1 1 141 205 207 143 142 206 208 144
136 5 2 1 1 143 207 209 145 144 208 210 146
137 5 2 1 1 145 209 211 147 146 210 212 148
138 5 2 1 1 147 211 213 149 148 212 214 150
139 5 2 1 1 149 213 215 151 150 214 216 152
140 5 2 1 1 151 215 217 153 152 216 218 154
141 5 2 1 1 153 217 219 155 154 218 220 156
142 5 2 1 1 155 219 221 157 156 220 222 158
143 5 2 1 1 157 221 223 159 158 222 224 160
144 5 2 1 1 159 223 225 161 160 224 226 162
145 5 2 1 1 161 225 227 163 162 226 228 164
146 5 2 1 1 163 227 229 165 164 228 230 166
147 5 2 1 1 165 229 231 167 166 230 232 168
148 5 2 1 1 167 231 233 169 168 232 234 170
149 5 2 1 1 169 233 235 171 170 234 236 172
150 5 2 1 1 171 235 237 173 172 236 238 174
151 5 2 1 1 173 237 239 175 174 238 240 176
152 5 2 1 1 175 239 241 177 176 240 242 178
153 5 2 1 1 177 241 243 179 178 242 244 180
154 5 2 1 1 179 243 245 181 180 244 246 182
155 5 2 1 1 181 245 247 183 182 246 248 184
156 5 2 1 1 183 247 249 185 184 248 250 186
157 5 2 1 1 185 249 251 187 186 250 252 188
158 5 2 1 1 187 251 253 189 188 252 254 190
159 5 2 1 1 189 253 255 191 190 254 256 192
160 5 2 1 1 191 255 193 129 192 256 194 130
161 5 2 1 1 193 257 259 195 194 258 260 196
162 5 2 1 1 195 259 261 197 196 260 262 198
163 5 2 1 1 197 261 263 199 198 262 264 200
164 5 2 1 1 199 263 265 201 200 264 266 202
165 5 2 1 1 201 265 267 203 202 266 268 204
166 5 2 1 1 203 267 269 205 204 268 270 206
167 5 2 1 1 205 269 271 207 206 270 272 208
168 5 2 1 1 207 271 273 209 208 272 274 210
169 5 2 1 1 209 273 275 211 210 274 276 212
170 5 2 1 1 211 275 277 213 212 276 278 214
171 5 2 1 1 213 277 279 215 214 278 280 216
172 5 2 1 1 215 279 281 217 216 280 282 218
173 5 2 1 1 217 281 283 219 218 282 284 220
174 5 2 1 1 219 283 285 221 220 284 286 222
175 5 2 1 1 221 285 287 223 222 286 288 224
176 5 2 1 1 223 287 289 225 224 288 290 226
177 5 2 1 1 225 289 291 227 226 290 292 228
178 5 2 1 1 227 291 293 229 228 292 294 230
179 5 2 1 1 229 293 295 231 230 294 296 232
180 5 2 1 1 231 295 297 233 232 296 298 234
181 5 2 1 1 233 297 299 235 234 298 300 236
182 5 2 1 1 235 299 301 237 236 300 302 238
183 5 2 1 1 237 301 303 239 238 302 304 240
184 5 2 1 1 239 303 305 241 240 304 306 242
185 5 2 1 1 241 305 307 243 242 306 308 244
186 5 2 1 1 243 307 309 245 244 308 310 246
187 5 2 1 1 245 309 311 247 246 310 312 248
188 5 2 1 1 247 311 313 249 248 312 314 250
189 5 2 1 1 249 313 315 251 250 314 316 252
190 5 2 1 1 251 315 317 253 252 316 318 254
191 5 2 1 1 253 317 319 255 254 318 320 256
192 5 2 1 1 255 319 257 193 256 320 258 194
193 5 2 1 1 257 321 323 259 258 322 324 260
194 5 2 1 1 259 323 325 261 260 324 326 262
195 5 2 1 1 261 325 327 263 262 326 328 264
196 5 2 1 1 263 327 329 265 264 328 330 266
197 5 2 1 1 265 329 331 267 266 330 332 268
198 5 2 1 1 267 331 333 269 268 332 334 270
199 5 2 1 1 269 333 335 271 270 334 336 272
200 5 2 1 1 271 335 337 273 272 336 338 274
201 5 2 1 1 273 337 339 275 274 338 340 276
202 5 2 1 1 275 339 341 277 276 340 342 278
203 5 2 1 1 277 341 343 279 278 342 344 280
204 5 2 1 1 279 343 345 281 280 344 346 282
205 5 2 1 1 281 345 347 283 282 346 348 284
206 5 2 1 1 283 347 349 285 284 348 350 286
207 5 2 1 1 285 349 351 287 286 350 352 288
208 5 2 1 1 287 351 353 289 288 352 354 290
209 5 2 1 1 289 353 355 291 290 354 356 292
210 5 2 1 1 291 355 357 293 292 356 358 294
211 5 2 1 1 293 357 359 295 294 358 360 296
212 5 2 1 1 295 359 361 297 296 360 362 298
213 5 2 1 1 297 361 363 299 298 362 364 300
214 5 2 1 1 299 363 365 301 300 364 366 302
215 5 2 1 1 301 365 367 303 302 366 368 304
216 5 2 1 1 303 367 369 305 304 368 370 306
217 5 2 1 1 305 369 371 307 306 370 372 308
218 5 2 1 1 307 371 373 309 308 372 374 310
219 5 2 1 1 309 373 375 311 310 374 376 312
220 5 2 1 1 311 375 377 313 312 376 378 314
221 5 2 1 1 313 377 379 315 314 378 380 316
222 5 2 1 1 315 379 381 317 316 380 382 318
223 5 2 1 1 317 381 383 319 318 382 384 320
224 5 2 1 1 319 383 321 257 320 384 322 258
225 5 2 1 1 321 385 387 323 322 386 388 324
226 5 2 1 1 323 387 389 325 324 388 390 326
227 5 2 1 1 325 389 391 327 326 390 392 328
228 5 2 1 1 327 391 393 329 328 392 394 330
229 5 2 1 1 329 393 395 331 330 394 396 332
230 5 2 1 1 331 395 397 333 332 396 398 334
231 5 2 1 1 333 397 399 335 334 398 400 336
232 5 2 1 1 335 399 401 337 336 400 402 338
233 5 2 1 1 337 401 403 339 338 402 404 340
234 5 2 1 1 339 403 405 341 340 404 406 342
235 5 2 1 1 341 405 407 343 342 406 408 344
236 5 2 1 1 343 407 409 345 344 408 410 346
237 5 2 1 1 345 409 411 347 346 410 412 348
238 5 2 1 1 347 411 413 349 348 412 414 350
239 5 2 1 1 349 413 415 351 350 414 416 352
240 5 2 1 1 351 415 417 353 352 416 418 354
241 5 2 1 1 353 417 419 355 354 418 420 356
242 5 2 1 1 355 419 421 357 356 420 422 358
243 5 2 1 1 357 421 423 359 358 422 424 360
244 5 2 1 1 359 423 425 361 360 424 426 362
245 5 2 1 1 361 425 427 363 362 426 428 364
246 5 2 1 1 363 427 429 365 364 428 430 366
247 5 2 1 1 365 429 431 367 366 430 432 368
248 5 2 1 1 367 431 433 369 368 432 434 370
249 5 2 1 1 369 433 435 371 370 434 436 372
250 5 2 1 1 371 435 437 373 372 436 438 374
251 5 2 1 1 373 437 439 375 374 438 440 376
252 5 2 1 1 375 439 441 377 376 440 442 378
253 5 2 1 1 377 441 443 379 378 442 444 380
254 5 2 1 1 379 443 445 381 380 444 446 382
255 5 2 1 1 381 445 447 383 382 446 448 384
256 5 2 1 1 383 447 385 321 384 448 386 322
257 5 2 1 1 385 449 451 387 386 450 452 388
258 5 2 1 1 387 451 453 389 388 452 454 390
259 5 2 1 1 389 453 455 391 390 454 456 392
260 5 2 1 1 391 455 457 393 392 456 458 394
261 5 2 1 1 393 457 459 395 394 458 460 396
262 5 2 1 1 395 459 461 397 396 460 462 398
263 5 2 1 1 397 461 463 399 398 462 464 400
264 5 2 1 1 399 463 465 401 400 464 466 402
265 5 2 1 1 401 465 467 403 402 466 468 404
266 5 2 1 1 403 467 469 405 404 468 470 406
267 5 2 1 1 405 469 471 407 406 470 472 408
268 5 2 1 1 407 471 473 409 408 472 474 410
269 5 2 1 1 409 473 475 411 410 474 476 412
270 5 2 1 1 411 475 477 413 412 476 478 414
271 5 2 1 1 413 477 479 415 414 478 480 416
272 5 2 1 1 415 479 481 417 416 480 482 418
273 5 2 1 1 417 481 483 419 418 482 484 420
274 5 2 1 1 419 483 485 421 420 484 486 422
275 5 2 1 1 421 485 487 423 422 486 488 424
276 5 2 1 1 423 487 489 425 424 488 490 426
277 5 2 1 1 425 489 491 427 426 490 492 428
278 5 2 1 1 427 491 493 429 428 492 494 430
279 5 2 1 1 429 493 495 431 430 494 496 432
280 5 2 1 1 431 495 497 433 432 496 498 434
281 5 2 1 1 433 497 499 435 434 498 500 436
282 5 2 1 1 435 499 501 437 436 500 502 438
283 5 2 1 1 437 501 503 439 438 502 504 440
284 5 2 1 1 439 503 505 441 440 504 506 442
285 5 2 1 1 441 505 507 443 442 506 508 444
286 5 2 1 1 443 507 509 445 444 508 510 446
287 5 2 1 1 445 509 511 447 446 510 512 448
288 5 2 1 1 447 511 449 385 448 512 450 386
289 5 2 1 1 449 513 515 451 450 514 516 452
290 5 2 1 1 451 515 517 453 452 516 518 454
291 5 2 1 1 453 517 519 455 454 518 520 456
292 5 2 1 1 455 519 521 457 456 520 522 458
293 5 2 1 1 457 521 523 459 458 522 524 460
294 5 2 1 1 459 523 525 461 460 524 526 462
295 5 2 1 1 461 525 527 463 462 526 528 464
296 5 2 1 1 463 527 529 465 464 528 530 466
297 5 2 1 1 465 529 531 467 466 530 532 468
298 5 2 1 1 467 531 533 469 468 532 534 470
299 5 2 1 1 469 533 535 471 470 534 536 472
300 5 2 1 1 471 535 537 473 472 536 538 474
301 5 2 1 1 473 537 539 475 474 538 540 476
302 5 2 1 1 475 539 541 477 476 540 542 478
303 5 2 1 1 477 541 543 479 478 542 544 480
304 5 2 1 1 479 543 545 481 480 544 546 482
305 5 2 1 1 481 545 547 483 482 546 548 484
306 5 2 1 1 483 547 549 485 484 548 550 486
307 5 2 1 1 485 549 551 487 486 550 552 488
308 5 2 1 1 487 551 553 489 488 552 554 490
309 5 2 1 1 489 553 555 491 490 554 556 492
310 5 2 1 1 491 555 557 493 492 556 558 494
311 5 2 1 1 493 557 559 495 494 558 560 496
312 5 2 1 1 495 559 561 497 496 560 562 498
313 5 2 1 1 497 561 563 499 498 562 564 500
314 5 2 1 1 499 563 565 501 500 564 566 502
315 5 2 1 1 501 565 567 503 502 566 568 504
316 5 2 1 1 503 567 569 505 504 568 570 506
317 5 2 1 1 505 569 571 507 506 570 572 508
318 5 2 1 1 507 571 573 509 508 572 574 510
319 5 2 1 1 509 573 575 511 510 574 576 512
320 5 2 1 1 511 575 513 449 512 576 514 450
$EndElements
