$MeshFormat
2.2 0 8
$EndMeshFormat
$Nodes
120
1 0.0005 0 0
2 0.0005 0 0.0001
3 0.0004330127018922193 0.00025 0
4 0.0004330127018922193 0.00025 0.0001
5 0.0002500000000000001 0.0004330127018922193 0
6 0.0002500000000000001 0.0004330127018922193 0.0001
7 3.061616997868383e-20 0.0005 0
8 3.061616997868383e-20 0.0005 0.0001
9 -0.0002499999999999999 0.0004330127018922193 0
10 -0.0002499999999999999 0.0004330127018922193 0.0001
11 -0.0004330127018922193 0.00025 0
12 -0.0004330127018922193 0.00025 0.0001
13 -0.0005 6.123233995736766e-20 0
14 -0.0005 6.123233995736766e-20 0.0001
15 -0.0004330127018922194 -0.0002499999999999998 0
16 -0.0004330127018922194 -0.0002499999999999998 0.0001
17 -0.0002500000000000002 -0.0004330127018922192 0
18 -0.0002500000000000002 -0.0004330127018922192 0.0001
19 -9.184850993605149e-20 -0.0005 0
20 -9.184850993605149e-20 -0.0005 0.0001
21 0.0002500000000000001 -0.0004330127018922193 0
22 0.0002500000000000001 -0.0004330127018922193 0.0001
23 0.0004330127018922192 -0.0002500000000000002 0
24 0.0004330127018922192 -0.0002500000000000002 0.0001
25 0.0006580370064762462 0 0
26 0.0006580370064762462 0 0.0001
27 0.0005698767642386944 0.000329018503238123 0
28 0.0005698767642386944 0.000329018503238123 0.0001
29 0.0003290185032381231 0.0005698767642386943 0
30 0.0003290185032381231 0.0005698767642386943 0.0001
31 4.029314568508205e-20 0.0006580370064762462 0
32 4.029314568508205e-20 0.0006580370064762462 0.0001
33 -0.0003290185032381229 0.0005698767642386944 0
34 -0.0003290185032381229 0.0005698767642386944 0.0001
35 -0.0005698767642386944 0.000329018503238123 0
36 -0.0005698767642386944 0.000329018503238123 0.0001
37 -0.0006580370064762462 8.058629137016411e-20 0
38 -0.0006580370064762462 8.058629137016411e-20 0.0001
39 -0.0005698767642386944 -0.0003290185032381229 0
40 -0.0005698767642386944 -0.0003290185032381229 0.0001
41 -0.0003290185032381234 -0.0005698767642386942 0
42 -0.0003290185032381234 -0.0005698767642386942 0.0001
43 -1.208794370552461e-19 -0.0006580370064762462 0
44 -1.208794370552461e-19 -0.0006580370064762462 0.0001
45 0.0003290185032381231 -0.0005698767642386943 0
46 0.0003290185032381231 -0.0005698767642386943 0.0001
47 0.0005698767642386942 -0.0003290185032381234 0
48 0.0005698767642386942 -0.0003290185032381234 0.0001
49 0.0008660254037844386 0 0
50 0.0008660254037844386 0 0.0001
51 0.00075 0.0004330127018922192 0
52 0.00075 0.0004330127018922192 0.0001
53 0.0004330127018922194 0.0007499999999999999 0
54 0.0004330127018922194 0.0007499999999999999 0.0001
55 5.302876193624534e-20 0.0008660254037844386 0
56 5.302876193624534e-20 0.0008660254037844386 0.0001
57 -0.0004330127018922191 0.00075 0
58 -0.0004330127018922191 0.00075 0.0001
59 -0.00075 0.0004330127018922192 0
60 -0.00075 0.0004330127018922192 0.0001
61 -0.0008660254037844386 1.060575238724907e-19 0
62 -0.0008660254037844386 1.060575238724907e-19 0.0001
63 -0.0007500000000000001 -0.0004330127018922191 0
64 -0.0007500000000000001 -0.0004330127018922191 0.0001
65 -0.0004330127018922197 -0.0007499999999999997 0
66 -0.0004330127018922197 -0.0007499999999999997 0.0001
67 -1.59086285808736e-19 -0.0008660254037844386 0
68 -1.59086285808736e-19 -0.0008660254037844386 0.0001
69 0.0004330127018922194 -0.0007499999999999999 0
70 0.0004330127018922194 -0.0007499999999999999 0.0001
71 0.0007499999999999997 -0.0004330127018922197 0
72 0.0007499999999999997 -0.0004330127018922197 0.0001
73 0.001139753528477389 0 0
74 0.001139753528477389 0 0.0001
75 0.0009870555097143694 0.0005698767642386943 0
76 0.0009870555097143694 0.0005698767642386943 0.0001
77 0.0005698767642386945 0.0009870555097143694 0
78 0.0005698767642386945 0.0009870555097143694 0.0001
79 6.978977552333679e-20 0.001139753528477389 0
80 6.978977552333679e-20 0.001139753528477389 0.0001
81 -0.0005698767642386942 0.0009870555097143694 0
82 -0.0005698767642386942 0.0009870555097143694 0.0001
83 -0.0009870555097143694 0.0005698767642386943 0
84 -0.0009870555097143694 0.0005698767642386943 0.0001
85 -0.001139753528477389 1.395795510466736e-19 0
86 -0.001139753528477389 1.395795510466736e-19 0.0001
87 -0.0009870555097143696 -0.0005698767642386941 0
88 -0.0009870555097143696 -0.0005698767642386941 0.0001
89 -0.000569876764238695 -0.0009870555097143692 0
90 -0.000569876764238695 -0.0009870555097143692 0.0001
91 -2.093693265700104e-19 -0.001139753528477389 0
92 -2.093693265700104e-19 -0.001139753528477389 0.0001
93 0.0005698767642386945 -0.0009870555097143694 0
94 0.0005698767642386945 -0.0009870555097143694 0.0001
95 0.0009870555097143692 -0.000569876764238695 0
96 0.0009870555097143692 -0.000569876764238695 0.0001
97 0.0015 0 0
98 0.0015 0 0.0001
99 0.001299038105676658 0.0007499999999999999 0
100 0.001299038105676658 0.0007499999999999999 0.0001
101 0.0007500000000000002 0.001299038105676658 0
102 0.0007500000000000002 0.001299038105676658 0.0001
103 9.184850993605149e-20 0.0015 0
104 9.184850993605149e-20 0.0015 0.0001
105 -0.0007499999999999997 0.001299038105676658 0
106 -0.0007499999999999997 0.001299038105676658 0.0001
107 -0.001299038105676658 0.0007499999999999999 0
108 -0.001299038105676658 0.0007499999999999999 0.0001
109 -0.0015 1.83697019872103e-19 0
110 -0.0015 1.83697019872103e-19 0.0001
111 -0.001299038105676658 -0.0007499999999999996 0
112 -0.001299038105676658 -0.0007499999999999996 0.0001
113 -0.0007500000000000007 -0.001299038105676658 0
114 -0.0007500000000000007 -0.001299038105676658 0.0001
115 -2.755455298081544e-19 -0.0015 0
116 -2.755455298081544e-19 -0.0015 0.0001
117 0.0007500000000000002 -0.001299038105676658 0
118 0.0007500000000000002 -0.001299038105676658 0.0001
119 0.001299038105676658 -0.0007500000000000007 0
120 0.001299038105676658 -0.0007500000000000007 0.0001
$EndNodes
$Elements
336
1 2 2 11 11 1 3 4
2 2 2 11 11 1 4 2
3 2 2 10 10 97 99 100
4 2 2 10 10 97 100 98
5 2 2 11 11 3 5 6
6 2 2 11 11 3 6 4
7 2 2 10 10 99 101 102
8 2 2 10 10 99 102 100
9 2 2 11 11 5 7 8
10 2 2 11 11 5 8 6
11 2 2 10 10 101 103 104
12 2 2 10 10 101 104 102
13 2 2 11 11 7 9 10
14 2 2 11 11 7 10 8
15 2 2 10 10 103 105 106
16 2 2 10 10 103 106 104
17 2 2 11 11 9 11 12
18 2 2 11 11 9 12 10
19 2 2 10 10 105 107 108
20 2 2 10 10 105 108 106
21 2 2 11 11 11 13 14
22 2 2 11 11 11 14 12
23 2 2 10 10 107 109 110
24 2 2 10 10 107 110 108
25 2 2 11 11 13 15 16
26 2 2 11 11 13 16 14
27 2 2 10 10 109 111 112
28 2 2 10 10 109 112 110
29 2 2 11 11 15 17 18
30 2 2 11 11 15 18 16
31 2 2 10 10 111 113 114
32 2 2 10 10 111 114 112
33 2 2 11 11 17 19 20
34 2 2 11 11 17 20 18
35 2 2 10 10 113 115 116
36 2 2 10 10 113 116 114
37 2 2 11 11 19 21 22
38 2 2 11 11 19 22 20
39 2 2 10 10 115 117 118
40 2 2 10 10 115 118 116
41 2 2 11 11 21 23 24
42 2 2 11 11 21 24 22
43 2 2 10 10 117 119 120
44 2 2 10 10 117 120 118
45 2 2 11 11 23 1 2
46 2 2 11 11 23 2 24
47 2 2 10 10 119 97 98
48 2 2 10 10 119 98 120
49 4 2 1 1 1 25 27 28
50 4 2 1 1 1 25 28 26
51 4 2 1 1 1 26 28 2
52 4 2 1 1 1 27 3 4
53 4 2 1 1 1 27 4 28
54 4 2 1 1 1 28 4 2
55 4 2 1 1 3 27 29 30
56 4 2 1 1 3 27 30 28
57 4 2 1 1 3 28 30 4
58 4 2 1 1 3 29 5 6
59 4 2 1 1 3 29 6 30
60 4 2 1 1 3 30 6 4
61 4 2 1 1 5 29 31 32
62 4 2 1 1 5 29 32 30
63 4 2 1 1 5 30 32 6
64 4 2 1 1 5 31 7 8
65 4 2 1 1 5 31 8 32
66 4 2 1 1 5 32 8 6
67 4 2 1 1 7 31 33 34
68 4 2 1 1 7 31 34 32
69 4 2 1 1 7 32 34 8
70 4 2 1 1 7 33 9 10
71 4 2 1 1 7 33 10 34
72 4 2 1 1 7 34 10 8
73 4 2 1 1 9 33 35 36
74 4 2 1 1 9 33 36 34
75 4 2 1 1 9 34 36 10
76 4 2 1 1 9 35 11 12
77 4 2 1 1 9 35 12 36
78 4 2 1 1 9 36 12 10
79 4 2 1 1 11 35 37 38
80 4 2 1 1 11 35 38 36
81 4 2 1 1 11 36 38 12
82 4 2 1 1 11 37 13 14
83 4 2 1 1 11 37 14 38
84 4 2 1 1 11 38 14 12
85 4 2 1 1 13 37 39 40
86 4 2 1 1 13 37 40 38
87 4 2 1 1 13 38 40 14
88 4 2 1 1 13 39 15 16
89 4 2 1 1 13 39 16 40
90 4 2 1 1 13 40 16 14
91 4 2 1 1 15 39 41 42
92 4 2 1 1 15 39 42 40
93 4 2 1 1 15 40 42 16
94 4 2 1 1 15 41 17 18
95 4 2 1 1 15 41 18 42
96 4 2 1 1 15 42 18 16
97 4 2 1 1 17 41 43 44
98 4 2 1 1 17 41 44 42
99 4 2 1 1 17 42 44 18
100 4 2 1 1 17 43 19 20
101 4 2 1 1 17 43 20 44
102 4 2 1 1 17 44 20 18
103 4 2 1 1 19 43 45 46
104 4 2 1 1 19 43 46 44
105 4 2 1 1 19 44 46 20
106 4 2 1 1 19 45 21 22
107 4 2 1 1 19 45 22 46
108 4 2 1 1 19 46 22 20
109 4 2 1 1 21 45 47 48
110 4 2 1 1 21 45 48 46
111 4 2 1 1 21 46 48 22
112 4 2 1 1 21 47 23 24
113 4 2 1 1 21 47 24 48
114 4 2 1 1 21 48 24 22
115 4 2 1 1 23 47 25 26
116 4 2 1 1 23 47 26 48
117 4 2 1 1 23 48 26 24
118 4 2 1 1 23 25 1 2
119 4 2 1 1 23 25 2 26
120 4 2 1 1 23 26 2 24
121 4 2 1 1 25 49 51 52
122 4 2 1 1 25 49 52 50
123 4 2 1 1 25 50 52 26
124 4 2 1 1 25 51 27 28
125 4 2 1 1 25 51 28 52
126 4 2 1 1 25 52 28 26
127 4 2 1 1 27 51 53 54
128 4 2 1 1 27 51 54 52
129 4 2 1 1 27 52 54 28
130 4 2 1 1 27 53 29 30
131 4 2 1 1 27 53 30 54
132 4 2 1 1 27 54 30 28
133 4 2 1 1 29 53 55 56
134 4 2 1 1 29 53 56 54
135 4 2 1 1 29 54 56 30
136 4 2 1 1 29 55 31 32
137 4 2 1 1 29 55 32 56
138 4 2 1 1 29 56 32 30
139 4 2 1 1 31 55 57 58
140 4 2 1 1 31 55 58 56
141 4 2 1 1 31 56 58 32
142 4 2 1 1 31 57 33 34
143 4 2 1 1 31 57 34 58
144 4 2 1 1 31 58 34 32
145 4 2 1 1 33 57 59 60
146 4 2 1 1 33 57 60 58
147 4 2 1 1 33 58 60 34
148 4 2 1 1 33 59 35 36
149 4 2 1 1 33 59 36 60
150 4 2 1 1 33 60 36 34
151 4 2 1 1 35 59 61 62
152 4 2 1 1 35 59 62 60
153 4 2 1 1 35 60 62 36
154 4 2 1 1 35 61 37 38
155 4 2 1 1 35 61 38 62
156 4 2 1 1 35 62 38 36
157 4 2 1 1 37 61 63 64
158 4 2 1 1 37 61 64 62
159 4 2 1 1 37 62 64 38
160 4 2 1 1 37 63 39 40
161 4 2 1 1 37 63 40 64
162 4 2 1 1 37 64 40 38
163 4 2 1 1 39 63 65 66
164 4 2 1 1 39 63 66 64
165 4 2 1 1 39 64 66 40
166 4 2 1 1 39 65 41 42
167 4 2 1 1 39 65 42 66
168 4 2 1 1 39 66 42 40
169 4 2 1 1 41 65 67 68
170 4 2 1 1 41 65 68 66
171 4 2 1 1 41 66 68 42
172 4 2 1 1 41 67 43 44
173 4 2 1 1 41 67 44 68
174 4 2 1 1 41 68 44 42
175 4 2 1 1 43 67 69 70
176 4 2 1 1 43 67 70 68
177 4 2 1 1 43 68 70 44
178 4 2 1 1 43 69 45 46
179 4 2 1 1 43 69 46 70
180 4 2 1 1 43 70 46 44
181 4 2 1 1 45 69 71 72
182 4 2 1 1 45 69 72 70
183 4 2 1 1 45 70 72 46
184 4 2 1 1 45 71 47 48
185 4 2 1 1 45 71 48 72
186 4 2 1 1 45 72 48 46
187 4 2 1 1 47 71 49 50
188 4 2 1 1 47 71 50 72
189 4 2 1 1 47 72 50 48
190 4 2 1 1 47 49 25 26
191 4 2 1 1 47 49 26 50
192 4 2 1 1 47 50 26 48
193 4 2 1 1 49 73 75 76
194 4 2 1 1 49 73 76 74
195 4 2 1 1 49 74 76 50
196 4 2 1 1 49 75 51 52
197 4 2 1 1 49 75 52 76
198 4 2 1 1 49 76 52 50
199 4 2 1 1 51 75 77 78
200 4 2 1 1 51 75 78 76
201 4 2 1 1 51 76 78 52
202 4 2 1 1 51 77 53 54
203 4 2 1 1 51 77 54 78
204 4 2 1 1 51 78 54 52
205 4 2 1 1 53 77 79 80
206 4 2 1 1 53 77 80 78
207 4 2 1 1 53 78 80 54
208 4 2 1 1 53 79 55 56
209 4 2 1 1 53 79 56 80
210 4 2 1 1 53 80 56 54
211 4 2 1 1 55 79 81 82
212 4 2 1 1 55 79 82 80
213 4 2 1 1 55 80 82 56
214 4 2 1 1 55 81 57 58
215 4 2 1 1 55 81 58 82
216 4 2 1 1 55 82 58 56
217 4 2 1 1 57 81 83 84
218 4 2 1 1 57 81 84 82
219 4 2 1 1 57 82 84 58
220 4 2 1 1 57 83 59 60
221 4 2 1 1 57 83 60 84
222 4 2 1 1 57 84 60 58
223 4 2 1 1 59 83 85 86
224 4 2 1 1 59 83 86 84
225 4 2 1 1 59 84 86 60
226 4 2 1 1 59 85 61 62
227 4 2 1 1 59 85 62 86
228 4 2 1 1 59 86 62 60
229 4 2 1 1 61 85 87 88
230 4 2 1 1 61 85 88 86
231 4 2 1 1 61 86 88 62
232 4 2 1 1 61 87 63 64
233 4 2 1 1 61 87 64 88
234 4 2 1 1 61 88 64 62
235 4 2 1 1 63 87 89 90
236 4 2 1 1 63 87 90 88
237 4 2 1 1 63 88 90 64
238 4 2 1 1 63 89 65 66
239 4 2 1 1 63 89 66 90
240 4 2 1 1 63 90 66 64
241 4 2 1 1 65 89 91 92
242 4 2 1 1 65 89 92 90
243 4 2 1 1 65 90 92 66
244 4 2 1 1 65 91 67 68
245 4 2 1 1 65 91 68 92
246 4 2 1 1 65 92 68 66
247 4 2 1 1 67 91 93 94
248 4 2 1 1 67 91 94 92
249 4 2 1 1 67 92 94 68
250 4 2 1 1 67 93 69 70
251 4 2 1 1 67 93 70 94
252 4 2 1 1 67 94 70 68
253 4 2 1 1 69 93 95 96
254 4 2 1 1 69 93 96 94
255 4 2 1 1 69 94 96 70
256 4 2 1 1 69 95 71 72
257 4 2 1 1 69 95 72 96
258 4 2 1 1 69 96 72 70
259 4 2 1 1 71 95 73 74
260 4 2 1 1 71 95 74 96
261 4 2 1 1 71 96 74 72
262 4 2 1 1 71 73 49 50
263 4 2 1 1 71 73 50 74
264 4 2 1 1 71 74 50 72
265 4 2 1 1 73 97 99 100
266 4 2 1 1 73 97 100 98
267 4 2 1 1 73 98 100 74
268 4 2 1 1 73 99 75 76
269 4 2 1 1 73 99 76 100
270 4 2 1 1 73 100 76 74
271 4 2 1 1 75 99 101 102
272 4 2 1 1 75 99 102 100
273 4 2 1 1 75 100 102 76
274 4 2 1 1 75 101 77 78
275 4 2 1 1 75 101 78 102
276 4 2 1 1 75 102 78 76
277 4 2 1 1 77 101 103 104
278 4 2 1 1 77 101 104 102
279 4 2 1 1 77 102 104 78
280 4 2 1 1 77 103 79 80
281 4 2 1 1 77 103 80 104
282 4 2 1 1 77 104 80 78
283 4 2 1 1 79 103 105 106
284 4 2 1 1 79 103 106 104
285 4 2 1 1 79 104 106 80
286 4 2 1 1 79 105 81 82
287 4 2 1 1 79 105 82 106
288 4 2 1 1 79 106 82 80
289 4 2 1 1 81 105 107 108
290 4 2 1 1 81 105 108 106
291 4 2 1 1 81 106 108 82
292 4 2 1 1 81 107 83 84
293 4 2 1 1 81 107 84 108
294 4 2 1 1 81 108 84 82
295 4 2 1 1 83 107 109 110
296 4 2 1 1 83 107 110 108
297 4 2 1 1 83 108 110 84
298 4 2 1 1 83 109 85 86
299 4 2 1 1 83 109 86 110
300 4 2 1 1 83 110 86 84
301 4 2 1 1 85 109 111 112
302 4 2 1 1 85 109 112 110
303 4 2 1 1 85 110 112 86
304 4 2 1 1 85 111 87 88
305 4 2 1 1 85 111 88 112
306 4 2 1 1 85 112 88 86
307 4 2 1 1 87 111 113 114
308 4 2 1 1 87 111 114 112
309 4 2 1 1 87 112 114 88
310 4 2 1 1 87 113 89 90
311 4 2 1 1 87 113 90 114
312 4 2 1 1 87 114 90 88
313 4 2 1 1 89 113 115 116
314 4 2 1 1 89 113 116 114
315 4 2 1 1 89 114 116 90
316 4 2 1 1 89 115 91 92
317 4 2 1 1 89 115 92 116
318 4 2 1 1 89 116 92 90
319 4 2 1 1 91 115 117 118
320 4 2 1 1 91 115 118 116
321 4 2 1 1 91 116 118 92
322 4 2 1 1 91 117 93 94
323 4 2 1 1 91 117 94 118
324 4 2 1 1 91 118 94 92
325 4 2 1 1 93 117 119 120
326 4 2 1 1 93 117 120 118
327 4 2 1 1 93 118 120 94
328 4 2 1 1 93 119 95 96
329 4 2 1 1 93 119 96 120
330 4 2 1 1 93 120 96 94
331 4 2 1 1 95 119 97 98
332 4 2 1 1 95 119 98 120
333 4 2 1 1 95 120 98 96
334 4 2 1 1 95 97 73 74
335 4 2 1 1 95 97 74 98
336 4 2 1 1 95 98 74 96
$EndElements
