$MeshFormat
2.2 0 8
$EndMeshFormat
$Nodes
648
1 0.0005 0 0
2 0.0006580370064762462 0 0
3 0.0005698767642386944 0.000329018503238123 0
4 0.0004330127018922193 0.00025 0
5 0.0005 0 0.0001
6 0.0006580370064762462 0 0.0001
7 0.0005698767642386944 0.000329018503238123 0.0001
8 0.0004330127018922193 0.00025 0.0001
9 0.0005736013452199385 0 0
10 0.0004829629131445342 0.0001294095225512604 0
11 0.0005 0 5e-05
12 0.000635614939209353 0.0001703125096583033 0
13 0.0006580370064762462 0 5e-05
14 0.0004967533366053946 0.0002868006726099692 0
15 0.0005698767642386944 0.000329018503238123 5e-05
16 0.0004330127018922193 0.00025 5e-05
17 0.0005736013452199385 0 0.0001
18 0.0004829629131445342 0.0001294095225512604 0.0001
19 0.000635614939209353 0.0001703125096583033 0.0001
20 0.0004967533366053946 0.0002868006726099692 0.0001
21 0.0005540563533420902 0.0001484589524393458 0
22 0.0005736013452199385 0 5e-05
23 0.0004829629131445342 0.0001294095225512604 5e-05
24 0.000635614939209353 0.0001703125096583033 5e-05
25 0.0004967533366053946 0.0002868006726099692 5e-05
26 0.0005540563533420902 0.0001484589524393458 0.0001
27 0.0005540563533420902 0.0001484589524393458 5e-05
28 0.0003290185032381231 0.0005698767642386943 0
29 0.0002500000000000001 0.0004330127018922193 0
30 0.0003290185032381231 0.0005698767642386943 0.0001
31 0.0002500000000000001 0.0004330127018922193 0.0001
32 0.0003535533905932738 0.0003535533905932738 0
33 0.0004653024295510498 0.0004653024295510497 0
34 0.0002868006726099693 0.0004967533366053944 0
35 0.0003290185032381231 0.0005698767642386943 5e-05
36 0.0002500000000000001 0.0004330127018922193 5e-05
37 0.0003535533905932738 0.0003535533905932738 0.0001
38 0.0004653024295510498 0.0004653024295510497 0.0001
39 0.0002868006726099693 0.0004967533366053944 0.0001
40 0.0004055974009027444 0.0004055974009027444 0
41 0.0003535533905932738 0.0003535533905932738 5e-05
42 0.0004653024295510498 0.0004653024295510497 5e-05
43 0.0002868006726099693 0.0004967533366053944 5e-05
44 0.0004055974009027444 0.0004055974009027444 0.0001
45 0.0004055974009027444 0.0004055974009027444 5e-05
46 4.029314568508205e-20 0.0006580370064762462 0
47 3.061616997868383e-20 0.0005 0
48 4.029314568508205e-20 0.0006580370064762462 0.0001
49 3.061616997868383e-20 0.0005 0.0001
50 0.0001294095225512604 0.0004829629131445342 0
51 0.0001703125096583033 0.000635614939209353 0
52 3.512295257051068e-20 0.0005736013452199385 0
53 4.029314568508205e-20 0.0006580370064762462 5e-05
54 3.061616997868383e-20 0.0005 5e-05
55 0.0001294095225512604 0.0004829629131445342 0.0001
56 0.0001703125096583033 0.000635614939209353 0.0001
57 3.512295257051068e-20 0.0005736013452199385 0.0001
58 0.0001484589524393458 0.0005540563533420902 0
59 0.0001294095225512604 0.0004829629131445342 5e-05
60 0.0001703125096583033 0.000635614939209353 5e-05
61 3.512295257051068e-20 0.0005736013452199385 5e-05
62 0.0001484589524393458 0.0005540563533420902 0.0001
63 0.0001484589524393458 0.0005540563533420902 5e-05
64 -0.0003290185032381229 0.0005698767642386944 0
65 -0.0002499999999999999 0.0004330127018922193 0
66 -0.0003290185032381229 0.0005698767642386944 0.0001
67 -0.0002499999999999999 0.0004330127018922193 0.0001
68 -0.0001294095225512603 0.0004829629131445342 0
69 -0.0001703125096583032 0.000635614939209353 0
70 -0.0002868006726099692 0.0004967533366053946 0
71 -0.0003290185032381229 0.0005698767642386944 5e-05
72 -0.0002499999999999999 0.0004330127018922193 5e-05
73 -0.0001294095225512603 0.0004829629131445342 0.0001
74 -0.0001703125096583032 0.000635614939209353 0.0001
75 -0.0002868006726099692 0.0004967533366053946 0.0001
76 -0.0001484589524393458 0.0005540563533420902 0
77 -0.0001294095225512603 0.0004829629131445342 5e-05
78 -0.0001703125096583032 0.000635614939209353 5e-05
79 -0.0002868006726099692 0.0004967533366053946 5e-05
80 -0.0001484589524393458 0.0005540563533420902 0.0001
81 -0.0001484589524393458 0.0005540563533420902 5e-05
82 -0.0005698767642386944 0.000329018503238123 0
83 -0.0004330127018922193 0.00025 0
84 -0.0005698767642386944 0.000329018503238123 0.0001
85 -0.0004330127018922193 0.00025 0.0001
86 -0.0003535533905932738 0.0003535533905932738 0
87 -0.0004653024295510497 0.0004653024295510498 0
88 -0.0004967533366053946 0.0002868006726099692 0
89 -0.0005698767642386944 0.000329018503238123 5e-05
90 -0.0004330127018922193 0.00025 5e-05
91 -0.0003535533905932738 0.0003535533905932738 0.0001
92 -0.0004653024295510497 0.0004653024295510498 0.0001
93 -0.0004967533366053946 0.0002868006726099692 0.0001
94 -0.0004055974009027444 0.0004055974009027444 0
95 -0.0003535533905932738 0.0003535533905932738 5e-05
96 -0.0004653024295510497 0.0004653024295510498 5e-05
97 -0.0004967533366053946 0.0002868006726099692 5e-05
98 -0.0004055974009027444 0.0004055974009027444 0.0001
99 -0.0004055974009027444 0.0004055974009027444 5e-05
100 -0.0006580370064762462 8.058629137016411e-20 0
101 -0.0005 6.123233995736766e-20 0
102 -0.0006580370064762462 8.058629137016411e-20 0.0001
103 -0.0005 6.123233995736766e-20 0.0001
104 -0.0004829629131445341 0.0001294095225512605 0
105 -0.000635614939209353 0.0001703125096583035 0
106 -0.0005736013452199385 7.024590514102137e-20 0
107 -0.0006580370064762462 8.058629137016411e-20 5e-05
108 -0.0005 6.123233995736766e-20 5e-05
109 -0.0004829629131445341 0.0001294095225512605 0.0001
110 -0.000635614939209353 0.0001703125096583035 0.0001
111 -0.0005736013452199385 7.024590514102137e-20 0.0001
112 -0.0005540563533420902 0.000148458952439346 0
113 -0.0004829629131445341 0.0001294095225512605 5e-05
114 -0.000635614939209353 0.0001703125096583035 5e-05
115 -0.0005736013452199385 7.024590514102137e-20 5e-05
116 -0.0005540563533420902 0.000148458952439346 0.0001
117 -0.0005540563533420902 0.000148458952439346 5e-05
118 -0.0005698767642386944 -0.0003290185032381229 0
119 -0.0004330127018922194 -0.0002499999999999998 0
120 -0.0005698767642386944 -0.0003290185032381229 0.0001
121 -0.0004330127018922194 -0.0002499999999999998 0.0001
122 -0.0004829629131445342 -0.0001294095225512604 0
123 -0.000635614939209353 -0.0001703125096583033 0
124 -0.0004967533366053946 -0.0002868006726099691 0
125 -0.0005698767642386944 -0.0003290185032381229 5e-05
126 -0.0004330127018922194 -0.0002499999999999998 5e-05
127 -0.0004829629131445342 -0.0001294095225512604 0.0001
128 -0.000635614939209353 -0.0001703125096583033 0.0001
129 -0.0004967533366053946 -0.0002868006726099691 0.0001
130 -0.0005540563533420902 -0.0001484589524393459 0
131 -0.0004829629131445342 -0.0001294095225512604 5e-05
132 -0.000635614939209353 -0.0001703125096583033 5e-05
133 -0.0004967533366053946 -0.0002868006726099691 5e-05
134 -0.0005540563533420902 -0.0001484589524393459 0.0001
135 -0.0005540563533420902 -0.0001484589524393459 5e-05
136 -0.0003290185032381234 -0.0005698767642386942 0
137 -0.0002500000000000002 -0.0004330127018922192 0
138 -0.0003290185032381234 -0.0005698767642386942 0.0001
139 -0.0002500000000000002 -0.0004330127018922192 0.0001
140 -0.000353553390593274 -0.0003535533905932736 0
141 -0.00046530242955105 -0.0004653024295510495 0
142 -0.0002868006726099695 -0.0004967533366053943 0
143 -0.0003290185032381234 -0.0005698767642386942 5e-05
144 -0.0002500000000000002 -0.0004330127018922192 5e-05
145 -0.000353553390593274 -0.0003535533905932736 0.0001
146 -0.00046530242955105 -0.0004653024295510495 0.0001
147 -0.0002868006726099695 -0.0004967533366053943 0.0001
148 -0.0004055974009027446 -0.0004055974009027442 0
149 -0.000353553390593274 -0.0003535533905932736 5e-05
150 -0.00046530242955105 -0.0004653024295510495 5e-05
151 -0.0002868006726099695 -0.0004967533366053943 5e-05
152 -0.0004055974009027446 -0.0004055974009027442 0.0001
153 -0.0004055974009027446 -0.0004055974009027442 5e-05
154 -1.208794370552461e-19 -0.0006580370064762462 0
155 -9.184850993605149e-20 -0.0005 0
156 -1.208794370552461e-19 -0.0006580370064762462 0.0001
157 -9.184850993605149e-20 -0.0005 0.0001
158 -0.0001294095225512603 -0.0004829629131445342 0
159 -0.0001703125096583032 -0.000635614939209353 0
160 -1.05368857711532e-19 -0.0005736013452199385 0
161 -1.208794370552461e-19 -0.0006580370064762462 5e-05
162 -9.184850993605149e-20 -0.0005 5e-05
163 -0.0001294095225512603 -0.0004829629131445342 0.0001
164 -0.0001703125096583032 -0.000635614939209353 0.0001
165 -1.05368857711532e-19 -0.0005736013452199385 0.0001
166 -0.0001484589524393458 -0.0005540563533420902 0
167 -0.0001294095225512603 -0.0004829629131445342 5e-05
168 -0.0001703125096583032 -0.000635614939209353 5e-05
169 -1.05368857711532e-19 -0.0005736013452199385 5e-05
170 -0.0001484589524393458 -0.0005540563533420902 0.0001
171 -0.0001484589524393458 -0.0005540563533420902 5e-05
172 0.0003290185032381231 -0.0005698767642386943 0
173 0.0002500000000000001 -0.0004330127018922193 0
174 0.0003290185032381231 -0.0005698767642386943 0.0001
175 0.0002500000000000001 -0.0004330127018922193 0.0001
176 0.0001294095225512602 -0.0004829629131445342 0
177 0.000170312509658303 -0.0006356149392093531 0
178 0.0002868006726099693 -0.0004967533366053944 0
179 0.0003290185032381231 -0.0005698767642386943 5e-05
180 0.0002500000000000001 -0.0004330127018922193 5e-05
181 0.0001294095225512602 -0.0004829629131445342 0.0001
182 0.000170312509658303 -0.0006356149392093531 0.0001
183 0.0002868006726099693 -0.0004967533366053944 0.0001
184 0.0001484589524393456 -0.0005540563533420903 0
185 0.0001294095225512602 -0.0004829629131445342 5e-05
186 0.000170312509658303 -0.0006356149392093531 5e-05
187 0.0002868006726099693 -0.0004967533366053944 5e-05
188 0.0001484589524393456 -0.0005540563533420903 0.0001
189 0.0001484589524393456 -0.0005540563533420903 5e-05
190 0.0005698767642386942 -0.0003290185032381234 0
191 0.0004330127018922192 -0.0002500000000000002 0
192 0.0005698767642386942 -0.0003290185032381234 0.0001
193 0.0004330127018922192 -0.0002500000000000002 0.0001
194 0.0003535533905932737 -0.0003535533905932739 0
195 0.0004653024295510496 -0.0004653024295510499 0
196 0.0004967533366053943 -0.0002868006726099695 0
197 0.0005698767642386942 -0.0003290185032381234 5e-05
198 0.0004330127018922192 -0.0002500000000000002 5e-05
199 0.0003535533905932737 -0.0003535533905932739 0.0001
200 0.0004653024295510496 -0.0004653024295510499 0.0001
201 0.0004967533366053943 -0.0002868006726099695 0.0001
202 0.0004055974009027443 -0.0004055974009027445 0
203 0.0003535533905932737 -0.0003535533905932739 5e-05
204 0.0004653024295510496 -0.0004653024295510499 5e-05
205 0.0004967533366053943 -0.0002868006726099695 5e-05
206 0.0004055974009027443 -0.0004055974009027445 0.0001
207 0.0004055974009027443 -0.0004055974009027445 5e-05
208 0.000482962913144534 -0.0001294095225512608 0
209 0.0006356149392093529 -0.0001703125096583038 0
210 0.000482962913144534 -0.0001294095225512608 0.0001
211 0.0006356149392093529 -0.0001703125096583038 0.0001
212 0.0005540563533420901 -0.0001484589524393463 0
213 0.000482962913144534 -0.0001294095225512608 5e-05
214 0.0006356149392093529 -0.0001703125096583038 5e-05
215 0.0005540563533420901 -0.0001484589524393463 0.0001
216 0.0005540563533420901 -0.0001484589524393463 5e-05
217 0.0008660254037844386 0 0
218 0.00075 0.0004330127018922192 0
219 0.0008660254037844386 0 0.0001
220 0.00075 0.0004330127018922192 0.0001
221 0.0007549018242385525 0 0
222 0.0008365163037378078 0.0002241438680420133 0
223 0.0008660254037844386 0 5e-05
224 0.0006537641571538018 0.0003774509121192762 0
225 0.00075 0.0004330127018922192 5e-05
226 0.0007549018242385525 0 0.0001
227 0.0008365163037378078 0.0002241438680420133 0.0001
228 0.0006537641571538018 0.0003774509121192762 0.0001
229 0.0007291791683447489 0.0001953829692955731 0
230 0.0007549018242385525 0 5e-05
231 0.0008365163037378078 0.0002241438680420133 5e-05
232 0.0006537641571538018 0.0003774509121192762 5e-05
233 0.0007291791683447489 0.0001953829692955731 0.0001
234 0.0007291791683447489 0.0001953829692955731 5e-05
235 0.0004330127018922194 0.0007499999999999999 0
236 0.0004330127018922194 0.0007499999999999999 0.0001
237 0.0006123724356957946 0.0006123724356957945 0
238 0.0003774509121192764 0.0006537641571538017 0
239 0.0004330127018922194 0.0007499999999999999 5e-05
240 0.0006123724356957946 0.0006123724356957945 0.0001
241 0.0003774509121192764 0.0006537641571538017 0.0001
242 0.0005337961990491757 0.0005337961990491757 0
243 0.0006123724356957946 0.0006123724356957945 5e-05
244 0.0003774509121192764 0.0006537641571538017 5e-05
245 0.0005337961990491757 0.0005337961990491757 0.0001
246 0.0005337961990491757 0.0005337961990491757 5e-05
247 5.302876193624534e-20 0.0008660254037844386 0
248 5.302876193624534e-20 0.0008660254037844386 0.0001
249 0.0002241438680420133 0.0008365163037378078 0
250 4.622440513621206e-20 0.0007549018242385525 0
251 5.302876193624534e-20 0.0008660254037844386 5e-05
252 0.0002241438680420133 0.0008365163037378078 0.0001
253 4.622440513621206e-20 0.0007549018242385525 0.0001
254 0.0001953829692955731 0.0007291791683447489 0
255 0.0002241438680420133 0.0008365163037378078 5e-05
256 4.622440513621206e-20 0.0007549018242385525 5e-05
257 0.0001953829692955731 0.0007291791683447489 0.0001
258 0.0001953829692955731 0.0007291791683447489 5e-05
259 -0.0004330127018922191 0.00075 0
260 -0.0004330127018922191 0.00075 0.0001
261 -0.0002241438680420132 0.0008365163037378078 0
262 -0.0003774509121192761 0.0006537641571538018 0
263 -0.0004330127018922191 0.00075 5e-05
264 -0.0002241438680420132 0.0008365163037378078 0.0001
265 -0.0003774509121192761 0.0006537641571538018 0.0001
266 -0.000195382969295573 0.0007291791683447489 0
267 -0.0002241438680420132 0.0008365163037378078 5e-05
268 -0.0003774509121192761 0.0006537641571538018 5e-05
269 -0.000195382969295573 0.0007291791683447489 0.0001
270 -0.000195382969295573 0.0007291791683447489 5e-05
271 -0.00075 0.0004330127018922192 0
272 -0.00075 0.0004330127018922192 0.0001
273 -0.0006123724356957945 0.0006123724356957946 0
274 -0.0006537641571538018 0.0003774509121192762 0
275 -0.00075 0.0004330127018922192 5e-05
276 -0.0006123724356957945 0.0006123724356957946 0.0001
277 -0.0006537641571538018 0.0003774509121192762 0.0001
278 -0.0005337961990491757 0.0005337961990491757 0
279 -0.0006123724356957945 0.0006123724356957946 5e-05
280 -0.0006537641571538018 0.0003774509121192762 5e-05
281 -0.0005337961990491757 0.0005337961990491757 0.0001
282 -0.0005337961990491757 0.0005337961990491757 5e-05
283 -0.0008660254037844386 1.060575238724907e-19 0
284 -0.0008660254037844386 1.060575238724907e-19 0.0001
285 -0.0008365163037378077 0.0002241438680420136 0
286 -0.0007549018242385525 9.244881027242412e-20 0
287 -0.0008660254037844386 1.060575238724907e-19 5e-05
288 -0.0008365163037378077 0.0002241438680420136 0.0001
289 -0.0007549018242385525 9.244881027242412e-20 0.0001
290 -0.0007291791683447488 0.0001953829692955733 0
291 -0.0008365163037378077 0.0002241438680420136 5e-05
292 -0.0007549018242385525 9.244881027242412e-20 5e-05
293 -0.0007291791683447488 0.0001953829692955733 0.0001
294 -0.0007291791683447488 0.0001953829692955733 5e-05
295 -0.0007500000000000001 -0.0004330127018922191 0
296 -0.0007500000000000001 -0.0004330127018922191 0.0001
297 -0.0008365163037378078 -0.0002241438680420134 0
298 -0.0006537641571538019 -0.000377450912119276 0
299 -0.0007500000000000001 -0.0004330127018922191 5e-05
300 -0.0008365163037378078 -0.0002241438680420134 0.0001
301 -0.0006537641571538019 -0.000377450912119276 0.0001
302 -0.0007291791683447489 -0.0001953829692955731 0
303 -0.0008365163037378078 -0.0002241438680420134 5e-05
304 -0.0006537641571538019 -0.000377450912119276 5e-05
305 -0.0007291791683447489 -0.0001953829692955731 0.0001
306 -0.0007291791683447489 -0.0001953829692955731 5e-05
307 -0.0004330127018922197 -0.0007499999999999997 0
308 -0.0004330127018922197 -0.0007499999999999997 0.0001
309 -0.0006123724356957948 -0.0006123724356957941 0
310 -0.0003774509121192766 -0.0006537641571538015 0
311 -0.0004330127018922197 -0.0007499999999999997 5e-05
312 -0.0006123724356957948 -0.0006123724356957941 0.0001
313 -0.0003774509121192766 -0.0006537641571538015 0.0001
314 -0.000533796199049176 -0.0005337961990491754 0
315 -0.0006123724356957948 -0.0006123724356957941 5e-05
316 -0.0003774509121192766 -0.0006537641571538015 5e-05
317 -0.000533796199049176 -0.0005337961990491754 0.0001
318 -0.000533796199049176 -0.0005337961990491754 5e-05
319 -1.59086285808736e-19 -0.0008660254037844386 0
320 -1.59086285808736e-19 -0.0008660254037844386 0.0001
321 -0.0002241438680420132 -0.0008365163037378078 0
322 -1.386732154086362e-19 -0.0007549018242385525 0
323 -1.59086285808736e-19 -0.0008660254037844386 5e-05
324 -0.0002241438680420132 -0.0008365163037378078 0.0001
325 -1.386732154086362e-19 -0.0007549018242385525 0.0001
326 -0.000195382969295573 -0.0007291791683447489 0
327 -0.0002241438680420132 -0.0008365163037378078 5e-05
328 -1.386732154086362e-19 -0.0007549018242385525 5e-05
329 -0.000195382969295573 -0.0007291791683447489 0.0001
330 -0.000195382969295573 -0.0007291791683447489 5e-05
331 0.0004330127018922194 -0.0007499999999999999 0
332 0.0004330127018922194 -0.0007499999999999999 0.0001
333 0.000224143868042013 -0.0008365163037378079 0
334 0.0003774509121192764 -0.0006537641571538017 0
335 0.0004330127018922194 -0.0007499999999999999 5e-05
336 0.000224143868042013 -0.0008365163037378079 0.0001
337 0.0003774509121192764 -0.0006537641571538017 0.0001
338 0.0001953829692955728 -0.0007291791683447489 0
339 0.000224143868042013 -0.0008365163037378079 5e-05
340 0.0003774509121192764 -0.0006537641571538017 5e-05
341 0.0001953829692955728 -0.0007291791683447489 0.0001
342 0.0001953829692955728 -0.0007291791683447489 5e-05
343 0.0007499999999999997 -0.0004330127018922197 0
344 0.0007499999999999997 -0.0004330127018922197 0.0001
345 0.0006123724356957944 -0.0006123724356957946 0
346 0.0006537641571538015 -0.0003774509121192766 0
347 0.0007499999999999997 -0.0004330127018922197 5e-05
348 0.0006123724356957944 -0.0006123724356957946 0.0001
349 0.0006537641571538015 -0.0003774509121192766 0.0001
350 0.0005337961990491756 -0.0005337961990491758 0
351 0.0006123724356957944 -0.0006123724356957946 5e-05
352 0.0006537641571538015 -0.0003774509121192766 5e-05
353 0.0005337961990491756 -0.0005337961990491758 0.0001
354 0.0005337961990491756 -0.0005337961990491758 5e-05
355 0.0008365163037378077 -0.0002241438680420141 0
356 0.0008365163037378077 -0.0002241438680420141 0.0001
357 0.0007291791683447487 -0.0001953829692955737 0
358 0.0008365163037378077 -0.0002241438680420141 5e-05
359 0.0007291791683447487 -0.0001953829692955737 0.0001
360 0.0007291791683447487 -0.0001953829692955737 5e-05
361 0.001139753528477389 0 0
362 0.0009870555097143694 0.0005698767642386943 0
363 0.001139753528477389 0 0.0001
364 0.0009870555097143694 0.0005698767642386943 0.0001
365 0.0009935066732107889 0 0
366 0.001100917368760403 0.0002949899198927465 0
367 0.001139753528477389 0 5e-05
368 0.0008604020178299078 0.0004967533366053943 0
369 0.0009870555097143694 0.0005698767642386943 5e-05
370 0.0009935066732107889 0 0.0001
371 0.001100917368760403 0.0002949899198927465 0.0001
372 0.0008604020178299078 0.0004967533366053943 0.0001
373 0.0009596537542448346 0.0002571384484633985 0
374 0.0009935066732107889 0 5e-05
375 0.001100917368760403 0.0002949899198927465 5e-05
376 0.0008604020178299078 0.0004967533366053943 5e-05
377 0.0009596537542448346 0.0002571384484633985 0.0001
378 0.0009596537542448346 0.0002571384484633985 5e-05
379 0.0005698767642386945 0.0009870555097143694 0
380 0.0005698767642386945 0.0009870555097143694 0.0001
381 0.0008059274488676565 0.0008059274488676564 0
382 0.0004967533366053946 0.0008604020178299077 0
383 0.0005698767642386945 0.0009870555097143694 5e-05
384 0.0008059274488676565 0.0008059274488676564 0.0001
385 0.0004967533366053946 0.0008604020178299077 0.0001
386 0.0007025153057814361 0.000702515305781436 0
387 0.0008059274488676565 0.0008059274488676564 5e-05
388 0.0004967533366053946 0.0008604020178299077 5e-05
389 0.0007025153057814361 0.000702515305781436 0.0001
390 0.0007025153057814361 0.000702515305781436 5e-05
391 6.978977552333679e-20 0.001139753528477389 0
392 6.978977552333679e-20 0.001139753528477389 0.0001
393 0.0002949899198927465 0.001100917368760403 0
394 6.08347383639564e-20 0.0009935066732107889 0
395 6.978977552333679e-20 0.001139753528477389 5e-05
396 0.0002949899198927465 0.001100917368760403 0.0001
397 6.08347383639564e-20 0.0009935066732107889 0.0001
398 0.0002571384484633985 0.0009596537542448346 0
399 0.0002949899198927465 0.001100917368760403 5e-05
400 6.08347383639564e-20 0.0009935066732107889 5e-05
401 0.0002571384484633985 0.0009596537542448346 0.0001
402 0.0002571384484633985 0.0009596537542448346 5e-05
403 -0.0005698767642386942 0.0009870555097143694 0
404 -0.0005698767642386942 0.0009870555097143694 0.0001
405 -0.0002949899198927463 0.001100917368760403 0
406 -0.0004967533366053942 0.0008604020178299078 0
407 -0.0005698767642386942 0.0009870555097143694 5e-05
408 -0.0002949899198927463 0.001100917368760403 0.0001
409 -0.0004967533366053942 0.0008604020178299078 0.0001
410 -0.0002571384484633984 0.0009596537542448346 0
411 -0.0002949899198927463 0.001100917368760403 5e-05
412 -0.0004967533366053942 0.0008604020178299078 5e-05
413 -0.0002571384484633984 0.0009596537542448346 0.0001
414 -0.0002571384484633984 0.0009596537542448346 5e-05
415 -0.0009870555097143694 0.0005698767642386943 0
416 -0.0009870555097143694 0.0005698767642386943 0.0001
417 -0.0008059274488676564 0.0008059274488676565 0
418 -0.0008604020178299078 0.0004967533366053943 0
419 -0.0009870555097143694 0.0005698767642386943 5e-05
420 -0.0008059274488676564 0.0008059274488676565 0.0001
421 -0.0008604020178299078 0.0004967533366053943 0.0001
422 -0.000702515305781436 0.0007025153057814361 0
423 -0.0008059274488676564 0.0008059274488676565 5e-05
424 -0.0008604020178299078 0.0004967533366053943 5e-05
425 -0.000702515305781436 0.0007025153057814361 0.0001
426 -0.000702515305781436 0.0007025153057814361 5e-05
427 -0.001139753528477389 1.395795510466736e-19 0
428 -0.001139753528477389 1.395795510466736e-19 0.0001
429 -0.001100917368760403 0.0002949899198927468 0
430 -0.0009935066732107889 1.216694767279128e-19 0
431 -0.001139753528477389 1.395795510466736e-19 5e-05
432 -0.001100917368760403 0.0002949899198927468 0.0001
433 -0.0009935066732107889 1.216694767279128e-19 0.0001
434 -0.0009596537542448345 0.0002571384484633988 0
435 -0.001100917368760403 0.0002949899198927468 5e-05
436 -0.0009935066732107889 1.216694767279128e-19 5e-05
437 -0.0009596537542448345 0.0002571384484633988 0.0001
438 -0.0009596537542448345 0.0002571384484633988 5e-05
439 -0.0009870555097143696 -0.0005698767642386941 0
440 -0.0009870555097143696 -0.0005698767642386941 0.0001
441 -0.001100917368760403 -0.0002949899198927465 0
442 -0.0008604020178299079 -0.0004967533366053941 0
443 -0.0009870555097143696 -0.0005698767642386941 5e-05
444 -0.001100917368760403 -0.0002949899198927465 0.0001
445 -0.0008604020178299079 -0.0004967533366053941 0.0001
446 -0.0009596537542448346 -0.0002571384484633985 0
447 -0.001100917368760403 -0.0002949899198927465 5e-05
448 -0.0008604020178299079 -0.0004967533366053941 5e-05
449 -0.0009596537542448346 -0.0002571384484633985 0.0001
450 -0.0009596537542448346 -0.0002571384484633985 5e-05
451 -0.000569876764238695 -0.0009870555097143692 0
452 -0.000569876764238695 -0.0009870555097143692 0.0001
453 -0.0008059274488676569 -0.0008059274488676561 0
454 -0.0004967533366053949 -0.0008604020178299075 0
455 -0.000569876764238695 -0.0009870555097143692 5e-05
456 -0.0008059274488676569 -0.0008059274488676561 0.0001
457 -0.0004967533366053949 -0.0008604020178299075 0.0001
458 -0.0007025153057814364 -0.0007025153057814357 0
459 -0.0008059274488676569 -0.0008059274488676561 5e-05
460 -0.0004967533366053949 -0.0008604020178299075 5e-05
461 -0.0007025153057814364 -0.0007025153057814357 0.0001
462 -0.0007025153057814364 -0.0007025153057814357 5e-05
463 -2.093693265700104e-19 -0.001139753528477389 0
464 -2.093693265700104e-19 -0.001139753528477389 0.0001
465 -0.0002949899198927463 -0.001100917368760403 0
466 -1.825042150918692e-19 -0.0009935066732107889 0
467 -2.093693265700104e-19 -0.001139753528477389 5e-05
468 -0.0002949899198927463 -0.001100917368760403 0.0001
469 -1.825042150918692e-19 -0.0009935066732107889 0.0001
470 -0.0002571384484633984 -0.0009596537542448346 0
471 -0.0002949899198927463 -0.001100917368760403 5e-05
472 -1.825042150918692e-19 -0.0009935066732107889 5e-05
473 -0.0002571384484633984 -0.0009596537542448346 0.0001
474 -0.0002571384484633984 -0.0009596537542448346 5e-05
475 0.0005698767642386945 -0.0009870555097143694 0
476 0.0005698767642386945 -0.0009870555097143694 0.0001
477 0.000294989919892746 -0.001100917368760403 0
478 0.0004967533366053946 -0.0008604020178299077 0
479 0.0005698767642386945 -0.0009870555097143694 5e-05
480 0.000294989919892746 -0.001100917368760403 0.0001
481 0.0004967533366053946 -0.0008604020178299077 0.0001
482 0.0002571384484633981 -0.0009596537542448348 0
483 0.000294989919892746 -0.001100917368760403 5e-05
484 0.0004967533366053946 -0.0008604020178299077 5e-05
485 0.0002571384484633981 -0.0009596537542448348 0.0001
486 0.0002571384484633981 -0.0009596537542448348 5e-05
487 0.0009870555097143692 -0.000569876764238695 0
488 0.0009870555097143692 -0.000569876764238695 0.0001
489 0.0008059274488676563 -0.0008059274488676567 0
490 0.0008604020178299075 -0.0004967533366053949 0
491 0.0009870555097143692 -0.000569876764238695 5e-05
492 0.0008059274488676563 -0.0008059274488676567 0.0001
493 0.0008604020178299075 -0.0004967533366053949 0.0001
494 0.0007025153057814359 -0.0007025153057814362 0
495 0.0008059274488676563 -0.0008059274488676567 5e-05
496 0.0008604020178299075 -0.0004967533366053949 5e-05
497 0.0007025153057814359 -0.0007025153057814362 0.0001
498 0.0007025153057814359 -0.0007025153057814362 5e-05
499 0.001100917368760403 -0.0002949899198927474 0
500 0.001100917368760403 -0.0002949899198927474 0.0001
501 0.0009596537542448344 -0.0002571384484633994 0
502 0.001100917368760403 -0.0002949899198927474 5e-05
503 0.0009596537542448344 -0.0002571384484633994 0.0001
504 0.0009596537542448344 -0.0002571384484633994 5e-05
505 0.0015 0 0
506 0.001299038105676658 0.0007499999999999999 0
507 0.0015 0 0.0001
508 0.001299038105676658 0.0007499999999999999 0.0001
509 0.001307528314307603 0 0
510 0.001448888739433602 0.0003882285676537811 0
511 0.0015 0 5e-05
512 0.001132352736357829 0.0006537641571538016 0
513 0.001299038105676658 0.0007499999999999999 5e-05
514 0.001307528314307603 0 0.0001
515 0.001448888739433602 0.0003882285676537811 0.0001
516 0.001132352736357829 0.0006537641571538016 0.0001
517 0.001262975367393924 0.0003384132297536025 0
518 0.001307528314307603 0 5e-05
519 0.001448888739433602 0.0003882285676537811 5e-05
520 0.001132352736357829 0.0006537641571538016 5e-05
521 0.001262975367393924 0.0003384132297536025 0.0001
522 0.001262975367393924 0.0003384132297536025 5e-05
523 0.0007500000000000002 0.001299038105676658 0
524 0.0007500000000000002 0.001299038105676658 0.0001
525 0.001060660171779821 0.001060660171779821 0
526 0.0006537641571538018 0.001132352736357829 0
527 0.0007500000000000002 0.001299038105676658 5e-05
528 0.001060660171779821 0.001060660171779821 0.0001
529 0.0006537641571538018 0.001132352736357829 0.0001
530 0.000924562137640322 0.0009245621376403219 0
531 0.001060660171779821 0.001060660171779821 5e-05
532 0.0006537641571538018 0.001132352736357829 5e-05
533 0.000924562137640322 0.0009245621376403219 0.0001
534 0.000924562137640322 0.0009245621376403219 5e-05
535 9.184850993605149e-20 0.0015 0
536 9.184850993605149e-20 0.0015 0.0001
537 0.0003882285676537811 0.001448888739433602 0
538 8.006301824556705e-20 0.001307528314307603 0
539 9.184850993605149e-20 0.0015 5e-05
540 0.0003882285676537811 0.001448888739433602 0.0001
541 8.006301824556705e-20 0.001307528314307603 0.0001
542 0.0003384132297536025 0.001262975367393924 0
543 0.0003882285676537811 0.001448888739433602 5e-05
544 8.006301824556705e-20 0.001307528314307603 5e-05
545 0.0003384132297536025 0.001262975367393924 0.0001
546 0.0003384132297536025 0.001262975367393924 5e-05
547 -0.0007499999999999997 0.001299038105676658 0
548 -0.0007499999999999997 0.001299038105676658 0.0001
549 -0.0003882285676537809 0.001448888739433602 0
550 -0.0006537641571538014 0.001132352736357829 0
551 -0.0007499999999999997 0.001299038105676658 5e-05
552 -0.0003882285676537809 0.001448888739433602 0.0001
553 -0.0006537641571538014 0.001132352736357829 0.0001
554 -0.0003384132297536024 0.001262975367393924 0
555 -0.0003882285676537809 0.001448888739433602 5e-05
556 -0.0006537641571538014 0.001132352736357829 5e-05
557 -0.0003384132297536024 0.001262975367393924 0.0001
558 -0.0003384132297536024 0.001262975367393924 5e-05
559 -0.001299038105676658 0.0007499999999999999 0
560 -0.001299038105676658 0.0007499999999999999 0.0001
561 -0.001060660171779821 0.001060660171779821 0
562 -0.001132352736357829 0.0006537641571538016 0
563 -0.001299038105676658 0.0007499999999999999 5e-05
564 -0.001060660171779821 0.001060660171779821 0.0001
565 -0.001132352736357829 0.0006537641571538016 0.0001
566 -0.0009245621376403219 0.000924562137640322 0
567 -0.001060660171779821 0.001060660171779821 5e-05
568 -0.001132352736357829 0.0006537641571538016 5e-05
569 -0.0009245621376403219 0.000924562137640322 0.0001
570 -0.0009245621376403219 0.000924562137640322 5e-05
571 -0.0015 1.83697019872103e-19 0
572 -0.0015 1.83697019872103e-19 0.0001
573 -0.001448888739433602 0.0003882285676537815 0
574 -0.001307528314307603 1.601260364911341e-19 0
575 -0.0015 1.83697019872103e-19 5e-05
576 -0.001448888739433602 0.0003882285676537815 0.0001
577 -0.001307528314307603 1.601260364911341e-19 0.0001
578 -0.001262975367393924 0.0003384132297536029 0
579 -0.001448888739433602 0.0003882285676537815 5e-05
580 -0.001307528314307603 1.601260364911341e-19 5e-05
581 -0.001262975367393924 0.0003384132297536029 0.0001
582 -0.001262975367393924 0.0003384132297536029 5e-05
583 -0.001299038105676658 -0.0007499999999999996 0
584 -0.001299038105676658 -0.0007499999999999996 0.0001
585 -0.001448888739433602 -0.0003882285676537812 0
586 -0.001132352736357829 -0.0006537641571538014 0
587 -0.001299038105676658 -0.0007499999999999996 5e-05
588 -0.001448888739433602 -0.0003882285676537812 0.0001
589 -0.001132352736357829 -0.0006537641571538014 0.0001
590 -0.001262975367393924 -0.0003384132297536026 0
591 -0.001448888739433602 -0.0003882285676537812 5e-05
592 -0.001132352736357829 -0.0006537641571538014 5e-05
593 -0.001262975367393924 -0.0003384132297536026 0.0001
594 -0.001262975367393924 -0.0003384132297536026 5e-05
595 -0.0007500000000000007 -0.001299038105676658 0
596 -0.0007500000000000007 -0.001299038105676658 0.0001
597 -0.001060660171779822 -0.001060660171779821 0
598 -0.0006537641571538023 -0.001132352736357828 0
599 -0.0007500000000000007 -0.001299038105676658 5e-05
600 -0.001060660171779822 -0.001060660171779821 0.0001
601 -0.0006537641571538023 -0.001132352736357828 0.0001
602 -0.0009245621376403224 -0.0009245621376403214 0
603 -0.001060660171779822 -0.001060660171779821 5e-05
604 -0.0006537641571538023 -0.001132352736357828 5e-05
605 -0.0009245621376403224 -0.0009245621376403214 0.0001
606 -0.0009245621376403224 -0.0009245621376403214 5e-05
607 -2.755455298081544e-19 -0.0015 0
608 -2.755455298081544e-19 -0.0015 0.0001
609 -0.0003882285676537809 -0.001448888739433602 0
610 -2.401890547367011e-19 -0.001307528314307603 0
611 -2.755455298081544e-19 -0.0015 5e-05
612 -0.0003882285676537809 -0.001448888739433602 0.0001
613 -2.401890547367011e-19 -0.001307528314307603 0.0001
614 -0.0003384132297536024 -0.001262975367393924 0
615 -0.0003882285676537809 -0.001448888739433602 5e-05
616 -2.401890547367011e-19 -0.001307528314307603 5e-05
617 -0.0003384132297536024 -0.001262975367393924 0.0001
618 -0.0003384132297536024 -0.001262975367393924 5e-05
619 0.0007500000000000002 -0.001299038105676658 0
620 0.0007500000000000002 -0.001299038105676658 0.0001
621 0.0003882285676537804 -0.001448888739433603 0
622 0.0006537641571538018 -0.001132352736357829 0
623 0.0007500000000000002 -0.001299038105676658 5e-05
624 0.0003882285676537804 -0.001448888739433603 0.0001
625 0.0006537641571538018 -0.001132352736357829 0.0001
626 0.000338413229753602 -0.001262975367393925 0
627 0.0003882285676537804 -0.001448888739433603 5e-05
628 0.0006537641571538018 -0.001132352736357829 5e-05
629 0.000338413229753602 -0.001262975367393925 0.0001
630 0.000338413229753602 -0.001262975367393925 5e-05
631 0.001299038105676658 -0.0007500000000000007 0
632 0.001299038105676658 -0.0007500000000000007 0.0001
633 0.001060660171779821 -0.001060660171779822 0
634 0.001132352736357828 -0.0006537641571538023 0
635 0.001299038105676658 -0.0007500000000000007 5e-05
636 0.001060660171779821 -0.001060660171779822 0.0001
637 0.001132352736357828 -0.0006537641571538023 0.0001
638 0.0009245621376403216 -0.0009245621376403221 0
639 0.001060660171779821 -0.001060660171779822 5e-05
640 0.001132352736357828 -0.0006537641571538023 5e-05
641 0.0009245621376403216 -0.0009245621376403221 0.0001
642 0.0009245621376403216 -0.0009245621376403221 5e-05
643 0.001448888739433602 -0.0003882285676537824 0
644 0.001448888739433602 -0.0003882285676537824 0.0001
645 0.001262975367393924 -0.0003384132297536036 0
646 0.001448888739433602 -0.0003882285676537824 5e-05
647 0.001262975367393924 -0.0003384132297536036 0.0001
648 0.001262975367393924 -0.0003384132297536036 5e-05
$EndNodes
$Elements
72
1 12 2 1 1 1 2 3 4 5 6 7 8 9 10 11 12 13 14 15 16 17 18 19 20 21 22 23 24 25 26 27
2 12 2 1 1 4 3 28 29 8 7 30 31 14 32 16 33 15 34 35 36 20 37 38 39 40 25 41 42 43 44 45
3 12 2 1 1 29 28 46 47 31 30 48 49 34 50 36 51 35 52 53 54 39 55 56 57 58 43 59 60 61 62 63
4 12 2 1 1 47 46 64 65 49 48 66 67 52 68 54 69 53 70 71 72 57 73 74 75 76 61 77 78 79 80 81
5 12 2 1 1 65 64 82 83 67 66 84 85 70 86 72 87 71 88 89 90 75 91 92 93 94 79 95 96 97 98 99
6 12 2 1 1 83 82 100 101 85 84 102 103 88 104 90 105 89 106 107 108 93 109 110 111 112 97 113 114 115 116 117
7 12 2 1 1 101 100 118 119 103 102 120 121 106 122 108 123 107 124 125 126 111 127 128 129 130 115 131 132 133 134 135
8 12 2 1 1 119 118 136 137 121 120 138 139 124 140 126 141 125 142 143 144 129 145 146 147 148 133 149 150 151 152 153
9 12 2 1 1 137 136 154 155 139 138 156 157 142 158 144 159 143 160 161 162 147 163 164 165 166 151 167 168 169 170 171
10 12 2 1 1 155 154 172 173 157 156 174 175 160 176 162 177 161 178 179 180 165 181 182 183 184 169 185 186 187 188 189
11 12 2 1 1 173 172 190 191 175 174 192 193 178 194 180 195 179 196 197 198 183 199 200 201 202 187 203 204 205 206 207
12 12 2 1 1 191 190 2 1 193 192 6 5 196 208 198 209 197 9 13 11 201 210 211 17 212 205 213 214 22 215 216
13 12 2 1 1 2 217 218 3 6 219 220 7 221 12 13 222 223 224 225 15 226 19 227 228 229 230 24 231 232 233 234
14 12 2 1 1 3 218 235 28 7 220 236 30 224 33 15 237 225 238 239 35 228 38 240 241 242 232 42 243 244 245 246
15 12 2 1 1 28 235 247 46 30 236 248 48 238 51 35 249 239 250 251 53 241 56 252 253 254 244 60 255 256 257 258
16 12 2 1 1 46 247 259 64 48 248 260 66 250 69 53 261 251 262 263 71 253 74 264 265 266 256 78 267 268 269 270
17 12 2 1 1 64 259 271 82 66 260 272 84 262 87 71 273 263 274 275 89 265 92 276 277 278 268 96 279 280 281 282
18 12 2 1 1 82 271 283 100 84 272 284 102 274 105 89 285 275 286 287 107 277 110 288 289 290 280 114 291 292 293 294
19 12 2 1 1 100 283 295 118 102 284 296 120 286 123 107 297 287 298 299 125 289 128 300 301 302 292 132 303 304 305 306
20 12 2 1 1 118 295 307 136 120 296 308 138 298 141 125 309 299 310 311 143 301 146 312 313 314 304 150 315 316 317 318
21 12 2 1 1 136 307 319 154 138 308 320 156 310 159 143 321 311 322 323 161 313 164 324 325 326 316 168 327 328 329 330
22 12 2 1 1 154 319 331 172 156 320 332 174 322 177 161 333 323 334 335 179 325 182 336 337 338 328 186 339 340 341 342
23 12 2 1 1 172 331 343 190 174 332 344 192 334 195 179 345 335 346 347 197 337 200 348 349 350 340 204 351 352 353 354
24 12 2 1 1 190 343 217 2 192 344 219 6 346 209 197 355 347 221 223 13 349 211 356 226 357 352 214 358 230 359 360
25 12 2 1 1 217 361 362 218 219 363 364 220 365 222 223 366 367 368 369 225 370 227 371 372 373 374 231 375 376 377 378
26 12 2 1 1 218 362 379 235 220 364 380 236 368 237 225 381 369 382 383 239 372 240 384 385 386 376 243 387 388 389 390
27 12 2 1 1 235 379 391 247 236 380 392 248 382 249 239 393 383 394 395 251 385 252 396 397 398 388 255 399 400 401 402
28 12 2 1 1 247 391 403 259 248 392 404 260 394 261 251 405 395 406 407 263 397 264 408 409 410 400 267 411 412 413 414
29 12 2 1 1 259 403 415 271 260 404 416 272 406 273 263 417 407 418 419 275 409 276 420 421 422 412 279 423 424 425 426
30 12 2 1 1 271 415 427 283 272 416 428 284 418 285 275 429 419 430 431 287 421 288 432 433 434 424 291 435 436 437 438
31 12 2 1 1 283 427 439 295 284 428 440 296 430 297 287 441 431 442 443 299 433 300 444 445 446 436 303 447 448 449 450
32 12 2 1 1 295 439 451 307 296 440 452 308 442 309 299 453 443 454 455 311 445 312 456 457 458 448 315 459 460 461 462
33 12 2 1 1 307 451 463 319 308 452 464 320 454 321 311 465 455 466 467 323 457 324 468 469 470 460 327 471 472 473 474
34 12 2 1 1 319 463 475 331 320 464 476 332 466 333 323 477 467 478 479 335 469 336 480 481 482 472 339 483 484 485 486
35 12 2 1 1 331 475 487 343 332 476 488 344 478 345 335 489 479 490 491 347 481 348 492 493 494 484 351 495 496 497 498
36 12 2 1 1 343 487 361 217 344 488 363 219 490 355 347 499 491 365 367 223 493 356 500 370 501 496 358 502 374 503 504
37 12 2 1 1 361 505 506 362 363 507 508 364 509 366 367 510 511 512 513 369 514 371 515 516 517 518 375 519 520 521 522
38 12 2 1 1 362 506 523 379 364 508 524 380 512 381 369 525 513 526 527 383 516 384 528 529 530 520 387 531 532 533 534
39 12 2 1 1 379 523 535 391 380 524 536 392 526 393 383 537 527 538 539 395 529 396 540 541 542 532 399 543 544 545 546
40 12 2 1 1 391 535 547 403 392 536 548 404 538 405 395 549 539 550 551 407 541 408 552 553 554 544 411 555 556 557 558
41 12 2 1 1 403 547 559 415 404 548 560 416 550 417 407 561 551 562 563 419 553 420 564 565 566 556 423 567 568 569 570
42 12 2 1 1 415 559 571 427 416 560 572 428 562 429 419 573 563 574 575 431 565 432 576 577 578 568 435 579 580 581 582
43 12 2 1 1 427 571 583 439 428 572 584 440 574 441 431 585 575 586 587 443 577 444 588 589 590 580 447 591 592 593 594
44 12 2 1 1 439 583 595 451 440 584 596 452 586 453 443 597 587 598 599 455 589 456 600 601 602 592 459 603 604 605 606
45 12 2 1 1 451 595 607 463 452 596 608 464 598 465 455 609 599 610 611 467 601 468 612 613 614 604 471 615 616 617 618
46 12 2 1 1 463 607 619 475 464 608 620 476 610 477 467 621 611 622 623 479 613 480 624 625 626 616 483 627 628 629 630
47 12 2 1 1 475 619 631 487 476 620 632 488 622 489 479 633 623 634 635 491 625 492 636 637 638 628 495 639 640 641 642
48 12 2 1 1 487 631 505 361 488 632 507 363 634 499 491 643 635 509 511 367 637 500 644 514 645 640 502 646 518 647 648
49 10 2 11 11 1 4 8 5 10 16 18 11 23
50 10 2 10 10 505 506 508 507 510 513 515 511 519
51 10 2 11 11 4 29 31 8 32 36 37 16 41
52 10 2 10 10 506 523 524 508 525 527 528 513 531
53 10 2 11 11 29 47 49 31 50 54 55 36 59
54 10 2 10 10 523 535 536 524 537 539 540 527 543
55 10 2 11 11 47 65 67 49 68 72 73 54 77
56 10 2 10 10 535 547 548 536 549 551 552 539 555
57 10 2 11 11 65 83 85 67 86 90 91 72 95
58 10 2 10 10 547 559 560 548 561 563 564 551 567
59 10 2 11 11 83 101 103 85 104 108 109 90 113
60 10 2 10 10 559 571 572 560 573 575 576 563 579
61 10 2 11 11 101 119 121 103 122 126 127 108 131
62 10 2 10 10 571 583 584 572 585 587 588 575 591
63 10 2 11 11 119 137 139 121 140 144 145 126 149
64 10 2 10 10 583 595 596 584 597 599 600 587 603
65 10 2 11 11 137 155 157 139 158 162 163 144 167
66 10 2 10 10 595 607 608 596 609 611 612 599 615
67 10 2 11 11 155 173 175 157 176 180 181 162 185
68 10 2 10 10 607 619 620 608 621 623 624 611 627
69 10 2 11 11 173 191 193 175 194 198 199 180 203
70 10 2 10 10 619 631 632 620 633 635 636 623 639
71 10 2 11 11 191 1 5 193 208 11 210 198 213
72 10 2 10 10 631 505 507 632 643 511 644 635 646
$EndElements
