$MeshFormat
2.2 0 8
$EndMeshFormat
$Nodes
147
1 0 0 0
2 0 0 0.0001666666666666667
3 0 0 0.0003333333333333333
4 0 0 0.0005
5 0 0 0.0006666666666666666
6 0 0 0.0008333333333333334
7 0 0 0.001
8 0 0.000125 0
9 0 0.000125 0.0001666666666666667
10 0 0.000125 0.0003333333333333333
11 0 0.000125 0.0005
12 0 0.000125 0.0006666666666666666
13 0 0.000125 0.0008333333333333334
14 0 0.000125 0.001
15 0 0.00025 0
16 0 0.00025 0.0001666666666666667
17 0 0.00025 0.0003333333333333333
18 0 0.00025 0.0005
19 0 0.00025 0.0006666666666666666
20 0 0.00025 0.0008333333333333334
21 0 0.00025 0.001
22 0.0003333333333333333 0 0
23 0.0003333333333333333 0 0.0001666666666666667
24 0.0003333333333333333 0 0.0003333333333333333
25 0.0003333333333333333 0 0.0005
26 0.0003333333333333333 0 0.0006666666666666666
27 0.0003333333333333333 0 0.0008333333333333334
28 0.0003333333333333333 0 0.001
29 0.0003333333333333333 0.000125 0
30 0.0003333333333333333 0.000125 0.0001666666666666667
31 0.0003333333333333333 0.000125 0.0003333333333333333
32 0.0003333333333333333 0.000125 0.0005
33 0.0003333333333333333 0.000125 0.0006666666666666666
34 0.0003333333333333333 0.000125 0.0008333333333333334
35 0.0003333333333333333 0.000125 0.001
36 0.0003333333333333333 0.00025 0
37 0.0003333333333333333 0.00025 0.0001666666666666667
38 0.0003333333333333333 0.00025 0.0003333333333333333
39 0.0003333333333333333 0.00025 0.0005
40 0.0003333333333333333 0.00025 0.0006666666666666666
41 0.0003333333333333333 0.00025 0.0008333333333333334
42 0.0003333333333333333 0.00025 0.001
43 0.0006666666666666666 0 0
44 0.0006666666666666666 0 0.0001666666666666667
45 0.0006666666666666666 0 0.0003333333333333333
46 0.0006666666666666666 0 0.0005
47 0.0006666666666666666 0 0.0006666666666666666
48 0.0006666666666666666 0 0.0008333333333333334
49 0.0006666666666666666 0 0.001
50 0.0006666666666666666 0.000125 0
51 0.0006666666666666666 0.000125 0.0001666666666666667
52 0.0006666666666666666 0.000125 0.0003333333333333333
53 0.0006666666666666666 0.000125 0.0005
54 0.0006666666666666666 0.000125 0.0006666666666666666
55 0.0006666666666666666 0.000125 0.0008333333333333334
56 0.0006666666666666666 0.000125 0.001
57 0.0006666666666666666 0.00025 0
58 0.0006666666666666666 0.00025 0.0001666666666666667
59 0.0006666666666666666 0.00025 0.0003333333333333333
60 0.0006666666666666666 0.00025 0.0005
61 0.0006666666666666666 0.00025 0.0006666666666666666
62 0.0006666666666666666 0.00025 0.0008333333333333334
63 0.0006666666666666666 0.00025 0.001
64 0.001 0 0
65 0.001 0 0.0001666666666666667
66 0.001 0 0.0003333333333333333
67 0.001 0 0.0005
68 0.001 0 0.0006666666666666666
69 0.001 0 0.0008333333333333334
70 0.001 0 0.001
71 0.001 0.000125 0
72 0.001 0.000125 0.0001666666666666667
73 0.001 0.000125 0.0003333333333333333
74 0.001 0.000125 0.0005
75 0.001 0.000125 0.0006666666666666666
76 0.001 0.000125 0.0008333333333333334
77 0.001 0.000125 0.001
78 0.001 0.00025 0
79 0.001 0.00025 0.0001666666666666667
80 0.001 0.00025 0.0003333333333333333
81 0.001 0.00025 0.0005
82 0.001 0.00025 0.0006666666666666666
83 0.001 0.00025 0.0008333333333333334
84 0.001 0.00025 0.001
85 0.001333333333333333 0 0
86 0.001333333333333333 0 0.0001666666666666667
87 0.001333333333333333 0 0.0003333333333333333
88 0.001333333333333333 0 0.0005
89 0.001333333333333333 0 0.0006666666666666666
90 0.001333333333333333 0 0.0008333333333333334
91 0.001333333333333333 0 0.001
92 0.001333333333333333 0.000125 0
93 0.001333333333333333 0.000125 0.0001666666666666667
94 0.001333333333333333 0.000125 0.0003333333333333333
95 0.001333333333333333 0.000125 0.0005
96 0.001333333333333333 0.000125 0.0006666666666666666
97 0.001333333333333333 0.000125 0.0008333333333333334
98 0.001333333333333333 0.000125 0.001
99 0.001333333333333333 0.00025 0
100 0.001333333333333333 0.00025 0.0001666666666666667
101 0.001333333333333333 0.00025 0.0003333333333333333
102 0.001333333333333333 0.00025 0.0005
103 0.001333333333333333 0.00025 0.0006666666666666666
104 0.001333333333333333 0.00025 0.0008333333333333334
105 0.001333333333333333 0.00025 0.001
106 0.001666666666666667 0 0
107 0.001666666666666667 0 0.0001666666666666667
108 0.001666666666666667 0 0.0003333333333333333
109 0.001666666666666667 0 0.0005
110 0.001666666666666667 0 0.0006666666666666666
111 0.001666666666666667 0 0.0008333333333333334
112 0.001666666666666667 0 0.001
113 0.001666666666666667 0.000125 0
114 0.001666666666666667 0.000125 0.0001666666666666667
115 0.001666666666666667 0.000125 0.0003333333333333333
116 0.001666666666666667 0.000125 0.0005
117 0.001666666666666667 0.000125 0.0006666666666666666
118 0.001666666666666667 0.000125 0.0008333333333333334
119 0.001666666666666667 0.000125 0.001
120 0.001666666666666667 0.00025 0
121 0.001666666666666667 0.00025 0.0001666666666666667
122 0.001666666666666667 0.00025 0.0003333333333333333
123 0.001666666666666667 0.00025 0.0005
124 0.001666666666666667 0.00025 0.0006666666666666666
125 0.001666666666666667 0.00025 0.0008333333333333334
126 0.001666666666666667 0.00025 0.001
127 0.002 0 0
128 0.002 0 0.0001666666666666667
129 0.002 0 0.0003333333333333333
130 0.002 0 0.0005
131 0.002 0 0.0006666666666666666
132 0.002 0 0.0008333333333333334
133 0.002 0 0.001
134 0.002 0.000125 0
135 0.002 0.000125 0.0001666666666666667
136 0.002 0.000125 0.0003333333333333333
137 0.002 0.000125 0.0005
138 0.002 0.000125 0.0006666666666666666
139 0.002 0.000125 0.0008333333333333334
140 0.002 0.000125 0.001
141 0.002 0.00025 0
142 0.002 0.00025 0.0001666666666666667
143 0.002 0.00025 0.0003333333333333333
144 0.002 0.00025 0.0005
145 0.002 0.00025 0.0006666666666666666
146 0.002 0.00025 0.0008333333333333334
147 0.002 0.00025 0.001
$EndNodes
$Elements
408
1 6 2 1 1 1 22 29 2 23 30
2 6 2 1 1 1 29 8 2 30 9
3 6 2 1 1 2 23 30 3 24 31
4 6 2 1 1 2 30 9 3 31 10
5 6 2 1 1 3 24 31 4 25 32
6 6 2 1 1 3 31 10 4 32 11
7 4 2 2 2 4 25 32 33
8 4 2 2 2 4 25 33 26
9 4 2 2 2 4 26 33 5
10 4 2 2 2 4 32 11 12
11 4 2 2 2 4 32 12 33
12 4 2 2 2 4 33 12 5
13 4 2 2 2 5 26 33 34
14 4 2 2 2 5 26 34 27
15 4 2 2 2 5 27 34 6
16 4 2 2 2 5 33 12 13
17 4 2 2 2 5 33 13 34
18 4 2 2 2 5 34 13 6
19 4 2 2 2 6 27 34 35
20 4 2 2 2 6 27 35 28
21 4 2 2 2 6 28 35 7
22 4 2 2 2 6 34 13 14
23 4 2 2 2 6 34 14 35
24 4 2 2 2 6 35 14 7
25 6 2 1 1 8 29 36 9 30 37
26 6 2 1 1 8 36 15 9 37 16
27 6 2 1 1 9 30 37 10 31 38
28 6 2 1 1 9 37 16 10 38 17
29 6 2 1 1 10 31 38 11 32 39
30 6 2 1 1 10 38 17 11 39 18
31 4 2 2 2 11 32 39 40
32 4 2 2 2 11 32 40 33
33 4 2 2 2 11 33 40 12
34 4 2 2 2 11 39 18 19
35 4 2 2 2 11 39 19 40
36 4 2 2 2 11 40 19 12
37 4 2 2 2 12 33 40 41
38 4 2 2 2 12 33 41 34
39 4 2 2 2 12 34 41 13
40 4 2 2 2 12 40 19 20
41 4 2 2 2 12 40 20 41
42 4 2 2 2 12 41 20 13
43 4 2 2 2 13 34 41 42
44 4 2 2 2 13 34 42 35
45 4 2 2 2 13 35 42 14
46 4 2 2 2 13 41 20 21
47 4 2 2 2 13 41 21 42
48 4 2 2 2 13 42 21 14
49 6 2 1 1 22 43 50 23 44 51
50 6 2 1 1 22 50 29 23 51 30
51 6 2 1 1 23 44 51 24 45 52
52 6 2 1 1 23 51 30 24 52 31
53 6 2 1 1 24 45 52 25 46 53
54 6 2 1 1 24 52 31 25 53 32
55 4 2 2 2 25 46 53 54
56 4 2 2 2 25 46 54 47
57 4 2 2 2 25 47 54 26
58 4 2 2 2 25 53 32 33
59 4 2 2 2 25 53 33 54
60 4 2 2 2 25 54 33 26
61 4 2 2 2 26 47 54 55
62 4 2 2 2 26 47 55 48
63 4 2 2 2 26 48 55 27
64 4 2 2 2 26 54 33 34
65 4 2 2 2 26 54 34 55
66 4 2 2 2 26 55 34 27
67 4 2 2 2 27 48 55 56
68 4 2 2 2 27 48 56 49
69 4 2 2 2 27 49 56 28
70 4 2 2 2 27 55 34 35
71 4 2 2 2 27 55 35 56
72 4 2 2 2 27 56 35 28
73 6 2 1 1 29 50 57 30 51 58
74 6 2 1 1 29 57 36 30 58 37
75 6 2 1 1 30 51 58 31 52 59
76 6 2 1 1 30 58 37 31 59 38
77 6 2 1 1 31 52 59 32 53 60
78 6 2 1 1 31 59 38 32 60 39
79 4 2 2 2 32 53 60 61
80 4 2 2 2 32 53 61 54
81 4 2 2 2 32 54 61 33
82 4 2 2 2 32 60 39 40
83 4 2 2 2 32 60 40 61
84 4 2 2 2 32 61 40 33
85 4 2 2 2 33 54 61 62
86 4 2 2 2 33 54 62 55
87 4 2 2 2 33 55 62 34
88 4 2 2 2 33 61 40 41
89 4 2 2 2 33 61 41 62
90 4 2 2 2 33 62 41 34
91 4 2 2 2 34 55 62 63
92 4 2 2 2 34 55 63 56
93 4 2 2 2 34 56 63 35
94 4 2 2 2 34 62 41 42
95 4 2 2 2 34 62 42 63
96 4 2 2 2 34 63 42 35
97 6 2 1 1 43 64 71 44 65 72
98 6 2 1 1 43 71 50 44 72 51
99 6 2 1 1 44 65 72 45 66 73
100 6 2 1 1 44 72 51 45 73 52
101 6 2 1 1 45 66 73 46 67 74
102 6 2 1 1 45 73 52 46 74 53
103 4 2 2 2 46 67 74 75
104 4 2 2 2 46 67 75 68
105 4 2 2 2 46 68 75 47
106 4 2 2 2 46 74 53 54
107 4 2 2 2 46 74 54 75
108 4 2 2 2 46 75 54 47
109 4 2 2 2 47 68 75 76
110 4 2 2 2 47 68 76 69
111 4 2 2 2 47 69 76 48
112 4 2 2 2 47 75 54 55
113 4 2 2 2 47 75 55 76
114 4 2 2 2 47 76 55 48
115 4 2 2 2 48 69 76 77
116 4 2 2 2 48 69 77 70
117 4 2 2 2 48 70 77 49
118 4 2 2 2 48 76 55 56
119 4 2 2 2 48 76 56 77
120 4 2 2 2 48 77 56 49
121 6 2 1 1 50 71 78 51 72 79
122 6 2 1 1 50 78 57 51 79 58
123 6 2 1 1 51 72 79 52 73 80
124 6 2 1 1 51 79 58 52 80 59
125 6 2 1 1 52 73 80 53 74 81
126 6 2 1 1 52 80 59 53 81 60
127 4 2 2 2 53 74 81 82
128 4 2 2 2 53 74 82 75
129 4 2 2 2 53 75 82 54
130 4 2 2 2 53 81 60 61
131 4 2 2 2 53 81 61 82
132 4 2 2 2 53 82 61 54
133 4 2 2 2 54 75 82 83
134 4 2 2 2 54 75 83 76
135 4 2 2 2 54 76 83 55
136 4 2 2 2 54 82 61 62
137 4 2 2 2 54 82 62 83
138 4 2 2 2 54 83 62 55
139 4 2 2 2 55 76 83 84
140 4 2 2 2 55 76 84 77
141 4 2 2 2 55 77 84 56
142 4 2 2 2 55 83 62 63
143 4 2 2 2 55 83 63 84
144 4 2 2 2 55 84 63 56
145 6 2 1 1 64 85 92 65 86 93
146 6 2 1 1 64 92 71 65 93 72
147 6 2 1 1 65 86 93 66 87 94
148 6 2 1 1 65 93 72 66 94 73
149 6 2 1 1 66 87 94 67 88 95
150 6 2 1 1 66 94 73 67 95 74
151 4 2 2 2 67 88 95 96
152 4 2 2 2 67 88 96 89
153 4 2 2 2 67 89 96 68
154 4 2 2 2 67 95 74 75
155 4 2 2 2 67 95 75 96
156 4 2 2 2 67 96 75 68
157 4 2 2 2 68 89 96 97
158 4 2 2 2 68 89 97 90
159 4 2 2 2 68 90 97 69
160 4 2 2 2 68 96 75 76
161 4 2 2 2 68 96 76 97
162 4 2 2 2 68 97 76 69
163 4 2 2 2 69 90 97 98
164 4 2 2 2 69 90 98 91
165 4 2 2 2 69 91 98 70
166 4 2 2 2 69 97 76 77
167 4 2 2 2 69 97 77 98
168 4 2 2 2 69 98 77 70
169 6 2 1 1 71 92 99 72 93 100
170 6 2 1 1 71 99 78 72 100 79
171 6 2 1 1 72 93 100 73 94 101
172 6 2 1 1 72 100 79 73 101 80
173 6 2 1 1 73 94 101 74 95 102
174 6 2 1 1 73 101 80 74 102 81
175 4 2 2 2 74 95 102 103
176 4 2 2 2 74 95 103 96
177 4 2 2 2 74 96 103 75
178 4 2 2 2 74 102 81 82
179 4 2 2 2 74 102 82 103
180 4 2 2 2 74 103 82 75
181 4 2 2 2 75 96 103 104
182 4 2 2 2 75 96 104 97
183 4 2 2 2 75 97 104 76
184 4 2 2 2 75 103 82 83
185 4 2 2 2 75 103 83 104
186 4 2 2 2 75 104 83 76
187 4 2 2 2 76 97 104 105
188 4 2 2 2 76 97 105 98
189 4 2 2 2 76 98 105 77
190 4 2 2 2 76 104 83 84
191 4 2 2 2 76 104 84 105
192 4 2 2 2 76 105 84 77
193 6 2 1 1 85 106 113 86 107 114
194 6 2 1 1 85 113 92 86 114 93
195 6 2 1 1 86 107 114 87 108 115
196 6 2 1 1 86 114 93 87 115 94
197 6 2 1 1 87 108 115 88 109 116
198 6 2 1 1 87 115 94 88 116 95
199 4 2 2 2 88 109 116 117
200 4 2 2 2 88 109 117 110
201 4 2 2 2 88 110 117 89
202 4 2 2 2 88 116 95 96
203 4 2 2 2 88 116 96 117
204 4 2 2 2 88 117 96 89
205 4 2 2 2 89 110 117 118
206 4 2 2 2 89 110 118 111
207 4 2 2 2 89 111 118 90
208 4 2 2 2 89 117 96 97
209 4 2 2 2 89 117 97 118
210 4 2 2 2 89 118 97 90
211 4 2 2 2 90 111 118 119
212 4 2 2 2 90 111 119 112
213 4 2 2 2 90 112 119 91
214 4 2 2 2 90 118 97 98
215 4 2 2 2 90 118 98 119
216 4 2 2 2 90 119 98 91
217 6 2 1 1 92 113 120 93 114 121
218 6 2 1 1 92 120 99 93 121 100
219 6 2 1 1 93 114 121 94 115 122
220 6 2 1 1 93 121 100 94 122 101
221 6 2 1 1 94 115 122 95 116 123
222 6 2 1 1 94 122 101 95 123 102
223 4 2 2 2 95 116 123 124
224 4 2 2 2 95 116 124 117
225 4 2 2 2 95 117 124 96
226 4 2 2 2 95 123 102 103
227 4 2 2 2 95 123 103 124
228 4 2 2 2 95 124 103 96
229 4 2 2 2 96 117 124 125
230 4 2 2 2 96 117 125 118
231 4 2 2 2 96 118 125 97
232 4 2 2 2 96 124 103 104
233 4 2 2 2 96 124 104 125
234 4 2 2 2 96 125 104 97
235 4 2 2 2 97 118 125 126
236 4 2 2 2 97 118 126 119
237 4 2 2 2 97 119 126 98
238 4 2 2 2 97 125 104 105
239 4 2 2 2 97 125 105 126
240 4 2 2 2 97 126 105 98
241 6 2 1 1 106 127 134 107 128 135
242 6 2 1 1 106 134 113 107 135 114
243 6 2 1 1 107 128 135 108 129 136
244 6 2 1 1 107 135 114 108 136 115
245 6 2 1 1 108 129 136 109 130 137
246 6 2 1 1 108 136 115 109 137 116
247 4 2 2 2 109 130 137 138
248 4 2 2 2 109 130 138 131
249 4 2 2 2 109 131 138 110
250 4 2 2 2 109 137 116 117
251 4 2 2 2 109 137 117 138
252 4 2 2 2 109 138 117 110
253 4 2 2 2 110 131 138 139
254 4 2 2 2 110 131 139 132
255 4 2 2 2 110 132 139 111
256 4 2 2 2 110 138 117 118
257 4 2 2 2 110 138 118 139
258 4 2 2 2 110 139 118 111
259 4 2 2 2 111 132 139 140
260 4 2 2 2 111 132 140 133
261 4 2 2 2 111 133 140 112
262 4 2 2 2 111 139 118 119
263 4 2 2 2 111 139 119 140
264 4 2 2 2 111 140 119 112
265 6 2 1 1 113 134 141 114 135 142
266 6 2 1 1 113 141 120 114 142 121
267 6 2 1 1 114 135 142 115 136 143
268 6 2 1 1 114 142 121 115 143 122
269 6 2 1 1 115 136 143 116 137 144
270 6 2 1 1 115 143 122 116 144 123
271 4 2 2 2 116 137 144 145
272 4 2 2 2 116 137 145 138
273 4 2 2 2 116 138 145 117
274 4 2 2 2 116 144 123 124
275 4 2 2 2 116 144 124 145
276 4 2 2 2 116 145 124 117
277 4 2 2 2 117 138 145 146
278 4 2 2 2 117 138 146 139
279 4 2 2 2 117 139 146 118
280 4 2 2 2 117 145 124 125
281 4 2 2 2 117 145 125 146
282 4 2 2 2 117 146 125 118
283 4 2 2 2 118 139 146 147
284 4 2 2 2 118 139 147 140
285 4 2 2 2 118 140 147 119
286 4 2 2 2 118 146 125 126
287 4 2 2 2 118 146 126 147
288 4 2 2 2 118 147 126 119
289 2 2 20 20 1 22 29
290 2 2 20 20 1 29 8
291 2 2 20 20 7 28 35
292 2 2 20 20 7 35 14
293 2 2 20 20 8 29 36
294 2 2 20 20 8 36 15
295 2 2 20 20 14 35 42
296 2 2 20 20 14 42 21
297 2 2 20 20 22 43 50
298 2 2 20 20 22 50 29
299 2 2 20 20 28 49 56
300 2 2 20 20 28 56 35
301 2 2 20 20 29 50 57
302 2 2 20 20 29 57 36
303 2 2 20 20 35 56 63
304 2 2 20 20 35 63 42
305 2 2 20 20 43 64 71
306 2 2 20 20 43 71 50
307 2 2 20 20 49 70 77
308 2 2 20 20 49 77 56
309 2 2 20 20 50 71 78
310 2 2 20 20 50 78 57
311 2 2 20 20 56 77 84
312 2 2 20 20 56 84 63
313 2 2 20 20 64 85 92
314 2 2 20 20 64 92 71
315 2 2 20 20 70 91 98
316 2 2 20 20 70 98 77
317 2 2 20 20 71 92 99
318 2 2 20 20 71 99 78
319 2 2 20 20 77 98 105
320 2 2 20 20 77 105 84
321 2 2 20 20 85 106 113
322 2 2 20 20 85 113 92
323 2 2 20 20 91 112 119
324 2 2 20 20 91 119 98
325 2 2 20 20 92 113 120
326 2 2 20 20 92 120 99
327 2 2 20 20 98 119 126
328 2 2 20 20 98 126 105
329 2 2 20 20 106 127 134
330 2 2 20 20 106 134 113
331 2 2 20 20 112 133 140
332 2 2 20 20 112 140 119
333 2 2 20 20 113 134 141
334 2 2 20 20 113 141 120
335 2 2 20 20 119 140 147
336 2 2 20 20 119 147 126
337 3 2 10 10 1 8 9 2
338 3 2 20 20 1 8 9 2
339 3 2 11 11 127 134 135 128
340 3 2 20 20 127 134 135 128
341 3 2 10 10 2 9 10 3
342 3 2 20 20 2 9 10 3
343 3 2 11 11 128 135 136 129
344 3 2 20 20 128 135 136 129
345 3 2 10 10 3 10 11 4
346 3 2 20 20 3 10 11 4
347 3 2 11 11 129 136 137 130
348 3 2 20 20 129 136 137 130
349 2 2 10 10 4 11 12
350 2 2 10 10 4 12 5
351 2 2 20 20 4 11 12
352 2 2 20 20 4 12 5
353 2 2 11 11 130 137 138
354 2 2 11 11 130 138 131
355 2 2 20 20 130 137 138
356 2 2 20 20 130 138 131
357 2 2 10 10 5 12 13
358 2 2 10 10 5 13 6
359 2 2 20 20 5 12 13
360 2 2 20 20 5 13 6
361 2 2 11 11 131 138 139
362 2 2 11 11 131 139 132
363 2 2 20 20 131 138 139
364 2 2 20 20 131 139 132
365 2 2 10 10 6 13 14
366 2 2 10 10 6 14 7
367 2 2 20 20 6 13 14
368 2 2 20 20 6 14 7
369 2 2 11 11 132 139 140
370 2 2 11 11 132 140 133
371 2 2 20 20 132 139 140
372 2 2 20 20 132 140 133
373 3 2 10 10 8 15 16 9
374 3 2 20 20 8 15 16 9
375 3 2 11 11 134 141 142 135
376 3 2 20 20 134 141 142 135
377 3 2 10 10 9 16 17 10
378 3 2 20 20 9 16 17 10
379 3 2 11 11 135 142 143 136
380 3 2 20 20 135 142 143 136
381 3 2 10 10 10 17 18 11
382 3 2 20 20 10 17 18 11
383 3 2 11 11 136 143 144 137
384 3 2 20 20 136 143 144 137
385 2 2 10 10 11 18 19
386 2 2 10 10 11 19 12
387 2 2 20 20 11 18 19
388 2 2 20 20 11 19 12
389 2 2 11 11 137 144 145
390 2 2 11 11 137 145 138
391 2 2 20 20 137 144 145
392 2 2 20 20 137 145 138
393 2 2 10 10 12 19 20
394 2 2 10 10 12 20 13
395 2 2 20 20 12 19 20
396 2 2 20 20 12 20 13
397 2 2 11 11 138 145 146
398 2 2 11 11 138 146 139
399 2 2 20 20 138 145 146
400 2 2 20 20 138 146 139
401 2 2 10 10 13 20 21
402 2 2 10 10 13 21 14
403 2 2 20 20 13 20 21
404 2 2 20 20 13 21 14
405 2 2 11 11 139 146 147
406 2 2 11 11 139 147 140
407 2 2 20 20 139 146 147
408 2 2 20 20 139 147 140
$EndElements
