$MeshFormat
2.2 0 8
$EndMeshFormat
$Nodes
168
1 0 0 0
2 0 0 0.0001666666666666667
3 0 0 0.0003333333333333333
4 0 0 0.0005
5 0 0 0.0006666666666666666
6 0 0 0.0008333333333333334
7 0 0 0.001
8 0 0.000125 0
9 0 0.000125 0.0001666666666666667
10 0 0.000125 0.0003333333333333333
11 0 0.000125 0.0005
12 0 0.000125 0.0006666666666666666
13 0 0.000125 0.0008333333333333334
14 0 0.000125 0.001
15 0 0.00025 0
16 0 0.00025 0.0001666666666666667
17 0 0.00025 0.0003333333333333333
18 0 0.00025 0.0005
19 0 0.00025 0.0006666666666666666
20 0 0.00025 0.0008333333333333334
21 0 0.00025 0.001
22 0.0003333333333333333 0 0
23 0.0003333333333333333 0 0.0001666666666666667
24 0.0003333333333333333 0 0.0003333333333333333
25 0.0003333333333333333 0 0.0005
26 0.0003333333333333333 0 0.0006666666666666666
27 0.0003333333333333333 0 0.0008333333333333334
28 0.0003333333333333333 0 0.001
29 0.0003333333333333333 0.000125 0
30 0.0003333333333333333 0.000125 0.0001666666666666667
31 0.0003333333333333333 0.000125 0.0003333333333333333
32 0.0003333333333333333 0.000125 0.0005
33 0.0003333333333333333 0.000125 0.0006666666666666666
34 0.0003333333333333333 0.000125 0.0008333333333333334
35 0.0003333333333333333 0.000125 0.001
36 0.0003333333333333333 0.00025 0
37 0.0003333333333333333 0.00025 0.0001666666666666667
38 0.0003333333333333333 0.00025 0.0003333333333333333
39 0.0003333333333333333 0.00025 0.0005
40 0.0003333333333333333 0.00025 0.0006666666666666666
41 0.0003333333333333333 0.00025 0.0008333333333333334
42 0.0003333333333333333 0.00025 0.001
43 0.0006666666666666666 0 0
44 0.0006666666666666666 0 0.0001666666666666667
45 0.0006666666666666666 0 0.0003333333333333333
46 0.0006666666666666666 0 0.0005
47 0.0006666666666666666 0 0.0006666666666666666
48 0.0006666666666666666 0 0.0008333333333333334
49 0.0006666666666666666 0 0.001
50 0.0006666666666666666 0.000125 0
51 0.0006666666666666666 0.000125 0.0001666666666666667
52 0.0006666666666666666 0.000125 0.0003333333333333333
53 0.0006666666666666666 0.000125 0.0005
54 0.0006666666666666666 0.000125 0.0006666666666666666
55 0.0006666666666666666 0.000125 0.0008333333333333334
56 0.0006666666666666666 0.000125 0.001
57 0.0006666666666666666 0.00025 0
58 0.0006666666666666666 0.00025 0.0001666666666666667
59 0.0006666666666666666 0.00025 0.0003333333333333333
60 0.0006666666666666666 0.00025 0.0005
61 0.0006666666666666666 0.00025 0.0006666666666666666
62 0.0006666666666666666 0.00025 0.0008333333333333334
63 0.0006666666666666666 0.00025 0.001
64 0.001 0 0
65 0.001 0 0.0001666666666666667
66 0.001 0 0.0003333333333333333
67 0.001 0 0.0005
68 0.001 0 0.0006666666666666666
69 0.001 0 0.0008333333333333334
70 0.001 0 0.001
71 0.001 0.000125 0
72 0.001 0.000125 0.0001666666666666667
73 0.001 0.000125 0.0003333333333333333
74 0.001 0.000125 0.0005
75 0.001 0.000125 0.0006666666666666666
76 0.001 0.000125 0.0008333333333333334
77 0.001 0.000125 0.001
78 0.001 0.00025 0
79 0.001 0.00025 0.0001666666666666667
80 0.001 0.00025 0.0003333333333333333
81 0.001 0.00025 0.0005
82 0.001 0.00025 0.0006666666666666666
83 0.001 0.00025 0.0008333333333333334
84 0.001 0.00025 0.001
85 0.001333333333333333 0 0
86 0.001333333333333333 0 0.0001666666666666667
87 0.001333333333333333 0 0.0003333333333333333
88 0.001333333333333333 0 0.0005
89 0.001333333333333333 0 0.0006666666666666666
90 0.001333333333333333 0 0.0008333333333333334
91 0.001333333333333333 0 0.001
92 0.001333333333333333 0.000125 0
93 0.001333333333333333 0.000125 0.0001666666666666667
94 0.001333333333333333 0.000125 0.0003333333333333333
95 0.001333333333333333 0.000125 0.0005
96 0.001333333333333333 0.000125 0.0006666666666666666
97 0.001333333333333333 0.000125 0.0008333333333333334
98 0.001333333333333333 0.000125 0.001
99 0.001333333333333333 0.00025 0
100 0.001333333333333333 0.00025 0.0001666666666666667
101 0.001333333333333333 0.00025 0.0003333333333333333
102 0.001333333333333333 0.00025 0.0005
103 0.001333333333333333 0.00025 0.0006666666666666666
104 0.001333333333333333 0.00025 0.0008333333333333334
105 0.001333333333333333 0.00025 0.001
106 0.001666666666666667 0 0
107 0.001666666666666667 0 0.0001666666666666667
108 0.001666666666666667 0 0.0003333333333333333
109 0.001666666666666667 0 0.0005
110 0.001666666666666667 0 0.0006666666666666666
111 0.001666666666666667 0 0.0008333333333333334
112 0.001666666666666667 0 0.001
113 0.001666666666666667 0.000125 0
114 0.001666666666666667 0.000125 0.0001666666666666667
115 0.001666666666666667 0.000125 0.0003333333333333333
116 0.001666666666666667 0.000125 0.0005
117 0.001666666666666667 0.000125 0.0006666666666666666
118 0.001666666666666667 0.000125 0.0008333333333333334
119 0.001666666666666667 0.000125 0.001
120 0.001666666666666667 0.00025 0
121 0.001666666666666667 0.00025 0.0001666666666666667
122 0.001666666666666667 0.00025 0.0003333333333333333
123 0.001666666666666667 0.00025 0.0005
124 0.001666666666666667 0.00025 0.0006666666666666666
125 0.001666666666666667 0.00025 0.0008333333333333334
126 0.001666666666666667 0.00025 0.001
127 0.002 0 0
128 0.002 0 0.0001666666666666667
129 0.002 0 0.0003333333333333333
130 0.002 0 0.0005
131 0.002 0 0.0006666666666666666
132 0.002 0 0.0008333333333333334
133 0.002 0 0.001
134 0.002 0.000125 0
135 0.002 0.000125 0.0001666666666666667
136 0.002 0.000125 0.0003333333333333333
137 0.002 0.000125 0.0005
138 0.002 0.000125 0.0006666666666666666
139 0.002 0.000125 0.0008333333333333334
140 0.002 0.000125 0.001
141 0.002 0.00025 0
142 0.002 0.00025 0.0001666666666666667
143 0.002 0.00025 0.0003333333333333333
144 0.002 0.00025 0.0005
145 0.002 0.00025 0.0006666666666666666
146 0.002 0.00025 0.0008333333333333334
147 0.002 0.00025 0.001
148 0.001 0 0
149 0.001 0 0.0001666666666666667
150 0.001 0 0.0003333333333333333
151 0.001 0 0.0005
152 0.001 0 0.0006666666666666666
153 0.001 0 0.0008333333333333334
154 0.001 0 0.001
155 0.001 0.000125 0
156 0.001 0.000125 0.0001666666666666667
157 0.001 0.000125 0.0003333333333333333
158 0.001 0.000125 0.0005
159 0.001 0.000125 0.0006666666666666666
160 0.001 0.000125 0.0008333333333333334
161 0.001 0.000125 0.001
162 0.001 0.00025 0
163 0.001 0.00025 0.0001666666666666667
164 0.001 0.00025 0.0003333333333333333
165 0.001 0.00025 0.0005
166 0.001 0.00025 0.0006666666666666666
167 0.001 0.00025 0.0008333333333333334
168 0.001 0.00025 0.001
$EndNodes
$Elements
192
1 5 2 1 1 1 22 29 8 2 23 30 9
2 5 2 1 1 2 23 30 9 3 24 31 10
3 5 2 1 1 3 24 31 10 4 25 32 11
4 5 2 1 1 4 25 32 11 5 26 33 12
5 5 2 1 1 5 26 33 12 6 27 34 13
6 5 2 1 1 6 27 34 13 7 28 35 14
7 5 2 1 1 8 29 36 15 9 30 37 16
8 5 2 1 1 9 30 37 16 10 31 38 17
9 5 2 1 1 10 31 38 17 11 32 39 18
10 5 2 1 1 11 32 39 18 12 33 40 19
11 5 2 1 1 12 33 40 19 13 34 41 20
12 5 2 1 1 13 34 41 20 14 35 42 21
13 5 2 1 1 22 43 50 29 23 44 51 30
14 5 2 1 1 23 44 51 30 24 45 52 31
15 5 2 1 1 24 45 52 31 25 46 53 32
16 5 2 1 1 25 46 53 32 26 47 54 33
17 5 2 1 1 26 47 54 33 27 48 55 34
18 5 2 1 1 27 48 55 34 28 49 56 35
19 5 2 1 1 29 50 57 36 30 51 58 37
20 5 2 1 1 30 51 58 37 31 52 59 38
21 5 2 1 1 31 52 59 38 32 53 60 39
22 5 2 1 1 32 53 60 39 33 54 61 40
23 5 2 1 1 33 54 61 40 34 55 62 41
24 5 2 1 1 34 55 62 41 35 56 63 42
25 5 2 1 1 43 64 71 50 44 65 72 51
26 5 2 1 1 44 65 72 51 45 66 73 52
27 5 2 1 1 45 66 73 52 46 67 74 53
28 5 2 1 1 46 67 74 53 47 68 75 54
29 5 2 1 1 47 68 75 54 48 69 76 55
30 5 2 1 1 48 69 76 55 49 70 77 56
31 5 2 1 1 50 71 78 57 51 72 79 58
32 5 2 1 1 51 72 79 58 52 73 80 59
33 5 2 1 1 52 73 80 59 53 74 81 60
34 5 2 1 1 53 74 81 60 54 75 82 61
35 5 2 1 1 54 75 82 61 55 76 83 62
36 5 2 1 1 55 76 83 62 56 77 84 63
37 6 2 2 2 148 85 92 149 86 93
38 6 2 2 2 148 92 155 149 93 156
39 6 2 2 2 149 86 93 150 87 94
40 6 2 2 2 149 93 156 150 94 157
41 6 2 2 2 150 87 94 151 88 95
42 6 2 2 2 150 94 157 151 95 158
43 6 2 2 2 151 88 95 152 89 96
44 6 2 2 2 151 95 158 152 96 159
45 6 2 2 2 152 89 96 153 90 97
46 6 2 2 2 152 96 159 153 97 160
47 6 2 2 2 153 90 97 154 91 98
48 6 2 2 2 153 97 160 154 98 161
49 6 2 2 2 155 92 99 156 93 100
50 6 2 2 2 155 99 162 156 100 163
51 6 2 2 2 156 93 100 157 94 101
52 6 2 2 2 156 100 163 157 101 164
53 6 2 2 2 157 94 101 158 95 102
54 6 2 2 2 157 101 164 158 102 165
55 6 2 2 2 158 95 102 159 96 103
56 6 2 2 2 158 102 165 159 103 166
57 6 2 2 2 159 96 103 160 97 104
58 6 2 2 2 159 103 166 160 104 167
59 6 2 2 2 160 97 104 161 98 105
60 6 2 2 2 160 104 167 161 105 168
61 6 2 2 2 85 106 113 86 107 114
62 6 2 2 2 85 113 92 86 114 93
63 6 2 2 2 86 107 114 87 108 115
64 6 2 2 2 86 114 93 87 115 94
65 6 2 2 2 87 108 115 88 109 116
66 6 2 2 2 87 115 94 88 116 95
67 6 2 2 2 88 109 116 89 110 117
68 6 2 2 2 88 116 95 89 117 96
69 6 2 2 2 89 110 117 90 111 118
70 6 2 2 2 89 117 96 90 118 97
71 6 2 2 2 90 111 118 91 112 119
72 6 2 2 2 90 118 97 91 119 98
73 6 2 2 2 92 113 120 93 114 121
74 6 2 2 2 92 120 99 93 121 100
75 6 2 2 2 93 114 121 94 115 122
76 6 2 2 2 93 121 100 94 122 101
77 6 2 2 2 94 115 122 95 116 123
78 6 2 2 2 94 122 101 95 123 102
79 6 2 2 2 95 116 123 96 117 124
80 6 2 2 2 95 123 102 96 124 103
81 6 2 2 2 96 117 124 97 118 125
82 6 2 2 2 96 124 103 97 125 104
83 6 2 2 2 97 118 125 98 119 126
84 6 2 2 2 97 125 104 98 126 105
85 6 2 2 2 106 127 134 107 128 135
86 6 2 2 2 106 134 113 107 135 114
87 6 2 2 2 107 128 135 108 129 136
88 6 2 2 2 107 135 114 108 136 115
89 6 2 2 2 108 129 136 109 130 137
90 6 2 2 2 108 136 115 109 137 116
91 6 2 2 2 109 130 137 110 131 138
92 6 2 2 2 109 137 116 110 138 117
93 6 2 2 2 110 131 138 111 132 139
94 6 2 2 2 110 138 117 111 139 118
95 6 2 2 2 111 132 139 112 133 140
96 6 2 2 2 111 139 118 112 140 119
97 6 2 2 2 113 134 141 114 135 142
98 6 2 2 2 113 141 120 114 142 121
99 6 2 2 2 114 135 142 115 136 143
100 6 2 2 2 114 142 121 115 143 122
101 6 2 2 2 115 136 143 116 137 144
102 6 2 2 2 115 143 122 116 144 123
103 6 2 2 2 116 137 144 117 138 145
104 6 2 2 2 116 144 123 117 145 124
105 6 2 2 2 117 138 145 118 139 146
106 6 2 2 2 117 145 124 118 146 125
107 6 2 2 2 118 139 146 119 140 147
108 6 2 2 2 118 146 125 119 147 126
109 3 2 20 20 1 22 29 8
110 3 2 20 20 7 28 35 14
111 3 2 20 20 8 29 36 15
112 3 2 20 20 14 35 42 21
113 3 2 20 20 22 43 50 29
114 3 2 20 20 28 49 56 35
115 3 2 20 20 29 50 57 36
116 3 2 20 20 35 56 63 42
117 3 2 20 20 43 64 71 50
118 3 2 20 20 49 70 77 56
119 3 2 20 20 50 71 78 57
120 3 2 20 20 56 77 84 63
121 2 2 20 20 148 85 92
122 2 2 20 20 148 92 155
123 2 2 20 20 154 91 98
124 2 2 20 20 154 98 161
125 2 2 20 20 155 92 99
126 2 2 20 20 155 99 162
127 2 2 20 20 161 98 105
128 2 2 20 20 161 105 168
129 2 2 20 20 85 106 113
130 2 2 20 20 85 113 92
131 2 2 20 20 91 112 119
132 2 2 20 20 91 119 98
133 2 2 20 20 92 113 120
134 2 2 20 20 92 120 99
135 2 2 20 20 98 119 126
136 2 2 20 20 98 126 105
137 2 2 20 20 106 127 134
138 2 2 20 20 106 134 113
139 2 2 20 20 112 133 140
140 2 2 20 20 112 140 119
141 2 2 20 20 113 134 141
142 2 2 20 20 113 141 120
143 2 2 20 20 119 140 147
144 2 2 20 20 119 147 126
145 3 2 10 10 1 8 9 2
146 3 2 20 20 1 8 9 2
147 3 2 11 11 127 134 135 128
148 3 2 20 20 127 134 135 128
149 3 2 10 10 2 9 10 3
150 3 2 20 20 2 9 10 3
151 3 2 11 11 128 135 136 129
152 3 2 20 20 128 135 136 129
153 3 2 10 10 3 10 11 4
154 3 2 20 20 3 10 11 4
155 3 2 11 11 129 136 137 130
156 3 2 20 20 129 136 137 130
157 3 2 10 10 4 11 12 5
158 3 2 20 20 4 11 12 5
159 3 2 11 11 130 137 138 131
160 3 2 20 20 130 137 138 131
161 3 2 10 10 5 12 13 6
162 3 2 20 20 5 12 13 6
163 3 2 11 11 131 138 139 132
164 3 2 20 20 131 138 139 132
165 3 2 10 10 6 13 14 7
166 3 2 20 20 6 13 14 7
167 3 2 11 11 132 139 140 133
168 3 2 20 20 132 139 140 133
169 3 2 10 10 8 15 16 9
170 3 2 20 20 8 15 16 9
171 3 2 11 11 134 141 142 135
172 3 2 20 20 134 141 142 135
173 3 2 10 10 9 16 17 10
174 3 2 20 20 9 16 17 10
175 3 2 11 11 135 142 143 136
176 3 2 20 20 135 142 143 136
177 3 2 10 10 10 17 18 11
178 3 2 20 20 10 17 18 11
179 3 2 11 11 136 143 144 137
180 3 2 20 20 136 143 144 137
181 3 2 10 10 11 18 19 12
182 3 2 20 20 11 18 19 12
183 3 2 11 11 137 144 145 138
184 3 2 20 20 137 144 145 138
185 3 2 10 10 12 19 20 13
186 3 2 20 20 12 19 20 13
187 3 2 11 11 138 145 146 139
188 3 2 20 20 138 145 146 139
189 3 2 10 10 13 20 21 14
190 3 2 20 20 13 20 21 14
191 3 2 11 11 139 146 147 140
192 3 2 20 20 139 146 147 140
$EndElements
