$MeshFormat
2.2 0 8
$EndMeshFormat
$Nodes
147
1 0 0 0
2 0 0 0.0001666666666666667
3 0 0 0.0003333333333333333
4 0 0 0.0005
5 0 0 0.0006666666666666666
6 0 0 0.0008333333333333334
7 0 0 0.001
8 0 0.000125 0
9 0 0.000125 0.0001666666666666667
10 0 0.000125 0.0003333333333333333
11 0 0.000125 0.0005
12 0 0.000125 0.0006666666666666666
13 0 0.000125 0.0008333333333333334
14 0 0.000125 0.001
15 0 0.00025 0
16 0 0.00025 0.0001666666666666667
17 0 0.00025 0.0003333333333333333
18 0 0.00025 0.0005
19 0 0.00025 0.0006666666666666666
20 0 0.00025 0.0008333333333333334
21 0 0.00025 0.001
22 0.0003333333333333333 0 0
23 0.0003333333333333333 0 0.0001666666666666667
24 0.0003333333333333333 0 0.0003333333333333333
25 0.0003333333333333333 0 0.0005
26 0.0003333333333333333 0 0.0006666666666666666
27 0.0003333333333333333 0 0.0008333333333333334
28 0.0003333333333333333 0 0.001
29 0.0003333333333333333 0.000125 0
30 0.0003333333333333333 0.000125 0.0001666666666666667
31 0.0003333333333333333 0.000125 0.0003333333333333333
32 0.0003333333333333333 0.000125 0.0005
33 0.0003333333333333333 0.000125 0.0006666666666666666
34 0.0003333333333333333 0.000125 0.0008333333333333334
35 0.0003333333333333333 0.000125 0.001
36 0.0003333333333333333 0.00025 0
37 0.0003333333333333333 0.00025 0.0001666666666666667
38 0.0003333333333333333 0.00025 0.0003333333333333333
39 0.0003333333333333333 0.00025 0.0005
40 0.0003333333333333333 0.00025 0.0006666666666666666
41 0.0003333333333333333 0.00025 0.0008333333333333334
42 0.0003333333333333333 0.00025 0.001
43 0.0006666666666666666 0 0
44 0.0006666666666666666 0 0.0001666666666666667
45 0.0006666666666666666 0 0.0003333333333333333
46 0.0006666666666666666 0 0.0005
47 0.0006666666666666666 0 0.0006666666666666666
48 0.0006666666666666666 0 0.0008333333333333334
49 0.0006666666666666666 0 0.001
50 0.0006666666666666666 0.000125 0
51 0.0006666666666666666 0.000125 0.0001666666666666667
52 0.0006666666666666666 0.000125 0.0003333333333333333
53 0.0006666666666666666 0.000125 0.0005
54 0.0006666666666666666 0.000125 0.0006666666666666666
55 0.0006666666666666666 0.000125 0.0008333333333333334
56 0.0006666666666666666 0.000125 0.001
57 0.0006666666666666666 0.00025 0
58 0.0006666666666666666 0.00025 0.0001666666666666667
59 0.0006666666666666666 0.00025 0.0003333333333333333
60 0.0006666666666666666 0.00025 0.0005
61 0.0006666666666666666 0.00025 0.0006666666666666666
62 0.0006666666666666666 0.00025 0.0008333333333333334
63 0.0006666666666666666 0.00025 0.001
64 0.001 0 0
65 0.001 0 0.0001666666666666667
66 0.001 0 0.0003333333333333333
67 0.001 0 0.0005
68 0.001 0 0.0006666666666666666
69 0.001 0 0.0008333333333333334
70 0.001 0 0.001
71 0.001 0.000125 0
72 0.001 0.000125 0.0001666666666666667
73 0.001 0.000125 0.0003333333333333333
74 0.001 0.000125 0.0005
75 0.001 0.000125 0.0006666666666666666
76 0.001 0.000125 0.0008333333333333334
77 0.001 0.000125 0.001
78 0.001 0.00025 0
79 0.001 0.00025 0.0001666666666666667
80 0.001 0.00025 0.0003333333333333333
81 0.001 0.00025 0.0005
82 0.001 0.00025 0.0006666666666666666
83 0.001 0.00025 0.0008333333333333334
84 0.001 0.00025 0.001
85 0.001333333333333333 0 0
86 0.001333333333333333 0 0.0001666666666666667
87 0.001333333333333333 0 0.0003333333333333333
88 0.001333333333333333 0 0.0005
89 0.001333333333333333 0 0.0006666666666666666
90 0.001333333333333333 0 0.0008333333333333334
91 0.001333333333333333 0 0.001
92 0.001333333333333333 0.000125 0
93 0.001333333333333333 0.000125 0.0001666666666666667
94 0.001333333333333333 0.000125 0.0003333333333333333
95 0.001333333333333333 0.000125 0.0005
96 0.001333333333333333 0.000125 0.0006666666666666666
97 0.001333333333333333 0.000125 0.0008333333333333334
98 0.001333333333333333 0.000125 0.001
99 0.001333333333333333 0.00025 0
100 0.001333333333333333 0.00025 0.0001666666666666667
101 0.001333333333333333 0.00025 0.0003333333333333333
102 0.001333333333333333 0.00025 0.0005
103 0.001333333333333333 0.00025 0.0006666666666666666
104 0.001333333333333333 0.00025 0.0008333333333333334
105 0.001333333333333333 0.00025 0.001
106 0.001666666666666667 0 0
107 0.001666666666666667 0 0.0001666666666666667
108 0.001666666666666667 0 0.0003333333333333333
109 0.001666666666666667 0 0.0005
110 0.001666666666666667 0 0.0006666666666666666
111 0.001666666666666667 0 0.0008333333333333334
112 0.001666666666666667 0 0.001
113 0.001666666666666667 0.000125 0
114 0.001666666666666667 0.000125 0.0001666666666666667
115 0.001666666666666667 0.000125 0.0003333333333333333
116 0.001666666666666667 0.000125 0.0005
117 0.001666666666666667 0.000125 0.0006666666666666666
118 0.001666666666666667 0.000125 0.0008333333333333334
119 0.001666666666666667 0.000125 0.001
120 0.001666666666666667 0.00025 0
121 0.001666666666666667 0.00025 0.0001666666666666667
122 0.001666666666666667 0.00025 0.0003333333333333333
123 0.001666666666666667 0.00025 0.0005
124 0.001666666666666667 0.00025 0.0006666666666666666
125 0.001666666666666667 0.00025 0.0008333333333333334
126 0.001666666666666667 0.00025 0.001
127 0.002 0 0
128 0.002 0 0.0001666666666666667
129 0.002 0 0.0003333333333333333
130 0.002 0 0.0005
131 0.002 0 0.0006666666666666666
132 0.002 0 0.0008333333333333334
133 0.002 0 0.001
134 0.002 0.000125 0
135 0.002 0.000125 0.0001666666666666667
136 0.002 0.000125 0.0003333333333333333
137 0.002 0.000125 0.0005
138 0.002 0.000125 0.0006666666666666666
139 0.002 0.000125 0.0008333333333333334
140 0.002 0.000125 0.001
141 0.002 0.00025 0
142 0.002 0.00025 0.0001666666666666667
143 0.002 0.00025 0.0003333333333333333
144 0.002 0.00025 0.0005
145 0.002 0.00025 0.0006666666666666666
146 0.002 0.00025 0.0008333333333333334
147 0.002 0.00025 0.001
$EndNodes
$Elements
192
1 5 2 1 1 1 22 29 8 2 23 30 9
2 5 2 1 1 2 23 30 9 3 24 31 10
3 5 2 1 1 3 24 31 10 4 25 32 11
4 6 2 2 2 4 25 32 5 26 33
5 6 2 2 2 4 32 11 5 33 12
6 6 2 2 2 5 26 33 6 27 34
7 6 2 2 2 5 33 12 6 34 13
8 6 2 2 2 6 27 34 7 28 35
9 6 2 2 2 6 34 13 7 35 14
10 5 2 1 1 8 29 36 15 9 30 37 16
11 5 2 1 1 9 30 37 16 10 31 38 17
12 5 2 1 1 10 31 38 17 11 32 39 18
13 6 2 2 2 11 32 39 12 33 40
14 6 2 2 2 11 39 18 12 40 19
15 6 2 2 2 12 33 40 13 34 41
16 6 2 2 2 12 40 19 13 41 20
17 6 2 2 2 13 34 41 14 35 42
18 6 2 2 2 13 41 20 14 42 21
19 5 2 1 1 22 43 50 29 23 44 51 30
20 5 2 1 1 23 44 51 30 24 45 52 31
21 5 2 1 1 24 45 52 31 25 46 53 32
22 6 2 2 2 25 46 53 26 47 54
23 6 2 2 2 25 53 32 26 54 33
24 6 2 2 2 26 47 54 27 48 55
25 6 2 2 2 26 54 33 27 55 34
26 6 2 2 2 27 48 55 28 49 56
27 6 2 2 2 27 55 34 28 56 35
28 5 2 1 1 29 50 57 36 30 51 58 37
29 5 2 1 1 30 51 58 37 31 52 59 38
30 5 2 1 1 31 52 59 38 32 53 60 39
31 6 2 2 2 32 53 60 33 54 61
32 6 2 2 2 32 60 39 33 61 40
33 6 2 2 2 33 54 61 34 55 62
34 6 2 2 2 33 61 40 34 62 41
35 6 2 2 2 34 55 62 35 56 63
36 6 2 2 2 34 62 41 35 63 42
37 5 2 1 1 43 64 71 50 44 65 72 51
38 5 2 1 1 44 65 72 51 45 66 73 52
39 5 2 1 1 45 66 73 52 46 67 74 53
40 6 2 2 2 46 67 74 47 68 75
41 6 2 2 2 46 74 53 47 75 54
42 6 2 2 2 47 68 75 48 69 76
43 6 2 2 2 47 75 54 48 76 55
44 6 2 2 2 48 69 76 49 70 77
45 6 2 2 2 48 76 55 49 77 56
46 5 2 1 1 50 71 78 57 51 72 79 58
47 5 2 1 1 51 72 79 58 52 73 80 59
48 5 2 1 1 52 73 80 59 53 74 81 60
49 6 2 2 2 53 74 81 54 75 82
50 6 2 2 2 53 81 60 54 82 61
51 6 2 2 2 54 75 82 55 76 83
52 6 2 2 2 54 82 61 55 83 62
53 6 2 2 2 55 76 83 56 77 84
54 6 2 2 2 55 83 62 56 84 63
55 5 2 1 1 64 85 92 71 65 86 93 72
56 5 2 1 1 65 86 93 72 66 87 94 73
57 5 2 1 1 66 87 94 73 67 88 95 74
58 6 2 2 2 67 88 95 68 89 96
59 6 2 2 2 67 95 74 68 96 75
60 6 2 2 2 68 89 96 69 90 97
61 6 2 2 2 68 96 75 69 97 76
62 6 2 2 2 69 90 97 70 91 98
63 6 2 2 2 69 97 76 70 98 77
64 5 2 1 1 71 92 99 78 72 93 100 79
65 5 2 1 1 72 93 100 79 73 94 101 80
66 5 2 1 1 73 94 101 80 74 95 102 81
67 6 2 2 2 74 95 102 75 96 103
68 6 2 2 2 74 102 81 75 103 82
69 6 2 2 2 75 96 103 76 97 104
70 6 2 2 2 75 103 82 76 104 83
71 6 2 2 2 76 97 104 77 98 105
72 6 2 2 2 76 104 83 77 105 84
73 5 2 1 1 85 106 113 92 86 107 114 93
74 5 2 1 1 86 107 114 93 87 108 115 94
75 5 2 1 1 87 108 115 94 88 109 116 95
76 6 2 2 2 88 109 116 89 110 117
77 6 2 2 2 88 116 95 89 117 96
78 6 2 2 2 89 110 117 90 111 118
79 6 2 2 2 89 117 96 90 118 97
80 6 2 2 2 90 111 118 91 112 119
81 6 2 2 2 90 118 97 91 119 98
82 5 2 1 1 92 113 120 99 93 114 121 100
83 5 2 1 1 93 114 121 100 94 115 122 101
84 5 2 1 1 94 115 122 101 95 116 123 102
85 6 2 2 2 95 116 123 96 117 124
86 6 2 2 2 95 123 102 96 124 103
87 6 2 2 2 96 117 124 97 118 125
88 6 2 2 2 96 124 103 97 125 104
89 6 2 2 2 97 118 125 98 119 126
90 6 2 2 2 97 125 104 98 126 105
91 5 2 1 1 106 127 134 113 107 128 135 114
92 5 2 1 1 107 128 135 114 108 129 136 115
93 5 2 1 1 108 129 136 115 109 130 137 116
94 6 2 2 2 109 130 137 110 131 138
95 6 2 2 2 109 137 116 110 138 117
96 6 2 2 2 110 131 138 111 132 139
97 6 2 2 2 110 138 117 111 139 118
98 6 2 2 2 111 132 139 112 133 140
99 6 2 2 2 111 139 118 112 140 119
100 5 2 1 1 113 134 141 120 114 135 142 121
101 5 2 1 1 114 135 142 121 115 136 143 122
102 5 2 1 1 115 136 143 122 116 137 144 123
103 6 2 2 2 116 137 144 117 138 145
104 6 2 2 2 116 144 123 117 145 124
105 6 2 2 2 117 138 145 118 139 146
106 6 2 2 2 117 145 124 118 146 125
107 6 2 2 2 118 139 146 119 140 147
108 6 2 2 2 118 146 125 119 147 126
109 3 2 20 20 1 22 29 8
110 2 2 20 20 7 28 35
111 2 2 20 20 7 35 14
112 3 2 20 20 8 29 36 15
113 2 2 20 20 14 35 42
114 2 2 20 20 14 42 21
115 3 2 20 20 22 43 50 29
116 2 2 20 20 28 49 56
117 2 2 20 20 28 56 35
118 3 2 20 20 29 50 57 36
119 2 2 20 20 35 56 63
120 2 2 20 20 35 63 42
121 3 2 20 20 43 64 71 50
122 2 2 20 20 49 70 77
123 2 2 20 20 49 77 56
124 3 2 20 20 50 71 78 57
125 2 2 20 20 56 77 84
126 2 2 20 20 56 84 63
127 3 2 20 20 64 85 92 71
128 2 2 20 20 70 91 98
129 2 2 20 20 70 98 77
130 3 2 20 20 71 92 99 78
131 2 2 20 20 77 98 105
132 2 2 20 20 77 105 84
133 3 2 20 20 85 106 113 92
134 2 2 20 20 91 112 119
135 2 2 20 20 91 119 98
136 3 2 20 20 92 113 120 99
137 2 2 20 20 98 119 126
138 2 2 20 20 98 126 105
139 3 2 20 20 106 127 134 113
140 2 2 20 20 112 133 140
141 2 2 20 20 112 140 119
142 3 2 20 20 113 134 141 120
143 2 2 20 20 119 140 147
144 2 2 20 20 119 147 126
145 3 2 10 10 1 8 9 2
146 3 2 20 20 1 8 9 2
147 3 2 11 11 127 134 135 128
148 3 2 20 20 127 134 135 128
149 3 2 10 10 2 9 10 3
150 3 2 20 20 2 9 10 3
151 3 2 11 11 128 135 136 129
152 3 2 20 20 128 135 136 129
153 3 2 10 10 3 10 11 4
154 3 2 20 20 3 10 11 4
155 3 2 11 11 129 136 137 130
156 3 2 20 20 129 136 137 130
157 3 2 10 10 4 11 12 5
158 3 2 20 20 4 11 12 5
159 3 2 11 11 130 137 138 131
160 3 2 20 20 130 137 138 131
161 3 2 10 10 5 12 13 6
162 3 2 20 20 5 12 13 6
163 3 2 11 11 131 138 139 132
164 3 2 20 20 131 138 139 132
165 3 2 10 10 6 13 14 7
166 3 2 20 20 6 13 14 7
167 3 2 11 11 132 139 140 133
168 3 2 20 20 132 139 140 133
169 3 2 10 10 8 15 16 9
170 3 2 20 20 8 15 16 9
171 3 2 11 11 134 141 142 135
172 3 2 20 20 134 141 142 135
173 3 2 10 10 9 16 17 10
174 3 2 20 20 9 16 17 10
175 3 2 11 11 135 142 143 136
176 3 2 20 20 135 142 143 136
177 3 2 10 10 10 17 18 11
178 3 2 20 20 10 17 18 11
179 3 2 11 11 136 143 144 137
180 3 2 20 20 136 143 144 137
181 3 2 10 10 11 18 19 12
182 3 2 20 20 11 18 19 12
183 3 2 11 11 137 144 145 138
184 3 2 20 20 137 144 145 138
185 3 2 10 10 12 19 20 13
186 3 2 20 20 12 19 20 13
187 3 2 11 11 138 145 146 139
188 3 2 20 20 138 145 146 139
189 3 2 10 10 13 20 21 14
190 3 2 20 20 13 20 21 14
191 3 2 11 11 139 146 147 140
192 3 2 20 20 139 146 147 140
$EndElements
