$MeshFormat
2.2 0 8
$EndMeshFormat
$Nodes
49
1 0 -0.0005 0
2 0 -0.0005 0.0001
3 0 -0.0005 0.0002
4 0 -0.0003333333333333334 0
5 0 -0.0003333333333333334 0.0001
6 0 -0.0003333333333333334 0.0002
7 0 -0.0001666666666666667 0
8 0 -0.0001666666666666667 0.0001
9 0 -0.0001666666666666667 0.0002
10 0 0 0
11 0 0 0.0001
12 0 0 0.0002
13 0 0.0001666666666666666 0
14 0 0.0001666666666666666 0.0001
15 0 0.0001666666666666666 0.0002
16 0 0.0003333333333333334 0
17 0 0.0003333333333333334 0.0001
18 0 0.0003333333333333334 0.0002
19 0 0.0005 0
20 0 0.0005 0.0001
21 0 0.0005 0.0002
22 0 -0.0005 -5e-05
23 0 -0.0005 -2.5e-05
24 0 -0.0003333333333333334 -5e-05
25 0 -0.0003333333333333334 -2.5e-05
26 0 -0.0001666666666666667 -5e-05
27 0 -0.0001666666666666667 -2.5e-05
28 0 0 -5e-05
29 0 0 -2.5e-05
30 0 0.0001666666666666666 -5e-05
31 0 0.0001666666666666666 -2.5e-05
32 0 0.0003333333333333334 -5e-05
33 0 0.0003333333333333334 -2.5e-05
34 0 0.0005 -5e-05
35 0 0.0005 -2.5e-05
36 0 -0.0005 0.000225
37 0 -0.0005 0.00025
38 0 -0.0003333333333333334 0.000225
39 0 -0.0003333333333333334 0.00025
40 0 -0.0001666666666666667 0.000225
41 0 -0.0001666666666666667 0.00025
42 0 0 0.000225
43 0 0 0.00025
44 0 0.0001666666666666666 0.000225
45 0 0.0001666666666666666 0.00025
46 0 0.0003333333333333334 0.000225
47 0 0.0003333333333333334 0.00025
48 0 0.0005 0.000225
49 0 0.0005 0.00025
$EndNodes
$Elements
72
1 2 2 1 1 1 4 5
2 2 2 1 1 1 5 2
3 2 2 1 1 2 5 6
4 2 2 1 1 2 6 3
5 2 2 1 1 4 7 8
6 2 2 1 1 4 8 5
7 2 2 1 1 5 8 9
8 2 2 1 1 5 9 6
9 2 2 1 1 7 10 11
10 2 2 1 1 7 11 8
11 2 2 1 1 8 11 12
12 2 2 1 1 8 12 9
13 2 2 1 1 10 13 14
14 2 2 1 1 10 14 11
15 2 2 1 1 11 14 15
16 2 2 1 1 11 15 12
17 2 2 1 1 13 16 17
18 2 2 1 1 13 17 14
19 2 2 1 1 14 17 18
20 2 2 1 1 14 18 15
21 2 2 1 1 16 19 20
22 2 2 1 1 16 20 17
23 2 2 1 1 17 20 21
24 2 2 1 1 17 21 18
25 2 2 10 10 22 24 25
26 2 2 10 10 22 25 23
27 2 2 10 10 23 25 4
28 2 2 10 10 23 4 1
29 2 2 10 10 24 26 27
30 2 2 10 10 24 27 25
31 2 2 10 10 25 27 7
32 2 2 10 10 25 7 4
33 2 2 10 10 26 28 29
34 2 2 10 10 26 29 27
35 2 2 10 10 27 29 10
36 2 2 10 10 27 10 7
37 2 2 10 10 28 30 31
38 2 2 10 10 28 31 29
39 2 2 10 10 29 31 13
40 2 2 10 10 29 13 10
41 2 2 10 10 30 32 33
42 2 2 10 10 30 33 31
43 2 2 10 10 31 33 16
44 2 2 10 10 31 16 13
45 2 2 10 10 32 34 35
46 2 2 10 10 32 35 33
47 2 2 10 10 33 35 19
48 2 2 10 10 33 19 16
49 2 2 11 11 3 6 38
50 2 2 11 11 3 38 36
51 2 2 11 11 36 38 39
52 2 2 11 11 36 39 37
53 2 2 11 11 6 9 40
54 2 2 11 11 6 40 38
55 2 2 11 11 38 40 41
56 2 2 11 11 38 41 39
57 2 2 11 11 9 12 42
58 2 2 11 11 9 42 40
59 2 2 11 11 40 42 43
60 2 2 11 11 40 43 41
61 2 2 11 11 12 15 44
62 2 2 11 11 12 44 42
63 2 2 11 11 42 44 45
64 2 2 11 11 42 45 43
65 2 2 11 11 15 18 46
66 2 2 11 11 15 46 44
67 2 2 11 11 44 46 47
68 2 2 11 11 44 47 45
69 2 2 11 11 18 21 48
70 2 2 11 11 18 48 46
71 2 2 11 11 46 48 49
72 2 2 11 11 46 49 47
$EndElements
