$MeshFormat
4.1 0 8
$EndMeshFormat
$Entities
2 0 3 0
1 0 0 0 0
2 0 0 0 0
1 0 0 0 0 0 0 1 10 0
2 0 0 0 0 0 0 1 1 0
3 0 0 0 0 0 0 1 11 0
$EndEntities
$Nodes
1 1353 1 1353
0 1 0 1353
1
2
3
4
5
6
7
8
9
10
11
12
13
14
15
16
17
18
19
20
21
22
23
24
25
26
27
28
29
30
31
32
33
34
35
36
37
38
39
40
41
42
43
44
45
46
47
48
49
50
51
52
53
54
55
56
57
58
59
60
61
62
63
64
65
66
67
68
69
70
71
72
73
74
75
76
77
78
79
80
81
82
83
84
85
86
87
88
89
90
91
92
93
94
95
96
97
98
99
100
101
102
103
104
105
106
107
108
109
110
111
112
113
114
115
116
117
118
119
120
121
122
123
124
125
126
127
128
129
130
131
132
133
134
135
136
137
138
139
140
141
142
143
144
145
146
147
148
149
150
151
152
153
154
155
156
157
158
159
160
161
162
163
164
165
166
167
168
169
170
171
172
173
174
175
176
177
178
179
180
181
182
183
184
185
186
187
188
189
190
191
192
193
194
195
196
197
198
199
200
201
202
203
204
205
206
207
208
209
210
211
212
213
214
215
216
217
218
219
220
221
222
223
224
225
226
227
228
229
230
231
232
233
234
235
236
237
238
239
240
241
242
243
244
245
246
247
248
249
250
251
252
253
254
255
256
257
258
259
260
261
262
263
264
265
266
267
268
269
270
271
272
273
274
275
276
277
278
279
280
281
282
283
284
285
286
287
288
289
290
291
292
293
294
295
296
297
298
299
300
301
302
303
304
305
306
307
308
309
310
311
312
313
314
315
316
317
318
319
320
321
322
323
324
325
326
327
328
329
330
331
332
333
334
335
336
337
338
339
340
341
342
343
344
345
346
347
348
349
350
351
352
353
354
355
356
357
358
359
360
361
362
363
364
365
366
367
368
369
370
371
372
373
374
375
376
377
378
379
380
381
382
383
384
385
386
387
388
389
390
391
392
393
394
395
396
397
398
399
400
401
402
403
404
405
406
407
408
409
410
411
412
413
414
415
416
417
418
419
420
421
422
423
424
425
426
427
428
429
430
431
432
433
434
435
436
437
438
439
440
441
442
443
444
445
446
447
448
449
450
451
452
453
454
455
456
457
458
459
460
461
462
463
464
465
466
467
468
469
470
471
472
473
474
475
476
477
478
479
480
481
482
483
484
485
486
487
488
489
490
491
492
493
494
495
496
497
498
499
500
501
502
503
504
505
506
507
508
509
510
511
512
513
514
515
516
517
518
519
520
521
522
523
524
525
526
527
528
529
530
531
532
533
534
535
536
537
538
539
540
541
542
543
544
545
546
547
548
549
550
551
552
553
554
555
556
557
558
559
560
561
562
563
564
565
566
567
568
569
570
571
572
573
574
575
576
577
578
579
580
581
582
583
584
585
586
587
588
589
590
591
592
593
594
595
596
597
598
599
600
601
602
603
604
605
606
607
608
609
610
611
612
613
614
615
616
617
618
619
620
621
622
623
624
625
626
627
628
629
630
631
632
633
634
635
636
637
638
639
640
641
642
643
644
645
646
647
648
649
650
651
652
653
654
655
656
657
658
659
660
661
662
663
664
665
666
667
668
669
670
671
672
673
674
675
676
677
678
679
680
681
682
683
684
685
686
687
688
689
690
691
692
693
694
695
696
697
698
699
700
701
702
703
704
705
706
707
708
709
710
711
712
713
714
715
716
717
718
719
720
721
722
723
724
725
726
727
728
729
730
731
732
733
734
735
736
737
738
739
740
741
742
743
744
745
746
747
748
749
750
751
752
753
754
755
756
757
758
759
760
761
762
763
764
765
766
767
768
769
770
771
772
773
774
775
776
777
778
779
780
781
782
783
784
785
786
787
788
789
790
791
792
793
794
795
796
797
798
799
800
801
802
803
804
805
806
807
808
809
810
811
812
813
814
815
816
817
818
819
820
821
822
823
824
825
826
827
828
829
830
831
832
833
834
835
836
837
838
839
840
841
842
843
844
845
846
847
848
849
850
851
852
853
854
855
856
857
858
859
860
861
862
863
864
865
866
867
868
869
870
871
872
873
874
875
876
877
878
879
880
881
882
883
884
885
886
887
888
889
890
891
892
893
894
895
896
897
898
899
900
901
902
903
904
905
906
907
908
909
910
911
912
913
914
915
916
917
918
919
920
921
922
923
924
925
926
927
928
929
930
931
932
933
934
935
936
937
938
939
940
941
942
943
944
945
946
947
948
949
950
951
952
953
954
955
956
957
958
959
960
961
962
963
964
965
966
967
968
969
970
971
972
973
974
975
976
977
978
979
980
981
982
983
984
985
986
987
988
989
990
991
992
993
994
995
996
997
998
999
1000
1001
1002
1003
1004
1005
1006
1007
1008
1009
1010
1011
1012
1013
1014
1015
1016
1017
1018
1019
1020
1021
1022
1023
1024
1025
1026
1027
1028
1029
1030
1031
1032
1033
1034
1035
1036
1037
1038
1039
1040
1041
1042
1043
1044
1045
1046
1047
1048
1049
1050
1051
1052
1053
1054
1055
1056
1057
1058
1059
1060
1061
1062
1063
1064
1065
1066
1067
1068
1069
1070
1071
1072
1073
1074
1075
1076
1077
1078
1079
1080
1081
1082
1083
1084
1085
1086
1087
1088
1089
1090
1091
1092
1093
1094
1095
1096
1097
1098
1099
1100
1101
1102
1103
1104
1105
1106
1107
1108
1109
1110
1111
1112
1113
1114
1115
1116
1117
1118
1119
1120
1121
1122
1123
1124
1125
1126
1127
1128
1129
1130
1131
1132
1133
1134
1135
1136
1137
1138
1139
1140
1141
1142
1143
1144
1145
1146
1147
1148
1149
1150
1151
1152
1153
1154
1155
1156
1157
1158
1159
1160
1161
1162
1163
1164
1165
1166
1167
1168
1169
1170
1171
1172
1173
1174
1175
1176
1177
1178
1179
1180
1181
1182
1183
1184
1185
1186
1187
1188
1189
1190
1191
1192
1193
1194
1195
1196
1197
1198
1199
1200
1201
1202
1203
1204
1205
1206
1207
1208
1209
1210
1211
1212
1213
1214
1215
1216
1217
1218
1219
1220
1221
1222
1223
1224
1225
1226
1227
1228
1229
1230
1231
1232
1233
1234
1235
1236
1237
1238
1239
1240
1241
1242
1243
1244
1245
1246
1247
1248
1249
1250
1251
1252
1253
1254
1255
1256
1257
1258
1259
1260
1261
1262
1263
1264
1265
1266
1267
1268
1269
1270
1271
1272
1273
1274
1275
1276
1277
1278
1279
1280
1281
1282
1283
1284
1285
1286
1287
1288
1289
1290
1291
1292
1293
1294
1295
1296
1297
1298
1299
1300
1301
1302
1303
1304
1305
1306
1307
1308
1309
1310
1311
1312
1313
1314
1315
1316
1317
1318
1319
1320
1321
1322
1323
1324
1325
1326
1327
1328
1329
1330
1331
1332
1333
1334
1335
1336
1337
1338
1339
1340
1341
1342
1343
1344
1345
1346
1347
1348
1349
1350
1351
1352
1353
0 -0.0005 -5e-05
0 -0.0005 -4.826850796703854e-05
0 -0.0005 -4.593099372254057e-05
0 -0.0005 -4.277534949246831e-05
0 -0.0005 -3.851522978187075e-05
0 -0.0005 -3.276406817256406e-05
0 -0.0005 -2.5e-05
0 -0.0005 -1.723593182743596e-05
0 -0.0005 -1.148477021812926e-05
0 -0.0005 -7.224650507531695e-06
0 -0.0005 -4.069006277459433e-06
0 -0.0005 -1.73149203296146e-06
0 -0.0005 0
0 -0.0005 1.507641859676234e-05
0 -0.0005 3.54295837023915e-05
0 -0.0005 6.290635659499086e-05
0 -0.0005 0.0001
0 -0.0005 0.0001370936434050091
0 -0.0005 0.0001645704162976085
0 -0.0005 0.0001849235814032377
0 -0.0005 0.0002
0 -0.0005 0.0002017314920329615
0 -0.0005 0.0002040690062774595
0 -0.0005 0.0002072246505075317
0 -0.0005 0.0002114847702181292
0 -0.0005 0.000217235931827436
0 -0.0005 0.000225
0 -0.0005 0.0002327640681725641
0 -0.0005 0.0002385152297818707
0 -0.0005 0.0002427753494924683
0 -0.0005 0.0002459309937225406
0 -0.0005 0.0002482685079670386
0 -0.0005 0.00025
0 -0.000475 -5e-05
0 -0.000475 -4.826850796703854e-05
0 -0.000475 -4.593099372254057e-05
0 -0.000475 -4.277534949246831e-05
0 -0.000475 -3.851522978187075e-05
0 -0.000475 -3.276406817256406e-05
0 -0.000475 -2.5e-05
0 -0.000475 -1.723593182743596e-05
0 -0.000475 -1.148477021812926e-05
0 -0.000475 -7.224650507531695e-06
0 -0.000475 -4.069006277459433e-06
0 -0.000475 -1.73149203296146e-06
0 -0.000475 0
0 -0.000475 1.507641859676234e-05
0 -0.000475 3.54295837023915e-05
0 -0.000475 6.290635659499086e-05
0 -0.000475 0.0001
0 -0.000475 0.0001370936434050091
0 -0.000475 0.0001645704162976085
0 -0.000475 0.0001849235814032377
0 -0.000475 0.0002
0 -0.000475 0.0002017314920329615
0 -0.000475 0.0002040690062774595
0 -0.000475 0.0002072246505075317
0 -0.000475 0.0002114847702181292
0 -0.000475 0.000217235931827436
0 -0.000475 0.000225
0 -0.000475 0.0002327640681725641
0 -0.000475 0.0002385152297818707
0 -0.000475 0.0002427753494924683
0 -0.000475 0.0002459309937225406
0 -0.000475 0.0002482685079670386
0 -0.000475 0.00025
0 -0.00045 -5e-05
0 -0.00045 -4.826850796703854e-05
0 -0.00045 -4.593099372254057e-05
0 -0.00045 -4.277534949246831e-05
0 -0.00045 -3.851522978187075e-05
0 -0.00045 -3.276406817256406e-05
0 -0.00045 -2.5e-05
0 -0.00045 -1.723593182743596e-05
0 -0.00045 -1.148477021812926e-05
0 -0.00045 -7.224650507531695e-06
0 -0.00045 -4.069006277459433e-06
0 -0.00045 -1.73149203296146e-06
0 -0.00045 0
0 -0.00045 1.507641859676234e-05
0 -0.00045 3.54295837023915e-05
0 -0.00045 6.290635659499086e-05
0 -0.00045 0.0001
0 -0.00045 0.0001370936434050091
0 -0.00045 0.0001645704162976085
0 -0.00045 0.0001849235814032377
0 -0.00045 0.0002
0 -0.00045 0.0002017314920329615
0 -0.00045 0.0002040690062774595
0 -0.00045 0.0002072246505075317
0 -0.00045 0.0002114847702181292
0 -0.00045 0.000217235931827436
0 -0.00045 0.000225
0 -0.00045 0.0002327640681725641
0 -0.00045 0.0002385152297818707
0 -0.00045 0.0002427753494924683
0 -0.00045 0.0002459309937225406
0 -0.00045 0.0002482685079670386
0 -0.00045 0.00025
0 -0.000425 -5e-05
0 -0.000425 -4.826850796703854e-05
0 -0.000425 -4.593099372254057e-05
0 -0.000425 -4.277534949246831e-05
0 -0.000425 -3.851522978187075e-05
0 -0.000425 -3.276406817256406e-05
0 -0.000425 -2.5e-05
0 -0.000425 -1.723593182743596e-05
0 -0.000425 -1.148477021812926e-05
0 -0.000425 -7.224650507531695e-06
0 -0.000425 -4.069006277459433e-06
0 -0.000425 -1.73149203296146e-06
0 -0.000425 0
0 -0.000425 1.507641859676234e-05
0 -0.000425 3.54295837023915e-05
0 -0.000425 6.290635659499086e-05
0 -0.000425 0.0001
0 -0.000425 0.0001370936434050091
0 -0.000425 0.0001645704162976085
0 -0.000425 0.0001849235814032377
0 -0.000425 0.0002
0 -0.000425 0.0002017314920329615
0 -0.000425 0.0002040690062774595
0 -0.000425 0.0002072246505075317
0 -0.000425 0.0002114847702181292
0 -0.000425 0.000217235931827436
0 -0.000425 0.000225
0 -0.000425 0.0002327640681725641
0 -0.000425 0.0002385152297818707
0 -0.000425 0.0002427753494924683
0 -0.000425 0.0002459309937225406
0 -0.000425 0.0002482685079670386
0 -0.000425 0.00025
0 -0.0004 -5e-05
0 -0.0004 -4.826850796703854e-05
0 -0.0004 -4.593099372254057e-05
0 -0.0004 -4.277534949246831e-05
0 -0.0004 -3.851522978187075e-05
0 -0.0004 -3.276406817256406e-05
0 -0.0004 -2.5e-05
0 -0.0004 -1.723593182743596e-05
0 -0.0004 -1.148477021812926e-05
0 -0.0004 -7.224650507531695e-06
0 -0.0004 -4.069006277459433e-06
0 -0.0004 -1.73149203296146e-06
0 -0.0004 0
0 -0.0004 1.507641859676234e-05
0 -0.0004 3.54295837023915e-05
0 -0.0004 6.290635659499086e-05
0 -0.0004 0.0001
0 -0.0004 0.0001370936434050091
0 -0.0004 0.0001645704162976085
0 -0.0004 0.0001849235814032377
0 -0.0004 0.0002
0 -0.0004 0.0002017314920329615
0 -0.0004 0.0002040690062774595
0 -0.0004 0.0002072246505075317
0 -0.0004 0.0002114847702181292
0 -0.0004 0.000217235931827436
0 -0.0004 0.000225
0 -0.0004 0.0002327640681725641
0 -0.0004 0.0002385152297818707
0 -0.0004 0.0002427753494924683
0 -0.0004 0.0002459309937225406
0 -0.0004 0.0002482685079670386
0 -0.0004 0.00025
0 -0.000375 -5e-05
0 -0.000375 -4.826850796703854e-05
0 -0.000375 -4.593099372254057e-05
0 -0.000375 -4.277534949246831e-05
0 -0.000375 -3.851522978187075e-05
0 -0.000375 -3.276406817256406e-05
0 -0.000375 -2.5e-05
0 -0.000375 -1.723593182743596e-05
0 -0.000375 -1.148477021812926e-05
0 -0.000375 -7.224650507531695e-06
0 -0.000375 -4.069006277459433e-06
0 -0.000375 -1.73149203296146e-06
0 -0.000375 0
0 -0.000375 1.507641859676234e-05
0 -0.000375 3.54295837023915e-05
0 -0.000375 6.290635659499086e-05
0 -0.000375 0.0001
0 -0.000375 0.0001370936434050091
0 -0.000375 0.0001645704162976085
0 -0.000375 0.0001849235814032377
0 -0.000375 0.0002
0 -0.000375 0.0002017314920329615
0 -0.000375 0.0002040690062774595
0 -0.000375 0.0002072246505075317
0 -0.000375 0.0002114847702181292
0 -0.000375 0.000217235931827436
0 -0.000375 0.000225
0 -0.000375 0.0002327640681725641
0 -0.000375 0.0002385152297818707
0 -0.000375 0.0002427753494924683
0 -0.000375 0.0002459309937225406
0 -0.000375 0.0002482685079670386
0 -0.000375 0.00025
0 -0.00035 -5e-05
0 -0.00035 -4.826850796703854e-05
0 -0.00035 -4.593099372254057e-05
0 -0.00035 -4.277534949246831e-05
0 -0.00035 -3.851522978187075e-05
0 -0.00035 -3.276406817256406e-05
0 -0.00035 -2.5e-05
0 -0.00035 -1.723593182743596e-05
0 -0.00035 -1.148477021812926e-05
0 -0.00035 -7.224650507531695e-06
0 -0.00035 -4.069006277459433e-06
0 -0.00035 -1.73149203296146e-06
0 -0.00035 0
0 -0.00035 1.507641859676234e-05
0 -0.00035 3.54295837023915e-05
0 -0.00035 6.290635659499086e-05
0 -0.00035 0.0001
0 -0.00035 0.0001370936434050091
0 -0.00035 0.0001645704162976085
0 -0.00035 0.0001849235814032377
0 -0.00035 0.0002
0 -0.00035 0.0002017314920329615
0 -0.00035 0.0002040690062774595
0 -0.00035 0.0002072246505075317
0 -0.00035 0.0002114847702181292
0 -0.00035 0.000217235931827436
0 -0.00035 0.000225
0 -0.00035 0.0002327640681725641
0 -0.00035 0.0002385152297818707
0 -0.00035 0.0002427753494924683
0 -0.00035 0.0002459309937225406
0 -0.00035 0.0002482685079670386
0 -0.00035 0.00025
0 -0.000325 -5e-05
0 -0.000325 -4.826850796703854e-05
0 -0.000325 -4.593099372254057e-05
0 -0.000325 -4.277534949246831e-05
0 -0.000325 -3.851522978187075e-05
0 -0.000325 -3.276406817256406e-05
0 -0.000325 -2.5e-05
0 -0.000325 -1.723593182743596e-05
0 -0.000325 -1.148477021812926e-05
0 -0.000325 -7.224650507531695e-06
0 -0.000325 -4.069006277459433e-06
0 -0.000325 -1.73149203296146e-06
0 -0.000325 0
0 -0.000325 1.507641859676234e-05
0 -0.000325 3.54295837023915e-05
0 -0.000325 6.290635659499086e-05
0 -0.000325 0.0001
0 -0.000325 0.0001370936434050091
0 -0.000325 0.0001645704162976085
0 -0.000325 0.0001849235814032377
0 -0.000325 0.0002
0 -0.000325 0.0002017314920329615
0 -0.000325 0.0002040690062774595
0 -0.000325 0.0002072246505075317
0 -0.000325 0.0002114847702181292
0 -0.000325 0.000217235931827436
0 -0.000325 0.000225
0 -0.000325 0.0002327640681725641
0 -0.000325 0.0002385152297818707
0 -0.000325 0.0002427753494924683
0 -0.000325 0.0002459309937225406
0 -0.000325 0.0002482685079670386
0 -0.000325 0.00025
0 -0.0003 -5e-05
0 -0.0003 -4.826850796703854e-05
0 -0.0003 -4.593099372254057e-05
0 -0.0003 -4.277534949246831e-05
0 -0.0003 -3.851522978187075e-05
0 -0.0003 -3.276406817256406e-05
0 -0.0003 -2.5e-05
0 -0.0003 -1.723593182743596e-05
0 -0.0003 -1.148477021812926e-05
0 -0.0003 -7.224650507531695e-06
0 -0.0003 -4.069006277459433e-06
0 -0.0003 -1.73149203296146e-06
0 -0.0003 0
0 -0.0003 1.507641859676234e-05
0 -0.0003 3.54295837023915e-05
0 -0.0003 6.290635659499086e-05
0 -0.0003 0.0001
0 -0.0003 0.0001370936434050091
0 -0.0003 0.0001645704162976085
0 -0.0003 0.0001849235814032377
0 -0.0003 0.0002
0 -0.0003 0.0002017314920329615
0 -0.0003 0.0002040690062774595
0 -0.0003 0.0002072246505075317
0 -0.0003 0.0002114847702181292
0 -0.0003 0.000217235931827436
0 -0.0003 0.000225
0 -0.0003 0.0002327640681725641
0 -0.0003 0.0002385152297818707
0 -0.0003 0.0002427753494924683
0 -0.0003 0.0002459309937225406
0 -0.0003 0.0002482685079670386
0 -0.0003 0.00025
0 -0.000275 -5e-05
0 -0.000275 -4.826850796703854e-05
0 -0.000275 -4.593099372254057e-05
0 -0.000275 -4.277534949246831e-05
0 -0.000275 -3.851522978187075e-05
0 -0.000275 -3.276406817256406e-05
0 -0.000275 -2.5e-05
0 -0.000275 -1.723593182743596e-05
0 -0.000275 -1.148477021812926e-05
0 -0.000275 -7.224650507531695e-06
0 -0.000275 -4.069006277459433e-06
0 -0.000275 -1.73149203296146e-06
0 -0.000275 0
0 -0.000275 1.507641859676234e-05
0 -0.000275 3.54295837023915e-05
0 -0.000275 6.290635659499086e-05
0 -0.000275 0.0001
0 -0.000275 0.0001370936434050091
0 -0.000275 0.0001645704162976085
0 -0.000275 0.0001849235814032377
0 -0.000275 0.0002
0 -0.000275 0.0002017314920329615
0 -0.000275 0.0002040690062774595
0 -0.000275 0.0002072246505075317
0 -0.000275 0.0002114847702181292
0 -0.000275 0.000217235931827436
0 -0.000275 0.000225
0 -0.000275 0.0002327640681725641
0 -0.000275 0.0002385152297818707
0 -0.000275 0.0002427753494924683
0 -0.000275 0.0002459309937225406
0 -0.000275 0.0002482685079670386
0 -0.000275 0.00025
0 -0.00025 -5e-05
0 -0.00025 -4.826850796703854e-05
0 -0.00025 -4.593099372254057e-05
0 -0.00025 -4.277534949246831e-05
0 -0.00025 -3.851522978187075e-05
0 -0.00025 -3.276406817256406e-05
0 -0.00025 -2.5e-05
0 -0.00025 -1.723593182743596e-05
0 -0.00025 -1.148477021812926e-05
0 -0.00025 -7.224650507531695e-06
0 -0.00025 -4.069006277459433e-06
0 -0.00025 -1.73149203296146e-06
0 -0.00025 0
0 -0.00025 1.507641859676234e-05
0 -0.00025 3.54295837023915e-05
0 -0.00025 6.290635659499086e-05
0 -0.00025 0.0001
0 -0.00025 0.0001370936434050091
0 -0.00025 0.0001645704162976085
0 -0.00025 0.0001849235814032377
0 -0.00025 0.0002
0 -0.00025 0.0002017314920329615
0 -0.00025 0.0002040690062774595
0 -0.00025 0.0002072246505075317
0 -0.00025 0.0002114847702181292
0 -0.00025 0.000217235931827436
0 -0.00025 0.000225
0 -0.00025 0.0002327640681725641
0 -0.00025 0.0002385152297818707
0 -0.00025 0.0002427753494924683
0 -0.00025 0.0002459309937225406
0 -0.00025 0.0002482685079670386
0 -0.00025 0.00025
0 -0.000225 -5e-05
0 -0.000225 -4.826850796703854e-05
0 -0.000225 -4.593099372254057e-05
0 -0.000225 -4.277534949246831e-05
0 -0.000225 -3.851522978187075e-05
0 -0.000225 -3.276406817256406e-05
0 -0.000225 -2.5e-05
0 -0.000225 -1.723593182743596e-05
0 -0.000225 -1.148477021812926e-05
0 -0.000225 -7.224650507531695e-06
0 -0.000225 -4.069006277459433e-06
0 -0.000225 -1.73149203296146e-06
0 -0.000225 0
0 -0.000225 1.507641859676234e-05
0 -0.000225 3.54295837023915e-05
0 -0.000225 6.290635659499086e-05
0 -0.000225 0.0001
0 -0.000225 0.0001370936434050091
0 -0.000225 0.0001645704162976085
0 -0.000225 0.0001849235814032377
0 -0.000225 0.0002
0 -0.000225 0.0002017314920329615
0 -0.000225 0.0002040690062774595
0 -0.000225 0.0002072246505075317
0 -0.000225 0.0002114847702181292
0 -0.000225 0.000217235931827436
0 -0.000225 0.000225
0 -0.000225 0.0002327640681725641
0 -0.000225 0.0002385152297818707
0 -0.000225 0.0002427753494924683
0 -0.000225 0.0002459309937225406
0 -0.000225 0.0002482685079670386
0 -0.000225 0.00025
0 -0.0002 -5e-05
0 -0.0002 -4.826850796703854e-05
0 -0.0002 -4.593099372254057e-05
0 -0.0002 -4.277534949246831e-05
0 -0.0002 -3.851522978187075e-05
0 -0.0002 -3.276406817256406e-05
0 -0.0002 -2.5e-05
0 -0.0002 -1.723593182743596e-05
0 -0.0002 -1.148477021812926e-05
0 -0.0002 -7.224650507531695e-06
0 -0.0002 -4.069006277459433e-06
0 -0.0002 -1.73149203296146e-06
0 -0.0002 0
0 -0.0002 1.507641859676234e-05
0 -0.0002 3.54295837023915e-05
0 -0.0002 6.290635659499086e-05
0 -0.0002 0.0001
0 -0.0002 0.0001370936434050091
0 -0.0002 0.0001645704162976085
0 -0.0002 0.0001849235814032377
0 -0.0002 0.0002
0 -0.0002 0.0002017314920329615
0 -0.0002 0.0002040690062774595
0 -0.0002 0.0002072246505075317
0 -0.0002 0.0002114847702181292
0 -0.0002 0.000217235931827436
0 -0.0002 0.000225
0 -0.0002 0.0002327640681725641
0 -0.0002 0.0002385152297818707
0 -0.0002 0.0002427753494924683
0 -0.0002 0.0002459309937225406
0 -0.0002 0.0002482685079670386
0 -0.0002 0.00025
0 -0.000175 -5e-05
0 -0.000175 -4.826850796703854e-05
0 -0.000175 -4.593099372254057e-05
0 -0.000175 -4.277534949246831e-05
0 -0.000175 -3.851522978187075e-05
0 -0.000175 -3.276406817256406e-05
0 -0.000175 -2.5e-05
0 -0.000175 -1.723593182743596e-05
0 -0.000175 -1.148477021812926e-05
0 -0.000175 -7.224650507531695e-06
0 -0.000175 -4.069006277459433e-06
0 -0.000175 -1.73149203296146e-06
0 -0.000175 0
0 -0.000175 1.507641859676234e-05
0 -0.000175 3.54295837023915e-05
0 -0.000175 6.290635659499086e-05
0 -0.000175 0.0001
0 -0.000175 0.0001370936434050091
0 -0.000175 0.0001645704162976085
0 -0.000175 0.0001849235814032377
0 -0.000175 0.0002
0 -0.000175 0.0002017314920329615
0 -0.000175 0.0002040690062774595
0 -0.000175 0.0002072246505075317
0 -0.000175 0.0002114847702181292
0 -0.000175 0.000217235931827436
0 -0.000175 0.000225
0 -0.000175 0.0002327640681725641
0 -0.000175 0.0002385152297818707
0 -0.000175 0.0002427753494924683
0 -0.000175 0.0002459309937225406
0 -0.000175 0.0002482685079670386
0 -0.000175 0.00025
0 -0.00015 -5e-05
0 -0.00015 -4.826850796703854e-05
0 -0.00015 -4.593099372254057e-05
0 -0.00015 -4.277534949246831e-05
0 -0.00015 -3.851522978187075e-05
0 -0.00015 -3.276406817256406e-05
0 -0.00015 -2.5e-05
0 -0.00015 -1.723593182743596e-05
0 -0.00015 -1.148477021812926e-05
0 -0.00015 -7.224650507531695e-06
0 -0.00015 -4.069006277459433e-06
0 -0.00015 -1.73149203296146e-06
0 -0.00015 0
0 -0.00015 1.507641859676234e-05
0 -0.00015 3.54295837023915e-05
0 -0.00015 6.290635659499086e-05
0 -0.00015 0.0001
0 -0.00015 0.0001370936434050091
0 -0.00015 0.0001645704162976085
0 -0.00015 0.0001849235814032377
0 -0.00015 0.0002
0 -0.00015 0.0002017314920329615
0 -0.00015 0.0002040690062774595
0 -0.00015 0.0002072246505075317
0 -0.00015 0.0002114847702181292
0 -0.00015 0.000217235931827436
0 -0.00015 0.000225
0 -0.00015 0.0002327640681725641
0 -0.00015 0.0002385152297818707
0 -0.00015 0.0002427753494924683
0 -0.00015 0.0002459309937225406
0 -0.00015 0.0002482685079670386
0 -0.00015 0.00025
0 -0.000125 -5e-05
0 -0.000125 -4.826850796703854e-05
0 -0.000125 -4.593099372254057e-05
0 -0.000125 -4.277534949246831e-05
0 -0.000125 -3.851522978187075e-05
0 -0.000125 -3.276406817256406e-05
0 -0.000125 -2.5e-05
0 -0.000125 -1.723593182743596e-05
0 -0.000125 -1.148477021812926e-05
0 -0.000125 -7.224650507531695e-06
0 -0.000125 -4.069006277459433e-06
0 -0.000125 -1.73149203296146e-06
0 -0.000125 0
0 -0.000125 1.507641859676234e-05
0 -0.000125 3.54295837023915e-05
0 -0.000125 6.290635659499086e-05
0 -0.000125 0.0001
0 -0.000125 0.0001370936434050091
0 -0.000125 0.0001645704162976085
0 -0.000125 0.0001849235814032377
0 -0.000125 0.0002
0 -0.000125 0.0002017314920329615
0 -0.000125 0.0002040690062774595
0 -0.000125 0.0002072246505075317
0 -0.000125 0.0002114847702181292
0 -0.000125 0.000217235931827436
0 -0.000125 0.000225
0 -0.000125 0.0002327640681725641
0 -0.000125 0.0002385152297818707
0 -0.000125 0.0002427753494924683
0 -0.000125 0.0002459309937225406
0 -0.000125 0.0002482685079670386
0 -0.000125 0.00025
0 -9.999999999999999e-05 -5e-05
0 -9.999999999999999e-05 -4.826850796703854e-05
0 -9.999999999999999e-05 -4.593099372254057e-05
0 -9.999999999999999e-05 -4.277534949246831e-05
0 -9.999999999999999e-05 -3.851522978187075e-05
0 -9.999999999999999e-05 -3.276406817256406e-05
0 -9.999999999999999e-05 -2.5e-05
0 -9.999999999999999e-05 -1.723593182743596e-05
0 -9.999999999999999e-05 -1.148477021812926e-05
0 -9.999999999999999e-05 -7.224650507531695e-06
0 -9.999999999999999e-05 -4.069006277459433e-06
0 -9.999999999999999e-05 -1.73149203296146e-06
0 -9.999999999999999e-05 0
0 -9.999999999999999e-05 1.507641859676234e-05
0 -9.999999999999999e-05 3.54295837023915e-05
0 -9.999999999999999e-05 6.290635659499086e-05
0 -9.999999999999999e-05 0.0001
0 -9.999999999999999e-05 0.0001370936434050091
0 -9.999999999999999e-05 0.0001645704162976085
0 -9.999999999999999e-05 0.0001849235814032377
0 -9.999999999999999e-05 0.0002
0 -9.999999999999999e-05 0.0002017314920329615
0 -9.999999999999999e-05 0.0002040690062774595
0 -9.999999999999999e-05 0.0002072246505075317
0 -9.999999999999999e-05 0.0002114847702181292
0 -9.999999999999999e-05 0.000217235931827436
0 -9.999999999999999e-05 0.000225
0 -9.999999999999999e-05 0.0002327640681725641
0 -9.999999999999999e-05 0.0002385152297818707
0 -9.999999999999999e-05 0.0002427753494924683
0 -9.999999999999999e-05 0.0002459309937225406
0 -9.999999999999999e-05 0.0002482685079670386
0 -9.999999999999999e-05 0.00025
0 -7.499999999999998e-05 -5e-05
0 -7.499999999999998e-05 -4.826850796703854e-05
0 -7.499999999999998e-05 -4.593099372254057e-05
0 -7.499999999999998e-05 -4.277534949246831e-05
0 -7.499999999999998e-05 -3.851522978187075e-05
0 -7.499999999999998e-05 -3.276406817256406e-05
0 -7.499999999999998e-05 -2.5e-05
0 -7.499999999999998e-05 -1.723593182743596e-05
0 -7.499999999999998e-05 -1.148477021812926e-05
0 -7.499999999999998e-05 -7.224650507531695e-06
0 -7.499999999999998e-05 -4.069006277459433e-06
0 -7.499999999999998e-05 -1.73149203296146e-06
0 -7.499999999999998e-05 0
0 -7.499999999999998e-05 1.507641859676234e-05
0 -7.499999999999998e-05 3.54295837023915e-05
0 -7.499999999999998e-05 6.290635659499086e-05
0 -7.499999999999998e-05 0.0001
0 -7.499999999999998e-05 0.0001370936434050091
0 -7.499999999999998e-05 0.0001645704162976085
0 -7.499999999999998e-05 0.0001849235814032377
0 -7.499999999999998e-05 0.0002
0 -7.499999999999998e-05 0.0002017314920329615
0 -7.499999999999998e-05 0.0002040690062774595
0 -7.499999999999998e-05 0.0002072246505075317
0 -7.499999999999998e-05 0.0002114847702181292
0 -7.499999999999998e-05 0.000217235931827436
0 -7.499999999999998e-05 0.000225
0 -7.499999999999998e-05 0.0002327640681725641
0 -7.499999999999998e-05 0.0002385152297818707
0 -7.499999999999998e-05 0.0002427753494924683
0 -7.499999999999998e-05 0.0002459309937225406
0 -7.499999999999998e-05 0.0002482685079670386
0 -7.499999999999998e-05 0.00025
0 -4.999999999999997e-05 -5e-05
0 -4.999999999999997e-05 -4.826850796703854e-05
0 -4.999999999999997e-05 -4.593099372254057e-05
0 -4.999999999999997e-05 -4.277534949246831e-05
0 -4.999999999999997e-05 -3.851522978187075e-05
0 -4.999999999999997e-05 -3.276406817256406e-05
0 -4.999999999999997e-05 -2.5e-05
0 -4.999999999999997e-05 -1.723593182743596e-05
0 -4.999999999999997e-05 -1.148477021812926e-05
0 -4.999999999999997e-05 -7.224650507531695e-06
0 -4.999999999999997e-05 -4.069006277459433e-06
0 -4.999999999999997e-05 -1.73149203296146e-06
0 -4.999999999999997e-05 0
0 -4.999999999999997e-05 1.507641859676234e-05
0 -4.999999999999997e-05 3.54295837023915e-05
0 -4.999999999999997e-05 6.290635659499086e-05
0 -4.999999999999997e-05 0.0001
0 -4.999999999999997e-05 0.0001370936434050091
0 -4.999999999999997e-05 0.0001645704162976085
0 -4.999999999999997e-05 0.0001849235814032377
0 -4.999999999999997e-05 0.0002
0 -4.999999999999997e-05 0.0002017314920329615
0 -4.999999999999997e-05 0.0002040690062774595
0 -4.999999999999997e-05 0.0002072246505075317
0 -4.999999999999997e-05 0.0002114847702181292
0 -4.999999999999997e-05 0.000217235931827436
0 -4.999999999999997e-05 0.000225
0 -4.999999999999997e-05 0.0002327640681725641
0 -4.999999999999997e-05 0.0002385152297818707
0 -4.999999999999997e-05 0.0002427753494924683
0 -4.999999999999997e-05 0.0002459309937225406
0 -4.999999999999997e-05 0.0002482685079670386
0 -4.999999999999997e-05 0.00025
0 -2.500000000000001e-05 -5e-05
0 -2.500000000000001e-05 -4.826850796703854e-05
0 -2.500000000000001e-05 -4.593099372254057e-05
0 -2.500000000000001e-05 -4.277534949246831e-05
0 -2.500000000000001e-05 -3.851522978187075e-05
0 -2.500000000000001e-05 -3.276406817256406e-05
0 -2.500000000000001e-05 -2.5e-05
0 -2.500000000000001e-05 -1.723593182743596e-05
0 -2.500000000000001e-05 -1.148477021812926e-05
0 -2.500000000000001e-05 -7.224650507531695e-06
0 -2.500000000000001e-05 -4.069006277459433e-06
0 -2.500000000000001e-05 -1.73149203296146e-06
0 -2.500000000000001e-05 0
0 -2.500000000000001e-05 1.507641859676234e-05
0 -2.500000000000001e-05 3.54295837023915e-05
0 -2.500000000000001e-05 6.290635659499086e-05
0 -2.500000000000001e-05 0.0001
0 -2.500000000000001e-05 0.0001370936434050091
0 -2.500000000000001e-05 0.0001645704162976085
0 -2.500000000000001e-05 0.0001849235814032377
0 -2.500000000000001e-05 0.0002
0 -2.500000000000001e-05 0.0002017314920329615
0 -2.500000000000001e-05 0.0002040690062774595
0 -2.500000000000001e-05 0.0002072246505075317
0 -2.500000000000001e-05 0.0002114847702181292
0 -2.500000000000001e-05 0.000217235931827436
0 -2.500000000000001e-05 0.000225
0 -2.500000000000001e-05 0.0002327640681725641
0 -2.500000000000001e-05 0.0002385152297818707
0 -2.500000000000001e-05 0.0002427753494924683
0 -2.500000000000001e-05 0.0002459309937225406
0 -2.500000000000001e-05 0.0002482685079670386
0 -2.500000000000001e-05 0.00025
0 0 -5e-05
0 0 -4.826850796703854e-05
0 0 -4.593099372254057e-05
0 0 -4.277534949246831e-05
0 0 -3.851522978187075e-05
0 0 -3.276406817256406e-05
0 0 -2.5e-05
0 0 -1.723593182743596e-05
0 0 -1.148477021812926e-05
0 0 -7.224650507531695e-06
0 0 -4.069006277459433e-06
0 0 -1.73149203296146e-06
0 0 0
0 0 1.507641859676234e-05
0 0 3.54295837023915e-05
0 0 6.290635659499086e-05
0 0 0.0001
0 0 0.0001370936434050091
0 0 0.0001645704162976085
0 0 0.0001849235814032377
0 0 0.0002
0 0 0.0002017314920329615
0 0 0.0002040690062774595
0 0 0.0002072246505075317
0 0 0.0002114847702181292
0 0 0.000217235931827436
0 0 0.000225
0 0 0.0002327640681725641
0 0 0.0002385152297818707
0 0 0.0002427753494924683
0 0 0.0002459309937225406
0 0 0.0002482685079670386
0 0 0.00025
0 2.500000000000007e-05 -5e-05
0 2.500000000000007e-05 -4.826850796703854e-05
0 2.500000000000007e-05 -4.593099372254057e-05
0 2.500000000000007e-05 -4.277534949246831e-05
0 2.500000000000007e-05 -3.851522978187075e-05
0 2.500000000000007e-05 -3.276406817256406e-05
0 2.500000000000007e-05 -2.5e-05
0 2.500000000000007e-05 -1.723593182743596e-05
0 2.500000000000007e-05 -1.148477021812926e-05
0 2.500000000000007e-05 -7.224650507531695e-06
0 2.500000000000007e-05 -4.069006277459433e-06
0 2.500000000000007e-05 -1.73149203296146e-06
0 2.500000000000007e-05 0
0 2.500000000000007e-05 1.507641859676234e-05
0 2.500000000000007e-05 3.54295837023915e-05
0 2.500000000000007e-05 6.290635659499086e-05
0 2.500000000000007e-05 0.0001
0 2.500000000000007e-05 0.0001370936434050091
0 2.500000000000007e-05 0.0001645704162976085
0 2.500000000000007e-05 0.0001849235814032377
0 2.500000000000007e-05 0.0002
0 2.500000000000007e-05 0.0002017314920329615
0 2.500000000000007e-05 0.0002040690062774595
0 2.500000000000007e-05 0.0002072246505075317
0 2.500000000000007e-05 0.0002114847702181292
0 2.500000000000007e-05 0.000217235931827436
0 2.500000000000007e-05 0.000225
0 2.500000000000007e-05 0.0002327640681725641
0 2.500000000000007e-05 0.0002385152297818707
0 2.500000000000007e-05 0.0002427753494924683
0 2.500000000000007e-05 0.0002459309937225406
0 2.500000000000007e-05 0.0002482685079670386
0 2.500000000000007e-05 0.00025
0 4.999999999999991e-05 -5e-05
0 4.999999999999991e-05 -4.826850796703854e-05
0 4.999999999999991e-05 -4.593099372254057e-05
0 4.999999999999991e-05 -4.277534949246831e-05
0 4.999999999999991e-05 -3.851522978187075e-05
0 4.999999999999991e-05 -3.276406817256406e-05
0 4.999999999999991e-05 -2.5e-05
0 4.999999999999991e-05 -1.723593182743596e-05
0 4.999999999999991e-05 -1.148477021812926e-05
0 4.999999999999991e-05 -7.224650507531695e-06
0 4.999999999999991e-05 -4.069006277459433e-06
0 4.999999999999991e-05 -1.73149203296146e-06
0 4.999999999999991e-05 0
0 4.999999999999991e-05 1.507641859676234e-05
0 4.999999999999991e-05 3.54295837023915e-05
0 4.999999999999991e-05 6.290635659499086e-05
0 4.999999999999991e-05 0.0001
0 4.999999999999991e-05 0.0001370936434050091
0 4.999999999999991e-05 0.0001645704162976085
0 4.999999999999991e-05 0.0001849235814032377
0 4.999999999999991e-05 0.0002
0 4.999999999999991e-05 0.0002017314920329615
0 4.999999999999991e-05 0.0002040690062774595
0 4.999999999999991e-05 0.0002072246505075317
0 4.999999999999991e-05 0.0002114847702181292
0 4.999999999999991e-05 0.000217235931827436
0 4.999999999999991e-05 0.000225
0 4.999999999999991e-05 0.0002327640681725641
0 4.999999999999991e-05 0.0002385152297818707
0 4.999999999999991e-05 0.0002427753494924683
0 4.999999999999991e-05 0.0002459309937225406
0 4.999999999999991e-05 0.0002482685079670386
0 4.999999999999991e-05 0.00025
0 7.499999999999998e-05 -5e-05
0 7.499999999999998e-05 -4.826850796703854e-05
0 7.499999999999998e-05 -4.593099372254057e-05
0 7.499999999999998e-05 -4.277534949246831e-05
0 7.499999999999998e-05 -3.851522978187075e-05
0 7.499999999999998e-05 -3.276406817256406e-05
0 7.499999999999998e-05 -2.5e-05
0 7.499999999999998e-05 -1.723593182743596e-05
0 7.499999999999998e-05 -1.148477021812926e-05
0 7.499999999999998e-05 -7.224650507531695e-06
0 7.499999999999998e-05 -4.069006277459433e-06
0 7.499999999999998e-05 -1.73149203296146e-06
0 7.499999999999998e-05 0
0 7.499999999999998e-05 1.507641859676234e-05
0 7.499999999999998e-05 3.54295837023915e-05
0 7.499999999999998e-05 6.290635659499086e-05
0 7.499999999999998e-05 0.0001
0 7.499999999999998e-05 0.0001370936434050091
0 7.499999999999998e-05 0.0001645704162976085
0 7.499999999999998e-05 0.0001849235814032377
0 7.499999999999998e-05 0.0002
0 7.499999999999998e-05 0.0002017314920329615
0 7.499999999999998e-05 0.0002040690062774595
0 7.499999999999998e-05 0.0002072246505075317
0 7.499999999999998e-05 0.0002114847702181292
0 7.499999999999998e-05 0.000217235931827436
0 7.499999999999998e-05 0.000225
0 7.499999999999998e-05 0.0002327640681725641
0 7.499999999999998e-05 0.0002385152297818707
0 7.499999999999998e-05 0.0002427753494924683
0 7.499999999999998e-05 0.0002459309937225406
0 7.499999999999998e-05 0.0002482685079670386
0 7.499999999999998e-05 0.00025
0 0.0001 -5e-05
0 0.0001 -4.826850796703854e-05
0 0.0001 -4.593099372254057e-05
0 0.0001 -4.277534949246831e-05
0 0.0001 -3.851522978187075e-05
0 0.0001 -3.276406817256406e-05
0 0.0001 -2.5e-05
0 0.0001 -1.723593182743596e-05
0 0.0001 -1.148477021812926e-05
0 0.0001 -7.224650507531695e-06
0 0.0001 -4.069006277459433e-06
0 0.0001 -1.73149203296146e-06
0 0.0001 0
0 0.0001 1.507641859676234e-05
0 0.0001 3.54295837023915e-05
0 0.0001 6.290635659499086e-05
0 0.0001 0.0001
0 0.0001 0.0001370936434050091
0 0.0001 0.0001645704162976085
0 0.0001 0.0001849235814032377
0 0.0001 0.0002
0 0.0001 0.0002017314920329615
0 0.0001 0.0002040690062774595
0 0.0001 0.0002072246505075317
0 0.0001 0.0002114847702181292
0 0.0001 0.000217235931827436
0 0.0001 0.000225
0 0.0001 0.0002327640681725641
0 0.0001 0.0002385152297818707
0 0.0001 0.0002427753494924683
0 0.0001 0.0002459309937225406
0 0.0001 0.0002482685079670386
0 0.0001 0.00025
0 0.000125 -5e-05
0 0.000125 -4.826850796703854e-05
0 0.000125 -4.593099372254057e-05
0 0.000125 -4.277534949246831e-05
0 0.000125 -3.851522978187075e-05
0 0.000125 -3.276406817256406e-05
0 0.000125 -2.5e-05
0 0.000125 -1.723593182743596e-05
0 0.000125 -1.148477021812926e-05
0 0.000125 -7.224650507531695e-06
0 0.000125 -4.069006277459433e-06
0 0.000125 -1.73149203296146e-06
0 0.000125 0
0 0.000125 1.507641859676234e-05
0 0.000125 3.54295837023915e-05
0 0.000125 6.290635659499086e-05
0 0.000125 0.0001
0 0.000125 0.0001370936434050091
0 0.000125 0.0001645704162976085
0 0.000125 0.0001849235814032377
0 0.000125 0.0002
0 0.000125 0.0002017314920329615
0 0.000125 0.0002040690062774595
0 0.000125 0.0002072246505075317
0 0.000125 0.0002114847702181292
0 0.000125 0.000217235931827436
0 0.000125 0.000225
0 0.000125 0.0002327640681725641
0 0.000125 0.0002385152297818707
0 0.000125 0.0002427753494924683
0 0.000125 0.0002459309937225406
0 0.000125 0.0002482685079670386
0 0.000125 0.00025
0 0.0001500000000000001 -5e-05
0 0.0001500000000000001 -4.826850796703854e-05
0 0.0001500000000000001 -4.593099372254057e-05
0 0.0001500000000000001 -4.277534949246831e-05
0 0.0001500000000000001 -3.851522978187075e-05
0 0.0001500000000000001 -3.276406817256406e-05
0 0.0001500000000000001 -2.5e-05
0 0.0001500000000000001 -1.723593182743596e-05
0 0.0001500000000000001 -1.148477021812926e-05
0 0.0001500000000000001 -7.224650507531695e-06
0 0.0001500000000000001 -4.069006277459433e-06
0 0.0001500000000000001 -1.73149203296146e-06
0 0.0001500000000000001 0
0 0.0001500000000000001 1.507641859676234e-05
0 0.0001500000000000001 3.54295837023915e-05
0 0.0001500000000000001 6.290635659499086e-05
0 0.0001500000000000001 0.0001
0 0.0001500000000000001 0.0001370936434050091
0 0.0001500000000000001 0.0001645704162976085
0 0.0001500000000000001 0.0001849235814032377
0 0.0001500000000000001 0.0002
0 0.0001500000000000001 0.0002017314920329615
0 0.0001500000000000001 0.0002040690062774595
0 0.0001500000000000001 0.0002072246505075317
0 0.0001500000000000001 0.0002114847702181292
0 0.0001500000000000001 0.000217235931827436
0 0.0001500000000000001 0.000225
0 0.0001500000000000001 0.0002327640681725641
0 0.0001500000000000001 0.0002385152297818707
0 0.0001500000000000001 0.0002427753494924683
0 0.0001500000000000001 0.0002459309937225406
0 0.0001500000000000001 0.0002482685079670386
0 0.0001500000000000001 0.00025
0 0.000175 -5e-05
0 0.000175 -4.826850796703854e-05
0 0.000175 -4.593099372254057e-05
0 0.000175 -4.277534949246831e-05
0 0.000175 -3.851522978187075e-05
0 0.000175 -3.276406817256406e-05
0 0.000175 -2.5e-05
0 0.000175 -1.723593182743596e-05
0 0.000175 -1.148477021812926e-05
0 0.000175 -7.224650507531695e-06
0 0.000175 -4.069006277459433e-06
0 0.000175 -1.73149203296146e-06
0 0.000175 0
0 0.000175 1.507641859676234e-05
0 0.000175 3.54295837023915e-05
0 0.000175 6.290635659499086e-05
0 0.000175 0.0001
0 0.000175 0.0001370936434050091
0 0.000175 0.0001645704162976085
0 0.000175 0.0001849235814032377
0 0.000175 0.0002
0 0.000175 0.0002017314920329615
0 0.000175 0.0002040690062774595
0 0.000175 0.0002072246505075317
0 0.000175 0.0002114847702181292
0 0.000175 0.000217235931827436
0 0.000175 0.000225
0 0.000175 0.0002327640681725641
0 0.000175 0.0002385152297818707
0 0.000175 0.0002427753494924683
0 0.000175 0.0002459309937225406
0 0.000175 0.0002482685079670386
0 0.000175 0.00025
0 0.0002 -5e-05
0 0.0002 -4.826850796703854e-05
0 0.0002 -4.593099372254057e-05
0 0.0002 -4.277534949246831e-05
0 0.0002 -3.851522978187075e-05
0 0.0002 -3.276406817256406e-05
0 0.0002 -2.5e-05
0 0.0002 -1.723593182743596e-05
0 0.0002 -1.148477021812926e-05
0 0.0002 -7.224650507531695e-06
0 0.0002 -4.069006277459433e-06
0 0.0002 -1.73149203296146e-06
0 0.0002 0
0 0.0002 1.507641859676234e-05
0 0.0002 3.54295837023915e-05
0 0.0002 6.290635659499086e-05
0 0.0002 0.0001
0 0.0002 0.0001370936434050091
0 0.0002 0.0001645704162976085
0 0.0002 0.0001849235814032377
0 0.0002 0.0002
0 0.0002 0.0002017314920329615
0 0.0002 0.0002040690062774595
0 0.0002 0.0002072246505075317
0 0.0002 0.0002114847702181292
0 0.0002 0.000217235931827436
0 0.0002 0.000225
0 0.0002 0.0002327640681725641
0 0.0002 0.0002385152297818707
0 0.0002 0.0002427753494924683
0 0.0002 0.0002459309937225406
0 0.0002 0.0002482685079670386
0 0.0002 0.00025
0 0.000225 -5e-05
0 0.000225 -4.826850796703854e-05
0 0.000225 -4.593099372254057e-05
0 0.000225 -4.277534949246831e-05
0 0.000225 -3.851522978187075e-05
0 0.000225 -3.276406817256406e-05
0 0.000225 -2.5e-05
0 0.000225 -1.723593182743596e-05
0 0.000225 -1.148477021812926e-05
0 0.000225 -7.224650507531695e-06
0 0.000225 -4.069006277459433e-06
0 0.000225 -1.73149203296146e-06
0 0.000225 0
0 0.000225 1.507641859676234e-05
0 0.000225 3.54295837023915e-05
0 0.000225 6.290635659499086e-05
0 0.000225 0.0001
0 0.000225 0.0001370936434050091
0 0.000225 0.0001645704162976085
0 0.000225 0.0001849235814032377
0 0.000225 0.0002
0 0.000225 0.0002017314920329615
0 0.000225 0.0002040690062774595
0 0.000225 0.0002072246505075317
0 0.000225 0.0002114847702181292
0 0.000225 0.000217235931827436
0 0.000225 0.000225
0 0.000225 0.0002327640681725641
0 0.000225 0.0002385152297818707
0 0.000225 0.0002427753494924683
0 0.000225 0.0002459309937225406
0 0.000225 0.0002482685079670386
0 0.000225 0.00025
0 0.00025 -5e-05
0 0.00025 -4.826850796703854e-05
0 0.00025 -4.593099372254057e-05
0 0.00025 -4.277534949246831e-05
0 0.00025 -3.851522978187075e-05
0 0.00025 -3.276406817256406e-05
0 0.00025 -2.5e-05
0 0.00025 -1.723593182743596e-05
0 0.00025 -1.148477021812926e-05
0 0.00025 -7.224650507531695e-06
0 0.00025 -4.069006277459433e-06
0 0.00025 -1.73149203296146e-06
0 0.00025 0
0 0.00025 1.507641859676234e-05
0 0.00025 3.54295837023915e-05
0 0.00025 6.290635659499086e-05
0 0.00025 0.0001
0 0.00025 0.0001370936434050091
0 0.00025 0.0001645704162976085
0 0.00025 0.0001849235814032377
0 0.00025 0.0002
0 0.00025 0.0002017314920329615
0 0.00025 0.0002040690062774595
0 0.00025 0.0002072246505075317
0 0.00025 0.0002114847702181292
0 0.00025 0.000217235931827436
0 0.00025 0.000225
0 0.00025 0.0002327640681725641
0 0.00025 0.0002385152297818707
0 0.00025 0.0002427753494924683
0 0.00025 0.0002459309937225406
0 0.00025 0.0002482685079670386
0 0.00025 0.00025
0 0.000275 -5e-05
0 0.000275 -4.826850796703854e-05
0 0.000275 -4.593099372254057e-05
0 0.000275 -4.277534949246831e-05
0 0.000275 -3.851522978187075e-05
0 0.000275 -3.276406817256406e-05
0 0.000275 -2.5e-05
0 0.000275 -1.723593182743596e-05
0 0.000275 -1.148477021812926e-05
0 0.000275 -7.224650507531695e-06
0 0.000275 -4.069006277459433e-06
0 0.000275 -1.73149203296146e-06
0 0.000275 0
0 0.000275 1.507641859676234e-05
0 0.000275 3.54295837023915e-05
0 0.000275 6.290635659499086e-05
0 0.000275 0.0001
0 0.000275 0.0001370936434050091
0 0.000275 0.0001645704162976085
0 0.000275 0.0001849235814032377
0 0.000275 0.0002
0 0.000275 0.0002017314920329615
0 0.000275 0.0002040690062774595
0 0.000275 0.0002072246505075317
0 0.000275 0.0002114847702181292
0 0.000275 0.000217235931827436
0 0.000275 0.000225
0 0.000275 0.0002327640681725641
0 0.000275 0.0002385152297818707
0 0.000275 0.0002427753494924683
0 0.000275 0.0002459309937225406
0 0.000275 0.0002482685079670386
0 0.000275 0.00025
0 0.0003 -5e-05
0 0.0003 -4.826850796703854e-05
0 0.0003 -4.593099372254057e-05
0 0.0003 -4.277534949246831e-05
0 0.0003 -3.851522978187075e-05
0 0.0003 -3.276406817256406e-05
0 0.0003 -2.5e-05
0 0.0003 -1.723593182743596e-05
0 0.0003 -1.148477021812926e-05
0 0.0003 -7.224650507531695e-06
0 0.0003 -4.069006277459433e-06
0 0.0003 -1.73149203296146e-06
0 0.0003 0
0 0.0003 1.507641859676234e-05
0 0.0003 3.54295837023915e-05
0 0.0003 6.290635659499086e-05
0 0.0003 0.0001
0 0.0003 0.0001370936434050091
0 0.0003 0.0001645704162976085
0 0.0003 0.0001849235814032377
0 0.0003 0.0002
0 0.0003 0.0002017314920329615
0 0.0003 0.0002040690062774595
0 0.0003 0.0002072246505075317
0 0.0003 0.0002114847702181292
0 0.0003 0.000217235931827436
0 0.0003 0.000225
0 0.0003 0.0002327640681725641
0 0.0003 0.0002385152297818707
0 0.0003 0.0002427753494924683
0 0.0003 0.0002459309937225406
0 0.0003 0.0002482685079670386
0 0.0003 0.00025
0 0.000325 -5e-05
0 0.000325 -4.826850796703854e-05
0 0.000325 -4.593099372254057e-05
0 0.000325 -4.277534949246831e-05
0 0.000325 -3.851522978187075e-05
0 0.000325 -3.276406817256406e-05
0 0.000325 -2.5e-05
0 0.000325 -1.723593182743596e-05
0 0.000325 -1.148477021812926e-05
0 0.000325 -7.224650507531695e-06
0 0.000325 -4.069006277459433e-06
0 0.000325 -1.73149203296146e-06
0 0.000325 0
0 0.000325 1.507641859676234e-05
0 0.000325 3.54295837023915e-05
0 0.000325 6.290635659499086e-05
0 0.000325 0.0001
0 0.000325 0.0001370936434050091
0 0.000325 0.0001645704162976085
0 0.000325 0.0001849235814032377
0 0.000325 0.0002
0 0.000325 0.0002017314920329615
0 0.000325 0.0002040690062774595
0 0.000325 0.0002072246505075317
0 0.000325 0.0002114847702181292
0 0.000325 0.000217235931827436
0 0.000325 0.000225
0 0.000325 0.0002327640681725641
0 0.000325 0.0002385152297818707
0 0.000325 0.0002427753494924683
0 0.000325 0.0002459309937225406
0 0.000325 0.0002482685079670386
0 0.000325 0.00025
0 0.0003500000000000001 -5e-05
0 0.0003500000000000001 -4.826850796703854e-05
0 0.0003500000000000001 -4.593099372254057e-05
0 0.0003500000000000001 -4.277534949246831e-05
0 0.0003500000000000001 -3.851522978187075e-05
0 0.0003500000000000001 -3.276406817256406e-05
0 0.0003500000000000001 -2.5e-05
0 0.0003500000000000001 -1.723593182743596e-05
0 0.0003500000000000001 -1.148477021812926e-05
0 0.0003500000000000001 -7.224650507531695e-06
0 0.0003500000000000001 -4.069006277459433e-06
0 0.0003500000000000001 -1.73149203296146e-06
0 0.0003500000000000001 0
0 0.0003500000000000001 1.507641859676234e-05
0 0.0003500000000000001 3.54295837023915e-05
0 0.0003500000000000001 6.290635659499086e-05
0 0.0003500000000000001 0.0001
0 0.0003500000000000001 0.0001370936434050091
0 0.0003500000000000001 0.0001645704162976085
0 0.0003500000000000001 0.0001849235814032377
0 0.0003500000000000001 0.0002
0 0.0003500000000000001 0.0002017314920329615
0 0.0003500000000000001 0.0002040690062774595
0 0.0003500000000000001 0.0002072246505075317
0 0.0003500000000000001 0.0002114847702181292
0 0.0003500000000000001 0.000217235931827436
0 0.0003500000000000001 0.000225
0 0.0003500000000000001 0.0002327640681725641
0 0.0003500000000000001 0.0002385152297818707
0 0.0003500000000000001 0.0002427753494924683
0 0.0003500000000000001 0.0002459309937225406
0 0.0003500000000000001 0.0002482685079670386
0 0.0003500000000000001 0.00025
0 0.0003750000000000001 -5e-05
0 0.0003750000000000001 -4.826850796703854e-05
0 0.0003750000000000001 -4.593099372254057e-05
0 0.0003750000000000001 -4.277534949246831e-05
0 0.0003750000000000001 -3.851522978187075e-05
0 0.0003750000000000001 -3.276406817256406e-05
0 0.0003750000000000001 -2.5e-05
0 0.0003750000000000001 -1.723593182743596e-05
0 0.0003750000000000001 -1.148477021812926e-05
0 0.0003750000000000001 -7.224650507531695e-06
0 0.0003750000000000001 -4.069006277459433e-06
0 0.0003750000000000001 -1.73149203296146e-06
0 0.0003750000000000001 0
0 0.0003750000000000001 1.507641859676234e-05
0 0.0003750000000000001 3.54295837023915e-05
0 0.0003750000000000001 6.290635659499086e-05
0 0.0003750000000000001 0.0001
0 0.0003750000000000001 0.0001370936434050091
0 0.0003750000000000001 0.0001645704162976085
0 0.0003750000000000001 0.0001849235814032377
0 0.0003750000000000001 0.0002
0 0.0003750000000000001 0.0002017314920329615
0 0.0003750000000000001 0.0002040690062774595
0 0.0003750000000000001 0.0002072246505075317
0 0.0003750000000000001 0.0002114847702181292
0 0.0003750000000000001 0.000217235931827436
0 0.0003750000000000001 0.000225
0 0.0003750000000000001 0.0002327640681725641
0 0.0003750000000000001 0.0002385152297818707
0 0.0003750000000000001 0.0002427753494924683
0 0.0003750000000000001 0.0002459309937225406
0 0.0003750000000000001 0.0002482685079670386
0 0.0003750000000000001 0.00025
0 0.0004000000000000001 -5e-05
0 0.0004000000000000001 -4.826850796703854e-05
0 0.0004000000000000001 -4.593099372254057e-05
0 0.0004000000000000001 -4.277534949246831e-05
0 0.0004000000000000001 -3.851522978187075e-05
0 0.0004000000000000001 -3.276406817256406e-05
0 0.0004000000000000001 -2.5e-05
0 0.0004000000000000001 -1.723593182743596e-05
0 0.0004000000000000001 -1.148477021812926e-05
0 0.0004000000000000001 -7.224650507531695e-06
0 0.0004000000000000001 -4.069006277459433e-06
0 0.0004000000000000001 -1.73149203296146e-06
0 0.0004000000000000001 0
0 0.0004000000000000001 1.507641859676234e-05
0 0.0004000000000000001 3.54295837023915e-05
0 0.0004000000000000001 6.290635659499086e-05
0 0.0004000000000000001 0.0001
0 0.0004000000000000001 0.0001370936434050091
0 0.0004000000000000001 0.0001645704162976085
0 0.0004000000000000001 0.0001849235814032377
0 0.0004000000000000001 0.0002
0 0.0004000000000000001 0.0002017314920329615
0 0.0004000000000000001 0.0002040690062774595
0 0.0004000000000000001 0.0002072246505075317
0 0.0004000000000000001 0.0002114847702181292
0 0.0004000000000000001 0.000217235931827436
0 0.0004000000000000001 0.000225
0 0.0004000000000000001 0.0002327640681725641
0 0.0004000000000000001 0.0002385152297818707
0 0.0004000000000000001 0.0002427753494924683
0 0.0004000000000000001 0.0002459309937225406
0 0.0004000000000000001 0.0002482685079670386
0 0.0004000000000000001 0.00025
0 0.0004249999999999999 -5e-05
0 0.0004249999999999999 -4.826850796703854e-05
0 0.0004249999999999999 -4.593099372254057e-05
0 0.0004249999999999999 -4.277534949246831e-05
0 0.0004249999999999999 -3.851522978187075e-05
0 0.0004249999999999999 -3.276406817256406e-05
0 0.0004249999999999999 -2.5e-05
0 0.0004249999999999999 -1.723593182743596e-05
0 0.0004249999999999999 -1.148477021812926e-05
0 0.0004249999999999999 -7.224650507531695e-06
0 0.0004249999999999999 -4.069006277459433e-06
0 0.0004249999999999999 -1.73149203296146e-06
0 0.0004249999999999999 0
0 0.0004249999999999999 1.507641859676234e-05
0 0.0004249999999999999 3.54295837023915e-05
0 0.0004249999999999999 6.290635659499086e-05
0 0.0004249999999999999 0.0001
0 0.0004249999999999999 0.0001370936434050091
0 0.0004249999999999999 0.0001645704162976085
0 0.0004249999999999999 0.0001849235814032377
0 0.0004249999999999999 0.0002
0 0.0004249999999999999 0.0002017314920329615
0 0.0004249999999999999 0.0002040690062774595
0 0.0004249999999999999 0.0002072246505075317
0 0.0004249999999999999 0.0002114847702181292
0 0.0004249999999999999 0.000217235931827436
0 0.0004249999999999999 0.000225
0 0.0004249999999999999 0.0002327640681725641
0 0.0004249999999999999 0.0002385152297818707
0 0.0004249999999999999 0.0002427753494924683
0 0.0004249999999999999 0.0002459309937225406
0 0.0004249999999999999 0.0002482685079670386
0 0.0004249999999999999 0.00025
0 0.00045 -5e-05
0 0.00045 -4.826850796703854e-05
0 0.00045 -4.593099372254057e-05
0 0.00045 -4.277534949246831e-05
0 0.00045 -3.851522978187075e-05
0 0.00045 -3.276406817256406e-05
0 0.00045 -2.5e-05
0 0.00045 -1.723593182743596e-05
0 0.00045 -1.148477021812926e-05
0 0.00045 -7.224650507531695e-06
0 0.00045 -4.069006277459433e-06
0 0.00045 -1.73149203296146e-06
0 0.00045 0
0 0.00045 1.507641859676234e-05
0 0.00045 3.54295837023915e-05
0 0.00045 6.290635659499086e-05
0 0.00045 0.0001
0 0.00045 0.0001370936434050091
0 0.00045 0.0001645704162976085
0 0.00045 0.0001849235814032377
0 0.00045 0.0002
0 0.00045 0.0002017314920329615
0 0.00045 0.0002040690062774595
0 0.00045 0.0002072246505075317
0 0.00045 0.0002114847702181292
0 0.00045 0.000217235931827436
0 0.00045 0.000225
0 0.00045 0.0002327640681725641
0 0.00045 0.0002385152297818707
0 0.00045 0.0002427753494924683
0 0.00045 0.0002459309937225406
0 0.00045 0.0002482685079670386
0 0.00045 0.00025
0 0.0004749999999999999 -5e-05
0 0.0004749999999999999 -4.826850796703854e-05
0 0.0004749999999999999 -4.593099372254057e-05
0 0.0004749999999999999 -4.277534949246831e-05
0 0.0004749999999999999 -3.851522978187075e-05
0 0.0004749999999999999 -3.276406817256406e-05
0 0.0004749999999999999 -2.5e-05
0 0.0004749999999999999 -1.723593182743596e-05
0 0.0004749999999999999 -1.148477021812926e-05
0 0.0004749999999999999 -7.224650507531695e-06
0 0.0004749999999999999 -4.069006277459433e-06
0 0.0004749999999999999 -1.73149203296146e-06
0 0.0004749999999999999 0
0 0.0004749999999999999 1.507641859676234e-05
0 0.0004749999999999999 3.54295837023915e-05
0 0.0004749999999999999 6.290635659499086e-05
0 0.0004749999999999999 0.0001
0 0.0004749999999999999 0.0001370936434050091
0 0.0004749999999999999 0.0001645704162976085
0 0.0004749999999999999 0.0001849235814032377
0 0.0004749999999999999 0.0002
0 0.0004749999999999999 0.0002017314920329615
0 0.0004749999999999999 0.0002040690062774595
0 0.0004749999999999999 0.0002072246505075317
0 0.0004749999999999999 0.0002114847702181292
0 0.0004749999999999999 0.000217235931827436
0 0.0004749999999999999 0.000225
0 0.0004749999999999999 0.0002327640681725641
0 0.0004749999999999999 0.0002385152297818707
0 0.0004749999999999999 0.0002427753494924683
0 0.0004749999999999999 0.0002459309937225406
0 0.0004749999999999999 0.0002482685079670386
0 0.0004749999999999999 0.00025
0 0.0005 -5e-05
0 0.0005 -4.826850796703854e-05
0 0.0005 -4.593099372254057e-05
0 0.0005 -4.277534949246831e-05
0 0.0005 -3.851522978187075e-05
0 0.0005 -3.276406817256406e-05
0 0.0005 -2.5e-05
0 0.0005 -1.723593182743596e-05
0 0.0005 -1.148477021812926e-05
0 0.0005 -7.224650507531695e-06
0 0.0005 -4.069006277459433e-06
0 0.0005 -1.73149203296146e-06
0 0.0005 0
0 0.0005 1.507641859676234e-05
0 0.0005 3.54295837023915e-05
0 0.0005 6.290635659499086e-05
0 0.0005 0.0001
0 0.0005 0.0001370936434050091
0 0.0005 0.0001645704162976085
0 0.0005 0.0001849235814032377
0 0.0005 0.0002
0 0.0005 0.0002017314920329615
0 0.0005 0.0002040690062774595
0 0.0005 0.0002072246505075317
0 0.0005 0.0002114847702181292
0 0.0005 0.000217235931827436
0 0.0005 0.000225
0 0.0005 0.0002327640681725641
0 0.0005 0.0002385152297818707
0 0.0005 0.0002427753494924683
0 0.0005 0.0002459309937225406
0 0.0005 0.0002482685079670386
0 0.0005 0.00025
$EndNodes
$Elements
3 2560 1 2560
2 1 2 960
1 1 34 35
2 1 35 2
3 2 35 36
4 2 36 3
5 3 36 37
6 3 37 4
7 4 37 38
8 4 38 5
9 5 38 39
10 5 39 6
11 6 39 40
12 6 40 7
13 7 40 41
14 7 41 8
15 8 41 42
16 8 42 9
17 9 42 43
18 9 43 10
19 10 43 44
20 10 44 11
21 11 44 45
22 11 45 12
23 12 45 46
24 12 46 13
25 34 67 68
26 34 68 35
27 35 68 69
28 35 69 36
29 36 69 70
30 36 70 37
31 37 70 71
32 37 71 38
33 38 71 72
34 38 72 39
35 39 72 73
36 39 73 40
37 40 73 74
38 40 74 41
39 41 74 75
40 41 75 42
41 42 75 76
42 42 76 43
43 43 76 77
44 43 77 44
45 44 77 78
46 44 78 45
47 45 78 79
48 45 79 46
49 67 100 101
50 67 101 68
51 68 101 102
52 68 102 69
53 69 102 103
54 69 103 70
55 70 103 104
56 70 104 71
57 71 104 105
58 71 105 72
59 72 105 106
60 72 106 73
61 73 106 107
62 73 107 74
63 74 107 108
64 74 108 75
65 75 108 109
66 75 109 76
67 76 109 110
68 76 110 77
69 77 110 111
70 77 111 78
71 78 111 112
72 78 112 79
73 100 133 134
74 100 134 101
75 101 134 135
76 101 135 102
77 102 135 136
78 102 136 103
79 103 136 137
80 103 137 104
81 104 137 138
82 104 138 105
83 105 138 139
84 105 139 106
85 106 139 140
86 106 140 107
87 107 140 141
88 107 141 108
89 108 141 142
90 108 142 109
91 109 142 143
92 109 143 110
93 110 143 144
94 110 144 111
95 111 144 145
96 111 145 112
97 133 166 167
98 133 167 134
99 134 167 168
100 134 168 135
101 135 168 169
102 135 169 136
103 136 169 170
104 136 170 137
105 137 170 171
106 137 171 138
107 138 171 172
108 138 172 139
109 139 172 173
110 139 173 140
111 140 173 174
112 140 174 141
113 141 174 175
114 141 175 142
115 142 175 176
116 142 176 143
117 143 176 177
118 143 177 144
119 144 177 178
120 144 178 145
121 166 199 200
122 166 200 167
123 167 200 201
124 167 201 168
125 168 201 202
126 168 202 169
127 169 202 203
128 169 203 170
129 170 203 204
130 170 204 171
131 171 204 205
132 171 205 172
133 172 205 206
134 172 206 173
135 173 206 207
136 173 207 174
137 174 207 208
138 174 208 175
139 175 208 209
140 175 209 176
141 176 209 210
142 176 210 177
143 177 210 211
144 177 211 178
145 199 232 233
146 199 233 200
147 200 233 234
148 200 234 201
149 201 234 235
150 201 235 202
151 202 235 236
152 202 236 203
153 203 236 237
154 203 237 204
155 204 237 238
156 204 238 205
157 205 238 239
158 205 239 206
159 206 239 240
160 206 240 207
161 207 240 241
162 207 241 208
163 208 241 242
164 208 242 209
165 209 242 243
166 209 243 210
167 210 243 244
168 210 244 211
169 232 265 266
170 232 266 233
171 233 266 267
172 233 267 234
173 234 267 268
174 234 268 235
175 235 268 269
176 235 269 236
177 236 269 270
178 236 270 237
179 237 270 271
180 237 271 238
181 238 271 272
182 238 272 239
183 239 272 273
184 239 273 240
185 240 273 274
186 240 274 241
187 241 274 275
188 241 275 242
189 242 275 276
190 242 276 243
191 243 276 277
192 243 277 244
193 265 298 299
194 265 299 266
195 266 299 300
196 266 300 267
197 267 300 301
198 267 301 268
199 268 301 302
200 268 302 269
201 269 302 303
202 269 303 270
203 270 303 304
204 270 304 271
205 271 304 305
206 271 305 272
207 272 305 306
208 272 306 273
209 273 306 307
210 273 307 274
211 274 307 308
212 274 308 275
213 275 308 309
214 275 309 276
215 276 309 310
216 276 310 277
217 298 331 332
218 298 332 299
219 299 332 333
220 299 333 300
221 300 333 334
222 300 334 301
223 301 334 335
224 301 335 302
225 302 335 336
226 302 336 303
227 303 336 337
228 303 337 304
229 304 337 338
230 304 338 305
231 305 338 339
232 305 339 306
233 306 339 340
234 306 340 307
235 307 340 341
236 307 341 308
237 308 341 342
238 308 342 309
239 309 342 343
240 309 343 310
241 331 364 365
242 331 365 332
243 332 365 366
244 332 366 333
245 333 366 367
246 333 367 334
247 334 367 368
248 334 368 335
249 335 368 369
250 335 369 336
251 336 369 370
252 336 370 337
253 337 370 371
254 337 371 338
255 338 371 372
256 338 372 339
257 339 372 373
258 339 373 340
259 340 373 374
260 340 374 341
261 341 374 375
262 341 375 342
263 342 375 376
264 342 376 343
265 364 397 398
266 364 398 365
267 365 398 399
268 365 399 366
269 366 399 400
270 366 400 367
271 367 400 401
272 367 401 368
273 368 401 402
274 368 402 369
275 369 402 403
276 369 403 370
277 370 403 404
278 370 404 371
279 371 404 405
280 371 405 372
281 372 405 406
282 372 406 373
283 373 406 407
284 373 407 374
285 374 407 408
286 374 408 375
287 375 408 409
288 375 409 376
289 397 430 431
290 397 431 398
291 398 431 432
292 398 432 399
293 399 432 433
294 399 433 400
295 400 433 434
296 400 434 401
297 401 434 435
298 401 435 402
299 402 435 436
300 402 436 403
301 403 436 437
302 403 437 404
303 404 437 438
304 404 438 405
305 405 438 439
306 405 439 406
307 406 439 440
308 406 440 407
309 407 440 441
310 407 441 408
311 408 441 442
312 408 442 409
313 430 463 464
314 430 464 431
315 431 464 465
316 431 465 432
317 432 465 466
318 432 466 433
319 433 466 467
320 433 467 434
321 434 467 468
322 434 468 435
323 435 468 469
324 435 469 436
325 436 469 470
326 436 470 437
327 437 470 471
328 437 471 438
329 438 471 472
330 438 472 439
331 439 472 473
332 439 473 440
333 440 473 474
334 440 474 441
335 441 474 475
336 441 475 442
337 463 496 497
338 463 497 464
339 464 497 498
340 464 498 465
341 465 498 499
342 465 499 466
343 466 499 500
344 466 500 467
345 467 500 501
346 467 501 468
347 468 501 502
348 468 502 469
349 469 502 503
350 469 503 470
351 470 503 504
352 470 504 471
353 471 504 505
354 471 505 472
355 472 505 506
356 472 506 473
357 473 506 507
358 473 507 474
359 474 507 508
360 474 508 475
361 496 529 530
362 496 530 497
363 497 530 531
364 497 531 498
365 498 531 532
366 498 532 499
367 499 532 533
368 499 533 500
369 500 533 534
370 500 534 501
371 501 534 535
372 501 535 502
373 502 535 536
374 502 536 503
375 503 536 537
376 503 537 504
377 504 537 538
378 504 538 505
379 505 538 539
380 505 539 506
381 506 539 540
382 506 540 507
383 507 540 541
384 507 541 508
385 529 562 563
386 529 563 530
387 530 563 564
388 530 564 531
389 531 564 565
390 531 565 532
391 532 565 566
392 532 566 533
393 533 566 567
394 533 567 534
395 534 567 568
396 534 568 535
397 535 568 569
398 535 569 536
399 536 569 570
400 536 570 537
401 537 570 571
402 537 571 538
403 538 571 572
404 538 572 539
405 539 572 573
406 539 573 540
407 540 573 574
408 540 574 541
409 562 595 596
410 562 596 563
411 563 596 597
412 563 597 564
413 564 597 598
414 564 598 565
415 565 598 599
416 565 599 566
417 566 599 600
418 566 600 567
419 567 600 601
420 567 601 568
421 568 601 602
422 568 602 569
423 569 602 603
424 569 603 570
425 570 603 604
426 570 604 571
427 571 604 605
428 571 605 572
429 572 605 606
430 572 606 573
431 573 606 607
432 573 607 574
433 595 628 629
434 595 629 596
435 596 629 630
436 596 630 597
437 597 630 631
438 597 631 598
439 598 631 632
440 598 632 599
441 599 632 633
442 599 633 600
443 600 633 634
444 600 634 601
445 601 634 635
446 601 635 602
447 602 635 636
448 602 636 603
449 603 636 637
450 603 637 604
451 604 637 638
452 604 638 605
453 605 638 639
454 605 639 606
455 606 639 640
456 606 640 607
457 628 661 662
458 628 662 629
459 629 662 663
460 629 663 630
461 630 663 664
462 630 664 631
463 631 664 665
464 631 665 632
465 632 665 666
466 632 666 633
467 633 666 667
468 633 667 634
469 634 667 668
470 634 668 635
471 635 668 669
472 635 669 636
473 636 669 670
474 636 670 637
475 637 670 671
476 637 671 638
477 638 671 672
478 638 672 639
479 639 672 673
480 639 673 640
481 661 694 695
482 661 695 662
483 662 695 696
484 662 696 663
485 663 696 697
486 663 697 664
487 664 697 698
488 664 698 665
489 665 698 699
490 665 699 666
491 666 699 700
492 666 700 667
493 667 700 701
494 667 701 668
495 668 701 702
496 668 702 669
497 669 702 703
498 669 703 670
499 670 703 704
500 670 704 671
501 671 704 705
502 671 705 672
503 672 705 706
504 672 706 673
505 694 727 728
506 694 728 695
507 695 728 729
508 695 729 696
509 696 729 730
510 696 730 697
511 697 730 731
512 697 731 698
513 698 731 732
514 698 732 699
515 699 732 733
516 699 733 700
517 700 733 734
518 700 734 701
519 701 734 735
520 701 735 702
521 702 735 736
522 702 736 703
523 703 736 737
524 703 737 704
525 704 737 738
526 704 738 705
527 705 738 739
528 705 739 706
529 727 760 761
530 727 761 728
531 728 761 762
532 728 762 729
533 729 762 763
534 729 763 730
535 730 763 764
536 730 764 731
537 731 764 765
538 731 765 732
539 732 765 766
540 732 766 733
541 733 766 767
542 733 767 734
543 734 767 768
544 734 768 735
545 735 768 769
546 735 769 736
547 736 769 770
548 736 770 737
549 737 770 771
550 737 771 738
551 738 771 772
552 738 772 739
553 760 793 794
554 760 794 761
555 761 794 795
556 761 795 762
557 762 795 796
558 762 796 763
559 763 796 797
560 763 797 764
561 764 797 798
562 764 798 765
563 765 798 799
564 765 799 766
565 766 799 800
566 766 800 767
567 767 800 801
568 767 801 768
569 768 801 802
570 768 802 769
571 769 802 803
572 769 803 770
573 770 803 804
574 770 804 771
575 771 804 805
576 771 805 772
577 793 826 827
578 793 827 794
579 794 827 828
580 794 828 795
581 795 828 829
582 795 829 796
583 796 829 830
584 796 830 797
585 797 830 831
586 797 831 798
587 798 831 832
588 798 832 799
589 799 832 833
590 799 833 800
591 800 833 834
592 800 834 801
593 801 834 835
594 801 835 802
595 802 835 836
596 802 836 803
597 803 836 837
598 803 837 804
599 804 837 838
600 804 838 805
601 826 859 860
602 826 860 827
603 827 860 861
604 827 861 828
605 828 861 862
606 828 862 829
607 829 862 863
608 829 863 830
609 830 863 864
610 830 864 831
611 831 864 865
612 831 865 832
613 832 865 866
614 832 866 833
615 833 866 867
616 833 867 834
617 834 867 868
618 834 868 835
619 835 868 869
620 835 869 836
621 836 869 870
622 836 870 837
623 837 870 871
624 837 871 838
625 859 892 893
626 859 893 860
627 860 893 894
628 860 894 861
629 861 894 895
630 861 895 862
631 862 895 896
632 862 896 863
633 863 896 897
634 863 897 864
635 864 897 898
636 864 898 865
637 865 898 899
638 865 899 866
639 866 899 900
640 866 900 867
641 867 900 901
642 867 901 868
643 868 901 902
644 868 902 869
645 869 902 903
646 869 903 870
647 870 903 904
648 870 904 871
649 892 925 926
650 892 926 893
651 893 926 927
652 893 927 894
653 894 927 928
654 894 928 895
655 895 928 929
656 895 929 896
657 896 929 930
658 896 930 897
659 897 930 931
660 897 931 898
661 898 931 932
662 898 932 899
663 899 932 933
664 899 933 900
665 900 933 934
666 900 934 901
667 901 934 935
668 901 935 902
669 902 935 936
670 902 936 903
671 903 936 937
672 903 937 904
673 925 958 959
674 925 959 926
675 926 959 960
676 926 960 927
677 927 960 961
678 927 961 928
679 928 961 962
680 928 962 929
681 929 962 963
682 929 963 930
683 930 963 964
684 930 964 931
685 931 964 965
686 931 965 932
687 932 965 966
688 932 966 933
689 933 966 967
690 933 967 934
691 934 967 968
692 934 968 935
693 935 968 969
694 935 969 936
695 936 969 970
696 936 970 937
697 958 991 992
698 958 992 959
699 959 992 993
700 959 993 960
701 960 993 994
702 960 994 961
703 961 994 995
704 961 995 962
705 962 995 996
706 962 996 963
707 963 996 997
708 963 997 964
709 964 997 998
710 964 998 965
711 965 998 999
712 965 999 966
713 966 999 1000
714 966 1000 967
715 967 1000 1001
716 967 1001 968
717 968 1001 1002
718 968 1002 969
719 969 1002 1003
720 969 1003 970
721 991 1024 1025
722 991 1025 992
723 992 1025 1026
724 992 1026 993
725 993 1026 1027
726 993 1027 994
727 994 1027 1028
728 994 1028 995
729 995 1028 1029
730 995 1029 996
731 996 1029 1030
732 996 1030 997
733 997 1030 1031
734 997 1031 998
735 998 1031 1032
736 998 1032 999
737 999 1032 1033
738 999 1033 1000
739 1000 1033 1034
740 1000 1034 1001
741 1001 1034 1035
742 1001 1035 1002
743 1002 1035 1036
744 1002 1036 1003
745 1024 1057 1058
746 1024 1058 1025
747 1025 1058 1059
748 1025 1059 1026
749 1026 1059 1060
750 1026 1060 1027
751 1027 1060 1061
752 1027 1061 1028
753 1028 1061 1062
754 1028 1062 1029
755 1029 1062 1063
756 1029 1063 1030
757 1030 1063 1064
758 1030 1064 1031
759 1031 1064 1065
760 1031 1065 1032
761 1032 1065 1066
762 1032 1066 1033
763 1033 1066 1067
764 1033 1067 1034
765 1034 1067 1068
766 1034 1068 1035
767 1035 1068 1069
768 1035 1069 1036
769 1057 1090 1091
770 1057 1091 1058
771 1058 1091 1092
772 1058 1092 1059
773 1059 1092 1093
774 1059 1093 1060
775 1060 1093 1094
776 1060 1094 1061
777 1061 1094 1095
778 1061 1095 1062
779 1062 1095 1096
780 1062 1096 1063
781 1063 1096 1097
782 1063 1097 1064
783 1064 1097 1098
784 1064 1098 1065
785 1065 1098 1099
786 1065 1099 1066
787 1066 1099 1100
788 1066 1100 1067
789 1067 1100 1101
790 1067 1101 1068
791 1068 1101 1102
792 1068 1102 1069
793 1090 1123 1124
794 1090 1124 1091
795 1091 1124 1125
796 1091 1125 1092
797 1092 1125 1126
798 1092 1126 1093
799 1093 1126 1127
800 1093 1127 1094
801 1094 1127 1128
802 1094 1128 1095
803 1095 1128 1129
804 1095 1129 1096
805 1096 1129 1130
806 1096 1130 1097
807 1097 1130 1131
808 1097 1131 1098
809 1098 1131 1132
810 1098 1132 1099
811 1099 1132 1133
812 1099 1133 1100
813 1100 1133 1134
814 1100 1134 1101
815 1101 1134 1135
816 1101 1135 1102
817 1123 1156 1157
818 1123 1157 1124
819 1124 1157 1158
820 1124 1158 1125
821 1125 1158 1159
822 1125 1159 1126
823 1126 1159 1160
824 1126 1160 1127
825 1127 1160 1161
826 1127 1161 1128
827 1128 1161 1162
828 1128 1162 1129
829 1129 1162 1163
830 1129 1163 1130
831 1130 1163 1164
832 1130 1164 1131
833 1131 1164 1165
834 1131 1165 1132
835 1132 1165 1166
836 1132 1166 1133
837 1133 1166 1167
838 1133 1167 1134
839 1134 1167 1168
840 1134 1168 1135
841 1156 1189 1190
842 1156 1190 1157
843 1157 1190 1191
844 1157 1191 1158
845 1158 1191 1192
846 1158 1192 1159
847 1159 1192 1193
848 1159 1193 1160
849 1160 1193 1194
850 1160 1194 1161
851 1161 1194 1195
852 1161 1195 1162
853 1162 1195 1196
854 1162 1196 1163
855 1163 1196 1197
856 1163 1197 1164
857 1164 1197 1198
858 1164 1198 1165
859 1165 1198 1199
860 1165 1199 1166
861 1166 1199 1200
862 1166 1200 1167
863 1167 1200 1201
864 1167 1201 1168
865 1189 1222 1223
866 1189 1223 1190
867 1190 1223 1224
868 1190 1224 1191
869 1191 1224 1225
870 1191 1225 1192
871 1192 1225 1226
872 1192 1226 1193
873 1193 1226 1227
874 1193 1227 1194
875 1194 1227 1228
876 1194 1228 1195
877 1195 1228 1229
878 1195 1229 1196
879 1196 1229 1230
880 1196 1230 1197
881 1197 1230 1231
882 1197 1231 1198
883 1198 1231 1232
884 1198 1232 1199
885 1199 1232 1233
886 1199 1233 1200
887 1200 1233 1234
888 1200 1234 1201
889 1222 1255 1256
890 1222 1256 1223
891 1223 1256 1257
892 1223 1257 1224
893 1224 1257 1258
894 1224 1258 1225
895 1225 1258 1259
896 1225 1259 1226
897 1226 1259 1260
898 1226 1260 1227
899 1227 1260 1261
900 1227 1261 1228
901 1228 1261 1262
902 1228 1262 1229
903 1229 1262 1263
904 1229 1263 1230
905 1230 1263 1264
906 1230 1264 1231
907 1231 1264 1265
908 1231 1265 1232
909 1232 1265 1266
910 1232 1266 1233
911 1233 1266 1267
912 1233 1267 1234
913 1255 1288 1289
914 1255 1289 1256
915 1256 1289 1290
916 1256 1290 1257
917 1257 1290 1291
918 1257 1291 1258
919 1258 1291 1292
920 1258 1292 1259
921 1259 1292 1293
922 1259 1293 1260
923 1260 1293 1294
924 1260 1294 1261
925 1261 1294 1295
926 1261 1295 1262
927 1262 1295 1296
928 1262 1296 1263
929 1263 1296 1297
930 1263 1297 1264
931 1264 1297 1298
932 1264 1298 1265
933 1265 1298 1299
934 1265 1299 1266
935 1266 1299 1300
936 1266 1300 1267
937 1288 1321 1322
938 1288 1322 1289
939 1289 1322 1323
940 1289 1323 1290
941 1290 1323 1324
942 1290 1324 1291
943 1291 1324 1325
944 1291 1325 1292
945 1292 1325 1326
946 1292 1326 1293
947 1293 1326 1327
948 1293 1327 1294
949 1294 1327 1328
950 1294 1328 1295
951 1295 1328 1329
952 1295 1329 1296
953 1296 1329 1330
954 1296 1330 1297
955 1297 1330 1331
956 1297 1331 1298
957 1298 1331 1332
958 1298 1332 1299
959 1299 1332 1333
960 1299 1333 1300
2 2 2 640
961 13 46 47
962 13 47 14
963 14 47 48
964 14 48 15
965 15 48 49
966 15 49 16
967 16 49 50
968 16 50 17
969 17 50 51
970 17 51 18
971 18 51 52
972 18 52 19
973 19 52 53
974 19 53 20
975 20 53 54
976 20 54 21
977 46 79 80
978 46 80 47
979 47 80 81
980 47 81 48
981 48 81 82
982 48 82 49
983 49 82 83
984 49 83 50
985 50 83 84
986 50 84 51
987 51 84 85
988 51 85 52
989 52 85 86
990 52 86 53
991 53 86 87
992 53 87 54
993 79 112 113
994 79 113 80
995 80 113 114
996 80 114 81
997 81 114 115
998 81 115 82
999 82 115 116
1000 82 116 83
1001 83 116 117
1002 83 117 84
1003 84 117 118
1004 84 118 85
1005 85 118 119
1006 85 119 86
1007 86 119 120
1008 86 120 87
1009 112 145 146
1010 112 146 113
1011 113 146 147
1012 113 147 114
1013 114 147 148
1014 114 148 115
1015 115 148 149
1016 115 149 116
1017 116 149 150
1018 116 150 117
1019 117 150 151
1020 117 151 118
1021 118 151 152
1022 118 152 119
1023 119 152 153
1024 119 153 120
1025 145 178 179
1026 145 179 146
1027 146 179 180
1028 146 180 147
1029 147 180 181
1030 147 181 148
1031 148 181 182
1032 148 182 149
1033 149 182 183
1034 149 183 150
1035 150 183 184
1036 150 184 151
1037 151 184 185
1038 151 185 152
1039 152 185 186
1040 152 186 153
1041 178 211 212
1042 178 212 179
1043 179 212 213
1044 179 213 180
1045 180 213 214
1046 180 214 181
1047 181 214 215
1048 181 215 182
1049 182 215 216
1050 182 216 183
1051 183 216 217
1052 183 217 184
1053 184 217 218
1054 184 218 185
1055 185 218 219
1056 185 219 186
1057 211 244 245
1058 211 245 212
1059 212 245 246
1060 212 246 213
1061 213 246 247
1062 213 247 214
1063 214 247 248
1064 214 248 215
1065 215 248 249
1066 215 249 216
1067 216 249 250
1068 216 250 217
1069 217 250 251
1070 217 251 218
1071 218 251 252
1072 218 252 219
1073 244 277 278
1074 244 278 245
1075 245 278 279
1076 245 279 246
1077 246 279 280
1078 246 280 247
1079 247 280 281
1080 247 281 248
1081 248 281 282
1082 248 282 249
1083 249 282 283
1084 249 283 250
1085 250 283 284
1086 250 284 251
1087 251 284 285
1088 251 285 252
1089 277 310 311
1090 277 311 278
1091 278 311 312
1092 278 312 279
1093 279 312 313
1094 279 313 280
1095 280 313 314
1096 280 314 281
1097 281 314 315
1098 281 315 282
1099 282 315 316
1100 282 316 283
1101 283 316 317
1102 283 317 284
1103 284 317 318
1104 284 318 285
1105 310 343 344
1106 310 344 311
1107 311 344 345
1108 311 345 312
1109 312 345 346
1110 312 346 313
1111 313 346 347
1112 313 347 314
1113 314 347 348
1114 314 348 315
1115 315 348 349
1116 315 349 316
1117 316 349 350
1118 316 350 317
1119 317 350 351
1120 317 351 318
1121 343 376 377
1122 343 377 344
1123 344 377 378
1124 344 378 345
1125 345 378 379
1126 345 379 346
1127 346 379 380
1128 346 380 347
1129 347 380 381
1130 347 381 348
1131 348 381 382
1132 348 382 349
1133 349 382 383
1134 349 383 350
1135 350 383 384
1136 350 384 351
1137 376 409 410
1138 376 410 377
1139 377 410 411
1140 377 411 378
1141 378 411 412
1142 378 412 379
1143 379 412 413
1144 379 413 380
1145 380 413 414
1146 380 414 381
1147 381 414 415
1148 381 415 382
1149 382 415 416
1150 382 416 383
1151 383 416 417
1152 383 417 384
1153 409 442 443
1154 409 443 410
1155 410 443 444
1156 410 444 411
1157 411 444 445
1158 411 445 412
1159 412 445 446
1160 412 446 413
1161 413 446 447
1162 413 447 414
1163 414 447 448
1164 414 448 415
1165 415 448 449
1166 415 449 416
1167 416 449 450
1168 416 450 417
1169 442 475 476
1170 442 476 443
1171 443 476 477
1172 443 477 444
1173 444 477 478
1174 444 478 445
1175 445 478 479
1176 445 479 446
1177 446 479 480
1178 446 480 447
1179 447 480 481
1180 447 481 448
1181 448 481 482
1182 448 482 449
1183 449 482 483
1184 449 483 450
1185 475 508 509
1186 475 509 476
1187 476 509 510
1188 476 510 477
1189 477 510 511
1190 477 511 478
1191 478 511 512
1192 478 512 479
1193 479 512 513
1194 479 513 480
1195 480 513 514
1196 480 514 481
1197 481 514 515
1198 481 515 482
1199 482 515 516
1200 482 516 483
1201 508 541 542
1202 508 542 509
1203 509 542 543
1204 509 543 510
1205 510 543 544
1206 510 544 511
1207 511 544 545
1208 511 545 512
1209 512 545 546
1210 512 546 513
1211 513 546 547
1212 513 547 514
1213 514 547 548
1214 514 548 515
1215 515 548 549
1216 515 549 516
1217 541 574 575
1218 541 575 542
1219 542 575 576
1220 542 576 543
1221 543 576 577
1222 543 577 544
1223 544 577 578
1224 544 578 545
1225 545 578 579
1226 545 579 546
1227 546 579 580
1228 546 580 547
1229 547 580 581
1230 547 581 548
1231 548 581 582
1232 548 582 549
1233 574 607 608
1234 574 608 575
1235 575 608 609
1236 575 609 576
1237 576 609 610
1238 576 610 577
1239 577 610 611
1240 577 611 578
1241 578 611 612
1242 578 612 579
1243 579 612 613
1244 579 613 580
1245 580 613 614
1246 580 614 581
1247 581 614 615
1248 581 615 582
1249 607 640 641
1250 607 641 608
1251 608 641 642
1252 608 642 609
1253 609 642 643
1254 609 643 610
1255 610 643 644
1256 610 644 611
1257 611 644 645
1258 611 645 612
1259 612 645 646
1260 612 646 613
1261 613 646 647
1262 613 647 614
1263 614 647 648
1264 614 648 615
1265 640 673 674
1266 640 674 641
1267 641 674 675
1268 641 675 642
1269 642 675 676
1270 642 676 643
1271 643 676 677
1272 643 677 644
1273 644 677 678
1274 644 678 645
1275 645 678 679
1276 645 679 646
1277 646 679 680
1278 646 680 647
1279 647 680 681
1280 647 681 648
1281 673 706 707
1282 673 707 674
1283 674 707 708
1284 674 708 675
1285 675 708 709
1286 675 709 676
1287 676 709 710
1288 676 710 677
1289 677 710 711
1290 677 711 678
1291 678 711 712
1292 678 712 679
1293 679 712 713
1294 679 713 680
1295 680 713 714
1296 680 714 681
1297 706 739 740
1298 706 740 707
1299 707 740 741
1300 707 741 708
1301 708 741 742
1302 708 742 709
1303 709 742 743
1304 709 743 710
1305 710 743 744
1306 710 744 711
1307 711 744 745
1308 711 745 712
1309 712 745 746
1310 712 746 713
1311 713 746 747
1312 713 747 714
1313 739 772 773
1314 739 773 740
1315 740 773 774
1316 740 774 741
1317 741 774 775
1318 741 775 742
1319 742 775 776
1320 742 776 743
1321 743 776 777
1322 743 777 744
1323 744 777 778
1324 744 778 745
1325 745 778 779
1326 745 779 746
1327 746 779 780
1328 746 780 747
1329 772 805 806
1330 772 806 773
1331 773 806 807
1332 773 807 774
1333 774 807 808
1334 774 808 775
1335 775 808 809
1336 775 809 776
1337 776 809 810
1338 776 810 777
1339 777 810 811
1340 777 811 778
1341 778 811 812
1342 778 812 779
1343 779 812 813
1344 779 813 780
1345 805 838 839
1346 805 839 806
1347 806 839 840
1348 806 840 807
1349 807 840 841
1350 807 841 808
1351 808 841 842
1352 808 842 809
1353 809 842 843
1354 809 843 810
1355 810 843 844
1356 810 844 811
1357 811 844 845
1358 811 845 812
1359 812 845 846
1360 812 846 813
1361 838 871 872
1362 838 872 839
1363 839 872 873
1364 839 873 840
1365 840 873 874
1366 840 874 841
1367 841 874 875
1368 841 875 842
1369 842 875 876
1370 842 876 843
1371 843 876 877
1372 843 877 844
1373 844 877 878
1374 844 878 845
1375 845 878 879
1376 845 879 846
1377 871 904 905
1378 871 905 872
1379 872 905 906
1380 872 906 873
1381 873 906 907
1382 873 907 874
1383 874 907 908
1384 874 908 875
1385 875 908 909
1386 875 909 876
1387 876 909 910
1388 876 910 877
1389 877 910 911
1390 877 911 878
1391 878 911 912
1392 878 912 879
1393 904 937 938
1394 904 938 905
1395 905 938 939
1396 905 939 906
1397 906 939 940
1398 906 940 907
1399 907 940 941
1400 907 941 908
1401 908 941 942
1402 908 942 909
1403 909 942 943
1404 909 943 910
1405 910 943 944
1406 910 944 911
1407 911 944 945
1408 911 945 912
1409 937 970 971
1410 937 971 938
1411 938 971 972
1412 938 972 939
1413 939 972 973
1414 939 973 940
1415 940 973 974
1416 940 974 941
1417 941 974 975
1418 941 975 942
1419 942 975 976
1420 942 976 943
1421 943 976 977
1422 943 977 944
1423 944 977 978
1424 944 978 945
1425 970 1003 1004
1426 970 1004 971
1427 971 1004 1005
1428 971 1005 972
1429 972 1005 1006
1430 972 1006 973
1431 973 1006 1007
1432 973 1007 974
1433 974 1007 1008
1434 974 1008 975
1435 975 1008 1009
1436 975 1009 976
1437 976 1009 1010
1438 976 1010 977
1439 977 1010 1011
1440 977 1011 978
1441 1003 1036 1037
1442 1003 1037 1004
1443 1004 1037 1038
1444 1004 1038 1005
1445 1005 1038 1039
1446 1005 1039 1006
1447 1006 1039 1040
1448 1006 1040 1007
1449 1007 1040 1041
1450 1007 1041 1008
1451 1008 1041 1042
1452 1008 1042 1009
1453 1009 1042 1043
1454 1009 1043 1010
1455 1010 1043 1044
1456 1010 1044 1011
1457 1036 1069 1070
1458 1036 1070 1037
1459 1037 1070 1071
1460 1037 1071 1038
1461 1038 1071 1072
1462 1038 1072 1039
1463 1039 1072 1073
1464 1039 1073 1040
1465 1040 1073 1074
1466 1040 1074 1041
1467 1041 1074 1075
1468 1041 1075 1042
1469 1042 1075 1076
1470 1042 1076 1043
1471 1043 1076 1077
1472 1043 1077 1044
1473 1069 1102 1103
1474 1069 1103 1070
1475 1070 1103 1104
1476 1070 1104 1071
1477 1071 1104 1105
1478 1071 1105 1072
1479 1072 1105 1106
1480 1072 1106 1073
1481 1073 1106 1107
1482 1073 1107 1074
1483 1074 1107 1108
1484 1074 1108 1075
1485 1075 1108 1109
1486 1075 1109 1076
1487 1076 1109 1110
1488 1076 1110 1077
1489 1102 1135 1136
1490 1102 1136 1103
1491 1103 1136 1137
1492 1103 1137 1104
1493 1104 1137 1138
1494 1104 1138 1105
1495 1105 1138 1139
1496 1105 1139 1106
1497 1106 1139 1140
1498 1106 1140 1107
1499 1107 1140 1141
1500 1107 1141 1108
1501 1108 1141 1142
1502 1108 1142 1109
1503 1109 1142 1143
1504 1109 1143 1110
1505 1135 1168 1169
1506 1135 1169 1136
1507 1136 1169 1170
1508 1136 1170 1137
1509 1137 1170 1171
1510 1137 1171 1138
1511 1138 1171 1172
1512 1138 1172 1139
1513 1139 1172 1173
1514 1139 1173 1140
1515 1140 1173 1174
1516 1140 1174 1141
1517 1141 1174 1175
1518 1141 1175 1142
1519 1142 1175 1176
1520 1142 1176 1143
1521 1168 1201 1202
1522 1168 1202 1169
1523 1169 1202 1203
1524 1169 1203 1170
1525 1170 1203 1204
1526 1170 1204 1171
1527 1171 1204 1205
1528 1171 1205 1172
1529 1172 1205 1206
1530 1172 1206 1173
1531 1173 1206 1207
1532 1173 1207 1174
1533 1174 1207 1208
1534 1174 1208 1175
1535 1175 1208 1209
1536 1175 1209 1176
1537 1201 1234 1235
1538 1201 1235 1202
1539 1202 1235 1236
1540 1202 1236 1203
1541 1203 1236 1237
1542 1203 1237 1204
1543 1204 1237 1238
1544 1204 1238 1205
1545 1205 1238 1239
1546 1205 1239 1206
1547 1206 1239 1240
1548 1206 1240 1207
1549 1207 1240 1241
1550 1207 1241 1208
1551 1208 1241 1242
1552 1208 1242 1209
1553 1234 1267 1268
1554 1234 1268 1235
1555 1235 1268 1269
1556 1235 1269 1236
1557 1236 1269 1270
1558 1236 1270 1237
1559 1237 1270 1271
1560 1237 1271 1238
1561 1238 1271 1272
1562 1238 1272 1239
1563 1239 1272 1273
1564 1239 1273 1240
1565 1240 1273 1274
1566 1240 1274 1241
1567 1241 1274 1275
1568 1241 1275 1242
1569 1267 1300 1301
1570 1267 1301 1268
1571 1268 1301 1302
1572 1268 1302 1269
1573 1269 1302 1303
1574 1269 1303 1270
1575 1270 1303 1304
1576 1270 1304 1271
1577 1271 1304 1305
1578 1271 1305 1272
1579 1272 1305 1306
1580 1272 1306 1273
1581 1273 1306 1307
1582 1273 1307 1274
1583 1274 1307 1308
1584 1274 1308 1275
1585 1300 1333 1334
1586 1300 1334 1301
1587 1301 1334 1335
1588 1301 1335 1302
1589 1302 1335 1336
1590 1302 1336 1303
1591 1303 1336 1337
1592 1303 1337 1304
1593 1304 1337 1338
1594 1304 1338 1305
1595 1305 1338 1339
1596 1305 1339 1306
1597 1306 1339 1340
1598 1306 1340 1307
1599 1307 1340 1341
1600 1307 1341 1308
2 3 2 960
1601 21 54 55
1602 21 55 22
1603 22 55 56
1604 22 56 23
1605 23 56 57
1606 23 57 24
1607 24 57 58
1608 24 58 25
1609 25 58 59
1610 25 59 26
1611 26 59 60
1612 26 60 27
1613 27 60 61
1614 27 61 28
1615 28 61 62
1616 28 62 29
1617 29 62 63
1618 29 63 30
1619 30 63 64
1620 30 64 31
1621 31 64 65
1622 31 65 32
1623 32 65 66
1624 32 66 33
1625 54 87 88
1626 54 88 55
1627 55 88 89
1628 55 89 56
1629 56 89 90
1630 56 90 57
1631 57 90 91
1632 57 91 58
1633 58 91 92
1634 58 92 59
1635 59 92 93
1636 59 93 60
1637 60 93 94
1638 60 94 61
1639 61 94 95
1640 61 95 62
1641 62 95 96
1642 62 96 63
1643 63 96 97
1644 63 97 64
1645 64 97 98
1646 64 98 65
1647 65 98 99
1648 65 99 66
1649 87 120 121
1650 87 121 88
1651 88 121 122
1652 88 122 89
1653 89 122 123
1654 89 123 90
1655 90 123 124
1656 90 124 91
1657 91 124 125
1658 91 125 92
1659 92 125 126
1660 92 126 93
1661 93 126 127
1662 93 127 94
1663 94 127 128
1664 94 128 95
1665 95 128 129
1666 95 129 96
1667 96 129 130
1668 96 130 97
1669 97 130 131
1670 97 131 98
1671 98 131 132
1672 98 132 99
1673 120 153 154
1674 120 154 121
1675 121 154 155
1676 121 155 122
1677 122 155 156
1678 122 156 123
1679 123 156 157
1680 123 157 124
1681 124 157 158
1682 124 158 125
1683 125 158 159
1684 125 159 126
1685 126 159 160
1686 126 160 127
1687 127 160 161
1688 127 161 128
1689 128 161 162
1690 128 162 129
1691 129 162 163
1692 129 163 130
1693 130 163 164
1694 130 164 131
1695 131 164 165
1696 131 165 132
1697 153 186 187
1698 153 187 154
1699 154 187 188
1700 154 188 155
1701 155 188 189
1702 155 189 156
1703 156 189 190
1704 156 190 157
1705 157 190 191
1706 157 191 158
1707 158 191 192
1708 158 192 159
1709 159 192 193
1710 159 193 160
1711 160 193 194
1712 160 194 161
1713 161 194 195
1714 161 195 162
1715 162 195 196
1716 162 196 163
1717 163 196 197
1718 163 197 164
1719 164 197 198
1720 164 198 165
1721 186 219 220
1722 186 220 187
1723 187 220 221
1724 187 221 188
1725 188 221 222
1726 188 222 189
1727 189 222 223
1728 189 223 190
1729 190 223 224
1730 190 224 191
1731 191 224 225
1732 191 225 192
1733 192 225 226
1734 192 226 193
1735 193 226 227
1736 193 227 194
1737 194 227 228
1738 194 228 195
1739 195 228 229
1740 195 229 196
1741 196 229 230
1742 196 230 197
1743 197 230 231
1744 197 231 198
1745 219 252 253
1746 219 253 220
1747 220 253 254
1748 220 254 221
1749 221 254 255
1750 221 255 222
1751 222 255 256
1752 222 256 223
1753 223 256 257
1754 223 257 224
1755 224 257 258
1756 224 258 225
1757 225 258 259
1758 225 259 226
1759 226 259 260
1760 226 260 227
1761 227 260 261
1762 227 261 228
1763 228 261 262
1764 228 262 229
1765 229 262 263
1766 229 263 230
1767 230 263 264
1768 230 264 231
1769 252 285 286
1770 252 286 253
1771 253 286 287
1772 253 287 254
1773 254 287 288
1774 254 288 255
1775 255 288 289
1776 255 289 256
1777 256 289 290
1778 256 290 257
1779 257 290 291
1780 257 291 258
1781 258 291 292
1782 258 292 259
1783 259 292 293
1784 259 293 260
1785 260 293 294
1786 260 294 261
1787 261 294 295
1788 261 295 262
1789 262 295 296
1790 262 296 263
1791 263 296 297
1792 263 297 264
1793 285 318 319
1794 285 319 286
1795 286 319 320
1796 286 320 287
1797 287 320 321
1798 287 321 288
1799 288 321 322
1800 288 322 289
1801 289 322 323
1802 289 323 290
1803 290 323 324
1804 290 324 291
1805 291 324 325
1806 291 325 292
1807 292 325 326
1808 292 326 293
1809 293 326 327
1810 293 327 294
1811 294 327 328
1812 294 328 295
1813 295 328 329
1814 295 329 296
1815 296 329 330
1816 296 330 297
1817 318 351 352
1818 318 352 319
1819 319 352 353
1820 319 353 320
1821 320 353 354
1822 320 354 321
1823 321 354 355
1824 321 355 322
1825 322 355 356
1826 322 356 323
1827 323 356 357
1828 323 357 324
1829 324 357 358
1830 324 358 325
1831 325 358 359
1832 325 359 326
1833 326 359 360
1834 326 360 327
1835 327 360 361
1836 327 361 328
1837 328 361 362
1838 328 362 329
1839 329 362 363
1840 329 363 330
1841 351 384 385
1842 351 385 352
1843 352 385 386
1844 352 386 353
1845 353 386 387
1846 353 387 354
1847 354 387 388
1848 354 388 355
1849 355 388 389
1850 355 389 356
1851 356 389 390
1852 356 390 357
1853 357 390 391
1854 357 391 358
1855 358 391 392
1856 358 392 359
1857 359 392 393
1858 359 393 360
1859 360 393 394
1860 360 394 361
1861 361 394 395
1862 361 395 362
1863 362 395 396
1864 362 396 363
1865 384 417 418
1866 384 418 385
1867 385 418 419
1868 385 419 386
1869 386 419 420
1870 386 420 387
1871 387 420 421
1872 387 421 388
1873 388 421 422
1874 388 422 389
1875 389 422 423
1876 389 423 390
1877 390 423 424
1878 390 424 391
1879 391 424 425
1880 391 425 392
1881 392 425 426
1882 392 426 393
1883 393 426 427
1884 393 427 394
1885 394 427 428
1886 394 428 395
1887 395 428 429
1888 395 429 396
1889 417 450 451
1890 417 451 418
1891 418 451 452
1892 418 452 419
1893 419 452 453
1894 419 453 420
1895 420 453 454
1896 420 454 421
1897 421 454 455
1898 421 455 422
1899 422 455 456
1900 422 456 423
1901 423 456 457
1902 423 457 424
1903 424 457 458
1904 424 458 425
1905 425 458 459
1906 425 459 426
1907 426 459 460
1908 426 460 427
1909 427 460 461
1910 427 461 428
1911 428 461 462
1912 428 462 429
1913 450 483 484
1914 450 484 451
1915 451 484 485
1916 451 485 452
1917 452 485 486
1918 452 486 453
1919 453 486 487
1920 453 487 454
1921 454 487 488
1922 454 488 455
1923 455 488 489
1924 455 489 456
1925 456 489 490
1926 456 490 457
1927 457 490 491
1928 457 491 458
1929 458 491 492
1930 458 492 459
1931 459 492 493
1932 459 493 460
1933 460 493 494
1934 460 494 461
1935 461 494 495
1936 461 495 462
1937 483 516 517
1938 483 517 484
1939 484 517 518
1940 484 518 485
1941 485 518 519
1942 485 519 486
1943 486 519 520
1944 486 520 487
1945 487 520 521
1946 487 521 488
1947 488 521 522
1948 488 522 489
1949 489 522 523
1950 489 523 490
1951 490 523 524
1952 490 524 491
1953 491 524 525
1954 491 525 492
1955 492 525 526
1956 492 526 493
1957 493 526 527
1958 493 527 494
1959 494 527 528
1960 494 528 495
1961 516 549 550
1962 516 550 517
1963 517 550 551
1964 517 551 518
1965 518 551 552
1966 518 552 519
1967 519 552 553
1968 519 553 520
1969 520 553 554
1970 520 554 521
1971 521 554 555
1972 521 555 522
1973 522 555 556
1974 522 556 523
1975 523 556 557
1976 523 557 524
1977 524 557 558
1978 524 558 525
1979 525 558 559
1980 525 559 526
1981 526 559 560
1982 526 560 527
1983 527 560 561
1984 527 561 528
1985 549 582 583
1986 549 583 550
1987 550 583 584
1988 550 584 551
1989 551 584 585
1990 551 585 552
1991 552 585 586
1992 552 586 553
1993 553 586 587
1994 553 587 554
1995 554 587 588
1996 554 588 555
1997 555 588 589
1998 555 589 556
1999 556 589 590
2000 556 590 557
2001 557 590 591
2002 557 591 558
2003 558 591 592
2004 558 592 559
2005 559 592 593
2006 559 593 560
2007 560 593 594
2008 560 594 561
2009 582 615 616
2010 582 616 583
2011 583 616 617
2012 583 617 584
2013 584 617 618
2014 584 618 585
2015 585 618 619
2016 585 619 586
2017 586 619 620
2018 586 620 587
2019 587 620 621
2020 587 621 588
2021 588 621 622
2022 588 622 589
2023 589 622 623
2024 589 623 590
2025 590 623 624
2026 590 624 591
2027 591 624 625
2028 591 625 592
2029 592 625 626
2030 592 626 593
2031 593 626 627
2032 593 627 594
2033 615 648 649
2034 615 649 616
2035 616 649 650
2036 616 650 617
2037 617 650 651
2038 617 651 618
2039 618 651 652
2040 618 652 619
2041 619 652 653
2042 619 653 620
2043 620 653 654
2044 620 654 621
2045 621 654 655
2046 621 655 622
2047 622 655 656
2048 622 656 623
2049 623 656 657
2050 623 657 624
2051 624 657 658
2052 624 658 625
2053 625 658 659
2054 625 659 626
2055 626 659 660
2056 626 660 627
2057 648 681 682
2058 648 682 649
2059 649 682 683
2060 649 683 650
2061 650 683 684
2062 650 684 651
2063 651 684 685
2064 651 685 652
2065 652 685 686
2066 652 686 653
2067 653 686 687
2068 653 687 654
2069 654 687 688
2070 654 688 655
2071 655 688 689
2072 655 689 656
2073 656 689 690
2074 656 690 657
2075 657 690 691
2076 657 691 658
2077 658 691 692
2078 658 692 659
2079 659 692 693
2080 659 693 660
2081 681 714 715
2082 681 715 682
2083 682 715 716
2084 682 716 683
2085 683 716 717
2086 683 717 684
2087 684 717 718
2088 684 718 685
2089 685 718 719
2090 685 719 686
2091 686 719 720
2092 686 720 687
2093 687 720 721
2094 687 721 688
2095 688 721 722
2096 688 722 689
2097 689 722 723
2098 689 723 690
2099 690 723 724
2100 690 724 691
2101 691 724 725
2102 691 725 692
2103 692 725 726
2104 692 726 693
2105 714 747 748
2106 714 748 715
2107 715 748 749
2108 715 749 716
2109 716 749 750
2110 716 750 717
2111 717 750 751
2112 717 751 718
2113 718 751 752
2114 718 752 719
2115 719 752 753
2116 719 753 720
2117 720 753 754
2118 720 754 721
2119 721 754 755
2120 721 755 722
2121 722 755 756
2122 722 756 723
2123 723 756 757
2124 723 757 724
2125 724 757 758
2126 724 758 725
2127 725 758 759
2128 725 759 726
2129 747 780 781
2130 747 781 748
2131 748 781 782
2132 748 782 749
2133 749 782 783
2134 749 783 750
2135 750 783 784
2136 750 784 751
2137 751 784 785
2138 751 785 752
2139 752 785 786
2140 752 786 753
2141 753 786 787
2142 753 787 754
2143 754 787 788
2144 754 788 755
2145 755 788 789
2146 755 789 756
2147 756 789 790
2148 756 790 757
2149 757 790 791
2150 757 791 758
2151 758 791 792
2152 758 792 759
2153 780 813 814
2154 780 814 781
2155 781 814 815
2156 781 815 782
2157 782 815 816
2158 782 816 783
2159 783 816 817
2160 783 817 784
2161 784 817 818
2162 784 818 785
2163 785 818 819
2164 785 819 786
2165 786 819 820
2166 786 820 787
2167 787 820 821
2168 787 821 788
2169 788 821 822
2170 788 822 789
2171 789 822 823
2172 789 823 790
2173 790 823 824
2174 790 824 791
2175 791 824 825
2176 791 825 792
2177 813 846 847
2178 813 847 814
2179 814 847 848
2180 814 848 815
2181 815 848 849
2182 815 849 816
2183 816 849 850
2184 816 850 817
2185 817 850 851
2186 817 851 818
2187 818 851 852
2188 818 852 819
2189 819 852 853
2190 819 853 820
2191 820 853 854
2192 820 854 821
2193 821 854 855
2194 821 855 822
2195 822 855 856
2196 822 856 823
2197 823 856 857
2198 823 857 824
2199 824 857 858
2200 824 858 825
2201 846 879 880
2202 846 880 847
2203 847 880 881
2204 847 881 848
2205 848 881 882
2206 848 882 849
2207 849 882 883
2208 849 883 850
2209 850 883 884
2210 850 884 851
2211 851 884 885
2212 851 885 852
2213 852 885 886
2214 852 886 853
2215 853 886 887
2216 853 887 854
2217 854 887 888
2218 854 888 855
2219 855 888 889
2220 855 889 856
2221 856 889 890
2222 856 890 857
2223 857 890 891
2224 857 891 858
2225 879 912 913
2226 879 913 880
2227 880 913 914
2228 880 914 881
2229 881 914 915
2230 881 915 882
2231 882 915 916
2232 882 916 883
2233 883 916 917
2234 883 917 884
2235 884 917 918
2236 884 918 885
2237 885 918 919
2238 885 919 886
2239 886 919 920
2240 886 920 887
2241 887 920 921
2242 887 921 888
2243 888 921 922
2244 888 922 889
2245 889 922 923
2246 889 923 890
2247 890 923 924
2248 890 924 891
2249 912 945 946
2250 912 946 913
2251 913 946 947
2252 913 947 914
2253 914 947 948
2254 914 948 915
2255 915 948 949
2256 915 949 916
2257 916 949 950
2258 916 950 917
2259 917 950 951
2260 917 951 918
2261 918 951 952
2262 918 952 919
2263 919 952 953
2264 919 953 920
2265 920 953 954
2266 920 954 921
2267 921 954 955
2268 921 955 922
2269 922 955 956
2270 922 956 923
2271 923 956 957
2272 923 957 924
2273 945 978 979
2274 945 979 946
2275 946 979 980
2276 946 980 947
2277 947 980 981
2278 947 981 948
2279 948 981 982
2280 948 982 949
2281 949 982 983
2282 949 983 950
2283 950 983 984
2284 950 984 951
2285 951 984 985
2286 951 985 952
2287 952 985 986
2288 952 986 953
2289 953 986 987
2290 953 987 954
2291 954 987 988
2292 954 988 955
2293 955 988 989
2294 955 989 956
2295 956 989 990
2296 956 990 957
2297 978 1011 1012
2298 978 1012 979
2299 979 1012 1013
2300 979 1013 980
2301 980 1013 1014
2302 980 1014 981
2303 981 1014 1015
2304 981 1015 982
2305 982 1015 1016
2306 982 1016 983
2307 983 1016 1017
2308 983 1017 984
2309 984 1017 1018
2310 984 1018 985
2311 985 1018 1019
2312 985 1019 986
2313 986 1019 1020
2314 986 1020 987
2315 987 1020 1021
2316 987 1021 988
2317 988 1021 1022
2318 988 1022 989
2319 989 1022 1023
2320 989 1023 990
2321 1011 1044 1045
2322 1011 1045 1012
2323 1012 1045 1046
2324 1012 1046 1013
2325 1013 1046 1047
2326 1013 1047 1014
2327 1014 1047 1048
2328 1014 1048 1015
2329 1015 1048 1049
2330 1015 1049 1016
2331 1016 1049 1050
2332 1016 1050 1017
2333 1017 1050 1051
2334 1017 1051 1018
2335 1018 1051 1052
2336 1018 1052 1019
2337 1019 1052 1053
2338 1019 1053 1020
2339 1020 1053 1054
2340 1020 1054 1021
2341 1021 1054 1055
2342 1021 1055 1022
2343 1022 1055 1056
2344 1022 1056 1023
2345 1044 1077 1078
2346 1044 1078 1045
2347 1045 1078 1079
2348 1045 1079 1046
2349 1046 1079 1080
2350 1046 1080 1047
2351 1047 1080 1081
2352 1047 1081 1048
2353 1048 1081 1082
2354 1048 1082 1049
2355 1049 1082 1083
2356 1049 1083 1050
2357 1050 1083 1084
2358 1050 1084 1051
2359 1051 1084 1085
2360 1051 1085 1052
2361 1052 1085 1086
2362 1052 1086 1053
2363 1053 1086 1087
2364 1053 1087 1054
2365 1054 1087 1088
2366 1054 1088 1055
2367 1055 1088 1089
2368 1055 1089 1056
2369 1077 1110 1111
2370 1077 1111 1078
2371 1078 1111 1112
2372 1078 1112 1079
2373 1079 1112 1113
2374 1079 1113 1080
2375 1080 1113 1114
2376 1080 1114 1081
2377 1081 1114 1115
2378 1081 1115 1082
2379 1082 1115 1116
2380 1082 1116 1083
2381 1083 1116 1117
2382 1083 1117 1084
2383 1084 1117 1118
2384 1084 1118 1085
2385 1085 1118 1119
2386 1085 1119 1086
2387 1086 1119 1120
2388 1086 1120 1087
2389 1087 1120 1121
2390 1087 1121 1088
2391 1088 1121 1122
2392 1088 1122 1089
2393 1110 1143 1144
2394 1110 1144 1111
2395 1111 1144 1145
2396 1111 1145 1112
2397 1112 1145 1146
2398 1112 1146 1113
2399 1113 1146 1147
2400 1113 1147 1114
2401 1114 1147 1148
2402 1114 1148 1115
2403 1115 1148 1149
2404 1115 1149 1116
2405 1116 1149 1150
2406 1116 1150 1117
2407 1117 1150 1151
2408 1117 1151 1118
2409 1118 1151 1152
2410 1118 1152 1119
2411 1119 1152 1153
2412 1119 1153 1120
2413 1120 1153 1154
2414 1120 1154 1121
2415 1121 1154 1155
2416 1121 1155 1122
2417 1143 1176 1177
2418 1143 1177 1144
2419 1144 1177 1178
2420 1144 1178 1145
2421 1145 1178 1179
2422 1145 1179 1146
2423 1146 1179 1180
2424 1146 1180 1147
2425 1147 1180 1181
2426 1147 1181 1148
2427 1148 1181 1182
2428 1148 1182 1149
2429 1149 1182 1183
2430 1149 1183 1150
2431 1150 1183 1184
2432 1150 1184 1151
2433 1151 1184 1185
2434 1151 1185 1152
2435 1152 1185 1186
2436 1152 1186 1153
2437 1153 1186 1187
2438 1153 1187 1154
2439 1154 1187 1188
2440 1154 1188 1155
2441 1176 1209 1210
2442 1176 1210 1177
2443 1177 1210 1211
2444 1177 1211 1178
2445 1178 1211 1212
2446 1178 1212 1179
2447 1179 1212 1213
2448 1179 1213 1180
2449 1180 1213 1214
2450 1180 1214 1181
2451 1181 1214 1215
2452 1181 1215 1182
2453 1182 1215 1216
2454 1182 1216 1183
2455 1183 1216 1217
2456 1183 1217 1184
2457 1184 1217 1218
2458 1184 1218 1185
2459 1185 1218 1219
2460 1185 1219 1186
2461 1186 1219 1220
2462 1186 1220 1187
2463 1187 1220 1221
2464 1187 1221 1188
2465 1209 1242 1243
2466 1209 1243 1210
2467 1210 1243 1244
2468 1210 1244 1211
2469 1211 1244 1245
2470 1211 1245 1212
2471 1212 1245 1246
2472 1212 1246 1213
2473 1213 1246 1247
2474 1213 1247 1214
2475 1214 1247 1248
2476 1214 1248 1215
2477 1215 1248 1249
2478 1215 1249 1216
2479 1216 1249 1250
2480 1216 1250 1217
2481 1217 1250 1251
2482 1217 1251 1218
2483 1218 1251 1252
2484 1218 1252 1219
2485 1219 1252 1253
2486 1219 1253 1220
2487 1220 1253 1254
2488 1220 1254 1221
2489 1242 1275 1276
2490 1242 1276 1243
2491 1243 1276 1277
2492 1243 1277 1244
2493 1244 1277 1278
2494 1244 1278 1245
2495 1245 1278 1279
2496 1245 1279 1246
2497 1246 1279 1280
2498 1246 1280 1247
2499 1247 1280 1281
2500 1247 1281 1248
2501 1248 1281 1282
2502 1248 1282 1249
2503 1249 1282 1283
2504 1249 1283 1250
2505 1250 1283 1284
2506 1250 1284 1251
2507 1251 1284 1285
2508 1251 1285 1252
2509 1252 1285 1286
2510 1252 1286 1253
2511 1253 1286 1287
2512 1253 1287 1254
2513 1275 1308 1309
2514 1275 1309 1276
2515 1276 1309 1310
2516 1276 1310 1277
2517 1277 1310 1311
2518 1277 1311 1278
2519 1278 1311 1312
2520 1278 1312 1279
2521 1279 1312 1313
2522 1279 1313 1280
2523 1280 1313 1314
2524 1280 1314 1281
2525 1281 1314 1315
2526 1281 1315 1282
2527 1282 1315 1316
2528 1282 1316 1283
2529 1283 1316 1317
2530 1283 1317 1284
2531 1284 1317 1318
2532 1284 1318 1285
2533 1285 1318 1319
2534 1285 1319 1286
2535 1286 1319 1320
2536 1286 1320 1287
2537 1308 1341 1342
2538 1308 1342 1309
2539 1309 1342 1343
2540 1309 1343 1310
2541 1310 1343 1344
2542 1310 1344 1311
2543 1311 1344 1345
2544 1311 1345 1312
2545 1312 1345 1346
2546 1312 1346 1313
2547 1313 1346 1347
2548 1313 1347 1314
2549 1314 1347 1348
2550 1314 1348 1315
2551 1315 1348 1349
2552 1315 1349 1316
2553 1316 1349 1350
2554 1316 1350 1317
2555 1317 1350 1351
2556 1317 1351 1318
2557 1318 1351 1352
2558 1318 1352 1319
2559 1319 1352 1353
2560 1319 1353 1320
$EndElements
